  0
SECTION
  2
HEADER
  9
$ACADVER
  1
AC1009
  9
$INSBASE
 10
0.0
 20
0.0
 30
0.0
  9
$EXTMIN
 10
0.0
 20
0.0
 30
0.0
  9
$EXTMAX
 10
0.0
 20
0.0
 30
0.0
  0
ENDSEC
  0
SECTION
  2
TABLES
  0
TABLE
  2
VPORT
 70
0
  0
ENDTAB
  0
TABLE
  2
LTYPE
 70
1
  0
LTYPE
  2
CONTINUOUS
 70
0
  3
Solid line
 72
65
 73
0
 40
0.0
  0
ENDTAB
  0
TABLE
  2
LAYER
 70
1
  0
LAYER
  2
PYDXF
 70
64
 62
7
  6
continuous
  0
ENDTAB
  0
TABLE
  2
STYLE
 70
1
  0
STYLE
  2
STANDARD
 70
0
 40
0
 41
1.0
 50
0.0
 71
0
 42
1
 3
ARIAL.TTF
 4

  0
ENDTAB
  0
TABLE
  2
VIEW
 70
0
  0
ENDTAB
  0
ENDSEC
  0
SECTION
  2
BLOCKS
  0
ENDSEC
  0
SECTION
  2
ENTITIES
  0
POLYLINE
  8
0
 62
0
 70
1
 66
1
 10
0.0
 20
0.0
 30
0.0
  0
VERTEX
  8
0
 10
-580.0
 20
0.0
  0
VERTEX
  8
0
 10
-580.0
 20
0.0
  0
VERTEX
  8
0
 10
-580.0
 20
600.0
  0
VERTEX
  8
0
 10
-580.0
 20
600.0
  0
SEQEND
  8
0
  0
POLYLINE
  8
0
 62
0
 70
1
 66
1
 10
0.0
 20
0.0
 30
0.0
  0
VERTEX
  8
0
 10
0.0
 20
0.0
  0
VERTEX
  8
0
 10
0.0
 20
0.0
  0
VERTEX
  8
0
 10
-580.0
 20
0.0
  0
VERTEX
  8
0
 10
-580.0
 20
0.0
  0
SEQEND
  8
0
  0
POLYLINE
  8
0
 62
0
 70
1
 66
1
 10
0.0
 20
0.0
 30
0.0
  0
VERTEX
  8
0
 10
-580.0
 20
600.0
  0
VERTEX
  8
0
 10
-520.0
 20
600.0
  0
VERTEX
  8
0
 10
-520.0
 20
600.0
  0
VERTEX
  8
0
 10
-580.0
 20
600.0
  0
SEQEND
  8
0
  0
POLYLINE
  8
0
 62
0
 70
1
 66
1
 10
0.0
 20
0.0
 30
0.0
  0
VERTEX
  8
0
 10
-20.0
 20
526.0
  0
VERTEX
  8
0
 10
-30.0
 20
526.0
  0
VERTEX
  8
0
 10
-30.0
 20
512.0
  0
VERTEX
  8
0
 10
-20.0
 20
512.0
  0
SEQEND
  8
0
  0
POLYLINE
  8
0
 62
0
 70
1
 66
1
 10
0.0
 20
0.0
 30
0.0
  0
VERTEX
  8
0
 10
-580.0
 20
600.0
  0
VERTEX
  8
0
 10
-520.0
 20
600.0
  0
VERTEX
  8
0
 10
-520.0
 20
50.0
  0
VERTEX
  8
0
 10
-515.0
 20
50.0
  0
VERTEX
  8
0
 10
-515.0
 20
600.0
  0
VERTEX
  8
0
 10
-487.5
 20
600.0
  0
VERTEX
  8
0
 10
-487.5
 20
50.0
  0
VERTEX
  8
0
 10
-482.5
 20
50.0
  0
VERTEX
  8
0
 10
-482.5
 20
600.0
  0
VERTEX
  8
0
 10
-455.0
 20
600.0
  0
VERTEX
  8
0
 10
-455.0
 20
50.0
  0
VERTEX
  8
0
 10
-450.0
 20
50.0
  0
VERTEX
  8
0
 10
-450.0
 20
600.0
  0
VERTEX
  8
0
 10
-390.0
 20
600.0
  0
VERTEX
  8
0
 10
-390.0
 20
50.0
  0
VERTEX
  8
0
 10
-385.0
 20
50.0
  0
VERTEX
  8
0
 10
-385.0
 20
600.0
  0
VERTEX
  8
0
 10
-357.5
 20
600.0
  0
VERTEX
  8
0
 10
-357.5
 20
50.0
  0
VERTEX
  8
0
 10
-352.5
 20
50.0
  0
VERTEX
  8
0
 10
-352.5
 20
600.0
  0
VERTEX
  8
0
 10
-325.0
 20
600.0
  0
VERTEX
  8
0
 10
-325.0
 20
50.0
  0
VERTEX
  8
0
 10
-320.0
 20
50.0
  0
VERTEX
  8
0
 10
-320.0
 20
600.0
  0
VERTEX
  8
0
 10
-260.0
 20
600.0
  0
VERTEX
  8
0
 10
-260.0
 20
50.0
  0
VERTEX
  8
0
 10
-255.0
 20
50.0
  0
VERTEX
  8
0
 10
-255.0
 20
600.0
  0
VERTEX
  8
0
 10
-227.5
 20
600.0
  0
VERTEX
  8
0
 10
-227.5
 20
50.0
  0
VERTEX
  8
0
 10
-222.5
 20
50.0
  0
VERTEX
  8
0
 10
-222.5
 20
600.0
  0
VERTEX
  8
0
 10
-195.0
 20
600.0
  0
VERTEX
  8
0
 10
-195.0
 20
50.0
  0
VERTEX
  8
0
 10
-190.0
 20
50.0
  0
VERTEX
  8
0
 10
-190.0
 20
600.0
  0
VERTEX
  8
0
 10
-130.0
 20
600.0
  0
VERTEX
  8
0
 10
-130.0
 20
50.0
  0
VERTEX
  8
0
 10
-125.0
 20
50.0
  0
VERTEX
  8
0
 10
-125.0
 20
600.0
  0
VERTEX
  8
0
 10
-97.5
 20
600.0
  0
VERTEX
  8
0
 10
-97.5
 20
50.0
  0
VERTEX
  8
0
 10
-92.5
 20
50.0
  0
VERTEX
  8
0
 10
-92.5
 20
600.0
  0
VERTEX
  8
0
 10
-65.0
 20
600.0
  0
VERTEX
  8
0
 10
-65.0
 20
50.0
  0
VERTEX
  8
0
 10
-60.0
 20
50.0
  0
VERTEX
  8
0
 10
-60.0
 20
600.0
  0
VERTEX
  8
0
 10
0.0
 20
600.0
  0
VERTEX
  8
0
 10
0.0
 20
0.0
  0
VERTEX
  8
0
 10
-580.0
 20
0.0
  0
SEQEND
  8
0
  0
POLYLINE
  8
0
 62
0
 70
1
 66
1
 10
0.0
 20
0.0
 30
0.0
  0
VERTEX
  8
0
 10
-30.0
 20
72.0
  0
VERTEX
  8
0
 10
-30.0
 20
86.0
  0
VERTEX
  8
0
 10
-20.0
 20
86.0
  0
VERTEX
  8
0
 10
-20.0
 20
72.0
  0
SEQEND
  8
0
  0
POLYLINE
  8
0
 62
0
 70
1
 66
1
 10
0.0
 20
0.0
 30
0.0
  0
VERTEX
  8
0
 10
-30.0
 20
160.0
  0
VERTEX
  8
0
 10
-30.0
 20
174.0
  0
VERTEX
  8
0
 10
-20.0
 20
174.0
  0
VERTEX
  8
0
 10
-20.0
 20
160.0
  0
SEQEND
  8
0
  0
POLYLINE
  8
0
 62
0
 70
1
 66
1
 10
0.0
 20
0.0
 30
0.0
  0
VERTEX
  8
0
 10
-30.0
 20
248.0
  0
VERTEX
  8
0
 10
-30.0
 20
262.0
  0
VERTEX
  8
0
 10
-20.0
 20
262.0
  0
VERTEX
  8
0
 10
-20.0
 20
248.0
  0
SEQEND
  8
0
  0
POLYLINE
  8
0
 62
0
 70
1
 66
1
 10
0.0
 20
0.0
 30
0.0
  0
VERTEX
  8
0
 10
-30.0
 20
336.0
  0
VERTEX
  8
0
 10
-30.0
 20
350.0
  0
VERTEX
  8
0
 10
-20.0
 20
350.0
  0
VERTEX
  8
0
 10
-20.0
 20
336.0
  0
SEQEND
  8
0
  0
POLYLINE
  8
0
 62
0
 70
1
 66
1
 10
0.0
 20
0.0
 30
0.0
  0
VERTEX
  8
0
 10
-30.0
 20
424.0
  0
VERTEX
  8
0
 10
-30.0
 20
438.0
  0
VERTEX
  8
0
 10
-20.0
 20
438.0
  0
VERTEX
  8
0
 10
-20.0
 20
424.0
  0
SEQEND
  8
0
  0
POLYLINE
  8
0
 62
0
 70
1
 66
1
 10
0.0
 20
0.0
 30
0.0
  0
VERTEX
  8
0
 10
-560.0
 20
72.0
  0
VERTEX
  8
0
 10
-560.0
 20
86.0
  0
VERTEX
  8
0
 10
-550.0
 20
86.0
  0
VERTEX
  8
0
 10
-550.0
 20
72.0
  0
SEQEND
  8
0
  0
POLYLINE
  8
0
 62
0
 70
1
 66
1
 10
0.0
 20
0.0
 30
0.0
  0
VERTEX
  8
0
 10
-560.0
 20
160.0
  0
VERTEX
  8
0
 10
-560.0
 20
174.0
  0
VERTEX
  8
0
 10
-550.0
 20
174.0
  0
VERTEX
  8
0
 10
-550.0
 20
160.0
  0
SEQEND
  8
0
  0
POLYLINE
  8
0
 62
0
 70
1
 66
1
 10
0.0
 20
0.0
 30
0.0
  0
VERTEX
  8
0
 10
-560.0
 20
248.0
  0
VERTEX
  8
0
 10
-560.0
 20
262.0
  0
VERTEX
  8
0
 10
-550.0
 20
262.0
  0
VERTEX
  8
0
 10
-550.0
 20
248.0
  0
SEQEND
  8
0
  0
POLYLINE
  8
0
 62
0
 70
1
 66
1
 10
0.0
 20
0.0
 30
0.0
  0
VERTEX
  8
0
 10
-560.0
 20
336.0
  0
VERTEX
  8
0
 10
-560.0
 20
350.0
  0
VERTEX
  8
0
 10
-550.0
 20
350.0
  0
VERTEX
  8
0
 10
-550.0
 20
336.0
  0
SEQEND
  8
0
  0
POLYLINE
  8
0
 62
0
 70
1
 66
1
 10
0.0
 20
0.0
 30
0.0
  0
VERTEX
  8
0
 10
-560.0
 20
424.0
  0
VERTEX
  8
0
 10
-560.0
 20
438.0
  0
VERTEX
  8
0
 10
-550.0
 20
438.0
  0
VERTEX
  8
0
 10
-550.0
 20
424.0
  0
SEQEND
  8
0
  0
POLYLINE
  8
0
 62
0
 70
1
 66
1
 10
0.0
 20
0.0
 30
0.0
  0
VERTEX
  8
0
 10
-560.0
 20
512.0
  0
VERTEX
  8
0
 10
-560.0
 20
526.0
  0
VERTEX
  8
0
 10
-550.0
 20
526.0
  0
VERTEX
  8
0
 10
-550.0
 20
512.0
  0
SEQEND
  8
0
  0
POLYLINE
  8
0
 62
0
 70
1
 66
1
 10
0.0
 20
0.0
 30
0.0
  0
VERTEX
  8
0
 10
-20.0
 20
526.0
  0
VERTEX
  8
0
 10
-30.0
 20
526.0
  0
VERTEX
  8
0
 10
-30.0
 20
512.0
  0
VERTEX
  8
0
 10
-20.0
 20
512.0
  0
SEQEND
  8
0
  0
POLYLINE
  8
0
 62
0
 70
1
 66
1
 10
0.0
 20
0.0
 30
0.0
  0
VERTEX
  8
0
 10
-580.0
 20
600.0
  0
VERTEX
  8
0
 10
-520.0
 20
600.0
  0
VERTEX
  8
0
 10
-520.0
 20
50.0
  0
VERTEX
  8
0
 10
-515.0
 20
50.0
  0
VERTEX
  8
0
 10
-515.0
 20
600.0
  0
VERTEX
  8
0
 10
-487.5
 20
600.0
  0
VERTEX
  8
0
 10
-487.5
 20
50.0
  0
VERTEX
  8
0
 10
-482.5
 20
50.0
  0
VERTEX
  8
0
 10
-482.5
 20
600.0
  0
VERTEX
  8
0
 10
-455.0
 20
600.0
  0
VERTEX
  8
0
 10
-455.0
 20
50.0
  0
VERTEX
  8
0
 10
-450.0
 20
50.0
  0
VERTEX
  8
0
 10
-450.0
 20
600.0
  0
VERTEX
  8
0
 10
-390.0
 20
600.0
  0
VERTEX
  8
0
 10
-390.0
 20
50.0
  0
VERTEX
  8
0
 10
-385.0
 20
50.0
  0
VERTEX
  8
0
 10
-385.0
 20
600.0
  0
VERTEX
  8
0
 10
-357.5
 20
600.0
  0
VERTEX
  8
0
 10
-357.5
 20
50.0
  0
VERTEX
  8
0
 10
-352.5
 20
50.0
  0
VERTEX
  8
0
 10
-352.5
 20
600.0
  0
VERTEX
  8
0
 10
-325.0
 20
600.0
  0
VERTEX
  8
0
 10
-325.0
 20
50.0
  0
VERTEX
  8
0
 10
-320.0
 20
50.0
  0
VERTEX
  8
0
 10
-320.0
 20
600.0
  0
VERTEX
  8
0
 10
-260.0
 20
600.0
  0
VERTEX
  8
0
 10
-260.0
 20
50.0
  0
VERTEX
  8
0
 10
-255.0
 20
50.0
  0
VERTEX
  8
0
 10
-255.0
 20
600.0
  0
VERTEX
  8
0
 10
-227.5
 20
600.0
  0
VERTEX
  8
0
 10
-227.5
 20
50.0
  0
VERTEX
  8
0
 10
-222.5
 20
50.0
  0
VERTEX
  8
0
 10
-222.5
 20
600.0
  0
VERTEX
  8
0
 10
-195.0
 20
600.0
  0
VERTEX
  8
0
 10
-195.0
 20
50.0
  0
VERTEX
  8
0
 10
-190.0
 20
50.0
  0
VERTEX
  8
0
 10
-190.0
 20
600.0
  0
VERTEX
  8
0
 10
-130.0
 20
600.0
  0
VERTEX
  8
0
 10
-130.0
 20
50.0
  0
VERTEX
  8
0
 10
-125.0
 20
50.0
  0
VERTEX
  8
0
 10
-125.0
 20
600.0
  0
VERTEX
  8
0
 10
-97.5
 20
600.0
  0
VERTEX
  8
0
 10
-97.5
 20
50.0
  0
VERTEX
  8
0
 10
-92.5
 20
50.0
  0
VERTEX
  8
0
 10
-92.5
 20
600.0
  0
VERTEX
  8
0
 10
-65.0
 20
600.0
  0
VERTEX
  8
0
 10
-65.0
 20
50.0
  0
VERTEX
  8
0
 10
-60.0
 20
50.0
  0
VERTEX
  8
0
 10
-60.0
 20
600.0
  0
VERTEX
  8
0
 10
0.0
 20
600.0
  0
VERTEX
  8
0
 10
0.0
 20
0.0
  0
VERTEX
  8
0
 10
-580.0
 20
0.0
  0
SEQEND
  8
0
  0
POLYLINE
  8
0
 62
0
 70
1
 66
1
 10
0.0
 20
0.0
 30
0.0
  0
VERTEX
  8
0
 10
-30.0
 20
72.0
  0
VERTEX
  8
0
 10
-30.0
 20
86.0
  0
VERTEX
  8
0
 10
-20.0
 20
86.0
  0
VERTEX
  8
0
 10
-20.0
 20
72.0
  0
SEQEND
  8
0
  0
POLYLINE
  8
0
 62
0
 70
1
 66
1
 10
0.0
 20
0.0
 30
0.0
  0
VERTEX
  8
0
 10
-30.0
 20
160.0
  0
VERTEX
  8
0
 10
-30.0
 20
174.0
  0
VERTEX
  8
0
 10
-20.0
 20
174.0
  0
VERTEX
  8
0
 10
-20.0
 20
160.0
  0
SEQEND
  8
0
  0
POLYLINE
  8
0
 62
0
 70
1
 66
1
 10
0.0
 20
0.0
 30
0.0
  0
VERTEX
  8
0
 10
-30.0
 20
248.0
  0
VERTEX
  8
0
 10
-30.0
 20
262.0
  0
VERTEX
  8
0
 10
-20.0
 20
262.0
  0
VERTEX
  8
0
 10
-20.0
 20
248.0
  0
SEQEND
  8
0
  0
POLYLINE
  8
0
 62
0
 70
1
 66
1
 10
0.0
 20
0.0
 30
0.0
  0
VERTEX
  8
0
 10
-30.0
 20
336.0
  0
VERTEX
  8
0
 10
-30.0
 20
350.0
  0
VERTEX
  8
0
 10
-20.0
 20
350.0
  0
VERTEX
  8
0
 10
-20.0
 20
336.0
  0
SEQEND
  8
0
  0
POLYLINE
  8
0
 62
0
 70
1
 66
1
 10
0.0
 20
0.0
 30
0.0
  0
VERTEX
  8
0
 10
-30.0
 20
424.0
  0
VERTEX
  8
0
 10
-30.0
 20
438.0
  0
VERTEX
  8
0
 10
-20.0
 20
438.0
  0
VERTEX
  8
0
 10
-20.0
 20
424.0
  0
SEQEND
  8
0
  0
POLYLINE
  8
0
 62
0
 70
1
 66
1
 10
0.0
 20
0.0
 30
0.0
  0
VERTEX
  8
0
 10
-560.0
 20
72.0
  0
VERTEX
  8
0
 10
-560.0
 20
86.0
  0
VERTEX
  8
0
 10
-550.0
 20
86.0
  0
VERTEX
  8
0
 10
-550.0
 20
72.0
  0
SEQEND
  8
0
  0
POLYLINE
  8
0
 62
0
 70
1
 66
1
 10
0.0
 20
0.0
 30
0.0
  0
VERTEX
  8
0
 10
-560.0
 20
160.0
  0
VERTEX
  8
0
 10
-560.0
 20
174.0
  0
VERTEX
  8
0
 10
-550.0
 20
174.0
  0
VERTEX
  8
0
 10
-550.0
 20
160.0
  0
SEQEND
  8
0
  0
POLYLINE
  8
0
 62
0
 70
1
 66
1
 10
0.0
 20
0.0
 30
0.0
  0
VERTEX
  8
0
 10
-560.0
 20
248.0
  0
VERTEX
  8
0
 10
-560.0
 20
262.0
  0
VERTEX
  8
0
 10
-550.0
 20
262.0
  0
VERTEX
  8
0
 10
-550.0
 20
248.0
  0
SEQEND
  8
0
  0
POLYLINE
  8
0
 62
0
 70
1
 66
1
 10
0.0
 20
0.0
 30
0.0
  0
VERTEX
  8
0
 10
-560.0
 20
336.0
  0
VERTEX
  8
0
 10
-560.0
 20
350.0
  0
VERTEX
  8
0
 10
-550.0
 20
350.0
  0
VERTEX
  8
0
 10
-550.0
 20
336.0
  0
SEQEND
  8
0
  0
POLYLINE
  8
0
 62
0
 70
1
 66
1
 10
0.0
 20
0.0
 30
0.0
  0
VERTEX
  8
0
 10
-560.0
 20
424.0
  0
VERTEX
  8
0
 10
-560.0
 20
438.0
  0
VERTEX
  8
0
 10
-550.0
 20
438.0
  0
VERTEX
  8
0
 10
-550.0
 20
424.0
  0
SEQEND
  8
0
  0
POLYLINE
  8
0
 62
0
 70
1
 66
1
 10
0.0
 20
0.0
 30
0.0
  0
VERTEX
  8
0
 10
-560.0
 20
512.0
  0
VERTEX
  8
0
 10
-560.0
 20
526.0
  0
VERTEX
  8
0
 10
-550.0
 20
526.0
  0
VERTEX
  8
0
 10
-550.0
 20
512.0
  0
SEQEND
  8
0
  0
POLYLINE
  8
0
 62
0
 70
1
 66
1
 10
0.0
 20
0.0
 30
0.0
  0
VERTEX
  8
0
 10
0.0
 20
600.0
  0
VERTEX
  8
0
 10
0.0
 20
600.0
  0
VERTEX
  8
0
 10
0.0
 20
0.0
  0
VERTEX
  8
0
 10
0.0
 20
0.0
  0
SEQEND
  8
0
  0
POLYLINE
  8
0
 62
0
 70
1
 66
1
 10
0.0
 20
0.0
 30
0.0
  0
VERTEX
  8
0
 10
-520.0
 20
50.0
  0
VERTEX
  8
0
 10
-520.0
 20
50.0
  0
VERTEX
  8
0
 10
-520.0
 20
600.0
  0
VERTEX
  8
0
 10
-520.0
 20
600.0
  0
SEQEND
  8
0
  0
POLYLINE
  8
0
 62
0
 70
1
 66
1
 10
0.0
 20
0.0
 30
0.0
  0
VERTEX
  8
0
 10
-20.0
 20
526.0
  0
VERTEX
  8
0
 10
-20.0
 20
526.0
  0
VERTEX
  8
0
 10
-30.0
 20
526.0
  0
VERTEX
  8
0
 10
-30.0
 20
526.0
  0
SEQEND
  8
0
  0
POLYLINE
  8
0
 62
0
 70
1
 66
1
 10
0.0
 20
0.0
 30
0.0
  0
VERTEX
  8
0
 10
-20.0
 20
512.0
  0
VERTEX
  8
0
 10
-20.0
 20
512.0
  0
VERTEX
  8
0
 10
-20.0
 20
526.0
  0
VERTEX
  8
0
 10
-20.0
 20
526.0
  0
SEQEND
  8
0
  0
POLYLINE
  8
0
 62
0
 70
1
 66
1
 10
0.0
 20
0.0
 30
0.0
  0
VERTEX
  8
0
 10
-30.0
 20
526.0
  0
VERTEX
  8
0
 10
-30.0
 20
526.0
  0
VERTEX
  8
0
 10
-30.0
 20
512.0
  0
VERTEX
  8
0
 10
-30.0
 20
512.0
  0
SEQEND
  8
0
  0
POLYLINE
  8
0
 62
0
 70
1
 66
1
 10
0.0
 20
0.0
 30
0.0
  0
VERTEX
  8
0
 10
-30.0
 20
512.0
  0
VERTEX
  8
0
 10
-30.0
 20
512.0
  0
VERTEX
  8
0
 10
-20.0
 20
512.0
  0
VERTEX
  8
0
 10
-20.0
 20
512.0
  0
SEQEND
  8
0
  0
POLYLINE
  8
0
 62
0
 70
1
 66
1
 10
0.0
 20
0.0
 30
0.0
  0
VERTEX
  8
0
 10
-515.0
 20
50.0
  0
VERTEX
  8
0
 10
-515.0
 20
50.0
  0
VERTEX
  8
0
 10
-520.0
 20
50.0
  0
VERTEX
  8
0
 10
-520.0
 20
50.0
  0
SEQEND
  8
0
  0
POLYLINE
  8
0
 62
0
 70
1
 66
1
 10
0.0
 20
0.0
 30
0.0
  0
VERTEX
  8
0
 10
-515.0
 20
600.0
  0
VERTEX
  8
0
 10
-515.0
 20
600.0
  0
VERTEX
  8
0
 10
-515.0
 20
50.0
  0
VERTEX
  8
0
 10
-515.0
 20
50.0
  0
SEQEND
  8
0
  0
POLYLINE
  8
0
 62
0
 70
1
 66
1
 10
0.0
 20
0.0
 30
0.0
  0
VERTEX
  8
0
 10
-515.0
 20
600.0
  0
VERTEX
  8
0
 10
-487.5
 20
600.0
  0
VERTEX
  8
0
 10
-487.5
 20
600.0
  0
VERTEX
  8
0
 10
-515.0
 20
600.0
  0
SEQEND
  8
0
  0
POLYLINE
  8
0
 62
0
 70
1
 66
1
 10
0.0
 20
0.0
 30
0.0
  0
VERTEX
  8
0
 10
-487.5
 20
50.0
  0
VERTEX
  8
0
 10
-487.5
 20
50.0
  0
VERTEX
  8
0
 10
-487.5
 20
600.0
  0
VERTEX
  8
0
 10
-487.5
 20
600.0
  0
SEQEND
  8
0
  0
POLYLINE
  8
0
 62
0
 70
1
 66
1
 10
0.0
 20
0.0
 30
0.0
  0
VERTEX
  8
0
 10
-482.5
 20
50.0
  0
VERTEX
  8
0
 10
-482.5
 20
50.0
  0
VERTEX
  8
0
 10
-487.5
 20
50.0
  0
VERTEX
  8
0
 10
-487.5
 20
50.0
  0
SEQEND
  8
0
  0
POLYLINE
  8
0
 62
0
 70
1
 66
1
 10
0.0
 20
0.0
 30
0.0
  0
VERTEX
  8
0
 10
-482.5
 20
600.0
  0
VERTEX
  8
0
 10
-482.5
 20
600.0
  0
VERTEX
  8
0
 10
-482.5
 20
50.0
  0
VERTEX
  8
0
 10
-482.5
 20
50.0
  0
SEQEND
  8
0
  0
POLYLINE
  8
0
 62
0
 70
1
 66
1
 10
0.0
 20
0.0
 30
0.0
  0
VERTEX
  8
0
 10
-482.5
 20
600.0
  0
VERTEX
  8
0
 10
-455.0
 20
600.0
  0
VERTEX
  8
0
 10
-455.0
 20
600.0
  0
VERTEX
  8
0
 10
-482.5
 20
600.0
  0
SEQEND
  8
0
  0
POLYLINE
  8
0
 62
0
 70
1
 66
1
 10
0.0
 20
0.0
 30
0.0
  0
VERTEX
  8
0
 10
-455.0
 20
50.0
  0
VERTEX
  8
0
 10
-455.0
 20
50.0
  0
VERTEX
  8
0
 10
-455.0
 20
600.0
  0
VERTEX
  8
0
 10
-455.0
 20
600.0
  0
SEQEND
  8
0
  0
POLYLINE
  8
0
 62
0
 70
1
 66
1
 10
0.0
 20
0.0
 30
0.0
  0
VERTEX
  8
0
 10
-450.0
 20
50.0
  0
VERTEX
  8
0
 10
-450.0
 20
50.0
  0
VERTEX
  8
0
 10
-455.0
 20
50.0
  0
VERTEX
  8
0
 10
-455.0
 20
50.0
  0
SEQEND
  8
0
  0
POLYLINE
  8
0
 62
0
 70
1
 66
1
 10
0.0
 20
0.0
 30
0.0
  0
VERTEX
  8
0
 10
-450.0
 20
600.0
  0
VERTEX
  8
0
 10
-450.0
 20
600.0
  0
VERTEX
  8
0
 10
-450.0
 20
50.0
  0
VERTEX
  8
0
 10
-450.0
 20
50.0
  0
SEQEND
  8
0
  0
POLYLINE
  8
0
 62
0
 70
1
 66
1
 10
0.0
 20
0.0
 30
0.0
  0
VERTEX
  8
0
 10
-450.0
 20
600.0
  0
VERTEX
  8
0
 10
-390.0
 20
600.0
  0
VERTEX
  8
0
 10
-390.0
 20
600.0
  0
VERTEX
  8
0
 10
-450.0
 20
600.0
  0
SEQEND
  8
0
  0
POLYLINE
  8
0
 62
0
 70
1
 66
1
 10
0.0
 20
0.0
 30
0.0
  0
VERTEX
  8
0
 10
-390.0
 20
50.0
  0
VERTEX
  8
0
 10
-390.0
 20
50.0
  0
VERTEX
  8
0
 10
-390.0
 20
600.0
  0
VERTEX
  8
0
 10
-390.0
 20
600.0
  0
SEQEND
  8
0
  0
POLYLINE
  8
0
 62
0
 70
1
 66
1
 10
0.0
 20
0.0
 30
0.0
  0
VERTEX
  8
0
 10
-385.0
 20
50.0
  0
VERTEX
  8
0
 10
-385.0
 20
50.0
  0
VERTEX
  8
0
 10
-390.0
 20
50.0
  0
VERTEX
  8
0
 10
-390.0
 20
50.0
  0
SEQEND
  8
0
  0
POLYLINE
  8
0
 62
0
 70
1
 66
1
 10
0.0
 20
0.0
 30
0.0
  0
VERTEX
  8
0
 10
-385.0
 20
600.0
  0
VERTEX
  8
0
 10
-385.0
 20
600.0
  0
VERTEX
  8
0
 10
-385.0
 20
50.0
  0
VERTEX
  8
0
 10
-385.0
 20
50.0
  0
SEQEND
  8
0
  0
POLYLINE
  8
0
 62
0
 70
1
 66
1
 10
0.0
 20
0.0
 30
0.0
  0
VERTEX
  8
0
 10
-385.0
 20
600.0
  0
VERTEX
  8
0
 10
-357.5
 20
600.0
  0
VERTEX
  8
0
 10
-357.5
 20
600.0
  0
VERTEX
  8
0
 10
-385.0
 20
600.0
  0
SEQEND
  8
0
  0
POLYLINE
  8
0
 62
0
 70
1
 66
1
 10
0.0
 20
0.0
 30
0.0
  0
VERTEX
  8
0
 10
-357.5
 20
50.0
  0
VERTEX
  8
0
 10
-357.5
 20
50.0
  0
VERTEX
  8
0
 10
-357.5
 20
600.0
  0
VERTEX
  8
0
 10
-357.5
 20
600.0
  0
SEQEND
  8
0
  0
POLYLINE
  8
0
 62
0
 70
1
 66
1
 10
0.0
 20
0.0
 30
0.0
  0
VERTEX
  8
0
 10
-352.5
 20
50.0
  0
VERTEX
  8
0
 10
-352.5
 20
50.0
  0
VERTEX
  8
0
 10
-357.5
 20
50.0
  0
VERTEX
  8
0
 10
-357.5
 20
50.0
  0
SEQEND
  8
0
  0
POLYLINE
  8
0
 62
0
 70
1
 66
1
 10
0.0
 20
0.0
 30
0.0
  0
VERTEX
  8
0
 10
-352.5
 20
600.0
  0
VERTEX
  8
0
 10
-352.5
 20
600.0
  0
VERTEX
  8
0
 10
-352.5
 20
50.0
  0
VERTEX
  8
0
 10
-352.5
 20
50.0
  0
SEQEND
  8
0
  0
POLYLINE
  8
0
 62
0
 70
1
 66
1
 10
0.0
 20
0.0
 30
0.0
  0
VERTEX
  8
0
 10
-352.5
 20
600.0
  0
VERTEX
  8
0
 10
-325.0
 20
600.0
  0
VERTEX
  8
0
 10
-325.0
 20
600.0
  0
VERTEX
  8
0
 10
-352.5
 20
600.0
  0
SEQEND
  8
0
  0
POLYLINE
  8
0
 62
0
 70
1
 66
1
 10
0.0
 20
0.0
 30
0.0
  0
VERTEX
  8
0
 10
-325.0
 20
50.0
  0
VERTEX
  8
0
 10
-325.0
 20
50.0
  0
VERTEX
  8
0
 10
-325.0
 20
600.0
  0
VERTEX
  8
0
 10
-325.0
 20
600.0
  0
SEQEND
  8
0
  0
POLYLINE
  8
0
 62
0
 70
1
 66
1
 10
0.0
 20
0.0
 30
0.0
  0
VERTEX
  8
0
 10
-320.0
 20
50.0
  0
VERTEX
  8
0
 10
-320.0
 20
50.0
  0
VERTEX
  8
0
 10
-325.0
 20
50.0
  0
VERTEX
  8
0
 10
-325.0
 20
50.0
  0
SEQEND
  8
0
  0
POLYLINE
  8
0
 62
0
 70
1
 66
1
 10
0.0
 20
0.0
 30
0.0
  0
VERTEX
  8
0
 10
-320.0
 20
600.0
  0
VERTEX
  8
0
 10
-320.0
 20
600.0
  0
VERTEX
  8
0
 10
-320.0
 20
50.0
  0
VERTEX
  8
0
 10
-320.0
 20
50.0
  0
SEQEND
  8
0
  0
POLYLINE
  8
0
 62
0
 70
1
 66
1
 10
0.0
 20
0.0
 30
0.0
  0
VERTEX
  8
0
 10
-320.0
 20
600.0
  0
VERTEX
  8
0
 10
-260.0
 20
600.0
  0
VERTEX
  8
0
 10
-260.0
 20
600.0
  0
VERTEX
  8
0
 10
-320.0
 20
600.0
  0
SEQEND
  8
0
  0
POLYLINE
  8
0
 62
0
 70
1
 66
1
 10
0.0
 20
0.0
 30
0.0
  0
VERTEX
  8
0
 10
-260.0
 20
50.0
  0
VERTEX
  8
0
 10
-260.0
 20
50.0
  0
VERTEX
  8
0
 10
-260.0
 20
600.0
  0
VERTEX
  8
0
 10
-260.0
 20
600.0
  0
SEQEND
  8
0
  0
POLYLINE
  8
0
 62
0
 70
1
 66
1
 10
0.0
 20
0.0
 30
0.0
  0
VERTEX
  8
0
 10
-255.0
 20
50.0
  0
VERTEX
  8
0
 10
-255.0
 20
50.0
  0
VERTEX
  8
0
 10
-260.0
 20
50.0
  0
VERTEX
  8
0
 10
-260.0
 20
50.0
  0
SEQEND
  8
0
  0
POLYLINE
  8
0
 62
0
 70
1
 66
1
 10
0.0
 20
0.0
 30
0.0
  0
VERTEX
  8
0
 10
-255.0
 20
600.0
  0
VERTEX
  8
0
 10
-255.0
 20
600.0
  0
VERTEX
  8
0
 10
-255.0
 20
50.0
  0
VERTEX
  8
0
 10
-255.0
 20
50.0
  0
SEQEND
  8
0
  0
POLYLINE
  8
0
 62
0
 70
1
 66
1
 10
0.0
 20
0.0
 30
0.0
  0
VERTEX
  8
0
 10
-255.0
 20
600.0
  0
VERTEX
  8
0
 10
-227.5
 20
600.0
  0
VERTEX
  8
0
 10
-227.5
 20
600.0
  0
VERTEX
  8
0
 10
-255.0
 20
600.0
  0
SEQEND
  8
0
  0
POLYLINE
  8
0
 62
0
 70
1
 66
1
 10
0.0
 20
0.0
 30
0.0
  0
VERTEX
  8
0
 10
-227.5
 20
50.0
  0
VERTEX
  8
0
 10
-227.5
 20
50.0
  0
VERTEX
  8
0
 10
-227.5
 20
600.0
  0
VERTEX
  8
0
 10
-227.5
 20
600.0
  0
SEQEND
  8
0
  0
POLYLINE
  8
0
 62
0
 70
1
 66
1
 10
0.0
 20
0.0
 30
0.0
  0
VERTEX
  8
0
 10
-222.5
 20
50.0
  0
VERTEX
  8
0
 10
-222.5
 20
50.0
  0
VERTEX
  8
0
 10
-227.5
 20
50.0
  0
VERTEX
  8
0
 10
-227.5
 20
50.0
  0
SEQEND
  8
0
  0
POLYLINE
  8
0
 62
0
 70
1
 66
1
 10
0.0
 20
0.0
 30
0.0
  0
VERTEX
  8
0
 10
-222.5
 20
600.0
  0
VERTEX
  8
0
 10
-222.5
 20
600.0
  0
VERTEX
  8
0
 10
-222.5
 20
50.0
  0
VERTEX
  8
0
 10
-222.5
 20
50.0
  0
SEQEND
  8
0
  0
POLYLINE
  8
0
 62
0
 70
1
 66
1
 10
0.0
 20
0.0
 30
0.0
  0
VERTEX
  8
0
 10
-222.5
 20
600.0
  0
VERTEX
  8
0
 10
-195.0
 20
600.0
  0
VERTEX
  8
0
 10
-195.0
 20
600.0
  0
VERTEX
  8
0
 10
-222.5
 20
600.0
  0
SEQEND
  8
0
  0
POLYLINE
  8
0
 62
0
 70
1
 66
1
 10
0.0
 20
0.0
 30
0.0
  0
VERTEX
  8
0
 10
-195.0
 20
50.0
  0
VERTEX
  8
0
 10
-195.0
 20
50.0
  0
VERTEX
  8
0
 10
-195.0
 20
600.0
  0
VERTEX
  8
0
 10
-195.0
 20
600.0
  0
SEQEND
  8
0
  0
POLYLINE
  8
0
 62
0
 70
1
 66
1
 10
0.0
 20
0.0
 30
0.0
  0
VERTEX
  8
0
 10
-190.0
 20
50.0
  0
VERTEX
  8
0
 10
-190.0
 20
50.0
  0
VERTEX
  8
0
 10
-195.0
 20
50.0
  0
VERTEX
  8
0
 10
-195.0
 20
50.0
  0
SEQEND
  8
0
  0
POLYLINE
  8
0
 62
0
 70
1
 66
1
 10
0.0
 20
0.0
 30
0.0
  0
VERTEX
  8
0
 10
-190.0
 20
600.0
  0
VERTEX
  8
0
 10
-190.0
 20
600.0
  0
VERTEX
  8
0
 10
-190.0
 20
50.0
  0
VERTEX
  8
0
 10
-190.0
 20
50.0
  0
SEQEND
  8
0
  0
POLYLINE
  8
0
 62
0
 70
1
 66
1
 10
0.0
 20
0.0
 30
0.0
  0
VERTEX
  8
0
 10
-190.0
 20
600.0
  0
VERTEX
  8
0
 10
-130.0
 20
600.0
  0
VERTEX
  8
0
 10
-130.0
 20
600.0
  0
VERTEX
  8
0
 10
-190.0
 20
600.0
  0
SEQEND
  8
0
  0
POLYLINE
  8
0
 62
0
 70
1
 66
1
 10
0.0
 20
0.0
 30
0.0
  0
VERTEX
  8
0
 10
-130.0
 20
50.0
  0
VERTEX
  8
0
 10
-130.0
 20
50.0
  0
VERTEX
  8
0
 10
-130.0
 20
600.0
  0
VERTEX
  8
0
 10
-130.0
 20
600.0
  0
SEQEND
  8
0
  0
POLYLINE
  8
0
 62
0
 70
1
 66
1
 10
0.0
 20
0.0
 30
0.0
  0
VERTEX
  8
0
 10
-125.0
 20
50.0
  0
VERTEX
  8
0
 10
-125.0
 20
50.0
  0
VERTEX
  8
0
 10
-130.0
 20
50.0
  0
VERTEX
  8
0
 10
-130.0
 20
50.0
  0
SEQEND
  8
0
  0
POLYLINE
  8
0
 62
0
 70
1
 66
1
 10
0.0
 20
0.0
 30
0.0
  0
VERTEX
  8
0
 10
-125.0
 20
600.0
  0
VERTEX
  8
0
 10
-125.0
 20
600.0
  0
VERTEX
  8
0
 10
-125.0
 20
50.0
  0
VERTEX
  8
0
 10
-125.0
 20
50.0
  0
SEQEND
  8
0
  0
POLYLINE
  8
0
 62
0
 70
1
 66
1
 10
0.0
 20
0.0
 30
0.0
  0
VERTEX
  8
0
 10
-125.0
 20
600.0
  0
VERTEX
  8
0
 10
-97.5
 20
600.0
  0
VERTEX
  8
0
 10
-97.5
 20
600.0
  0
VERTEX
  8
0
 10
-125.0
 20
600.0
  0
SEQEND
  8
0
  0
POLYLINE
  8
0
 62
0
 70
1
 66
1
 10
0.0
 20
0.0
 30
0.0
  0
VERTEX
  8
0
 10
-97.5
 20
50.0
  0
VERTEX
  8
0
 10
-97.5
 20
50.0
  0
VERTEX
  8
0
 10
-97.5
 20
600.0
  0
VERTEX
  8
0
 10
-97.5
 20
600.0
  0
SEQEND
  8
0
  0
POLYLINE
  8
0
 62
0
 70
1
 66
1
 10
0.0
 20
0.0
 30
0.0
  0
VERTEX
  8
0
 10
-92.5
 20
50.0
  0
VERTEX
  8
0
 10
-92.5
 20
50.0
  0
VERTEX
  8
0
 10
-97.5
 20
50.0
  0
VERTEX
  8
0
 10
-97.5
 20
50.0
  0
SEQEND
  8
0
  0
POLYLINE
  8
0
 62
0
 70
1
 66
1
 10
0.0
 20
0.0
 30
0.0
  0
VERTEX
  8
0
 10
-92.5
 20
600.0
  0
VERTEX
  8
0
 10
-92.5
 20
600.0
  0
VERTEX
  8
0
 10
-92.5
 20
50.0
  0
VERTEX
  8
0
 10
-92.5
 20
50.0
  0
SEQEND
  8
0
  0
POLYLINE
  8
0
 62
0
 70
1
 66
1
 10
0.0
 20
0.0
 30
0.0
  0
VERTEX
  8
0
 10
-92.5
 20
600.0
  0
VERTEX
  8
0
 10
-65.0
 20
600.0
  0
VERTEX
  8
0
 10
-65.0
 20
600.0
  0
VERTEX
  8
0
 10
-92.5
 20
600.0
  0
SEQEND
  8
0
  0
POLYLINE
  8
0
 62
0
 70
1
 66
1
 10
0.0
 20
0.0
 30
0.0
  0
VERTEX
  8
0
 10
-65.0
 20
50.0
  0
VERTEX
  8
0
 10
-65.0
 20
50.0
  0
VERTEX
  8
0
 10
-65.0
 20
600.0
  0
VERTEX
  8
0
 10
-65.0
 20
600.0
  0
SEQEND
  8
0
  0
POLYLINE
  8
0
 62
0
 70
1
 66
1
 10
0.0
 20
0.0
 30
0.0
  0
VERTEX
  8
0
 10
-60.0
 20
50.0
  0
VERTEX
  8
0
 10
-60.0
 20
50.0
  0
VERTEX
  8
0
 10
-65.0
 20
50.0
  0
VERTEX
  8
0
 10
-65.0
 20
50.0
  0
SEQEND
  8
0
  0
POLYLINE
  8
0
 62
0
 70
1
 66
1
 10
0.0
 20
0.0
 30
0.0
  0
VERTEX
  8
0
 10
-60.0
 20
600.0
  0
VERTEX
  8
0
 10
-60.0
 20
600.0
  0
VERTEX
  8
0
 10
-60.0
 20
50.0
  0
VERTEX
  8
0
 10
-60.0
 20
50.0
  0
SEQEND
  8
0
  0
POLYLINE
  8
0
 62
0
 70
1
 66
1
 10
0.0
 20
0.0
 30
0.0
  0
VERTEX
  8
0
 10
-60.0
 20
600.0
  0
VERTEX
  8
0
 10
0.0
 20
600.0
  0
VERTEX
  8
0
 10
0.0
 20
600.0
  0
VERTEX
  8
0
 10
-60.0
 20
600.0
  0
SEQEND
  8
0
  0
POLYLINE
  8
0
 62
0
 70
1
 66
1
 10
0.0
 20
0.0
 30
0.0
  0
VERTEX
  8
0
 10
-30.0
 20
72.0
  0
VERTEX
  8
0
 10
-30.0
 20
72.0
  0
VERTEX
  8
0
 10
-30.0
 20
86.0
  0
VERTEX
  8
0
 10
-30.0
 20
86.0
  0
SEQEND
  8
0
  0
POLYLINE
  8
0
 62
0
 70
1
 66
1
 10
0.0
 20
0.0
 30
0.0
  0
VERTEX
  8
0
 10
-20.0
 20
72.0
  0
VERTEX
  8
0
 10
-20.0
 20
72.0
  0
VERTEX
  8
0
 10
-30.0
 20
72.0
  0
VERTEX
  8
0
 10
-30.0
 20
72.0
  0
SEQEND
  8
0
  0
POLYLINE
  8
0
 62
0
 70
1
 66
1
 10
0.0
 20
0.0
 30
0.0
  0
VERTEX
  8
0
 10
-30.0
 20
86.0
  0
VERTEX
  8
0
 10
-30.0
 20
86.0
  0
VERTEX
  8
0
 10
-20.0
 20
86.0
  0
VERTEX
  8
0
 10
-20.0
 20
86.0
  0
SEQEND
  8
0
  0
POLYLINE
  8
0
 62
0
 70
1
 66
1
 10
0.0
 20
0.0
 30
0.0
  0
VERTEX
  8
0
 10
-20.0
 20
86.0
  0
VERTEX
  8
0
 10
-20.0
 20
86.0
  0
VERTEX
  8
0
 10
-20.0
 20
72.0
  0
VERTEX
  8
0
 10
-20.0
 20
72.0
  0
SEQEND
  8
0
  0
POLYLINE
  8
0
 62
0
 70
1
 66
1
 10
0.0
 20
0.0
 30
0.0
  0
VERTEX
  8
0
 10
-30.0
 20
160.0
  0
VERTEX
  8
0
 10
-30.0
 20
160.0
  0
VERTEX
  8
0
 10
-30.0
 20
174.0
  0
VERTEX
  8
0
 10
-30.0
 20
174.0
  0
SEQEND
  8
0
  0
POLYLINE
  8
0
 62
0
 70
1
 66
1
 10
0.0
 20
0.0
 30
0.0
  0
VERTEX
  8
0
 10
-20.0
 20
160.0
  0
VERTEX
  8
0
 10
-20.0
 20
160.0
  0
VERTEX
  8
0
 10
-30.0
 20
160.0
  0
VERTEX
  8
0
 10
-30.0
 20
160.0
  0
SEQEND
  8
0
  0
POLYLINE
  8
0
 62
0
 70
1
 66
1
 10
0.0
 20
0.0
 30
0.0
  0
VERTEX
  8
0
 10
-30.0
 20
174.0
  0
VERTEX
  8
0
 10
-30.0
 20
174.0
  0
VERTEX
  8
0
 10
-20.0
 20
174.0
  0
VERTEX
  8
0
 10
-20.0
 20
174.0
  0
SEQEND
  8
0
  0
POLYLINE
  8
0
 62
0
 70
1
 66
1
 10
0.0
 20
0.0
 30
0.0
  0
VERTEX
  8
0
 10
-20.0
 20
174.0
  0
VERTEX
  8
0
 10
-20.0
 20
174.0
  0
VERTEX
  8
0
 10
-20.0
 20
160.0
  0
VERTEX
  8
0
 10
-20.0
 20
160.0
  0
SEQEND
  8
0
  0
POLYLINE
  8
0
 62
0
 70
1
 66
1
 10
0.0
 20
0.0
 30
0.0
  0
VERTEX
  8
0
 10
-30.0
 20
248.0
  0
VERTEX
  8
0
 10
-30.0
 20
248.0
  0
VERTEX
  8
0
 10
-30.0
 20
262.0
  0
VERTEX
  8
0
 10
-30.0
 20
262.0
  0
SEQEND
  8
0
  0
POLYLINE
  8
0
 62
0
 70
1
 66
1
 10
0.0
 20
0.0
 30
0.0
  0
VERTEX
  8
0
 10
-20.0
 20
248.0
  0
VERTEX
  8
0
 10
-20.0
 20
248.0
  0
VERTEX
  8
0
 10
-30.0
 20
248.0
  0
VERTEX
  8
0
 10
-30.0
 20
248.0
  0
SEQEND
  8
0
  0
POLYLINE
  8
0
 62
0
 70
1
 66
1
 10
0.0
 20
0.0
 30
0.0
  0
VERTEX
  8
0
 10
-30.0
 20
262.0
  0
VERTEX
  8
0
 10
-30.0
 20
262.0
  0
VERTEX
  8
0
 10
-20.0
 20
262.0
  0
VERTEX
  8
0
 10
-20.0
 20
262.0
  0
SEQEND
  8
0
  0
POLYLINE
  8
0
 62
0
 70
1
 66
1
 10
0.0
 20
0.0
 30
0.0
  0
VERTEX
  8
0
 10
-20.0
 20
262.0
  0
VERTEX
  8
0
 10
-20.0
 20
262.0
  0
VERTEX
  8
0
 10
-20.0
 20
248.0
  0
VERTEX
  8
0
 10
-20.0
 20
248.0
  0
SEQEND
  8
0
  0
POLYLINE
  8
0
 62
0
 70
1
 66
1
 10
0.0
 20
0.0
 30
0.0
  0
VERTEX
  8
0
 10
-30.0
 20
336.0
  0
VERTEX
  8
0
 10
-30.0
 20
336.0
  0
VERTEX
  8
0
 10
-30.0
 20
350.0
  0
VERTEX
  8
0
 10
-30.0
 20
350.0
  0
SEQEND
  8
0
  0
POLYLINE
  8
0
 62
0
 70
1
 66
1
 10
0.0
 20
0.0
 30
0.0
  0
VERTEX
  8
0
 10
-20.0
 20
336.0
  0
VERTEX
  8
0
 10
-20.0
 20
336.0
  0
VERTEX
  8
0
 10
-30.0
 20
336.0
  0
VERTEX
  8
0
 10
-30.0
 20
336.0
  0
SEQEND
  8
0
  0
POLYLINE
  8
0
 62
0
 70
1
 66
1
 10
0.0
 20
0.0
 30
0.0
  0
VERTEX
  8
0
 10
-30.0
 20
350.0
  0
VERTEX
  8
0
 10
-30.0
 20
350.0
  0
VERTEX
  8
0
 10
-20.0
 20
350.0
  0
VERTEX
  8
0
 10
-20.0
 20
350.0
  0
SEQEND
  8
0
  0
POLYLINE
  8
0
 62
0
 70
1
 66
1
 10
0.0
 20
0.0
 30
0.0
  0
VERTEX
  8
0
 10
-20.0
 20
350.0
  0
VERTEX
  8
0
 10
-20.0
 20
350.0
  0
VERTEX
  8
0
 10
-20.0
 20
336.0
  0
VERTEX
  8
0
 10
-20.0
 20
336.0
  0
SEQEND
  8
0
  0
POLYLINE
  8
0
 62
0
 70
1
 66
1
 10
0.0
 20
0.0
 30
0.0
  0
VERTEX
  8
0
 10
-30.0
 20
424.0
  0
VERTEX
  8
0
 10
-30.0
 20
424.0
  0
VERTEX
  8
0
 10
-30.0
 20
438.0
  0
VERTEX
  8
0
 10
-30.0
 20
438.0
  0
SEQEND
  8
0
  0
POLYLINE
  8
0
 62
0
 70
1
 66
1
 10
0.0
 20
0.0
 30
0.0
  0
VERTEX
  8
0
 10
-20.0
 20
424.0
  0
VERTEX
  8
0
 10
-20.0
 20
424.0
  0
VERTEX
  8
0
 10
-30.0
 20
424.0
  0
VERTEX
  8
0
 10
-30.0
 20
424.0
  0
SEQEND
  8
0
  0
POLYLINE
  8
0
 62
0
 70
1
 66
1
 10
0.0
 20
0.0
 30
0.0
  0
VERTEX
  8
0
 10
-30.0
 20
438.0
  0
VERTEX
  8
0
 10
-30.0
 20
438.0
  0
VERTEX
  8
0
 10
-20.0
 20
438.0
  0
VERTEX
  8
0
 10
-20.0
 20
438.0
  0
SEQEND
  8
0
  0
POLYLINE
  8
0
 62
0
 70
1
 66
1
 10
0.0
 20
0.0
 30
0.0
  0
VERTEX
  8
0
 10
-20.0
 20
438.0
  0
VERTEX
  8
0
 10
-20.0
 20
438.0
  0
VERTEX
  8
0
 10
-20.0
 20
424.0
  0
VERTEX
  8
0
 10
-20.0
 20
424.0
  0
SEQEND
  8
0
  0
POLYLINE
  8
0
 62
0
 70
1
 66
1
 10
0.0
 20
0.0
 30
0.0
  0
VERTEX
  8
0
 10
-560.0
 20
72.0
  0
VERTEX
  8
0
 10
-560.0
 20
72.0
  0
VERTEX
  8
0
 10
-560.0
 20
86.0
  0
VERTEX
  8
0
 10
-560.0
 20
86.0
  0
SEQEND
  8
0
  0
POLYLINE
  8
0
 62
0
 70
1
 66
1
 10
0.0
 20
0.0
 30
0.0
  0
VERTEX
  8
0
 10
-550.0
 20
72.0
  0
VERTEX
  8
0
 10
-550.0
 20
72.0
  0
VERTEX
  8
0
 10
-560.0
 20
72.0
  0
VERTEX
  8
0
 10
-560.0
 20
72.0
  0
SEQEND
  8
0
  0
POLYLINE
  8
0
 62
0
 70
1
 66
1
 10
0.0
 20
0.0
 30
0.0
  0
VERTEX
  8
0
 10
-560.0
 20
86.0
  0
VERTEX
  8
0
 10
-560.0
 20
86.0
  0
VERTEX
  8
0
 10
-550.0
 20
86.0
  0
VERTEX
  8
0
 10
-550.0
 20
86.0
  0
SEQEND
  8
0
  0
POLYLINE
  8
0
 62
0
 70
1
 66
1
 10
0.0
 20
0.0
 30
0.0
  0
VERTEX
  8
0
 10
-550.0
 20
86.0
  0
VERTEX
  8
0
 10
-550.0
 20
86.0
  0
VERTEX
  8
0
 10
-550.0
 20
72.0
  0
VERTEX
  8
0
 10
-550.0
 20
72.0
  0
SEQEND
  8
0
  0
POLYLINE
  8
0
 62
0
 70
1
 66
1
 10
0.0
 20
0.0
 30
0.0
  0
VERTEX
  8
0
 10
-560.0
 20
160.0
  0
VERTEX
  8
0
 10
-560.0
 20
160.0
  0
VERTEX
  8
0
 10
-560.0
 20
174.0
  0
VERTEX
  8
0
 10
-560.0
 20
174.0
  0
SEQEND
  8
0
  0
POLYLINE
  8
0
 62
0
 70
1
 66
1
 10
0.0
 20
0.0
 30
0.0
  0
VERTEX
  8
0
 10
-550.0
 20
160.0
  0
VERTEX
  8
0
 10
-550.0
 20
160.0
  0
VERTEX
  8
0
 10
-560.0
 20
160.0
  0
VERTEX
  8
0
 10
-560.0
 20
160.0
  0
SEQEND
  8
0
  0
POLYLINE
  8
0
 62
0
 70
1
 66
1
 10
0.0
 20
0.0
 30
0.0
  0
VERTEX
  8
0
 10
-560.0
 20
174.0
  0
VERTEX
  8
0
 10
-560.0
 20
174.0
  0
VERTEX
  8
0
 10
-550.0
 20
174.0
  0
VERTEX
  8
0
 10
-550.0
 20
174.0
  0
SEQEND
  8
0
  0
POLYLINE
  8
0
 62
0
 70
1
 66
1
 10
0.0
 20
0.0
 30
0.0
  0
VERTEX
  8
0
 10
-550.0
 20
174.0
  0
VERTEX
  8
0
 10
-550.0
 20
174.0
  0
VERTEX
  8
0
 10
-550.0
 20
160.0
  0
VERTEX
  8
0
 10
-550.0
 20
160.0
  0
SEQEND
  8
0
  0
POLYLINE
  8
0
 62
0
 70
1
 66
1
 10
0.0
 20
0.0
 30
0.0
  0
VERTEX
  8
0
 10
-560.0
 20
248.0
  0
VERTEX
  8
0
 10
-560.0
 20
248.0
  0
VERTEX
  8
0
 10
-560.0
 20
262.0
  0
VERTEX
  8
0
 10
-560.0
 20
262.0
  0
SEQEND
  8
0
  0
POLYLINE
  8
0
 62
0
 70
1
 66
1
 10
0.0
 20
0.0
 30
0.0
  0
VERTEX
  8
0
 10
-550.0
 20
248.0
  0
VERTEX
  8
0
 10
-550.0
 20
248.0
  0
VERTEX
  8
0
 10
-560.0
 20
248.0
  0
VERTEX
  8
0
 10
-560.0
 20
248.0
  0
SEQEND
  8
0
  0
POLYLINE
  8
0
 62
0
 70
1
 66
1
 10
0.0
 20
0.0
 30
0.0
  0
VERTEX
  8
0
 10
-560.0
 20
262.0
  0
VERTEX
  8
0
 10
-560.0
 20
262.0
  0
VERTEX
  8
0
 10
-550.0
 20
262.0
  0
VERTEX
  8
0
 10
-550.0
 20
262.0
  0
SEQEND
  8
0
  0
POLYLINE
  8
0
 62
0
 70
1
 66
1
 10
0.0
 20
0.0
 30
0.0
  0
VERTEX
  8
0
 10
-550.0
 20
262.0
  0
VERTEX
  8
0
 10
-550.0
 20
262.0
  0
VERTEX
  8
0
 10
-550.0
 20
248.0
  0
VERTEX
  8
0
 10
-550.0
 20
248.0
  0
SEQEND
  8
0
  0
POLYLINE
  8
0
 62
0
 70
1
 66
1
 10
0.0
 20
0.0
 30
0.0
  0
VERTEX
  8
0
 10
-560.0
 20
336.0
  0
VERTEX
  8
0
 10
-560.0
 20
336.0
  0
VERTEX
  8
0
 10
-560.0
 20
350.0
  0
VERTEX
  8
0
 10
-560.0
 20
350.0
  0
SEQEND
  8
0
  0
POLYLINE
  8
0
 62
0
 70
1
 66
1
 10
0.0
 20
0.0
 30
0.0
  0
VERTEX
  8
0
 10
-550.0
 20
336.0
  0
VERTEX
  8
0
 10
-550.0
 20
336.0
  0
VERTEX
  8
0
 10
-560.0
 20
336.0
  0
VERTEX
  8
0
 10
-560.0
 20
336.0
  0
SEQEND
  8
0
  0
POLYLINE
  8
0
 62
0
 70
1
 66
1
 10
0.0
 20
0.0
 30
0.0
  0
VERTEX
  8
0
 10
-560.0
 20
350.0
  0
VERTEX
  8
0
 10
-560.0
 20
350.0
  0
VERTEX
  8
0
 10
-550.0
 20
350.0
  0
VERTEX
  8
0
 10
-550.0
 20
350.0
  0
SEQEND
  8
0
  0
POLYLINE
  8
0
 62
0
 70
1
 66
1
 10
0.0
 20
0.0
 30
0.0
  0
VERTEX
  8
0
 10
-550.0
 20
350.0
  0
VERTEX
  8
0
 10
-550.0
 20
350.0
  0
VERTEX
  8
0
 10
-550.0
 20
336.0
  0
VERTEX
  8
0
 10
-550.0
 20
336.0
  0
SEQEND
  8
0
  0
POLYLINE
  8
0
 62
0
 70
1
 66
1
 10
0.0
 20
0.0
 30
0.0
  0
VERTEX
  8
0
 10
-560.0
 20
424.0
  0
VERTEX
  8
0
 10
-560.0
 20
424.0
  0
VERTEX
  8
0
 10
-560.0
 20
438.0
  0
VERTEX
  8
0
 10
-560.0
 20
438.0
  0
SEQEND
  8
0
  0
POLYLINE
  8
0
 62
0
 70
1
 66
1
 10
0.0
 20
0.0
 30
0.0
  0
VERTEX
  8
0
 10
-550.0
 20
424.0
  0
VERTEX
  8
0
 10
-550.0
 20
424.0
  0
VERTEX
  8
0
 10
-560.0
 20
424.0
  0
VERTEX
  8
0
 10
-560.0
 20
424.0
  0
SEQEND
  8
0
  0
POLYLINE
  8
0
 62
0
 70
1
 66
1
 10
0.0
 20
0.0
 30
0.0
  0
VERTEX
  8
0
 10
-560.0
 20
438.0
  0
VERTEX
  8
0
 10
-560.0
 20
438.0
  0
VERTEX
  8
0
 10
-550.0
 20
438.0
  0
VERTEX
  8
0
 10
-550.0
 20
438.0
  0
SEQEND
  8
0
  0
POLYLINE
  8
0
 62
0
 70
1
 66
1
 10
0.0
 20
0.0
 30
0.0
  0
VERTEX
  8
0
 10
-550.0
 20
438.0
  0
VERTEX
  8
0
 10
-550.0
 20
438.0
  0
VERTEX
  8
0
 10
-550.0
 20
424.0
  0
VERTEX
  8
0
 10
-550.0
 20
424.0
  0
SEQEND
  8
0
  0
POLYLINE
  8
0
 62
0
 70
1
 66
1
 10
0.0
 20
0.0
 30
0.0
  0
VERTEX
  8
0
 10
-560.0
 20
512.0
  0
VERTEX
  8
0
 10
-560.0
 20
512.0
  0
VERTEX
  8
0
 10
-560.0
 20
526.0
  0
VERTEX
  8
0
 10
-560.0
 20
526.0
  0
SEQEND
  8
0
  0
POLYLINE
  8
0
 62
0
 70
1
 66
1
 10
0.0
 20
0.0
 30
0.0
  0
VERTEX
  8
0
 10
-550.0
 20
512.0
  0
VERTEX
  8
0
 10
-550.0
 20
512.0
  0
VERTEX
  8
0
 10
-560.0
 20
512.0
  0
VERTEX
  8
0
 10
-560.0
 20
512.0
  0
SEQEND
  8
0
  0
POLYLINE
  8
0
 62
0
 70
1
 66
1
 10
0.0
 20
0.0
 30
0.0
  0
VERTEX
  8
0
 10
-560.0
 20
526.0
  0
VERTEX
  8
0
 10
-560.0
 20
526.0
  0
VERTEX
  8
0
 10
-550.0
 20
526.0
  0
VERTEX
  8
0
 10
-550.0
 20
526.0
  0
SEQEND
  8
0
  0
POLYLINE
  8
0
 62
0
 70
1
 66
1
 10
0.0
 20
0.0
 30
0.0
  0
VERTEX
  8
0
 10
-550.0
 20
526.0
  0
VERTEX
  8
0
 10
-550.0
 20
526.0
  0
VERTEX
  8
0
 10
-550.0
 20
512.0
  0
VERTEX
  8
0
 10
-550.0
 20
512.0
  0
SEQEND
  8
0
  0
ENDSEC
  0
EOF
