solid OpenSCAD_Model
  facet normal -1 0 0
    outer loop
      vertex 0 0 0
      vertex 0 0 18.542
      vertex 0 38.1 0
    endloop
  endfacet
  facet normal -1 0 0
    outer loop
      vertex 0 38.1 0
      vertex 0 0 18.542
      vertex 0 38.1 18.542
    endloop
  endfacet
  facet normal -0.994522 -0.104529 0
    outer loop
      vertex 0 0 0
      vertex 0.474569 -4.51522 0
      vertex 0 0 18.542
    endloop
  endfacet
  facet normal -0.994522 -0.104529 0
    outer loop
      vertex 0 0 18.542
      vertex 0.474569 -4.51522 0
      vertex 0.474569 -4.51522 18.542
    endloop
  endfacet
  facet normal 0 0 -1
    outer loop
      vertex 0 0 0
      vertex 0 38.1 0
      vertex 0.474569 -4.51522 0
    endloop
  endfacet
  facet normal 0 0 -1
    outer loop
      vertex 23.6294 27.6071 0
      vertex 0 38.1 0
      vertex 43.434 38.1 0
    endloop
  endfacet
  facet normal 0 0 -1
    outer loop
      vertex 39.37 11.557 0
      vertex 43.434 38.1 0
      vertex 43.434 0 0
    endloop
  endfacet
  facet normal 0 0 -1
    outer loop
      vertex 28.2146 -3.71475 0
      vertex 43.434 0 0
      vertex 42.9594 -4.51522 0
    endloop
  endfacet
  facet normal 0 0 -1
    outer loop
      vertex 25.4952 -6.43414 0
      vertex 42.9594 -4.51522 0
      vertex 41.5565 -8.8331 0
    endloop
  endfacet
  facet normal 0 0 -1
    outer loop
      vertex 21.7805 -7.4295 0
      vertex 41.5565 -8.8331 0
      vertex 39.2864 -12.7649 0
    endloop
  endfacet
  facet normal 0 0 -1
    outer loop
      vertex 0.474569 -4.51522 0
      vertex 39.2864 -12.7649 0
      vertex 36.2485 -16.1389 0
    endloop
  endfacet
  facet normal 0 0 -1
    outer loop
      vertex 0.474569 -4.51522 0
      vertex 36.2485 -16.1389 0
      vertex 32.5755 -18.8075 0
    endloop
  endfacet
  facet normal 0 0 -1
    outer loop
      vertex 0.474569 -4.51522 0
      vertex 32.5755 -18.8075 0
      vertex 28.4279 -20.6541 0
    endloop
  endfacet
  facet normal 0 0 -1
    outer loop
      vertex 0.474569 -4.51522 0
      vertex 28.4279 -20.6541 0
      vertex 23.987 -21.598 0
    endloop
  endfacet
  facet normal 0 0 -1
    outer loop
      vertex 0.474569 -4.51522 0
      vertex 23.987 -21.598 0
      vertex 19.447 -21.598 0
    endloop
  endfacet
  facet normal 0 0 -1
    outer loop
      vertex 0.474569 -4.51522 0
      vertex 19.447 -21.598 0
      vertex 15.0061 -20.6541 0
    endloop
  endfacet
  facet normal 0 0 -1
    outer loop
      vertex 0.474569 -4.51522 0
      vertex 15.0061 -20.6541 0
      vertex 10.8585 -18.8075 0
    endloop
  endfacet
  facet normal 0 0 -1
    outer loop
      vertex 0.474569 -4.51522 0
      vertex 10.8585 -18.8075 0
      vertex 7.18549 -16.1389 0
    endloop
  endfacet
  facet normal 0 0 -1
    outer loop
      vertex 0.474569 -4.51522 0
      vertex 7.18549 -16.1389 0
      vertex 4.14758 -12.7649 0
    endloop
  endfacet
  facet normal 0 0 -1
    outer loop
      vertex 0.474569 -4.51522 0
      vertex 4.14758 -12.7649 0
      vertex 1.87753 -8.8331 0
    endloop
  endfacet
  facet normal 0 0 -1
    outer loop
      vertex 0.474569 -4.51522 0
      vertex 0 38.1 0
      vertex 4.064 11.557 0
    endloop
  endfacet
  facet normal 0 0 -1
    outer loop
      vertex 14.351 3.29936e-015 0
      vertex 9.80763 1.30878 0
      vertex 10.414 3.175 0
    endloop
  endfacet
  facet normal 0 0 -1
    outer loop
      vertex 0.474569 -4.51522 0
      vertex 4.064 11.557 0
      vertex 4.064 3.175 0
    endloop
  endfacet
  facet normal 0 0 -1
    outer loop
      vertex 8.22013 14.5766 0
      vertex 16.5271 20.1124 0
      vertex 15.3464 18.5738 0
    endloop
  endfacet
  facet normal 0 0 -1
    outer loop
      vertex 0.474569 -4.51522 0
      vertex 4.064 3.175 0
      vertex 4.67037 1.30878 0
    endloop
  endfacet
  facet normal 0 0 -1
    outer loop
      vertex 6.25787 14.5766 0
      vertex 0 38.1 0
      vertex 8.22013 14.5766 0
    endloop
  endfacet
  facet normal 0 0 -1
    outer loop
      vertex 4.67037 13.4232 0
      vertex 0 38.1 0
      vertex 6.25787 14.5766 0
    endloop
  endfacet
  facet normal 0 0 -1
    outer loop
      vertex 4.064 11.557 0
      vertex 0 38.1 0
      vertex 4.67037 13.4232 0
    endloop
  endfacet
  facet normal 0 0 -1
    outer loop
      vertex 0.474569 -4.51522 0
      vertex 6.25787 0.155396 0
      vertex 14.351 3.29936e-015 0
    endloop
  endfacet
  facet normal 0 0 -1
    outer loop
      vertex 33.6264 1.30878 0
      vertex 35.2139 0.155396 0
      vertex 29.21 6.74639e-015 0
    endloop
  endfacet
  facet normal 0 0 -1
    outer loop
      vertex 29.21 14.859 0
      vertex 33.6264 1.30878 0
      vertex 29.21 6.74639e-015 0
    endloop
  endfacet
  facet normal 0 0 -1
    outer loop
      vertex 0.474569 -4.51522 0
      vertex 14.351 3.29936e-015 0
      vertex 14.6042 -1.9229 0
    endloop
  endfacet
  facet normal 0 0 -1
    outer loop
      vertex 16.527 -5.25345 0
      vertex 0.474569 -4.51522 0
      vertex 15.3464 -3.71475 0
    endloop
  endfacet
  facet normal 0 0 -1
    outer loop
      vertex 18.0657 -6.43414 0
      vertex 0.474569 -4.51522 0
      vertex 16.527 -5.25345 0
    endloop
  endfacet
  facet normal 0 0 -1
    outer loop
      vertex 21.7805 -7.4295 0
      vertex 39.2864 -12.7649 0
      vertex 19.8576 -7.17635 0
    endloop
  endfacet
  facet normal 0 0 -1
    outer loop
      vertex 0.474569 -4.51522 0
      vertex 18.0657 -6.43414 0
      vertex 19.8576 -7.17635 0
    endloop
  endfacet
  facet normal 0 0 -1
    outer loop
      vertex 0.474569 -4.51522 0
      vertex 19.8576 -7.17635 0
      vertex 39.2864 -12.7649 0
    endloop
  endfacet
  facet normal 0 0 -1
    outer loop
      vertex 23.7034 -7.17635 0
      vertex 41.5565 -8.8331 0
      vertex 21.7805 -7.4295 0
    endloop
  endfacet
  facet normal 0 0 -1
    outer loop
      vertex 25.4952 -6.43414 0
      vertex 41.5565 -8.8331 0
      vertex 23.7034 -7.17635 0
    endloop
  endfacet
  facet normal 0 0 -1
    outer loop
      vertex 27.0339 -5.25345 0
      vertex 42.9594 -4.51522 0
      vertex 25.4952 -6.43414 0
    endloop
  endfacet
  facet normal 0 0 -1
    outer loop
      vertex 28.2146 -3.71475 0
      vertex 42.9594 -4.51522 0
      vertex 27.0339 -5.25345 0
    endloop
  endfacet
  facet normal 0 0 -1
    outer loop
      vertex 28.9568 -1.9229 0
      vertex 43.434 0 0
      vertex 28.2146 -3.71475 0
    endloop
  endfacet
  facet normal 0 0 -1
    outer loop
      vertex 29.21 -1.97215e-031 0
      vertex 43.434 0 0
      vertex 28.9568 -1.9229 0
    endloop
  endfacet
  facet normal 0 0 -1
    outer loop
      vertex 29.21 6.74639e-015 0
      vertex 43.434 0 0
      vertex 29.21 -1.97215e-031 0
    endloop
  endfacet
  facet normal 0 0 -1
    outer loop
      vertex 15.3464 -3.71475 0
      vertex 0.474569 -4.51522 0
      vertex 14.6042 -1.9229 0
    endloop
  endfacet
  facet normal 0 0 -1
    outer loop
      vertex 29.21 14.859 0
      vertex 33.02 3.175 0
      vertex 33.6264 1.30878 0
    endloop
  endfacet
  facet normal 0 0 -1
    outer loop
      vertex 28.9568 16.7819 0
      vertex 43.434 38.1 0
      vertex 29.21 14.859 0
    endloop
  endfacet
  facet normal 0 0 -1
    outer loop
      vertex 28.2146 18.5737 0
      vertex 43.434 38.1 0
      vertex 28.9568 16.7819 0
    endloop
  endfacet
  facet normal 0 0 -1
    outer loop
      vertex 27.034 20.1124 0
      vertex 43.434 38.1 0
      vertex 28.2146 18.5737 0
    endloop
  endfacet
  facet normal 0 0 -1
    outer loop
      vertex 14.351 3.29936e-015 0
      vertex 10.414 11.557 0
      vertex 14.351 14.859 0
    endloop
  endfacet
  facet normal 0 0 -1
    outer loop
      vertex 26.8986 22.8346 0
      vertex 26.833 22.8346 0
      vertex 43.434 38.1 0
    endloop
  endfacet
  facet normal 0 0 -1
    outer loop
      vertex 8.22013 14.5766 0
      vertex 15.3464 18.5738 0
      vertex 9.80763 13.4232 0
    endloop
  endfacet
  facet normal 0 0 -1
    outer loop
      vertex 26.833 22.8346 0
      vertex 26.8768 23.3068 0
      vertex 43.434 38.1 0
    endloop
  endfacet
  facet normal 0 0 -1
    outer loop
      vertex 14.351 14.859 0
      vertex 10.414 11.557 0
      vertex 14.6042 16.7819 0
    endloop
  endfacet
  facet normal 0 0 -1
    outer loop
      vertex 25.2285 26.6169 0
      vertex 43.434 38.1 0
      vertex 26.362 25.1159 0
    endloop
  endfacet
  facet normal 0 0 -1
    outer loop
      vertex 16.6842 23.3068 0
      vertex 8.22013 14.5766 0
      vertex 17.199 25.1159 0
    endloop
  endfacet
  facet normal 0 0 -1
    outer loop
      vertex 21.7805 27.9527 0
      vertex 0 38.1 0
      vertex 23.6294 27.6071 0
    endloop
  endfacet
  facet normal 0 0 -1
    outer loop
      vertex 25.2285 26.6169 0
      vertex 23.6294 27.6071 0
      vertex 43.434 38.1 0
    endloop
  endfacet
  facet normal 0 0 -1
    outer loop
      vertex 19.9316 27.6071 0
      vertex 0 38.1 0
      vertex 21.7805 27.9527 0
    endloop
  endfacet
  facet normal 0 0 -1
    outer loop
      vertex 18.3325 26.6169 0
      vertex 0 38.1 0
      vertex 19.9316 27.6071 0
    endloop
  endfacet
  facet normal 0 0 -1
    outer loop
      vertex 8.22013 14.5766 0
      vertex 0 38.1 0
      vertex 18.3325 26.6169 0
    endloop
  endfacet
  facet normal 0 0 -1
    outer loop
      vertex 8.22013 14.5766 0
      vertex 18.3325 26.6169 0
      vertex 17.199 25.1159 0
    endloop
  endfacet
  facet normal 0 0 -1
    outer loop
      vertex 16.728 22.8346 0
      vertex 16.6624 22.8346 0
      vertex 16.6842 23.3068 0
    endloop
  endfacet
  facet normal 0 0 -1
    outer loop
      vertex 16.6624 22.8346 0
      vertex 8.22013 14.5766 0
      vertex 16.6842 23.3068 0
    endloop
  endfacet
  facet normal 0 0 -1
    outer loop
      vertex 16.6624 20.2163 0
      vertex 8.22013 14.5766 0
      vertex 16.6624 22.8346 0
    endloop
  endfacet
  facet normal 0 0 -1
    outer loop
      vertex 14.6042 16.7819 0
      vertex 9.80763 13.4232 0
      vertex 15.3464 18.5738 0
    endloop
  endfacet
  facet normal 0 0 -1
    outer loop
      vertex 14.351 3.29936e-015 0
      vertex 6.25787 0.155396 0
      vertex 8.22013 0.155396 0
    endloop
  endfacet
  facet normal 0 0 -1
    outer loop
      vertex 14.351 3.29936e-015 0
      vertex 8.22013 0.155396 0
      vertex 9.80763 1.30878 0
    endloop
  endfacet
  facet normal 0 0 -1
    outer loop
      vertex 14.351 3.29936e-015 0
      vertex 10.414 3.175 0
      vertex 10.414 11.557 0
    endloop
  endfacet
  facet normal 0 0 -1
    outer loop
      vertex 10.414 11.557 0
      vertex 9.80763 13.4232 0
      vertex 14.6042 16.7819 0
    endloop
  endfacet
  facet normal 0 0 -1
    outer loop
      vertex 33.02 3.175 0
      vertex 29.21 14.859 0
      vertex 33.02 11.557 0
    endloop
  endfacet
  facet normal 0 0 -1
    outer loop
      vertex 35.2139 0.155396 0
      vertex 37.1761 0.155396 0
      vertex 43.434 0 0
    endloop
  endfacet
  facet normal 0 0 -1
    outer loop
      vertex 39.37 3.175 0
      vertex 43.434 0 0
      vertex 38.7636 1.30878 0
    endloop
  endfacet
  facet normal 0 0 -1
    outer loop
      vertex 38.7636 1.30878 0
      vertex 43.434 0 0
      vertex 37.1761 0.155396 0
    endloop
  endfacet
  facet normal 0 0 -1
    outer loop
      vertex 39.37 11.557 0
      vertex 43.434 0 0
      vertex 39.37 3.175 0
    endloop
  endfacet
  facet normal 0 0 -1
    outer loop
      vertex 38.7636 13.4232 0
      vertex 43.434 38.1 0
      vertex 39.37 11.557 0
    endloop
  endfacet
  facet normal 0 0 -1
    outer loop
      vertex 33.6264 13.4232 0
      vertex 43.434 38.1 0
      vertex 35.2139 14.5766 0
    endloop
  endfacet
  facet normal 0 0 -1
    outer loop
      vertex 37.1761 14.5766 0
      vertex 43.434 38.1 0
      vertex 38.7636 13.4232 0
    endloop
  endfacet
  facet normal 0 0 -1
    outer loop
      vertex 35.2139 14.5766 0
      vertex 43.434 38.1 0
      vertex 37.1761 14.5766 0
    endloop
  endfacet
  facet normal 0 0 -1
    outer loop
      vertex 29.21 14.859 0
      vertex 43.434 38.1 0
      vertex 33.6264 13.4232 0
    endloop
  endfacet
  facet normal 0 0 -1
    outer loop
      vertex 29.21 14.859 0
      vertex 33.6264 13.4232 0
      vertex 33.02 11.557 0
    endloop
  endfacet
  facet normal 0 0 -1
    outer loop
      vertex 6.25787 0.155396 0
      vertex 0.474569 -4.51522 0
      vertex 4.67037 1.30878 0
    endloop
  endfacet
  facet normal 0 0 -1
    outer loop
      vertex 26.8986 22.8346 0
      vertex 43.434 38.1 0
      vertex 26.8986 20.2163 0
    endloop
  endfacet
  facet normal 0 0 -1
    outer loop
      vertex 26.8986 20.2163 0
      vertex 43.434 38.1 0
      vertex 27.034 20.1124 0
    endloop
  endfacet
  facet normal 0 0 -1
    outer loop
      vertex 26.362 25.1159 0
      vertex 43.434 38.1 0
      vertex 26.8768 23.3068 0
    endloop
  endfacet
  facet normal 0 0 -1
    outer loop
      vertex 35.2139 0.155396 0
      vertex 43.434 0 0
      vertex 29.21 6.74639e-015 0
    endloop
  endfacet
  facet normal 0 0 -1
    outer loop
      vertex 16.5271 20.1124 0
      vertex 8.22013 14.5766 0
      vertex 16.6624 20.2163 0
    endloop
  endfacet
  facet normal 0 1 0
    outer loop
      vertex 22.6236 38.1 12.0611
      vertex 0 38.1 18.542
      vertex 43.434 38.1 18.542
    endloop
  endfacet
  facet normal 0 1 0
    outer loop
      vertex 0 38.1 0
      vertex 0 38.1 18.542
      vertex 18.7833 38.1 9.271
    endloop
  endfacet
  facet normal 0 1 0
    outer loop
      vertex 0 38.1 0
      vertex 18.7833 38.1 9.271
      vertex 19.3436 38.1 7.54661
    endloop
  endfacet
  facet normal 0 1 0
    outer loop
      vertex 0 38.1 0
      vertex 19.3436 38.1 7.54661
      vertex 20.8104 38.1 6.48089
    endloop
  endfacet
  facet normal 0 1 0
    outer loop
      vertex 0 38.1 0
      vertex 20.8104 38.1 6.48089
      vertex 43.434 38.1 0
    endloop
  endfacet
  facet normal 0 1 0
    outer loop
      vertex 20.8104 38.1 6.48089
      vertex 22.6236 38.1 6.48089
      vertex 43.434 38.1 0
    endloop
  endfacet
  facet normal 0 1 0
    outer loop
      vertex 24.0904 38.1 7.54661
      vertex 43.434 38.1 0
      vertex 22.6236 38.1 6.48089
    endloop
  endfacet
  facet normal 0 1 0
    outer loop
      vertex 24.6507 38.1 9.271
      vertex 43.434 38.1 0
      vertex 24.0904 38.1 7.54661
    endloop
  endfacet
  facet normal 0 1 0
    outer loop
      vertex 43.434 38.1 0
      vertex 24.6507 38.1 9.271
      vertex 43.434 38.1 18.542
    endloop
  endfacet
  facet normal 0 1 0
    outer loop
      vertex 24.6507 38.1 9.271
      vertex 24.0904 38.1 10.9954
      vertex 43.434 38.1 18.542
    endloop
  endfacet
  facet normal 0 1 0
    outer loop
      vertex 20.8104 38.1 12.0611
      vertex 0 38.1 18.542
      vertex 22.6236 38.1 12.0611
    endloop
  endfacet
  facet normal 0 1 0
    outer loop
      vertex 24.0904 38.1 10.9954
      vertex 22.6236 38.1 12.0611
      vertex 43.434 38.1 18.542
    endloop
  endfacet
  facet normal 0 1 0
    outer loop
      vertex 19.3436 38.1 10.9954
      vertex 0 38.1 18.542
      vertex 20.8104 38.1 12.0611
    endloop
  endfacet
  facet normal 0 1 0
    outer loop
      vertex 18.7833 38.1 9.271
      vertex 0 38.1 18.542
      vertex 19.3436 38.1 10.9954
    endloop
  endfacet
  facet normal 0 0 1
    outer loop
      vertex 0 38.1 18.542
      vertex 0 0 18.542
      vertex 0.474569 -4.51522 18.542
    endloop
  endfacet
  facet normal 0 0 1
    outer loop
      vertex 4.14758 -12.7649 18.542
      vertex 0 38.1 18.542
      vertex 1.87753 -8.8331 18.542
    endloop
  endfacet
  facet normal 0 0 1
    outer loop
      vertex 1.87753 -8.8331 18.542
      vertex 0 38.1 18.542
      vertex 0.474569 -4.51522 18.542
    endloop
  endfacet
  facet normal 0 0 1
    outer loop
      vertex 4.064 3.175 18.542
      vertex 0 38.1 18.542
      vertex 4.14758 -12.7649 18.542
    endloop
  endfacet
  facet normal 0 0 1
    outer loop
      vertex 39.37 11.557 18.542
      vertex 39.37 3.175 18.542
      vertex 43.434 0 18.542
    endloop
  endfacet
  facet normal 0 0 1
    outer loop
      vertex 9.80763 1.30878 18.542
      vertex 8.22013 0.155396 18.542
      vertex 15.0061 -20.6541 18.542
    endloop
  endfacet
  facet normal 0 0 1
    outer loop
      vertex 28.2146 18.5737 18.542
      vertex 33.6264 13.4232 18.542
      vertex 27.034 20.1124 18.542
    endloop
  endfacet
  facet normal 0 0 1
    outer loop
      vertex 26.8986 22.8346 18.542
      vertex 26.8986 20.2163 18.542
      vertex 27.034 20.1124 18.542
    endloop
  endfacet
  facet normal 0 0 1
    outer loop
      vertex 14.351 14.859 18.542
      vertex 14.6042 16.7819 18.542
      vertex 0 38.1 18.542
    endloop
  endfacet
  facet normal 0 0 1
    outer loop
      vertex 7.18549 -16.1389 18.542
      vertex 4.064 3.175 18.542
      vertex 4.14758 -12.7649 18.542
    endloop
  endfacet
  facet normal 0 0 1
    outer loop
      vertex 4.67037 13.4232 18.542
      vertex 0 38.1 18.542
      vertex 4.064 11.557 18.542
    endloop
  endfacet
  facet normal 0 0 1
    outer loop
      vertex 6.25787 0.155396 18.542
      vertex 4.67037 1.30878 18.542
      vertex 7.18549 -16.1389 18.542
    endloop
  endfacet
  facet normal 0 0 1
    outer loop
      vertex 8.22013 0.155396 18.542
      vertex 6.25787 0.155396 18.542
      vertex 10.8585 -18.8075 18.542
    endloop
  endfacet
  facet normal 0 0 1
    outer loop
      vertex 9.80763 13.4232 18.542
      vertex 0 38.1 18.542
      vertex 8.22013 14.5766 18.542
    endloop
  endfacet
  facet normal 0 0 1
    outer loop
      vertex 33.02 11.557 18.542
      vertex 33.6264 13.4232 18.542
      vertex 28.2146 18.5737 18.542
    endloop
  endfacet
  facet normal 0 0 1
    outer loop
      vertex 15.3464 -3.71475 18.542
      vertex 14.6042 -1.9229 18.542
      vertex 19.447 -21.598 18.542
    endloop
  endfacet
  facet normal 0 0 1
    outer loop
      vertex 38.7636 1.30878 18.542
      vertex 37.1761 0.155396 18.542
      vertex 42.9594 -4.51522 18.542
    endloop
  endfacet
  facet normal 0 0 1
    outer loop
      vertex 19.447 -21.598 18.542
      vertex 10.414 3.175 18.542
      vertex 15.0061 -20.6541 18.542
    endloop
  endfacet
  facet normal 0 0 1
    outer loop
      vertex 10.414 3.175 18.542
      vertex 9.80763 1.30878 18.542
      vertex 15.0061 -20.6541 18.542
    endloop
  endfacet
  facet normal 0 0 1
    outer loop
      vertex 15.0061 -20.6541 18.542
      vertex 8.22013 0.155396 18.542
      vertex 10.8585 -18.8075 18.542
    endloop
  endfacet
  facet normal 0 0 1
    outer loop
      vertex 6.25787 14.5766 18.542
      vertex 8.22013 14.5766 18.542
      vertex 0 38.1 18.542
    endloop
  endfacet
  facet normal 0 0 1
    outer loop
      vertex 10.8585 -18.8075 18.542
      vertex 6.25787 0.155396 18.542
      vertex 7.18549 -16.1389 18.542
    endloop
  endfacet
  facet normal 0 0 1
    outer loop
      vertex 7.18549 -16.1389 18.542
      vertex 4.67037 1.30878 18.542
      vertex 4.064 3.175 18.542
    endloop
  endfacet
  facet normal 0 0 1
    outer loop
      vertex 18.0657 -6.43414 18.542
      vertex 16.527 -5.25345 18.542
      vertex 23.987 -21.598 18.542
    endloop
  endfacet
  facet normal 0 0 1
    outer loop
      vertex 25.4952 -6.43414 18.542
      vertex 23.7034 -7.17635 18.542
      vertex 32.5755 -18.8075 18.542
    endloop
  endfacet
  facet normal 0 0 1
    outer loop
      vertex 23.7034 -7.17635 18.542
      vertex 21.7805 -7.4295 18.542
      vertex 28.4279 -20.6541 18.542
    endloop
  endfacet
  facet normal 0 0 1
    outer loop
      vertex 27.0339 -5.25345 18.542
      vertex 25.4952 -6.43414 18.542
      vertex 32.5755 -18.8075 18.542
    endloop
  endfacet
  facet normal 0 0 1
    outer loop
      vertex 26.8768 23.3068 18.542
      vertex 26.833 22.8346 18.542
      vertex 26.8986 22.8346 18.542
    endloop
  endfacet
  facet normal 0 0 1
    outer loop
      vertex 29.21 -1.97215e-031 18.542
      vertex 28.9568 -1.9229 18.542
      vertex 39.2864 -12.7649 18.542
    endloop
  endfacet
  facet normal 0 0 1
    outer loop
      vertex 16.6624 20.2163 18.542
      vertex 16.6624 22.8346 18.542
      vertex 0 38.1 18.542
    endloop
  endfacet
  facet normal 0 0 1
    outer loop
      vertex 28.2146 -3.71475 18.542
      vertex 27.0339 -5.25345 18.542
      vertex 36.2485 -16.1389 18.542
    endloop
  endfacet
  facet normal 0 0 1
    outer loop
      vertex 16.6624 20.2163 18.542
      vertex 0 38.1 18.542
      vertex 16.5271 20.1124 18.542
    endloop
  endfacet
  facet normal 0 0 1
    outer loop
      vertex 16.6842 23.3068 18.542
      vertex 17.199 25.1159 18.542
      vertex 0 38.1 18.542
    endloop
  endfacet
  facet normal 0 0 1
    outer loop
      vertex 16.728 22.8346 18.542
      vertex 0 38.1 18.542
      vertex 16.6624 22.8346 18.542
    endloop
  endfacet
  facet normal 0 0 1
    outer loop
      vertex 16.6842 23.3068 18.542
      vertex 0 38.1 18.542
      vertex 16.728 22.8346 18.542
    endloop
  endfacet
  facet normal 0 0 1
    outer loop
      vertex 19.9316 27.6071 18.542
      vertex 21.7805 27.9527 18.542
      vertex 43.434 38.1 18.542
    endloop
  endfacet
  facet normal 0 0 1
    outer loop
      vertex 18.3325 26.6169 18.542
      vertex 0 38.1 18.542
      vertex 17.199 25.1159 18.542
    endloop
  endfacet
  facet normal 0 0 1
    outer loop
      vertex 19.9316 27.6071 18.542
      vertex 0 38.1 18.542
      vertex 18.3325 26.6169 18.542
    endloop
  endfacet
  facet normal 0 0 1
    outer loop
      vertex 21.7805 27.9527 18.542
      vertex 23.6294 27.6071 18.542
      vertex 43.434 38.1 18.542
    endloop
  endfacet
  facet normal 0 0 1
    outer loop
      vertex 43.434 38.1 18.542
      vertex 0 38.1 18.542
      vertex 19.9316 27.6071 18.542
    endloop
  endfacet
  facet normal 0 0 1
    outer loop
      vertex 26.8986 22.8346 18.542
      vertex 27.034 20.1124 18.542
      vertex 33.6264 13.4232 18.542
    endloop
  endfacet
  facet normal 0 0 1
    outer loop
      vertex 43.434 38.1 18.542
      vertex 23.6294 27.6071 18.542
      vertex 25.2285 26.6169 18.542
    endloop
  endfacet
  facet normal 0 0 1
    outer loop
      vertex 43.434 38.1 18.542
      vertex 25.2285 26.6169 18.542
      vertex 26.362 25.1159 18.542
    endloop
  endfacet
  facet normal 0 0 1
    outer loop
      vertex 33.6264 13.4232 18.542
      vertex 26.362 25.1159 18.542
      vertex 26.8768 23.3068 18.542
    endloop
  endfacet
  facet normal 0 0 1
    outer loop
      vertex 37.1761 0.155396 18.542
      vertex 35.2139 0.155396 18.542
      vertex 42.9594 -4.51522 18.542
    endloop
  endfacet
  facet normal 0 0 1
    outer loop
      vertex 33.02 11.557 18.542
      vertex 28.2146 18.5737 18.542
      vertex 28.9568 16.7819 18.542
    endloop
  endfacet
  facet normal 0 0 1
    outer loop
      vertex 15.3464 18.5738 18.542
      vertex 16.5271 20.1124 18.542
      vertex 0 38.1 18.542
    endloop
  endfacet
  facet normal 0 0 1
    outer loop
      vertex 39.2864 -12.7649 18.542
      vertex 29.21 6.74639e-015 18.542
      vertex 29.21 -1.97215e-031 18.542
    endloop
  endfacet
  facet normal 0 0 1
    outer loop
      vertex 39.2864 -12.7649 18.542
      vertex 28.9568 -1.9229 18.542
      vertex 36.2485 -16.1389 18.542
    endloop
  endfacet
  facet normal 0 0 1
    outer loop
      vertex 28.9568 -1.9229 18.542
      vertex 28.2146 -3.71475 18.542
      vertex 36.2485 -16.1389 18.542
    endloop
  endfacet
  facet normal 0 0 1
    outer loop
      vertex 36.2485 -16.1389 18.542
      vertex 27.0339 -5.25345 18.542
      vertex 32.5755 -18.8075 18.542
    endloop
  endfacet
  facet normal 0 0 1
    outer loop
      vertex 32.5755 -18.8075 18.542
      vertex 23.7034 -7.17635 18.542
      vertex 28.4279 -20.6541 18.542
    endloop
  endfacet
  facet normal 0 0 1
    outer loop
      vertex 14.6042 16.7819 18.542
      vertex 15.3464 18.5738 18.542
      vertex 0 38.1 18.542
    endloop
  endfacet
  facet normal 0 0 1
    outer loop
      vertex 28.4279 -20.6541 18.542
      vertex 21.7805 -7.4295 18.542
      vertex 23.987 -21.598 18.542
    endloop
  endfacet
  facet normal 0 0 1
    outer loop
      vertex 21.7805 -7.4295 18.542
      vertex 19.8576 -7.17635 18.542
      vertex 23.987 -21.598 18.542
    endloop
  endfacet
  facet normal 0 0 1
    outer loop
      vertex 19.8576 -7.17635 18.542
      vertex 18.0657 -6.43414 18.542
      vertex 23.987 -21.598 18.542
    endloop
  endfacet
  facet normal 0 0 1
    outer loop
      vertex 23.987 -21.598 18.542
      vertex 16.527 -5.25345 18.542
      vertex 19.447 -21.598 18.542
    endloop
  endfacet
  facet normal 0 0 1
    outer loop
      vertex 16.527 -5.25345 18.542
      vertex 15.3464 -3.71475 18.542
      vertex 19.447 -21.598 18.542
    endloop
  endfacet
  facet normal 0 0 1
    outer loop
      vertex 33.02 3.175 18.542
      vertex 33.02 11.557 18.542
      vertex 29.21 14.859 18.542
    endloop
  endfacet
  facet normal 0 0 1
    outer loop
      vertex 33.6264 13.4232 18.542
      vertex 35.2139 14.5766 18.542
      vertex 26.362 25.1159 18.542
    endloop
  endfacet
  facet normal 0 0 1
    outer loop
      vertex 28.9568 16.7819 18.542
      vertex 29.21 14.859 18.542
      vertex 33.02 11.557 18.542
    endloop
  endfacet
  facet normal 0 0 1
    outer loop
      vertex 33.6264 13.4232 18.542
      vertex 26.8768 23.3068 18.542
      vertex 26.8986 22.8346 18.542
    endloop
  endfacet
  facet normal 0 0 1
    outer loop
      vertex 43.434 38.1 18.542
      vertex 26.362 25.1159 18.542
      vertex 35.2139 14.5766 18.542
    endloop
  endfacet
  facet normal 0 0 1
    outer loop
      vertex 43.434 38.1 18.542
      vertex 35.2139 14.5766 18.542
      vertex 37.1761 14.5766 18.542
    endloop
  endfacet
  facet normal 0 0 1
    outer loop
      vertex 43.434 38.1 18.542
      vertex 38.7636 13.4232 18.542
      vertex 43.434 0 18.542
    endloop
  endfacet
  facet normal 0 0 1
    outer loop
      vertex 43.434 38.1 18.542
      vertex 37.1761 14.5766 18.542
      vertex 38.7636 13.4232 18.542
    endloop
  endfacet
  facet normal 0 0 1
    outer loop
      vertex 38.7636 13.4232 18.542
      vertex 39.37 11.557 18.542
      vertex 43.434 0 18.542
    endloop
  endfacet
  facet normal 0 0 1
    outer loop
      vertex 43.434 0 18.542
      vertex 39.37 3.175 18.542
      vertex 42.9594 -4.51522 18.542
    endloop
  endfacet
  facet normal 0 0 1
    outer loop
      vertex 39.37 3.175 18.542
      vertex 38.7636 1.30878 18.542
      vertex 42.9594 -4.51522 18.542
    endloop
  endfacet
  facet normal 0 0 1
    outer loop
      vertex 35.2139 0.155396 18.542
      vertex 33.6264 1.30878 18.542
      vertex 41.5565 -8.8331 18.542
    endloop
  endfacet
  facet normal 0 0 1
    outer loop
      vertex 42.9594 -4.51522 18.542
      vertex 35.2139 0.155396 18.542
      vertex 41.5565 -8.8331 18.542
    endloop
  endfacet
  facet normal 0 0 1
    outer loop
      vertex 4.064 3.175 18.542
      vertex 4.064 11.557 18.542
      vertex 0 38.1 18.542
    endloop
  endfacet
  facet normal 0 0 1
    outer loop
      vertex 4.67037 13.4232 18.542
      vertex 6.25787 14.5766 18.542
      vertex 0 38.1 18.542
    endloop
  endfacet
  facet normal 0 0 1
    outer loop
      vertex 10.414 11.557 18.542
      vertex 14.6042 -1.9229 18.542
      vertex 14.351 3.29936e-015 18.542
    endloop
  endfacet
  facet normal 0 0 1
    outer loop
      vertex 10.414 11.557 18.542
      vertex 19.447 -21.598 18.542
      vertex 14.6042 -1.9229 18.542
    endloop
  endfacet
  facet normal 0 0 1
    outer loop
      vertex 10.414 11.557 18.542
      vertex 10.414 3.175 18.542
      vertex 19.447 -21.598 18.542
    endloop
  endfacet
  facet normal 0 0 1
    outer loop
      vertex 14.351 3.29936e-015 18.542
      vertex 9.80763 13.4232 18.542
      vertex 10.414 11.557 18.542
    endloop
  endfacet
  facet normal 0 0 1
    outer loop
      vertex 9.80763 13.4232 18.542
      vertex 14.351 14.859 18.542
      vertex 0 38.1 18.542
    endloop
  endfacet
  facet normal 0 0 1
    outer loop
      vertex 14.351 3.29936e-015 18.542
      vertex 14.351 14.859 18.542
      vertex 9.80763 13.4232 18.542
    endloop
  endfacet
  facet normal 0 0 1
    outer loop
      vertex 29.21 14.859 18.542
      vertex 33.6264 1.30878 18.542
      vertex 33.02 3.175 18.542
    endloop
  endfacet
  facet normal 0 0 1
    outer loop
      vertex 33.6264 1.30878 18.542
      vertex 39.2864 -12.7649 18.542
      vertex 41.5565 -8.8331 18.542
    endloop
  endfacet
  facet normal 0 0 1
    outer loop
      vertex 33.6264 1.30878 18.542
      vertex 29.21 6.74639e-015 18.542
      vertex 39.2864 -12.7649 18.542
    endloop
  endfacet
  facet normal 0 0 1
    outer loop
      vertex 29.21 14.859 18.542
      vertex 29.21 6.74639e-015 18.542
      vertex 33.6264 1.30878 18.542
    endloop
  endfacet
  facet normal -0.951057 -0.309017 0
    outer loop
      vertex 0.474569 -4.51522 0
      vertex 1.87753 -8.8331 0
      vertex 0.474569 -4.51522 18.542
    endloop
  endfacet
  facet normal -0.951057 -0.309017 0
    outer loop
      vertex 0.474569 -4.51522 18.542
      vertex 1.87753 -8.8331 0
      vertex 1.87753 -8.8331 18.542
    endloop
  endfacet
  facet normal -0.866025 -0.5 0
    outer loop
      vertex 1.87753 -8.8331 0
      vertex 4.14758 -12.7649 0
      vertex 1.87753 -8.8331 18.542
    endloop
  endfacet
  facet normal -0.866025 -0.5 0
    outer loop
      vertex 1.87753 -8.8331 18.542
      vertex 4.14758 -12.7649 0
      vertex 4.14758 -12.7649 18.542
    endloop
  endfacet
  facet normal -0.743145 -0.669131 0
    outer loop
      vertex 4.14758 -12.7649 0
      vertex 7.18549 -16.1389 0
      vertex 4.14758 -12.7649 18.542
    endloop
  endfacet
  facet normal -0.743145 -0.669131 0
    outer loop
      vertex 4.14758 -12.7649 18.542
      vertex 7.18549 -16.1389 0
      vertex 7.18549 -16.1389 18.542
    endloop
  endfacet
  facet normal -0.587785 -0.809017 0
    outer loop
      vertex 7.18549 -16.1389 18.542
      vertex 7.18549 -16.1389 0
      vertex 10.8585 -18.8075 0
    endloop
  endfacet
  facet normal -0.587785 -0.809017 0
    outer loop
      vertex 10.8585 -18.8075 18.542
      vertex 7.18549 -16.1389 18.542
      vertex 10.8585 -18.8075 0
    endloop
  endfacet
  facet normal -0.406737 -0.913546 0
    outer loop
      vertex 10.8585 -18.8075 18.542
      vertex 10.8585 -18.8075 0
      vertex 15.0061 -20.6541 0
    endloop
  endfacet
  facet normal -0.406737 -0.913546 0
    outer loop
      vertex 15.0061 -20.6541 18.542
      vertex 10.8585 -18.8075 18.542
      vertex 15.0061 -20.6541 0
    endloop
  endfacet
  facet normal -0.207912 -0.978148 0
    outer loop
      vertex 15.0061 -20.6541 18.542
      vertex 15.0061 -20.6541 0
      vertex 19.447 -21.598 0
    endloop
  endfacet
  facet normal -0.207912 -0.978148 0
    outer loop
      vertex 19.447 -21.598 18.542
      vertex 15.0061 -20.6541 18.542
      vertex 19.447 -21.598 0
    endloop
  endfacet
  facet normal 0 -1 0
    outer loop
      vertex 19.447 -21.598 18.542
      vertex 19.447 -21.598 0
      vertex 23.987 -21.598 0
    endloop
  endfacet
  facet normal 0 -1 0
    outer loop
      vertex 23.987 -21.598 18.542
      vertex 19.447 -21.598 18.542
      vertex 23.987 -21.598 0
    endloop
  endfacet
  facet normal 0.207912 -0.978148 0
    outer loop
      vertex 23.987 -21.598 18.542
      vertex 23.987 -21.598 0
      vertex 28.4279 -20.6541 0
    endloop
  endfacet
  facet normal 0.207912 -0.978148 0
    outer loop
      vertex 28.4279 -20.6541 18.542
      vertex 23.987 -21.598 18.542
      vertex 28.4279 -20.6541 0
    endloop
  endfacet
  facet normal 0.406737 -0.913546 0
    outer loop
      vertex 28.4279 -20.6541 18.542
      vertex 28.4279 -20.6541 0
      vertex 32.5755 -18.8075 0
    endloop
  endfacet
  facet normal 0.406737 -0.913546 0
    outer loop
      vertex 32.5755 -18.8075 18.542
      vertex 28.4279 -20.6541 18.542
      vertex 32.5755 -18.8075 0
    endloop
  endfacet
  facet normal 0.587785 -0.809017 0
    outer loop
      vertex 32.5755 -18.8075 18.542
      vertex 32.5755 -18.8075 0
      vertex 36.2485 -16.1389 0
    endloop
  endfacet
  facet normal 0.587785 -0.809017 0
    outer loop
      vertex 36.2485 -16.1389 18.542
      vertex 32.5755 -18.8075 18.542
      vertex 36.2485 -16.1389 0
    endloop
  endfacet
  facet normal 0.743145 -0.669131 0
    outer loop
      vertex 36.2485 -16.1389 18.542
      vertex 36.2485 -16.1389 0
      vertex 39.2864 -12.7649 0
    endloop
  endfacet
  facet normal 0.743145 -0.669131 0
    outer loop
      vertex 39.2864 -12.7649 18.542
      vertex 36.2485 -16.1389 18.542
      vertex 39.2864 -12.7649 0
    endloop
  endfacet
  facet normal 0.866025 -0.5 0
    outer loop
      vertex 39.2864 -12.7649 18.542
      vertex 39.2864 -12.7649 0
      vertex 41.5565 -8.8331 0
    endloop
  endfacet
  facet normal 0.866025 -0.5 0
    outer loop
      vertex 41.5565 -8.8331 18.542
      vertex 39.2864 -12.7649 18.542
      vertex 41.5565 -8.8331 0
    endloop
  endfacet
  facet normal 0.951057 -0.309017 0
    outer loop
      vertex 41.5565 -8.8331 18.542
      vertex 41.5565 -8.8331 0
      vertex 42.9594 -4.51522 0
    endloop
  endfacet
  facet normal 0.951057 -0.309017 0
    outer loop
      vertex 42.9594 -4.51522 18.542
      vertex 41.5565 -8.8331 18.542
      vertex 42.9594 -4.51522 0
    endloop
  endfacet
  facet normal 0.994522 -0.104529 0
    outer loop
      vertex 42.9594 -4.51522 18.542
      vertex 42.9594 -4.51522 0
      vertex 43.434 0 0
    endloop
  endfacet
  facet normal 0.994522 -0.104529 0
    outer loop
      vertex 43.434 0 18.542
      vertex 42.9594 -4.51522 18.542
      vertex 43.434 0 0
    endloop
  endfacet
  facet normal 1 0 0
    outer loop
      vertex 43.434 0 18.542
      vertex 43.434 0 0
      vertex 43.434 38.1 0
    endloop
  endfacet
  facet normal 1 0 0
    outer loop
      vertex 43.434 38.1 18.542
      vertex 43.434 0 18.542
      vertex 43.434 38.1 0
    endloop
  endfacet
  facet normal 0.951057 -0.309017 0
    outer loop
      vertex 4.67037 13.4232 0
      vertex 4.67037 13.4232 18.542
      vertex 4.064 11.557 18.542
    endloop
  endfacet
  facet normal 0.951057 -0.309017 0
    outer loop
      vertex 4.064 11.557 0
      vertex 4.67037 13.4232 0
      vertex 4.064 11.557 18.542
    endloop
  endfacet
  facet normal 1 0 0
    outer loop
      vertex 4.064 11.557 0
      vertex 4.064 11.557 18.542
      vertex 4.064 3.175 18.542
    endloop
  endfacet
  facet normal 1 0 0
    outer loop
      vertex 4.064 3.175 0
      vertex 4.064 11.557 0
      vertex 4.064 3.175 18.542
    endloop
  endfacet
  facet normal 0.587785 -0.809017 0
    outer loop
      vertex 6.25787 14.5766 0
      vertex 6.25787 14.5766 18.542
      vertex 4.67037 13.4232 18.542
    endloop
  endfacet
  facet normal 0.587785 -0.809017 0
    outer loop
      vertex 4.67037 13.4232 0
      vertex 6.25787 14.5766 0
      vertex 4.67037 13.4232 18.542
    endloop
  endfacet
  facet normal 0 -1 0
    outer loop
      vertex 8.22013 14.5766 0
      vertex 8.22013 14.5766 18.542
      vertex 6.25787 14.5766 18.542
    endloop
  endfacet
  facet normal 0 -1 0
    outer loop
      vertex 6.25787 14.5766 0
      vertex 8.22013 14.5766 0
      vertex 6.25787 14.5766 18.542
    endloop
  endfacet
  facet normal -0.587785 -0.809017 0
    outer loop
      vertex 9.80763 13.4232 0
      vertex 9.80763 13.4232 18.542
      vertex 8.22013 14.5766 18.542
    endloop
  endfacet
  facet normal -0.587785 -0.809017 0
    outer loop
      vertex 8.22013 14.5766 0
      vertex 9.80763 13.4232 0
      vertex 8.22013 14.5766 18.542
    endloop
  endfacet
  facet normal -0.951057 -0.309017 0
    outer loop
      vertex 10.414 11.557 18.542
      vertex 9.80763 13.4232 18.542
      vertex 10.414 11.557 0
    endloop
  endfacet
  facet normal -0.951057 -0.309017 0
    outer loop
      vertex 10.414 11.557 0
      vertex 9.80763 13.4232 18.542
      vertex 9.80763 13.4232 0
    endloop
  endfacet
  facet normal -1 0 0
    outer loop
      vertex 10.414 11.557 18.542
      vertex 10.414 11.557 0
      vertex 10.414 3.175 18.542
    endloop
  endfacet
  facet normal -1 0 0
    outer loop
      vertex 10.414 3.175 18.542
      vertex 10.414 11.557 0
      vertex 10.414 3.175 0
    endloop
  endfacet
  facet normal -0.951057 0.309017 0
    outer loop
      vertex 10.414 3.175 18.542
      vertex 10.414 3.175 0
      vertex 9.80763 1.30878 18.542
    endloop
  endfacet
  facet normal -0.951057 0.309017 0
    outer loop
      vertex 9.80763 1.30878 18.542
      vertex 10.414 3.175 0
      vertex 9.80763 1.30878 0
    endloop
  endfacet
  facet normal -0.587785 0.809017 0
    outer loop
      vertex 9.80763 1.30878 18.542
      vertex 9.80763 1.30878 0
      vertex 8.22013 0.155396 18.542
    endloop
  endfacet
  facet normal -0.587785 0.809017 0
    outer loop
      vertex 8.22013 0.155396 18.542
      vertex 9.80763 1.30878 0
      vertex 8.22013 0.155396 0
    endloop
  endfacet
  facet normal 0 1 0
    outer loop
      vertex 8.22013 0.155396 18.542
      vertex 8.22013 0.155396 0
      vertex 6.25787 0.155396 18.542
    endloop
  endfacet
  facet normal 0 1 0
    outer loop
      vertex 6.25787 0.155396 18.542
      vertex 8.22013 0.155396 0
      vertex 6.25787 0.155396 0
    endloop
  endfacet
  facet normal 0.587785 0.809017 0
    outer loop
      vertex 6.25787 0.155396 18.542
      vertex 6.25787 0.155396 0
      vertex 4.67037 1.30878 18.542
    endloop
  endfacet
  facet normal 0.587785 0.809017 0
    outer loop
      vertex 4.67037 1.30878 18.542
      vertex 6.25787 0.155396 0
      vertex 4.67037 1.30878 0
    endloop
  endfacet
  facet normal 0.951057 0.309017 0
    outer loop
      vertex 4.064 3.175 18.542
      vertex 4.67037 1.30878 18.542
      vertex 4.67037 1.30878 0
    endloop
  endfacet
  facet normal 0.951057 0.309017 0
    outer loop
      vertex 4.064 3.175 0
      vertex 4.064 3.175 18.542
      vertex 4.67037 1.30878 0
    endloop
  endfacet
  facet normal 1 -2.22045e-016 0
    outer loop
      vertex 14.351 14.859 0
      vertex 14.351 14.859 18.542
      vertex 14.351 3.29936e-015 18.542
    endloop
  endfacet
  facet normal 1 -2.22045e-016 0
    outer loop
      vertex 14.351 3.29936e-015 0
      vertex 14.351 14.859 0
      vertex 14.351 3.29936e-015 18.542
    endloop
  endfacet
  facet normal 0.991445 -0.130526 0
    outer loop
      vertex 14.6042 16.7819 0
      vertex 14.6042 16.7819 18.542
      vertex 14.351 14.859 18.542
    endloop
  endfacet
  facet normal 0.991445 -0.130526 0
    outer loop
      vertex 14.351 14.859 0
      vertex 14.6042 16.7819 0
      vertex 14.351 14.859 18.542
    endloop
  endfacet
  facet normal 0.92388 -0.382683 0
    outer loop
      vertex 15.3464 18.5738 0
      vertex 15.3464 18.5738 18.542
      vertex 14.6042 16.7819 18.542
    endloop
  endfacet
  facet normal 0.92388 -0.382683 0
    outer loop
      vertex 14.6042 16.7819 0
      vertex 15.3464 18.5738 0
      vertex 14.6042 16.7819 18.542
    endloop
  endfacet
  facet normal 0.793353 -0.608761 0
    outer loop
      vertex 16.5271 20.1124 0
      vertex 16.5271 20.1124 18.542
      vertex 15.3464 18.5738 18.542
    endloop
  endfacet
  facet normal 0.793353 -0.608761 0
    outer loop
      vertex 15.3464 18.5738 0
      vertex 16.5271 20.1124 0
      vertex 15.3464 18.5738 18.542
    endloop
  endfacet
  facet normal 0.608761 -0.793353 0
    outer loop
      vertex 16.6624 20.2163 0
      vertex 16.6624 20.2163 18.542
      vertex 16.5271 20.1124 18.542
    endloop
  endfacet
  facet normal 0.608761 -0.793353 0
    outer loop
      vertex 16.5271 20.1124 0
      vertex 16.6624 20.2163 0
      vertex 16.5271 20.1124 18.542
    endloop
  endfacet
  facet normal 1 -2.22045e-016 0
    outer loop
      vertex 16.6624 22.8346 0
      vertex 16.6624 22.8346 18.542
      vertex 16.6624 20.2163 18.542
    endloop
  endfacet
  facet normal 1 -2.22045e-016 0
    outer loop
      vertex 16.6624 20.2163 0
      vertex 16.6624 22.8346 0
      vertex 16.6624 20.2163 18.542
    endloop
  endfacet
  facet normal -2.22045e-016 -1 0
    outer loop
      vertex 16.728 22.8346 0
      vertex 16.728 22.8346 18.542
      vertex 16.6624 22.8346 18.542
    endloop
  endfacet
  facet normal -2.22045e-016 -1 0
    outer loop
      vertex 16.6624 22.8346 0
      vertex 16.728 22.8346 0
      vertex 16.6624 22.8346 18.542
    endloop
  endfacet
  facet normal 0.995734 0.0922682 0
    outer loop
      vertex 16.6842 23.3068 18.542
      vertex 16.728 22.8346 18.542
      vertex 16.728 22.8346 0
    endloop
  endfacet
  facet normal 0.995734 0.0922682 0
    outer loop
      vertex 16.6842 23.3068 0
      vertex 16.6842 23.3068 18.542
      vertex 16.728 22.8346 0
    endloop
  endfacet
  facet normal 0.961826 -0.273663 0
    outer loop
      vertex 17.199 25.1159 0
      vertex 17.199 25.1159 18.542
      vertex 16.6842 23.3068 18.542
    endloop
  endfacet
  facet normal 0.961826 -0.273663 0
    outer loop
      vertex 16.6842 23.3068 0
      vertex 17.199 25.1159 0
      vertex 16.6842 23.3068 18.542
    endloop
  endfacet
  facet normal 0.798018 -0.602634 0
    outer loop
      vertex 18.3325 26.6169 0
      vertex 18.3325 26.6169 18.542
      vertex 17.199 25.1159 18.542
    endloop
  endfacet
  facet normal 0.798018 -0.602634 0
    outer loop
      vertex 17.199 25.1159 0
      vertex 18.3325 26.6169 0
      vertex 17.199 25.1159 18.542
    endloop
  endfacet
  facet normal 0.526432 -0.850217 0
    outer loop
      vertex 18.7833 26.8961 9.271
      vertex 18.3325 26.6169 0
      vertex 19.9316 27.6071 0
    endloop
  endfacet
  facet normal 0.526432 -0.850217 0
    outer loop
      vertex 19.9316 27.6071 0
      vertex 19.9316 27.6071 7.11938
      vertex 19.3436 27.243 7.54661
    endloop
  endfacet
  facet normal 0.526432 -0.850217 0
    outer loop
      vertex 19.3436 27.243 10.9954
      vertex 19.9316 27.6071 18.542
      vertex 18.7833 26.8961 9.271
    endloop
  endfacet
  facet normal 0.526432 -0.850217 0
    outer loop
      vertex 18.7833 26.8961 9.271
      vertex 19.9316 27.6071 0
      vertex 19.3436 27.243 7.54661
    endloop
  endfacet
  facet normal 0.526432 -0.850217 0
    outer loop
      vertex 19.9316 27.6071 11.4226
      vertex 19.9316 27.6071 18.542
      vertex 19.3436 27.243 10.9954
    endloop
  endfacet
  facet normal 0.526432 -0.850217 0
    outer loop
      vertex 19.9316 27.6071 18.542
      vertex 18.3325 26.6169 18.542
      vertex 18.7833 26.8961 9.271
    endloop
  endfacet
  facet normal 0.526432 -0.850217 0
    outer loop
      vertex 18.3325 26.6169 18.542
      vertex 18.3325 26.6169 0
      vertex 18.7833 26.8961 9.271
    endloop
  endfacet
  facet normal 0.18375 -0.982973 0
    outer loop
      vertex 21.7805 27.9527 0
      vertex 21.7805 27.9527 6.48089
      vertex 20.8104 27.7714 6.48089
    endloop
  endfacet
  facet normal 0.18375 -0.982973 0
    outer loop
      vertex 19.9316 27.6071 7.11938
      vertex 21.7805 27.9527 0
      vertex 20.8104 27.7714 6.48089
    endloop
  endfacet
  facet normal 0.18375 -0.982973 0
    outer loop
      vertex 19.9316 27.6071 7.11938
      vertex 19.9316 27.6071 0
      vertex 21.7805 27.9527 0
    endloop
  endfacet
  facet normal -0.18375 -0.982973 0
    outer loop
      vertex 23.6294 27.6071 0
      vertex 23.6294 27.6071 7.21165
      vertex 22.6236 27.7951 6.48089
    endloop
  endfacet
  facet normal -0.18375 -0.982973 0
    outer loop
      vertex 21.7805 27.9527 6.48089
      vertex 23.6294 27.6071 0
      vertex 22.6236 27.7951 6.48089
    endloop
  endfacet
  facet normal -0.18375 -0.982973 0
    outer loop
      vertex 21.7805 27.9527 6.48089
      vertex 21.7805 27.9527 0
      vertex 23.6294 27.6071 0
    endloop
  endfacet
  facet normal -0.526432 -0.850217 0
    outer loop
      vertex 24.6507 26.9747 9.271
      vertex 25.2285 26.6169 18.542
      vertex 23.6294 27.6071 18.542
    endloop
  endfacet
  facet normal -0.526432 -0.850217 0
    outer loop
      vertex 23.6294 27.6071 11.3304
      vertex 24.0904 27.3216 10.9954
      vertex 23.6294 27.6071 18.542
    endloop
  endfacet
  facet normal -0.526432 -0.850217 0
    outer loop
      vertex 25.2285 26.6169 0
      vertex 25.2285 26.6169 18.542
      vertex 24.6507 26.9747 9.271
    endloop
  endfacet
  facet normal -0.526432 -0.850217 0
    outer loop
      vertex 23.6294 27.6071 7.21165
      vertex 25.2285 26.6169 0
      vertex 24.0904 27.3216 7.54661
    endloop
  endfacet
  facet normal -0.526432 -0.850217 0
    outer loop
      vertex 23.6294 27.6071 0
      vertex 25.2285 26.6169 0
      vertex 23.6294 27.6071 7.21165
    endloop
  endfacet
  facet normal -0.526432 -0.850217 0
    outer loop
      vertex 24.0904 27.3216 10.9954
      vertex 24.6507 26.9747 9.271
      vertex 23.6294 27.6071 18.542
    endloop
  endfacet
  facet normal -0.526432 -0.850217 0
    outer loop
      vertex 24.6507 26.9747 9.271
      vertex 24.0904 27.3216 7.54661
      vertex 25.2285 26.6169 0
    endloop
  endfacet
  facet normal -0.798018 -0.602634 0
    outer loop
      vertex 26.362 25.1159 18.542
      vertex 25.2285 26.6169 18.542
      vertex 26.362 25.1159 0
    endloop
  endfacet
  facet normal -0.798018 -0.602634 0
    outer loop
      vertex 26.362 25.1159 0
      vertex 25.2285 26.6169 18.542
      vertex 25.2285 26.6169 0
    endloop
  endfacet
  facet normal -0.961826 -0.273663 0
    outer loop
      vertex 26.8768 23.3068 18.542
      vertex 26.362 25.1159 18.542
      vertex 26.8768 23.3068 0
    endloop
  endfacet
  facet normal -0.961826 -0.273663 0
    outer loop
      vertex 26.8768 23.3068 0
      vertex 26.362 25.1159 18.542
      vertex 26.362 25.1159 0
    endloop
  endfacet
  facet normal -0.995734 0.0922682 0
    outer loop
      vertex 26.8768 23.3068 18.542
      vertex 26.8768 23.3068 0
      vertex 26.833 22.8346 18.542
    endloop
  endfacet
  facet normal -0.995734 0.0922682 0
    outer loop
      vertex 26.833 22.8346 18.542
      vertex 26.8768 23.3068 0
      vertex 26.833 22.8346 0
    endloop
  endfacet
  facet normal -2.22045e-016 -1 0
    outer loop
      vertex 26.8986 22.8346 0
      vertex 26.8986 22.8346 18.542
      vertex 26.833 22.8346 18.542
    endloop
  endfacet
  facet normal -2.22045e-016 -1 0
    outer loop
      vertex 26.833 22.8346 0
      vertex 26.8986 22.8346 0
      vertex 26.833 22.8346 18.542
    endloop
  endfacet
  facet normal -1 2.22045e-016 0
    outer loop
      vertex 26.8986 22.8346 18.542
      vertex 26.8986 22.8346 0
      vertex 26.8986 20.2163 18.542
    endloop
  endfacet
  facet normal -1 2.22045e-016 0
    outer loop
      vertex 26.8986 20.2163 18.542
      vertex 26.8986 22.8346 0
      vertex 26.8986 20.2163 0
    endloop
  endfacet
  facet normal -0.608761 -0.793353 0
    outer loop
      vertex 27.034 20.1124 0
      vertex 27.034 20.1124 18.542
      vertex 26.8986 20.2163 18.542
    endloop
  endfacet
  facet normal -0.608761 -0.793353 0
    outer loop
      vertex 26.8986 20.2163 0
      vertex 27.034 20.1124 0
      vertex 26.8986 20.2163 18.542
    endloop
  endfacet
  facet normal -0.793353 -0.608761 0
    outer loop
      vertex 28.2146 18.5737 18.542
      vertex 27.034 20.1124 18.542
      vertex 28.2146 18.5737 0
    endloop
  endfacet
  facet normal -0.793353 -0.608761 0
    outer loop
      vertex 28.2146 18.5737 0
      vertex 27.034 20.1124 18.542
      vertex 27.034 20.1124 0
    endloop
  endfacet
  facet normal -0.92388 -0.382683 0
    outer loop
      vertex 28.9568 16.7819 18.542
      vertex 28.2146 18.5737 18.542
      vertex 28.9568 16.7819 0
    endloop
  endfacet
  facet normal -0.92388 -0.382683 0
    outer loop
      vertex 28.9568 16.7819 0
      vertex 28.2146 18.5737 18.542
      vertex 28.2146 18.5737 0
    endloop
  endfacet
  facet normal -0.991445 -0.130526 0
    outer loop
      vertex 29.21 14.859 18.542
      vertex 28.9568 16.7819 18.542
      vertex 29.21 14.859 0
    endloop
  endfacet
  facet normal -0.991445 -0.130526 0
    outer loop
      vertex 29.21 14.859 0
      vertex 28.9568 16.7819 18.542
      vertex 28.9568 16.7819 0
    endloop
  endfacet
  facet normal -1 2.22045e-016 0
    outer loop
      vertex 29.21 14.859 18.542
      vertex 29.21 14.859 0
      vertex 29.21 6.74639e-015 18.542
    endloop
  endfacet
  facet normal -1 2.22045e-016 0
    outer loop
      vertex 29.21 6.74639e-015 18.542
      vertex 29.21 14.859 0
      vertex 29.21 6.74639e-015 0
    endloop
  endfacet
  facet normal -0.991445 -0.130526 0
    outer loop
      vertex 29.21 -1.97215e-031 18.542
      vertex 29.21 6.74639e-015 18.542
      vertex 29.21 -1.97215e-031 0
    endloop
  endfacet
  facet normal -0.991445 -0.130526 0
    outer loop
      vertex 29.21 -1.97215e-031 0
      vertex 29.21 6.74639e-015 18.542
      vertex 29.21 6.74639e-015 0
    endloop
  endfacet
  facet normal -0.991445 0.130526 0
    outer loop
      vertex 29.21 -1.97215e-031 18.542
      vertex 29.21 -1.97215e-031 0
      vertex 28.9568 -1.9229 18.542
    endloop
  endfacet
  facet normal -0.991445 0.130526 0
    outer loop
      vertex 28.9568 -1.9229 18.542
      vertex 29.21 -1.97215e-031 0
      vertex 28.9568 -1.9229 0
    endloop
  endfacet
  facet normal -0.92388 0.382683 0
    outer loop
      vertex 28.9568 -1.9229 18.542
      vertex 28.9568 -1.9229 0
      vertex 28.2146 -3.71475 18.542
    endloop
  endfacet
  facet normal -0.92388 0.382683 0
    outer loop
      vertex 28.2146 -3.71475 18.542
      vertex 28.9568 -1.9229 0
      vertex 28.2146 -3.71475 0
    endloop
  endfacet
  facet normal -0.793353 0.608761 0
    outer loop
      vertex 28.2146 -3.71475 18.542
      vertex 28.2146 -3.71475 0
      vertex 27.0339 -5.25345 18.542
    endloop
  endfacet
  facet normal -0.793353 0.608761 0
    outer loop
      vertex 27.0339 -5.25345 18.542
      vertex 28.2146 -3.71475 0
      vertex 27.0339 -5.25345 0
    endloop
  endfacet
  facet normal -0.608761 0.793353 0
    outer loop
      vertex 27.0339 -5.25345 18.542
      vertex 27.0339 -5.25345 0
      vertex 25.4952 -6.43414 18.542
    endloop
  endfacet
  facet normal -0.608761 0.793353 0
    outer loop
      vertex 25.4952 -6.43414 18.542
      vertex 27.0339 -5.25345 0
      vertex 25.4952 -6.43414 0
    endloop
  endfacet
  facet normal -0.382683 0.92388 0
    outer loop
      vertex 25.4952 -6.43414 18.542
      vertex 25.4952 -6.43414 0
      vertex 23.7034 -7.17635 18.542
    endloop
  endfacet
  facet normal -0.382683 0.92388 0
    outer loop
      vertex 23.7034 -7.17635 18.542
      vertex 25.4952 -6.43414 0
      vertex 23.7034 -7.17635 0
    endloop
  endfacet
  facet normal -0.130526 0.991445 0
    outer loop
      vertex 23.7034 -7.17635 18.542
      vertex 23.7034 -7.17635 0
      vertex 21.7805 -7.4295 18.542
    endloop
  endfacet
  facet normal -0.130526 0.991445 0
    outer loop
      vertex 21.7805 -7.4295 18.542
      vertex 23.7034 -7.17635 0
      vertex 21.7805 -7.4295 0
    endloop
  endfacet
  facet normal 0.130526 0.991445 0
    outer loop
      vertex 21.7805 -7.4295 18.542
      vertex 21.7805 -7.4295 0
      vertex 19.8576 -7.17635 18.542
    endloop
  endfacet
  facet normal 0.130526 0.991445 0
    outer loop
      vertex 19.8576 -7.17635 18.542
      vertex 21.7805 -7.4295 0
      vertex 19.8576 -7.17635 0
    endloop
  endfacet
  facet normal 0.382683 0.92388 0
    outer loop
      vertex 19.8576 -7.17635 18.542
      vertex 19.8576 -7.17635 0
      vertex 18.0657 -6.43414 18.542
    endloop
  endfacet
  facet normal 0.382683 0.92388 0
    outer loop
      vertex 18.0657 -6.43414 18.542
      vertex 19.8576 -7.17635 0
      vertex 18.0657 -6.43414 0
    endloop
  endfacet
  facet normal 0.608761 0.793353 0
    outer loop
      vertex 18.0657 -6.43414 18.542
      vertex 18.0657 -6.43414 0
      vertex 16.527 -5.25345 18.542
    endloop
  endfacet
  facet normal 0.608761 0.793353 0
    outer loop
      vertex 16.527 -5.25345 18.542
      vertex 18.0657 -6.43414 0
      vertex 16.527 -5.25345 0
    endloop
  endfacet
  facet normal 0.793353 0.608761 0
    outer loop
      vertex 15.3464 -3.71475 18.542
      vertex 16.527 -5.25345 18.542
      vertex 16.527 -5.25345 0
    endloop
  endfacet
  facet normal 0.793353 0.608761 0
    outer loop
      vertex 15.3464 -3.71475 0
      vertex 15.3464 -3.71475 18.542
      vertex 16.527 -5.25345 0
    endloop
  endfacet
  facet normal 0.92388 0.382683 0
    outer loop
      vertex 14.6042 -1.9229 18.542
      vertex 15.3464 -3.71475 18.542
      vertex 15.3464 -3.71475 0
    endloop
  endfacet
  facet normal 0.92388 0.382683 0
    outer loop
      vertex 14.6042 -1.9229 0
      vertex 14.6042 -1.9229 18.542
      vertex 15.3464 -3.71475 0
    endloop
  endfacet
  facet normal 0.991445 0.130526 0
    outer loop
      vertex 14.351 3.29936e-015 18.542
      vertex 14.6042 -1.9229 18.542
      vertex 14.6042 -1.9229 0
    endloop
  endfacet
  facet normal 0.991445 0.130526 0
    outer loop
      vertex 14.351 3.29936e-015 0
      vertex 14.351 3.29936e-015 18.542
      vertex 14.6042 -1.9229 0
    endloop
  endfacet
  facet normal 0.951057 -0.309017 0
    outer loop
      vertex 33.6264 13.4232 0
      vertex 33.6264 13.4232 18.542
      vertex 33.02 11.557 18.542
    endloop
  endfacet
  facet normal 0.951057 -0.309017 0
    outer loop
      vertex 33.02 11.557 0
      vertex 33.6264 13.4232 0
      vertex 33.02 11.557 18.542
    endloop
  endfacet
  facet normal 1 0 0
    outer loop
      vertex 33.02 11.557 0
      vertex 33.02 11.557 18.542
      vertex 33.02 3.175 18.542
    endloop
  endfacet
  facet normal 1 0 0
    outer loop
      vertex 33.02 3.175 0
      vertex 33.02 11.557 0
      vertex 33.02 3.175 18.542
    endloop
  endfacet
  facet normal 0.587785 -0.809017 0
    outer loop
      vertex 35.2139 14.5766 0
      vertex 35.2139 14.5766 18.542
      vertex 33.6264 13.4232 18.542
    endloop
  endfacet
  facet normal 0.587785 -0.809017 0
    outer loop
      vertex 33.6264 13.4232 0
      vertex 35.2139 14.5766 0
      vertex 33.6264 13.4232 18.542
    endloop
  endfacet
  facet normal 0 -1 0
    outer loop
      vertex 37.1761 14.5766 0
      vertex 37.1761 14.5766 18.542
      vertex 35.2139 14.5766 18.542
    endloop
  endfacet
  facet normal 0 -1 0
    outer loop
      vertex 35.2139 14.5766 0
      vertex 37.1761 14.5766 0
      vertex 35.2139 14.5766 18.542
    endloop
  endfacet
  facet normal -0.587785 -0.809017 0
    outer loop
      vertex 38.7636 13.4232 0
      vertex 38.7636 13.4232 18.542
      vertex 37.1761 14.5766 18.542
    endloop
  endfacet
  facet normal -0.587785 -0.809017 0
    outer loop
      vertex 37.1761 14.5766 0
      vertex 38.7636 13.4232 0
      vertex 37.1761 14.5766 18.542
    endloop
  endfacet
  facet normal -0.951057 -0.309017 0
    outer loop
      vertex 39.37 11.557 18.542
      vertex 38.7636 13.4232 18.542
      vertex 39.37 11.557 0
    endloop
  endfacet
  facet normal -0.951057 -0.309017 0
    outer loop
      vertex 39.37 11.557 0
      vertex 38.7636 13.4232 18.542
      vertex 38.7636 13.4232 0
    endloop
  endfacet
  facet normal -1 0 0
    outer loop
      vertex 39.37 11.557 18.542
      vertex 39.37 11.557 0
      vertex 39.37 3.175 18.542
    endloop
  endfacet
  facet normal -1 0 0
    outer loop
      vertex 39.37 3.175 18.542
      vertex 39.37 11.557 0
      vertex 39.37 3.175 0
    endloop
  endfacet
  facet normal -0.951057 0.309017 0
    outer loop
      vertex 39.37 3.175 18.542
      vertex 39.37 3.175 0
      vertex 38.7636 1.30878 18.542
    endloop
  endfacet
  facet normal -0.951057 0.309017 0
    outer loop
      vertex 38.7636 1.30878 18.542
      vertex 39.37 3.175 0
      vertex 38.7636 1.30878 0
    endloop
  endfacet
  facet normal -0.587785 0.809017 0
    outer loop
      vertex 38.7636 1.30878 18.542
      vertex 38.7636 1.30878 0
      vertex 37.1761 0.155396 18.542
    endloop
  endfacet
  facet normal -0.587785 0.809017 0
    outer loop
      vertex 37.1761 0.155396 18.542
      vertex 38.7636 1.30878 0
      vertex 37.1761 0.155396 0
    endloop
  endfacet
  facet normal 0 1 0
    outer loop
      vertex 37.1761 0.155396 18.542
      vertex 37.1761 0.155396 0
      vertex 35.2139 0.155396 18.542
    endloop
  endfacet
  facet normal 0 1 0
    outer loop
      vertex 35.2139 0.155396 18.542
      vertex 37.1761 0.155396 0
      vertex 35.2139 0.155396 0
    endloop
  endfacet
  facet normal 0.587785 0.809017 0
    outer loop
      vertex 35.2139 0.155396 18.542
      vertex 35.2139 0.155396 0
      vertex 33.6264 1.30878 18.542
    endloop
  endfacet
  facet normal 0.587785 0.809017 0
    outer loop
      vertex 33.6264 1.30878 18.542
      vertex 35.2139 0.155396 0
      vertex 33.6264 1.30878 0
    endloop
  endfacet
  facet normal 0.951057 0.309017 0
    outer loop
      vertex 33.02 3.175 18.542
      vertex 33.6264 1.30878 18.542
      vertex 33.6264 1.30878 0
    endloop
  endfacet
  facet normal 0.951057 0.309017 0
    outer loop
      vertex 33.02 3.175 0
      vertex 33.02 3.175 18.542
      vertex 33.6264 1.30878 0
    endloop
  endfacet
  facet normal 0.951057 -6.86156e-017 -0.309017
    outer loop
      vertex 18.7833 38.1 9.271
      vertex 19.3436 38.1 10.9954
      vertex 19.3436 27.243 10.9954
    endloop
  endfacet
  facet normal 0.951057 -6.86156e-017 -0.309017
    outer loop
      vertex 18.7833 26.8961 9.271
      vertex 18.7833 38.1 9.271
      vertex 19.3436 27.243 10.9954
    endloop
  endfacet
  facet normal 0.951057 6.86156e-017 0.309017
    outer loop
      vertex 19.3436 27.243 7.54661
      vertex 19.3436 38.1 7.54661
      vertex 18.7833 38.1 9.271
    endloop
  endfacet
  facet normal 0.951057 6.86156e-017 0.309017
    outer loop
      vertex 18.7833 26.8961 9.271
      vertex 19.3436 27.243 7.54661
      vertex 18.7833 38.1 9.271
    endloop
  endfacet
  facet normal 0.587785 -1.79638e-016 -0.809017
    outer loop
      vertex 20.8104 38.1 12.0611
      vertex 20.8104 27.7714 12.0611
      vertex 19.3436 38.1 10.9954
    endloop
  endfacet
  facet normal 0.587785 -1.79638e-016 -0.809017
    outer loop
      vertex 19.3436 38.1 10.9954
      vertex 20.8104 27.7714 12.0611
      vertex 19.9316 27.6071 11.4226
    endloop
  endfacet
  facet normal 0.587785 -1.79638e-016 -0.809017
    outer loop
      vertex 19.3436 38.1 10.9954
      vertex 19.9316 27.6071 11.4226
      vertex 19.3436 27.243 10.9954
    endloop
  endfacet
  facet normal 0 -2.22045e-016 -1
    outer loop
      vertex 22.6236 38.1 12.0611
      vertex 22.6236 27.7951 12.0611
      vertex 20.8104 38.1 12.0611
    endloop
  endfacet
  facet normal 0 -2.22045e-016 -1
    outer loop
      vertex 20.8104 38.1 12.0611
      vertex 22.6236 27.7951 12.0611
      vertex 21.7805 27.9527 12.0611
    endloop
  endfacet
  facet normal 0 -2.22045e-016 -1
    outer loop
      vertex 20.8104 38.1 12.0611
      vertex 21.7805 27.9527 12.0611
      vertex 20.8104 27.7714 12.0611
    endloop
  endfacet
  facet normal -0.587785 -1.79638e-016 -0.809017
    outer loop
      vertex 24.0904 38.1 10.9954
      vertex 24.0904 27.3216 10.9954
      vertex 22.6236 38.1 12.0611
    endloop
  endfacet
  facet normal -0.587785 -1.79638e-016 -0.809017
    outer loop
      vertex 22.6236 38.1 12.0611
      vertex 24.0904 27.3216 10.9954
      vertex 23.6294 27.6071 11.3304
    endloop
  endfacet
  facet normal -0.587785 -1.79638e-016 -0.809017
    outer loop
      vertex 22.6236 38.1 12.0611
      vertex 23.6294 27.6071 11.3304
      vertex 22.6236 27.7951 12.0611
    endloop
  endfacet
  facet normal -0.951057 -6.86156e-017 -0.309017
    outer loop
      vertex 24.6507 38.1 9.271
      vertex 24.6507 26.9747 9.271
      vertex 24.0904 38.1 10.9954
    endloop
  endfacet
  facet normal -0.951057 -6.86156e-017 -0.309017
    outer loop
      vertex 24.0904 38.1 10.9954
      vertex 24.6507 26.9747 9.271
      vertex 24.0904 27.3216 10.9954
    endloop
  endfacet
  facet normal -0.951057 6.86156e-017 0.309017
    outer loop
      vertex 24.6507 38.1 9.271
      vertex 24.0904 38.1 7.54661
      vertex 24.6507 26.9747 9.271
    endloop
  endfacet
  facet normal -0.951057 6.86156e-017 0.309017
    outer loop
      vertex 24.6507 26.9747 9.271
      vertex 24.0904 38.1 7.54661
      vertex 24.0904 27.3216 7.54661
    endloop
  endfacet
  facet normal -0.587785 1.79638e-016 0.809017
    outer loop
      vertex 23.6294 27.6071 7.21165
      vertex 24.0904 27.3216 7.54661
      vertex 24.0904 38.1 7.54661
    endloop
  endfacet
  facet normal -0.587785 1.79638e-016 0.809017
    outer loop
      vertex 22.6236 27.7951 6.48089
      vertex 23.6294 27.6071 7.21165
      vertex 22.6236 38.1 6.48089
    endloop
  endfacet
  facet normal -0.587785 1.79638e-016 0.809017
    outer loop
      vertex 22.6236 38.1 6.48089
      vertex 23.6294 27.6071 7.21165
      vertex 24.0904 38.1 7.54661
    endloop
  endfacet
  facet normal 0 2.22045e-016 1
    outer loop
      vertex 21.7805 27.9527 6.48089
      vertex 22.6236 27.7951 6.48089
      vertex 22.6236 38.1 6.48089
    endloop
  endfacet
  facet normal 0 2.22045e-016 1
    outer loop
      vertex 20.8104 27.7714 6.48089
      vertex 21.7805 27.9527 6.48089
      vertex 20.8104 38.1 6.48089
    endloop
  endfacet
  facet normal 0 2.22045e-016 1
    outer loop
      vertex 20.8104 38.1 6.48089
      vertex 21.7805 27.9527 6.48089
      vertex 22.6236 38.1 6.48089
    endloop
  endfacet
  facet normal 0.587785 1.79638e-016 0.809017
    outer loop
      vertex 19.9316 27.6071 7.11938
      vertex 20.8104 27.7714 6.48089
      vertex 20.8104 38.1 6.48089
    endloop
  endfacet
  facet normal 0.587785 1.79638e-016 0.809017
    outer loop
      vertex 19.3436 27.243 7.54661
      vertex 19.9316 27.6071 7.11938
      vertex 19.3436 38.1 7.54661
    endloop
  endfacet
  facet normal 0.587785 1.79638e-016 0.809017
    outer loop
      vertex 19.3436 38.1 7.54661
      vertex 19.9316 27.6071 7.11938
      vertex 20.8104 38.1 6.48089
    endloop
  endfacet
  facet normal -0.18375 -0.982973 0
    outer loop
      vertex 22.6236 27.7951 12.0611
      vertex 23.6294 27.6071 11.3304
      vertex 23.6294 27.6071 18.542
    endloop
  endfacet
  facet normal -0.18375 -0.982973 0
    outer loop
      vertex 21.7805 27.9527 12.0611
      vertex 22.6236 27.7951 12.0611
      vertex 21.7805 27.9527 18.542
    endloop
  endfacet
  facet normal -0.18375 -0.982973 0
    outer loop
      vertex 21.7805 27.9527 18.542
      vertex 22.6236 27.7951 12.0611
      vertex 23.6294 27.6071 18.542
    endloop
  endfacet
  facet normal 0.18375 -0.982973 0
    outer loop
      vertex 20.8104 27.7714 12.0611
      vertex 21.7805 27.9527 12.0611
      vertex 21.7805 27.9527 18.542
    endloop
  endfacet
  facet normal 0.18375 -0.982973 0
    outer loop
      vertex 19.9316 27.6071 11.4226
      vertex 20.8104 27.7714 12.0611
      vertex 19.9316 27.6071 18.542
    endloop
  endfacet
  facet normal 0.18375 -0.982973 0
    outer loop
      vertex 19.9316 27.6071 18.542
      vertex 20.8104 27.7714 12.0611
      vertex 21.7805 27.9527 18.542
    endloop
  endfacet
endsolid OpenSCAD_Model
