solid OpenSCAD_Model
  facet normal 0 1.22461e-016 1
    outer loop
      vertex -1.73595 1.73595 -2.12585e-016
      vertex -2.455 0 0
      vertex -1.73595 -1.73595 2.12585e-016
    endloop
  endfacet
  facet normal 0 1.22461e-016 1
    outer loop
      vertex -0.96273 -0.699464 8.56568e-017
      vertex -1.73595 1.73595 -2.12585e-016
      vertex -1.73595 -1.73595 2.12585e-016
    endloop
  endfacet
  facet normal 0 1.22461e-016 1
    outer loop
      vertex 1.19 0 0
      vertex 0.36773 -1.13176 1.38596e-016
      vertex 1.73595 -1.73595 2.12585e-016
    endloop
  endfacet
  facet normal 0 1.22461e-016 1
    outer loop
      vertex 0 2.455 -3.00641e-016
      vertex -1.73595 1.73595 -2.12585e-016
      vertex 1.73595 1.73595 -2.12585e-016
    endloop
  endfacet
  facet normal 0 1.22461e-016 1
    outer loop
      vertex 0 -2.455 3.00641e-016
      vertex -0.96273 -0.699464 8.56568e-017
      vertex -1.73595 -1.73595 2.12585e-016
    endloop
  endfacet
  facet normal 0 1.22461e-016 1
    outer loop
      vertex 0.36773 1.13176 -1.38596e-016
      vertex 1.19 0 0
      vertex 2.455 0 0
    endloop
  endfacet
  facet normal 0 1.22461e-016 1
    outer loop
      vertex 1.73595 1.73595 -2.12585e-016
      vertex 0.36773 1.13176 -1.38596e-016
      vertex 2.455 0 0
    endloop
  endfacet
  facet normal 0 1.22461e-016 1
    outer loop
      vertex 1.73595 1.73595 -2.12585e-016
      vertex -1.73595 1.73595 -2.12585e-016
      vertex 0.36773 1.13176 -1.38596e-016
    endloop
  endfacet
  facet normal 0 1.22461e-016 1
    outer loop
      vertex 2.455 0 0
      vertex 1.19 0 0
      vertex 1.73595 -1.73595 2.12585e-016
    endloop
  endfacet
  facet normal 0 1.22461e-016 1
    outer loop
      vertex 1.73595 -1.73595 2.12585e-016
      vertex 0.36773 -1.13176 1.38596e-016
      vertex 0 -2.455 3.00641e-016
    endloop
  endfacet
  facet normal 0 1.22461e-016 1
    outer loop
      vertex -0.96273 -0.699464 8.56568e-017
      vertex -0.96273 0.699464 -8.56568e-017
      vertex -1.73595 1.73595 -2.12585e-016
    endloop
  endfacet
  facet normal 0 1.22461e-016 1
    outer loop
      vertex 0.36773 -1.13176 1.38596e-016
      vertex -0.96273 -0.699464 8.56568e-017
      vertex 0 -2.455 3.00641e-016
    endloop
  endfacet
  facet normal 0 1.22461e-016 1
    outer loop
      vertex -0.96273 0.699464 -8.56568e-017
      vertex 0.36773 1.13176 -1.38596e-016
      vertex -1.73595 1.73595 -2.12585e-016
    endloop
  endfacet
  facet normal -0.923879 -0.382684 4.68637e-017
    outer loop
      vertex -2.455 0 0
      vertex -2.455 -4.89843e-017 -0.4
      vertex -1.73595 -1.73595 2.12585e-016
    endloop
  endfacet
  facet normal -0.923879 -0.382684 4.68637e-017
    outer loop
      vertex -1.73595 -1.73595 2.12585e-016
      vertex -2.455 -4.89843e-017 -0.4
      vertex -1.73595 -1.73595 -0.4
    endloop
  endfacet
  facet normal -0.923879 0.382684 -4.68637e-017
    outer loop
      vertex -2.455 0 0
      vertex -1.73595 1.73595 -2.12585e-016
      vertex -2.455 -4.89843e-017 -0.4
    endloop
  endfacet
  facet normal -0.923879 0.382684 -4.68637e-017
    outer loop
      vertex -2.455 -4.89843e-017 -0.4
      vertex -1.73595 1.73595 -2.12585e-016
      vertex -1.73595 1.73595 -0.4
    endloop
  endfacet
  facet normal -0.382684 0.923879 -1.13139e-016
    outer loop
      vertex -1.73595 1.73595 -2.12585e-016
      vertex 0 2.455 -3.00641e-016
      vertex -1.73595 1.73595 -0.4
    endloop
  endfacet
  facet normal -0.382684 0.923879 -1.13139e-016
    outer loop
      vertex -1.73595 1.73595 -0.4
      vertex 0 2.455 -3.00641e-016
      vertex 0 2.455 -0.4
    endloop
  endfacet
  facet normal 0.382684 0.923879 -1.13139e-016
    outer loop
      vertex 0 2.455 -3.00641e-016
      vertex 1.73595 1.73595 -2.12585e-016
      vertex 0 2.455 -0.4
    endloop
  endfacet
  facet normal 0.382684 0.923879 -1.13139e-016
    outer loop
      vertex 0 2.455 -0.4
      vertex 1.73595 1.73595 -2.12585e-016
      vertex 1.73595 1.73595 -0.4
    endloop
  endfacet
  facet normal 0.923879 0.382684 -4.68637e-017
    outer loop
      vertex 1.73595 1.73595 -0.4
      vertex 1.73595 1.73595 -2.12585e-016
      vertex 2.455 0 0
    endloop
  endfacet
  facet normal 0.923879 0.382684 -4.68637e-017
    outer loop
      vertex 2.455 -4.89843e-017 -0.4
      vertex 1.73595 1.73595 -0.4
      vertex 2.455 0 0
    endloop
  endfacet
  facet normal 0.923879 -0.382684 4.68637e-017
    outer loop
      vertex 2.455 0 0
      vertex 1.73595 -1.73595 2.12585e-016
      vertex 1.73595 -1.73595 -0.4
    endloop
  endfacet
  facet normal 0.923879 -0.382684 4.68637e-017
    outer loop
      vertex 2.455 -4.89843e-017 -0.4
      vertex 2.455 0 0
      vertex 1.73595 -1.73595 -0.4
    endloop
  endfacet
  facet normal 0.382684 -0.923879 1.13139e-016
    outer loop
      vertex 1.73595 -1.73595 2.12585e-016
      vertex 0 -2.455 3.00641e-016
      vertex 0 -2.455 -0.4
    endloop
  endfacet
  facet normal 0.382684 -0.923879 1.13139e-016
    outer loop
      vertex 1.73595 -1.73595 -0.4
      vertex 1.73595 -1.73595 2.12585e-016
      vertex 0 -2.455 -0.4
    endloop
  endfacet
  facet normal -0.382684 -0.923879 1.13139e-016
    outer loop
      vertex 0 -2.455 3.00641e-016
      vertex -1.73595 -1.73595 2.12585e-016
      vertex -1.73595 -1.73595 -0.4
    endloop
  endfacet
  facet normal -0.382684 -0.923879 1.13139e-016
    outer loop
      vertex 0 -2.455 -0.4
      vertex 0 -2.455 3.00641e-016
      vertex -1.73595 -1.73595 -0.4
    endloop
  endfacet
  facet normal 0.309017 0.951056 -1.16467e-016
    outer loop
      vertex 0.36773 -1.13176 -4.87
      vertex -0.96273 -0.699464 -4.87
      vertex 0.36773 -1.13176 1.38596e-016
    endloop
  endfacet
  facet normal 0.309017 0.951056 -1.16467e-016
    outer loop
      vertex 0.36773 -1.13176 1.38596e-016
      vertex -0.96273 -0.699464 -4.87
      vertex -0.96273 -0.699464 8.56568e-017
    endloop
  endfacet
  facet normal 1 0 0
    outer loop
      vertex -0.96273 -0.699464 8.56568e-017
      vertex -0.96273 -0.699464 -4.87
      vertex -0.96273 0.699464 -4.87
    endloop
  endfacet
  facet normal 1 0 0
    outer loop
      vertex -0.96273 0.699464 -8.56568e-017
      vertex -0.96273 -0.699464 8.56568e-017
      vertex -0.96273 0.699464 -4.87
    endloop
  endfacet
  facet normal -0.809017 0.587785 -7.19806e-017
    outer loop
      vertex 1.19 -5.96383e-016 -4.87
      vertex 0.36773 -1.13176 -4.87
      vertex 1.19 0 0
    endloop
  endfacet
  facet normal -0.809017 0.587785 -7.19806e-017
    outer loop
      vertex 1.19 0 0
      vertex 0.36773 -1.13176 -4.87
      vertex 0.36773 -1.13176 1.38596e-016
    endloop
  endfacet
  facet normal -0.809017 -0.587785 7.19806e-017
    outer loop
      vertex 1.19 -5.96383e-016 -4.87
      vertex 1.19 0 0
      vertex 0.36773 1.13176 -4.87
    endloop
  endfacet
  facet normal -0.809017 -0.587785 7.19806e-017
    outer loop
      vertex 0.36773 1.13176 -4.87
      vertex 1.19 0 0
      vertex 0.36773 1.13176 -1.38596e-016
    endloop
  endfacet
  facet normal 0.309017 -0.951056 1.16467e-016
    outer loop
      vertex -0.96273 0.699464 -4.87
      vertex 0.36773 1.13176 -4.87
      vertex 0.36773 1.13176 -1.38596e-016
    endloop
  endfacet
  facet normal 0.309017 -0.951056 1.16467e-016
    outer loop
      vertex -0.96273 0.699464 -8.56568e-017
      vertex -0.96273 0.699464 -4.87
      vertex 0.36773 1.13176 -1.38596e-016
    endloop
  endfacet
  facet normal 0 -1.22461e-016 -1
    outer loop
      vertex -2.455 -4.89843e-017 -0.4
      vertex -1.73595 1.73595 -0.4
      vertex -1.73595 -1.73595 -0.4
    endloop
  endfacet
  facet normal 0 -1.22461e-016 -1
    outer loop
      vertex -1.19734 0.869922 -0.4
      vertex -1.73595 1.73595 -0.4
      vertex 0 2.455 -0.4
    endloop
  endfacet
  facet normal 0 -1.22461e-016 -1
    outer loop
      vertex 0.457345 1.40756 -0.4
      vertex 0 2.455 -0.4
      vertex 1.73595 1.73595 -0.4
    endloop
  endfacet
  facet normal 0 -1.22461e-016 -1
    outer loop
      vertex 1.48 -4.89843e-017 -0.4
      vertex 1.73595 1.73595 -0.4
      vertex 2.455 -4.89843e-017 -0.4
    endloop
  endfacet
  facet normal 0 -1.22461e-016 -1
    outer loop
      vertex 0.457345 -1.40756 -0.4
      vertex 2.455 -4.89843e-017 -0.4
      vertex 1.73595 -1.73595 -0.4
    endloop
  endfacet
  facet normal 0 -1.22461e-016 -1
    outer loop
      vertex -1.73595 -1.73595 -0.4
      vertex 1.73595 -1.73595 -0.4
      vertex 0 -2.455 -0.4
    endloop
  endfacet
  facet normal 0 -1.22461e-016 -1
    outer loop
      vertex -1.73595 -1.73595 -0.4
      vertex -1.73595 1.73595 -0.4
      vertex -1.19734 0.869922 -0.4
    endloop
  endfacet
  facet normal 0 -1.22461e-016 -1
    outer loop
      vertex 0.457345 -1.40756 -0.4
      vertex -1.73595 -1.73595 -0.4
      vertex -1.19734 -0.869922 -0.4
    endloop
  endfacet
  facet normal 0 -1.22461e-016 -1
    outer loop
      vertex 1.48 -4.89843e-017 -0.4
      vertex 2.455 -4.89843e-017 -0.4
      vertex 0.457345 -1.40756 -0.4
    endloop
  endfacet
  facet normal 0 -1.22461e-016 -1
    outer loop
      vertex -1.73595 -1.73595 -0.4
      vertex 0.457345 -1.40756 -0.4
      vertex 1.73595 -1.73595 -0.4
    endloop
  endfacet
  facet normal 0 -1.22461e-016 -1
    outer loop
      vertex 0.457345 1.40756 -0.4
      vertex 1.73595 1.73595 -0.4
      vertex 1.48 -4.89843e-017 -0.4
    endloop
  endfacet
  facet normal 0 -1.22461e-016 -1
    outer loop
      vertex -1.19734 0.869922 -0.4
      vertex 0 2.455 -0.4
      vertex 0.457345 1.40756 -0.4
    endloop
  endfacet
  facet normal 0 -1.22461e-016 -1
    outer loop
      vertex -1.19734 -0.869922 -0.4
      vertex -1.73595 -1.73595 -0.4
      vertex -1.19734 0.869922 -0.4
    endloop
  endfacet
  facet normal 0 -1.22461e-016 -1
    outer loop
      vertex -0.96273 -0.699464 -4.87
      vertex -1.19734 -0.869922 -4.87
      vertex -0.96273 0.699464 -4.87
    endloop
  endfacet
  facet normal 0 -1.22461e-016 -1
    outer loop
      vertex 1.19 -5.96383e-016 -4.87
      vertex 0.457345 1.40756 -4.87
      vertex 1.48 -5.96383e-016 -4.87
    endloop
  endfacet
  facet normal 0 -1.22461e-016 -1
    outer loop
      vertex 0.36773 -1.13176 -4.87
      vertex 1.48 -5.96383e-016 -4.87
      vertex 0.457345 -1.40756 -4.87
    endloop
  endfacet
  facet normal 0 -1.22461e-016 -1
    outer loop
      vertex -1.19734 0.869922 -4.87
      vertex 0.457345 1.40756 -4.87
      vertex -0.96273 0.699464 -4.87
    endloop
  endfacet
  facet normal 0 -1.22461e-016 -1
    outer loop
      vertex -1.19734 0.869922 -4.87
      vertex -0.96273 0.699464 -4.87
      vertex -1.19734 -0.869922 -4.87
    endloop
  endfacet
  facet normal 0 -1.22461e-016 -1
    outer loop
      vertex 1.19 -5.96383e-016 -4.87
      vertex 1.48 -5.96383e-016 -4.87
      vertex 0.36773 -1.13176 -4.87
    endloop
  endfacet
  facet normal 0 -1.22461e-016 -1
    outer loop
      vertex -1.19734 -0.869922 -4.87
      vertex 0.36773 -1.13176 -4.87
      vertex 0.457345 -1.40756 -4.87
    endloop
  endfacet
  facet normal 0 -1.22461e-016 -1
    outer loop
      vertex 0.36773 1.13176 -4.87
      vertex 0.457345 1.40756 -4.87
      vertex 1.19 -5.96383e-016 -4.87
    endloop
  endfacet
  facet normal 0 -1.22461e-016 -1
    outer loop
      vertex -0.96273 0.699464 -4.87
      vertex 0.457345 1.40756 -4.87
      vertex 0.36773 1.13176 -4.87
    endloop
  endfacet
  facet normal 0 -1.22461e-016 -1
    outer loop
      vertex 0.36773 -1.13176 -4.87
      vertex -1.19734 -0.869922 -4.87
      vertex -0.96273 -0.699464 -4.87
    endloop
  endfacet
  facet normal -1 0 0
    outer loop
      vertex -1.19734 0.869922 -0.4
      vertex -1.19734 0.869922 -4.87
      vertex -1.19734 -0.869922 -0.4
    endloop
  endfacet
  facet normal -1 0 0
    outer loop
      vertex -1.19734 -0.869922 -0.4
      vertex -1.19734 0.869922 -4.87
      vertex -1.19734 -0.869922 -4.87
    endloop
  endfacet
  facet normal -0.309017 0.951056 -1.16467e-016
    outer loop
      vertex -1.19734 0.869922 -0.4
      vertex 0.457345 1.40756 -0.4
      vertex -1.19734 0.869922 -4.87
    endloop
  endfacet
  facet normal -0.309017 0.951056 -1.16467e-016
    outer loop
      vertex -1.19734 0.869922 -4.87
      vertex 0.457345 1.40756 -0.4
      vertex 0.457345 1.40756 -4.87
    endloop
  endfacet
  facet normal 0.809017 0.587785 -7.19806e-017
    outer loop
      vertex 0.457345 1.40756 -4.87
      vertex 0.457345 1.40756 -0.4
      vertex 1.48 -4.89843e-017 -0.4
    endloop
  endfacet
  facet normal 0.809017 0.587785 -7.19806e-017
    outer loop
      vertex 1.48 -5.96383e-016 -4.87
      vertex 0.457345 1.40756 -4.87
      vertex 1.48 -4.89843e-017 -0.4
    endloop
  endfacet
  facet normal 0.809017 -0.587785 7.19806e-017
    outer loop
      vertex 1.48 -4.89843e-017 -0.4
      vertex 0.457345 -1.40756 -0.4
      vertex 0.457345 -1.40756 -4.87
    endloop
  endfacet
  facet normal 0.809017 -0.587785 7.19806e-017
    outer loop
      vertex 1.48 -5.96383e-016 -4.87
      vertex 1.48 -4.89843e-017 -0.4
      vertex 0.457345 -1.40756 -4.87
    endloop
  endfacet
  facet normal -0.309017 -0.951056 1.16467e-016
    outer loop
      vertex 0.457345 -1.40756 -0.4
      vertex -1.19734 -0.869922 -0.4
      vertex -1.19734 -0.869922 -4.87
    endloop
  endfacet
  facet normal -0.309017 -0.951056 1.16467e-016
    outer loop
      vertex 0.457345 -1.40756 -4.87
      vertex 0.457345 -1.40756 -0.4
      vertex -1.19734 -0.869922 -4.87
    endloop
  endfacet
endsolid OpenSCAD_Model
