solid OpenSCAD_Model
  facet normal -4.44089e-016 0 1
    outer loop
      vertex 16.1135 -7.40184 11.6
      vertex 16.45 -4.2 11.6
      vertex 16.1135 -0.99816 11.6
    endloop
  endfacet
  facet normal -4.44089e-016 0 1
    outer loop
      vertex 14.1739 3.7 11.6
      vertex 16.1135 -7.40184 11.6
      vertex 15.1186 2.06374 11.6
    endloop
  endfacet
  facet normal -4.44089e-016 0 1
    outer loop
      vertex 15.1186 2.06374 11.6
      vertex 16.1135 -7.40184 11.6
      vertex 16.1135 -0.99816 11.6
    endloop
  endfacet
  facet normal -4.44089e-016 0 1
    outer loop
      vertex 11.2 3.7 11.6
      vertex 16.1135 -7.40184 11.6
      vertex 14.1739 3.7 11.6
    endloop
  endfacet
  facet normal -4.44089e-016 0 1
    outer loop
      vertex 11.2 -1.7998 11.6
      vertex 16.1135 -7.40184 11.6
      vertex 11.2 3.7 11.6
    endloop
  endfacet
  facet normal -4.44089e-016 0 1
    outer loop
      vertex 11.2706 -2.01693 11.6
      vertex 16.1135 -7.40184 11.6
      vertex 11.2 -1.7998 11.6
    endloop
  endfacet
  facet normal -4.44089e-016 0 1
    outer loop
      vertex 11.5 -4.2 11.6
      vertex 16.1135 -7.40184 11.6
      vertex 11.2706 -2.01693 11.6
    endloop
  endfacet
  facet normal -4.44089e-016 0 1
    outer loop
      vertex 11.2706 -6.38307 11.6
      vertex 16.1135 -7.40184 11.6
      vertex 11.5 -4.2 11.6
    endloop
  endfacet
  facet normal -4.44089e-016 0 1
    outer loop
      vertex 10.5922 -8.47073 11.6
      vertex 16.1135 -7.40184 11.6
      vertex 11.2706 -6.38307 11.6
    endloop
  endfacet
  facet normal -4.44089e-016 0 1
    outer loop
      vertex 9.49468 -10.3717 11.6
      vertex 16.1135 -7.40184 11.6
      vertex 10.5922 -8.47073 11.6
    endloop
  endfacet
  facet normal -4.44089e-016 0 1
    outer loop
      vertex 8.02587 -12.003 11.6
      vertex 16.1135 -7.40184 11.6
      vertex 9.49468 -10.3717 11.6
    endloop
  endfacet
  facet normal -4.44089e-016 0 1
    outer loop
      vertex 6.25 -13.2933 11.6
      vertex 16.1135 -7.40184 11.6
      vertex 8.02587 -12.003 11.6
    endloop
  endfacet
  facet normal -4.44089e-016 0 1
    outer loop
      vertex -0.559738 -19.5156 11.6
      vertex 16.1135 -7.40184 11.6
      vertex 6.25 -13.2933 11.6
    endloop
  endfacet
  facet normal -4.44089e-016 0 1
    outer loop
      vertex -3.70886 -18.8463 11.6
      vertex 6.25 -13.2933 11.6
      vertex 4.24468 -14.1861 11.6
    endloop
  endfacet
  facet normal -4.44089e-016 0 1
    outer loop
      vertex -6.65 -17.5368 11.6
      vertex 4.24468 -14.1861 11.6
      vertex 2.09755 -14.6425 11.6
    endloop
  endfacet
  facet normal -4.44089e-016 0 1
    outer loop
      vertex -9.25461 -15.6444 11.6
      vertex 2.09755 -14.6425 11.6
      vertex -0.097549 -14.6425 11.6
    endloop
  endfacet
  facet normal -4.44089e-016 0 1
    outer loop
      vertex -11.4089 -13.2519 11.6
      vertex -0.097549 -14.6425 11.6
      vertex -2.24468 -14.1861 11.6
    endloop
  endfacet
  facet normal -4.44089e-016 0 1
    outer loop
      vertex -13.0186 -10.4637 11.6
      vertex -2.24468 -14.1861 11.6
      vertex -4.25 -13.2933 11.6
    endloop
  endfacet
  facet normal -4.44089e-016 0 1
    outer loop
      vertex -14.0135 -7.40184 11.6
      vertex -4.25 -13.2933 11.6
      vertex -6.02587 -12.003 11.6
    endloop
  endfacet
  facet normal -4.44089e-016 0 1
    outer loop
      vertex -14.2974 -3.7 11.6
      vertex -6.02587 -12.003 11.6
      vertex -7.49468 -10.3717 11.6
    endloop
  endfacet
  facet normal -4.44089e-016 0 1
    outer loop
      vertex -14.2974 -3.7 11.6
      vertex -7.49468 -10.3717 11.6
      vertex -8.59223 -8.47073 11.6
    endloop
  endfacet
  facet normal -4.44089e-016 0 1
    outer loop
      vertex -14.2974 -3.7 11.6
      vertex -8.59223 -8.47073 11.6
      vertex -9.27055 -6.38307 11.6
    endloop
  endfacet
  facet normal -4.44089e-016 0 1
    outer loop
      vertex -14.2974 -3.7 11.6
      vertex -9.27055 -6.38307 11.6
      vertex -9.5 -4.2 11.6
    endloop
  endfacet
  facet normal -4.44089e-016 0 1
    outer loop
      vertex -14.2974 -3.7 11.6
      vertex -9.5 -4.2 11.6
      vertex -9.44745 -3.7 11.6
    endloop
  endfacet
  facet normal -4.44089e-016 0 1
    outer loop
      vertex -14.35 -4.2 11.6
      vertex -6.02587 -12.003 11.6
      vertex -14.2974 -3.7 11.6
    endloop
  endfacet
  facet normal -4.44089e-016 0 1
    outer loop
      vertex -14.0135 -7.40184 11.6
      vertex -6.02587 -12.003 11.6
      vertex -14.35 -4.2 11.6
    endloop
  endfacet
  facet normal -4.44089e-016 0 1
    outer loop
      vertex -13.0186 -10.4637 11.6
      vertex -4.25 -13.2933 11.6
      vertex -14.0135 -7.40184 11.6
    endloop
  endfacet
  facet normal -4.44089e-016 0 1
    outer loop
      vertex -11.4089 -13.2519 11.6
      vertex -2.24468 -14.1861 11.6
      vertex -13.0186 -10.4637 11.6
    endloop
  endfacet
  facet normal -4.44089e-016 0 1
    outer loop
      vertex -9.25461 -15.6444 11.6
      vertex -0.097549 -14.6425 11.6
      vertex -11.4089 -13.2519 11.6
    endloop
  endfacet
  facet normal -4.44089e-016 0 1
    outer loop
      vertex -6.65 -17.5368 11.6
      vertex 2.09755 -14.6425 11.6
      vertex -9.25461 -15.6444 11.6
    endloop
  endfacet
  facet normal -4.44089e-016 0 1
    outer loop
      vertex -3.70886 -18.8463 11.6
      vertex 4.24468 -14.1861 11.6
      vertex -6.65 -17.5368 11.6
    endloop
  endfacet
  facet normal -4.44089e-016 0 1
    outer loop
      vertex -0.559738 -19.5156 11.6
      vertex 6.25 -13.2933 11.6
      vertex -3.70886 -18.8463 11.6
    endloop
  endfacet
  facet normal -4.44089e-016 0 1
    outer loop
      vertex 2.65974 -19.5156 11.6
      vertex 16.1135 -7.40184 11.6
      vertex -0.559738 -19.5156 11.6
    endloop
  endfacet
  facet normal -4.44089e-016 0 1
    outer loop
      vertex 5.80886 -18.8463 11.6
      vertex 16.1135 -7.40184 11.6
      vertex 2.65974 -19.5156 11.6
    endloop
  endfacet
  facet normal -4.44089e-016 0 1
    outer loop
      vertex 8.75 -17.5368 11.6
      vertex 16.1135 -7.40184 11.6
      vertex 5.80886 -18.8463 11.6
    endloop
  endfacet
  facet normal -4.44089e-016 0 1
    outer loop
      vertex 11.3546 -15.6444 11.6
      vertex 16.1135 -7.40184 11.6
      vertex 8.75 -17.5368 11.6
    endloop
  endfacet
  facet normal -4.44089e-016 0 1
    outer loop
      vertex 13.5089 -13.2519 11.6
      vertex 16.1135 -7.40184 11.6
      vertex 11.3546 -15.6444 11.6
    endloop
  endfacet
  facet normal -4.44089e-016 0 1
    outer loop
      vertex 15.1186 -10.4637 11.6
      vertex 16.1135 -7.40184 11.6
      vertex 13.5089 -13.2519 11.6
    endloop
  endfacet
  facet normal 0.994522 0.104528 4.41656e-016
    outer loop
      vertex 16.1135 -0.99816 11.6
      vertex 16.45 -4.2 11.6
      vertex 16.45 -4.2 8.79939
    endloop
  endfacet
  facet normal 0.994522 0.104528 4.41656e-016
    outer loop
      vertex 16.1137 -1 3.43694
      vertex 16.1135 -0.99816 11.6
      vertex 16.1137 -1 8.46306
    endloop
  endfacet
  facet normal 0.994522 0.104528 4.41656e-016
    outer loop
      vertex 16.1137 -1 8.46306
      vertex 16.1135 -0.99816 11.6
      vertex 16.45 -4.2 8.79939
    endloop
  endfacet
  facet normal 0.994522 0.104528 4.41656e-016
    outer loop
      vertex 16.1135 -0.99816 1.21185e-014
      vertex 16.1135 -0.99816 11.6
      vertex 16.1137 -1 3.43694
    endloop
  endfacet
  facet normal 0.994522 0.104528 4.41656e-016
    outer loop
      vertex 16.45 -4.2 1.2268e-014
      vertex 16.1137 -1 3.43694
      vertex 16.45 -4.2 3.10061
    endloop
  endfacet
  facet normal 0.994522 0.104528 4.41656e-016
    outer loop
      vertex 16.1135 -0.99816 1.21185e-014
      vertex 16.1137 -1 3.43694
      vertex 16.45 -4.2 1.2268e-014
    endloop
  endfacet
  facet normal 0.994522 -0.104528 4.41656e-016
    outer loop
      vertex 16.45 -4.2 8.79939
      vertex 16.45 -4.2 11.6
      vertex 16.1135 -7.40184 11.6
    endloop
  endfacet
  facet normal 0.994522 -0.104528 4.41656e-016
    outer loop
      vertex 16.1135 -7.40184 8.46286
      vertex 16.45 -4.2 8.79939
      vertex 16.1135 -7.40184 11.6
    endloop
  endfacet
  facet normal 0.951057 -0.309017 4.22354e-016
    outer loop
      vertex 16.1135 -7.40184 8.46286
      vertex 16.1135 -7.40184 11.6
      vertex 15.1186 -10.4637 11.6
    endloop
  endfacet
  facet normal 0.951057 -0.309017 4.22354e-016
    outer loop
      vertex 15.3756 -9.67275 7.725
      vertex 16.1135 -7.40184 8.46286
      vertex 15.1186 -10.4637 11.6
    endloop
  endfacet
  facet normal 0.951057 -0.309017 4.22354e-016
    outer loop
      vertex 15.1186 -10.4637 6.76583
      vertex 15.3756 -9.67275 7.725
      vertex 15.1186 -10.4637 11.6
    endloop
  endfacet
  facet normal 0.866025 -0.5 3.84593e-016
    outer loop
      vertex 15.1186 -10.4637 6.76583
      vertex 15.1186 -10.4637 11.6
      vertex 13.5089 -13.2519 11.6
    endloop
  endfacet
  facet normal 0.866025 -0.5 3.84593e-016
    outer loop
      vertex 14.9 -10.8424 5.95
      vertex 15.1186 -10.4637 6.76583
      vertex 13.5089 -13.2519 11.6
    endloop
  endfacet
  facet normal 0.866025 -0.5 3.84593e-016
    outer loop
      vertex 15.1186 -10.4637 1.16767e-014
      vertex 15.1186 -10.4637 5.13417
      vertex 13.5089 -13.2519 1.09618e-014
    endloop
  endfacet
  facet normal 0.866025 -0.5 3.84593e-016
    outer loop
      vertex 13.5089 -13.2519 1.09618e-014
      vertex 14.9 -10.8424 5.95
      vertex 13.5089 -13.2519 11.6
    endloop
  endfacet
  facet normal 0.866025 -0.5 3.84593e-016
    outer loop
      vertex 15.1186 -10.4637 5.13417
      vertex 14.9 -10.8424 5.95
      vertex 13.5089 -13.2519 1.09618e-014
    endloop
  endfacet
  facet normal 0.743145 -0.669131 3.30023e-016
    outer loop
      vertex 13.5089 -13.2519 1.09618e-014
      vertex 13.5089 -13.2519 11.6
      vertex 11.3546 -15.6444 11.6
    endloop
  endfacet
  facet normal 0.743145 -0.669131 3.30023e-016
    outer loop
      vertex 11.3546 -15.6444 1.00052e-014
      vertex 13.5089 -13.2519 1.09618e-014
      vertex 11.3546 -15.6444 11.6
    endloop
  endfacet
  facet normal 0.587785 -0.809017 2.61029e-016
    outer loop
      vertex 11.3546 -15.6444 1.00052e-014
      vertex 11.3546 -15.6444 11.6
      vertex 8.75 -17.5368 11.6
    endloop
  endfacet
  facet normal 0.587785 -0.809017 2.61029e-016
    outer loop
      vertex 8.75 -17.5368 8.84848e-015
      vertex 11.3546 -15.6444 1.00052e-014
      vertex 8.75 -17.5368 11.6
    endloop
  endfacet
  facet normal 0.406737 -0.913545 1.80627e-016
    outer loop
      vertex 8.75 -17.5368 8.84848e-015
      vertex 8.75 -17.5368 11.6
      vertex 5.80886 -18.8463 11.6
    endloop
  endfacet
  facet normal 0.406737 -0.913545 1.80627e-016
    outer loop
      vertex 5.80886 -18.8463 7.54235e-015
      vertex 8.75 -17.5368 8.84848e-015
      vertex 5.80886 -18.8463 11.6
    endloop
  endfacet
  facet normal 0.207912 -0.978148 9.23313e-017
    outer loop
      vertex 5.80886 -18.8463 7.54235e-015
      vertex 5.80886 -18.8463 11.6
      vertex 2.65974 -19.5156 11.6
    endloop
  endfacet
  facet normal 0.207912 -0.978148 9.23313e-017
    outer loop
      vertex 2.65974 -19.5156 6.14386e-015
      vertex 5.80886 -18.8463 7.54235e-015
      vertex 2.65974 -19.5156 11.6
    endloop
  endfacet
  facet normal 0 -1 0
    outer loop
      vertex 2.65974 -19.5156 6.14386e-015
      vertex 2.65974 -19.5156 11.6
      vertex -0.559738 -19.5156 11.6
    endloop
  endfacet
  facet normal 0 -1 0
    outer loop
      vertex -0.559738 -19.5156 4.71412e-015
      vertex 2.65974 -19.5156 6.14386e-015
      vertex -0.559738 -19.5156 11.6
    endloop
  endfacet
  facet normal -0.207912 -0.978148 -9.23313e-017
    outer loop
      vertex -0.559738 -19.5156 4.71412e-015
      vertex -0.559738 -19.5156 11.6
      vertex -3.70886 -18.8463 11.6
    endloop
  endfacet
  facet normal -0.207912 -0.978148 -9.23313e-017
    outer loop
      vertex -3.70886 -18.8463 3.31563e-015
      vertex -0.559738 -19.5156 4.71412e-015
      vertex -3.70886 -18.8463 11.6
    endloop
  endfacet
  facet normal -0.406737 -0.913545 -1.80627e-016
    outer loop
      vertex -3.70886 -18.8463 3.31563e-015
      vertex -3.70886 -18.8463 11.6
      vertex -6.65 -17.5368 11.6
    endloop
  endfacet
  facet normal -0.406737 -0.913545 -1.80627e-016
    outer loop
      vertex -6.65 -17.5368 2.0095e-015
      vertex -3.70886 -18.8463 3.31563e-015
      vertex -6.65 -17.5368 11.6
    endloop
  endfacet
  facet normal -0.587785 -0.809017 -2.61029e-016
    outer loop
      vertex -6.65 -17.5368 2.0095e-015
      vertex -6.65 -17.5368 11.6
      vertex -9.25461 -15.6444 11.6
    endloop
  endfacet
  facet normal -0.587785 -0.809017 -2.61029e-016
    outer loop
      vertex -9.25461 -15.6444 8.52824e-016
      vertex -6.65 -17.5368 2.0095e-015
      vertex -9.25461 -15.6444 11.6
    endloop
  endfacet
  facet normal -0.743145 -0.669131 -3.30023e-016
    outer loop
      vertex -9.25461 -15.6444 11.6
      vertex -11.4089 -13.2519 11.6
      vertex -9.25461 -15.6444 8.52824e-016
    endloop
  endfacet
  facet normal -0.743145 -0.669131 -3.30023e-016
    outer loop
      vertex -9.25461 -15.6444 8.52824e-016
      vertex -11.4089 -13.2519 11.6
      vertex -11.4089 -13.2519 -1.03856e-016
    endloop
  endfacet
  facet normal -0.866025 -0.5 -3.84593e-016
    outer loop
      vertex -11.4089 -13.2519 11.6
      vertex -13.0186 -10.4637 11.6
      vertex -11.4089 -13.2519 -1.03856e-016
    endloop
  endfacet
  facet normal -0.866025 -0.5 -3.84593e-016
    outer loop
      vertex -11.4089 -13.2519 -1.03856e-016
      vertex -13.0186 -10.4637 11.6
      vertex -13.0186 -10.4637 -8.18723e-016
    endloop
  endfacet
  facet normal -0.951057 -0.309017 -4.22354e-016
    outer loop
      vertex -13.0186 -10.4637 11.6
      vertex -14.0135 -7.40184 11.6
      vertex -13.0186 -10.4637 -8.18723e-016
    endloop
  endfacet
  facet normal -0.951057 -0.309017 -4.22354e-016
    outer loop
      vertex -13.0186 -10.4637 -8.18723e-016
      vertex -14.0135 -7.40184 11.6
      vertex -14.0135 -7.40184 -1.26054e-015
    endloop
  endfacet
  facet normal -0.994522 -0.104528 -4.41656e-016
    outer loop
      vertex -14.0135 -7.40184 11.6
      vertex -14.35 -4.2 11.6
      vertex -14.0135 -7.40184 -1.26054e-015
    endloop
  endfacet
  facet normal -0.994522 -0.104528 -4.41656e-016
    outer loop
      vertex -14.0135 -7.40184 -1.26054e-015
      vertex -14.35 -4.2 11.6
      vertex -14.35 -4.2 -1.40998e-015
    endloop
  endfacet
  facet normal -0.994522 0.104528 -4.41656e-016
    outer loop
      vertex -14.2974 -3.7 11.6
      vertex -14.2974 -3.7 2.02117e-015
      vertex -14.35 -4.2 11.6
    endloop
  endfacet
  facet normal -0.994522 0.104528 -4.41656e-016
    outer loop
      vertex -14.0135 -0.99816 -1.26054e-015
      vertex -14.2974 -3.7 2.02117e-015
      vertex -14.0135 -0.99816 2.08423e-015
    endloop
  endfacet
  facet normal -0.994522 0.104528 -4.41656e-016
    outer loop
      vertex -14.35 -4.2 -1.40998e-015
      vertex -14.2974 -3.7 2.02117e-015
      vertex -14.0135 -0.99816 -1.26054e-015
    endloop
  endfacet
  facet normal -0.994522 0.104528 -4.41656e-016
    outer loop
      vertex -14.35 -4.2 11.6
      vertex -14.2974 -3.7 2.02117e-015
      vertex -14.35 -4.2 -1.40998e-015
    endloop
  endfacet
  facet normal 0 -1 0
    outer loop
      vertex -14.2974 -3.7 11.6
      vertex -14.35 -3.7 11.6
      vertex -14.35 -3.7 2.0095e-015
    endloop
  endfacet
  facet normal 0 -1 0
    outer loop
      vertex -9.44745 -3.7 11.6
      vertex -14.35 -3.7 11.6
      vertex -14.2974 -3.7 11.6
    endloop
  endfacet
  facet normal 0 -1 0
    outer loop
      vertex -14.2974 -3.7 2.02117e-015
      vertex -14.2974 -3.7 11.6
      vertex -14.35 -3.7 2.0095e-015
    endloop
  endfacet
  facet normal 0.994522 -0.104528 4.41656e-016
    outer loop
      vertex -9.44745 -3.7 11.6
      vertex -9.5 -4.2 11.6
      vertex -9.5 -4.2 9.5
    endloop
  endfacet
  facet normal 0.994522 -0.104528 4.41656e-016
    outer loop
      vertex -9.27055 -2.01693 11.6
      vertex -9.44745 -3.7 11.6
      vertex -9.35556 -2.82571 9.5
    endloop
  endfacet
  facet normal 0.994522 -0.104528 4.41656e-016
    outer loop
      vertex -9.35556 -2.82571 9.5
      vertex -9.44745 -3.7 11.6
      vertex -9.5 -4.2 9.5
    endloop
  endfacet
  facet normal 0.994522 -0.104528 4.41656e-016
    outer loop
      vertex -9.27055 -2.01693 8.45746e-016
      vertex -9.35556 -2.82571 9.5
      vertex -9.35556 -2.82571 2.1
    endloop
  endfacet
  facet normal 0.994522 -0.104528 4.41656e-016
    outer loop
      vertex -9.5 -4.2 7.43849e-016
      vertex -9.35556 -2.82571 2.1
      vertex -9.5 -4.2 2.1
    endloop
  endfacet
  facet normal 0.994522 -0.104528 4.41656e-016
    outer loop
      vertex -9.27055 -2.01693 8.45746e-016
      vertex -9.35556 -2.82571 2.1
      vertex -9.5 -4.2 7.43849e-016
    endloop
  endfacet
  facet normal 0.994522 -0.104528 4.41656e-016
    outer loop
      vertex -9.27055 -2.01693 11.6
      vertex -9.35556 -2.82571 9.5
      vertex -9.27055 -2.01693 8.45746e-016
    endloop
  endfacet
  facet normal 0.994522 0.104528 4.41656e-016
    outer loop
      vertex -9.27055 -6.38307 9.5
      vertex -9.5 -4.2 9.5
      vertex -9.5 -4.2 11.6
    endloop
  endfacet
  facet normal 0.994522 0.104528 4.41656e-016
    outer loop
      vertex -9.27055 -6.38307 11.6
      vertex -9.27055 -6.38307 9.5
      vertex -9.5 -4.2 11.6
    endloop
  endfacet
  facet normal 0.951056 0.309017 4.22354e-016
    outer loop
      vertex -8.59223 -8.47073 9.5
      vertex -9.27055 -6.38307 9.5
      vertex -9.27055 -6.38307 11.6
    endloop
  endfacet
  facet normal 0.951056 0.309017 4.22354e-016
    outer loop
      vertex -8.59223 -8.47073 11.6
      vertex -8.59223 -8.47073 9.5
      vertex -9.27055 -6.38307 11.6
    endloop
  endfacet
  facet normal 0.866025 0.5 3.84593e-016
    outer loop
      vertex -7.49468 -10.3717 9.5
      vertex -8.59223 -8.47073 9.5
      vertex -8.59223 -8.47073 11.6
    endloop
  endfacet
  facet normal 0.866025 0.5 3.84593e-016
    outer loop
      vertex -7.49468 -10.3717 11.6
      vertex -7.49468 -10.3717 9.5
      vertex -8.59223 -8.47073 11.6
    endloop
  endfacet
  facet normal 0.743145 0.66913 3.30023e-016
    outer loop
      vertex -6.02587 -12.003 9.5
      vertex -7.49468 -10.3717 9.5
      vertex -7.49468 -10.3717 11.6
    endloop
  endfacet
  facet normal 0.743145 0.66913 3.30023e-016
    outer loop
      vertex -6.02587 -12.003 11.6
      vertex -6.02587 -12.003 9.5
      vertex -7.49468 -10.3717 11.6
    endloop
  endfacet
  facet normal 0.587785 0.809017 2.61029e-016
    outer loop
      vertex -6.02587 -12.003 9.5
      vertex -6.02587 -12.003 11.6
      vertex -4.25 -13.2933 9.5
    endloop
  endfacet
  facet normal 0.587785 0.809017 2.61029e-016
    outer loop
      vertex -4.25 -13.2933 9.5
      vertex -6.02587 -12.003 11.6
      vertex -4.25 -13.2933 11.6
    endloop
  endfacet
  facet normal 0.406736 0.913546 1.80627e-016
    outer loop
      vertex -4.25 -13.2933 9.5
      vertex -4.25 -13.2933 11.6
      vertex -2.24468 -14.1861 9.5
    endloop
  endfacet
  facet normal 0.406736 0.913546 1.80627e-016
    outer loop
      vertex -2.24468 -14.1861 9.5
      vertex -4.25 -13.2933 11.6
      vertex -2.24468 -14.1861 11.6
    endloop
  endfacet
  facet normal 0.207912 0.978148 9.23315e-017
    outer loop
      vertex -2.24468 -14.1861 9.5
      vertex -2.24468 -14.1861 11.6
      vertex -0.097549 -14.6425 9.5
    endloop
  endfacet
  facet normal 0.207912 0.978148 9.23315e-017
    outer loop
      vertex -0.097549 -14.6425 9.5
      vertex -2.24468 -14.1861 11.6
      vertex -0.097549 -14.6425 11.6
    endloop
  endfacet
  facet normal 0 1 0
    outer loop
      vertex -0.097549 -14.6425 9.5
      vertex -0.097549 -14.6425 11.6
      vertex 2.09755 -14.6425 9.5
    endloop
  endfacet
  facet normal 0 1 0
    outer loop
      vertex 2.09755 -14.6425 9.5
      vertex -0.097549 -14.6425 11.6
      vertex 2.09755 -14.6425 11.6
    endloop
  endfacet
  facet normal -0.207912 0.978148 -9.23315e-017
    outer loop
      vertex 2.09755 -14.6425 9.5
      vertex 2.09755 -14.6425 11.6
      vertex 4.24468 -14.1861 9.5
    endloop
  endfacet
  facet normal -0.207912 0.978148 -9.23315e-017
    outer loop
      vertex 4.24468 -14.1861 9.5
      vertex 2.09755 -14.6425 11.6
      vertex 4.24468 -14.1861 11.6
    endloop
  endfacet
  facet normal -0.406736 0.913546 -1.80627e-016
    outer loop
      vertex 4.24468 -14.1861 9.5
      vertex 4.24468 -14.1861 11.6
      vertex 6.25 -13.2933 9.5
    endloop
  endfacet
  facet normal -0.406736 0.913546 -1.80627e-016
    outer loop
      vertex 6.25 -13.2933 9.5
      vertex 4.24468 -14.1861 11.6
      vertex 6.25 -13.2933 11.6
    endloop
  endfacet
  facet normal -0.587785 0.809017 -2.61029e-016
    outer loop
      vertex 6.25 -13.2933 9.5
      vertex 6.25 -13.2933 11.6
      vertex 8.02587 -12.003 9.5
    endloop
  endfacet
  facet normal -0.587785 0.809017 -2.61029e-016
    outer loop
      vertex 8.02587 -12.003 9.5
      vertex 6.25 -13.2933 11.6
      vertex 8.02587 -12.003 11.6
    endloop
  endfacet
  facet normal -0.743145 0.66913 -3.30023e-016
    outer loop
      vertex 8.02587 -12.003 9.5
      vertex 8.02587 -12.003 11.6
      vertex 9.49468 -10.3717 9.5
    endloop
  endfacet
  facet normal -0.743145 0.66913 -3.30023e-016
    outer loop
      vertex 9.49468 -10.3717 9.5
      vertex 8.02587 -12.003 11.6
      vertex 9.49468 -10.3717 11.6
    endloop
  endfacet
  facet normal -0.866025 0.5 -3.84593e-016
    outer loop
      vertex 9.49468 -10.3717 9.5
      vertex 9.49468 -10.3717 11.6
      vertex 10.5922 -8.47073 9.5
    endloop
  endfacet
  facet normal -0.866025 0.5 -3.84593e-016
    outer loop
      vertex 10.5922 -8.47073 9.5
      vertex 9.49468 -10.3717 11.6
      vertex 10.5922 -8.47073 11.6
    endloop
  endfacet
  facet normal -0.951056 0.309017 -4.22354e-016
    outer loop
      vertex 10.5922 -8.47073 9.5
      vertex 10.5922 -8.47073 11.6
      vertex 11.2706 -6.38307 9.5
    endloop
  endfacet
  facet normal -0.951056 0.309017 -4.22354e-016
    outer loop
      vertex 11.2706 -6.38307 9.5
      vertex 10.5922 -8.47073 11.6
      vertex 11.2706 -6.38307 11.6
    endloop
  endfacet
  facet normal -0.994522 0.104528 -4.41656e-016
    outer loop
      vertex 11.2706 -6.38307 9.5
      vertex 11.2706 -6.38307 11.6
      vertex 11.5 -4.2 9.5
    endloop
  endfacet
  facet normal -0.994522 0.104528 -4.41656e-016
    outer loop
      vertex 11.5 -4.2 9.5
      vertex 11.2706 -6.38307 11.6
      vertex 11.5 -4.2 11.6
    endloop
  endfacet
  facet normal -0.994522 -0.104528 -4.41656e-016
    outer loop
      vertex 11.3556 -2.82571 9.5
      vertex 11.2706 -2.01693 11.6
      vertex 11.3556 -2.82571 2.1
    endloop
  endfacet
  facet normal -0.994522 -0.104528 -4.41656e-016
    outer loop
      vertex 11.2706 -2.01693 7.69841e-015
      vertex 11.4474 -3.7 7.73769e-015
      vertex 11.3556 -2.82571 2.1
    endloop
  endfacet
  facet normal -0.994522 -0.104528 -4.41656e-016
    outer loop
      vertex 11.2706 -2.01693 7.69841e-015
      vertex 11.3556 -2.82571 2.1
      vertex 11.2706 -2.01693 11.6
    endloop
  endfacet
  facet normal -0.994522 -0.104528 -4.41656e-016
    outer loop
      vertex 11.2706 -2.01693 11.6
      vertex 11.3556 -2.82571 9.5
      vertex 11.5 -4.2 9.5
    endloop
  endfacet
  facet normal -0.994522 -0.104528 -4.41656e-016
    outer loop
      vertex 11.2706 -2.01693 11.6
      vertex 11.5 -4.2 9.5
      vertex 11.5 -4.2 11.6
    endloop
  endfacet
  facet normal -0.994522 -0.104528 -4.41656e-016
    outer loop
      vertex 11.3556 -2.82571 2.1
      vertex 11.4474 -3.7 7.73769e-015
      vertex 11.4474 -3.7 1.00464e-014
    endloop
  endfacet
  facet normal -0.994522 -0.104528 -4.41656e-016
    outer loop
      vertex 11.3556 -2.82571 2.1
      vertex 11.4474 -3.7 1.00464e-014
      vertex 11.5 -4.2 1.00697e-014
    endloop
  endfacet
  facet normal -0.994522 -0.104528 -4.41656e-016
    outer loop
      vertex 11.3556 -2.82571 2.1
      vertex 11.5 -4.2 1.00697e-014
      vertex 11.5 -4.2 2.1
    endloop
  endfacet
  facet normal -0.951056 -0.309017 -4.22354e-016
    outer loop
      vertex 11.2 -1.7998 7.68274e-015
      vertex 11.2706 -2.01693 7.69841e-015
      vertex 11.2 -1.7998 11.6
    endloop
  endfacet
  facet normal -0.951056 -0.309017 -4.22354e-016
    outer loop
      vertex 11.2 -1.7998 11.6
      vertex 11.2706 -2.01693 7.69841e-015
      vertex 11.2706 -2.01693 11.6
    endloop
  endfacet
  facet normal -1 0 -2.22045e-016
    outer loop
      vertex 11.2 3.7 7.68274e-015
      vertex 11.2 -1.7998 7.68274e-015
      vertex 11.2 3.7 11.6
    endloop
  endfacet
  facet normal -1 0 -2.22045e-016
    outer loop
      vertex 11.2 3.7 11.6
      vertex 11.2 -1.7998 7.68274e-015
      vertex 11.2 -1.7998 11.6
    endloop
  endfacet
  facet normal 0 1 0
    outer loop
      vertex 16.8863 3.7 4.70302
      vertex 22.6 3.7 1.02141e-014
      vertex 11.2 3.7 7.68274e-015
    endloop
  endfacet
  facet normal 0 1 0
    outer loop
      vertex 14.1739 3.7 11.6
      vertex 11.2 3.7 7.68274e-015
      vertex 11.2 3.7 11.6
    endloop
  endfacet
  facet normal 0 1 0
    outer loop
      vertex 16.5001 3.7 6.39504
      vertex 14.1739 3.7 11.6
      vertex 17.5822 3.7 7.75194
    endloop
  endfacet
  facet normal 0 1 0
    outer loop
      vertex 22.6 3.7 11.6
      vertex 17.5822 3.7 7.75194
      vertex 14.1739 3.7 11.6
    endloop
  endfacet
  facet normal 0 1 0
    outer loop
      vertex 20.0137 3.7 4.70302
      vertex 22.6 3.7 1.02141e-014
      vertex 18.45 3.7 3.95
    endloop
  endfacet
  facet normal 0 1 0
    outer loop
      vertex 14.1739 3.7 11.6
      vertex 16.5001 3.7 6.39504
      vertex 11.2 3.7 7.68274e-015
    endloop
  endfacet
  facet normal 0 1 0
    outer loop
      vertex 18.45 3.7 3.95
      vertex 22.6 3.7 1.02141e-014
      vertex 16.8863 3.7 4.70302
    endloop
  endfacet
  facet normal 0 1 0
    outer loop
      vertex 16.5001 3.7 6.39504
      vertex 16.8863 3.7 4.70302
      vertex 11.2 3.7 7.68274e-015
    endloop
  endfacet
  facet normal 0 1 0
    outer loop
      vertex 22.6 3.7 11.6
      vertex 22.6 3.7 1.02141e-014
      vertex 20.0137 3.7 4.70302
    endloop
  endfacet
  facet normal 0 1 0
    outer loop
      vertex 22.6 3.7 11.6
      vertex 20.0137 3.7 4.70302
      vertex 20.3999 3.7 6.39504
    endloop
  endfacet
  facet normal 0 1 0
    outer loop
      vertex 22.6 3.7 11.6
      vertex 20.3999 3.7 6.39504
      vertex 19.3178 3.7 7.75194
    endloop
  endfacet
  facet normal 0 1 0
    outer loop
      vertex 22.6 3.7 11.6
      vertex 19.3178 3.7 7.75194
      vertex 17.5822 3.7 7.75194
    endloop
  endfacet
  facet normal 0.951057 0.309017 4.22354e-016
    outer loop
      vertex 15.7892 0 11.6
      vertex 16.1135 -0.99816 11.6
      vertex 16.1135 -0.99816 1.21185e-014
    endloop
  endfacet
  facet normal 0.951057 0.309017 4.22354e-016
    outer loop
      vertex 15.1186 2.06374 11.6
      vertex 16.1135 -0.99816 11.6
      vertex 15.7892 0 11.6
    endloop
  endfacet
  facet normal 0.951057 0.309017 4.22354e-016
    outer loop
      vertex 15.7892 0 1.19745e-014
      vertex 15.7892 0 11.6
      vertex 16.1135 -0.99816 1.21185e-014
    endloop
  endfacet
  facet normal 4.44089e-016 0 -1
    outer loop
      vertex 16.45 -4.2 1.2268e-014
      vertex 16.1135 -7.40184 1.21185e-014
      vertex 16.1135 -0.99816 1.21185e-014
    endloop
  endfacet
  facet normal 4.44089e-016 0 -1
    outer loop
      vertex 16.1135 -0.99816 1.21185e-014
      vertex 16.1135 -7.40184 1.21185e-014
      vertex 15.1186 -10.4637 1.16767e-014
    endloop
  endfacet
  facet normal 4.44089e-016 0 -1
    outer loop
      vertex 16.1135 -0.99816 1.21185e-014
      vertex 15.1186 -10.4637 1.16767e-014
      vertex 13.5089 -13.2519 1.09618e-014
    endloop
  endfacet
  facet normal 4.44089e-016 0 -1
    outer loop
      vertex 16.1135 -0.99816 1.21185e-014
      vertex 13.5089 -13.2519 1.09618e-014
      vertex 11.3546 -15.6444 1.00052e-014
    endloop
  endfacet
  facet normal 4.44089e-016 0 -1
    outer loop
      vertex 16.1135 -0.99816 1.21185e-014
      vertex 11.3546 -15.6444 1.00052e-014
      vertex 8.75 -17.5368 8.84848e-015
    endloop
  endfacet
  facet normal 4.44089e-016 0 -1
    outer loop
      vertex 16.1135 -0.99816 1.21185e-014
      vertex 8.75 -17.5368 8.84848e-015
      vertex 5.80886 -18.8463 7.54235e-015
    endloop
  endfacet
  facet normal 4.44089e-016 0 -1
    outer loop
      vertex 9.49468 -10.3717 9.17918e-015
      vertex 5.80886 -18.8463 7.54235e-015
      vertex 2.65974 -19.5156 6.14386e-015
    endloop
  endfacet
  facet normal 4.44089e-016 0 -1
    outer loop
      vertex 4.24468 -14.1861 6.84771e-015
      vertex 2.65974 -19.5156 6.14386e-015
      vertex -0.559738 -19.5156 4.71412e-015
    endloop
  endfacet
  facet normal 4.44089e-016 0 -1
    outer loop
      vertex 2.09755 -14.6425 5.8942e-015
      vertex -0.559738 -19.5156 4.71412e-015
      vertex -3.70886 -18.8463 3.31563e-015
    endloop
  endfacet
  facet normal 4.44089e-016 0 -1
    outer loop
      vertex -0.097549 -14.6425 4.91938e-015
      vertex -3.70886 -18.8463 3.31563e-015
      vertex -6.65 -17.5368 2.0095e-015
    endloop
  endfacet
  facet normal 4.44089e-016 0 -1
    outer loop
      vertex -4.25 -13.2933 3.07532e-015
      vertex -6.65 -17.5368 2.0095e-015
      vertex -9.25461 -15.6444 8.52824e-016
    endloop
  endfacet
  facet normal 4.44089e-016 0 -1
    outer loop
      vertex -6.02587 -12.003 2.28667e-015
      vertex -9.25461 -15.6444 8.52824e-016
      vertex -11.4089 -13.2519 -1.03856e-016
    endloop
  endfacet
  facet normal 4.44089e-016 0 -1
    outer loop
      vertex -7.49468 -10.3717 1.63439e-015
      vertex -11.4089 -13.2519 -1.03856e-016
      vertex -13.0186 -10.4637 -8.18723e-016
    endloop
  endfacet
  facet normal 4.44089e-016 0 -1
    outer loop
      vertex -8.59223 -8.47073 1.14698e-015
      vertex -13.0186 -10.4637 -8.18723e-016
      vertex -14.0135 -7.40184 -1.26054e-015
    endloop
  endfacet
  facet normal 4.44089e-016 0 -1
    outer loop
      vertex -9.5 -4.2 7.43849e-016
      vertex -14.0135 -7.40184 -1.26054e-015
      vertex -14.35 -4.2 -1.40998e-015
    endloop
  endfacet
  facet normal 4.44089e-016 0 -1
    outer loop
      vertex -9.15 -1.64591 8.99281e-016
      vertex -14.35 -4.2 -1.40998e-015
      vertex -14.0135 -0.99816 -1.26054e-015
    endloop
  endfacet
  facet normal 4.44089e-016 0 -1
    outer loop
      vertex -9.27055 -2.01693 8.45746e-016
      vertex -14.35 -4.2 -1.40998e-015
      vertex -9.15 -1.64591 8.99281e-016
    endloop
  endfacet
  facet normal 4.44089e-016 0 -1
    outer loop
      vertex -9.5 -4.2 7.43849e-016
      vertex -14.35 -4.2 -1.40998e-015
      vertex -9.27055 -2.01693 8.45746e-016
    endloop
  endfacet
  facet normal 4.44089e-016 0 -1
    outer loop
      vertex -9.27055 -6.38307 8.45746e-016
      vertex -14.0135 -7.40184 -1.26054e-015
      vertex -9.5 -4.2 7.43849e-016
    endloop
  endfacet
  facet normal 4.44089e-016 0 -1
    outer loop
      vertex -8.59223 -8.47073 1.14698e-015
      vertex -14.0135 -7.40184 -1.26054e-015
      vertex -9.27055 -6.38307 8.45746e-016
    endloop
  endfacet
  facet normal 4.44089e-016 0 -1
    outer loop
      vertex -7.49468 -10.3717 1.63439e-015
      vertex -13.0186 -10.4637 -8.18723e-016
      vertex -8.59223 -8.47073 1.14698e-015
    endloop
  endfacet
  facet normal 4.44089e-016 0 -1
    outer loop
      vertex -6.02587 -12.003 2.28667e-015
      vertex -11.4089 -13.2519 -1.03856e-016
      vertex -7.49468 -10.3717 1.63439e-015
    endloop
  endfacet
  facet normal 4.44089e-016 0 -1
    outer loop
      vertex -4.25 -13.2933 3.07532e-015
      vertex -9.25461 -15.6444 8.52824e-016
      vertex -6.02587 -12.003 2.28667e-015
    endloop
  endfacet
  facet normal 4.44089e-016 0 -1
    outer loop
      vertex -2.24468 -14.1861 3.96586e-015
      vertex -6.65 -17.5368 2.0095e-015
      vertex -4.25 -13.2933 3.07532e-015
    endloop
  endfacet
  facet normal 4.44089e-016 0 -1
    outer loop
      vertex -0.097549 -14.6425 4.91938e-015
      vertex -6.65 -17.5368 2.0095e-015
      vertex -2.24468 -14.1861 3.96586e-015
    endloop
  endfacet
  facet normal 4.44089e-016 0 -1
    outer loop
      vertex 2.09755 -14.6425 5.8942e-015
      vertex -3.70886 -18.8463 3.31563e-015
      vertex -0.097549 -14.6425 4.91938e-015
    endloop
  endfacet
  facet normal 4.44089e-016 0 -1
    outer loop
      vertex 4.24468 -14.1861 6.84771e-015
      vertex -0.559738 -19.5156 4.71412e-015
      vertex 2.09755 -14.6425 5.8942e-015
    endloop
  endfacet
  facet normal 4.44089e-016 0 -1
    outer loop
      vertex 6.25 -13.2933 7.73825e-015
      vertex 2.65974 -19.5156 6.14386e-015
      vertex 4.24468 -14.1861 6.84771e-015
    endloop
  endfacet
  facet normal 4.44089e-016 0 -1
    outer loop
      vertex 9.49468 -10.3717 9.17918e-015
      vertex 2.65974 -19.5156 6.14386e-015
      vertex 8.02587 -12.003 8.5269e-015
    endloop
  endfacet
  facet normal 4.44089e-016 0 -1
    outer loop
      vertex 8.02587 -12.003 8.5269e-015
      vertex 2.65974 -19.5156 6.14386e-015
      vertex 6.25 -13.2933 7.73825e-015
    endloop
  endfacet
  facet normal 4.44089e-016 0 -1
    outer loop
      vertex 16.1135 -0.99816 1.21185e-014
      vertex 5.80886 -18.8463 7.54235e-015
      vertex 9.49468 -10.3717 9.17918e-015
    endloop
  endfacet
  facet normal 4.44089e-016 0 -1
    outer loop
      vertex 10.5922 -8.47073 9.66659e-015
      vertex 16.1135 -0.99816 1.21185e-014
      vertex 9.49468 -10.3717 9.17918e-015
    endloop
  endfacet
  facet normal 4.44089e-016 0 -1
    outer loop
      vertex 11.2706 -6.38307 9.96783e-015
      vertex 16.1135 -0.99816 1.21185e-014
      vertex 10.5922 -8.47073 9.66659e-015
    endloop
  endfacet
  facet normal 4.44089e-016 0 -1
    outer loop
      vertex 11.5 -4.2 1.00697e-014
      vertex 12.25 -3.7 1.04028e-014
      vertex 11.2706 -6.38307 9.96783e-015
    endloop
  endfacet
  facet normal 4.44089e-016 0 -1
    outer loop
      vertex 12.25 -3.7 1.04028e-014
      vertex 16.1135 -0.99816 1.21185e-014
      vertex 11.2706 -6.38307 9.96783e-015
    endloop
  endfacet
  facet normal 4.44089e-016 0 -1
    outer loop
      vertex 12.25 -3.7 1.04028e-014
      vertex 11.5 -4.2 1.00697e-014
      vertex 11.4474 -3.7 1.00464e-014
    endloop
  endfacet
  facet normal 4.44089e-016 0 -1
    outer loop
      vertex 12.25 0 1.04028e-014
      vertex 16.1135 -0.99816 1.21185e-014
      vertex 12.25 -3.7 1.04028e-014
    endloop
  endfacet
  facet normal 4.44089e-016 0 -1
    outer loop
      vertex -9.15 -1.64591 8.99281e-016
      vertex -14.0135 -0.99816 -1.26054e-015
      vertex -13.0186 2.06374 -8.18723e-016
    endloop
  endfacet
  facet normal 4.44089e-016 0 -1
    outer loop
      vertex -9.15 -1.64591 8.99281e-016
      vertex -13.0186 2.06374 -8.18723e-016
      vertex -11.4089 4.85189 -1.03856e-016
    endloop
  endfacet
  facet normal 4.44089e-016 0 -1
    outer loop
      vertex -9.15 -1.64591 8.99281e-016
      vertex -11.4089 4.85189 -1.03856e-016
      vertex -9.25461 7.24443 8.52824e-016
    endloop
  endfacet
  facet normal 4.44089e-016 0 -1
    outer loop
      vertex -9.15 -1.64591 8.99281e-016
      vertex -9.25461 7.24443 8.52824e-016
      vertex -9.15 7.32043 8.99281e-016
    endloop
  endfacet
  facet normal 4.44089e-016 0 -1
    outer loop
      vertex 15.7892 0 1.19745e-014
      vertex 16.1135 -0.99816 1.21185e-014
      vertex 12.25 0 1.04028e-014
    endloop
  endfacet
  facet normal 0.994522 -0.104528 4.41656e-016
    outer loop
      vertex 16.45 -4.2 3.10061
      vertex 16.1135 -7.40184 3.43714
      vertex 16.1135 -7.40184 1.21185e-014
    endloop
  endfacet
  facet normal 0.994522 -0.104528 4.41656e-016
    outer loop
      vertex 16.45 -4.2 1.2268e-014
      vertex 16.45 -4.2 3.10061
      vertex 16.1135 -7.40184 1.21185e-014
    endloop
  endfacet
  facet normal 0.707107 1.57009e-016 0.707107
    outer loop
      vertex 16.1135 -7.40184 3.43714
      vertex 16.45 -4.2 3.10061
      vertex 16.1137 -1 3.43694
    endloop
  endfacet
  facet normal 0.707107 1.57009e-016 0.707107
    outer loop
      vertex 15.3756 -9.67275 4.175
      vertex 16.1135 -7.40184 3.43714
      vertex 15.3756 -1 4.175
    endloop
  endfacet
  facet normal 0.707107 1.57009e-016 0.707107
    outer loop
      vertex 15.3756 -1 4.175
      vertex 16.1135 -7.40184 3.43714
      vertex 16.1137 -1 3.43694
    endloop
  endfacet
  facet normal 2.22045e-016 -1 4.93038e-032
    outer loop
      vertex 16.1137 -1 3.43694
      vertex 16.1137 -1 8.46306
      vertex 15.3756 -1 7.725
    endloop
  endfacet
  facet normal 2.22045e-016 -1 4.93038e-032
    outer loop
      vertex 15.3756 -1 4.175
      vertex 16.1137 -1 3.43694
      vertex 14.9 -1 5.95
    endloop
  endfacet
  facet normal 2.22045e-016 -1 4.93038e-032
    outer loop
      vertex 14.9 -1 5.95
      vertex 16.1137 -1 3.43694
      vertex 15.3756 -1 7.725
    endloop
  endfacet
  facet normal 0.707107 1.57009e-016 -0.707107
    outer loop
      vertex 16.1135 -7.40184 8.46286
      vertex 15.3756 -9.67275 7.725
      vertex 15.3756 -1 7.725
    endloop
  endfacet
  facet normal 0.707107 1.57009e-016 -0.707107
    outer loop
      vertex 16.45 -4.2 8.79939
      vertex 16.1135 -7.40184 8.46286
      vertex 16.1137 -1 8.46306
    endloop
  endfacet
  facet normal 0.707107 1.57009e-016 -0.707107
    outer loop
      vertex 16.1137 -1 8.46306
      vertex 16.1135 -7.40184 8.46286
      vertex 15.3756 -1 7.725
    endloop
  endfacet
  facet normal 0.965926 2.14479e-016 -0.258819
    outer loop
      vertex 15.1186 -10.4637 6.76583
      vertex 14.9 -10.8424 5.95
      vertex 14.9 -1 5.95
    endloop
  endfacet
  facet normal 0.965926 2.14479e-016 -0.258819
    outer loop
      vertex 15.3756 -9.67275 7.725
      vertex 15.1186 -10.4637 6.76583
      vertex 15.3756 -1 7.725
    endloop
  endfacet
  facet normal 0.965926 2.14479e-016 -0.258819
    outer loop
      vertex 15.3756 -1 7.725
      vertex 15.1186 -10.4637 6.76583
      vertex 14.9 -1 5.95
    endloop
  endfacet
  facet normal 0.965926 2.14479e-016 0.258819
    outer loop
      vertex 15.1186 -10.4637 5.13417
      vertex 15.3756 -9.67275 4.175
      vertex 15.3756 -1 4.175
    endloop
  endfacet
  facet normal 0.965926 2.14479e-016 0.258819
    outer loop
      vertex 14.9 -10.8424 5.95
      vertex 15.1186 -10.4637 5.13417
      vertex 14.9 -1 5.95
    endloop
  endfacet
  facet normal 0.965926 2.14479e-016 0.258819
    outer loop
      vertex 14.9 -1 5.95
      vertex 15.1186 -10.4637 5.13417
      vertex 15.3756 -1 4.175
    endloop
  endfacet
  facet normal 0.951057 -0.309017 4.22354e-016
    outer loop
      vertex 15.3756 -9.67275 4.175
      vertex 15.1186 -10.4637 5.13417
      vertex 15.1186 -10.4637 1.16767e-014
    endloop
  endfacet
  facet normal 0.951057 -0.309017 4.22354e-016
    outer loop
      vertex 16.1135 -7.40184 3.43714
      vertex 15.3756 -9.67275 4.175
      vertex 16.1135 -7.40184 1.21185e-014
    endloop
  endfacet
  facet normal 0.951057 -0.309017 4.22354e-016
    outer loop
      vertex 16.1135 -7.40184 1.21185e-014
      vertex 15.3756 -9.67275 4.175
      vertex 15.1186 -10.4637 1.16767e-014
    endloop
  endfacet
  facet normal -0.951057 0.309017 -4.22354e-016
    outer loop
      vertex -14.0135 -0.99816 2.08423e-015
      vertex -13.0186 2.06374 2.30513e-015
      vertex -14.0135 -0.99816 -1.26054e-015
    endloop
  endfacet
  facet normal -0.951057 0.309017 -4.22354e-016
    outer loop
      vertex -14.0135 -0.99816 -1.26054e-015
      vertex -13.0186 2.06374 2.30513e-015
      vertex -13.0186 2.06374 -8.18723e-016
    endloop
  endfacet
  facet normal 2.22045e-016 0 -1
    outer loop
      vertex -14.35 -3.7 2.0095e-015
      vertex -14.35 0 2.0095e-015
      vertex -14.2974 -3.7 2.02117e-015
    endloop
  endfacet
  facet normal 2.22045e-016 0 -1
    outer loop
      vertex -14.4 12.6 1.9984e-015
      vertex -14.35 0 2.0095e-015
      vertex -14.4 0 1.9984e-015
    endloop
  endfacet
  facet normal 2.22045e-016 0 -1
    outer loop
      vertex -14.2974 -3.7 2.02117e-015
      vertex -14.35 0 2.0095e-015
      vertex -14.4 12.6 1.9984e-015
    endloop
  endfacet
  facet normal 2.22045e-016 0 -1
    outer loop
      vertex -9.15 8.4 3.16414e-015
      vertex -14.4 12.6 1.9984e-015
      vertex -2.8 12.6 4.57412e-015
    endloop
  endfacet
  facet normal 2.22045e-016 0 -1
    outer loop
      vertex -11.4089 4.85189 2.66257e-015
      vertex -14.4 12.6 1.9984e-015
      vertex -9.15 8.4 3.16414e-015
    endloop
  endfacet
  facet normal 2.22045e-016 0 -1
    outer loop
      vertex -11.4089 4.85189 2.66257e-015
      vertex -9.15 8.4 3.16414e-015
      vertex -9.25461 7.24443 3.14091e-015
    endloop
  endfacet
  facet normal 2.22045e-016 0 -1
    outer loop
      vertex -9.25461 7.24443 3.14091e-015
      vertex -9.15 8.4 3.16414e-015
      vertex -9.15 7.32043 3.16414e-015
    endloop
  endfacet
  facet normal 2.22045e-016 0 -1
    outer loop
      vertex -13.0186 2.06374 2.30513e-015
      vertex -14.4 12.6 1.9984e-015
      vertex -11.4089 4.85189 2.66257e-015
    endloop
  endfacet
  facet normal 2.22045e-016 0 -1
    outer loop
      vertex -14.0135 -0.99816 2.08423e-015
      vertex -14.4 12.6 1.9984e-015
      vertex -13.0186 2.06374 2.30513e-015
    endloop
  endfacet
  facet normal 2.22045e-016 0 -1
    outer loop
      vertex -14.2974 -3.7 2.02117e-015
      vertex -14.4 12.6 1.9984e-015
      vertex -14.0135 -0.99816 2.08423e-015
    endloop
  endfacet
  facet normal 2.22045e-016 0 -1
    outer loop
      vertex -9.15 8.4 3.16414e-015
      vertex -2.8 12.6 4.57412e-015
      vertex -2.8 8.4 4.57412e-015
    endloop
  endfacet
  facet normal -2.22045e-016 0 1
    outer loop
      vertex -14.35 0 11.6
      vertex -14.35 -3.7 11.6
      vertex -9.44745 -3.7 11.6
    endloop
  endfacet
  facet normal -2.22045e-016 0 1
    outer loop
      vertex -9.15 -1.64591 11.6
      vertex -14.35 0 11.6
      vertex -9.27055 -2.01693 11.6
    endloop
  endfacet
  facet normal -2.22045e-016 0 1
    outer loop
      vertex -9.27055 -2.01693 11.6
      vertex -14.35 0 11.6
      vertex -9.44745 -3.7 11.6
    endloop
  endfacet
  facet normal -2.22045e-016 0 1
    outer loop
      vertex -9.15 8.4 11.6
      vertex -14.35 0 11.6
      vertex -9.15 -1.64591 11.6
    endloop
  endfacet
  facet normal -2.22045e-016 0 1
    outer loop
      vertex -14.4 12.6 11.6
      vertex -14.35 0 11.6
      vertex -9.15 8.4 11.6
    endloop
  endfacet
  facet normal -2.22045e-016 0 1
    outer loop
      vertex -2.8 12.6 11.6
      vertex -9.15 8.4 11.6
      vertex -2.8 8.4 11.6
    endloop
  endfacet
  facet normal -2.22045e-016 0 1
    outer loop
      vertex -14.4 12.6 11.6
      vertex -9.15 8.4 11.6
      vertex -2.8 12.6 11.6
    endloop
  endfacet
  facet normal -2.22045e-016 0 1
    outer loop
      vertex -14.4 0 11.6
      vertex -14.35 0 11.6
      vertex -14.4 12.6 11.6
    endloop
  endfacet
  facet normal -1 0 -2.22045e-016
    outer loop
      vertex -14.35 -3.7 11.6
      vertex -14.35 0 11.6
      vertex -14.35 -3.7 2.0095e-015
    endloop
  endfacet
  facet normal -1 0 -2.22045e-016
    outer loop
      vertex -14.35 -3.7 2.0095e-015
      vertex -14.35 0 11.6
      vertex -14.35 0 2.0095e-015
    endloop
  endfacet
  facet normal 0.951056 -0.309017 4.22354e-016
    outer loop
      vertex -9.27055 -2.01693 8.45746e-016
      vertex -9.15 -1.64591 8.99281e-016
      vertex -9.15 -1.64591 11.6
    endloop
  endfacet
  facet normal 0.951056 -0.309017 4.22354e-016
    outer loop
      vertex -9.27055 -2.01693 11.6
      vertex -9.27055 -2.01693 8.45746e-016
      vertex -9.15 -1.64591 11.6
    endloop
  endfacet
  facet normal 0.994522 0.104528 4.41656e-016
    outer loop
      vertex -9.27055 -6.38307 8.45746e-016
      vertex -9.5 -4.2 7.43849e-016
      vertex -9.5 -4.2 2.1
    endloop
  endfacet
  facet normal 0.994522 0.104528 4.41656e-016
    outer loop
      vertex -9.27055 -6.38307 2.1
      vertex -9.27055 -6.38307 8.45746e-016
      vertex -9.5 -4.2 2.1
    endloop
  endfacet
  facet normal -4.44089e-016 0 1
    outer loop
      vertex 10.5922 -8.47073 2.1
      vertex 8.49426 -15.3232 2.1
      vertex 11.9553 -4.67139 2.1
    endloop
  endfacet
  facet normal -4.44089e-016 0 1
    outer loop
      vertex 11.9553 -4.67139 2.1
      vertex 11.3556 -2.82571 2.1
      vertex 11.5 -4.2 2.1
    endloop
  endfacet
  facet normal -4.44089e-016 0 1
    outer loop
      vertex 9.49468 -10.3717 2.1
      vertex 6.6 -16.6995 2.1
      vertex 10.5922 -8.47073 2.1
    endloop
  endfacet
  facet normal -4.44089e-016 0 1
    outer loop
      vertex 11.2706 -6.38307 2.1
      vertex 11.9553 -4.67139 2.1
      vertex 11.5 -4.2 2.1
    endloop
  endfacet
  facet normal -4.44089e-016 0 1
    outer loop
      vertex 11.2706 -6.38307 2.1
      vertex 10.5922 -8.47073 2.1
      vertex 11.9553 -4.67139 2.1
    endloop
  endfacet
  facet normal -4.44089e-016 0 1
    outer loop
      vertex 8.02587 -12.003 2.1
      vertex 4.46099 -17.6518 2.1
      vertex 9.49468 -10.3717 2.1
    endloop
  endfacet
  facet normal -4.44089e-016 0 1
    outer loop
      vertex 6.25 -13.2933 2.1
      vertex -0.170719 -18.1386 2.1
      vertex 8.02587 -12.003 2.1
    endloop
  endfacet
  facet normal -4.44089e-016 0 1
    outer loop
      vertex 4.24468 -14.1861 2.1
      vertex -2.46099 -17.6518 2.1
      vertex 6.25 -13.2933 2.1
    endloop
  endfacet
  facet normal -4.44089e-016 0 1
    outer loop
      vertex 2.09755 -14.6425 2.1
      vertex -4.6 -16.6995 2.1
      vertex 4.24468 -14.1861 2.1
    endloop
  endfacet
  facet normal -4.44089e-016 0 1
    outer loop
      vertex -0.097549 -14.6425 2.1
      vertex -6.49426 -15.3232 2.1
      vertex 2.09755 -14.6425 2.1
    endloop
  endfacet
  facet normal -4.44089e-016 0 1
    outer loop
      vertex -2.24468 -14.1861 2.1
      vertex -8.06099 -13.5832 2.1
      vertex -0.097549 -14.6425 2.1
    endloop
  endfacet
  facet normal -4.44089e-016 0 1
    outer loop
      vertex -4.25 -13.2933 2.1
      vertex -9.23171 -11.5554 2.1
      vertex -2.24468 -14.1861 2.1
    endloop
  endfacet
  facet normal -4.44089e-016 0 1
    outer loop
      vertex -6.02587 -12.003 2.1
      vertex -9.95525 -9.32861 2.1
      vertex -4.25 -13.2933 2.1
    endloop
  endfacet
  facet normal -4.44089e-016 0 1
    outer loop
      vertex -7.49468 -10.3717 2.1
      vertex -9.95525 -9.32861 2.1
      vertex -6.02587 -12.003 2.1
    endloop
  endfacet
  facet normal -4.44089e-016 0 1
    outer loop
      vertex -8.59223 -8.47073 2.1
      vertex -10.2 -7 2.1
      vertex -7.49468 -10.3717 2.1
    endloop
  endfacet
  facet normal -4.44089e-016 0 1
    outer loop
      vertex -9.27055 -6.38307 2.1
      vertex -9.95525 -4.67139 2.1
      vertex -8.59223 -8.47073 2.1
    endloop
  endfacet
  facet normal -4.44089e-016 0 1
    outer loop
      vertex -9.5 -4.2 2.1
      vertex -9.95525 -4.67139 2.1
      vertex -9.27055 -6.38307 2.1
    endloop
  endfacet
  facet normal -4.44089e-016 0 1
    outer loop
      vertex -9.35556 -2.82571 2.1
      vertex -9.95525 -4.67139 2.1
      vertex -9.5 -4.2 2.1
    endloop
  endfacet
  facet normal -4.44089e-016 0 1
    outer loop
      vertex -9.95525 -4.67139 2.1
      vertex -10.2 -7 2.1
      vertex -8.59223 -8.47073 2.1
    endloop
  endfacet
  facet normal -4.44089e-016 0 1
    outer loop
      vertex -10.2 -7 2.1
      vertex -9.95525 -9.32861 2.1
      vertex -7.49468 -10.3717 2.1
    endloop
  endfacet
  facet normal -4.44089e-016 0 1
    outer loop
      vertex -9.95525 -9.32861 2.1
      vertex -9.23171 -11.5554 2.1
      vertex -4.25 -13.2933 2.1
    endloop
  endfacet
  facet normal -4.44089e-016 0 1
    outer loop
      vertex -9.23171 -11.5554 2.1
      vertex -8.06099 -13.5832 2.1
      vertex -2.24468 -14.1861 2.1
    endloop
  endfacet
  facet normal -4.44089e-016 0 1
    outer loop
      vertex -8.06099 -13.5832 2.1
      vertex -6.49426 -15.3232 2.1
      vertex -0.097549 -14.6425 2.1
    endloop
  endfacet
  facet normal -4.44089e-016 0 1
    outer loop
      vertex -6.49426 -15.3232 2.1
      vertex -4.6 -16.6995 2.1
      vertex 2.09755 -14.6425 2.1
    endloop
  endfacet
  facet normal -4.44089e-016 0 1
    outer loop
      vertex -4.6 -16.6995 2.1
      vertex -2.46099 -17.6518 2.1
      vertex 4.24468 -14.1861 2.1
    endloop
  endfacet
  facet normal -4.44089e-016 0 1
    outer loop
      vertex -2.46099 -17.6518 2.1
      vertex -0.170719 -18.1386 2.1
      vertex 6.25 -13.2933 2.1
    endloop
  endfacet
  facet normal -4.44089e-016 0 1
    outer loop
      vertex -0.170719 -18.1386 2.1
      vertex 2.17072 -18.1386 2.1
      vertex 8.02587 -12.003 2.1
    endloop
  endfacet
  facet normal -4.44089e-016 0 1
    outer loop
      vertex 2.17072 -18.1386 2.1
      vertex 4.46099 -17.6518 2.1
      vertex 8.02587 -12.003 2.1
    endloop
  endfacet
  facet normal -4.44089e-016 0 1
    outer loop
      vertex 4.46099 -17.6518 2.1
      vertex 6.6 -16.6995 2.1
      vertex 9.49468 -10.3717 2.1
    endloop
  endfacet
  facet normal -4.44089e-016 0 1
    outer loop
      vertex 6.6 -16.6995 2.1
      vertex 8.49426 -15.3232 2.1
      vertex 10.5922 -8.47073 2.1
    endloop
  endfacet
  facet normal -4.44089e-016 0 1
    outer loop
      vertex 8.49426 -15.3232 2.1
      vertex 10.061 -13.5832 2.1
      vertex 11.9553 -4.67139 2.1
    endloop
  endfacet
  facet normal -4.44089e-016 0 1
    outer loop
      vertex 10.061 -13.5832 2.1
      vertex 11.2317 -11.5554 2.1
      vertex 11.9553 -4.67139 2.1
    endloop
  endfacet
  facet normal -4.44089e-016 0 1
    outer loop
      vertex 11.2317 -11.5554 2.1
      vertex 11.9553 -9.32861 2.1
      vertex 11.9553 -4.67139 2.1
    endloop
  endfacet
  facet normal -4.44089e-016 0 1
    outer loop
      vertex 11.9553 -9.32861 2.1
      vertex 12.2 -7 2.1
      vertex 11.9553 -4.67139 2.1
    endloop
  endfacet
  facet normal 0.951056 -0.309017 4.22354e-016
    outer loop
      vertex -9.95525 -4.67139 9.5
      vertex -9.95525 -4.67139 2.1
      vertex -9.35556 -2.82571 2.1
    endloop
  endfacet
  facet normal 0.951056 -0.309017 4.22354e-016
    outer loop
      vertex -9.35556 -2.82571 9.5
      vertex -9.95525 -4.67139 9.5
      vertex -9.35556 -2.82571 2.1
    endloop
  endfacet
  facet normal 4.44089e-016 0 -1
    outer loop
      vertex 11.2317 -11.5554 9.5
      vertex 10.061 -13.5832 9.5
      vertex 11.9553 -9.32861 9.5
    endloop
  endfacet
  facet normal 4.44089e-016 0 -1
    outer loop
      vertex 11.9553 -9.32861 9.5
      vertex 10.061 -13.5832 9.5
      vertex 8.49426 -15.3232 9.5
    endloop
  endfacet
  facet normal 4.44089e-016 0 -1
    outer loop
      vertex 11.9553 -9.32861 9.5
      vertex 8.49426 -15.3232 9.5
      vertex 6.6 -16.6995 9.5
    endloop
  endfacet
  facet normal 4.44089e-016 0 -1
    outer loop
      vertex 11.9553 -9.32861 9.5
      vertex 6.6 -16.6995 9.5
      vertex 4.46099 -17.6518 9.5
    endloop
  endfacet
  facet normal 4.44089e-016 0 -1
    outer loop
      vertex 11.9553 -9.32861 9.5
      vertex 4.46099 -17.6518 9.5
      vertex 2.17072 -18.1386 9.5
    endloop
  endfacet
  facet normal 4.44089e-016 0 -1
    outer loop
      vertex 11.9553 -9.32861 9.5
      vertex 2.17072 -18.1386 9.5
      vertex -0.170719 -18.1386 9.5
    endloop
  endfacet
  facet normal 4.44089e-016 0 -1
    outer loop
      vertex 4.24468 -14.1861 9.5
      vertex -0.170719 -18.1386 9.5
      vertex -2.46099 -17.6518 9.5
    endloop
  endfacet
  facet normal 4.44089e-016 0 -1
    outer loop
      vertex 2.09755 -14.6425 9.5
      vertex -2.46099 -17.6518 9.5
      vertex -4.6 -16.6995 9.5
    endloop
  endfacet
  facet normal 4.44089e-016 0 -1
    outer loop
      vertex -2.24468 -14.1861 9.5
      vertex -4.6 -16.6995 9.5
      vertex -6.49426 -15.3232 9.5
    endloop
  endfacet
  facet normal 4.44089e-016 0 -1
    outer loop
      vertex -4.25 -13.2933 9.5
      vertex -6.49426 -15.3232 9.5
      vertex -8.06099 -13.5832 9.5
    endloop
  endfacet
  facet normal 4.44089e-016 0 -1
    outer loop
      vertex -6.02587 -12.003 9.5
      vertex -8.06099 -13.5832 9.5
      vertex -9.23171 -11.5554 9.5
    endloop
  endfacet
  facet normal 4.44089e-016 0 -1
    outer loop
      vertex -7.49468 -10.3717 9.5
      vertex -9.23171 -11.5554 9.5
      vertex -9.95525 -9.32861 9.5
    endloop
  endfacet
  facet normal 4.44089e-016 0 -1
    outer loop
      vertex -8.59223 -8.47073 9.5
      vertex -9.95525 -9.32861 9.5
      vertex -10.2 -7 9.5
    endloop
  endfacet
  facet normal 4.44089e-016 0 -1
    outer loop
      vertex -9.27055 -6.38307 9.5
      vertex -10.2 -7 9.5
      vertex -9.95525 -4.67139 9.5
    endloop
  endfacet
  facet normal 4.44089e-016 0 -1
    outer loop
      vertex -9.5 -4.2 9.5
      vertex -9.95525 -4.67139 9.5
      vertex -9.35556 -2.82571 9.5
    endloop
  endfacet
  facet normal 4.44089e-016 0 -1
    outer loop
      vertex -8.59223 -8.47073 9.5
      vertex -10.2 -7 9.5
      vertex -9.27055 -6.38307 9.5
    endloop
  endfacet
  facet normal 4.44089e-016 0 -1
    outer loop
      vertex -7.49468 -10.3717 9.5
      vertex -9.95525 -9.32861 9.5
      vertex -8.59223 -8.47073 9.5
    endloop
  endfacet
  facet normal 4.44089e-016 0 -1
    outer loop
      vertex -6.02587 -12.003 9.5
      vertex -9.23171 -11.5554 9.5
      vertex -7.49468 -10.3717 9.5
    endloop
  endfacet
  facet normal 4.44089e-016 0 -1
    outer loop
      vertex -4.25 -13.2933 9.5
      vertex -8.06099 -13.5832 9.5
      vertex -6.02587 -12.003 9.5
    endloop
  endfacet
  facet normal 4.44089e-016 0 -1
    outer loop
      vertex -2.24468 -14.1861 9.5
      vertex -6.49426 -15.3232 9.5
      vertex -4.25 -13.2933 9.5
    endloop
  endfacet
  facet normal 4.44089e-016 0 -1
    outer loop
      vertex -0.097549 -14.6425 9.5
      vertex -4.6 -16.6995 9.5
      vertex -2.24468 -14.1861 9.5
    endloop
  endfacet
  facet normal 4.44089e-016 0 -1
    outer loop
      vertex 2.09755 -14.6425 9.5
      vertex -4.6 -16.6995 9.5
      vertex -0.097549 -14.6425 9.5
    endloop
  endfacet
  facet normal 4.44089e-016 0 -1
    outer loop
      vertex 4.24468 -14.1861 9.5
      vertex -2.46099 -17.6518 9.5
      vertex 2.09755 -14.6425 9.5
    endloop
  endfacet
  facet normal 4.44089e-016 0 -1
    outer loop
      vertex 6.25 -13.2933 9.5
      vertex -0.170719 -18.1386 9.5
      vertex 4.24468 -14.1861 9.5
    endloop
  endfacet
  facet normal 4.44089e-016 0 -1
    outer loop
      vertex 9.49468 -10.3717 9.5
      vertex 11.9553 -9.32861 9.5
      vertex 8.02587 -12.003 9.5
    endloop
  endfacet
  facet normal 4.44089e-016 0 -1
    outer loop
      vertex 11.9553 -9.32861 9.5
      vertex -0.170719 -18.1386 9.5
      vertex 6.25 -13.2933 9.5
    endloop
  endfacet
  facet normal 4.44089e-016 0 -1
    outer loop
      vertex 11.9553 -9.32861 9.5
      vertex 6.25 -13.2933 9.5
      vertex 8.02587 -12.003 9.5
    endloop
  endfacet
  facet normal 4.44089e-016 0 -1
    outer loop
      vertex 10.5922 -8.47073 9.5
      vertex 11.9553 -9.32861 9.5
      vertex 9.49468 -10.3717 9.5
    endloop
  endfacet
  facet normal 4.44089e-016 0 -1
    outer loop
      vertex 11.9553 -9.32861 9.5
      vertex 10.5922 -8.47073 9.5
      vertex 11.2706 -6.38307 9.5
    endloop
  endfacet
  facet normal 4.44089e-016 0 -1
    outer loop
      vertex 11.2706 -6.38307 9.5
      vertex 11.5 -4.2 9.5
      vertex 11.9553 -9.32861 9.5
    endloop
  endfacet
  facet normal 4.44089e-016 0 -1
    outer loop
      vertex 11.5 -4.2 9.5
      vertex 11.3556 -2.82571 9.5
      vertex 11.9553 -4.67139 9.5
    endloop
  endfacet
  facet normal 4.44089e-016 0 -1
    outer loop
      vertex 11.5 -4.2 9.5
      vertex 11.9553 -4.67139 9.5
      vertex 11.9553 -9.32861 9.5
    endloop
  endfacet
  facet normal 4.44089e-016 0 -1
    outer loop
      vertex 11.9553 -9.32861 9.5
      vertex 11.9553 -4.67139 9.5
      vertex 12.2 -7 9.5
    endloop
  endfacet
  facet normal 4.44089e-016 0 -1
    outer loop
      vertex -9.27055 -6.38307 9.5
      vertex -9.95525 -4.67139 9.5
      vertex -9.5 -4.2 9.5
    endloop
  endfacet
  facet normal -0.951056 -0.309017 -4.22354e-016
    outer loop
      vertex 11.3556 -2.82571 2.1
      vertex 11.9553 -4.67139 2.1
      vertex 11.3556 -2.82571 9.5
    endloop
  endfacet
  facet normal -0.951056 -0.309017 -4.22354e-016
    outer loop
      vertex 11.3556 -2.82571 9.5
      vertex 11.9553 -4.67139 2.1
      vertex 11.9553 -4.67139 9.5
    endloop
  endfacet
  facet normal -0.994522 0.104528 -4.41656e-016
    outer loop
      vertex 11.2706 -6.38307 9.96783e-015
      vertex 11.2706 -6.38307 2.1
      vertex 11.5 -4.2 1.00697e-014
    endloop
  endfacet
  facet normal -0.994522 0.104528 -4.41656e-016
    outer loop
      vertex 11.5 -4.2 1.00697e-014
      vertex 11.2706 -6.38307 2.1
      vertex 11.5 -4.2 2.1
    endloop
  endfacet
  facet normal 0 -1 0
    outer loop
      vertex 12.25 -3.7 7.91589e-015
      vertex 12.25 -3.7 1.04028e-014
      vertex 11.4474 -3.7 1.00464e-014
    endloop
  endfacet
  facet normal 0 -1 0
    outer loop
      vertex 11.4474 -3.7 7.73769e-015
      vertex 12.25 -3.7 7.91589e-015
      vertex 11.4474 -3.7 1.00464e-014
    endloop
  endfacet
  facet normal 2.22045e-016 0 -1
    outer loop
      vertex 11.4474 -3.7 7.73769e-015
      vertex 11.2706 -2.01693 7.69841e-015
      vertex 12.25 -3.7 7.91589e-015
    endloop
  endfacet
  facet normal 2.22045e-016 0 -1
    outer loop
      vertex 12.25 -3.7 7.91589e-015
      vertex 11.2706 -2.01693 7.69841e-015
      vertex 11.2 -1.7998 7.68274e-015
    endloop
  endfacet
  facet normal 2.22045e-016 0 -1
    outer loop
      vertex 12.25 -3.7 7.91589e-015
      vertex 11.2 -1.7998 7.68274e-015
      vertex 11.2 3.7 7.68274e-015
    endloop
  endfacet
  facet normal 2.22045e-016 0 -1
    outer loop
      vertex 12.25 0 7.91589e-015
      vertex 11.2 3.7 7.68274e-015
      vertex 22.6 3.7 1.02141e-014
    endloop
  endfacet
  facet normal 2.22045e-016 0 -1
    outer loop
      vertex 12.25 -3.7 7.91589e-015
      vertex 11.2 3.7 7.68274e-015
      vertex 12.25 0 7.91589e-015
    endloop
  endfacet
  facet normal 2.22045e-016 0 -1
    outer loop
      vertex 12.25 0 7.91589e-015
      vertex 22.6 3.7 1.02141e-014
      vertex 22.6 0 1.02141e-014
    endloop
  endfacet
  facet normal -2.22045e-016 0 1
    outer loop
      vertex 15.1186 2.06374 11.6
      vertex 15.7892 0 11.6
      vertex 22.6 0 11.6
    endloop
  endfacet
  facet normal -2.22045e-016 0 1
    outer loop
      vertex 14.1739 3.7 11.6
      vertex 15.1186 2.06374 11.6
      vertex 22.6 3.7 11.6
    endloop
  endfacet
  facet normal -2.22045e-016 0 1
    outer loop
      vertex 22.6 3.7 11.6
      vertex 15.1186 2.06374 11.6
      vertex 22.6 0 11.6
    endloop
  endfacet
  facet normal 1 0 2.22045e-016
    outer loop
      vertex 22.6 3.7 11.6
      vertex 22.6 0 11.6
      vertex 22.6 0 1.02141e-014
    endloop
  endfacet
  facet normal 1 0 2.22045e-016
    outer loop
      vertex 22.6 3.7 1.02141e-014
      vertex 22.6 3.7 11.6
      vertex 22.6 0 1.02141e-014
    endloop
  endfacet
  facet normal 2.22045e-016 0 -1
    outer loop
      vertex 19.3178 3.7 7.75194
      vertex 19.3178 0 7.75194
      vertex 17.5822 3.7 7.75194
    endloop
  endfacet
  facet normal 2.22045e-016 0 -1
    outer loop
      vertex 17.5822 3.7 7.75194
      vertex 19.3178 0 7.75194
      vertex 17.5822 0 7.75194
    endloop
  endfacet
  facet normal 0.781831 1.73601e-016 -0.62349
    outer loop
      vertex 16.5001 0 6.39504
      vertex 16.5001 3.7 6.39504
      vertex 17.5822 3.7 7.75194
    endloop
  endfacet
  facet normal 0.781831 1.73601e-016 -0.62349
    outer loop
      vertex 17.5822 0 7.75194
      vertex 16.5001 0 6.39504
      vertex 17.5822 3.7 7.75194
    endloop
  endfacet
  facet normal -0.781831 -1.73601e-016 -0.62349
    outer loop
      vertex 20.3999 3.7 6.39504
      vertex 20.3999 0 6.39504
      vertex 19.3178 3.7 7.75194
    endloop
  endfacet
  facet normal -0.781831 -1.73601e-016 -0.62349
    outer loop
      vertex 19.3178 3.7 7.75194
      vertex 20.3999 0 6.39504
      vertex 19.3178 0 7.75194
    endloop
  endfacet
  facet normal -0.974928 -2.16477e-016 0.222521
    outer loop
      vertex 20.0137 3.7 4.70302
      vertex 20.0137 0 4.70302
      vertex 20.3999 3.7 6.39504
    endloop
  endfacet
  facet normal -0.974928 -2.16477e-016 0.222521
    outer loop
      vertex 20.3999 3.7 6.39504
      vertex 20.0137 0 4.70302
      vertex 20.3999 0 6.39504
    endloop
  endfacet
  facet normal -0.433884 -9.63415e-017 0.900969
    outer loop
      vertex 20.0137 3.7 4.70302
      vertex 18.45 3.7 3.95
      vertex 18.45 0 3.95
    endloop
  endfacet
  facet normal -0.433884 -9.63415e-017 0.900969
    outer loop
      vertex 20.0137 0 4.70302
      vertex 20.0137 3.7 4.70302
      vertex 18.45 0 3.95
    endloop
  endfacet
  facet normal 0.433884 9.63415e-017 0.900969
    outer loop
      vertex 18.45 0 3.95
      vertex 18.45 3.7 3.95
      vertex 16.8863 3.7 4.70302
    endloop
  endfacet
  facet normal 0.433884 9.63415e-017 0.900969
    outer loop
      vertex 16.8863 0 4.70302
      vertex 18.45 0 3.95
      vertex 16.8863 3.7 4.70302
    endloop
  endfacet
  facet normal 0.974928 2.16477e-016 0.222521
    outer loop
      vertex 16.8863 0 4.70302
      vertex 16.8863 3.7 4.70302
      vertex 16.5001 3.7 6.39504
    endloop
  endfacet
  facet normal 0.974928 2.16477e-016 0.222521
    outer loop
      vertex 16.5001 0 6.39504
      vertex 16.8863 0 4.70302
      vertex 16.5001 3.7 6.39504
    endloop
  endfacet
  facet normal 0 -1 0
    outer loop
      vertex 16.5001 0 6.39504
      vertex 15.7892 0 11.6
      vertex 15.7892 0 1.19745e-014
    endloop
  endfacet
  facet normal 0 -1 0
    outer loop
      vertex 20.0137 0 4.70302
      vertex 18.45 0 3.95
      vertex 15.7892 0 1.19745e-014
    endloop
  endfacet
  facet normal 0 -1 0
    outer loop
      vertex 12.25 0 1.04028e-014
      vertex 12.25 0 7.91589e-015
      vertex 15.7892 0 1.19745e-014
    endloop
  endfacet
  facet normal 0 -1 0
    outer loop
      vertex 12.25 0 7.91589e-015
      vertex 22.6 0 1.02141e-014
      vertex 15.7892 0 1.19745e-014
    endloop
  endfacet
  facet normal 0 -1 0
    outer loop
      vertex 22.6 0 11.6
      vertex 15.7892 0 11.6
      vertex 17.5822 0 7.75194
    endloop
  endfacet
  facet normal 0 -1 0
    outer loop
      vertex 22.6 0 11.6
      vertex 17.5822 0 7.75194
      vertex 19.3178 0 7.75194
    endloop
  endfacet
  facet normal 0 -1 0
    outer loop
      vertex 18.45 0 3.95
      vertex 16.8863 0 4.70302
      vertex 15.7892 0 1.19745e-014
    endloop
  endfacet
  facet normal 0 -1 0
    outer loop
      vertex 22.6 0 1.02141e-014
      vertex 22.6 0 11.6
      vertex 20.3999 0 6.39504
    endloop
  endfacet
  facet normal 0 -1 0
    outer loop
      vertex 22.6 0 1.02141e-014
      vertex 20.0137 0 4.70302
      vertex 15.7892 0 1.19745e-014
    endloop
  endfacet
  facet normal 0 -1 0
    outer loop
      vertex 22.6 0 1.02141e-014
      vertex 20.3999 0 6.39504
      vertex 20.0137 0 4.70302
    endloop
  endfacet
  facet normal 0 -1 0
    outer loop
      vertex 17.5822 0 7.75194
      vertex 15.7892 0 11.6
      vertex 16.5001 0 6.39504
    endloop
  endfacet
  facet normal 0 -1 0
    outer loop
      vertex 16.8863 0 4.70302
      vertex 16.5001 0 6.39504
      vertex 15.7892 0 1.19745e-014
    endloop
  endfacet
  facet normal 0 -1 0
    outer loop
      vertex 19.3178 0 7.75194
      vertex 20.3999 0 6.39504
      vertex 22.6 0 11.6
    endloop
  endfacet
  facet normal 1 0 2.22045e-016
    outer loop
      vertex 12.25 0 1.04028e-014
      vertex 12.25 -3.7 1.04028e-014
      vertex 12.25 -3.7 7.91589e-015
    endloop
  endfacet
  facet normal 1 0 2.22045e-016
    outer loop
      vertex 12.25 0 7.91589e-015
      vertex 12.25 0 1.04028e-014
      vertex 12.25 -3.7 7.91589e-015
    endloop
  endfacet
  facet normal -0.951056 0.309017 -4.22354e-016
    outer loop
      vertex 10.5922 -8.47073 9.66659e-015
      vertex 10.5922 -8.47073 2.1
      vertex 11.2706 -6.38307 9.96783e-015
    endloop
  endfacet
  facet normal -0.951056 0.309017 -4.22354e-016
    outer loop
      vertex 11.2706 -6.38307 9.96783e-015
      vertex 10.5922 -8.47073 2.1
      vertex 11.2706 -6.38307 2.1
    endloop
  endfacet
  facet normal -0.866025 0.5 -3.84593e-016
    outer loop
      vertex 9.49468 -10.3717 9.17918e-015
      vertex 9.49468 -10.3717 2.1
      vertex 10.5922 -8.47073 9.66659e-015
    endloop
  endfacet
  facet normal -0.866025 0.5 -3.84593e-016
    outer loop
      vertex 10.5922 -8.47073 9.66659e-015
      vertex 9.49468 -10.3717 2.1
      vertex 10.5922 -8.47073 2.1
    endloop
  endfacet
  facet normal -0.743145 0.66913 -3.30023e-016
    outer loop
      vertex 8.02587 -12.003 8.5269e-015
      vertex 8.02587 -12.003 2.1
      vertex 9.49468 -10.3717 9.17918e-015
    endloop
  endfacet
  facet normal -0.743145 0.66913 -3.30023e-016
    outer loop
      vertex 9.49468 -10.3717 9.17918e-015
      vertex 8.02587 -12.003 2.1
      vertex 9.49468 -10.3717 2.1
    endloop
  endfacet
  facet normal -0.587785 0.809017 -2.61029e-016
    outer loop
      vertex 6.25 -13.2933 7.73825e-015
      vertex 6.25 -13.2933 2.1
      vertex 8.02587 -12.003 8.5269e-015
    endloop
  endfacet
  facet normal -0.587785 0.809017 -2.61029e-016
    outer loop
      vertex 8.02587 -12.003 8.5269e-015
      vertex 6.25 -13.2933 2.1
      vertex 8.02587 -12.003 2.1
    endloop
  endfacet
  facet normal -0.406736 0.913546 -1.80627e-016
    outer loop
      vertex 4.24468 -14.1861 6.84771e-015
      vertex 4.24468 -14.1861 2.1
      vertex 6.25 -13.2933 7.73825e-015
    endloop
  endfacet
  facet normal -0.406736 0.913546 -1.80627e-016
    outer loop
      vertex 6.25 -13.2933 7.73825e-015
      vertex 4.24468 -14.1861 2.1
      vertex 6.25 -13.2933 2.1
    endloop
  endfacet
  facet normal -0.207912 0.978148 -9.23315e-017
    outer loop
      vertex 2.09755 -14.6425 5.8942e-015
      vertex 2.09755 -14.6425 2.1
      vertex 4.24468 -14.1861 6.84771e-015
    endloop
  endfacet
  facet normal -0.207912 0.978148 -9.23315e-017
    outer loop
      vertex 4.24468 -14.1861 6.84771e-015
      vertex 2.09755 -14.6425 2.1
      vertex 4.24468 -14.1861 2.1
    endloop
  endfacet
  facet normal 0 1 0
    outer loop
      vertex -0.097549 -14.6425 4.91938e-015
      vertex -0.097549 -14.6425 2.1
      vertex 2.09755 -14.6425 5.8942e-015
    endloop
  endfacet
  facet normal 0 1 0
    outer loop
      vertex 2.09755 -14.6425 5.8942e-015
      vertex -0.097549 -14.6425 2.1
      vertex 2.09755 -14.6425 2.1
    endloop
  endfacet
  facet normal 0.207912 0.978148 9.23315e-017
    outer loop
      vertex -2.24468 -14.1861 3.96586e-015
      vertex -2.24468 -14.1861 2.1
      vertex -0.097549 -14.6425 4.91938e-015
    endloop
  endfacet
  facet normal 0.207912 0.978148 9.23315e-017
    outer loop
      vertex -0.097549 -14.6425 4.91938e-015
      vertex -2.24468 -14.1861 2.1
      vertex -0.097549 -14.6425 2.1
    endloop
  endfacet
  facet normal 0.406736 0.913546 1.80627e-016
    outer loop
      vertex -4.25 -13.2933 3.07532e-015
      vertex -4.25 -13.2933 2.1
      vertex -2.24468 -14.1861 3.96586e-015
    endloop
  endfacet
  facet normal 0.406736 0.913546 1.80627e-016
    outer loop
      vertex -2.24468 -14.1861 3.96586e-015
      vertex -4.25 -13.2933 2.1
      vertex -2.24468 -14.1861 2.1
    endloop
  endfacet
  facet normal 0.587785 0.809017 2.61029e-016
    outer loop
      vertex -6.02587 -12.003 2.28667e-015
      vertex -6.02587 -12.003 2.1
      vertex -4.25 -13.2933 3.07532e-015
    endloop
  endfacet
  facet normal 0.587785 0.809017 2.61029e-016
    outer loop
      vertex -4.25 -13.2933 3.07532e-015
      vertex -6.02587 -12.003 2.1
      vertex -4.25 -13.2933 2.1
    endloop
  endfacet
  facet normal 0.743145 0.66913 3.30023e-016
    outer loop
      vertex -6.02587 -12.003 2.28667e-015
      vertex -7.49468 -10.3717 1.63439e-015
      vertex -7.49468 -10.3717 2.1
    endloop
  endfacet
  facet normal 0.743145 0.66913 3.30023e-016
    outer loop
      vertex -6.02587 -12.003 2.1
      vertex -6.02587 -12.003 2.28667e-015
      vertex -7.49468 -10.3717 2.1
    endloop
  endfacet
  facet normal 0.866025 0.5 3.84593e-016
    outer loop
      vertex -7.49468 -10.3717 1.63439e-015
      vertex -8.59223 -8.47073 1.14698e-015
      vertex -8.59223 -8.47073 2.1
    endloop
  endfacet
  facet normal 0.866025 0.5 3.84593e-016
    outer loop
      vertex -7.49468 -10.3717 2.1
      vertex -7.49468 -10.3717 1.63439e-015
      vertex -8.59223 -8.47073 2.1
    endloop
  endfacet
  facet normal 0.951056 0.309017 4.22354e-016
    outer loop
      vertex -8.59223 -8.47073 1.14698e-015
      vertex -9.27055 -6.38307 8.45746e-016
      vertex -9.27055 -6.38307 2.1
    endloop
  endfacet
  facet normal 0.951056 0.309017 4.22354e-016
    outer loop
      vertex -8.59223 -8.47073 2.1
      vertex -8.59223 -8.47073 1.14698e-015
      vertex -9.27055 -6.38307 2.1
    endloop
  endfacet
  facet normal 1 0 2.22045e-016
    outer loop
      vertex -9.15 -1.64591 8.99281e-016
      vertex -9.15 7.32043 8.99281e-016
      vertex -9.15 7.32043 3.16414e-015
    endloop
  endfacet
  facet normal 1 0 2.22045e-016
    outer loop
      vertex -9.15 8.4 11.6
      vertex -9.15 -1.64591 8.99281e-016
      vertex -9.15 7.32043 3.16414e-015
    endloop
  endfacet
  facet normal 1 0 2.22045e-016
    outer loop
      vertex -9.15 8.4 3.16414e-015
      vertex -9.15 8.4 11.6
      vertex -9.15 7.32043 3.16414e-015
    endloop
  endfacet
  facet normal 1 0 2.22045e-016
    outer loop
      vertex -9.15 8.4 11.6
      vertex -9.15 -1.64591 11.6
      vertex -9.15 -1.64591 8.99281e-016
    endloop
  endfacet
  facet normal -0.587785 0.809017 -2.61029e-016
    outer loop
      vertex -9.25461 7.24443 3.14091e-015
      vertex -9.15 7.32043 3.16414e-015
      vertex -9.25461 7.24443 8.52824e-016
    endloop
  endfacet
  facet normal -0.587785 0.809017 -2.61029e-016
    outer loop
      vertex -9.25461 7.24443 8.52824e-016
      vertex -9.15 7.32043 3.16414e-015
      vertex -9.15 7.32043 8.99281e-016
    endloop
  endfacet
  facet normal -0.743145 0.669131 -3.30023e-016
    outer loop
      vertex -11.4089 4.85189 2.66257e-015
      vertex -9.25461 7.24443 3.14091e-015
      vertex -11.4089 4.85189 -1.03856e-016
    endloop
  endfacet
  facet normal -0.743145 0.669131 -3.30023e-016
    outer loop
      vertex -11.4089 4.85189 -1.03856e-016
      vertex -9.25461 7.24443 3.14091e-015
      vertex -9.25461 7.24443 8.52824e-016
    endloop
  endfacet
  facet normal -0.866025 0.5 -3.84593e-016
    outer loop
      vertex -13.0186 2.06374 2.30513e-015
      vertex -11.4089 4.85189 2.66257e-015
      vertex -13.0186 2.06374 -8.18723e-016
    endloop
  endfacet
  facet normal -0.866025 0.5 -3.84593e-016
    outer loop
      vertex -13.0186 2.06374 -8.18723e-016
      vertex -11.4089 4.85189 2.66257e-015
      vertex -11.4089 4.85189 -1.03856e-016
    endloop
  endfacet
  facet normal 0 -1 0
    outer loop
      vertex -2.8 8.4 11.6
      vertex -9.15 8.4 11.6
      vertex -9.15 8.4 3.16414e-015
    endloop
  endfacet
  facet normal 0 -1 0
    outer loop
      vertex -2.8 8.4 4.57412e-015
      vertex -2.8 8.4 11.6
      vertex -9.15 8.4 3.16414e-015
    endloop
  endfacet
  facet normal 1 0 2.22045e-016
    outer loop
      vertex -2.8 12.6 11.6
      vertex -2.8 8.4 11.6
      vertex -2.8 8.4 4.57412e-015
    endloop
  endfacet
  facet normal 1 0 2.22045e-016
    outer loop
      vertex -2.8 12.6 4.57412e-015
      vertex -2.8 12.6 11.6
      vertex -2.8 8.4 4.57412e-015
    endloop
  endfacet
  facet normal 0 1 0
    outer loop
      vertex -14.4 12.6 11.6
      vertex -2.8 12.6 11.6
      vertex -14.4 12.6 1.9984e-015
    endloop
  endfacet
  facet normal 0 1 0
    outer loop
      vertex -14.4 12.6 1.9984e-015
      vertex -2.8 12.6 11.6
      vertex -2.8 12.6 4.57412e-015
    endloop
  endfacet
  facet normal -1 0 -2.22045e-016
    outer loop
      vertex -14.4 0 11.6
      vertex -14.4 12.6 11.6
      vertex -14.4 0 1.9984e-015
    endloop
  endfacet
  facet normal -1 0 -2.22045e-016
    outer loop
      vertex -14.4 0 1.9984e-015
      vertex -14.4 12.6 11.6
      vertex -14.4 12.6 1.9984e-015
    endloop
  endfacet
  facet normal 0 -1 0
    outer loop
      vertex -14.35 0 11.6
      vertex -14.4 0 11.6
      vertex -14.4 0 1.9984e-015
    endloop
  endfacet
  facet normal 0 -1 0
    outer loop
      vertex -14.35 0 2.0095e-015
      vertex -14.35 0 11.6
      vertex -14.4 0 1.9984e-015
    endloop
  endfacet
  facet normal -0.994522 -0.104529 -4.41656e-016
    outer loop
      vertex 11.9553 -4.67139 2.1
      vertex 12.2 -7 2.1
      vertex 11.9553 -4.67139 9.5
    endloop
  endfacet
  facet normal -0.994522 -0.104529 -4.41656e-016
    outer loop
      vertex 11.9553 -4.67139 9.5
      vertex 12.2 -7 2.1
      vertex 12.2 -7 9.5
    endloop
  endfacet
  facet normal -0.994522 0.104529 -4.41656e-016
    outer loop
      vertex 11.9553 -9.32861 2.1
      vertex 11.9553 -9.32861 9.5
      vertex 12.2 -7 2.1
    endloop
  endfacet
  facet normal -0.994522 0.104529 -4.41656e-016
    outer loop
      vertex 12.2 -7 2.1
      vertex 11.9553 -9.32861 9.5
      vertex 12.2 -7 9.5
    endloop
  endfacet
  facet normal -0.951056 0.309017 -4.22354e-016
    outer loop
      vertex 11.2317 -11.5554 2.1
      vertex 11.2317 -11.5554 9.5
      vertex 11.9553 -9.32861 2.1
    endloop
  endfacet
  facet normal -0.951056 0.309017 -4.22354e-016
    outer loop
      vertex 11.9553 -9.32861 2.1
      vertex 11.2317 -11.5554 9.5
      vertex 11.9553 -9.32861 9.5
    endloop
  endfacet
  facet normal -0.866025 0.5 -3.84593e-016
    outer loop
      vertex 10.061 -13.5832 2.1
      vertex 10.061 -13.5832 9.5
      vertex 11.2317 -11.5554 2.1
    endloop
  endfacet
  facet normal -0.866025 0.5 -3.84593e-016
    outer loop
      vertex 11.2317 -11.5554 2.1
      vertex 10.061 -13.5832 9.5
      vertex 11.2317 -11.5554 9.5
    endloop
  endfacet
  facet normal -0.743145 0.669131 -3.30023e-016
    outer loop
      vertex 8.49426 -15.3232 2.1
      vertex 8.49426 -15.3232 9.5
      vertex 10.061 -13.5832 2.1
    endloop
  endfacet
  facet normal -0.743145 0.669131 -3.30023e-016
    outer loop
      vertex 10.061 -13.5832 2.1
      vertex 8.49426 -15.3232 9.5
      vertex 10.061 -13.5832 9.5
    endloop
  endfacet
  facet normal -0.587785 0.809017 -2.61029e-016
    outer loop
      vertex 6.6 -16.6995 2.1
      vertex 6.6 -16.6995 9.5
      vertex 8.49426 -15.3232 2.1
    endloop
  endfacet
  facet normal -0.587785 0.809017 -2.61029e-016
    outer loop
      vertex 8.49426 -15.3232 2.1
      vertex 6.6 -16.6995 9.5
      vertex 8.49426 -15.3232 9.5
    endloop
  endfacet
  facet normal -0.406736 0.913546 -1.80627e-016
    outer loop
      vertex 4.46099 -17.6518 2.1
      vertex 4.46099 -17.6518 9.5
      vertex 6.6 -16.6995 2.1
    endloop
  endfacet
  facet normal -0.406736 0.913546 -1.80627e-016
    outer loop
      vertex 6.6 -16.6995 2.1
      vertex 4.46099 -17.6518 9.5
      vertex 6.6 -16.6995 9.5
    endloop
  endfacet
  facet normal -0.207912 0.978148 -9.23313e-017
    outer loop
      vertex 2.17072 -18.1386 2.1
      vertex 2.17072 -18.1386 9.5
      vertex 4.46099 -17.6518 2.1
    endloop
  endfacet
  facet normal -0.207912 0.978148 -9.23313e-017
    outer loop
      vertex 4.46099 -17.6518 2.1
      vertex 2.17072 -18.1386 9.5
      vertex 4.46099 -17.6518 9.5
    endloop
  endfacet
  facet normal 0 1 0
    outer loop
      vertex -0.170719 -18.1386 2.1
      vertex -0.170719 -18.1386 9.5
      vertex 2.17072 -18.1386 2.1
    endloop
  endfacet
  facet normal 0 1 0
    outer loop
      vertex 2.17072 -18.1386 2.1
      vertex -0.170719 -18.1386 9.5
      vertex 2.17072 -18.1386 9.5
    endloop
  endfacet
  facet normal 0.207912 0.978148 9.23313e-017
    outer loop
      vertex -2.46099 -17.6518 2.1
      vertex -2.46099 -17.6518 9.5
      vertex -0.170719 -18.1386 2.1
    endloop
  endfacet
  facet normal 0.207912 0.978148 9.23313e-017
    outer loop
      vertex -0.170719 -18.1386 2.1
      vertex -2.46099 -17.6518 9.5
      vertex -0.170719 -18.1386 9.5
    endloop
  endfacet
  facet normal 0.406736 0.913546 1.80627e-016
    outer loop
      vertex -4.6 -16.6995 2.1
      vertex -4.6 -16.6995 9.5
      vertex -2.46099 -17.6518 2.1
    endloop
  endfacet
  facet normal 0.406736 0.913546 1.80627e-016
    outer loop
      vertex -2.46099 -17.6518 2.1
      vertex -4.6 -16.6995 9.5
      vertex -2.46099 -17.6518 9.5
    endloop
  endfacet
  facet normal 0.587785 0.809017 2.61029e-016
    outer loop
      vertex -6.49426 -15.3232 2.1
      vertex -6.49426 -15.3232 9.5
      vertex -4.6 -16.6995 2.1
    endloop
  endfacet
  facet normal 0.587785 0.809017 2.61029e-016
    outer loop
      vertex -4.6 -16.6995 2.1
      vertex -6.49426 -15.3232 9.5
      vertex -4.6 -16.6995 9.5
    endloop
  endfacet
  facet normal 0.743145 0.669131 3.30023e-016
    outer loop
      vertex -6.49426 -15.3232 2.1
      vertex -8.06099 -13.5832 2.1
      vertex -8.06099 -13.5832 9.5
    endloop
  endfacet
  facet normal 0.743145 0.669131 3.30023e-016
    outer loop
      vertex -6.49426 -15.3232 9.5
      vertex -6.49426 -15.3232 2.1
      vertex -8.06099 -13.5832 9.5
    endloop
  endfacet
  facet normal 0.866025 0.5 3.84593e-016
    outer loop
      vertex -8.06099 -13.5832 2.1
      vertex -9.23171 -11.5554 2.1
      vertex -9.23171 -11.5554 9.5
    endloop
  endfacet
  facet normal 0.866025 0.5 3.84593e-016
    outer loop
      vertex -8.06099 -13.5832 9.5
      vertex -8.06099 -13.5832 2.1
      vertex -9.23171 -11.5554 9.5
    endloop
  endfacet
  facet normal 0.951056 0.309017 4.22354e-016
    outer loop
      vertex -9.23171 -11.5554 2.1
      vertex -9.95525 -9.32861 2.1
      vertex -9.95525 -9.32861 9.5
    endloop
  endfacet
  facet normal 0.951056 0.309017 4.22354e-016
    outer loop
      vertex -9.23171 -11.5554 9.5
      vertex -9.23171 -11.5554 2.1
      vertex -9.95525 -9.32861 9.5
    endloop
  endfacet
  facet normal 0.994522 0.104529 4.41656e-016
    outer loop
      vertex -9.95525 -9.32861 2.1
      vertex -10.2 -7 2.1
      vertex -10.2 -7 9.5
    endloop
  endfacet
  facet normal 0.994522 0.104529 4.41656e-016
    outer loop
      vertex -9.95525 -9.32861 9.5
      vertex -9.95525 -9.32861 2.1
      vertex -10.2 -7 9.5
    endloop
  endfacet
  facet normal 0.994522 -0.104529 4.41656e-016
    outer loop
      vertex -10.2 -7 9.5
      vertex -10.2 -7 2.1
      vertex -9.95525 -4.67139 2.1
    endloop
  endfacet
  facet normal 0.994522 -0.104529 4.41656e-016
    outer loop
      vertex -9.95525 -4.67139 9.5
      vertex -10.2 -7 9.5
      vertex -9.95525 -4.67139 2.1
    endloop
  endfacet
endsolid OpenSCAD_Model
