  0
SECTION
  2
HEADER
  9
$ACADVER
  1
AC1009
  9
$INSBASE
 10
0.0
 20
0.0
 30
0.0
  9
$EXTMIN
 10
0.0
 20
0.0
 30
0.0
  9
$EXTMAX
 10
0.0
 20
0.0
 30
0.0
  0
ENDSEC
  0
SECTION
  2
TABLES
  0
TABLE
  2
VPORT
 70
0
  0
ENDTAB
  0
TABLE
  2
LTYPE
 70
1
  0
LTYPE
  2
CONTINUOUS
 70
0
  3
Solid line
 72
65
 73
0
 40
0.0
  0
ENDTAB
  0
TABLE
  2
LAYER
 70
1
  0
LAYER
  2
PYDXF
 70
64
 62
7
  6
continuous
  0
ENDTAB
  0
TABLE
  2
STYLE
 70
1
  0
STYLE
  2
STANDARD
 70
0
 40
0
 41
1.0
 50
0.0
 71
0
 42
1
 3
ARIAL.TTF
 4

  0
ENDTAB
  0
TABLE
  2
VIEW
 70
0
  0
ENDTAB
  0
ENDSEC
  0
SECTION
  2
BLOCKS
  0
ENDSEC
  0
SECTION
  2
ENTITIES
  0
POLYLINE
  8
0
 62
0
 70
1
 66
1
 10
0.0
 20
0.0
 30
0.0
  0
VERTEX
  8
0
 10
-10.0
 20
0.0
  0
VERTEX
  8
0
 10
-10.0
 20
0.0
  0
VERTEX
  8
0
 10
-10.0
 20
550.0
  0
VERTEX
  8
0
 10
-10.0
 20
550.0
  0
SEQEND
  8
0
  0
POLYLINE
  8
0
 62
0
 70
1
 66
1
 10
0.0
 20
0.0
 30
0.0
  0
VERTEX
  8
0
 10
-5.0
 20
0.0
  0
VERTEX
  8
0
 10
-10.0
 20
0.0
  0
VERTEX
  8
0
 10
-10.0
 20
0.0
  0
VERTEX
  8
0
 10
-5.0
 20
0.0
  0
SEQEND
  8
0
  0
POLYLINE
  8
0
 62
0
 70
1
 66
1
 10
0.0
 20
0.0
 30
0.0
  0
VERTEX
  8
0
 10
-10.0
 20
550.0
  0
VERTEX
  8
0
 10
-5.0
 20
550.0
  0
VERTEX
  8
0
 10
-5.0
 20
550.0
  0
VERTEX
  8
0
 10
-10.0
 20
550.0
  0
SEQEND
  8
0
  0
POLYLINE
  8
0
 62
0
 70
1
 66
1
 10
0.0
 20
0.0
 30
0.0
  0
VERTEX
  8
0
 10
0.0
 20
440.5
  0
VERTEX
  8
0
 10
-2.130198
 20
440.5
  0
VERTEX
  8
0
 10
-2.130198
 20
439.0
  0
VERTEX
  8
0
 10
-6.130198
 20
439.0
  0
VERTEX
  8
0
 10
-6.130198
 20
447.0
  0
VERTEX
  8
0
 10
-2.130198
 20
447.0
  0
VERTEX
  8
0
 10
-2.130198
 20
445.5
  0
VERTEX
  8
0
 10
0.0
 20
445.5
  0
VERTEX
  8
0
 10
0.0
 20
450.0
  0
VERTEX
  8
0
 10
-5.0
 20
450.0
  0
VERTEX
  8
0
 10
-5.0
 20
550.0
  0
VERTEX
  8
0
 10
-10.0
 20
550.0
  0
VERTEX
  8
0
 10
-10.0
 20
0.0
  0
VERTEX
  8
0
 10
-5.0
 20
0.0
  0
VERTEX
  8
0
 10
-5.0
 20
50.0
  0
VERTEX
  8
0
 10
0.0
 20
50.0
  0
VERTEX
  8
0
 10
0.0
 20
54.5
  0
VERTEX
  8
0
 10
-2.13
 20
54.5
  0
VERTEX
  8
0
 10
-2.13
 20
53.0
  0
VERTEX
  8
0
 10
-6.13
 20
53.0
  0
VERTEX
  8
0
 10
-6.13
 20
61.0
  0
VERTEX
  8
0
 10
-2.13
 20
61.0
  0
VERTEX
  8
0
 10
-2.13
 20
59.5
  0
VERTEX
  8
0
 10
0.0
 20
59.5
  0
VERTEX
  8
0
 10
0.0
 20
64.0
  0
VERTEX
  8
0
 10
-5.0
 20
64.0
  0
VERTEX
  8
0
 10
-5.0
 20
436.0
  0
VERTEX
  8
0
 10
0.0
 20
436.0
  0
SEQEND
  8
0
  0
POLYLINE
  8
0
 62
0
 70
1
 66
1
 10
0.0
 20
0.0
 30
0.0
  0
VERTEX
  8
0
 10
-2.130198
 20
440.5
  0
VERTEX
  8
0
 10
-2.130198
 20
439.0
  0
VERTEX
  8
0
 10
-6.130198
 20
439.0
  0
VERTEX
  8
0
 10
-6.130198
 20
447.0
  0
VERTEX
  8
0
 10
-2.130198
 20
447.0
  0
VERTEX
  8
0
 10
-2.130198
 20
445.5
  0
VERTEX
  8
0
 10
0.0
 20
445.5
  0
VERTEX
  8
0
 10
0.0
 20
450.0
  0
VERTEX
  8
0
 10
-5.0
 20
450.0
  0
VERTEX
  8
0
 10
-5.0
 20
550.0
  0
VERTEX
  8
0
 10
-10.0
 20
550.0
  0
VERTEX
  8
0
 10
-10.0
 20
0.0
  0
VERTEX
  8
0
 10
-5.0
 20
0.0
  0
VERTEX
  8
0
 10
-5.0
 20
50.0
  0
VERTEX
  8
0
 10
0.0
 20
50.0
  0
VERTEX
  8
0
 10
0.0
 20
54.5
  0
VERTEX
  8
0
 10
-2.13
 20
54.5
  0
VERTEX
  8
0
 10
-2.13
 20
53.0
  0
VERTEX
  8
0
 10
-6.13
 20
53.0
  0
VERTEX
  8
0
 10
-6.13
 20
61.0
  0
VERTEX
  8
0
 10
-2.13
 20
61.0
  0
VERTEX
  8
0
 10
-2.13
 20
59.5
  0
VERTEX
  8
0
 10
0.0
 20
59.5
  0
VERTEX
  8
0
 10
0.0
 20
64.0
  0
VERTEX
  8
0
 10
-5.0
 20
64.0
  0
VERTEX
  8
0
 10
-5.0
 20
436.0
  0
VERTEX
  8
0
 10
0.0
 20
436.0
  0
VERTEX
  8
0
 10
0.0
 20
440.5
  0
SEQEND
  8
0
  0
POLYLINE
  8
0
 62
0
 70
1
 66
1
 10
0.0
 20
0.0
 30
0.0
  0
VERTEX
  8
0
 10
-5.0
 20
0.0
  0
VERTEX
  8
0
 10
-5.0
 20
0.0
  0
VERTEX
  8
0
 10
-5.0
 20
50.0
  0
VERTEX
  8
0
 10
-5.0
 20
50.0
  0
SEQEND
  8
0
  0
POLYLINE
  8
0
 62
0
 70
1
 66
1
 10
0.0
 20
0.0
 30
0.0
  0
VERTEX
  8
0
 10
-5.0
 20
450.0
  0
VERTEX
  8
0
 10
-5.0
 20
450.0
  0
VERTEX
  8
0
 10
-5.0
 20
550.0
  0
VERTEX
  8
0
 10
-5.0
 20
550.0
  0
SEQEND
  8
0
  0
POLYLINE
  8
0
 62
0
 70
1
 66
1
 10
0.0
 20
0.0
 30
0.0
  0
VERTEX
  8
0
 10
0.0
 20
440.5
  0
VERTEX
  8
0
 10
-2.130198
 20
440.5
  0
VERTEX
  8
0
 10
-2.130198
 20
440.5
  0
VERTEX
  8
0
 10
0.0
 20
440.5
  0
SEQEND
  8
0
  0
POLYLINE
  8
0
 62
0
 70
1
 66
1
 10
0.0
 20
0.0
 30
0.0
  0
VERTEX
  8
0
 10
0.0
 20
440.5
  0
VERTEX
  8
0
 10
0.0
 20
436.0
  0
VERTEX
  8
0
 10
0.0
 20
436.0
  0
VERTEX
  8
0
 10
0.0
 20
440.5
  0
SEQEND
  8
0
  0
POLYLINE
  8
0
 62
0
 70
1
 66
1
 10
0.0
 20
0.0
 30
0.0
  0
VERTEX
  8
0
 10
-5.0
 20
436.0
  0
VERTEX
  8
0
 10
-5.0
 20
436.0
  0
VERTEX
  8
0
 10
0.0
 20
436.0
  0
VERTEX
  8
0
 10
0.0
 20
436.0
  0
SEQEND
  8
0
  0
POLYLINE
  8
0
 62
0
 70
1
 66
1
 10
0.0
 20
0.0
 30
0.0
  0
VERTEX
  8
0
 10
-5.0
 20
64.0
  0
VERTEX
  8
0
 10
-5.0
 20
64.0
  0
VERTEX
  8
0
 10
-5.0
 20
436.0
  0
VERTEX
  8
0
 10
-5.0
 20
436.0
  0
SEQEND
  8
0
  0
POLYLINE
  8
0
 62
0
 70
1
 66
1
 10
0.0
 20
0.0
 30
0.0
  0
VERTEX
  8
0
 10
0.0
 20
64.0
  0
VERTEX
  8
0
 10
0.0
 20
64.0
  0
VERTEX
  8
0
 10
-5.0
 20
64.0
  0
VERTEX
  8
0
 10
-5.0
 20
64.0
  0
SEQEND
  8
0
  0
POLYLINE
  8
0
 62
0
 70
1
 66
1
 10
0.0
 20
0.0
 30
0.0
  0
VERTEX
  8
0
 10
0.0
 20
64.0
  0
VERTEX
  8
0
 10
0.0
 20
59.5
  0
VERTEX
  8
0
 10
0.0
 20
59.5
  0
VERTEX
  8
0
 10
0.0
 20
64.0
  0
SEQEND
  8
0
  0
POLYLINE
  8
0
 62
0
 70
1
 66
1
 10
0.0
 20
0.0
 30
0.0
  0
VERTEX
  8
0
 10
-2.13
 20
59.5
  0
VERTEX
  8
0
 10
0.0
 20
59.5
  0
VERTEX
  8
0
 10
0.0
 20
59.5
  0
VERTEX
  8
0
 10
-2.13
 20
59.5
  0
SEQEND
  8
0
  0
POLYLINE
  8
0
 62
0
 70
1
 66
1
 10
0.0
 20
0.0
 30
0.0
  0
VERTEX
  8
0
 10
-2.13
 20
61.0
  0
VERTEX
  8
0
 10
-2.13
 20
59.5
  0
VERTEX
  8
0
 10
-2.13
 20
59.5
  0
VERTEX
  8
0
 10
-2.13
 20
61.0
  0
SEQEND
  8
0
  0
POLYLINE
  8
0
 62
0
 70
1
 66
1
 10
0.0
 20
0.0
 30
0.0
  0
VERTEX
  8
0
 10
-6.13
 20
61.0
  0
VERTEX
  8
0
 10
-2.13
 20
61.0
  0
VERTEX
  8
0
 10
-2.13
 20
61.0
  0
VERTEX
  8
0
 10
-6.13
 20
61.0
  0
SEQEND
  8
0
  0
POLYLINE
  8
0
 62
0
 70
1
 66
1
 10
0.0
 20
0.0
 30
0.0
  0
VERTEX
  8
0
 10
-6.13
 20
53.0
  0
VERTEX
  8
0
 10
-6.13
 20
61.0
  0
VERTEX
  8
0
 10
-6.13
 20
61.0
  0
VERTEX
  8
0
 10
-6.13
 20
53.0
  0
SEQEND
  8
0
  0
POLYLINE
  8
0
 62
0
 70
1
 66
1
 10
0.0
 20
0.0
 30
0.0
  0
VERTEX
  8
0
 10
-2.13
 20
53.0
  0
VERTEX
  8
0
 10
-6.13
 20
53.0
  0
VERTEX
  8
0
 10
-6.13
 20
53.0
  0
VERTEX
  8
0
 10
-2.13
 20
53.0
  0
SEQEND
  8
0
  0
POLYLINE
  8
0
 62
0
 70
1
 66
1
 10
0.0
 20
0.0
 30
0.0
  0
VERTEX
  8
0
 10
-2.13
 20
54.5
  0
VERTEX
  8
0
 10
-2.13
 20
54.5
  0
VERTEX
  8
0
 10
-2.13
 20
53.0
  0
VERTEX
  8
0
 10
-2.13
 20
53.0
  0
SEQEND
  8
0
  0
POLYLINE
  8
0
 62
0
 70
1
 66
1
 10
0.0
 20
0.0
 30
0.0
  0
VERTEX
  8
0
 10
0.0
 20
54.5
  0
VERTEX
  8
0
 10
-2.13
 20
54.5
  0
VERTEX
  8
0
 10
-2.13
 20
54.5
  0
VERTEX
  8
0
 10
0.0
 20
54.5
  0
SEQEND
  8
0
  0
POLYLINE
  8
0
 62
0
 70
1
 66
1
 10
0.0
 20
0.0
 30
0.0
  0
VERTEX
  8
0
 10
0.0
 20
54.5
  0
VERTEX
  8
0
 10
0.0
 20
50.0
  0
VERTEX
  8
0
 10
0.0
 20
50.0
  0
VERTEX
  8
0
 10
0.0
 20
54.5
  0
SEQEND
  8
0
  0
POLYLINE
  8
0
 62
0
 70
1
 66
1
 10
0.0
 20
0.0
 30
0.0
  0
VERTEX
  8
0
 10
-5.0
 20
50.0
  0
VERTEX
  8
0
 10
-5.0
 20
50.0
  0
VERTEX
  8
0
 10
0.0
 20
50.0
  0
VERTEX
  8
0
 10
0.0
 20
50.0
  0
SEQEND
  8
0
  0
POLYLINE
  8
0
 62
0
 70
1
 66
1
 10
0.0
 20
0.0
 30
0.0
  0
VERTEX
  8
0
 10
0.0
 20
450.0
  0
VERTEX
  8
0
 10
0.0
 20
450.0
  0
VERTEX
  8
0
 10
-5.0
 20
450.0
  0
VERTEX
  8
0
 10
-5.0
 20
450.0
  0
SEQEND
  8
0
  0
POLYLINE
  8
0
 62
0
 70
1
 66
1
 10
0.0
 20
0.0
 30
0.0
  0
VERTEX
  8
0
 10
0.0
 20
450.0
  0
VERTEX
  8
0
 10
0.0
 20
445.5
  0
VERTEX
  8
0
 10
0.0
 20
445.5
  0
VERTEX
  8
0
 10
0.0
 20
450.0
  0
SEQEND
  8
0
  0
POLYLINE
  8
0
 62
0
 70
1
 66
1
 10
0.0
 20
0.0
 30
0.0
  0
VERTEX
  8
0
 10
-2.130198
 20
445.5
  0
VERTEX
  8
0
 10
0.0
 20
445.5
  0
VERTEX
  8
0
 10
0.0
 20
445.5
  0
VERTEX
  8
0
 10
-2.130198
 20
445.5
  0
SEQEND
  8
0
  0
POLYLINE
  8
0
 62
0
 70
1
 66
1
 10
0.0
 20
0.0
 30
0.0
  0
VERTEX
  8
0
 10
-2.130198
 20
447.0
  0
VERTEX
  8
0
 10
-2.130198
 20
445.5
  0
VERTEX
  8
0
 10
-2.130198
 20
445.5
  0
VERTEX
  8
0
 10
-2.130198
 20
447.0
  0
SEQEND
  8
0
  0
POLYLINE
  8
0
 62
0
 70
1
 66
1
 10
0.0
 20
0.0
 30
0.0
  0
VERTEX
  8
0
 10
-6.130198
 20
447.0
  0
VERTEX
  8
0
 10
-2.130198
 20
447.0
  0
VERTEX
  8
0
 10
-2.130198
 20
447.0
  0
VERTEX
  8
0
 10
-6.130198
 20
447.0
  0
SEQEND
  8
0
  0
POLYLINE
  8
0
 62
0
 70
1
 66
1
 10
0.0
 20
0.0
 30
0.0
  0
VERTEX
  8
0
 10
-6.130198
 20
439.0
  0
VERTEX
  8
0
 10
-6.130198
 20
447.0
  0
VERTEX
  8
0
 10
-6.130198
 20
447.0
  0
VERTEX
  8
0
 10
-6.130198
 20
439.0
  0
SEQEND
  8
0
  0
POLYLINE
  8
0
 62
0
 70
1
 66
1
 10
0.0
 20
0.0
 30
0.0
  0
VERTEX
  8
0
 10
-2.130198
 20
439.0
  0
VERTEX
  8
0
 10
-6.130198
 20
439.0
  0
VERTEX
  8
0
 10
-6.130198
 20
439.0
  0
VERTEX
  8
0
 10
-2.130198
 20
439.0
  0
SEQEND
  8
0
  0
POLYLINE
  8
0
 62
0
 70
1
 66
1
 10
0.0
 20
0.0
 30
0.0
  0
VERTEX
  8
0
 10
-2.130198
 20
440.5
  0
VERTEX
  8
0
 10
-2.130198
 20
440.5
  0
VERTEX
  8
0
 10
-2.130198
 20
439.0
  0
VERTEX
  8
0
 10
-2.130198
 20
439.0
  0
SEQEND
  8
0
  0
ENDSEC
  0
EOF
