<?xml version="1.0" encoding="UTF-8" standalone="no"?>
<!DOCTYPE svg PUBLIC "-//W3C//DTD SVG 20010904//EN"
              "http://www.w3.org/TR/2001/REC-SVG-20010904/DTD/svg10.dtd">

<svg xmlns="http://www.w3.org/2000/svg"
     width="2.66667in" height="3.97222in"
     viewBox="0 0 192 286">
  <path id="Unnamed"
        fill="none" stroke="black" stroke-width="1"
        d="M 172.56,176.31
           C 172.56,176.31 168.19,177.50 168.19,177.50
             168.19,177.50 164.44,179.50 164.44,179.50
             164.44,179.50 161.62,181.50 161.62,181.50
             161.62,181.50 158.88,184.38 158.81,184.38
             158.75,184.38 157.62,186.94 157.62,186.94
             157.62,186.94 156.31,189.19 156.31,189.19
             156.31,189.19 153.81,190.69 153.81,190.69
             153.81,190.69 151.06,191.62 151.06,191.62
             151.06,191.62 146.38,194.62 146.38,194.62
             146.38,194.62 143.38,197.50 143.38,197.50
             143.38,197.50 140.31,199.25 140.31,199.25
             140.31,199.25 135.56,202.12 135.56,202.12
             135.56,202.12 133.69,203.62 133.69,203.62
             133.69,203.62 131.50,205.56 131.50,205.56
             131.50,205.56 128.19,206.56 128.19,206.56
             128.19,206.56 124.81,207.38 124.81,207.38
             124.81,207.38 120.38,208.44 120.38,208.44
             120.38,208.44 116.25,209.50 116.25,209.50
             116.25,209.50 111.06,210.56 111.06,210.56
             111.06,210.56 101.94,210.75 101.94,210.75
             101.94,210.75 98.62,211.56 98.62,211.56
             98.62,211.56 93.44,211.25 93.44,211.25
             93.44,211.25 83.50,210.44 83.50,210.44
             83.50,210.44 78.12,209.38 78.12,209.38
             78.12,209.38 73.50,208.62 73.50,208.62
             73.50,208.62 68.69,207.69 68.69,207.69
             68.69,207.69 61.56,204.69 61.56,204.69
             61.56,204.69 54.12,200.75 54.12,200.75
             54.12,200.75 48.50,197.69 48.50,197.69
             48.50,197.69 43.50,194.00 43.50,194.00
             43.50,194.00 39.50,190.50 39.50,190.50
             39.50,190.50 37.31,188.31 37.31,188.31
             37.31,188.31 34.19,184.38 34.19,184.38
             34.19,184.38 31.62,180.25 31.62,180.25
             31.62,180.25 29.44,176.44 29.44,176.44
             29.44,176.44 27.38,172.12 27.38,172.12
             27.38,172.12 26.62,168.06 26.62,168.06
             26.62,168.06 25.50,162.12 25.50,162.12
             25.50,162.12 24.75,156.31 24.75,156.31
             24.75,156.31 24.25,146.38 24.25,146.38
             24.25,146.38 24.62,126.94 24.62,126.94
             24.62,126.94 25.50,122.75 25.50,122.75
             25.50,122.75 26.38,119.69 26.38,119.69
             26.38,119.69 27.44,116.62 27.44,116.62
             27.44,116.62 28.31,113.56 28.31,113.56
             28.31,113.56 29.50,110.44 29.50,110.44
             29.50,110.44 30.44,108.69 30.44,108.69
             30.44,108.69 31.50,106.56 31.50,106.56
             31.50,106.56 33.38,103.62 33.38,103.62
             33.38,103.62 35.38,100.31 35.38,100.31
             35.38,100.31 38.25,97.56 38.25,97.56
             38.25,97.56 42.38,93.50 42.38,93.50
             42.38,93.50 46.69,89.38 46.69,89.38
             46.69,89.38 51.44,86.31 51.44,86.31
             51.44,86.31 55.50,84.19 55.50,84.19
             55.50,84.19 58.88,82.38 58.88,82.38
             58.88,82.38 61.06,81.38 61.06,81.38
             61.06,81.38 64.50,79.69 64.50,79.69
             64.50,79.69 67.31,78.38 67.31,78.38
             67.31,78.38 67.94,78.44 67.94,78.44
             67.94,78.44 67.75,79.75 67.75,79.75
             67.75,79.75 67.50,81.00 67.50,81.00
             67.50,81.00 66.75,83.31 66.75,83.31
             66.75,83.31 66.38,85.44 66.38,85.44
             66.38,85.44 66.31,96.88 66.31,96.88
             66.31,96.88 64.31,98.56 64.31,98.56
             64.31,98.56 61.69,100.38 61.69,100.38
             61.69,100.38 59.56,102.50 59.56,102.50
             59.56,102.50 57.38,104.69 57.38,104.69
             57.38,104.69 55.62,106.62 55.62,106.62
             55.62,106.62 53.56,109.62 53.56,109.62
             53.56,109.62 52.50,111.38 52.50,111.38
             52.50,111.38 51.31,113.56 51.31,113.56
             51.31,113.56 50.10,115.43 50.10,115.43
             50.10,115.43 49.25,117.62 49.25,117.62
             49.25,117.62 48.25,124.31 48.25,124.31
             48.25,124.31 47.50,141.44 47.50,141.44
             47.50,141.44 48.38,146.38 48.44,146.38
             48.50,146.38 49.62,150.56 49.62,150.56
             49.62,150.56 51.75,156.69 51.75,156.69
             51.75,156.69 53.44,159.50 53.44,159.50
             53.44,159.50 55.38,161.69 55.38,161.69
             55.38,161.69 57.50,164.69 57.50,164.69
             57.50,164.69 60.56,166.44 60.56,166.44
             60.56,166.44 62.69,168.44 62.69,168.44
             62.69,168.44 63.00,169.62 63.00,169.62
             63.00,169.62 65.56,171.19 65.56,171.19
             65.56,171.19 68.31,172.38 68.31,172.38
             68.31,172.38 72.06,173.38 72.06,173.38
             72.06,173.38 76.19,173.62 76.19,173.62
             76.19,173.62 80.19,173.44 80.19,173.44
             80.19,173.44 82.31,174.31 82.31,174.31
             82.31,174.31 93.06,174.25 93.06,174.25
             93.06,174.25 96.94,172.50 96.94,172.50
             96.94,172.50 98.75,170.62 98.75,170.62
             98.75,170.62 100.62,169.81 100.62,169.81
             100.62,169.81 101.69,169.62 101.69,169.62
             101.69,169.62 106.44,167.50 106.44,167.50
             106.44,167.50 110.25,165.38 110.25,165.38
             110.25,165.38 112.56,163.06 112.56,163.06
             112.56,163.06 115.44,160.31 115.44,160.31
             115.44,160.31 117.19,158.25 117.19,158.25
             117.19,158.25 117.75,156.50 117.75,156.50
             117.75,156.50 118.81,154.50 118.81,154.50
             118.81,154.50 119.88,153.44 119.88,153.44
             119.88,153.44 121.19,152.75 121.19,152.75
             121.19,152.75 122.56,150.75 122.56,150.75
             122.56,150.75 124.19,147.88 124.19,147.88
             124.19,147.88 125.25,143.94 125.25,143.94
             125.25,143.94 125.31,138.31 125.31,138.31
             125.31,138.31 124.06,134.88 124.06,134.88
             124.06,134.88 123.44,133.31 123.44,133.31
             123.44,133.31 123.31,131.56 123.31,131.56
             123.31,131.56 124.25,130.38 124.25,130.38
             124.25,130.38 125.12,129.25 125.12,129.25
             125.12,129.25 126.25,128.19 126.25,128.19
             126.25,128.19 127.44,127.44 127.44,127.44
             127.44,127.44 134.44,127.56 134.44,127.56
             134.44,127.56 137.69,128.44 137.69,128.44
             137.69,128.44 138.31,128.81 138.31,128.81
             138.31,128.81 138.19,120.81 138.19,120.81
             138.19,120.81 136.25,117.31 136.25,117.31
             136.25,117.31 134.25,114.44 134.25,114.44
             134.25,114.44 132.44,111.75 132.44,111.75
             132.44,111.75 130.38,109.75 130.38,109.75
             130.38,109.75 128.25,107.81 128.25,107.81
             128.25,107.81 126.19,105.62 126.19,105.62
             126.19,105.62 123.94,103.44 123.94,103.44
             123.94,103.44 121.38,101.62 121.38,101.62
             121.38,101.62 120.44,100.69 120.44,100.69
             120.44,100.69 120.53,94.87 120.53,94.87
             120.53,94.87 118.78,96.62 118.78,96.62
             118.78,96.62 117.94,97.09 117.94,97.09
             117.94,97.09 116.31,98.06 116.31,98.06
             116.31,98.06 113.69,99.69 113.69,99.69
             113.69,99.69 111.03,101.53 111.03,101.53
             111.03,101.53 108.81,103.12 108.81,103.12
             108.81,103.12 106.62,104.81 106.62,104.81
             106.62,104.81 103.44,107.44 103.44,107.44
             103.44,107.44 101.38,109.56 101.38,109.56
             101.38,109.56 99.31,112.50 99.31,112.50
             99.31,112.50 97.69,115.44 97.69,115.44
             97.69,115.44 96.31,119.06 96.31,119.06
             96.31,119.06 94.75,122.94 94.75,122.94
             94.75,122.94 94.00,125.81 94.00,125.81
             94.00,125.81 98.06,124.88 98.06,124.88
             98.06,124.88 101.38,124.19 101.38,124.19
             101.38,124.19 104.25,123.31 104.25,123.31
             104.25,123.31 108.38,120.44 108.38,120.44
             108.38,120.44 111.25,117.62 111.25,117.62
             111.25,117.62 114.19,114.19 114.19,114.19
             114.19,114.19 116.44,110.88 116.44,110.88
             116.44,110.88 118.38,106.81 118.38,106.81
             118.38,106.81 119.69,102.81 119.69,102.81
             119.69,102.81 120.44,100.70 120.44,100.70M 138.38,128.88
           C 138.38,128.88 138.31,131.31 138.31,131.31
             138.31,131.31 137.25,134.00 137.25,134.00
             137.25,134.00 135.94,136.25 135.94,136.25
             135.94,136.25 133.94,138.38 133.94,138.38
             133.94,138.38 132.56,136.75 132.56,136.75
             132.56,136.75 130.75,134.88 130.75,134.88
             130.75,134.88 129.75,132.94 129.75,132.94
             129.75,132.94 130.62,131.50 130.62,131.50
             130.62,131.50 132.31,131.06 132.31,131.06
             132.31,131.06 134.50,131.25 134.50,131.25
             134.50,131.25 137.94,132.22 137.94,132.22M 133.94,138.38
           C 133.94,138.38 138.38,143.69 138.38,143.69
             138.38,143.69 142.81,148.44 142.81,148.44
             142.81,148.44 144.69,150.56 144.69,150.56
             144.69,150.56 147.50,153.25 147.50,153.25
             147.50,153.25 150.25,156.12 150.25,156.12
             150.25,156.12 155.56,160.25 155.56,160.25
             155.56,160.25 160.69,164.56 160.69,164.56
             160.69,164.56 164.56,166.94 164.56,166.94
             164.56,166.94 167.00,168.31 167.00,168.31
             167.00,168.31 169.19,169.62 169.19,169.62
             169.19,169.62 171.25,170.75 171.25,170.75
             171.25,170.75 172.72,171.62 172.72,171.62
             172.72,171.62 174.69,172.56 174.69,172.56
             174.69,172.56 176.44,171.56 176.44,171.56
             176.44,171.56 177.44,170.12 177.44,170.12
             177.44,170.12 177.25,168.44 177.25,168.44
             177.25,168.44 175.62,166.38 175.62,166.38
             175.62,166.38 173.44,163.44 173.44,163.44
             173.44,163.44 171.62,161.44 171.62,161.44
             171.62,161.44 169.69,159.44 169.69,159.44
             169.69,159.44 167.38,157.38 167.38,157.38
             167.38,157.38 165.50,155.50 165.50,155.50
             165.50,155.50 163.06,153.31 163.06,153.31
             163.06,153.31 161.25,151.44 161.25,151.44
             161.25,151.44 159.31,149.50 159.31,149.50
             159.31,149.50 157.38,147.69 157.38,147.69
             157.38,147.69 155.12,145.56 155.12,145.56
             155.12,145.56 153.31,143.69 153.31,143.69
             153.31,143.69 151.44,141.75 151.44,141.75
             151.44,141.75 149.31,139.81 149.31,139.75
             149.31,139.69 148.00,138.38 148.00,138.38
             148.00,138.38 146.75,137.19 146.75,137.19
             146.75,137.19 145.12,135.69 145.12,135.69
             145.12,135.69 143.69,137.81 143.69,137.81
             143.69,137.81 142.25,140.25 142.25,140.25
             142.25,140.25 140.75,142.62 140.75,142.62
             140.75,142.62 139.19,144.57 139.19,144.57M 145.13,135.69
           C 145.13,135.69 147.06,132.50 147.06,132.50
             147.06,132.50 148.25,125.31 148.25,125.31
             148.25,125.31 147.69,115.62 147.69,115.62
             147.69,115.62 145.75,110.31 145.75,110.31
             145.75,110.31 143.31,104.81 143.31,104.81
             143.31,104.81 139.62,99.12 139.62,99.12
             139.62,99.12 137.38,96.06 137.38,96.06
             137.38,96.06 135.50,94.06 135.50,94.06
             135.50,94.06 131.81,90.69 131.81,90.69
             131.81,90.69 127.94,87.81 127.94,87.81
             127.94,87.81 125.44,86.31 125.44,86.31
             125.44,86.31 121.13,83.64 121.13,83.64M 131.81,90.69
           C 131.81,90.69 130.75,94.75 130.75,94.75
             130.75,94.75 129.50,99.75 129.50,99.75
             129.50,99.75 127.88,102.44 127.88,102.44
             127.88,102.44 124.91,104.38 124.91,104.38M 135.56,94.12
           C 135.56,94.12 134.62,97.00 134.62,97.00
             134.62,97.00 133.19,101.56 133.19,101.56
             133.19,101.56 131.75,104.56 131.75,104.56
             131.75,104.56 127.57,107.08 127.57,107.08M 143.75,105.83
           C 143.75,105.83 142.06,109.41 142.06,109.41
             142.06,109.41 140.16,111.44 140.16,111.44
             140.16,111.44 137.56,112.64 137.56,112.64
             137.56,112.64 132.94,112.48 132.94,112.48M 135.19,115.80
           C 135.19,115.80 140.44,115.53 140.44,115.53
             140.44,115.53 143.38,113.62 143.38,113.62
             143.38,113.62 145.09,111.69 145.09,111.69
             145.09,111.69 145.75,110.33 145.75,110.33M 147.06,132.50
           C 147.06,132.50 150.75,135.72 150.75,135.72
             150.75,135.72 152.78,137.51 152.78,137.51
             152.78,137.51 155.38,139.69 155.38,139.69
             155.38,139.69 157.31,141.62 157.31,141.62
             157.31,141.62 159.19,143.81 159.19,143.81
             159.19,143.81 161.19,145.69 161.19,145.69
             161.19,145.69 163.12,147.62 163.12,147.62
             163.12,147.62 166.09,150.25 166.09,150.25
             166.09,150.25 168.03,152.03 168.03,152.03
             168.03,152.03 170.22,154.22 170.22,154.22
             170.22,154.22 172.19,156.38 172.19,156.38
             172.19,156.38 174.38,158.62 174.38,158.62
             174.38,158.62 176.38,160.56 176.38,160.56
             176.38,160.56 177.81,162.69 177.81,162.69
             177.81,162.69 179.44,165.31 179.44,165.31
             179.44,165.31 180.62,168.25 180.69,168.25
             180.75,168.25 181.00,171.75 181.00,171.75
             181.00,171.75 179.62,174.75 179.62,174.75
             179.62,174.75 177.38,176.25 177.38,176.25
             177.38,176.25 174.00,176.38 174.00,176.38
             174.00,176.38 172.58,176.31 172.58,176.31
             172.58,176.31 169.44,174.44 169.44,174.44
             169.44,174.44 165.50,171.75 165.50,171.75
             165.50,171.75 160.75,168.94 160.75,168.94
             160.75,168.94 157.09,166.55 157.09,166.55
             157.09,166.55 153.45,163.91 153.45,163.91
             153.45,163.91 150.64,161.82 150.64,161.82
             150.64,161.82 148.27,159.91 148.27,159.91
             148.27,159.91 145.45,157.64 145.45,157.64
             145.45,157.64 142.91,155.27 142.91,155.27
             142.91,155.27 139.82,152.91 139.82,152.91
             139.82,152.91 137.64,151.00 137.64,151.00
             137.64,151.00 135.18,148.64 135.18,148.64
             135.18,148.64 133.00,146.27 133.00,146.27
             133.00,146.27 130.64,143.27 130.64,143.27
             130.64,143.27 128.45,140.45 128.45,140.45
             128.45,140.45 126.45,138.27 126.45,138.27
             126.45,138.27 124.31,135.59 124.31,135.59M 173.31,171.88
           C 173.31,171.88 173.44,170.34 173.44,170.34
             173.44,170.34 173.03,169.44 173.03,169.44
             173.03,169.44 171.34,167.44 171.34,167.44
             171.34,167.44 169.59,165.44 169.56,165.44
             169.53,165.44 168.34,164.22 168.34,164.22
             168.34,164.22 167.12,163.06 167.12,163.06
             167.12,163.06 166.00,162.06 166.00,162.06
             166.00,162.06 165.22,161.41 165.22,161.41M 143.13,138.76
           C 143.13,138.78 145.16,140.87 145.16,140.87
             145.16,140.87 145.80,141.62 145.80,141.62M 137.24,134.00
           C 137.24,134.00 136.31,133.47 136.31,133.47
             136.31,133.47 135.36,133.02 135.36,133.02
             135.36,133.02 134.47,132.87 134.47,132.87
             134.47,132.87 133.53,132.78 133.53,132.78M 121.18,152.76
           C 121.18,152.76 121.58,159.02 121.58,159.02
             121.58,159.02 123.67,164.42 123.67,164.42
             123.67,164.42 125.96,167.70 125.96,167.70
             125.96,167.70 128.64,170.91 128.64,170.91
             128.64,170.91 131.52,173.78 131.52,173.78
             131.52,173.78 134.64,177.00 134.64,177.00
             134.64,177.00 137.82,179.82 137.82,179.82
             137.82,179.82 141.09,181.73 141.09,181.73
             141.09,181.73 144.91,184.18 144.91,184.18
             144.91,184.18 149.82,185.55 149.82,185.55
             149.82,185.55 156.73,185.55 156.73,185.55
             156.73,185.55 158.83,184.41 158.83,184.41M 153.83,190.70
           C 153.83,190.70 149.01,190.35 149.04,190.35
             149.07,190.35 144.25,188.84 144.25,188.84
             144.25,188.84 140.22,186.57 140.22,186.57
             140.22,186.57 136.00,184.09 136.00,184.09
             136.00,184.09 132.52,181.83 132.52,181.83
             132.52,181.83 130.19,179.62 130.19,179.62
             130.19,179.62 127.27,177.27 127.27,177.27
             127.27,177.27 125.00,174.45 125.00,174.45
             125.00,174.45 122.36,171.36 122.36,171.36
             122.36,171.36 120.27,168.64 120.27,168.64
             120.27,168.64 118.45,165.18 118.45,165.18
             118.45,165.18 117.45,161.45 117.45,161.45
             117.45,161.45 117.20,158.24 117.20,158.24M 96.94,172.50
           C 96.94,172.50 97.56,180.12 97.56,180.12
             97.56,180.12 99.56,184.69 99.62,184.69
             99.69,184.69 101.75,188.50 101.75,188.50
             101.75,188.50 104.38,191.44 104.38,191.44
             104.38,191.44 106.56,193.62 106.56,193.62
             106.56,193.62 109.38,196.50 109.38,196.50
             109.38,196.50 112.62,199.00 112.62,199.00
             112.62,199.00 115.38,201.19 115.38,201.12
             115.38,201.06 118.94,203.56 118.94,203.56
             118.94,203.56 121.44,205.12 121.44,205.12
             121.44,205.12 123.75,206.44 123.75,206.44
             123.75,206.44 125.24,207.26 125.24,207.27M 133.71,203.62
           C 133.71,203.62 131.53,202.91 131.53,202.93
             131.53,202.96 127.44,201.12 127.44,201.12
             127.44,201.12 123.81,199.31 123.81,199.31
             123.81,199.31 120.62,197.62 120.62,197.62
             120.62,197.62 117.50,195.31 117.50,195.38
             117.50,195.44 114.94,193.31 114.94,193.31
             114.94,193.31 112.04,191.17 112.04,191.17
             112.04,191.17 109.83,189.26 109.83,189.26
             109.83,189.26 107.04,186.48 107.04,186.48
             107.04,186.48 105.04,183.57 105.04,183.57
             105.04,183.57 103.26,180.70 103.26,180.70
             103.26,180.70 101.87,176.26 101.87,176.26
             101.87,176.26 101.43,171.78 101.43,171.78
             101.43,171.78 101.70,169.57 101.70,169.57M 101.94,210.75
           C 101.94,210.75 96.69,207.71 96.69,207.71
             96.69,207.71 92.30,204.43 92.30,204.43
             92.30,204.43 89.00,201.44 89.00,201.44
             89.00,201.44 86.25,198.31 86.25,198.31
             86.25,198.31 83.69,195.12 83.69,195.12
             83.69,195.12 81.81,191.00 81.81,191.00
             81.81,191.00 80.44,187.44 80.44,187.44
             80.44,187.44 79.19,183.50 79.19,183.50
             79.19,183.50 78.88,180.31 78.88,180.31
             78.88,180.31 80.31,176.19 80.31,176.19
             80.31,176.19 82.31,174.32 82.31,174.32
             82.31,174.32 81.13,170.96 81.13,170.96
             81.13,170.96 79.35,166.39 79.35,166.39
             79.35,166.39 76.18,159.36 76.18,159.36
             76.18,159.36 73.55,153.55 73.55,153.55
             73.55,153.55 71.09,148.64 71.09,148.55
             71.09,148.45 68.82,143.82 68.73,143.82
             68.64,143.82 66.18,139.55 66.18,139.55
             66.18,139.55 64.00,137.45 64.00,137.45
             64.00,137.45 63.09,136.36 63.09,136.36
             63.09,136.36 63.31,133.75 63.31,133.75
             63.31,133.75 65.38,132.44 65.38,132.44
             65.38,132.44 69.25,131.19 69.25,131.19
             69.25,131.19 75.50,130.31 75.50,130.31
             75.50,130.31 103.19,130.31 103.19,130.31
             103.19,130.31 109.50,131.19 109.50,131.19
             109.50,131.19 116.56,132.44 116.56,132.44
             116.56,132.44 119.62,134.25 119.62,134.25
             119.62,134.25 119.56,136.25 119.56,136.25
             119.56,136.25 117.75,137.44 117.75,137.44
             117.75,137.44 116.50,138.88 116.50,138.88
             116.50,138.88 112.44,145.94 112.44,145.94
             112.44,145.94 110.44,149.81 110.44,149.81
             110.44,149.81 108.69,153.38 108.69,153.38
             108.69,153.38 107.06,157.44 107.06,157.44
             107.06,157.44 105.56,161.25 105.56,161.25
             105.56,161.25 104.38,164.69 104.38,164.69
             104.38,164.69 103.14,168.98 103.14,168.98M 76.22,173.65
           C 76.22,173.65 75.35,177.43 75.35,177.43
             75.35,177.43 74.70,182.00 74.70,182.00
             74.70,182.00 75.43,188.13 75.43,188.13
             75.43,188.13 77.78,195.04 77.78,195.04
             77.78,195.04 81.04,200.17 81.04,200.17
             81.04,200.17 83.96,203.17 83.96,203.17
             83.96,203.17 86.30,205.61 86.30,205.61
             86.30,205.61 89.65,208.35 89.65,208.35
             89.65,208.35 91.87,210.17 91.87,210.17
             91.87,210.17 93.48,211.30 93.48,211.30M 63.00,169.63
           C 63.00,169.63 60.13,171.84 60.13,171.84
             60.13,171.84 58.53,173.71 58.53,173.71
             58.53,173.71 56.87,176.67 56.87,176.67
             56.87,176.67 55.89,181.69 55.89,181.69
             55.89,181.69 55.88,187.25 55.88,187.25
             55.88,187.25 56.44,193.00 56.44,193.00
             56.44,193.00 57.31,197.62 57.31,197.62
             57.31,197.62 58.62,200.19 58.62,200.19
             58.62,200.19 60.56,202.94 60.56,202.94
             60.56,202.94 62.20,204.96 62.20,204.96M 54.13,200.74
           C 54.13,200.74 52.22,197.00 52.22,197.00
             52.22,197.00 51.43,192.22 51.43,192.22
             51.43,192.22 51.09,186.09 51.09,186.09
             51.09,186.09 51.48,179.43 51.48,179.43
             51.48,179.43 52.61,175.52 52.61,175.52
             52.61,175.52 54.22,172.43 54.22,172.43
             54.22,172.43 56.26,169.39 56.26,169.39
             56.26,169.39 58.52,167.26 58.52,167.26
             58.52,167.26 59.89,166.05 59.89,166.05M 29.44,176.44
           C 29.44,176.44 30.62,173.67 30.62,173.67
             30.62,173.67 31.77,171.36 31.77,171.36
             31.77,171.36 33.22,168.70 33.22,168.70
             33.22,168.70 34.69,166.50 34.69,166.50
             34.69,166.50 36.69,164.31 36.69,164.31
             36.69,164.31 38.25,162.31 38.25,162.31
             38.25,162.31 40.44,160.75 40.44,160.75
             40.44,160.75 42.31,159.38 42.31,159.38
             42.31,159.38 44.44,158.31 44.44,158.31
             44.44,158.31 46.00,157.56 46.00,157.56
             46.00,157.56 50.06,156.81 50.06,156.81
             50.06,156.81 51.75,156.69 51.77,156.69M 27.20,171.14
           C 27.20,171.14 28.21,169.20 28.22,169.20
             28.24,169.20 29.50,167.44 29.50,167.44
             29.50,167.44 31.19,164.94 31.19,164.94
             31.19,164.94 33.44,161.75 33.44,161.75
             33.44,161.75 35.19,159.69 35.19,159.69
             35.19,159.69 37.31,157.31 37.31,157.31
             37.31,157.31 39.75,155.69 39.75,155.69
             39.75,155.69 42.00,154.44 42.00,154.44
             42.00,154.44 44.31,153.50 44.31,153.50
             44.31,153.50 47.44,152.69 47.44,152.69
             47.44,152.69 50.41,152.82 50.41,152.82M 47.53,140.53
           C 47.53,140.53 45.97,139.28 45.97,139.28
             45.97,139.28 44.00,137.91 44.00,137.91
             44.00,137.91 41.06,137.62 41.06,137.62
             41.06,137.62 36.84,137.62 36.84,137.62
             36.84,137.62 34.12,138.53 34.12,138.53
             34.12,138.53 31.66,140.78 31.66,140.78
             31.66,140.78 29.72,142.75 29.75,142.75
             29.78,142.75 28.25,144.75 28.28,144.78
             28.31,144.81 26.81,147.00 26.81,147.00
             26.81,147.00 24.45,150.31 24.45,150.31M 24.32,143.05
           C 24.32,143.05 26.66,139.81 26.66,139.81
             26.66,139.81 29.31,137.12 29.31,137.12
             29.31,137.12 31.94,135.19 31.94,135.19
             31.94,135.19 35.16,133.88 35.16,133.88
             35.16,133.88 41.19,133.88 41.19,133.88
             41.19,133.88 44.09,134.47 44.09,134.47
             44.09,134.47 46.00,135.25 46.00,135.25
             46.00,135.25 47.70,136.85 47.70,136.85M 24.60,127.91
           C 24.60,127.91 25.78,126.48 25.78,126.48
             25.78,126.48 26.94,125.03 26.94,125.03
             26.94,125.03 28.62,123.50 28.62,123.50
             28.62,123.50 30.56,121.81 30.56,121.81
             30.56,121.81 33.44,119.94 33.44,119.94
             33.44,119.94 35.72,118.56 35.72,118.56
             35.72,118.56 37.91,117.75 37.91,117.75
             37.91,117.75 41.25,117.50 41.25,117.50
             41.25,117.50 44.94,117.69 44.94,117.69
             44.94,117.69 46.28,118.62 46.28,118.62
             46.28,118.62 47.09,119.53 47.09,119.53
             47.09,119.53 48.16,120.69 48.16,120.69
             48.16,120.69 48.69,121.38 48.69,121.38M 49.50,116.97
           C 49.50,116.97 48.53,115.69 48.53,115.69
             48.53,115.69 47.38,114.47 47.38,114.47
             47.38,114.47 45.47,113.56 45.47,113.56
             45.47,113.56 41.50,113.27 41.50,113.27
             41.50,113.27 37.66,113.66 37.66,113.66
             37.66,113.66 33.97,114.84 33.97,114.84
             33.97,114.84 31.66,116.41 31.66,116.41
             31.66,116.41 29.44,117.84 29.44,117.84
             29.44,117.84 28.07,119.29 28.07,119.29
             28.07,119.29 26.73,120.80 26.73,120.80
             26.73,120.80 25.78,121.80 25.78,121.80M 59.00,103.07
           C 59.00,103.07 58.18,101.02 58.18,101.02
             58.18,101.02 56.76,98.96 56.76,98.96
             56.76,98.96 55.53,97.71 55.53,97.71
             55.53,97.71 53.17,96.00 53.17,96.00
             53.17,96.00 49.83,95.35 49.83,95.35
             49.83,95.35 44.30,95.26 44.30,95.26
             44.30,95.26 42.11,95.23 42.11,95.23
             42.11,95.23 41.16,95.24 41.16,95.24
             41.16,95.24 40.47,95.37 40.47,95.37M 62.28,99.97
           C 62.28,99.97 61.39,97.36 61.39,97.36
             61.39,97.36 60.06,95.56 60.06,95.56
             60.06,95.56 58.28,94.06 58.28,94.06
             58.28,94.06 56.47,92.78 56.47,92.78
             56.47,92.78 51.24,92.00 51.24,92.00
             51.24,92.00 47.59,91.91 47.59,91.91
             47.59,91.91 45.00,91.97 45.00,91.97
             45.00,91.97 43.80,92.14 43.80,92.14M 66.38,85.44
           C 66.38,85.44 64.54,84.48 64.54,84.48
             64.54,84.48 62.16,83.11 62.16,83.11
             62.16,83.11 60.81,82.55 60.81,82.55
             60.81,82.55 59.23,82.22 59.23,82.22M 66.32,96.88
           C 66.32,96.88 68.06,103.56 68.06,103.56
             68.06,103.56 70.44,108.38 70.44,108.38
             70.44,108.38 73.25,113.94 73.25,113.94
             73.25,113.94 75.94,118.38 75.94,118.38
             75.94,118.38 79.12,121.50 79.12,121.50
             79.12,121.50 81.44,124.19 81.44,124.19
             81.44,124.19 83.50,125.56 83.50,125.56
             83.50,125.56 85.50,126.50 85.50,126.50
             85.50,126.50 85.19,121.25 85.19,121.25
             85.19,121.25 84.12,111.25 84.12,111.25
             84.12,111.25 84.38,99.81 84.38,99.81
             84.38,99.81 85.50,95.25 85.50,95.25
             85.50,95.25 86.19,93.38 86.19,93.38
             86.19,93.38 87.31,89.38 87.38,89.38
             87.44,89.38 90.25,85.12 90.25,85.12
             90.25,85.12 93.16,81.22 93.16,81.22
             93.16,81.22 95.31,78.34 95.31,78.34
             95.31,78.34 97.71,75.50 97.71,75.50
             97.71,75.50 100.50,72.50 100.50,72.50
             100.50,72.50 103.19,69.62 103.19,69.62
             103.19,69.62 105.38,64.75 105.38,64.75
             105.38,64.75 106.88,62.19 106.81,62.19
             106.75,62.19 107.44,59.56 107.44,59.56
             107.44,59.56 107.38,57.12 107.38,57.12
             107.38,57.12 107.38,49.44 107.38,49.44
             107.38,49.44 106.31,44.38 106.31,44.38
             106.31,44.38 105.00,41.69 105.00,41.69
             105.00,41.69 103.50,38.69 103.50,38.69
             103.50,38.69 101.56,36.44 101.56,36.44
             101.56,36.44 99.00,33.81 99.00,33.81
             99.00,33.81 96.44,31.25 96.44,31.25
             96.44,31.25 93.88,28.69 93.88,28.69
             93.88,28.69 91.31,26.50 91.31,26.50
             91.31,26.50 88.75,24.56 88.69,24.56
             88.62,24.56 86.75,23.25 86.75,23.25
             86.75,23.25 86.25,22.62 86.25,22.62
             86.25,22.62 86.56,27.12 86.56,27.12
             86.56,27.12 87.31,29.62 87.31,29.62
             87.31,29.62 87.81,37.00 87.81,37.00
             87.81,37.00 87.31,40.31 87.31,40.31
             87.31,40.31 86.31,43.38 86.31,43.38
             86.31,43.38 85.00,47.50 85.00,47.56
             85.00,47.62 83.38,52.00 83.38,52.00
             83.38,52.00 81.69,54.88 81.69,54.88
             81.69,54.88 79.88,58.81 79.88,58.81
             79.88,58.81 78.12,62.12 78.12,62.12
             78.12,62.12 76.44,64.44 76.44,64.44
             76.44,64.44 74.62,66.69 74.62,66.69
             74.62,66.69 72.56,69.69 72.56,69.69
             72.56,69.69 70.44,73.25 70.44,73.25
             70.44,73.25 69.06,76.38 69.06,76.38
             69.06,76.38 67.94,78.44 67.94,78.44M 99.41,79.73
           C 99.41,79.73 99.38,79.49 99.38,79.49
             99.38,79.49 99.24,78.97 99.24,78.97
             99.24,78.97 98.70,77.78 98.70,77.78
             98.70,77.78 98.11,76.31 98.11,76.31
             98.11,76.31 98.72,75.59 98.72,75.59
             98.72,75.59 100.62,75.56 100.62,75.56
             100.62,75.56 102.75,75.84 102.75,75.84
             102.75,75.84 100.50,78.47 100.50,78.47
             100.50,78.47 99.09,80.12 99.09,80.12
             99.09,80.12 98.09,81.19 98.09,81.19
             98.09,81.19 96.94,82.66 96.94,82.66
             96.94,82.66 94.88,85.09 94.88,85.09
             94.88,85.09 92.44,88.84 92.44,88.84
             92.44,88.84 90.56,91.84 90.56,91.84
             90.56,91.84 89.72,93.62 89.72,93.62
             89.72,93.62 88.75,96.72 88.75,96.72
             88.75,96.72 88.00,99.16 88.00,99.16
             88.00,99.16 87.25,101.81 87.25,101.81
             87.25,101.81 86.97,109.12 86.97,109.12
             86.97,109.12 87.59,118.12 87.59,118.12
             87.59,118.12 88.31,122.81 88.31,122.81
             88.31,122.81 89.22,124.66 89.22,124.66
             89.22,124.66 90.00,125.53 90.00,125.53
             90.00,125.53 90.56,126.06 90.56,126.06
             90.56,126.06 91.19,125.53 91.19,125.53
             91.19,125.53 91.59,124.56 91.59,124.56
             91.59,124.56 92.16,122.31 92.16,122.31
             92.16,122.31 93.16,119.22 93.16,119.22
             93.16,119.22 94.44,115.62 94.44,115.62
             94.44,115.62 95.75,113.06 95.75,113.06
             95.75,113.06 96.75,111.12 96.75,111.12
             96.75,111.12 98.19,109.06 98.19,109.06
             98.19,109.06 100.25,105.94 100.25,105.94
             100.25,105.94 103.19,103.50 103.19,103.50
             103.19,103.50 105.69,101.69 105.69,101.69
             105.69,101.69 109.06,99.62 109.06,99.62
             109.06,99.62 113.31,96.94 113.31,96.94
             113.31,96.94 115.38,95.25 115.38,95.25
             115.38,95.25 117.88,93.00 117.88,93.00
             117.88,93.00 119.81,90.12 119.81,90.12
             119.81,90.12 120.64,86.51 120.64,86.51
             120.64,86.51 121.13,83.64 121.13,83.64
             121.13,83.64 121.20,80.71 121.20,80.71
             121.20,80.71 120.38,76.25 120.38,76.25
             120.38,76.25 119.31,71.56 119.31,71.56
             119.31,71.56 118.38,67.81 118.38,67.81
             118.38,67.81 116.81,64.06 116.81,64.06
             116.81,64.06 115.38,60.88 115.38,60.88
             115.38,60.88 113.62,58.12 113.62,58.12
             113.62,58.12 112.06,55.44 112.06,55.44
             112.06,55.44 110.44,53.94 110.44,53.94
             110.44,53.94 110.56,59.44 110.56,59.44
             110.56,59.44 109.44,64.56 109.44,64.56
             109.44,64.56 107.81,67.88 107.81,67.88
             107.81,67.88 106.31,71.12 106.31,71.12
             106.31,71.12 105.12,73.00 105.12,73.00
             105.12,73.00 102.75,75.84 102.75,75.84M 86.76,91.33
           C 86.76,91.33 88.73,91.30 88.73,91.30
             88.73,91.30 90.77,91.53 90.77,91.53M 116.90,97.71
           C 116.90,97.71 115.19,96.81 115.19,96.81
             115.19,96.81 114.13,96.27 114.13,96.27M 64.00,137.46
           C 64.00,137.46 67.84,138.38 67.84,138.34
             67.84,138.31 74.57,139.48 74.57,139.48
             74.57,139.48 84.00,140.43 84.00,140.43
             84.00,140.43 98.04,140.57 98.04,140.57
             98.04,140.57 106.75,139.81 106.75,139.81
             106.75,139.81 111.81,138.88 111.81,138.88
             111.81,138.88 117.77,137.43 117.77,137.43M 96.71,211.47
           C 96.71,211.47 96.62,213.82 96.62,213.82
             96.62,213.82 96.27,228.40 96.22,228.40
             96.18,228.40 95.62,243.12 95.62,243.12
             95.62,243.12 95.31,255.44 95.31,255.44
             95.31,255.44 94.38,256.56 94.38,256.56
             94.38,256.56 92.88,256.69 92.88,256.69
             92.88,256.69 91.25,256.56 91.25,256.56
             91.25,256.56 90.31,255.38 90.31,255.38
             90.31,255.38 89.75,243.62 89.75,243.62
             89.75,243.62 88.94,228.75 88.94,228.75
             88.94,228.75 88.33,213.87 88.33,213.87
             88.33,213.87 88.25,210.83 88.25,210.83" />
</svg>
