solid OpenSCAD_Model
  facet normal -1 0 0
    outer loop
      vertex 0 0 0
      vertex 0 0 19.05
      vertex 0 38.1 0
    endloop
  endfacet
  facet normal -1 0 0
    outer loop
      vertex 0 38.1 0
      vertex 0 0 19.05
      vertex 0 38.1 19.05
    endloop
  endfacet
  facet normal -0.994522 -0.104529 0
    outer loop
      vertex 0 0 0
      vertex 0.474569 -4.51522 0
      vertex 0 0 19.05
    endloop
  endfacet
  facet normal -0.994522 -0.104529 0
    outer loop
      vertex 0 0 19.05
      vertex 0.474569 -4.51522 0
      vertex 0.474569 -4.51522 19.05
    endloop
  endfacet
  facet normal 0 0 -1
    outer loop
      vertex 0 0 0
      vertex 0 38.1 0
      vertex 0.474569 -4.51522 0
    endloop
  endfacet
  facet normal 0 0 -1
    outer loop
      vertex 23.7443 29.0972 0
      vertex 0 38.1 0
      vertex 43.434 38.1 0
    endloop
  endfacet
  facet normal 0 0 -1
    outer loop
      vertex 39.624 3.175 0
      vertex 43.434 38.1 0
      vertex 43.434 0 0
    endloop
  endfacet
  facet normal 0 0 -1
    outer loop
      vertex 27.0525 -4.20855 0
      vertex 43.434 0 0
      vertex 42.9594 -4.51522 0
    endloop
  endfacet
  facet normal 0 0 -1
    outer loop
      vertex 23.7505 -6.11501 0
      vertex 42.9594 -4.51522 0
      vertex 41.5565 -8.8331 0
    endloop
  endfacet
  facet normal 0 0 -1
    outer loop
      vertex 0.474569 -4.51522 0
      vertex 41.5565 -8.8331 0
      vertex 39.2864 -12.7649 0
    endloop
  endfacet
  facet normal 0 0 -1
    outer loop
      vertex 0.474569 -4.51522 0
      vertex 39.2864 -12.7649 0
      vertex 36.2485 -16.1389 0
    endloop
  endfacet
  facet normal 0 0 -1
    outer loop
      vertex 0.474569 -4.51522 0
      vertex 36.2485 -16.1389 0
      vertex 32.5755 -18.8075 0
    endloop
  endfacet
  facet normal 0 0 -1
    outer loop
      vertex 0.474569 -4.51522 0
      vertex 32.5755 -18.8075 0
      vertex 28.4279 -20.6541 0
    endloop
  endfacet
  facet normal 0 0 -1
    outer loop
      vertex 0.474569 -4.51522 0
      vertex 28.4279 -20.6541 0
      vertex 23.987 -21.598 0
    endloop
  endfacet
  facet normal 0 0 -1
    outer loop
      vertex 0.474569 -4.51522 0
      vertex 23.987 -21.598 0
      vertex 19.447 -21.598 0
    endloop
  endfacet
  facet normal 0 0 -1
    outer loop
      vertex 0.474569 -4.51522 0
      vertex 19.447 -21.598 0
      vertex 15.0061 -20.6541 0
    endloop
  endfacet
  facet normal 0 0 -1
    outer loop
      vertex 0.474569 -4.51522 0
      vertex 15.0061 -20.6541 0
      vertex 10.8585 -18.8075 0
    endloop
  endfacet
  facet normal 0 0 -1
    outer loop
      vertex 0.474569 -4.51522 0
      vertex 10.8585 -18.8075 0
      vertex 7.18549 -16.1389 0
    endloop
  endfacet
  facet normal 0 0 -1
    outer loop
      vertex 0.474569 -4.51522 0
      vertex 7.18549 -16.1389 0
      vertex 4.14758 -12.7649 0
    endloop
  endfacet
  facet normal 0 0 -1
    outer loop
      vertex 0.474569 -4.51522 0
      vertex 4.14758 -12.7649 0
      vertex 1.87753 -8.8331 0
    endloop
  endfacet
  facet normal 0 0 -1
    outer loop
      vertex 0.474569 -4.51522 0
      vertex 0 38.1 0
      vertex 4.064 11.557 0
    endloop
  endfacet
  facet normal 0 0 -1
    outer loop
      vertex 0.474569 -4.51522 0
      vertex 4.064 11.557 0
      vertex 4.064 3.175 0
    endloop
  endfacet
  facet normal 0 0 -1
    outer loop
      vertex 0.474569 -4.51522 0
      vertex 4.064 3.175 0
      vertex 4.19775 3.175 0
    endloop
  endfacet
  facet normal 0 0 -1
    outer loop
      vertex 0.474569 -4.51522 0
      vertex 4.19775 3.175 0
      vertex 4.19775 2.24472 0
    endloop
  endfacet
  facet normal 0 0 -1
    outer loop
      vertex 0.474569 -4.51522 0
      vertex 4.19775 2.24472 0
      vertex 5.20365 0.679515 0
    endloop
  endfacet
  facet normal 0 0 -1
    outer loop
      vertex 29.0783 2.92327e-017 0
      vertex 35.8521 -0.09339 0
      vertex 28.959 -0.906461 0
    endloop
  endfacet
  facet normal 0 0 -1
    outer loop
      vertex 14.729 -0.906461 0
      vertex 6.89608 -0.09339 0
      vertex 14.6097 3.24193e-015 0
    endloop
  endfacet
  facet normal 0 0 -1
    outer loop
      vertex 14.478 3.27116e-015 0
      vertex 10.1438 1.3898 0
      vertex 10.668 3.175 0
    endloop
  endfacet
  facet normal 0 0 -1
    outer loop
      vertex 34.1596 14.0525 0
      vertex 43.434 38.1 0
      vertex 35.8521 14.8254 0
    endloop
  endfacet
  facet normal 0 0 -1
    outer loop
      vertex 5.20365 14.0525 0
      vertex 0 38.1 0
      vertex 6.89608 14.8254 0
    endloop
  endfacet
  facet normal 0 0 -1
    outer loop
      vertex 4.19775 11.557 0
      vertex 4.064 11.557 0
      vertex 4.19775 12.4873 0
    endloop
  endfacet
  facet normal 0 0 -1
    outer loop
      vertex 4.19775 12.4873 0
      vertex 0 38.1 0
      vertex 5.20365 14.0525 0
    endloop
  endfacet
  facet normal 0 0 -1
    outer loop
      vertex 4.064 11.557 0
      vertex 0 38.1 0
      vertex 4.19775 12.4873 0
    endloop
  endfacet
  facet normal 0 0 -1
    outer loop
      vertex 27.4003 24.892 0
      vertex 43.434 38.1 0
      vertex 27.4003 17.9634 0
    endloop
  endfacet
  facet normal 0 0 -1
    outer loop
      vertex 10.668 11.557 0
      vertex 10.1438 13.3422 0
      vertex 14.478 14.732 0
    endloop
  endfacet
  facet normal 0 0 -1
    outer loop
      vertex 14.478 3.27116e-015 0
      vertex 8.7377 0.171395 0
      vertex 10.1438 1.3898 0
    endloop
  endfacet
  facet normal 0 0 -1
    outer loop
      vertex 6.89608 -0.09339 0
      vertex 8.7377 0.171395 0
      vertex 14.478 3.27116e-015 0
    endloop
  endfacet
  facet normal 0 0 -1
    outer loop
      vertex 6.89608 -0.09339 0
      vertex 14.478 3.27116e-015 0
      vertex 14.6097 3.24193e-015 0
    endloop
  endfacet
  facet normal 0 0 -1
    outer loop
      vertex 14.6786 14.732 0
      vertex 14.478 14.732 0
      vertex 14.729 15.1145 0
    endloop
  endfacet
  facet normal 0 0 -1
    outer loop
      vertex 0.474569 -4.51522 0
      vertex 6.89608 -0.09339 0
      vertex 14.729 -0.906461 0
    endloop
  endfacet
  facet normal 0 0 -1
    outer loop
      vertex 0.474569 -4.51522 0
      vertex 14.729 -0.906461 0
      vertex 15.4649 -2.683 0
    endloop
  endfacet
  facet normal 0 0 -1
    outer loop
      vertex 18.161 -5.37914 0
      vertex 0.474569 -4.51522 0
      vertex 16.6355 -4.20855 0
    endloop
  endfacet
  facet normal 0 0 -1
    outer loop
      vertex 23.7505 -6.11501 0
      vertex 41.5565 -8.8331 0
      vertex 21.844 -6.366 0
    endloop
  endfacet
  facet normal 0 0 -1
    outer loop
      vertex 0.474569 -4.51522 0
      vertex 18.161 -5.37914 0
      vertex 19.9375 -6.11501 0
    endloop
  endfacet
  facet normal 0 0 -1
    outer loop
      vertex 0.474569 -4.51522 0
      vertex 19.9375 -6.11501 0
      vertex 21.844 -6.366 0
    endloop
  endfacet
  facet normal 0 0 -1
    outer loop
      vertex 0.474569 -4.51522 0
      vertex 21.844 -6.366 0
      vertex 41.5565 -8.8331 0
    endloop
  endfacet
  facet normal 0 0 -1
    outer loop
      vertex 25.527 -5.37914 0
      vertex 42.9594 -4.51522 0
      vertex 23.7505 -6.11501 0
    endloop
  endfacet
  facet normal 0 0 -1
    outer loop
      vertex 27.0525 -4.20855 0
      vertex 42.9594 -4.51522 0
      vertex 25.527 -5.37914 0
    endloop
  endfacet
  facet normal 0 0 -1
    outer loop
      vertex 28.2231 -2.683 0
      vertex 43.434 0 0
      vertex 27.0525 -4.20855 0
    endloop
  endfacet
  facet normal 0 0 -1
    outer loop
      vertex 28.959 -0.906461 0
      vertex 43.434 0 0
      vertex 28.2231 -2.683 0
    endloop
  endfacet
  facet normal 0 0 -1
    outer loop
      vertex 35.8521 -0.09339 0
      vertex 43.434 0 0
      vertex 28.959 -0.906461 0
    endloop
  endfacet
  facet normal 0 0 -1
    outer loop
      vertex 37.6937 0.171395 0
      vertex 43.434 0 0
      vertex 35.8521 -0.09339 0
    endloop
  endfacet
  facet normal 0 0 -1
    outer loop
      vertex 29.21 14.732 0
      vertex 43.434 38.1 0
      vertex 29.21 13.208 0
    endloop
  endfacet
  facet normal 0 0 -1
    outer loop
      vertex 29.0094 14.732 0
      vertex 43.434 38.1 0
      vertex 29.21 14.732 0
    endloop
  endfacet
  facet normal 0 0 -1
    outer loop
      vertex 28.959 15.1145 0
      vertex 43.434 38.1 0
      vertex 29.0094 14.732 0
    endloop
  endfacet
  facet normal 0 0 -1
    outer loop
      vertex 28.2231 16.891 0
      vertex 43.434 38.1 0
      vertex 28.959 15.1145 0
    endloop
  endfacet
  facet normal 0 0 -1
    outer loop
      vertex 27.4003 17.9634 0
      vertex 43.434 38.1 0
      vertex 28.2231 16.891 0
    endloop
  endfacet
  facet normal 0 0 -1
    outer loop
      vertex 14.478 3.27116e-015 0
      vertex 10.668 11.557 0
      vertex 14.478 14.732 0
    endloop
  endfacet
  facet normal 0 0 -1
    outer loop
      vertex 14.478 3.27116e-015 0
      vertex 10.668 3.175 0
      vertex 10.668 11.557 0
    endloop
  endfacet
  facet normal 0 0 -1
    outer loop
      vertex 27.4003 24.892 0
      vertex 27.2972 24.892 0
      vertex 43.434 38.1 0
    endloop
  endfacet
  facet normal 0 0 -1
    outer loop
      vertex 25.4155 28.1323 0
      vertex 43.434 38.1 0
      vertex 26.6559 26.6541 0
    endloop
  endfacet
  facet normal 0 0 -1
    outer loop
      vertex 16.2878 24.892 0
      vertex 6.89608 14.8254 0
      vertex 17.0321 26.6541 0
    endloop
  endfacet
  facet normal 0 0 -1
    outer loop
      vertex 21.844 29.4322 0
      vertex 0 38.1 0
      vertex 23.7443 29.0972 0
    endloop
  endfacet
  facet normal 0 0 -1
    outer loop
      vertex 16.3908 24.892 0
      vertex 16.2878 24.892 0
      vertex 17.0321 26.6541 0
    endloop
  endfacet
  facet normal 0 0 -1
    outer loop
      vertex 25.4155 28.1323 0
      vertex 23.7443 29.0972 0
      vertex 43.434 38.1 0
    endloop
  endfacet
  facet normal 0 0 -1
    outer loop
      vertex 19.9437 29.0972 0
      vertex 0 38.1 0
      vertex 21.844 29.4322 0
    endloop
  endfacet
  facet normal 0 0 -1
    outer loop
      vertex 18.2725 28.1323 0
      vertex 0 38.1 0
      vertex 19.9437 29.0972 0
    endloop
  endfacet
  facet normal 0 0 -1
    outer loop
      vertex 6.89608 14.8254 0
      vertex 0 38.1 0
      vertex 18.2725 28.1323 0
    endloop
  endfacet
  facet normal 0 0 -1
    outer loop
      vertex 6.89608 14.8254 0
      vertex 18.2725 28.1323 0
      vertex 17.0321 26.6541 0
    endloop
  endfacet
  facet normal 0 0 -1
    outer loop
      vertex 16.2878 17.9634 0
      vertex 6.89608 14.8254 0
      vertex 16.2878 24.892 0
    endloop
  endfacet
  facet normal 0 0 -1
    outer loop
      vertex 16.2878 17.9634 0
      vertex 10.1438 13.3422 0
      vertex 8.7377 14.5606 0
    endloop
  endfacet
  facet normal 0 0 -1
    outer loop
      vertex 16.2878 17.9634 0
      vertex 8.7377 14.5606 0
      vertex 6.89608 14.8254 0
    endloop
  endfacet
  facet normal 0 0 -1
    outer loop
      vertex 15.4649 16.891 0
      vertex 10.1438 13.3422 0
      vertex 16.2878 17.9634 0
    endloop
  endfacet
  facet normal 0 0 -1
    outer loop
      vertex 14.478 14.732 0
      vertex 10.1438 13.3422 0
      vertex 15.4649 16.891 0
    endloop
  endfacet
  facet normal 0 0 -1
    outer loop
      vertex 14.478 14.732 0
      vertex 15.4649 16.891 0
      vertex 14.729 15.1145 0
    endloop
  endfacet
  facet normal 0 0 -1
    outer loop
      vertex 33.1538 11.557 0
      vertex 33.02 11.557 0
      vertex 33.1538 12.4873 0
    endloop
  endfacet
  facet normal 0 0 -1
    outer loop
      vertex 29.21 13.208 0
      vertex 33.02 11.557 0
      vertex 29.21 1 0
    endloop
  endfacet
  facet normal 0 0 -1
    outer loop
      vertex 33.1538 12.4873 0
      vertex 43.434 38.1 0
      vertex 34.1596 14.0525 0
    endloop
  endfacet
  facet normal 0 0 -1
    outer loop
      vertex 35.8521 -0.09339 0
      vertex 29.21 0 0
      vertex 29.21 1 0
    endloop
  endfacet
  facet normal 0 0 -1
    outer loop
      vertex 35.8521 -0.09339 0
      vertex 29.21 1 0
      vertex 34.1596 0.679515 0
    endloop
  endfacet
  facet normal 0 0 -1
    outer loop
      vertex 29.21 1 0
      vertex 33.02 3.175 0
      vertex 33.1538 2.24472 0
    endloop
  endfacet
  facet normal 0 0 -1
    outer loop
      vertex 29.21 1 0
      vertex 33.1538 2.24472 0
      vertex 34.1596 0.679515 0
    endloop
  endfacet
  facet normal 0 0 -1
    outer loop
      vertex 16.6355 -4.20855 0
      vertex 0.474569 -4.51522 0
      vertex 15.4649 -2.683 0
    endloop
  endfacet
  facet normal 0 0 -1
    outer loop
      vertex 29.0783 2.92327e-017 0
      vertex 29.21 0 0
      vertex 35.8521 -0.09339 0
    endloop
  endfacet
  facet normal 0 0 -1
    outer loop
      vertex 39.0998 1.3898 0
      vertex 43.434 0 0
      vertex 37.6937 0.171395 0
    endloop
  endfacet
  facet normal 0 0 -1
    outer loop
      vertex 35.8521 14.8254 0
      vertex 43.434 38.1 0
      vertex 37.6937 14.5606 0
    endloop
  endfacet
  facet normal 0 0 -1
    outer loop
      vertex 39.624 11.557 0
      vertex 43.434 38.1 0
      vertex 39.624 3.175 0
    endloop
  endfacet
  facet normal 0 0 -1
    outer loop
      vertex 39.0998 1.3898 0
      vertex 39.624 3.175 0
      vertex 43.434 0 0
    endloop
  endfacet
  facet normal 0 0 -1
    outer loop
      vertex 39.0998 13.3422 0
      vertex 43.434 38.1 0
      vertex 39.624 11.557 0
    endloop
  endfacet
  facet normal 0 0 -1
    outer loop
      vertex 37.6937 14.5606 0
      vertex 43.434 38.1 0
      vertex 39.0998 13.3422 0
    endloop
  endfacet
  facet normal 0 0 -1
    outer loop
      vertex 33.1538 2.24472 0
      vertex 33.02 3.175 0
      vertex 33.1538 3.175 0
    endloop
  endfacet
  facet normal 0 0 -1
    outer loop
      vertex 29.21 13.208 0
      vertex 43.434 38.1 0
      vertex 33.1538 12.4873 0
    endloop
  endfacet
  facet normal 0 0 -1
    outer loop
      vertex 29.21 13.208 0
      vertex 33.1538 12.4873 0
      vertex 33.02 11.557 0
    endloop
  endfacet
  facet normal 0 0 -1
    outer loop
      vertex 6.89608 -0.09339 0
      vertex 0.474569 -4.51522 0
      vertex 5.20365 0.679515 0
    endloop
  endfacet
  facet normal 0 0 -1
    outer loop
      vertex 33.02 3.175 0
      vertex 29.21 1 0
      vertex 33.02 11.557 0
    endloop
  endfacet
  facet normal 0 0 -1
    outer loop
      vertex 26.6559 26.6541 0
      vertex 43.434 38.1 0
      vertex 27.2972 24.892 0
    endloop
  endfacet
  facet normal 0 1 0
    outer loop
      vertex 22.6981 38.1 12.5446
      vertex 0 38.1 19.05
      vertex 43.434 38.1 19.05
    endloop
  endfacet
  facet normal 0 1 0
    outer loop
      vertex 0 38.1 0
      vertex 0 38.1 19.05
      vertex 18.542 38.1 9.525
    endloop
  endfacet
  facet normal 0 1 0
    outer loop
      vertex 0 38.1 0
      vertex 18.542 38.1 9.525
      vertex 19.1484 38.1 7.65878
    endloop
  endfacet
  facet normal 0 1 0
    outer loop
      vertex 0 38.1 0
      vertex 19.1484 38.1 7.65878
      vertex 20.7359 38.1 6.5054
    endloop
  endfacet
  facet normal 0 1 0
    outer loop
      vertex 0 38.1 0
      vertex 20.7359 38.1 6.5054
      vertex 43.434 38.1 0
    endloop
  endfacet
  facet normal 0 1 0
    outer loop
      vertex 20.7359 38.1 6.5054
      vertex 22.6981 38.1 6.5054
      vertex 43.434 38.1 0
    endloop
  endfacet
  facet normal 0 1 0
    outer loop
      vertex 24.2856 38.1 7.65878
      vertex 43.434 38.1 0
      vertex 22.6981 38.1 6.5054
    endloop
  endfacet
  facet normal 0 1 0
    outer loop
      vertex 24.892 38.1 9.525
      vertex 43.434 38.1 0
      vertex 24.2856 38.1 7.65878
    endloop
  endfacet
  facet normal 0 1 0
    outer loop
      vertex 43.434 38.1 0
      vertex 24.892 38.1 9.525
      vertex 43.434 38.1 19.05
    endloop
  endfacet
  facet normal 0 1 0
    outer loop
      vertex 24.892 38.1 9.525
      vertex 24.2856 38.1 11.3912
      vertex 43.434 38.1 19.05
    endloop
  endfacet
  facet normal 0 1 0
    outer loop
      vertex 20.7359 38.1 12.5446
      vertex 0 38.1 19.05
      vertex 22.6981 38.1 12.5446
    endloop
  endfacet
  facet normal 0 1 0
    outer loop
      vertex 24.2856 38.1 11.3912
      vertex 22.6981 38.1 12.5446
      vertex 43.434 38.1 19.05
    endloop
  endfacet
  facet normal 0 1 0
    outer loop
      vertex 19.1484 38.1 11.3912
      vertex 0 38.1 19.05
      vertex 20.7359 38.1 12.5446
    endloop
  endfacet
  facet normal 0 1 0
    outer loop
      vertex 18.542 38.1 9.525
      vertex 0 38.1 19.05
      vertex 19.1484 38.1 11.3912
    endloop
  endfacet
  facet normal 0 0 1
    outer loop
      vertex 0 38.1 19.05
      vertex 0 0 19.05
      vertex 0.474569 -4.51522 19.05
    endloop
  endfacet
  facet normal 0 0 1
    outer loop
      vertex 4.14758 -12.7649 19.05
      vertex 0 38.1 19.05
      vertex 1.87753 -8.8331 19.05
    endloop
  endfacet
  facet normal 0 0 1
    outer loop
      vertex 1.87753 -8.8331 19.05
      vertex 0 38.1 19.05
      vertex 0.474569 -4.51522 19.05
    endloop
  endfacet
  facet normal 0 0 1
    outer loop
      vertex 4.064 3.175 19.05
      vertex 0 38.1 19.05
      vertex 4.14758 -12.7649 19.05
    endloop
  endfacet
  facet normal 0 0 1
    outer loop
      vertex 8.7377 0.171395 19.05
      vertex 6.89608 -0.09339 19.05
      vertex 10.8585 -18.8075 19.05
    endloop
  endfacet
  facet normal 0 0 1
    outer loop
      vertex 33.02 3.175 19.05
      vertex 33.02 11.557 19.05
      vertex 29.21 14.732 19.05
    endloop
  endfacet
  facet normal 0 0 1
    outer loop
      vertex 29.21 13.208 19.05
      vertex 33.1538 2.24472 19.05
      vertex 33.02 3.175 19.05
    endloop
  endfacet
  facet normal 0 0 1
    outer loop
      vertex 27.4003 24.892 19.05
      vertex 33.1538 11.557 19.05
      vertex 33.1538 12.4873 19.05
    endloop
  endfacet
  facet normal 0 0 1
    outer loop
      vertex 4.19775 2.24472 19.05
      vertex 4.064 3.175 19.05
      vertex 4.14758 -12.7649 19.05
    endloop
  endfacet
  facet normal 0 0 1
    outer loop
      vertex 16.2878 17.9634 19.05
      vertex 16.2878 24.892 19.05
      vertex 0 38.1 19.05
    endloop
  endfacet
  facet normal 0 0 1
    outer loop
      vertex 4.19775 11.557 19.05
      vertex 0 38.1 19.05
      vertex 4.064 11.557 19.05
    endloop
  endfacet
  facet normal 0 0 1
    outer loop
      vertex 5.20365 0.679515 19.05
      vertex 4.19775 2.24472 19.05
      vertex 7.18549 -16.1389 19.05
    endloop
  endfacet
  facet normal 0 0 1
    outer loop
      vertex 4.19775 12.4873 19.05
      vertex 0 38.1 19.05
      vertex 4.19775 11.557 19.05
    endloop
  endfacet
  facet normal 0 0 1
    outer loop
      vertex 8.7377 14.5606 19.05
      vertex 10.1438 13.3422 19.05
      vertex 0 38.1 19.05
    endloop
  endfacet
  facet normal 0 0 1
    outer loop
      vertex 6.89608 14.8254 19.05
      vertex 8.7377 14.5606 19.05
      vertex 0 38.1 19.05
    endloop
  endfacet
  facet normal 0 0 1
    outer loop
      vertex 10.1438 1.3898 19.05
      vertex 8.7377 0.171395 19.05
      vertex 15.0061 -20.6541 19.05
    endloop
  endfacet
  facet normal 0 0 1
    outer loop
      vertex 29.21 1 19.05
      vertex 29.21 0 19.05
      vertex 39.2864 -12.7649 19.05
    endloop
  endfacet
  facet normal 0 0 1
    outer loop
      vertex 19.447 -21.598 19.05
      vertex 10.668 3.175 19.05
      vertex 15.0061 -20.6541 19.05
    endloop
  endfacet
  facet normal 0 0 1
    outer loop
      vertex 10.668 3.175 19.05
      vertex 10.1438 1.3898 19.05
      vertex 15.0061 -20.6541 19.05
    endloop
  endfacet
  facet normal 0 0 1
    outer loop
      vertex 15.0061 -20.6541 19.05
      vertex 8.7377 0.171395 19.05
      vertex 10.8585 -18.8075 19.05
    endloop
  endfacet
  facet normal 0 0 1
    outer loop
      vertex 5.20365 14.0525 19.05
      vertex 6.89608 14.8254 19.05
      vertex 0 38.1 19.05
    endloop
  endfacet
  facet normal 0 0 1
    outer loop
      vertex 4.19775 2.24472 19.05
      vertex 4.19775 3.175 19.05
      vertex 4.064 3.175 19.05
    endloop
  endfacet
  facet normal 0 0 1
    outer loop
      vertex 7.18549 -16.1389 19.05
      vertex 4.19775 2.24472 19.05
      vertex 4.14758 -12.7649 19.05
    endloop
  endfacet
  facet normal 0 0 1
    outer loop
      vertex 4.19775 12.4873 19.05
      vertex 5.20365 14.0525 19.05
      vertex 0 38.1 19.05
    endloop
  endfacet
  facet normal 0 0 1
    outer loop
      vertex 14.729 -0.906461 19.05
      vertex 14.478 3.27116e-015 19.05
      vertex 19.447 -21.598 19.05
    endloop
  endfacet
  facet normal 0 0 1
    outer loop
      vertex 6.89608 -0.09339 19.05
      vertex 7.18549 -16.1389 19.05
      vertex 10.8585 -18.8075 19.05
    endloop
  endfacet
  facet normal 0 0 1
    outer loop
      vertex 16.6355 -4.20855 19.05
      vertex 15.4649 -2.683 19.05
      vertex 23.987 -21.598 19.05
    endloop
  endfacet
  facet normal 0 0 1
    outer loop
      vertex 14.6786 14.732 19.05
      vertex 0 38.1 19.05
      vertex 14.478 14.732 19.05
    endloop
  endfacet
  facet normal 0 0 1
    outer loop
      vertex 25.527 -5.37914 19.05
      vertex 23.7505 -6.11501 19.05
      vertex 32.5755 -18.8075 19.05
    endloop
  endfacet
  facet normal 0 0 1
    outer loop
      vertex 14.729 15.1145 19.05
      vertex 0 38.1 19.05
      vertex 14.6786 14.732 19.05
    endloop
  endfacet
  facet normal 0 0 1
    outer loop
      vertex 14.729 -0.906461 19.05
      vertex 14.6097 3.24193e-015 19.05
      vertex 14.478 3.27116e-015 19.05
    endloop
  endfacet
  facet normal 0 0 1
    outer loop
      vertex 33.02 3.175 19.05
      vertex 29.21 14.732 19.05
      vertex 29.21 13.208 19.05
    endloop
  endfacet
  facet normal 0 0 1
    outer loop
      vertex 29.0783 2.92327e-017 19.05
      vertex 28.959 -0.906461 19.05
      vertex 39.2864 -12.7649 19.05
    endloop
  endfacet
  facet normal 0 0 1
    outer loop
      vertex 34.1596 0.679515 19.05
      vertex 29.21 1 19.05
      vertex 41.5565 -8.8331 19.05
    endloop
  endfacet
  facet normal 0 0 1
    outer loop
      vertex 17.0321 26.6541 19.05
      vertex 0 38.1 19.05
      vertex 16.2878 24.892 19.05
    endloop
  endfacet
  facet normal 0 0 1
    outer loop
      vertex 26.6559 26.6541 19.05
      vertex 27.2972 24.892 19.05
      vertex 27.4003 24.892 19.05
    endloop
  endfacet
  facet normal 0 0 1
    outer loop
      vertex 18.2725 28.1323 19.05
      vertex 0 38.1 19.05
      vertex 17.0321 26.6541 19.05
    endloop
  endfacet
  facet normal 0 0 1
    outer loop
      vertex 19.9437 29.0972 19.05
      vertex 0 38.1 19.05
      vertex 18.2725 28.1323 19.05
    endloop
  endfacet
  facet normal 0 0 1
    outer loop
      vertex 21.844 29.4322 19.05
      vertex 23.7443 29.0972 19.05
      vertex 43.434 38.1 19.05
    endloop
  endfacet
  facet normal 0 0 1
    outer loop
      vertex 43.434 38.1 19.05
      vertex 0 38.1 19.05
      vertex 19.9437 29.0972 19.05
    endloop
  endfacet
  facet normal 0 0 1
    outer loop
      vertex 23.7443 29.0972 19.05
      vertex 25.4155 28.1323 19.05
      vertex 43.434 38.1 19.05
    endloop
  endfacet
  facet normal 0 0 1
    outer loop
      vertex 19.9437 29.0972 19.05
      vertex 21.844 29.4322 19.05
      vertex 43.434 38.1 19.05
    endloop
  endfacet
  facet normal 0 0 1
    outer loop
      vertex 27.4003 24.892 19.05
      vertex 33.1538 12.4873 19.05
      vertex 34.1596 14.0525 19.05
    endloop
  endfacet
  facet normal 0 0 1
    outer loop
      vertex 43.434 38.1 19.05
      vertex 25.4155 28.1323 19.05
      vertex 26.6559 26.6541 19.05
    endloop
  endfacet
  facet normal 0 0 1
    outer loop
      vertex 39.624 11.557 19.05
      vertex 39.624 3.175 19.05
      vertex 43.434 0 19.05
    endloop
  endfacet
  facet normal 0 0 1
    outer loop
      vertex 34.1596 14.0525 19.05
      vertex 26.6559 26.6541 19.05
      vertex 27.4003 24.892 19.05
    endloop
  endfacet
  facet normal 0 0 1
    outer loop
      vertex 37.6937 0.171395 19.05
      vertex 35.8521 -0.09339 19.05
      vertex 42.9594 -4.51522 19.05
    endloop
  endfacet
  facet normal 0 0 1
    outer loop
      vertex 33.02 11.557 19.05
      vertex 27.4003 17.9634 19.05
      vertex 28.2231 16.891 19.05
    endloop
  endfacet
  facet normal 0 0 1
    outer loop
      vertex 28.959 15.1145 19.05
      vertex 29.0094 14.732 19.05
      vertex 29.21 14.732 19.05
    endloop
  endfacet
  facet normal 0 0 1
    outer loop
      vertex 41.5565 -8.8331 19.05
      vertex 29.21 1 19.05
      vertex 39.2864 -12.7649 19.05
    endloop
  endfacet
  facet normal 0 0 1
    outer loop
      vertex 29.21 14.732 19.05
      vertex 33.02 11.557 19.05
      vertex 28.959 15.1145 19.05
    endloop
  endfacet
  facet normal 0 0 1
    outer loop
      vertex 39.2864 -12.7649 19.05
      vertex 29.21 0 19.05
      vertex 29.0783 2.92327e-017 19.05
    endloop
  endfacet
  facet normal 0 0 1
    outer loop
      vertex 39.2864 -12.7649 19.05
      vertex 28.959 -0.906461 19.05
      vertex 36.2485 -16.1389 19.05
    endloop
  endfacet
  facet normal 0 0 1
    outer loop
      vertex 28.959 -0.906461 19.05
      vertex 28.2231 -2.683 19.05
      vertex 36.2485 -16.1389 19.05
    endloop
  endfacet
  facet normal 0 0 1
    outer loop
      vertex 36.2485 -16.1389 19.05
      vertex 27.0525 -4.20855 19.05
      vertex 32.5755 -18.8075 19.05
    endloop
  endfacet
  facet normal 0 0 1
    outer loop
      vertex 27.0525 -4.20855 19.05
      vertex 25.527 -5.37914 19.05
      vertex 32.5755 -18.8075 19.05
    endloop
  endfacet
  facet normal 0 0 1
    outer loop
      vertex 32.5755 -18.8075 19.05
      vertex 23.7505 -6.11501 19.05
      vertex 28.4279 -20.6541 19.05
    endloop
  endfacet
  facet normal 0 0 1
    outer loop
      vertex 14.729 15.1145 19.05
      vertex 15.4649 16.891 19.05
      vertex 0 38.1 19.05
    endloop
  endfacet
  facet normal 0 0 1
    outer loop
      vertex 23.7505 -6.11501 19.05
      vertex 21.844 -6.366 19.05
      vertex 28.4279 -20.6541 19.05
    endloop
  endfacet
  facet normal 0 0 1
    outer loop
      vertex 15.4649 16.891 19.05
      vertex 16.2878 17.9634 19.05
      vertex 0 38.1 19.05
    endloop
  endfacet
  facet normal 0 0 1
    outer loop
      vertex 28.4279 -20.6541 19.05
      vertex 19.9375 -6.11501 19.05
      vertex 23.987 -21.598 19.05
    endloop
  endfacet
  facet normal 0 0 1
    outer loop
      vertex 19.9375 -6.11501 19.05
      vertex 18.161 -5.37914 19.05
      vertex 23.987 -21.598 19.05
    endloop
  endfacet
  facet normal 0 0 1
    outer loop
      vertex 28.2231 -2.683 19.05
      vertex 27.0525 -4.20855 19.05
      vertex 36.2485 -16.1389 19.05
    endloop
  endfacet
  facet normal 0 0 1
    outer loop
      vertex 18.161 -5.37914 19.05
      vertex 16.6355 -4.20855 19.05
      vertex 23.987 -21.598 19.05
    endloop
  endfacet
  facet normal 0 0 1
    outer loop
      vertex 23.987 -21.598 19.05
      vertex 15.4649 -2.683 19.05
      vertex 19.447 -21.598 19.05
    endloop
  endfacet
  facet normal 0 0 1
    outer loop
      vertex 15.4649 -2.683 19.05
      vertex 14.729 -0.906461 19.05
      vertex 19.447 -21.598 19.05
    endloop
  endfacet
  facet normal 0 0 1
    outer loop
      vertex 39.0998 1.3898 19.05
      vertex 37.6937 0.171395 19.05
      vertex 42.9594 -4.51522 19.05
    endloop
  endfacet
  facet normal 0 0 1
    outer loop
      vertex 6.89608 -0.09339 19.05
      vertex 5.20365 0.679515 19.05
      vertex 7.18549 -16.1389 19.05
    endloop
  endfacet
  facet normal 0 0 1
    outer loop
      vertex 34.1596 14.0525 19.05
      vertex 35.8521 14.8254 19.05
      vertex 26.6559 26.6541 19.05
    endloop
  endfacet
  facet normal 0 0 1
    outer loop
      vertex 28.2231 16.891 19.05
      vertex 28.959 15.1145 19.05
      vertex 33.02 11.557 19.05
    endloop
  endfacet
  facet normal 0 0 1
    outer loop
      vertex 33.1538 2.24472 19.05
      vertex 33.1538 3.175 19.05
      vertex 33.02 3.175 19.05
    endloop
  endfacet
  facet normal 0 0 1
    outer loop
      vertex 33.02 11.557 19.05
      vertex 33.1538 11.557 19.05
      vertex 27.4003 17.9634 19.05
    endloop
  endfacet
  facet normal 0 0 1
    outer loop
      vertex 43.434 38.1 19.05
      vertex 26.6559 26.6541 19.05
      vertex 35.8521 14.8254 19.05
    endloop
  endfacet
  facet normal 0 0 1
    outer loop
      vertex 43.434 38.1 19.05
      vertex 35.8521 14.8254 19.05
      vertex 37.6937 14.5606 19.05
    endloop
  endfacet
  facet normal 0 0 1
    outer loop
      vertex 43.434 38.1 19.05
      vertex 39.0998 13.3422 19.05
      vertex 43.434 0 19.05
    endloop
  endfacet
  facet normal 0 0 1
    outer loop
      vertex 43.434 38.1 19.05
      vertex 37.6937 14.5606 19.05
      vertex 39.0998 13.3422 19.05
    endloop
  endfacet
  facet normal 0 0 1
    outer loop
      vertex 39.0998 13.3422 19.05
      vertex 39.624 11.557 19.05
      vertex 43.434 0 19.05
    endloop
  endfacet
  facet normal 0 0 1
    outer loop
      vertex 43.434 0 19.05
      vertex 39.624 3.175 19.05
      vertex 42.9594 -4.51522 19.05
    endloop
  endfacet
  facet normal 0 0 1
    outer loop
      vertex 39.624 3.175 19.05
      vertex 39.0998 1.3898 19.05
      vertex 42.9594 -4.51522 19.05
    endloop
  endfacet
  facet normal 0 0 1
    outer loop
      vertex 16.3908 24.892 19.05
      vertex 17.0321 26.6541 19.05
      vertex 16.2878 24.892 19.05
    endloop
  endfacet
  facet normal 0 0 1
    outer loop
      vertex 35.8521 -0.09339 19.05
      vertex 34.1596 0.679515 19.05
      vertex 41.5565 -8.8331 19.05
    endloop
  endfacet
  facet normal 0 0 1
    outer loop
      vertex 27.4003 24.892 19.05
      vertex 27.4003 17.9634 19.05
      vertex 33.1538 11.557 19.05
    endloop
  endfacet
  facet normal 0 0 1
    outer loop
      vertex 42.9594 -4.51522 19.05
      vertex 35.8521 -0.09339 19.05
      vertex 41.5565 -8.8331 19.05
    endloop
  endfacet
  facet normal 0 0 1
    outer loop
      vertex 21.844 -6.366 19.05
      vertex 19.9375 -6.11501 19.05
      vertex 28.4279 -20.6541 19.05
    endloop
  endfacet
  facet normal 0 0 1
    outer loop
      vertex 4.064 3.175 19.05
      vertex 4.064 11.557 19.05
      vertex 0 38.1 19.05
    endloop
  endfacet
  facet normal 0 0 1
    outer loop
      vertex 33.1538 2.24472 19.05
      vertex 29.21 1 19.05
      vertex 34.1596 0.679515 19.05
    endloop
  endfacet
  facet normal 0 0 1
    outer loop
      vertex 10.668 11.557 19.05
      vertex 19.447 -21.598 19.05
      vertex 14.478 3.27116e-015 19.05
    endloop
  endfacet
  facet normal 0 0 1
    outer loop
      vertex 10.668 11.557 19.05
      vertex 10.668 3.175 19.05
      vertex 19.447 -21.598 19.05
    endloop
  endfacet
  facet normal 0 0 1
    outer loop
      vertex 14.478 3.27116e-015 19.05
      vertex 10.1438 13.3422 19.05
      vertex 10.668 11.557 19.05
    endloop
  endfacet
  facet normal 0 0 1
    outer loop
      vertex 10.1438 13.3422 19.05
      vertex 14.478 14.732 19.05
      vertex 0 38.1 19.05
    endloop
  endfacet
  facet normal 0 0 1
    outer loop
      vertex 14.478 3.27116e-015 19.05
      vertex 14.478 14.732 19.05
      vertex 10.1438 13.3422 19.05
    endloop
  endfacet
  facet normal 0 0 1
    outer loop
      vertex 29.21 13.208 19.05
      vertex 29.21 1 19.05
      vertex 33.1538 2.24472 19.05
    endloop
  endfacet
  facet normal -0.951057 -0.309017 0
    outer loop
      vertex 0.474569 -4.51522 0
      vertex 1.87753 -8.8331 0
      vertex 0.474569 -4.51522 19.05
    endloop
  endfacet
  facet normal -0.951057 -0.309017 0
    outer loop
      vertex 0.474569 -4.51522 19.05
      vertex 1.87753 -8.8331 0
      vertex 1.87753 -8.8331 19.05
    endloop
  endfacet
  facet normal -0.866025 -0.5 0
    outer loop
      vertex 1.87753 -8.8331 0
      vertex 4.14758 -12.7649 0
      vertex 1.87753 -8.8331 19.05
    endloop
  endfacet
  facet normal -0.866025 -0.5 0
    outer loop
      vertex 1.87753 -8.8331 19.05
      vertex 4.14758 -12.7649 0
      vertex 4.14758 -12.7649 19.05
    endloop
  endfacet
  facet normal -0.743145 -0.669131 0
    outer loop
      vertex 4.14758 -12.7649 0
      vertex 7.18549 -16.1389 0
      vertex 4.14758 -12.7649 19.05
    endloop
  endfacet
  facet normal -0.743145 -0.669131 0
    outer loop
      vertex 4.14758 -12.7649 19.05
      vertex 7.18549 -16.1389 0
      vertex 7.18549 -16.1389 19.05
    endloop
  endfacet
  facet normal -0.587785 -0.809017 0
    outer loop
      vertex 7.18549 -16.1389 19.05
      vertex 7.18549 -16.1389 0
      vertex 10.8585 -18.8075 0
    endloop
  endfacet
  facet normal -0.587785 -0.809017 0
    outer loop
      vertex 10.8585 -18.8075 19.05
      vertex 7.18549 -16.1389 19.05
      vertex 10.8585 -18.8075 0
    endloop
  endfacet
  facet normal -0.406737 -0.913546 0
    outer loop
      vertex 10.8585 -18.8075 19.05
      vertex 10.8585 -18.8075 0
      vertex 15.0061 -20.6541 0
    endloop
  endfacet
  facet normal -0.406737 -0.913546 0
    outer loop
      vertex 15.0061 -20.6541 19.05
      vertex 10.8585 -18.8075 19.05
      vertex 15.0061 -20.6541 0
    endloop
  endfacet
  facet normal -0.207912 -0.978148 0
    outer loop
      vertex 15.0061 -20.6541 19.05
      vertex 15.0061 -20.6541 0
      vertex 19.447 -21.598 0
    endloop
  endfacet
  facet normal -0.207912 -0.978148 0
    outer loop
      vertex 19.447 -21.598 19.05
      vertex 15.0061 -20.6541 19.05
      vertex 19.447 -21.598 0
    endloop
  endfacet
  facet normal 0 -1 0
    outer loop
      vertex 19.447 -21.598 19.05
      vertex 19.447 -21.598 0
      vertex 23.987 -21.598 0
    endloop
  endfacet
  facet normal 0 -1 0
    outer loop
      vertex 23.987 -21.598 19.05
      vertex 19.447 -21.598 19.05
      vertex 23.987 -21.598 0
    endloop
  endfacet
  facet normal 0.207912 -0.978148 0
    outer loop
      vertex 23.987 -21.598 19.05
      vertex 23.987 -21.598 0
      vertex 28.4279 -20.6541 0
    endloop
  endfacet
  facet normal 0.207912 -0.978148 0
    outer loop
      vertex 28.4279 -20.6541 19.05
      vertex 23.987 -21.598 19.05
      vertex 28.4279 -20.6541 0
    endloop
  endfacet
  facet normal 0.406737 -0.913546 0
    outer loop
      vertex 28.4279 -20.6541 19.05
      vertex 28.4279 -20.6541 0
      vertex 32.5755 -18.8075 0
    endloop
  endfacet
  facet normal 0.406737 -0.913546 0
    outer loop
      vertex 32.5755 -18.8075 19.05
      vertex 28.4279 -20.6541 19.05
      vertex 32.5755 -18.8075 0
    endloop
  endfacet
  facet normal 0.587785 -0.809017 0
    outer loop
      vertex 32.5755 -18.8075 19.05
      vertex 32.5755 -18.8075 0
      vertex 36.2485 -16.1389 0
    endloop
  endfacet
  facet normal 0.587785 -0.809017 0
    outer loop
      vertex 36.2485 -16.1389 19.05
      vertex 32.5755 -18.8075 19.05
      vertex 36.2485 -16.1389 0
    endloop
  endfacet
  facet normal 0.743145 -0.669131 0
    outer loop
      vertex 36.2485 -16.1389 19.05
      vertex 36.2485 -16.1389 0
      vertex 39.2864 -12.7649 0
    endloop
  endfacet
  facet normal 0.743145 -0.669131 0
    outer loop
      vertex 39.2864 -12.7649 19.05
      vertex 36.2485 -16.1389 19.05
      vertex 39.2864 -12.7649 0
    endloop
  endfacet
  facet normal 0.866025 -0.5 0
    outer loop
      vertex 39.2864 -12.7649 19.05
      vertex 39.2864 -12.7649 0
      vertex 41.5565 -8.8331 0
    endloop
  endfacet
  facet normal 0.866025 -0.5 0
    outer loop
      vertex 41.5565 -8.8331 19.05
      vertex 39.2864 -12.7649 19.05
      vertex 41.5565 -8.8331 0
    endloop
  endfacet
  facet normal 0.951057 -0.309017 0
    outer loop
      vertex 41.5565 -8.8331 19.05
      vertex 41.5565 -8.8331 0
      vertex 42.9594 -4.51522 0
    endloop
  endfacet
  facet normal 0.951057 -0.309017 0
    outer loop
      vertex 42.9594 -4.51522 19.05
      vertex 41.5565 -8.8331 19.05
      vertex 42.9594 -4.51522 0
    endloop
  endfacet
  facet normal 0.994522 -0.104529 0
    outer loop
      vertex 42.9594 -4.51522 19.05
      vertex 42.9594 -4.51522 0
      vertex 43.434 0 0
    endloop
  endfacet
  facet normal 0.994522 -0.104529 0
    outer loop
      vertex 43.434 0 19.05
      vertex 42.9594 -4.51522 19.05
      vertex 43.434 0 0
    endloop
  endfacet
  facet normal 1 0 0
    outer loop
      vertex 43.434 0 19.05
      vertex 43.434 0 0
      vertex 43.434 38.1 0
    endloop
  endfacet
  facet normal 1 0 0
    outer loop
      vertex 43.434 38.1 19.05
      vertex 43.434 0 19.05
      vertex 43.434 38.1 0
    endloop
  endfacet
  facet normal 1 0 0
    outer loop
      vertex 4.064 11.557 0
      vertex 4.064 11.557 19.05
      vertex 4.064 3.175 19.05
    endloop
  endfacet
  facet normal 1 0 0
    outer loop
      vertex 4.064 3.175 0
      vertex 4.064 11.557 0
      vertex 4.064 3.175 19.05
    endloop
  endfacet
  facet normal 0 -1 0
    outer loop
      vertex 4.19775 11.557 0
      vertex 4.19775 11.557 19.05
      vertex 4.064 11.557 19.05
    endloop
  endfacet
  facet normal 0 -1 0
    outer loop
      vertex 4.064 11.557 0
      vertex 4.19775 11.557 0
      vertex 4.064 11.557 19.05
    endloop
  endfacet
  facet normal 1 0 0
    outer loop
      vertex 4.19775 12.4873 0
      vertex 4.19775 12.4873 19.05
      vertex 4.19775 11.557 19.05
    endloop
  endfacet
  facet normal 1 0 0
    outer loop
      vertex 4.19775 11.557 0
      vertex 4.19775 12.4873 0
      vertex 4.19775 11.557 19.05
    endloop
  endfacet
  facet normal 0.841253 -0.540641 0
    outer loop
      vertex 5.20365 14.0525 0
      vertex 5.20365 14.0525 19.05
      vertex 4.19775 12.4873 19.05
    endloop
  endfacet
  facet normal 0.841253 -0.540641 0
    outer loop
      vertex 4.19775 12.4873 0
      vertex 5.20365 14.0525 0
      vertex 4.19775 12.4873 19.05
    endloop
  endfacet
  facet normal 0.415415 -0.909632 0
    outer loop
      vertex 6.89608 14.8254 0
      vertex 6.89608 14.8254 19.05
      vertex 5.20365 14.0525 19.05
    endloop
  endfacet
  facet normal 0.415415 -0.909632 0
    outer loop
      vertex 5.20365 14.0525 0
      vertex 6.89608 14.8254 0
      vertex 5.20365 14.0525 19.05
    endloop
  endfacet
  facet normal -0.142315 -0.989821 0
    outer loop
      vertex 8.7377 14.5606 0
      vertex 8.7377 14.5606 19.05
      vertex 6.89608 14.8254 19.05
    endloop
  endfacet
  facet normal -0.142315 -0.989821 0
    outer loop
      vertex 6.89608 14.8254 0
      vertex 8.7377 14.5606 0
      vertex 6.89608 14.8254 19.05
    endloop
  endfacet
  facet normal -0.654861 -0.75575 0
    outer loop
      vertex 10.1438 13.3422 0
      vertex 10.1438 13.3422 19.05
      vertex 8.7377 14.5606 19.05
    endloop
  endfacet
  facet normal -0.654861 -0.75575 0
    outer loop
      vertex 8.7377 14.5606 0
      vertex 10.1438 13.3422 0
      vertex 8.7377 14.5606 19.05
    endloop
  endfacet
  facet normal -0.959493 -0.281733 0
    outer loop
      vertex 10.668 11.557 19.05
      vertex 10.1438 13.3422 19.05
      vertex 10.668 11.557 0
    endloop
  endfacet
  facet normal -0.959493 -0.281733 0
    outer loop
      vertex 10.668 11.557 0
      vertex 10.1438 13.3422 19.05
      vertex 10.1438 13.3422 0
    endloop
  endfacet
  facet normal -1 0 0
    outer loop
      vertex 10.668 11.557 19.05
      vertex 10.668 11.557 0
      vertex 10.668 3.175 19.05
    endloop
  endfacet
  facet normal -1 0 0
    outer loop
      vertex 10.668 3.175 19.05
      vertex 10.668 11.557 0
      vertex 10.668 3.175 0
    endloop
  endfacet
  facet normal -0.959493 0.281733 0
    outer loop
      vertex 10.668 3.175 19.05
      vertex 10.668 3.175 0
      vertex 10.1438 1.3898 19.05
    endloop
  endfacet
  facet normal -0.959493 0.281733 0
    outer loop
      vertex 10.1438 1.3898 19.05
      vertex 10.668 3.175 0
      vertex 10.1438 1.3898 0
    endloop
  endfacet
  facet normal -0.654861 0.75575 0
    outer loop
      vertex 10.1438 1.3898 19.05
      vertex 10.1438 1.3898 0
      vertex 8.7377 0.171395 19.05
    endloop
  endfacet
  facet normal -0.654861 0.75575 0
    outer loop
      vertex 8.7377 0.171395 19.05
      vertex 10.1438 1.3898 0
      vertex 8.7377 0.171395 0
    endloop
  endfacet
  facet normal -0.142315 0.989821 0
    outer loop
      vertex 8.7377 0.171395 19.05
      vertex 8.7377 0.171395 0
      vertex 6.89608 -0.09339 19.05
    endloop
  endfacet
  facet normal -0.142315 0.989821 0
    outer loop
      vertex 6.89608 -0.09339 19.05
      vertex 8.7377 0.171395 0
      vertex 6.89608 -0.09339 0
    endloop
  endfacet
  facet normal 0.415415 0.909632 0
    outer loop
      vertex 6.89608 -0.09339 19.05
      vertex 6.89608 -0.09339 0
      vertex 5.20365 0.679515 19.05
    endloop
  endfacet
  facet normal 0.415415 0.909632 0
    outer loop
      vertex 5.20365 0.679515 19.05
      vertex 6.89608 -0.09339 0
      vertex 5.20365 0.679515 0
    endloop
  endfacet
  facet normal 0.841253 0.540641 0
    outer loop
      vertex 4.19775 2.24472 19.05
      vertex 5.20365 0.679515 19.05
      vertex 5.20365 0.679515 0
    endloop
  endfacet
  facet normal 0.841253 0.540641 0
    outer loop
      vertex 4.19775 2.24472 0
      vertex 4.19775 2.24472 19.05
      vertex 5.20365 0.679515 0
    endloop
  endfacet
  facet normal 1 0 0
    outer loop
      vertex 4.19775 3.175 0
      vertex 4.19775 3.175 19.05
      vertex 4.19775 2.24472 19.05
    endloop
  endfacet
  facet normal 1 0 0
    outer loop
      vertex 4.19775 2.24472 0
      vertex 4.19775 3.175 0
      vertex 4.19775 2.24472 19.05
    endloop
  endfacet
  facet normal 0 1 0
    outer loop
      vertex 4.19775 3.175 19.05
      vertex 4.19775 3.175 0
      vertex 4.064 3.175 19.05
    endloop
  endfacet
  facet normal 0 1 0
    outer loop
      vertex 4.064 3.175 19.05
      vertex 4.19775 3.175 0
      vertex 4.064 3.175 0
    endloop
  endfacet
  facet normal 1 -2.22045e-016 0
    outer loop
      vertex 14.478 14.732 0
      vertex 14.478 14.732 19.05
      vertex 14.478 3.27116e-015 19.05
    endloop
  endfacet
  facet normal 1 -2.22045e-016 0
    outer loop
      vertex 14.478 3.27116e-015 0
      vertex 14.478 14.732 0
      vertex 14.478 3.27116e-015 19.05
    endloop
  endfacet
  facet normal -2.22045e-016 -1 0
    outer loop
      vertex 14.6786 14.732 0
      vertex 14.6786 14.732 19.05
      vertex 14.478 14.732 19.05
    endloop
  endfacet
  facet normal -2.22045e-016 -1 0
    outer loop
      vertex 14.478 14.732 0
      vertex 14.6786 14.732 0
      vertex 14.478 14.732 19.05
    endloop
  endfacet
  facet normal 0.991445 -0.130526 0
    outer loop
      vertex 14.729 15.1145 0
      vertex 14.729 15.1145 19.05
      vertex 14.6786 14.732 19.05
    endloop
  endfacet
  facet normal 0.991445 -0.130526 0
    outer loop
      vertex 14.6786 14.732 0
      vertex 14.729 15.1145 0
      vertex 14.6786 14.732 19.05
    endloop
  endfacet
  facet normal 0.923879 -0.382684 0
    outer loop
      vertex 15.4649 16.891 0
      vertex 15.4649 16.891 19.05
      vertex 14.729 15.1145 19.05
    endloop
  endfacet
  facet normal 0.923879 -0.382684 0
    outer loop
      vertex 14.729 15.1145 0
      vertex 15.4649 16.891 0
      vertex 14.729 15.1145 19.05
    endloop
  endfacet
  facet normal 0.793354 -0.608761 0
    outer loop
      vertex 16.2878 17.9634 0
      vertex 16.2878 17.9634 19.05
      vertex 15.4649 16.891 19.05
    endloop
  endfacet
  facet normal 0.793354 -0.608761 0
    outer loop
      vertex 15.4649 16.891 0
      vertex 16.2878 17.9634 0
      vertex 15.4649 16.891 19.05
    endloop
  endfacet
  facet normal 1 -2.22045e-016 0
    outer loop
      vertex 16.2878 24.892 0
      vertex 16.2878 24.892 19.05
      vertex 16.2878 17.9634 19.05
    endloop
  endfacet
  facet normal 1 -2.22045e-016 0
    outer loop
      vertex 16.2878 17.9634 0
      vertex 16.2878 24.892 0
      vertex 16.2878 17.9634 19.05
    endloop
  endfacet
  facet normal -2.22045e-016 -1 0
    outer loop
      vertex 16.3908 24.892 0
      vertex 16.3908 24.892 19.05
      vertex 16.2878 24.892 19.05
    endloop
  endfacet
  facet normal -2.22045e-016 -1 0
    outer loop
      vertex 16.2878 24.892 0
      vertex 16.3908 24.892 0
      vertex 16.2878 24.892 19.05
    endloop
  endfacet
  facet normal 0.939693 -0.34202 0
    outer loop
      vertex 17.0321 26.6541 0
      vertex 17.0321 26.6541 19.05
      vertex 16.3908 24.892 19.05
    endloop
  endfacet
  facet normal 0.939693 -0.34202 0
    outer loop
      vertex 16.3908 24.892 0
      vertex 17.0321 26.6541 0
      vertex 16.3908 24.892 19.05
    endloop
  endfacet
  facet normal 0.766044 -0.642788 0
    outer loop
      vertex 18.2725 28.1323 0
      vertex 18.2725 28.1323 19.05
      vertex 17.0321 26.6541 19.05
    endloop
  endfacet
  facet normal 0.766044 -0.642788 0
    outer loop
      vertex 17.0321 26.6541 0
      vertex 18.2725 28.1323 0
      vertex 17.0321 26.6541 19.05
    endloop
  endfacet
  facet normal 0.5 -0.866025 0
    outer loop
      vertex 18.542 28.2879 9.525
      vertex 18.2725 28.1323 0
      vertex 19.9437 29.0972 0
    endloop
  endfacet
  facet normal 0.5 -0.866025 0
    outer loop
      vertex 19.9437 29.0972 0
      vertex 19.9437 29.0972 7.08098
      vertex 19.1484 28.638 7.65878
    endloop
  endfacet
  facet normal 0.5 -0.866025 0
    outer loop
      vertex 19.1484 28.638 11.3912
      vertex 19.9437 29.0972 19.05
      vertex 18.542 28.2879 9.525
    endloop
  endfacet
  facet normal 0.5 -0.866025 0
    outer loop
      vertex 18.542 28.2879 9.525
      vertex 19.9437 29.0972 0
      vertex 19.1484 28.638 7.65878
    endloop
  endfacet
  facet normal 0.5 -0.866025 0
    outer loop
      vertex 19.9437 29.0972 11.969
      vertex 19.9437 29.0972 19.05
      vertex 19.1484 28.638 11.3912
    endloop
  endfacet
  facet normal 0.5 -0.866025 0
    outer loop
      vertex 19.9437 29.0972 19.05
      vertex 18.2725 28.1323 19.05
      vertex 18.542 28.2879 9.525
    endloop
  endfacet
  facet normal 0.5 -0.866025 0
    outer loop
      vertex 18.2725 28.1323 19.05
      vertex 18.2725 28.1323 0
      vertex 18.542 28.2879 9.525
    endloop
  endfacet
  facet normal 0.173648 -0.984808 0
    outer loop
      vertex 21.844 29.4322 0
      vertex 21.844 29.4322 6.5054
      vertex 20.7359 29.2369 6.5054
    endloop
  endfacet
  facet normal 0.173648 -0.984808 0
    outer loop
      vertex 19.9437 29.0972 7.08098
      vertex 21.844 29.4322 0
      vertex 20.7359 29.2369 6.5054
    endloop
  endfacet
  facet normal 0.173648 -0.984808 0
    outer loop
      vertex 19.9437 29.0972 7.08098
      vertex 19.9437 29.0972 0
      vertex 21.844 29.4322 0
    endloop
  endfacet
  facet normal -0.173648 -0.984808 0
    outer loop
      vertex 23.7443 29.0972 0
      vertex 23.7443 29.0972 7.26552
      vertex 22.6981 29.2816 6.5054
    endloop
  endfacet
  facet normal -0.173648 -0.984808 0
    outer loop
      vertex 21.844 29.4322 6.5054
      vertex 23.7443 29.0972 0
      vertex 22.6981 29.2816 6.5054
    endloop
  endfacet
  facet normal -0.173648 -0.984808 0
    outer loop
      vertex 21.844 29.4322 6.5054
      vertex 21.844 29.4322 0
      vertex 23.7443 29.0972 0
    endloop
  endfacet
  facet normal -0.5 -0.866025 0
    outer loop
      vertex 24.892 28.4346 9.525
      vertex 25.4155 28.1323 19.05
      vertex 23.7443 29.0972 19.05
    endloop
  endfacet
  facet normal -0.5 -0.866025 0
    outer loop
      vertex 23.7443 29.0972 11.7845
      vertex 24.2856 28.7847 11.3912
      vertex 23.7443 29.0972 19.05
    endloop
  endfacet
  facet normal -0.5 -0.866025 0
    outer loop
      vertex 25.4155 28.1323 0
      vertex 25.4155 28.1323 19.05
      vertex 24.892 28.4346 9.525
    endloop
  endfacet
  facet normal -0.5 -0.866025 0
    outer loop
      vertex 23.7443 29.0972 7.26552
      vertex 25.4155 28.1323 0
      vertex 24.2856 28.7847 7.65878
    endloop
  endfacet
  facet normal -0.5 -0.866025 0
    outer loop
      vertex 23.7443 29.0972 0
      vertex 25.4155 28.1323 0
      vertex 23.7443 29.0972 7.26552
    endloop
  endfacet
  facet normal -0.5 -0.866025 0
    outer loop
      vertex 24.2856 28.7847 11.3912
      vertex 24.892 28.4346 9.525
      vertex 23.7443 29.0972 19.05
    endloop
  endfacet
  facet normal -0.5 -0.866025 0
    outer loop
      vertex 24.892 28.4346 9.525
      vertex 24.2856 28.7847 7.65878
      vertex 25.4155 28.1323 0
    endloop
  endfacet
  facet normal -0.766044 -0.642788 0
    outer loop
      vertex 26.6559 26.6541 19.05
      vertex 25.4155 28.1323 19.05
      vertex 26.6559 26.6541 0
    endloop
  endfacet
  facet normal -0.766044 -0.642788 0
    outer loop
      vertex 26.6559 26.6541 0
      vertex 25.4155 28.1323 19.05
      vertex 25.4155 28.1323 0
    endloop
  endfacet
  facet normal -0.939693 -0.34202 0
    outer loop
      vertex 27.2972 24.892 19.05
      vertex 26.6559 26.6541 19.05
      vertex 27.2972 24.892 0
    endloop
  endfacet
  facet normal -0.939693 -0.34202 0
    outer loop
      vertex 27.2972 24.892 0
      vertex 26.6559 26.6541 19.05
      vertex 26.6559 26.6541 0
    endloop
  endfacet
  facet normal -2.22045e-016 -1 0
    outer loop
      vertex 27.4003 24.892 0
      vertex 27.4003 24.892 19.05
      vertex 27.2972 24.892 19.05
    endloop
  endfacet
  facet normal -2.22045e-016 -1 0
    outer loop
      vertex 27.2972 24.892 0
      vertex 27.4003 24.892 0
      vertex 27.2972 24.892 19.05
    endloop
  endfacet
  facet normal -1 2.22045e-016 0
    outer loop
      vertex 27.4003 24.892 19.05
      vertex 27.4003 24.892 0
      vertex 27.4003 17.9634 19.05
    endloop
  endfacet
  facet normal -1 2.22045e-016 0
    outer loop
      vertex 27.4003 17.9634 19.05
      vertex 27.4003 24.892 0
      vertex 27.4003 17.9634 0
    endloop
  endfacet
  facet normal -0.793354 -0.608761 0
    outer loop
      vertex 28.2231 16.891 19.05
      vertex 27.4003 17.9634 19.05
      vertex 28.2231 16.891 0
    endloop
  endfacet
  facet normal -0.793354 -0.608761 0
    outer loop
      vertex 28.2231 16.891 0
      vertex 27.4003 17.9634 19.05
      vertex 27.4003 17.9634 0
    endloop
  endfacet
  facet normal -0.923879 -0.382684 0
    outer loop
      vertex 28.959 15.1145 19.05
      vertex 28.2231 16.891 19.05
      vertex 28.959 15.1145 0
    endloop
  endfacet
  facet normal -0.923879 -0.382684 0
    outer loop
      vertex 28.959 15.1145 0
      vertex 28.2231 16.891 19.05
      vertex 28.2231 16.891 0
    endloop
  endfacet
  facet normal -0.991445 -0.130526 0
    outer loop
      vertex 29.0094 14.732 19.05
      vertex 28.959 15.1145 19.05
      vertex 29.0094 14.732 0
    endloop
  endfacet
  facet normal -0.991445 -0.130526 0
    outer loop
      vertex 29.0094 14.732 0
      vertex 28.959 15.1145 19.05
      vertex 28.959 15.1145 0
    endloop
  endfacet
  facet normal -2.22045e-016 -1 0
    outer loop
      vertex 29.21 14.732 0
      vertex 29.21 14.732 19.05
      vertex 29.0094 14.732 19.05
    endloop
  endfacet
  facet normal -2.22045e-016 -1 0
    outer loop
      vertex 29.0094 14.732 0
      vertex 29.21 14.732 0
      vertex 29.0094 14.732 19.05
    endloop
  endfacet
  facet normal -1 2.22045e-016 0
    outer loop
      vertex 29.21 14.732 19.05
      vertex 29.21 14.732 0
      vertex 29.21 13.208 19.05
    endloop
  endfacet
  facet normal -1 2.22045e-016 0
    outer loop
      vertex 29.21 13.208 19.05
      vertex 29.21 14.732 0
      vertex 29.21 13.208 0
    endloop
  endfacet
  facet normal -1 2.22045e-016 0
    outer loop
      vertex 29.21 13.208 19.05
      vertex 29.21 13.208 0
      vertex 29.21 1 19.05
    endloop
  endfacet
  facet normal -1 2.22045e-016 0
    outer loop
      vertex 29.21 1 19.05
      vertex 29.21 13.208 0
      vertex 29.21 1 0
    endloop
  endfacet
  facet normal -1 2.22045e-016 0
    outer loop
      vertex 29.21 1 19.05
      vertex 29.21 1 0
      vertex 29.21 0 19.05
    endloop
  endfacet
  facet normal -1 2.22045e-016 0
    outer loop
      vertex 29.21 0 19.05
      vertex 29.21 1 0
      vertex 29.21 0 0
    endloop
  endfacet
  facet normal 2.22045e-016 1 0
    outer loop
      vertex 29.21 0 19.05
      vertex 29.21 0 0
      vertex 29.0783 2.92327e-017 19.05
    endloop
  endfacet
  facet normal 2.22045e-016 1 0
    outer loop
      vertex 29.0783 2.92327e-017 19.05
      vertex 29.21 0 0
      vertex 29.0783 2.92327e-017 0
    endloop
  endfacet
  facet normal -0.991445 0.130526 0
    outer loop
      vertex 29.0783 2.92327e-017 19.05
      vertex 29.0783 2.92327e-017 0
      vertex 28.959 -0.906461 19.05
    endloop
  endfacet
  facet normal -0.991445 0.130526 0
    outer loop
      vertex 28.959 -0.906461 19.05
      vertex 29.0783 2.92327e-017 0
      vertex 28.959 -0.906461 0
    endloop
  endfacet
  facet normal -0.923879 0.382684 0
    outer loop
      vertex 28.959 -0.906461 19.05
      vertex 28.959 -0.906461 0
      vertex 28.2231 -2.683 19.05
    endloop
  endfacet
  facet normal -0.923879 0.382684 0
    outer loop
      vertex 28.2231 -2.683 19.05
      vertex 28.959 -0.906461 0
      vertex 28.2231 -2.683 0
    endloop
  endfacet
  facet normal -0.793354 0.608761 0
    outer loop
      vertex 28.2231 -2.683 19.05
      vertex 28.2231 -2.683 0
      vertex 27.0525 -4.20855 19.05
    endloop
  endfacet
  facet normal -0.793354 0.608761 0
    outer loop
      vertex 27.0525 -4.20855 19.05
      vertex 28.2231 -2.683 0
      vertex 27.0525 -4.20855 0
    endloop
  endfacet
  facet normal -0.608761 0.793354 0
    outer loop
      vertex 27.0525 -4.20855 19.05
      vertex 27.0525 -4.20855 0
      vertex 25.527 -5.37914 19.05
    endloop
  endfacet
  facet normal -0.608761 0.793354 0
    outer loop
      vertex 25.527 -5.37914 19.05
      vertex 27.0525 -4.20855 0
      vertex 25.527 -5.37914 0
    endloop
  endfacet
  facet normal -0.382684 0.923879 0
    outer loop
      vertex 25.527 -5.37914 19.05
      vertex 25.527 -5.37914 0
      vertex 23.7505 -6.11501 19.05
    endloop
  endfacet
  facet normal -0.382684 0.923879 0
    outer loop
      vertex 23.7505 -6.11501 19.05
      vertex 25.527 -5.37914 0
      vertex 23.7505 -6.11501 0
    endloop
  endfacet
  facet normal -0.130526 0.991445 0
    outer loop
      vertex 23.7505 -6.11501 19.05
      vertex 23.7505 -6.11501 0
      vertex 21.844 -6.366 19.05
    endloop
  endfacet
  facet normal -0.130526 0.991445 0
    outer loop
      vertex 21.844 -6.366 19.05
      vertex 23.7505 -6.11501 0
      vertex 21.844 -6.366 0
    endloop
  endfacet
  facet normal 0.130526 0.991445 0
    outer loop
      vertex 21.844 -6.366 19.05
      vertex 21.844 -6.366 0
      vertex 19.9375 -6.11501 19.05
    endloop
  endfacet
  facet normal 0.130526 0.991445 0
    outer loop
      vertex 19.9375 -6.11501 19.05
      vertex 21.844 -6.366 0
      vertex 19.9375 -6.11501 0
    endloop
  endfacet
  facet normal 0.382684 0.923879 0
    outer loop
      vertex 19.9375 -6.11501 19.05
      vertex 19.9375 -6.11501 0
      vertex 18.161 -5.37914 19.05
    endloop
  endfacet
  facet normal 0.382684 0.923879 0
    outer loop
      vertex 18.161 -5.37914 19.05
      vertex 19.9375 -6.11501 0
      vertex 18.161 -5.37914 0
    endloop
  endfacet
  facet normal 0.608761 0.793354 0
    outer loop
      vertex 18.161 -5.37914 19.05
      vertex 18.161 -5.37914 0
      vertex 16.6355 -4.20855 19.05
    endloop
  endfacet
  facet normal 0.608761 0.793354 0
    outer loop
      vertex 16.6355 -4.20855 19.05
      vertex 18.161 -5.37914 0
      vertex 16.6355 -4.20855 0
    endloop
  endfacet
  facet normal 0.793354 0.608761 0
    outer loop
      vertex 15.4649 -2.683 19.05
      vertex 16.6355 -4.20855 19.05
      vertex 16.6355 -4.20855 0
    endloop
  endfacet
  facet normal 0.793354 0.608761 0
    outer loop
      vertex 15.4649 -2.683 0
      vertex 15.4649 -2.683 19.05
      vertex 16.6355 -4.20855 0
    endloop
  endfacet
  facet normal 0.923879 0.382684 0
    outer loop
      vertex 14.729 -0.906461 19.05
      vertex 15.4649 -2.683 19.05
      vertex 15.4649 -2.683 0
    endloop
  endfacet
  facet normal 0.923879 0.382684 0
    outer loop
      vertex 14.729 -0.906461 0
      vertex 14.729 -0.906461 19.05
      vertex 15.4649 -2.683 0
    endloop
  endfacet
  facet normal 0.991445 0.130526 0
    outer loop
      vertex 14.6097 3.24193e-015 19.05
      vertex 14.729 -0.906461 19.05
      vertex 14.729 -0.906461 0
    endloop
  endfacet
  facet normal 0.991445 0.130526 0
    outer loop
      vertex 14.6097 3.24193e-015 0
      vertex 14.6097 3.24193e-015 19.05
      vertex 14.729 -0.906461 0
    endloop
  endfacet
  facet normal 2.22045e-016 1 0
    outer loop
      vertex 14.6097 3.24193e-015 19.05
      vertex 14.6097 3.24193e-015 0
      vertex 14.478 3.27116e-015 19.05
    endloop
  endfacet
  facet normal 2.22045e-016 1 0
    outer loop
      vertex 14.478 3.27116e-015 19.05
      vertex 14.6097 3.24193e-015 0
      vertex 14.478 3.27116e-015 0
    endloop
  endfacet
  facet normal 1 0 0
    outer loop
      vertex 33.02 11.557 0
      vertex 33.02 11.557 19.05
      vertex 33.02 3.175 19.05
    endloop
  endfacet
  facet normal 1 0 0
    outer loop
      vertex 33.02 3.175 0
      vertex 33.02 11.557 0
      vertex 33.02 3.175 19.05
    endloop
  endfacet
  facet normal 0 -1 0
    outer loop
      vertex 33.1538 11.557 0
      vertex 33.1538 11.557 19.05
      vertex 33.02 11.557 19.05
    endloop
  endfacet
  facet normal 0 -1 0
    outer loop
      vertex 33.02 11.557 0
      vertex 33.1538 11.557 0
      vertex 33.02 11.557 19.05
    endloop
  endfacet
  facet normal 1 0 0
    outer loop
      vertex 33.1538 12.4873 0
      vertex 33.1538 12.4873 19.05
      vertex 33.1538 11.557 19.05
    endloop
  endfacet
  facet normal 1 0 0
    outer loop
      vertex 33.1538 11.557 0
      vertex 33.1538 12.4873 0
      vertex 33.1538 11.557 19.05
    endloop
  endfacet
  facet normal 0.841253 -0.540641 0
    outer loop
      vertex 34.1596 14.0525 0
      vertex 34.1596 14.0525 19.05
      vertex 33.1538 12.4873 19.05
    endloop
  endfacet
  facet normal 0.841253 -0.540641 0
    outer loop
      vertex 33.1538 12.4873 0
      vertex 34.1596 14.0525 0
      vertex 33.1538 12.4873 19.05
    endloop
  endfacet
  facet normal 0.415415 -0.909632 0
    outer loop
      vertex 35.8521 14.8254 0
      vertex 35.8521 14.8254 19.05
      vertex 34.1596 14.0525 19.05
    endloop
  endfacet
  facet normal 0.415415 -0.909632 0
    outer loop
      vertex 34.1596 14.0525 0
      vertex 35.8521 14.8254 0
      vertex 34.1596 14.0525 19.05
    endloop
  endfacet
  facet normal -0.142315 -0.989821 0
    outer loop
      vertex 37.6937 14.5606 0
      vertex 37.6937 14.5606 19.05
      vertex 35.8521 14.8254 19.05
    endloop
  endfacet
  facet normal -0.142315 -0.989821 0
    outer loop
      vertex 35.8521 14.8254 0
      vertex 37.6937 14.5606 0
      vertex 35.8521 14.8254 19.05
    endloop
  endfacet
  facet normal -0.654861 -0.75575 0
    outer loop
      vertex 39.0998 13.3422 0
      vertex 39.0998 13.3422 19.05
      vertex 37.6937 14.5606 19.05
    endloop
  endfacet
  facet normal -0.654861 -0.75575 0
    outer loop
      vertex 37.6937 14.5606 0
      vertex 39.0998 13.3422 0
      vertex 37.6937 14.5606 19.05
    endloop
  endfacet
  facet normal -0.959493 -0.281733 0
    outer loop
      vertex 39.624 11.557 19.05
      vertex 39.0998 13.3422 19.05
      vertex 39.624 11.557 0
    endloop
  endfacet
  facet normal -0.959493 -0.281733 0
    outer loop
      vertex 39.624 11.557 0
      vertex 39.0998 13.3422 19.05
      vertex 39.0998 13.3422 0
    endloop
  endfacet
  facet normal -1 0 0
    outer loop
      vertex 39.624 11.557 19.05
      vertex 39.624 11.557 0
      vertex 39.624 3.175 19.05
    endloop
  endfacet
  facet normal -1 0 0
    outer loop
      vertex 39.624 3.175 19.05
      vertex 39.624 11.557 0
      vertex 39.624 3.175 0
    endloop
  endfacet
  facet normal -0.959493 0.281733 0
    outer loop
      vertex 39.624 3.175 19.05
      vertex 39.624 3.175 0
      vertex 39.0998 1.3898 19.05
    endloop
  endfacet
  facet normal -0.959493 0.281733 0
    outer loop
      vertex 39.0998 1.3898 19.05
      vertex 39.624 3.175 0
      vertex 39.0998 1.3898 0
    endloop
  endfacet
  facet normal -0.654861 0.75575 0
    outer loop
      vertex 39.0998 1.3898 19.05
      vertex 39.0998 1.3898 0
      vertex 37.6937 0.171395 19.05
    endloop
  endfacet
  facet normal -0.654861 0.75575 0
    outer loop
      vertex 37.6937 0.171395 19.05
      vertex 39.0998 1.3898 0
      vertex 37.6937 0.171395 0
    endloop
  endfacet
  facet normal -0.142315 0.989821 0
    outer loop
      vertex 37.6937 0.171395 19.05
      vertex 37.6937 0.171395 0
      vertex 35.8521 -0.09339 19.05
    endloop
  endfacet
  facet normal -0.142315 0.989821 0
    outer loop
      vertex 35.8521 -0.09339 19.05
      vertex 37.6937 0.171395 0
      vertex 35.8521 -0.09339 0
    endloop
  endfacet
  facet normal 0.415415 0.909632 0
    outer loop
      vertex 35.8521 -0.09339 19.05
      vertex 35.8521 -0.09339 0
      vertex 34.1596 0.679515 19.05
    endloop
  endfacet
  facet normal 0.415415 0.909632 0
    outer loop
      vertex 34.1596 0.679515 19.05
      vertex 35.8521 -0.09339 0
      vertex 34.1596 0.679515 0
    endloop
  endfacet
  facet normal 0.841253 0.540641 0
    outer loop
      vertex 33.1538 2.24472 19.05
      vertex 34.1596 0.679515 19.05
      vertex 34.1596 0.679515 0
    endloop
  endfacet
  facet normal 0.841253 0.540641 0
    outer loop
      vertex 33.1538 2.24472 0
      vertex 33.1538 2.24472 19.05
      vertex 34.1596 0.679515 0
    endloop
  endfacet
  facet normal 1 0 0
    outer loop
      vertex 33.1538 3.175 0
      vertex 33.1538 3.175 19.05
      vertex 33.1538 2.24472 19.05
    endloop
  endfacet
  facet normal 1 0 0
    outer loop
      vertex 33.1538 2.24472 0
      vertex 33.1538 3.175 0
      vertex 33.1538 2.24472 19.05
    endloop
  endfacet
  facet normal 0 1 0
    outer loop
      vertex 33.1538 3.175 19.05
      vertex 33.1538 3.175 0
      vertex 33.02 3.175 19.05
    endloop
  endfacet
  facet normal 0 1 0
    outer loop
      vertex 33.02 3.175 19.05
      vertex 33.1538 3.175 0
      vertex 33.02 3.175 0
    endloop
  endfacet
  facet normal 0.951057 -6.86156e-017 -0.309017
    outer loop
      vertex 18.542 38.1 9.525
      vertex 19.1484 38.1 11.3912
      vertex 19.1484 28.638 11.3912
    endloop
  endfacet
  facet normal 0.951057 -6.86156e-017 -0.309017
    outer loop
      vertex 18.542 28.2879 9.525
      vertex 18.542 38.1 9.525
      vertex 19.1484 28.638 11.3912
    endloop
  endfacet
  facet normal 0.951057 6.86156e-017 0.309017
    outer loop
      vertex 19.1484 28.638 7.65878
      vertex 19.1484 38.1 7.65878
      vertex 18.542 38.1 9.525
    endloop
  endfacet
  facet normal 0.951057 6.86156e-017 0.309017
    outer loop
      vertex 18.542 28.2879 9.525
      vertex 19.1484 28.638 7.65878
      vertex 18.542 38.1 9.525
    endloop
  endfacet
  facet normal 0.587785 -1.79638e-016 -0.809017
    outer loop
      vertex 20.7359 38.1 12.5446
      vertex 20.7359 29.2369 12.5446
      vertex 19.1484 38.1 11.3912
    endloop
  endfacet
  facet normal 0.587785 -1.79638e-016 -0.809017
    outer loop
      vertex 19.1484 38.1 11.3912
      vertex 20.7359 29.2369 12.5446
      vertex 19.9437 29.0972 11.969
    endloop
  endfacet
  facet normal 0.587785 -1.79638e-016 -0.809017
    outer loop
      vertex 19.1484 38.1 11.3912
      vertex 19.9437 29.0972 11.969
      vertex 19.1484 28.638 11.3912
    endloop
  endfacet
  facet normal 0 -2.22045e-016 -1
    outer loop
      vertex 22.6981 38.1 12.5446
      vertex 22.6981 29.2816 12.5446
      vertex 20.7359 38.1 12.5446
    endloop
  endfacet
  facet normal 0 -2.22045e-016 -1
    outer loop
      vertex 20.7359 38.1 12.5446
      vertex 22.6981 29.2816 12.5446
      vertex 21.844 29.4322 12.5446
    endloop
  endfacet
  facet normal 0 -2.22045e-016 -1
    outer loop
      vertex 20.7359 38.1 12.5446
      vertex 21.844 29.4322 12.5446
      vertex 20.7359 29.2369 12.5446
    endloop
  endfacet
  facet normal -0.587785 -1.79638e-016 -0.809017
    outer loop
      vertex 24.2856 38.1 11.3912
      vertex 24.2856 28.7847 11.3912
      vertex 22.6981 38.1 12.5446
    endloop
  endfacet
  facet normal -0.587785 -1.79638e-016 -0.809017
    outer loop
      vertex 22.6981 38.1 12.5446
      vertex 24.2856 28.7847 11.3912
      vertex 23.7443 29.0972 11.7845
    endloop
  endfacet
  facet normal -0.587785 -1.79638e-016 -0.809017
    outer loop
      vertex 22.6981 38.1 12.5446
      vertex 23.7443 29.0972 11.7845
      vertex 22.6981 29.2816 12.5446
    endloop
  endfacet
  facet normal -0.951057 -6.86156e-017 -0.309017
    outer loop
      vertex 24.892 38.1 9.525
      vertex 24.892 28.4346 9.525
      vertex 24.2856 38.1 11.3912
    endloop
  endfacet
  facet normal -0.951057 -6.86156e-017 -0.309017
    outer loop
      vertex 24.2856 38.1 11.3912
      vertex 24.892 28.4346 9.525
      vertex 24.2856 28.7847 11.3912
    endloop
  endfacet
  facet normal -0.951057 6.86156e-017 0.309017
    outer loop
      vertex 24.892 38.1 9.525
      vertex 24.2856 38.1 7.65878
      vertex 24.892 28.4346 9.525
    endloop
  endfacet
  facet normal -0.951057 6.86156e-017 0.309017
    outer loop
      vertex 24.892 28.4346 9.525
      vertex 24.2856 38.1 7.65878
      vertex 24.2856 28.7847 7.65878
    endloop
  endfacet
  facet normal -0.587785 1.79638e-016 0.809017
    outer loop
      vertex 23.7443 29.0972 7.26552
      vertex 24.2856 28.7847 7.65878
      vertex 24.2856 38.1 7.65878
    endloop
  endfacet
  facet normal -0.587785 1.79638e-016 0.809017
    outer loop
      vertex 22.6981 29.2816 6.5054
      vertex 23.7443 29.0972 7.26552
      vertex 22.6981 38.1 6.5054
    endloop
  endfacet
  facet normal -0.587785 1.79638e-016 0.809017
    outer loop
      vertex 22.6981 38.1 6.5054
      vertex 23.7443 29.0972 7.26552
      vertex 24.2856 38.1 7.65878
    endloop
  endfacet
  facet normal 0 2.22045e-016 1
    outer loop
      vertex 21.844 29.4322 6.5054
      vertex 22.6981 29.2816 6.5054
      vertex 22.6981 38.1 6.5054
    endloop
  endfacet
  facet normal 0 2.22045e-016 1
    outer loop
      vertex 20.7359 29.2369 6.5054
      vertex 21.844 29.4322 6.5054
      vertex 20.7359 38.1 6.5054
    endloop
  endfacet
  facet normal 0 2.22045e-016 1
    outer loop
      vertex 20.7359 38.1 6.5054
      vertex 21.844 29.4322 6.5054
      vertex 22.6981 38.1 6.5054
    endloop
  endfacet
  facet normal 0.587785 1.79638e-016 0.809017
    outer loop
      vertex 19.9437 29.0972 7.08098
      vertex 20.7359 29.2369 6.5054
      vertex 20.7359 38.1 6.5054
    endloop
  endfacet
  facet normal 0.587785 1.79638e-016 0.809017
    outer loop
      vertex 19.1484 28.638 7.65878
      vertex 19.9437 29.0972 7.08098
      vertex 19.1484 38.1 7.65878
    endloop
  endfacet
  facet normal 0.587785 1.79638e-016 0.809017
    outer loop
      vertex 19.1484 38.1 7.65878
      vertex 19.9437 29.0972 7.08098
      vertex 20.7359 38.1 6.5054
    endloop
  endfacet
  facet normal -0.173648 -0.984808 0
    outer loop
      vertex 22.6981 29.2816 12.5446
      vertex 23.7443 29.0972 11.7845
      vertex 23.7443 29.0972 19.05
    endloop
  endfacet
  facet normal -0.173648 -0.984808 0
    outer loop
      vertex 21.844 29.4322 12.5446
      vertex 22.6981 29.2816 12.5446
      vertex 21.844 29.4322 19.05
    endloop
  endfacet
  facet normal -0.173648 -0.984808 0
    outer loop
      vertex 21.844 29.4322 19.05
      vertex 22.6981 29.2816 12.5446
      vertex 23.7443 29.0972 19.05
    endloop
  endfacet
  facet normal 0.173648 -0.984808 0
    outer loop
      vertex 20.7359 29.2369 12.5446
      vertex 21.844 29.4322 12.5446
      vertex 21.844 29.4322 19.05
    endloop
  endfacet
  facet normal 0.173648 -0.984808 0
    outer loop
      vertex 19.9437 29.0972 11.969
      vertex 20.7359 29.2369 12.5446
      vertex 19.9437 29.0972 19.05
    endloop
  endfacet
  facet normal 0.173648 -0.984808 0
    outer loop
      vertex 19.9437 29.0972 19.05
      vertex 20.7359 29.2369 12.5446
      vertex 21.844 29.4322 19.05
    endloop
  endfacet
endsolid OpenSCAD_Model
