  0
SECTION
  2
BLOCKS
  0
ENDSEC
  0
SECTION
  2
ENTITIES
  0
LINE
  8
0
 10
-11.823
 11
56.059
 20
141.059
 21
208.941
  0
LINE
  8
0
 10
56.059
 11
90
 20
208.941
 21
175
  0
LINE
  8
0
 10
90
 11
57.968
 20
175
 21
142.968
  0
LINE
  8
0
 10
57.968
 11
41.351
 20
142.968
 21
159.585
  0
LINE
  8
0
 10
41.351
 11
37.533
 20
159.585
 21
155.767
  0
LINE
  8
0
 10
37.533
 11
54.15
 20
155.767
 21
139.15
  0
LINE
  8
0
 10
54.15
 11
22.118
 20
139.15
 21
107.118
  0
LINE
  8
0
 10
22.118
 11
-11.823
 20
107.118
 21
141.059
  0
LINE
  8
0
 10
0
 11
0
 20
0
 21
70.711
  0
LINE
  8
0
 10
0
 11
139.645
 20
70.711
 21
210.355
  0
LINE
  8
0
 10
139.645
 11
175
 20
210.355
 21
175
  0
LINE
  8
0
 10
175
 11
158.383
 20
175
 21
158.383
  0
LINE
  8
0
 10
158.383
 11
162.201
 20
158.383
 21
154.565
  0
LINE
  8
0
 10
162.201
 11
178.818
 20
154.565
 21
171.182
  0
LINE
  8
0
 10
178.818
 11
210.355
 20
171.182
 21
139.645
  0
LINE
  8
0
 10
210.355
 11
180.711
 20
139.645
 21
110
  0
LINE
  8
0
 10
180.711
 11
160
 20
110
 21
110
  0
LINE
  8
0
 10
160
 11
160
 20
110
 21
50
  0
LINE
  8
0
 10
160
 11
294
 20
50
 21
50
  0
LINE
  8
0
 10
294
 11
294
 20
50
 21
0
  0
LINE
  8
0
 10
294
 11
225
 20
0
 21
0
  0
LINE
  8
0
 10
225
 11
225
 20
0
 21
23.5
  0
LINE
  8
0
 10
225
 11
219.6
 20
23.5
 21
23.5
  0
LINE
  8
0
 10
219.6
 11
219.6
 20
23.5
 21
0
  0
LINE
  8
0
 10
219.6
 11
150
 20
0
 21
0
  0
LINE
  8
0
 10
150
 11
150
 20
0
 21
23.5
  0
LINE
  8
0
 10
150
 11
144.6
 20
23.5
 21
23.5
  0
LINE
  8
0
 10
144.6
 11
144.6
 20
23.5
 21
0
  0
LINE
  8
0
 10
144.6
 11
75
 20
0
 21
0
  0
LINE
  8
0
 10
75
 11
75
 20
0
 21
23.5
  0
LINE
  8
0
 10
75
 11
69.6
 20
23.5
 21
23.5
  0
LINE
  8
0
 10
69.6
 11
69.6
 20
23.5
 21
0
  0
LINE
  8
0
 10
69.6
 11
0
 20
0
 21
0
  0
LINE
  8
0
 10
59.892
 11
127.775
 20
212.775
 21
280.657
  0
LINE
  8
0
 10
127.775
 11
161.716
 20
280.657
 21
246.716
  0
LINE
  8
0
 10
161.716
 11
129.684
 20
246.716
 21
214.684
  0
LINE
  8
0
 10
129.684
 11
113.067
 20
214.684
 21
231.301
  0
LINE
  8
0
 10
113.067
 11
109.248
 20
231.301
 21
227.482
  0
LINE
  8
0
 10
109.248
 11
125.865
 20
227.482
 21
210.865
  0
LINE
  8
0
 10
125.865
 11
93.833
 20
210.865
 21
178.833
  0
LINE
  8
0
 10
93.833
 11
59.892
 20
178.833
 21
212.775
  0
LINE
  8
0
 10
179
 11
179
 20
55
 21
103
  0
LINE
  8
0
 10
179
 11
275
 20
103
 21
103
  0
LINE
  8
0
 10
275
 11
275
 20
103
 21
55
  0
LINE
  8
0
 10
275
 11
229.7
 20
55
 21
55
  0
LINE
  8
0
 10
229.7
 11
229.7
 20
55
 21
78.5
  0
LINE
  8
0
 10
229.7
 11
224.3
 20
78.5
 21
78.5
  0
LINE
  8
0
 10
224.3
 11
224.3
 20
78.5
 21
55
  0
LINE
  8
0
 10
224.3
 11
179
 20
55
 21
55
  0
LINE
  8
0
 10
179
 11
179
 20
175
 21
223
  0
LINE
  8
0
 10
179
 11
275
 20
223
 21
223
  0
LINE
  8
0
 10
275
 11
275
 20
223
 21
175
  0
LINE
  8
0
 10
275
 11
229.7
 20
175
 21
175
  0
LINE
  8
0
 10
229.7
 11
229.7
 20
175
 21
198.5
  0
LINE
  8
0
 10
229.7
 11
224.3
 20
198.5
 21
198.5
  0
LINE
  8
0
 10
224.3
 11
224.3
 20
198.5
 21
175
  0
LINE
  8
0
 10
224.3
 11
179
 20
175
 21
175
  0
ENDSEC
  0
SECTION
  2
OBJECTS
  0
DICTIONARY
  0
ENDSEC
  0
EOF
