solid OpenSCAD_Model
  facet normal -1 0 0
    outer loop
      vertex -11.25 -38.25 -21.75
      vertex -11.25 -38.25 -13.35
      vertex -11.25 -31.75 -21.75
    endloop
  endfacet
  facet normal -1 0 0
    outer loop
      vertex -11.25 -31.75 -21.75
      vertex -11.25 -38.25 -13.35
      vertex -11.25 -31.75 -13.35
    endloop
  endfacet
  facet normal -1 0 0
    outer loop
      vertex -11.25 -31.75 -13.35
      vertex -11.25 -31.75 -8.75
      vertex -11.25 0 -8.75
    endloop
  endfacet
  facet normal -1 0 0
    outer loop
      vertex -11.25 -31.75 -13.35
      vertex -11.25 0 -8.75
      vertex -11.25 -31.75 -21.75
    endloop
  endfacet
  facet normal -1 0 0
    outer loop
      vertex -11.25 -31.75 -21.75
      vertex -11.25 0 -8.75
      vertex -11.25 11.75 -8.75
    endloop
  endfacet
  facet normal -1 0 0
    outer loop
      vertex -11.25 -31.75 -21.75
      vertex -11.25 11.75 -8.75
      vertex -11.25 11.75 -13.35
    endloop
  endfacet
  facet normal -1 0 0
    outer loop
      vertex -11.25 -31.75 -21.75
      vertex -11.25 11.75 -13.35
      vertex -11.25 18.25 -13.35
    endloop
  endfacet
  facet normal -1 0 0
    outer loop
      vertex -11.25 11.75 -21.75
      vertex -11.25 18.25 -13.35
      vertex -11.25 18.25 -21.75
    endloop
  endfacet
  facet normal -1 0 0
    outer loop
      vertex -11.25 -31.75 -21.75
      vertex -11.25 18.25 -13.35
      vertex -11.25 11.75 -21.75
    endloop
  endfacet
  facet normal -1 0 0
    outer loop
      vertex -11.25 11.75 -21.75
      vertex -11.25 11.75 -48.25
      vertex -11.25 -31.75 -21.75
    endloop
  endfacet
  facet normal -1 0 0
    outer loop
      vertex -11.25 -31.75 -21.75
      vertex -11.25 11.75 -48.25
      vertex -11.25 -31.75 -48.25
    endloop
  endfacet
  facet normal 0 -1 0
    outer loop
      vertex -11.25 -38.25 -13.35
      vertex -11.25 -38.25 -21.75
      vertex 11.25 -38.25 -21.75
    endloop
  endfacet
  facet normal 0 -1 0
    outer loop
      vertex 11.25 -38.25 -13.35
      vertex -11.25 -38.25 -13.35
      vertex 11.25 -38.25 -21.75
    endloop
  endfacet
  facet normal 0 0 -1
    outer loop
      vertex -11.25 -38.25 -21.75
      vertex -11.25 -31.75 -21.75
      vertex 11.25 -38.25 -21.75
    endloop
  endfacet
  facet normal 0 0 -1
    outer loop
      vertex 11.25 -38.25 -21.75
      vertex -11.25 -31.75 -21.75
      vertex 11.25 -31.75 -21.75
    endloop
  endfacet
  facet normal 0 -1 0
    outer loop
      vertex -11.25 -31.75 -21.75
      vertex -11.25 -31.75 -48.25
      vertex 11.25 -31.75 -48.25
    endloop
  endfacet
  facet normal 0 -1 0
    outer loop
      vertex 11.25 -31.75 -21.75
      vertex -11.25 -31.75 -21.75
      vertex 11.25 -31.75 -48.25
    endloop
  endfacet
  facet normal 0 0 -1
    outer loop
      vertex -11.25 -31.75 -48.25
      vertex -11.25 11.75 -48.25
      vertex 11.25 -31.75 -48.25
    endloop
  endfacet
  facet normal 0 0 -1
    outer loop
      vertex 11.25 -31.75 -48.25
      vertex -11.25 11.75 -48.25
      vertex 11.25 11.75 -48.25
    endloop
  endfacet
  facet normal 0 1 0
    outer loop
      vertex 3.375 11.75 -40.05
      vertex -11.25 11.75 -21.75
      vertex 11.25 11.75 -48.25
    endloop
  endfacet
  facet normal 0 1 0
    outer loop
      vertex 11.25 11.75 -48.25
      vertex -11.25 11.75 -21.75
      vertex 11.25 11.75 -21.75
    endloop
  endfacet
  facet normal 0 1 0
    outer loop
      vertex -11.25 11.75 -48.25
      vertex -11.25 11.75 -21.75
      vertex -3.375 11.75 -40.05
    endloop
  endfacet
  facet normal 0 1 0
    outer loop
      vertex -11.25 11.75 -48.25
      vertex -3.375 11.75 -40.05
      vertex -3.375 11.75 -44.5
    endloop
  endfacet
  facet normal 0 1 0
    outer loop
      vertex -11.25 11.75 -48.25
      vertex -3.375 11.75 -44.5
      vertex 11.25 11.75 -48.25
    endloop
  endfacet
  facet normal 0 1 0
    outer loop
      vertex -3.375 11.75 -44.5
      vertex 3.375 11.75 -44.5
      vertex 11.25 11.75 -48.25
    endloop
  endfacet
  facet normal 0 1 0
    outer loop
      vertex -3.375 11.75 -40.05
      vertex -11.25 11.75 -21.75
      vertex 3.375 11.75 -40.05
    endloop
  endfacet
  facet normal 0 1 0
    outer loop
      vertex 3.375 11.75 -40.05
      vertex 11.25 11.75 -48.25
      vertex 3.375 11.75 -44.5
    endloop
  endfacet
  facet normal 0 0 -1
    outer loop
      vertex -11.25 11.75 -21.75
      vertex -11.25 18.25 -21.75
      vertex 11.25 11.75 -21.75
    endloop
  endfacet
  facet normal 0 0 -1
    outer loop
      vertex 11.25 11.75 -21.75
      vertex -11.25 18.25 -21.75
      vertex 11.25 18.25 -21.75
    endloop
  endfacet
  facet normal 0 1 0
    outer loop
      vertex -11.25 18.25 -21.75
      vertex -11.25 18.25 -13.35
      vertex 11.25 18.25 -21.75
    endloop
  endfacet
  facet normal 0 1 0
    outer loop
      vertex 11.25 18.25 -21.75
      vertex -11.25 18.25 -13.35
      vertex 11.25 18.25 -13.35
    endloop
  endfacet
  facet normal 0 0 1
    outer loop
      vertex -5.70965 13.9947 -13.35
      vertex -11.25 11.75 -13.35
      vertex 11.25 11.75 -13.35
    endloop
  endfacet
  facet normal 0 0 1
    outer loop
      vertex 6.59035 16.7053 -13.35
      vertex 7.575 15.35 -13.35
      vertex 11.25 18.25 -13.35
    endloop
  endfacet
  facet normal 0 0 1
    outer loop
      vertex -11.25 18.25 -13.35
      vertex -11.25 11.75 -13.35
      vertex -7.30285 14.5124 -13.35
    endloop
  endfacet
  facet normal 0 0 1
    outer loop
      vertex -5.70965 16.7053 -13.35
      vertex -4.725 15.35 -13.35
      vertex 11.25 11.75 -13.35
    endloop
  endfacet
  facet normal 0 0 1
    outer loop
      vertex -11.25 18.25 -13.35
      vertex -7.30285 14.5124 -13.35
      vertex -7.30285 16.1876 -13.35
    endloop
  endfacet
  facet normal 0 0 1
    outer loop
      vertex 4.99715 14.5124 -13.35
      vertex -5.70965 16.7053 -13.35
      vertex 11.25 11.75 -13.35
    endloop
  endfacet
  facet normal 0 0 1
    outer loop
      vertex 11.25 18.25 -13.35
      vertex -11.25 18.25 -13.35
      vertex -5.70965 16.7053 -13.35
    endloop
  endfacet
  facet normal 0 0 1
    outer loop
      vertex -7.30285 14.5124 -13.35
      vertex -11.25 11.75 -13.35
      vertex -5.70965 13.9947 -13.35
    endloop
  endfacet
  facet normal 0 0 1
    outer loop
      vertex 6.59035 13.9947 -13.35
      vertex 4.99715 14.5124 -13.35
      vertex 11.25 11.75 -13.35
    endloop
  endfacet
  facet normal 0 0 1
    outer loop
      vertex 4.99715 16.1876 -13.35
      vertex -5.70965 16.7053 -13.35
      vertex 4.99715 14.5124 -13.35
    endloop
  endfacet
  facet normal 0 0 1
    outer loop
      vertex 11.25 18.25 -13.35
      vertex -5.70965 16.7053 -13.35
      vertex 4.99715 16.1876 -13.35
    endloop
  endfacet
  facet normal 0 0 1
    outer loop
      vertex 11.25 18.25 -13.35
      vertex 4.99715 16.1876 -13.35
      vertex 6.59035 16.7053 -13.35
    endloop
  endfacet
  facet normal 0 0 1
    outer loop
      vertex 11.25 18.25 -13.35
      vertex 7.575 15.35 -13.35
      vertex 11.25 11.75 -13.35
    endloop
  endfacet
  facet normal 0 0 1
    outer loop
      vertex 7.575 15.35 -13.35
      vertex 6.59035 13.9947 -13.35
      vertex 11.25 11.75 -13.35
    endloop
  endfacet
  facet normal 0 0 1
    outer loop
      vertex -4.725 15.35 -13.35
      vertex -5.70965 13.9947 -13.35
      vertex 11.25 11.75 -13.35
    endloop
  endfacet
  facet normal 0 0 1
    outer loop
      vertex -7.30285 16.1876 -13.35
      vertex -5.70965 16.7053 -13.35
      vertex -11.25 18.25 -13.35
    endloop
  endfacet
  facet normal 0 1 0
    outer loop
      vertex -11.25 11.75 -13.35
      vertex -11.25 11.75 -8.75
      vertex 11.25 11.75 -13.35
    endloop
  endfacet
  facet normal 0 1 0
    outer loop
      vertex 11.25 11.75 -13.35
      vertex -11.25 11.75 -8.75
      vertex 11.25 11.75 -8.75
    endloop
  endfacet
  facet normal 0 0 1
    outer loop
      vertex -9.10144 6.61258 -8.75
      vertex -7.52772 8.36038 -8.75
      vertex -11.25 11.75 -8.75
    endloop
  endfacet
  facet normal 0 0 1
    outer loop
      vertex -11.25 11.75 -8.75
      vertex -11.25 0 -8.75
      vertex -11.0042 2.33901 -8.75
    endloop
  endfacet
  facet normal 0 0 1
    outer loop
      vertex -7.52772 8.36038 -8.75
      vertex -5.625 9.74279 -8.75
      vertex -11.25 11.75 -8.75
    endloop
  endfacet
  facet normal 0 0 1
    outer loop
      vertex -10.2774 4.57579 -8.75
      vertex -11.25 11.75 -8.75
      vertex -11.0042 2.33901 -8.75
    endloop
  endfacet
  facet normal 0 0 1
    outer loop
      vertex -10.2774 4.57579 -8.75
      vertex -9.10144 6.61258 -8.75
      vertex -11.25 11.75 -8.75
    endloop
  endfacet
  facet normal 0 0 1
    outer loop
      vertex -5.625 9.74279 -8.75
      vertex -3.47644 10.6994 -8.75
      vertex -11.25 11.75 -8.75
    endloop
  endfacet
  facet normal 0 0 1
    outer loop
      vertex -3.47644 10.6994 -8.75
      vertex -1.17595 11.1884 -8.75
      vertex -11.25 11.75 -8.75
    endloop
  endfacet
  facet normal 0 0 1
    outer loop
      vertex -1.17595 11.1884 -8.75
      vertex 1.17595 11.1884 -8.75
      vertex -11.25 11.75 -8.75
    endloop
  endfacet
  facet normal 0 0 1
    outer loop
      vertex 1.17595 11.1884 -8.75
      vertex 11.25 11.75 -8.75
      vertex -11.25 11.75 -8.75
    endloop
  endfacet
  facet normal 0 0 1
    outer loop
      vertex 3.47644 10.6994 -8.75
      vertex 11.25 11.75 -8.75
      vertex 1.17595 11.1884 -8.75
    endloop
  endfacet
  facet normal 0 0 1
    outer loop
      vertex 5.625 9.74279 -8.75
      vertex 11.25 11.75 -8.75
      vertex 3.47644 10.6994 -8.75
    endloop
  endfacet
  facet normal 0 0 1
    outer loop
      vertex 7.52772 8.36038 -8.75
      vertex 11.25 11.75 -8.75
      vertex 5.625 9.74279 -8.75
    endloop
  endfacet
  facet normal 0 0 1
    outer loop
      vertex 9.10144 6.61258 -8.75
      vertex 11.25 11.75 -8.75
      vertex 7.52772 8.36038 -8.75
    endloop
  endfacet
  facet normal 0 0 1
    outer loop
      vertex 10.2774 4.57579 -8.75
      vertex 11.25 11.75 -8.75
      vertex 9.10144 6.61258 -8.75
    endloop
  endfacet
  facet normal 0 0 1
    outer loop
      vertex 11.0042 2.33901 -8.75
      vertex 11.25 11.75 -8.75
      vertex 10.2774 4.57579 -8.75
    endloop
  endfacet
  facet normal 0 0 1
    outer loop
      vertex 11.25 0 -8.75
      vertex 11.25 11.75 -8.75
      vertex 11.0042 2.33901 -8.75
    endloop
  endfacet
  facet normal 0 0 1
    outer loop
      vertex -5.625 -9.74279 -8.75
      vertex -11.25 -31.75 -8.75
      vertex 11.25 -31.75 -8.75
    endloop
  endfacet
  facet normal 0 0 1
    outer loop
      vertex 11.25 0 -8.75
      vertex 11.0042 -2.33901 -8.75
      vertex 11.25 -31.75 -8.75
    endloop
  endfacet
  facet normal 0 0 1
    outer loop
      vertex 11.0042 -2.33901 -8.75
      vertex 10.2774 -4.57579 -8.75
      vertex 11.25 -31.75 -8.75
    endloop
  endfacet
  facet normal 0 0 1
    outer loop
      vertex 10.2774 -4.57579 -8.75
      vertex 9.10144 -6.61258 -8.75
      vertex 11.25 -31.75 -8.75
    endloop
  endfacet
  facet normal 0 0 1
    outer loop
      vertex 9.10144 -6.61258 -8.75
      vertex 7.52772 -8.36038 -8.75
      vertex 11.25 -31.75 -8.75
    endloop
  endfacet
  facet normal 0 0 1
    outer loop
      vertex 7.52772 -8.36038 -8.75
      vertex 5.625 -9.74279 -8.75
      vertex 11.25 -31.75 -8.75
    endloop
  endfacet
  facet normal 0 0 1
    outer loop
      vertex 5.625 -9.74279 -8.75
      vertex 3.47644 -10.6994 -8.75
      vertex 11.25 -31.75 -8.75
    endloop
  endfacet
  facet normal 0 0 1
    outer loop
      vertex 3.47644 -10.6994 -8.75
      vertex 1.17595 -11.1884 -8.75
      vertex 11.25 -31.75 -8.75
    endloop
  endfacet
  facet normal 0 0 1
    outer loop
      vertex 1.17595 -11.1884 -8.75
      vertex -1.17595 -11.1884 -8.75
      vertex 11.25 -31.75 -8.75
    endloop
  endfacet
  facet normal 0 0 1
    outer loop
      vertex -1.17595 -11.1884 -8.75
      vertex -3.47644 -10.6994 -8.75
      vertex 11.25 -31.75 -8.75
    endloop
  endfacet
  facet normal 0 0 1
    outer loop
      vertex -7.52772 -8.36038 -8.75
      vertex -11.25 -31.75 -8.75
      vertex -5.625 -9.74279 -8.75
    endloop
  endfacet
  facet normal 0 0 1
    outer loop
      vertex -9.10144 -6.61258 -8.75
      vertex -11.25 -31.75 -8.75
      vertex -7.52772 -8.36038 -8.75
    endloop
  endfacet
  facet normal 0 0 1
    outer loop
      vertex -10.2774 -4.57579 -8.75
      vertex -11.25 -31.75 -8.75
      vertex -9.10144 -6.61258 -8.75
    endloop
  endfacet
  facet normal 0 0 1
    outer loop
      vertex -11.0042 -2.33901 -8.75
      vertex -11.25 -31.75 -8.75
      vertex -10.2774 -4.57579 -8.75
    endloop
  endfacet
  facet normal 0 0 1
    outer loop
      vertex -11.25 0 -8.75
      vertex -11.25 -31.75 -8.75
      vertex -11.0042 -2.33901 -8.75
    endloop
  endfacet
  facet normal 0 0 1
    outer loop
      vertex -3.47644 -10.6994 -8.75
      vertex -5.625 -9.74279 -8.75
      vertex 11.25 -31.75 -8.75
    endloop
  endfacet
  facet normal -0.994522 0.104528 0
    outer loop
      vertex -11.25 0 -8.75
      vertex -11.25 0 0
      vertex -11.0042 2.33901 -8.75
    endloop
  endfacet
  facet normal -0.994522 0.104528 0
    outer loop
      vertex -11.0042 2.33901 -8.75
      vertex -11.25 0 0
      vertex -11.0042 2.33901 0
    endloop
  endfacet
  facet normal -0.994522 -0.104528 0
    outer loop
      vertex -11.25 0 -8.75
      vertex -11.0042 -2.33901 -8.75
      vertex -11.25 0 0
    endloop
  endfacet
  facet normal -0.994522 -0.104528 0
    outer loop
      vertex -11.25 0 0
      vertex -11.0042 -2.33901 -8.75
      vertex -11.0042 -2.33901 0
    endloop
  endfacet
  facet normal 0 -1 0
    outer loop
      vertex -11.25 -31.75 -8.75
      vertex -11.25 -31.75 -13.35
      vertex 11.25 -31.75 -13.35
    endloop
  endfacet
  facet normal 0 -1 0
    outer loop
      vertex 11.25 -31.75 -8.75
      vertex -11.25 -31.75 -8.75
      vertex 11.25 -31.75 -13.35
    endloop
  endfacet
  facet normal 0 0 1
    outer loop
      vertex -5.70965 -36.7053 -13.35
      vertex -11.25 -38.25 -13.35
      vertex 11.25 -38.25 -13.35
    endloop
  endfacet
  facet normal 0 0 1
    outer loop
      vertex 4.99715 -36.1876 -13.35
      vertex -11.25 -31.75 -13.35
      vertex 11.25 -38.25 -13.35
    endloop
  endfacet
  facet normal 0 0 1
    outer loop
      vertex 6.59035 -33.9947 -13.35
      vertex 7.575 -35.35 -13.35
      vertex 11.25 -31.75 -13.35
    endloop
  endfacet
  facet normal 0 0 1
    outer loop
      vertex -11.25 -31.75 -13.35
      vertex -11.25 -38.25 -13.35
      vertex -7.30285 -36.1876 -13.35
    endloop
  endfacet
  facet normal 0 0 1
    outer loop
      vertex -4.725 -35.35 -13.35
      vertex -5.70965 -36.7053 -13.35
      vertex 11.25 -38.25 -13.35
    endloop
  endfacet
  facet normal 0 0 1
    outer loop
      vertex -11.25 -31.75 -13.35
      vertex -7.30285 -36.1876 -13.35
      vertex -7.30285 -34.5124 -13.35
    endloop
  endfacet
  facet normal 0 0 1
    outer loop
      vertex -11.25 -31.75 -13.35
      vertex -5.70965 -33.9947 -13.35
      vertex 11.25 -38.25 -13.35
    endloop
  endfacet
  facet normal 0 0 1
    outer loop
      vertex -11.25 -31.75 -13.35
      vertex -7.30285 -34.5124 -13.35
      vertex -5.70965 -33.9947 -13.35
    endloop
  endfacet
  facet normal 0 0 1
    outer loop
      vertex -7.30285 -36.1876 -13.35
      vertex -11.25 -38.25 -13.35
      vertex -5.70965 -36.7053 -13.35
    endloop
  endfacet
  facet normal 0 0 1
    outer loop
      vertex 6.59035 -36.7053 -13.35
      vertex 4.99715 -36.1876 -13.35
      vertex 11.25 -38.25 -13.35
    endloop
  endfacet
  facet normal 0 0 1
    outer loop
      vertex 4.99715 -34.5124 -13.35
      vertex -11.25 -31.75 -13.35
      vertex 4.99715 -36.1876 -13.35
    endloop
  endfacet
  facet normal 0 0 1
    outer loop
      vertex 11.25 -31.75 -13.35
      vertex -11.25 -31.75 -13.35
      vertex 4.99715 -34.5124 -13.35
    endloop
  endfacet
  facet normal 0 0 1
    outer loop
      vertex 11.25 -31.75 -13.35
      vertex 4.99715 -34.5124 -13.35
      vertex 6.59035 -33.9947 -13.35
    endloop
  endfacet
  facet normal 0 0 1
    outer loop
      vertex 11.25 -31.75 -13.35
      vertex 7.575 -35.35 -13.35
      vertex 11.25 -38.25 -13.35
    endloop
  endfacet
  facet normal 0 0 1
    outer loop
      vertex 7.575 -35.35 -13.35
      vertex 6.59035 -36.7053 -13.35
      vertex 11.25 -38.25 -13.35
    endloop
  endfacet
  facet normal 0 0 1
    outer loop
      vertex -5.70965 -33.9947 -13.35
      vertex -4.725 -35.35 -13.35
      vertex 11.25 -38.25 -13.35
    endloop
  endfacet
  facet normal 1 0 0
    outer loop
      vertex 11.25 11.75 -21.75
      vertex 11.25 18.25 -21.75
      vertex 11.25 -38.25 -13.35
    endloop
  endfacet
  facet normal 1 0 0
    outer loop
      vertex 11.25 -38.25 -13.35
      vertex 11.25 -38.25 -21.75
      vertex 11.25 -31.75 -21.75
    endloop
  endfacet
  facet normal 1 0 0
    outer loop
      vertex 11.25 11.75 -48.25
      vertex 11.25 -38.25 -13.35
      vertex 11.25 -31.75 -21.75
    endloop
  endfacet
  facet normal 1 0 0
    outer loop
      vertex 11.25 -31.75 -48.25
      vertex 11.25 11.75 -48.25
      vertex 11.25 -31.75 -21.75
    endloop
  endfacet
  facet normal 1 0 0
    outer loop
      vertex 11.25 11.75 -48.25
      vertex 11.25 11.75 -21.75
      vertex 11.25 -38.25 -13.35
    endloop
  endfacet
  facet normal 1 0 0
    outer loop
      vertex 11.25 18.25 -21.75
      vertex 11.25 11.75 -13.35
      vertex 11.25 -31.75 -13.35
    endloop
  endfacet
  facet normal 1 0 0
    outer loop
      vertex 11.25 18.25 -21.75
      vertex 11.25 18.25 -13.35
      vertex 11.25 11.75 -13.35
    endloop
  endfacet
  facet normal 1 0 0
    outer loop
      vertex 11.25 18.25 -21.75
      vertex 11.25 -31.75 -13.35
      vertex 11.25 -38.25 -13.35
    endloop
  endfacet
  facet normal 1 0 0
    outer loop
      vertex 11.25 11.75 -13.35
      vertex 11.25 11.75 -8.75
      vertex 11.25 -31.75 -13.35
    endloop
  endfacet
  facet normal 1 0 0
    outer loop
      vertex 11.25 0 -8.75
      vertex 11.25 -31.75 -13.35
      vertex 11.25 11.75 -8.75
    endloop
  endfacet
  facet normal 1 0 0
    outer loop
      vertex 11.25 -31.75 -8.75
      vertex 11.25 -31.75 -13.35
      vertex 11.25 0 -8.75
    endloop
  endfacet
  facet normal -1 0 0
    outer loop
      vertex -3.375 11.75 -44.5
      vertex -3.375 11.75 -40.05
      vertex -3.375 15.5 -44.5
    endloop
  endfacet
  facet normal -1 0 0
    outer loop
      vertex -3.375 15.5 -44.5
      vertex -3.375 11.75 -40.05
      vertex -3.375 15.5 -40.05
    endloop
  endfacet
  facet normal 0 0 1
    outer loop
      vertex -3.375 15.5 -40.05
      vertex -3.375 11.75 -40.05
      vertex 3.375 11.75 -40.05
    endloop
  endfacet
  facet normal 0 0 1
    outer loop
      vertex 3.375 15.5 -40.05
      vertex -3.375 15.5 -40.05
      vertex 3.375 11.75 -40.05
    endloop
  endfacet
  facet normal 1 0 0
    outer loop
      vertex 3.375 11.75 -40.05
      vertex 3.375 11.75 -44.5
      vertex 3.375 15.5 -44.5
    endloop
  endfacet
  facet normal 1 0 0
    outer loop
      vertex 3.375 15.5 -40.05
      vertex 3.375 11.75 -40.05
      vertex 3.375 15.5 -44.5
    endloop
  endfacet
  facet normal 0 0 -1
    outer loop
      vertex -3.375 11.75 -44.5
      vertex -3.375 15.5 -44.5
      vertex 3.375 11.75 -44.5
    endloop
  endfacet
  facet normal 0 0 -1
    outer loop
      vertex 3.375 11.75 -44.5
      vertex -3.375 15.5 -44.5
      vertex 3.375 15.5 -44.5
    endloop
  endfacet
  facet normal -1 0 0
    outer loop
      vertex -7.30285 14.5124 -13.35
      vertex -7.30285 14.5124 -1.25
      vertex -7.30285 16.1876 -13.35
    endloop
  endfacet
  facet normal -1 0 0
    outer loop
      vertex -7.30285 16.1876 -13.35
      vertex -7.30285 14.5124 -1.25
      vertex -7.30285 16.1876 -1.25
    endloop
  endfacet
  facet normal -0.309017 -0.951056 0
    outer loop
      vertex -7.30285 14.5124 -1.25
      vertex -7.30285 14.5124 -13.35
      vertex -5.70965 13.9947 -13.35
    endloop
  endfacet
  facet normal -0.309017 -0.951056 0
    outer loop
      vertex -5.70965 13.9947 -1.25
      vertex -7.30285 14.5124 -1.25
      vertex -5.70965 13.9947 -13.35
    endloop
  endfacet
  facet normal 0.809017 -0.587785 0
    outer loop
      vertex -5.70965 13.9947 -1.25
      vertex -5.70965 13.9947 -13.35
      vertex -4.725 15.35 -13.35
    endloop
  endfacet
  facet normal 0.809017 -0.587785 0
    outer loop
      vertex -4.725 15.35 -1.25
      vertex -5.70965 13.9947 -1.25
      vertex -4.725 15.35 -13.35
    endloop
  endfacet
  facet normal 0.809017 0.587785 0
    outer loop
      vertex -4.725 15.35 -13.35
      vertex -5.70965 16.7053 -13.35
      vertex -5.70965 16.7053 -1.25
    endloop
  endfacet
  facet normal 0.809017 0.587785 0
    outer loop
      vertex -4.725 15.35 -1.25
      vertex -4.725 15.35 -13.35
      vertex -5.70965 16.7053 -1.25
    endloop
  endfacet
  facet normal -0.309017 0.951056 0
    outer loop
      vertex -7.30285 16.1876 -13.35
      vertex -7.30285 16.1876 -1.25
      vertex -5.70965 16.7053 -13.35
    endloop
  endfacet
  facet normal -0.309017 0.951056 0
    outer loop
      vertex -5.70965 16.7053 -13.35
      vertex -7.30285 16.1876 -1.25
      vertex -5.70965 16.7053 -1.25
    endloop
  endfacet
  facet normal -1 0 0
    outer loop
      vertex 4.99715 14.5124 -13.35
      vertex 4.99715 14.5124 -1.25
      vertex 4.99715 16.1876 -13.35
    endloop
  endfacet
  facet normal -1 0 0
    outer loop
      vertex 4.99715 16.1876 -13.35
      vertex 4.99715 14.5124 -1.25
      vertex 4.99715 16.1876 -1.25
    endloop
  endfacet
  facet normal -0.309017 -0.951056 0
    outer loop
      vertex 4.99715 14.5124 -1.25
      vertex 4.99715 14.5124 -13.35
      vertex 6.59035 13.9947 -13.35
    endloop
  endfacet
  facet normal -0.309017 -0.951056 0
    outer loop
      vertex 6.59035 13.9947 -1.25
      vertex 4.99715 14.5124 -1.25
      vertex 6.59035 13.9947 -13.35
    endloop
  endfacet
  facet normal 0.809017 -0.587785 0
    outer loop
      vertex 6.59035 13.9947 -1.25
      vertex 6.59035 13.9947 -13.35
      vertex 7.575 15.35 -13.35
    endloop
  endfacet
  facet normal 0.809017 -0.587785 0
    outer loop
      vertex 7.575 15.35 -1.25
      vertex 6.59035 13.9947 -1.25
      vertex 7.575 15.35 -13.35
    endloop
  endfacet
  facet normal 0.809017 0.587785 0
    outer loop
      vertex 7.575 15.35 -13.35
      vertex 6.59035 16.7053 -13.35
      vertex 6.59035 16.7053 -1.25
    endloop
  endfacet
  facet normal 0.809017 0.587785 0
    outer loop
      vertex 7.575 15.35 -1.25
      vertex 7.575 15.35 -13.35
      vertex 6.59035 16.7053 -1.25
    endloop
  endfacet
  facet normal -0.309017 0.951056 0
    outer loop
      vertex 4.99715 16.1876 -13.35
      vertex 4.99715 16.1876 -1.25
      vertex 6.59035 16.7053 -13.35
    endloop
  endfacet
  facet normal -0.309017 0.951056 0
    outer loop
      vertex 6.59035 16.7053 -13.35
      vertex 4.99715 16.1876 -1.25
      vertex 6.59035 16.7053 -1.25
    endloop
  endfacet
  facet normal 0.994522 -0.104528 0
    outer loop
      vertex 11.0042 -2.33901 0
      vertex 11.0042 -2.33901 -8.75
      vertex 11.25 0 -8.75
    endloop
  endfacet
  facet normal 0.994522 -0.104528 0
    outer loop
      vertex 11.25 0 0
      vertex 11.0042 -2.33901 0
      vertex 11.25 0 -8.75
    endloop
  endfacet
  facet normal 0.994522 0.104528 0
    outer loop
      vertex 11.25 0 -8.75
      vertex 11.0042 2.33901 -8.75
      vertex 11.0042 2.33901 0
    endloop
  endfacet
  facet normal 0.994522 0.104528 0
    outer loop
      vertex 11.25 0 0
      vertex 11.25 0 -8.75
      vertex 11.0042 2.33901 0
    endloop
  endfacet
  facet normal 0.951056 0.309017 0
    outer loop
      vertex 11.0042 2.33901 -8.75
      vertex 10.2774 4.57579 -8.75
      vertex 10.2774 4.57579 0
    endloop
  endfacet
  facet normal 0.951056 0.309017 0
    outer loop
      vertex 11.0042 2.33901 0
      vertex 11.0042 2.33901 -8.75
      vertex 10.2774 4.57579 0
    endloop
  endfacet
  facet normal 0.866025 0.5 0
    outer loop
      vertex 10.2774 4.57579 -8.75
      vertex 9.10144 6.61258 -8.75
      vertex 9.10144 6.61258 0
    endloop
  endfacet
  facet normal 0.866025 0.5 0
    outer loop
      vertex 10.2774 4.57579 0
      vertex 10.2774 4.57579 -8.75
      vertex 9.10144 6.61258 0
    endloop
  endfacet
  facet normal 0.743145 0.669131 0
    outer loop
      vertex 9.10144 6.61258 -8.75
      vertex 7.52772 8.36038 -8.75
      vertex 7.52772 8.36038 0
    endloop
  endfacet
  facet normal 0.743145 0.669131 0
    outer loop
      vertex 9.10144 6.61258 0
      vertex 9.10144 6.61258 -8.75
      vertex 7.52772 8.36038 0
    endloop
  endfacet
  facet normal 0.587785 0.809017 0
    outer loop
      vertex 5.625 9.74279 -8.75
      vertex 5.625 9.74279 0
      vertex 7.52772 8.36038 -8.75
    endloop
  endfacet
  facet normal 0.587785 0.809017 0
    outer loop
      vertex 7.52772 8.36038 -8.75
      vertex 5.625 9.74279 0
      vertex 7.52772 8.36038 0
    endloop
  endfacet
  facet normal 0.406737 0.913545 0
    outer loop
      vertex 3.47644 10.6994 -8.75
      vertex 3.47644 10.6994 0
      vertex 5.625 9.74279 -8.75
    endloop
  endfacet
  facet normal 0.406737 0.913545 0
    outer loop
      vertex 5.625 9.74279 -8.75
      vertex 3.47644 10.6994 0
      vertex 5.625 9.74279 0
    endloop
  endfacet
  facet normal 0.207911 0.978148 0
    outer loop
      vertex 1.17595 11.1884 -8.75
      vertex 1.17595 11.1884 0
      vertex 3.47644 10.6994 -8.75
    endloop
  endfacet
  facet normal 0.207911 0.978148 0
    outer loop
      vertex 3.47644 10.6994 -8.75
      vertex 1.17595 11.1884 0
      vertex 3.47644 10.6994 0
    endloop
  endfacet
  facet normal 0 1 0
    outer loop
      vertex -1.17595 11.1884 -8.75
      vertex -1.17595 11.1884 0
      vertex 1.17595 11.1884 -8.75
    endloop
  endfacet
  facet normal 0 1 0
    outer loop
      vertex 1.17595 11.1884 -8.75
      vertex -1.17595 11.1884 0
      vertex 1.17595 11.1884 0
    endloop
  endfacet
  facet normal -0.207911 0.978148 0
    outer loop
      vertex -3.47644 10.6994 -8.75
      vertex -3.47644 10.6994 0
      vertex -1.17595 11.1884 -8.75
    endloop
  endfacet
  facet normal -0.207911 0.978148 0
    outer loop
      vertex -1.17595 11.1884 -8.75
      vertex -3.47644 10.6994 0
      vertex -1.17595 11.1884 0
    endloop
  endfacet
  facet normal -0.406737 0.913545 0
    outer loop
      vertex -5.625 9.74279 -8.75
      vertex -5.625 9.74279 0
      vertex -3.47644 10.6994 -8.75
    endloop
  endfacet
  facet normal -0.406737 0.913545 0
    outer loop
      vertex -3.47644 10.6994 -8.75
      vertex -5.625 9.74279 0
      vertex -3.47644 10.6994 0
    endloop
  endfacet
  facet normal -0.587785 0.809017 0
    outer loop
      vertex -7.52772 8.36038 -8.75
      vertex -7.52772 8.36038 0
      vertex -5.625 9.74279 -8.75
    endloop
  endfacet
  facet normal -0.587785 0.809017 0
    outer loop
      vertex -5.625 9.74279 -8.75
      vertex -7.52772 8.36038 0
      vertex -5.625 9.74279 0
    endloop
  endfacet
  facet normal -0.743145 0.669131 0
    outer loop
      vertex -9.10144 6.61258 -8.75
      vertex -9.10144 6.61258 0
      vertex -7.52772 8.36038 -8.75
    endloop
  endfacet
  facet normal -0.743145 0.669131 0
    outer loop
      vertex -7.52772 8.36038 -8.75
      vertex -9.10144 6.61258 0
      vertex -7.52772 8.36038 0
    endloop
  endfacet
  facet normal -0.866025 0.5 0
    outer loop
      vertex -10.2774 4.57579 -8.75
      vertex -10.2774 4.57579 0
      vertex -9.10144 6.61258 -8.75
    endloop
  endfacet
  facet normal -0.866025 0.5 0
    outer loop
      vertex -9.10144 6.61258 -8.75
      vertex -10.2774 4.57579 0
      vertex -9.10144 6.61258 0
    endloop
  endfacet
  facet normal -0.951056 0.309017 0
    outer loop
      vertex -11.0042 2.33901 -8.75
      vertex -11.0042 2.33901 0
      vertex -10.2774 4.57579 -8.75
    endloop
  endfacet
  facet normal -0.951056 0.309017 0
    outer loop
      vertex -10.2774 4.57579 -8.75
      vertex -11.0042 2.33901 0
      vertex -10.2774 4.57579 0
    endloop
  endfacet
  facet normal -0.951056 -0.309017 0
    outer loop
      vertex -11.0042 -2.33901 -8.75
      vertex -10.2774 -4.57579 -8.75
      vertex -11.0042 -2.33901 0
    endloop
  endfacet
  facet normal -0.951056 -0.309017 0
    outer loop
      vertex -11.0042 -2.33901 0
      vertex -10.2774 -4.57579 -8.75
      vertex -10.2774 -4.57579 0
    endloop
  endfacet
  facet normal -0.866025 -0.5 0
    outer loop
      vertex -10.2774 -4.57579 -8.75
      vertex -9.10144 -6.61258 -8.75
      vertex -10.2774 -4.57579 0
    endloop
  endfacet
  facet normal -0.866025 -0.5 0
    outer loop
      vertex -10.2774 -4.57579 0
      vertex -9.10144 -6.61258 -8.75
      vertex -9.10144 -6.61258 0
    endloop
  endfacet
  facet normal -0.743145 -0.669131 0
    outer loop
      vertex -9.10144 -6.61258 -8.75
      vertex -7.52772 -8.36038 -8.75
      vertex -9.10144 -6.61258 0
    endloop
  endfacet
  facet normal -0.743145 -0.669131 0
    outer loop
      vertex -9.10144 -6.61258 0
      vertex -7.52772 -8.36038 -8.75
      vertex -7.52772 -8.36038 0
    endloop
  endfacet
  facet normal -0.587785 -0.809017 0
    outer loop
      vertex -7.52772 -8.36038 0
      vertex -7.52772 -8.36038 -8.75
      vertex -5.625 -9.74279 -8.75
    endloop
  endfacet
  facet normal -0.587785 -0.809017 0
    outer loop
      vertex -5.625 -9.74279 0
      vertex -7.52772 -8.36038 0
      vertex -5.625 -9.74279 -8.75
    endloop
  endfacet
  facet normal -0.406737 -0.913545 0
    outer loop
      vertex -5.625 -9.74279 0
      vertex -5.625 -9.74279 -8.75
      vertex -3.47644 -10.6994 -8.75
    endloop
  endfacet
  facet normal -0.406737 -0.913545 0
    outer loop
      vertex -3.47644 -10.6994 0
      vertex -5.625 -9.74279 0
      vertex -3.47644 -10.6994 -8.75
    endloop
  endfacet
  facet normal -0.207911 -0.978148 0
    outer loop
      vertex -3.47644 -10.6994 0
      vertex -3.47644 -10.6994 -8.75
      vertex -1.17595 -11.1884 -8.75
    endloop
  endfacet
  facet normal -0.207911 -0.978148 0
    outer loop
      vertex -1.17595 -11.1884 0
      vertex -3.47644 -10.6994 0
      vertex -1.17595 -11.1884 -8.75
    endloop
  endfacet
  facet normal 0 -1 0
    outer loop
      vertex -1.17595 -11.1884 0
      vertex -1.17595 -11.1884 -8.75
      vertex 1.17595 -11.1884 -8.75
    endloop
  endfacet
  facet normal 0 -1 0
    outer loop
      vertex 1.17595 -11.1884 0
      vertex -1.17595 -11.1884 0
      vertex 1.17595 -11.1884 -8.75
    endloop
  endfacet
  facet normal 0.207911 -0.978148 0
    outer loop
      vertex 1.17595 -11.1884 0
      vertex 1.17595 -11.1884 -8.75
      vertex 3.47644 -10.6994 -8.75
    endloop
  endfacet
  facet normal 0.207911 -0.978148 0
    outer loop
      vertex 3.47644 -10.6994 0
      vertex 1.17595 -11.1884 0
      vertex 3.47644 -10.6994 -8.75
    endloop
  endfacet
  facet normal 0.406737 -0.913545 0
    outer loop
      vertex 3.47644 -10.6994 0
      vertex 3.47644 -10.6994 -8.75
      vertex 5.625 -9.74279 -8.75
    endloop
  endfacet
  facet normal 0.406737 -0.913545 0
    outer loop
      vertex 5.625 -9.74279 0
      vertex 3.47644 -10.6994 0
      vertex 5.625 -9.74279 -8.75
    endloop
  endfacet
  facet normal 0.587785 -0.809017 0
    outer loop
      vertex 5.625 -9.74279 0
      vertex 5.625 -9.74279 -8.75
      vertex 7.52772 -8.36038 -8.75
    endloop
  endfacet
  facet normal 0.587785 -0.809017 0
    outer loop
      vertex 7.52772 -8.36038 0
      vertex 5.625 -9.74279 0
      vertex 7.52772 -8.36038 -8.75
    endloop
  endfacet
  facet normal 0.743145 -0.669131 0
    outer loop
      vertex 7.52772 -8.36038 0
      vertex 7.52772 -8.36038 -8.75
      vertex 9.10144 -6.61258 -8.75
    endloop
  endfacet
  facet normal 0.743145 -0.669131 0
    outer loop
      vertex 9.10144 -6.61258 0
      vertex 7.52772 -8.36038 0
      vertex 9.10144 -6.61258 -8.75
    endloop
  endfacet
  facet normal 0.866025 -0.5 0
    outer loop
      vertex 9.10144 -6.61258 0
      vertex 9.10144 -6.61258 -8.75
      vertex 10.2774 -4.57579 -8.75
    endloop
  endfacet
  facet normal 0.866025 -0.5 0
    outer loop
      vertex 10.2774 -4.57579 0
      vertex 9.10144 -6.61258 0
      vertex 10.2774 -4.57579 -8.75
    endloop
  endfacet
  facet normal 0.951056 -0.309017 0
    outer loop
      vertex 10.2774 -4.57579 0
      vertex 10.2774 -4.57579 -8.75
      vertex 11.0042 -2.33901 -8.75
    endloop
  endfacet
  facet normal 0.951056 -0.309017 0
    outer loop
      vertex 11.0042 -2.33901 0
      vertex 10.2774 -4.57579 0
      vertex 11.0042 -2.33901 -8.75
    endloop
  endfacet
  facet normal 0 0 1
    outer loop
      vertex -11.0042 2.33901 0
      vertex -11.25 0 0
      vertex -11.0042 -2.33901 0
    endloop
  endfacet
  facet normal 0 0 1
    outer loop
      vertex -9.10144 -6.61258 0
      vertex -11.0042 2.33901 0
      vertex -10.2774 -4.57579 0
    endloop
  endfacet
  facet normal 0 0 1
    outer loop
      vertex -10.2774 -4.57579 0
      vertex -11.0042 2.33901 0
      vertex -11.0042 -2.33901 0
    endloop
  endfacet
  facet normal 0 0 1
    outer loop
      vertex -7.52772 -8.36038 0
      vertex -11.0042 2.33901 0
      vertex -9.10144 -6.61258 0
    endloop
  endfacet
  facet normal 0 0 1
    outer loop
      vertex -5.625 -9.74279 0
      vertex -11.0042 2.33901 0
      vertex -7.52772 -8.36038 0
    endloop
  endfacet
  facet normal 0 0 1
    outer loop
      vertex -3.47644 -10.6994 0
      vertex -11.0042 2.33901 0
      vertex -5.625 -9.74279 0
    endloop
  endfacet
  facet normal 0 0 1
    outer loop
      vertex -1.17595 -11.1884 0
      vertex -11.0042 2.33901 0
      vertex -3.47644 -10.6994 0
    endloop
  endfacet
  facet normal 0 0 1
    outer loop
      vertex -8.27285 -0.837594 0
      vertex -11.0042 2.33901 0
      vertex -1.17595 -11.1884 0
    endloop
  endfacet
  facet normal 0 0 1
    outer loop
      vertex -8.27285 -0.837594 0
      vertex -8.27285 0.837594 0
      vertex -11.0042 2.33901 0
    endloop
  endfacet
  facet normal 0 0 1
    outer loop
      vertex -6.67965 1.35526 0
      vertex -5.695 0 0
      vertex 10.2774 -4.57579 0
    endloop
  endfacet
  facet normal 0 0 1
    outer loop
      vertex -5.695 0 0
      vertex 0.440349 -5.76474 0
      vertex 7.52772 -8.36038 0
    endloop
  endfacet
  facet normal 0 0 1
    outer loop
      vertex 7.56035 -1.35526 0
      vertex -11.0042 2.33901 0
      vertex 11.0042 -2.33901 0
    endloop
  endfacet
  facet normal 0 0 1
    outer loop
      vertex 10.2774 4.57579 0
      vertex -11.0042 2.33901 0
      vertex 11.0042 2.33901 0
    endloop
  endfacet
  facet normal 0 0 1
    outer loop
      vertex 9.10144 6.61258 0
      vertex -11.0042 2.33901 0
      vertex 10.2774 4.57579 0
    endloop
  endfacet
  facet normal 0 0 1
    outer loop
      vertex 0.440349 5.76474 0
      vertex -11.0042 2.33901 0
      vertex 9.10144 6.61258 0
    endloop
  endfacet
  facet normal 0 0 1
    outer loop
      vertex 1.425 7.12 0
      vertex 0.440349 5.76474 0
      vertex 7.52772 8.36038 0
    endloop
  endfacet
  facet normal 0 0 1
    outer loop
      vertex 1.17595 11.1884 0
      vertex -11.0042 2.33901 0
      vertex 3.47644 10.6994 0
    endloop
  endfacet
  facet normal 0 0 1
    outer loop
      vertex -1.17595 11.1884 0
      vertex -11.0042 2.33901 0
      vertex 1.17595 11.1884 0
    endloop
  endfacet
  facet normal 0 0 1
    outer loop
      vertex -3.47644 10.6994 0
      vertex -11.0042 2.33901 0
      vertex -1.17595 11.1884 0
    endloop
  endfacet
  facet normal 0 0 1
    outer loop
      vertex -5.625 9.74279 0
      vertex -11.0042 2.33901 0
      vertex -3.47644 10.6994 0
    endloop
  endfacet
  facet normal 0 0 1
    outer loop
      vertex -7.52772 8.36038 0
      vertex -11.0042 2.33901 0
      vertex -5.625 9.74279 0
    endloop
  endfacet
  facet normal 0 0 1
    outer loop
      vertex -9.10144 6.61258 0
      vertex -11.0042 2.33901 0
      vertex -7.52772 8.36038 0
    endloop
  endfacet
  facet normal 0 0 1
    outer loop
      vertex -10.2774 4.57579 0
      vertex -11.0042 2.33901 0
      vertex -9.10144 6.61258 0
    endloop
  endfacet
  facet normal 0 0 1
    outer loop
      vertex 1.17595 -11.1884 0
      vertex -8.27285 -0.837594 0
      vertex -1.17595 -11.1884 0
    endloop
  endfacet
  facet normal 0 0 1
    outer loop
      vertex -1.15285 -7.95759 0
      vertex -1.15285 -6.28241 0
      vertex -6.67965 -1.35526 0
    endloop
  endfacet
  facet normal 0 0 1
    outer loop
      vertex 11.0042 -2.33901 0
      vertex -6.67965 1.35526 0
      vertex 10.2774 -4.57579 0
    endloop
  endfacet
  facet normal 0 0 1
    outer loop
      vertex 11.0042 -2.33901 0
      vertex -11.0042 2.33901 0
      vertex -6.67965 1.35526 0
    endloop
  endfacet
  facet normal 0 0 1
    outer loop
      vertex 10.2774 -4.57579 0
      vertex -5.695 0 0
      vertex 9.10144 -6.61258 0
    endloop
  endfacet
  facet normal 0 0 1
    outer loop
      vertex -5.695 0 0
      vertex 7.52772 -8.36038 0
      vertex 9.10144 -6.61258 0
    endloop
  endfacet
  facet normal 0 0 1
    outer loop
      vertex 0.440349 -5.76474 0
      vertex 1.425 -7.12 0
      vertex 5.625 -9.74279 0
    endloop
  endfacet
  facet normal 0 0 1
    outer loop
      vertex -8.27285 0.837594 0
      vertex -6.67965 1.35526 0
      vertex -11.0042 2.33901 0
    endloop
  endfacet
  facet normal 0 0 1
    outer loop
      vertex 3.47644 -10.6994 0
      vertex -1.15285 -7.95759 0
      vertex 1.17595 -11.1884 0
    endloop
  endfacet
  facet normal 0 0 1
    outer loop
      vertex 0.440349 5.76474 0
      vertex -1.15285 6.28241 0
      vertex -11.0042 2.33901 0
    endloop
  endfacet
  facet normal 0 0 1
    outer loop
      vertex 1.425 -7.12 0
      vertex 0.440349 -8.47526 0
      vertex 3.47644 -10.6994 0
    endloop
  endfacet
  facet normal 0 0 1
    outer loop
      vertex 7.52772 -8.36038 0
      vertex 0.440349 -5.76474 0
      vertex 5.625 -9.74279 0
    endloop
  endfacet
  facet normal 0 0 1
    outer loop
      vertex 0.440349 8.47526 0
      vertex 1.425 7.12 0
      vertex 5.625 9.74279 0
    endloop
  endfacet
  facet normal 0 0 1
    outer loop
      vertex 1.425 -7.12 0
      vertex 3.47644 -10.6994 0
      vertex 5.625 -9.74279 0
    endloop
  endfacet
  facet normal 0 0 1
    outer loop
      vertex 3.47644 -10.6994 0
      vertex 0.440349 -8.47526 0
      vertex -1.15285 -7.95759 0
    endloop
  endfacet
  facet normal 0 0 1
    outer loop
      vertex 5.96715 -0.837594 0
      vertex 5.96715 0.837594 0
      vertex -11.0042 2.33901 0
    endloop
  endfacet
  facet normal 0 0 1
    outer loop
      vertex 3.47644 10.6994 0
      vertex -11.0042 2.33901 0
      vertex -1.15285 7.95759 0
    endloop
  endfacet
  facet normal 0 0 1
    outer loop
      vertex 3.47644 10.6994 0
      vertex 0.440349 8.47526 0
      vertex 5.625 9.74279 0
    endloop
  endfacet
  facet normal 0 0 1
    outer loop
      vertex 3.47644 10.6994 0
      vertex -1.15285 7.95759 0
      vertex 0.440349 8.47526 0
    endloop
  endfacet
  facet normal 0 0 1
    outer loop
      vertex 5.625 9.74279 0
      vertex 1.425 7.12 0
      vertex 7.52772 8.36038 0
    endloop
  endfacet
  facet normal 0 0 1
    outer loop
      vertex 7.52772 8.36038 0
      vertex 0.440349 5.76474 0
      vertex 9.10144 6.61258 0
    endloop
  endfacet
  facet normal 0 0 1
    outer loop
      vertex -1.15285 6.28241 0
      vertex -1.15285 7.95759 0
      vertex -11.0042 2.33901 0
    endloop
  endfacet
  facet normal 0 0 1
    outer loop
      vertex 7.56035 1.35526 0
      vertex 8.545 0 0
      vertex 11.25 0 0
    endloop
  endfacet
  facet normal 0 0 1
    outer loop
      vertex 8.545 0 0
      vertex 11.0042 -2.33901 0
      vertex 11.25 0 0
    endloop
  endfacet
  facet normal 0 0 1
    outer loop
      vertex 7.56035 1.35526 0
      vertex -11.0042 2.33901 0
      vertex 5.96715 0.837594 0
    endloop
  endfacet
  facet normal 0 0 1
    outer loop
      vertex 8.545 0 0
      vertex 7.56035 -1.35526 0
      vertex 11.0042 -2.33901 0
    endloop
  endfacet
  facet normal 0 0 1
    outer loop
      vertex 11.0042 2.33901 0
      vertex -11.0042 2.33901 0
      vertex 7.56035 1.35526 0
    endloop
  endfacet
  facet normal 0 0 1
    outer loop
      vertex 7.56035 1.35526 0
      vertex 11.25 0 0
      vertex 11.0042 2.33901 0
    endloop
  endfacet
  facet normal 0 0 1
    outer loop
      vertex 5.96715 -0.837594 0
      vertex -11.0042 2.33901 0
      vertex 7.56035 -1.35526 0
    endloop
  endfacet
  facet normal 0 0 1
    outer loop
      vertex -5.695 0 0
      vertex -6.67965 -1.35526 0
      vertex 0.440349 -5.76474 0
    endloop
  endfacet
  facet normal 0 0 1
    outer loop
      vertex -1.15285 -6.28241 0
      vertex 0.440349 -5.76474 0
      vertex -6.67965 -1.35526 0
    endloop
  endfacet
  facet normal 0 0 1
    outer loop
      vertex -6.67965 -1.35526 0
      vertex 1.17595 -11.1884 0
      vertex -1.15285 -7.95759 0
    endloop
  endfacet
  facet normal 0 0 1
    outer loop
      vertex -6.67965 -1.35526 0
      vertex -8.27285 -0.837594 0
      vertex 1.17595 -11.1884 0
    endloop
  endfacet
  facet normal -0.309017 -0.951056 0
    outer loop
      vertex -7.30285 -36.1876 -1.25
      vertex -7.30285 -36.1876 -13.35
      vertex -5.70965 -36.7053 -13.35
    endloop
  endfacet
  facet normal -0.309017 -0.951056 0
    outer loop
      vertex -5.70965 -36.7053 -1.25
      vertex -7.30285 -36.1876 -1.25
      vertex -5.70965 -36.7053 -13.35
    endloop
  endfacet
  facet normal -1 0 0
    outer loop
      vertex -7.30285 -36.1876 -13.35
      vertex -7.30285 -36.1876 -1.25
      vertex -7.30285 -34.5124 -13.35
    endloop
  endfacet
  facet normal -1 0 0
    outer loop
      vertex -7.30285 -34.5124 -13.35
      vertex -7.30285 -36.1876 -1.25
      vertex -7.30285 -34.5124 -1.25
    endloop
  endfacet
  facet normal 0.809017 -0.587785 0
    outer loop
      vertex -5.70965 -36.7053 -1.25
      vertex -5.70965 -36.7053 -13.35
      vertex -4.725 -35.35 -13.35
    endloop
  endfacet
  facet normal 0.809017 -0.587785 0
    outer loop
      vertex -4.725 -35.35 -1.25
      vertex -5.70965 -36.7053 -1.25
      vertex -4.725 -35.35 -13.35
    endloop
  endfacet
  facet normal 0.809017 0.587785 0
    outer loop
      vertex -4.725 -35.35 -13.35
      vertex -5.70965 -33.9947 -13.35
      vertex -5.70965 -33.9947 -1.25
    endloop
  endfacet
  facet normal 0.809017 0.587785 0
    outer loop
      vertex -4.725 -35.35 -1.25
      vertex -4.725 -35.35 -13.35
      vertex -5.70965 -33.9947 -1.25
    endloop
  endfacet
  facet normal -0.309017 0.951056 0
    outer loop
      vertex -7.30285 -34.5124 -13.35
      vertex -7.30285 -34.5124 -1.25
      vertex -5.70965 -33.9947 -13.35
    endloop
  endfacet
  facet normal -0.309017 0.951056 0
    outer loop
      vertex -5.70965 -33.9947 -13.35
      vertex -7.30285 -34.5124 -1.25
      vertex -5.70965 -33.9947 -1.25
    endloop
  endfacet
  facet normal -0.309017 -0.951056 0
    outer loop
      vertex 4.99715 -36.1876 -1.25
      vertex 4.99715 -36.1876 -13.35
      vertex 6.59035 -36.7053 -13.35
    endloop
  endfacet
  facet normal -0.309017 -0.951056 0
    outer loop
      vertex 6.59035 -36.7053 -1.25
      vertex 4.99715 -36.1876 -1.25
      vertex 6.59035 -36.7053 -13.35
    endloop
  endfacet
  facet normal -1 0 0
    outer loop
      vertex 4.99715 -36.1876 -13.35
      vertex 4.99715 -36.1876 -1.25
      vertex 4.99715 -34.5124 -13.35
    endloop
  endfacet
  facet normal -1 0 0
    outer loop
      vertex 4.99715 -34.5124 -13.35
      vertex 4.99715 -36.1876 -1.25
      vertex 4.99715 -34.5124 -1.25
    endloop
  endfacet
  facet normal 0.809017 -0.587785 0
    outer loop
      vertex 6.59035 -36.7053 -1.25
      vertex 6.59035 -36.7053 -13.35
      vertex 7.575 -35.35 -13.35
    endloop
  endfacet
  facet normal 0.809017 -0.587785 0
    outer loop
      vertex 7.575 -35.35 -1.25
      vertex 6.59035 -36.7053 -1.25
      vertex 7.575 -35.35 -13.35
    endloop
  endfacet
  facet normal 0.809017 0.587785 0
    outer loop
      vertex 7.575 -35.35 -13.35
      vertex 6.59035 -33.9947 -13.35
      vertex 6.59035 -33.9947 -1.25
    endloop
  endfacet
  facet normal 0.809017 0.587785 0
    outer loop
      vertex 7.575 -35.35 -1.25
      vertex 7.575 -35.35 -13.35
      vertex 6.59035 -33.9947 -1.25
    endloop
  endfacet
  facet normal -0.309017 0.951056 0
    outer loop
      vertex 4.99715 -34.5124 -13.35
      vertex 4.99715 -34.5124 -1.25
      vertex 6.59035 -33.9947 -13.35
    endloop
  endfacet
  facet normal -0.309017 0.951056 0
    outer loop
      vertex 6.59035 -33.9947 -13.35
      vertex 4.99715 -34.5124 -1.25
      vertex 6.59035 -33.9947 -1.25
    endloop
  endfacet
  facet normal 0 1 0
    outer loop
      vertex -3.375 15.5 -44.5
      vertex -3.375 15.5 -40.05
      vertex 3.375 15.5 -44.5
    endloop
  endfacet
  facet normal 0 1 0
    outer loop
      vertex 3.375 15.5 -44.5
      vertex -3.375 15.5 -40.05
      vertex 3.375 15.5 -40.05
    endloop
  endfacet
  facet normal 0 0 1
    outer loop
      vertex -7.30285 16.1876 -1.25
      vertex -7.30285 14.5124 -1.25
      vertex -5.70965 13.9947 -1.25
    endloop
  endfacet
  facet normal 0 0 1
    outer loop
      vertex -5.70965 16.7053 -1.25
      vertex -7.30285 16.1876 -1.25
      vertex -4.725 15.35 -1.25
    endloop
  endfacet
  facet normal 0 0 1
    outer loop
      vertex -4.725 15.35 -1.25
      vertex -7.30285 16.1876 -1.25
      vertex -5.70965 13.9947 -1.25
    endloop
  endfacet
  facet normal 0 0 1
    outer loop
      vertex 4.99715 16.1876 -1.25
      vertex 4.99715 14.5124 -1.25
      vertex 6.59035 13.9947 -1.25
    endloop
  endfacet
  facet normal 0 0 1
    outer loop
      vertex 6.59035 16.7053 -1.25
      vertex 4.99715 16.1876 -1.25
      vertex 7.575 15.35 -1.25
    endloop
  endfacet
  facet normal 0 0 1
    outer loop
      vertex 7.575 15.35 -1.25
      vertex 4.99715 16.1876 -1.25
      vertex 6.59035 13.9947 -1.25
    endloop
  endfacet
  facet normal -1 0 0
    outer loop
      vertex -8.27285 -0.837594 0
      vertex -8.27285 -0.837594 12.75
      vertex -8.27285 0.837594 0
    endloop
  endfacet
  facet normal -1 0 0
    outer loop
      vertex -8.27285 0.837594 0
      vertex -8.27285 -0.837594 12.75
      vertex -8.27285 0.837594 12.75
    endloop
  endfacet
  facet normal -0.309017 -0.951056 0
    outer loop
      vertex -8.27285 -0.837594 12.75
      vertex -8.27285 -0.837594 0
      vertex -6.67965 -1.35526 0
    endloop
  endfacet
  facet normal -0.309017 -0.951056 0
    outer loop
      vertex -6.67965 -1.35526 12.75
      vertex -8.27285 -0.837594 12.75
      vertex -6.67965 -1.35526 0
    endloop
  endfacet
  facet normal 0.809017 -0.587785 0
    outer loop
      vertex -6.67965 -1.35526 12.75
      vertex -6.67965 -1.35526 0
      vertex -5.695 0 0
    endloop
  endfacet
  facet normal 0.809017 -0.587785 0
    outer loop
      vertex -5.695 0 12.75
      vertex -6.67965 -1.35526 12.75
      vertex -5.695 0 0
    endloop
  endfacet
  facet normal 0.809017 0.587785 0
    outer loop
      vertex -5.695 0 0
      vertex -6.67965 1.35526 0
      vertex -6.67965 1.35526 12.75
    endloop
  endfacet
  facet normal 0.809017 0.587785 0
    outer loop
      vertex -5.695 0 12.75
      vertex -5.695 0 0
      vertex -6.67965 1.35526 12.75
    endloop
  endfacet
  facet normal -0.309017 0.951056 0
    outer loop
      vertex -8.27285 0.837594 0
      vertex -8.27285 0.837594 12.75
      vertex -6.67965 1.35526 0
    endloop
  endfacet
  facet normal -0.309017 0.951056 0
    outer loop
      vertex -6.67965 1.35526 0
      vertex -8.27285 0.837594 12.75
      vertex -6.67965 1.35526 12.75
    endloop
  endfacet
  facet normal -0.309017 -0.951056 0
    outer loop
      vertex -1.15285 -7.95759 12.75
      vertex -1.15285 -7.95759 0
      vertex 0.440349 -8.47526 0
    endloop
  endfacet
  facet normal -0.309017 -0.951056 0
    outer loop
      vertex 0.440349 -8.47526 12.75
      vertex -1.15285 -7.95759 12.75
      vertex 0.440349 -8.47526 0
    endloop
  endfacet
  facet normal -1 0 0
    outer loop
      vertex -1.15285 -7.95759 0
      vertex -1.15285 -7.95759 12.75
      vertex -1.15285 -6.28241 0
    endloop
  endfacet
  facet normal -1 0 0
    outer loop
      vertex -1.15285 -6.28241 0
      vertex -1.15285 -7.95759 12.75
      vertex -1.15285 -6.28241 12.75
    endloop
  endfacet
  facet normal 0.809017 -0.587785 0
    outer loop
      vertex 0.440349 -8.47526 12.75
      vertex 0.440349 -8.47526 0
      vertex 1.425 -7.12 0
    endloop
  endfacet
  facet normal 0.809017 -0.587785 0
    outer loop
      vertex 1.425 -7.12 12.75
      vertex 0.440349 -8.47526 12.75
      vertex 1.425 -7.12 0
    endloop
  endfacet
  facet normal 0.809017 0.587785 0
    outer loop
      vertex 1.425 -7.12 0
      vertex 0.440349 -5.76474 0
      vertex 0.440349 -5.76474 12.75
    endloop
  endfacet
  facet normal 0.809017 0.587785 0
    outer loop
      vertex 1.425 -7.12 12.75
      vertex 1.425 -7.12 0
      vertex 0.440349 -5.76474 12.75
    endloop
  endfacet
  facet normal -0.309017 0.951056 0
    outer loop
      vertex -1.15285 -6.28241 0
      vertex -1.15285 -6.28241 12.75
      vertex 0.440349 -5.76474 0
    endloop
  endfacet
  facet normal -0.309017 0.951056 0
    outer loop
      vertex 0.440349 -5.76474 0
      vertex -1.15285 -6.28241 12.75
      vertex 0.440349 -5.76474 12.75
    endloop
  endfacet
  facet normal -0.309017 -0.951056 0
    outer loop
      vertex -1.15285 6.28241 12.75
      vertex -1.15285 6.28241 0
      vertex 0.440349 5.76474 0
    endloop
  endfacet
  facet normal -0.309017 -0.951056 0
    outer loop
      vertex 0.440349 5.76474 12.75
      vertex -1.15285 6.28241 12.75
      vertex 0.440349 5.76474 0
    endloop
  endfacet
  facet normal -1 0 0
    outer loop
      vertex -1.15285 6.28241 0
      vertex -1.15285 6.28241 12.75
      vertex -1.15285 7.95759 0
    endloop
  endfacet
  facet normal -1 0 0
    outer loop
      vertex -1.15285 7.95759 0
      vertex -1.15285 6.28241 12.75
      vertex -1.15285 7.95759 12.75
    endloop
  endfacet
  facet normal 0.809017 -0.587785 0
    outer loop
      vertex 0.440349 5.76474 12.75
      vertex 0.440349 5.76474 0
      vertex 1.425 7.12 0
    endloop
  endfacet
  facet normal 0.809017 -0.587785 0
    outer loop
      vertex 1.425 7.12 12.75
      vertex 0.440349 5.76474 12.75
      vertex 1.425 7.12 0
    endloop
  endfacet
  facet normal 0.809017 0.587785 0
    outer loop
      vertex 1.425 7.12 0
      vertex 0.440349 8.47526 0
      vertex 0.440349 8.47526 12.75
    endloop
  endfacet
  facet normal 0.809017 0.587785 0
    outer loop
      vertex 1.425 7.12 12.75
      vertex 1.425 7.12 0
      vertex 0.440349 8.47526 12.75
    endloop
  endfacet
  facet normal -0.309017 0.951056 0
    outer loop
      vertex -1.15285 7.95759 0
      vertex -1.15285 7.95759 12.75
      vertex 0.440349 8.47526 0
    endloop
  endfacet
  facet normal -0.309017 0.951056 0
    outer loop
      vertex 0.440349 8.47526 0
      vertex -1.15285 7.95759 12.75
      vertex 0.440349 8.47526 12.75
    endloop
  endfacet
  facet normal -1 0 0
    outer loop
      vertex 5.96715 -0.837594 0
      vertex 5.96715 -0.837594 12.75
      vertex 5.96715 0.837594 0
    endloop
  endfacet
  facet normal -1 0 0
    outer loop
      vertex 5.96715 0.837594 0
      vertex 5.96715 -0.837594 12.75
      vertex 5.96715 0.837594 12.75
    endloop
  endfacet
  facet normal -0.309017 -0.951056 0
    outer loop
      vertex 5.96715 -0.837594 12.75
      vertex 5.96715 -0.837594 0
      vertex 7.56035 -1.35526 0
    endloop
  endfacet
  facet normal -0.309017 -0.951056 0
    outer loop
      vertex 7.56035 -1.35526 12.75
      vertex 5.96715 -0.837594 12.75
      vertex 7.56035 -1.35526 0
    endloop
  endfacet
  facet normal 0.809017 -0.587785 0
    outer loop
      vertex 7.56035 -1.35526 12.75
      vertex 7.56035 -1.35526 0
      vertex 8.545 0 0
    endloop
  endfacet
  facet normal 0.809017 -0.587785 0
    outer loop
      vertex 8.545 0 12.75
      vertex 7.56035 -1.35526 12.75
      vertex 8.545 0 0
    endloop
  endfacet
  facet normal 0.809017 0.587785 0
    outer loop
      vertex 8.545 0 0
      vertex 7.56035 1.35526 0
      vertex 7.56035 1.35526 12.75
    endloop
  endfacet
  facet normal 0.809017 0.587785 0
    outer loop
      vertex 8.545 0 12.75
      vertex 8.545 0 0
      vertex 7.56035 1.35526 12.75
    endloop
  endfacet
  facet normal -0.309017 0.951056 0
    outer loop
      vertex 5.96715 0.837594 0
      vertex 5.96715 0.837594 12.75
      vertex 7.56035 1.35526 0
    endloop
  endfacet
  facet normal -0.309017 0.951056 0
    outer loop
      vertex 7.56035 1.35526 0
      vertex 5.96715 0.837594 12.75
      vertex 7.56035 1.35526 12.75
    endloop
  endfacet
  facet normal 0 0 1
    outer loop
      vertex -7.30285 -34.5124 -1.25
      vertex -7.30285 -36.1876 -1.25
      vertex -5.70965 -36.7053 -1.25
    endloop
  endfacet
  facet normal 0 0 1
    outer loop
      vertex -5.70965 -33.9947 -1.25
      vertex -7.30285 -34.5124 -1.25
      vertex -4.725 -35.35 -1.25
    endloop
  endfacet
  facet normal 0 0 1
    outer loop
      vertex -4.725 -35.35 -1.25
      vertex -7.30285 -34.5124 -1.25
      vertex -5.70965 -36.7053 -1.25
    endloop
  endfacet
  facet normal 0 0 1
    outer loop
      vertex 4.99715 -34.5124 -1.25
      vertex 4.99715 -36.1876 -1.25
      vertex 6.59035 -36.7053 -1.25
    endloop
  endfacet
  facet normal 0 0 1
    outer loop
      vertex 6.59035 -33.9947 -1.25
      vertex 4.99715 -34.5124 -1.25
      vertex 7.575 -35.35 -1.25
    endloop
  endfacet
  facet normal 0 0 1
    outer loop
      vertex 7.575 -35.35 -1.25
      vertex 4.99715 -34.5124 -1.25
      vertex 6.59035 -36.7053 -1.25
    endloop
  endfacet
  facet normal 0 0 1
    outer loop
      vertex -8.27285 0.837594 12.75
      vertex -8.27285 -0.837594 12.75
      vertex -6.67965 -1.35526 12.75
    endloop
  endfacet
  facet normal 0 0 1
    outer loop
      vertex -6.67965 1.35526 12.75
      vertex -8.27285 0.837594 12.75
      vertex -5.695 0 12.75
    endloop
  endfacet
  facet normal 0 0 1
    outer loop
      vertex -5.695 0 12.75
      vertex -8.27285 0.837594 12.75
      vertex -6.67965 -1.35526 12.75
    endloop
  endfacet
  facet normal 0 0 1
    outer loop
      vertex -1.15285 -6.28241 12.75
      vertex -1.15285 -7.95759 12.75
      vertex 0.440349 -8.47526 12.75
    endloop
  endfacet
  facet normal 0 0 1
    outer loop
      vertex 0.440349 -5.76474 12.75
      vertex -1.15285 -6.28241 12.75
      vertex 1.425 -7.12 12.75
    endloop
  endfacet
  facet normal 0 0 1
    outer loop
      vertex 1.425 -7.12 12.75
      vertex -1.15285 -6.28241 12.75
      vertex 0.440349 -8.47526 12.75
    endloop
  endfacet
  facet normal 0 0 1
    outer loop
      vertex -1.15285 7.95759 12.75
      vertex -1.15285 6.28241 12.75
      vertex 0.440349 5.76474 12.75
    endloop
  endfacet
  facet normal 0 0 1
    outer loop
      vertex 0.440349 8.47526 12.75
      vertex -1.15285 7.95759 12.75
      vertex 1.425 7.12 12.75
    endloop
  endfacet
  facet normal 0 0 1
    outer loop
      vertex 1.425 7.12 12.75
      vertex -1.15285 7.95759 12.75
      vertex 0.440349 5.76474 12.75
    endloop
  endfacet
  facet normal 0 0 1
    outer loop
      vertex 5.96715 0.837594 12.75
      vertex 5.96715 -0.837594 12.75
      vertex 7.56035 -1.35526 12.75
    endloop
  endfacet
  facet normal 0 0 1
    outer loop
      vertex 7.56035 1.35526 12.75
      vertex 5.96715 0.837594 12.75
      vertex 8.545 0 12.75
    endloop
  endfacet
  facet normal 0 0 1
    outer loop
      vertex 8.545 0 12.75
      vertex 5.96715 0.837594 12.75
      vertex 7.56035 -1.35526 12.75
    endloop
  endfacet
endsolid OpenSCAD_Model
