solid OpenSCAD_Model
  facet normal 0 0 -1
    outer loop
      vertex -14.9 0 0
      vertex -14.5744 3.09788 0
      vertex -14.5744 -3.09788 0
    endloop
  endfacet
  facet normal 0 0 -1
    outer loop
      vertex -14.5744 -3.09788 0
      vertex -14.5744 3.09788 0
      vertex -13.6118 6.06038 0
    endloop
  endfacet
  facet normal 0 0 -1
    outer loop
      vertex -14.5744 -3.09788 0
      vertex -13.6118 6.06038 0
      vertex -12.0544 8.758 0
    endloop
  endfacet
  facet normal 0 0 -1
    outer loop
      vertex -14.5744 -3.09788 0
      vertex -12.0544 8.758 0
      vertex -9.97005 11.0729 0
    endloop
  endfacet
  facet normal 0 0 -1
    outer loop
      vertex -14.5744 -3.09788 0
      vertex -9.97005 11.0729 0
      vertex -7.45 12.9038 0
    endloop
  endfacet
  facet normal 0 0 -1
    outer loop
      vertex -9.06099 6.58319 0
      vertex -7.45 12.9038 0
      vertex -4.60435 14.1707 0
    endloop
  endfacet
  facet normal 0 0 -1
    outer loop
      vertex -5.6 9.69948 0
      vertex -4.60435 14.1707 0
      vertex -1.55747 14.8184 0
    endloop
  endfacet
  facet normal 0 0 -1
    outer loop
      vertex -3.46099 10.6518 0
      vertex -1.55747 14.8184 0
      vertex 1.55747 14.8184 0
    endloop
  endfacet
  facet normal 0 0 -1
    outer loop
      vertex 1.17072 11.1386 0
      vertex 1.55747 14.8184 0
      vertex 4.60435 14.1707 0
    endloop
  endfacet
  facet normal 0 0 -1
    outer loop
      vertex 3.46099 10.6518 0
      vertex 4.60435 14.1707 0
      vertex 7.45 12.9038 0
    endloop
  endfacet
  facet normal 0 0 -1
    outer loop
      vertex 5.6 9.69948 0
      vertex 7.45 12.9038 0
      vertex 9.97005 11.0729 0
    endloop
  endfacet
  facet normal 0 0 -1
    outer loop
      vertex 7.49426 8.32322 0
      vertex 9.97005 11.0729 0
      vertex 12.0544 8.758 0
    endloop
  endfacet
  facet normal 0 0 -1
    outer loop
      vertex 9.06099 6.58319 0
      vertex 12.0544 8.758 0
      vertex 13.6118 6.06038 0
    endloop
  endfacet
  facet normal 0 0 -1
    outer loop
      vertex 10.9553 2.32861 0
      vertex 13.6118 6.06038 0
      vertex 14.5744 3.09788 0
    endloop
  endfacet
  facet normal 0 0 -1
    outer loop
      vertex 11.2 0 0
      vertex 14.5744 3.09788 0
      vertex 14.9 0 0
    endloop
  endfacet
  facet normal 0 0 -1
    outer loop
      vertex 10.9553 -2.32861 0
      vertex 14.9 0 0
      vertex 14.5744 -3.09788 0
    endloop
  endfacet
  facet normal 0 0 -1
    outer loop
      vertex 10.2317 -4.55545 0
      vertex 14.5744 -3.09788 0
      vertex 13.6118 -6.06038 0
    endloop
  endfacet
  facet normal 0 0 -1
    outer loop
      vertex 9.06099 -6.58319 0
      vertex 13.6118 -6.06038 0
      vertex 12.0544 -8.758 0
    endloop
  endfacet
  facet normal 0 0 -1
    outer loop
      vertex 7.49426 -8.32322 0
      vertex 12.0544 -8.758 0
      vertex 9.97005 -11.0729 0
    endloop
  endfacet
  facet normal 0 0 -1
    outer loop
      vertex 3.46099 -10.6518 0
      vertex 9.97005 -11.0729 0
      vertex 7.45 -12.9038 0
    endloop
  endfacet
  facet normal 0 0 -1
    outer loop
      vertex 1.17072 -11.1386 0
      vertex 7.45 -12.9038 0
      vertex 4.60435 -14.1707 0
    endloop
  endfacet
  facet normal 0 0 -1
    outer loop
      vertex -3.46099 -10.6518 0
      vertex 4.60435 -14.1707 0
      vertex 1.55747 -14.8184 0
    endloop
  endfacet
  facet normal 0 0 -1
    outer loop
      vertex -5.6 -9.69948 0
      vertex 1.55747 -14.8184 0
      vertex -1.55747 -14.8184 0
    endloop
  endfacet
  facet normal 0 0 -1
    outer loop
      vertex -14.5744 -3.09788 0
      vertex -1.55747 -14.8184 0
      vertex -4.60435 -14.1707 0
    endloop
  endfacet
  facet normal 0 0 -1
    outer loop
      vertex -14.5744 -3.09788 0
      vertex -4.60435 -14.1707 0
      vertex -7.45 -12.9038 0
    endloop
  endfacet
  facet normal 0 0 -1
    outer loop
      vertex -14.5744 -3.09788 0
      vertex -7.45 -12.9038 0
      vertex -9.97005 -11.0729 0
    endloop
  endfacet
  facet normal 0 0 -1
    outer loop
      vertex -14.5744 -3.09788 0
      vertex -9.97005 -11.0729 0
      vertex -12.0544 -8.758 0
    endloop
  endfacet
  facet normal 0 0 -1
    outer loop
      vertex -14.5744 -3.09788 0
      vertex -12.0544 -8.758 0
      vertex -13.6118 -6.06038 0
    endloop
  endfacet
  facet normal 0 0 -1
    outer loop
      vertex -10.9553 -2.32861 0
      vertex -14.5744 -3.09788 0
      vertex -11.2 0 0
    endloop
  endfacet
  facet normal 0 0 -1
    outer loop
      vertex -10.2317 -4.55545 0
      vertex -14.5744 -3.09788 0
      vertex -10.9553 -2.32861 0
    endloop
  endfacet
  facet normal 0 0 -1
    outer loop
      vertex -9.06099 -6.58319 0
      vertex -14.5744 -3.09788 0
      vertex -10.2317 -4.55545 0
    endloop
  endfacet
  facet normal 0 0 -1
    outer loop
      vertex -7.49426 -8.32322 0
      vertex -14.5744 -3.09788 0
      vertex -9.06099 -6.58319 0
    endloop
  endfacet
  facet normal 0 0 -1
    outer loop
      vertex -3.46099 -10.6518 0
      vertex 1.55747 -14.8184 0
      vertex -5.6 -9.69948 0
    endloop
  endfacet
  facet normal 0 0 -1
    outer loop
      vertex -14.5744 -3.09788 0
      vertex -7.49426 -8.32322 0
      vertex -1.55747 -14.8184 0
    endloop
  endfacet
  facet normal 0 0 -1
    outer loop
      vertex -7.49426 -8.32322 0
      vertex -5.6 -9.69948 0
      vertex -1.55747 -14.8184 0
    endloop
  endfacet
  facet normal 0 0 -1
    outer loop
      vertex -1.17072 -11.1386 0
      vertex 4.60435 -14.1707 0
      vertex -3.46099 -10.6518 0
    endloop
  endfacet
  facet normal 0 0 -1
    outer loop
      vertex 1.17072 -11.1386 0
      vertex 4.60435 -14.1707 0
      vertex -1.17072 -11.1386 0
    endloop
  endfacet
  facet normal 0 0 -1
    outer loop
      vertex 5.6 -9.69948 0
      vertex 9.97005 -11.0729 0
      vertex 3.46099 -10.6518 0
    endloop
  endfacet
  facet normal 0 0 -1
    outer loop
      vertex 7.49426 -8.32322 0
      vertex 9.97005 -11.0729 0
      vertex 5.6 -9.69948 0
    endloop
  endfacet
  facet normal 0 0 -1
    outer loop
      vertex 3.46099 -10.6518 0
      vertex 7.45 -12.9038 0
      vertex 1.17072 -11.1386 0
    endloop
  endfacet
  facet normal 0 0 -1
    outer loop
      vertex 10.9553 2.32861 0
      vertex 14.5744 3.09788 0
      vertex 11.2 0 0
    endloop
  endfacet
  facet normal 0 0 -1
    outer loop
      vertex 10.2317 4.55545 0
      vertex 13.6118 6.06038 0
      vertex 10.9553 2.32861 0
    endloop
  endfacet
  facet normal 0 0 -1
    outer loop
      vertex 11.2 0 0
      vertex 14.9 0 0
      vertex 10.9553 -2.32861 0
    endloop
  endfacet
  facet normal 0 0 -1
    outer loop
      vertex 10.9553 -2.32861 0
      vertex 14.5744 -3.09788 0
      vertex 10.2317 -4.55545 0
    endloop
  endfacet
  facet normal 0 0 -1
    outer loop
      vertex 10.2317 -4.55545 0
      vertex 13.6118 -6.06038 0
      vertex 9.06099 -6.58319 0
    endloop
  endfacet
  facet normal 0 0 -1
    outer loop
      vertex 9.06099 -6.58319 0
      vertex 12.0544 -8.758 0
      vertex 7.49426 -8.32322 0
    endloop
  endfacet
  facet normal 0 0 -1
    outer loop
      vertex -1.17072 11.1386 0
      vertex 1.55747 14.8184 0
      vertex 1.17072 11.1386 0
    endloop
  endfacet
  facet normal 0 0 -1
    outer loop
      vertex -3.46099 10.6518 0
      vertex 1.55747 14.8184 0
      vertex -1.17072 11.1386 0
    endloop
  endfacet
  facet normal 0 0 -1
    outer loop
      vertex 1.17072 11.1386 0
      vertex 4.60435 14.1707 0
      vertex 3.46099 10.6518 0
    endloop
  endfacet
  facet normal 0 0 -1
    outer loop
      vertex -7.49426 8.32322 0
      vertex -4.60435 14.1707 0
      vertex -5.6 9.69948 0
    endloop
  endfacet
  facet normal 0 0 -1
    outer loop
      vertex -10.2317 4.55545 0
      vertex -7.45 12.9038 0
      vertex -9.06099 6.58319 0
    endloop
  endfacet
  facet normal 0 0 -1
    outer loop
      vertex -10.9553 2.32861 0
      vertex -14.5744 -3.09788 0
      vertex -10.2317 4.55545 0
    endloop
  endfacet
  facet normal 0 0 -1
    outer loop
      vertex -14.5744 -3.09788 0
      vertex -7.45 12.9038 0
      vertex -10.2317 4.55545 0
    endloop
  endfacet
  facet normal 0 0 -1
    outer loop
      vertex 3.46099 10.6518 0
      vertex 7.45 12.9038 0
      vertex 5.6 9.69948 0
    endloop
  endfacet
  facet normal 0 0 -1
    outer loop
      vertex -11.2 0 0
      vertex -14.5744 -3.09788 0
      vertex -10.9553 2.32861 0
    endloop
  endfacet
  facet normal 0 0 -1
    outer loop
      vertex -9.06099 6.58319 0
      vertex -4.60435 14.1707 0
      vertex -7.49426 8.32322 0
    endloop
  endfacet
  facet normal 0 0 -1
    outer loop
      vertex -5.6 9.69948 0
      vertex -1.55747 14.8184 0
      vertex -3.46099 10.6518 0
    endloop
  endfacet
  facet normal 0 0 -1
    outer loop
      vertex 5.6 9.69948 0
      vertex 9.97005 11.0729 0
      vertex 7.49426 8.32322 0
    endloop
  endfacet
  facet normal 0 0 -1
    outer loop
      vertex 7.49426 8.32322 0
      vertex 12.0544 8.758 0
      vertex 9.06099 6.58319 0
    endloop
  endfacet
  facet normal 0 0 -1
    outer loop
      vertex 9.06099 6.58319 0
      vertex 13.6118 6.06038 0
      vertex 10.2317 4.55545 0
    endloop
  endfacet
  facet normal -0.994522 0.104529 0
    outer loop
      vertex -14.9 0 0
      vertex -14.9 0 1.85
      vertex -14.5744 3.09788 0
    endloop
  endfacet
  facet normal -0.994522 0.104529 0
    outer loop
      vertex -14.5744 3.09788 0
      vertex -14.9 0 1.85
      vertex -14.5744 3.09788 1.85
    endloop
  endfacet
  facet normal -0.994522 -0.104529 0
    outer loop
      vertex -14.9 0 0
      vertex -14.5744 -3.09788 0
      vertex -14.9 0 1.85
    endloop
  endfacet
  facet normal -0.994522 -0.104529 0
    outer loop
      vertex -14.9 0 1.85
      vertex -14.5744 -3.09788 0
      vertex -14.5744 -3.09788 1.85
    endloop
  endfacet
  facet normal -0.951057 -0.309017 0
    outer loop
      vertex -14.5744 -3.09788 0
      vertex -13.6118 -6.06038 0
      vertex -14.5744 -3.09788 1.85
    endloop
  endfacet
  facet normal -0.951057 -0.309017 0
    outer loop
      vertex -14.5744 -3.09788 1.85
      vertex -13.6118 -6.06038 0
      vertex -13.6118 -6.06038 1.85
    endloop
  endfacet
  facet normal -0.866025 -0.5 0
    outer loop
      vertex -13.6118 -6.06038 0
      vertex -12.0544 -8.758 0
      vertex -13.6118 -6.06038 1.85
    endloop
  endfacet
  facet normal -0.866025 -0.5 0
    outer loop
      vertex -13.6118 -6.06038 1.85
      vertex -12.0544 -8.758 0
      vertex -12.0544 -8.758 1.85
    endloop
  endfacet
  facet normal -0.743145 -0.669131 0
    outer loop
      vertex -12.0544 -8.758 0
      vertex -9.97005 -11.0729 0
      vertex -12.0544 -8.758 1.85
    endloop
  endfacet
  facet normal -0.743145 -0.669131 0
    outer loop
      vertex -12.0544 -8.758 1.85
      vertex -9.97005 -11.0729 0
      vertex -9.97005 -11.0729 1.85
    endloop
  endfacet
  facet normal -0.587785 -0.809017 0
    outer loop
      vertex -9.97005 -11.0729 1.85
      vertex -9.97005 -11.0729 0
      vertex -7.45 -12.9038 0
    endloop
  endfacet
  facet normal -0.587785 -0.809017 0
    outer loop
      vertex -7.45 -12.9038 1.85
      vertex -9.97005 -11.0729 1.85
      vertex -7.45 -12.9038 0
    endloop
  endfacet
  facet normal -0.406736 -0.913546 0
    outer loop
      vertex -7.45 -12.9038 1.85
      vertex -7.45 -12.9038 0
      vertex -4.60435 -14.1707 0
    endloop
  endfacet
  facet normal -0.406736 -0.913546 0
    outer loop
      vertex -4.60435 -14.1707 1.85
      vertex -7.45 -12.9038 1.85
      vertex -4.60435 -14.1707 0
    endloop
  endfacet
  facet normal -0.207912 -0.978148 0
    outer loop
      vertex -4.60435 -14.1707 1.85
      vertex -4.60435 -14.1707 0
      vertex -1.55747 -14.8184 0
    endloop
  endfacet
  facet normal -0.207912 -0.978148 0
    outer loop
      vertex -1.55747 -14.8184 1.85
      vertex -4.60435 -14.1707 1.85
      vertex -1.55747 -14.8184 0
    endloop
  endfacet
  facet normal 0 -1 0
    outer loop
      vertex -1.55747 -14.8184 1.85
      vertex -1.55747 -14.8184 0
      vertex 1.55747 -14.8184 0
    endloop
  endfacet
  facet normal 0 -1 0
    outer loop
      vertex 1.55747 -14.8184 1.85
      vertex -1.55747 -14.8184 1.85
      vertex 1.55747 -14.8184 0
    endloop
  endfacet
  facet normal 0.207912 -0.978148 0
    outer loop
      vertex 1.55747 -14.8184 1.85
      vertex 1.55747 -14.8184 0
      vertex 4.60435 -14.1707 0
    endloop
  endfacet
  facet normal 0.207912 -0.978148 0
    outer loop
      vertex 4.60435 -14.1707 1.85
      vertex 1.55747 -14.8184 1.85
      vertex 4.60435 -14.1707 0
    endloop
  endfacet
  facet normal 0.406736 -0.913546 0
    outer loop
      vertex 4.60435 -14.1707 1.85
      vertex 4.60435 -14.1707 0
      vertex 7.45 -12.9038 0
    endloop
  endfacet
  facet normal 0.406736 -0.913546 0
    outer loop
      vertex 7.45 -12.9038 1.85
      vertex 4.60435 -14.1707 1.85
      vertex 7.45 -12.9038 0
    endloop
  endfacet
  facet normal 0.587785 -0.809017 0
    outer loop
      vertex 7.45 -12.9038 1.85
      vertex 7.45 -12.9038 0
      vertex 9.97005 -11.0729 0
    endloop
  endfacet
  facet normal 0.587785 -0.809017 0
    outer loop
      vertex 9.97005 -11.0729 1.85
      vertex 7.45 -12.9038 1.85
      vertex 9.97005 -11.0729 0
    endloop
  endfacet
  facet normal 0.743145 -0.669131 0
    outer loop
      vertex 9.97005 -11.0729 1.85
      vertex 9.97005 -11.0729 0
      vertex 12.0544 -8.758 0
    endloop
  endfacet
  facet normal 0.743145 -0.669131 0
    outer loop
      vertex 12.0544 -8.758 1.85
      vertex 9.97005 -11.0729 1.85
      vertex 12.0544 -8.758 0
    endloop
  endfacet
  facet normal 0.866025 -0.5 0
    outer loop
      vertex 12.0544 -8.758 1.85
      vertex 12.0544 -8.758 0
      vertex 13.6118 -6.06038 0
    endloop
  endfacet
  facet normal 0.866025 -0.5 0
    outer loop
      vertex 13.6118 -6.06038 1.85
      vertex 12.0544 -8.758 1.85
      vertex 13.6118 -6.06038 0
    endloop
  endfacet
  facet normal 0.951057 -0.309017 0
    outer loop
      vertex 13.6118 -6.06038 1.85
      vertex 13.6118 -6.06038 0
      vertex 14.5744 -3.09788 0
    endloop
  endfacet
  facet normal 0.951057 -0.309017 0
    outer loop
      vertex 14.5744 -3.09788 1.85
      vertex 13.6118 -6.06038 1.85
      vertex 14.5744 -3.09788 0
    endloop
  endfacet
  facet normal 0.994522 -0.104529 0
    outer loop
      vertex 14.5744 -3.09788 1.85
      vertex 14.5744 -3.09788 0
      vertex 14.9 0 0
    endloop
  endfacet
  facet normal 0.994522 -0.104529 0
    outer loop
      vertex 14.9 0 1.85
      vertex 14.5744 -3.09788 1.85
      vertex 14.9 0 0
    endloop
  endfacet
  facet normal 0.994522 0.104529 0
    outer loop
      vertex 14.9 0 0
      vertex 14.5744 3.09788 0
      vertex 14.5744 3.09788 1.85
    endloop
  endfacet
  facet normal 0.994522 0.104529 0
    outer loop
      vertex 14.9 0 1.85
      vertex 14.9 0 0
      vertex 14.5744 3.09788 1.85
    endloop
  endfacet
  facet normal 0.951057 0.309017 0
    outer loop
      vertex 14.5744 3.09788 0
      vertex 13.6118 6.06038 0
      vertex 13.6118 6.06038 1.85
    endloop
  endfacet
  facet normal 0.951057 0.309017 0
    outer loop
      vertex 14.5744 3.09788 1.85
      vertex 14.5744 3.09788 0
      vertex 13.6118 6.06038 1.85
    endloop
  endfacet
  facet normal 0.866025 0.5 0
    outer loop
      vertex 13.6118 6.06038 0
      vertex 12.0544 8.758 0
      vertex 12.0544 8.758 1.85
    endloop
  endfacet
  facet normal 0.866025 0.5 0
    outer loop
      vertex 13.6118 6.06038 1.85
      vertex 13.6118 6.06038 0
      vertex 12.0544 8.758 1.85
    endloop
  endfacet
  facet normal 0.743145 0.669131 0
    outer loop
      vertex 12.0544 8.758 0
      vertex 9.97005 11.0729 0
      vertex 9.97005 11.0729 1.85
    endloop
  endfacet
  facet normal 0.743145 0.669131 0
    outer loop
      vertex 12.0544 8.758 1.85
      vertex 12.0544 8.758 0
      vertex 9.97005 11.0729 1.85
    endloop
  endfacet
  facet normal 0.587785 0.809017 0
    outer loop
      vertex 7.45 12.9038 0
      vertex 7.45 12.9038 1.85
      vertex 9.97005 11.0729 0
    endloop
  endfacet
  facet normal 0.587785 0.809017 0
    outer loop
      vertex 9.97005 11.0729 0
      vertex 7.45 12.9038 1.85
      vertex 9.97005 11.0729 1.85
    endloop
  endfacet
  facet normal 0.406736 0.913546 0
    outer loop
      vertex 4.60435 14.1707 0
      vertex 4.60435 14.1707 1.85
      vertex 7.45 12.9038 0
    endloop
  endfacet
  facet normal 0.406736 0.913546 0
    outer loop
      vertex 7.45 12.9038 0
      vertex 4.60435 14.1707 1.85
      vertex 7.45 12.9038 1.85
    endloop
  endfacet
  facet normal 0.207912 0.978148 0
    outer loop
      vertex 1.55747 14.8184 0
      vertex 1.55747 14.8184 1.85
      vertex 4.60435 14.1707 0
    endloop
  endfacet
  facet normal 0.207912 0.978148 0
    outer loop
      vertex 4.60435 14.1707 0
      vertex 1.55747 14.8184 1.85
      vertex 4.60435 14.1707 1.85
    endloop
  endfacet
  facet normal 0 1 0
    outer loop
      vertex -1.55747 14.8184 0
      vertex -1.55747 14.8184 1.85
      vertex 1.55747 14.8184 0
    endloop
  endfacet
  facet normal 0 1 0
    outer loop
      vertex 1.55747 14.8184 0
      vertex -1.55747 14.8184 1.85
      vertex 1.55747 14.8184 1.85
    endloop
  endfacet
  facet normal -0.207912 0.978148 0
    outer loop
      vertex -4.60435 14.1707 0
      vertex -4.60435 14.1707 1.85
      vertex -1.55747 14.8184 0
    endloop
  endfacet
  facet normal -0.207912 0.978148 0
    outer loop
      vertex -1.55747 14.8184 0
      vertex -4.60435 14.1707 1.85
      vertex -1.55747 14.8184 1.85
    endloop
  endfacet
  facet normal -0.406736 0.913546 0
    outer loop
      vertex -7.45 12.9038 0
      vertex -7.45 12.9038 1.85
      vertex -4.60435 14.1707 0
    endloop
  endfacet
  facet normal -0.406736 0.913546 0
    outer loop
      vertex -4.60435 14.1707 0
      vertex -7.45 12.9038 1.85
      vertex -4.60435 14.1707 1.85
    endloop
  endfacet
  facet normal -0.587785 0.809017 0
    outer loop
      vertex -9.97005 11.0729 0
      vertex -9.97005 11.0729 1.85
      vertex -7.45 12.9038 0
    endloop
  endfacet
  facet normal -0.587785 0.809017 0
    outer loop
      vertex -7.45 12.9038 0
      vertex -9.97005 11.0729 1.85
      vertex -7.45 12.9038 1.85
    endloop
  endfacet
  facet normal -0.743145 0.669131 0
    outer loop
      vertex -12.0544 8.758 0
      vertex -12.0544 8.758 1.85
      vertex -9.97005 11.0729 0
    endloop
  endfacet
  facet normal -0.743145 0.669131 0
    outer loop
      vertex -9.97005 11.0729 0
      vertex -12.0544 8.758 1.85
      vertex -9.97005 11.0729 1.85
    endloop
  endfacet
  facet normal -0.866025 0.5 0
    outer loop
      vertex -13.6118 6.06038 0
      vertex -13.6118 6.06038 1.85
      vertex -12.0544 8.758 0
    endloop
  endfacet
  facet normal -0.866025 0.5 0
    outer loop
      vertex -12.0544 8.758 0
      vertex -13.6118 6.06038 1.85
      vertex -12.0544 8.758 1.85
    endloop
  endfacet
  facet normal -0.951057 0.309017 0
    outer loop
      vertex -14.5744 3.09788 0
      vertex -14.5744 3.09788 1.85
      vertex -13.6118 6.06038 0
    endloop
  endfacet
  facet normal -0.951057 0.309017 0
    outer loop
      vertex -13.6118 6.06038 0
      vertex -14.5744 3.09788 1.85
      vertex -13.6118 6.06038 1.85
    endloop
  endfacet
  facet normal 0.994522 0.104529 0
    outer loop
      vertex -11.2 0 11.1
      vertex -10.9553 -2.32861 11.1
      vertex -10.9553 -2.32861 0
    endloop
  endfacet
  facet normal 0.994522 0.104529 0
    outer loop
      vertex -11.2 0 0
      vertex -11.2 0 11.1
      vertex -10.9553 -2.32861 0
    endloop
  endfacet
  facet normal 0.994522 -0.104529 0
    outer loop
      vertex -10.9553 2.32861 0
      vertex -10.9553 2.32861 11.1
      vertex -11.2 0 11.1
    endloop
  endfacet
  facet normal 0.994522 -0.104529 0
    outer loop
      vertex -11.2 0 0
      vertex -10.9553 2.32861 0
      vertex -11.2 0 11.1
    endloop
  endfacet
  facet normal 0.951056 -0.309017 0
    outer loop
      vertex -10.2317 4.55545 0
      vertex -10.2317 4.55545 11.1
      vertex -10.9553 2.32861 11.1
    endloop
  endfacet
  facet normal 0.951056 -0.309017 0
    outer loop
      vertex -10.9553 2.32861 0
      vertex -10.2317 4.55545 0
      vertex -10.9553 2.32861 11.1
    endloop
  endfacet
  facet normal 0.866025 -0.5 0
    outer loop
      vertex -9.06099 6.58319 0
      vertex -9.06099 6.58319 11.1
      vertex -10.2317 4.55545 11.1
    endloop
  endfacet
  facet normal 0.866025 -0.5 0
    outer loop
      vertex -10.2317 4.55545 0
      vertex -9.06099 6.58319 0
      vertex -10.2317 4.55545 11.1
    endloop
  endfacet
  facet normal 0.743145 -0.669131 0
    outer loop
      vertex -7.49426 8.32322 0
      vertex -7.49426 8.32322 11.1
      vertex -9.06099 6.58319 11.1
    endloop
  endfacet
  facet normal 0.743145 -0.669131 0
    outer loop
      vertex -9.06099 6.58319 0
      vertex -7.49426 8.32322 0
      vertex -9.06099 6.58319 11.1
    endloop
  endfacet
  facet normal 0.587785 -0.809017 0
    outer loop
      vertex -5.6 9.69948 0
      vertex -5.6 9.69948 11.1
      vertex -7.49426 8.32322 11.1
    endloop
  endfacet
  facet normal 0.587785 -0.809017 0
    outer loop
      vertex -7.49426 8.32322 0
      vertex -5.6 9.69948 0
      vertex -7.49426 8.32322 11.1
    endloop
  endfacet
  facet normal 0.406736 -0.913546 0
    outer loop
      vertex -3.46099 10.6518 0
      vertex -3.46099 10.6518 11.1
      vertex -5.6 9.69948 11.1
    endloop
  endfacet
  facet normal 0.406736 -0.913546 0
    outer loop
      vertex -5.6 9.69948 0
      vertex -3.46099 10.6518 0
      vertex -5.6 9.69948 11.1
    endloop
  endfacet
  facet normal 0.207912 -0.978148 0
    outer loop
      vertex -1.17072 11.1386 0
      vertex -1.17072 11.1386 11.1
      vertex -3.46099 10.6518 11.1
    endloop
  endfacet
  facet normal 0.207912 -0.978148 0
    outer loop
      vertex -3.46099 10.6518 0
      vertex -1.17072 11.1386 0
      vertex -3.46099 10.6518 11.1
    endloop
  endfacet
  facet normal 0 -1 0
    outer loop
      vertex 1.17072 11.1386 0
      vertex 1.17072 11.1386 11.1
      vertex -1.17072 11.1386 11.1
    endloop
  endfacet
  facet normal 0 -1 0
    outer loop
      vertex -1.17072 11.1386 0
      vertex 1.17072 11.1386 0
      vertex -1.17072 11.1386 11.1
    endloop
  endfacet
  facet normal -0.207912 -0.978148 0
    outer loop
      vertex 3.46099 10.6518 0
      vertex 3.46099 10.6518 11.1
      vertex 1.17072 11.1386 11.1
    endloop
  endfacet
  facet normal -0.207912 -0.978148 0
    outer loop
      vertex 1.17072 11.1386 0
      vertex 3.46099 10.6518 0
      vertex 1.17072 11.1386 11.1
    endloop
  endfacet
  facet normal -0.406736 -0.913546 0
    outer loop
      vertex 5.6 9.69948 0
      vertex 5.6 9.69948 11.1
      vertex 3.46099 10.6518 11.1
    endloop
  endfacet
  facet normal -0.406736 -0.913546 0
    outer loop
      vertex 3.46099 10.6518 0
      vertex 5.6 9.69948 0
      vertex 3.46099 10.6518 11.1
    endloop
  endfacet
  facet normal -0.587785 -0.809017 0
    outer loop
      vertex 7.49426 8.32322 0
      vertex 7.49426 8.32322 11.1
      vertex 5.6 9.69948 11.1
    endloop
  endfacet
  facet normal -0.587785 -0.809017 0
    outer loop
      vertex 5.6 9.69948 0
      vertex 7.49426 8.32322 0
      vertex 5.6 9.69948 11.1
    endloop
  endfacet
  facet normal -0.743145 -0.669131 0
    outer loop
      vertex 9.06099 6.58319 11.1
      vertex 7.49426 8.32322 11.1
      vertex 9.06099 6.58319 0
    endloop
  endfacet
  facet normal -0.743145 -0.669131 0
    outer loop
      vertex 9.06099 6.58319 0
      vertex 7.49426 8.32322 11.1
      vertex 7.49426 8.32322 0
    endloop
  endfacet
  facet normal -0.866025 -0.5 0
    outer loop
      vertex 10.2317 4.55545 11.1
      vertex 9.06099 6.58319 11.1
      vertex 10.2317 4.55545 0
    endloop
  endfacet
  facet normal -0.866025 -0.5 0
    outer loop
      vertex 10.2317 4.55545 0
      vertex 9.06099 6.58319 11.1
      vertex 9.06099 6.58319 0
    endloop
  endfacet
  facet normal -0.951056 -0.309017 0
    outer loop
      vertex 10.9553 2.32861 11.1
      vertex 10.2317 4.55545 11.1
      vertex 10.9553 2.32861 0
    endloop
  endfacet
  facet normal -0.951056 -0.309017 0
    outer loop
      vertex 10.9553 2.32861 0
      vertex 10.2317 4.55545 11.1
      vertex 10.2317 4.55545 0
    endloop
  endfacet
  facet normal -0.994522 -0.104529 0
    outer loop
      vertex 11.2 0 11.1
      vertex 10.9553 2.32861 11.1
      vertex 11.2 0 0
    endloop
  endfacet
  facet normal -0.994522 -0.104529 0
    outer loop
      vertex 11.2 0 0
      vertex 10.9553 2.32861 11.1
      vertex 10.9553 2.32861 0
    endloop
  endfacet
  facet normal -0.994522 0.104529 0
    outer loop
      vertex 11.2 0 11.1
      vertex 11.2 0 0
      vertex 10.9553 -2.32861 11.1
    endloop
  endfacet
  facet normal -0.994522 0.104529 0
    outer loop
      vertex 10.9553 -2.32861 11.1
      vertex 11.2 0 0
      vertex 10.9553 -2.32861 0
    endloop
  endfacet
  facet normal -0.951056 0.309017 0
    outer loop
      vertex 10.9553 -2.32861 11.1
      vertex 10.9553 -2.32861 0
      vertex 10.2317 -4.55545 11.1
    endloop
  endfacet
  facet normal -0.951056 0.309017 0
    outer loop
      vertex 10.2317 -4.55545 11.1
      vertex 10.9553 -2.32861 0
      vertex 10.2317 -4.55545 0
    endloop
  endfacet
  facet normal -0.866025 0.5 0
    outer loop
      vertex 10.2317 -4.55545 11.1
      vertex 10.2317 -4.55545 0
      vertex 9.06099 -6.58319 11.1
    endloop
  endfacet
  facet normal -0.866025 0.5 0
    outer loop
      vertex 9.06099 -6.58319 11.1
      vertex 10.2317 -4.55545 0
      vertex 9.06099 -6.58319 0
    endloop
  endfacet
  facet normal -0.743145 0.669131 0
    outer loop
      vertex 9.06099 -6.58319 11.1
      vertex 9.06099 -6.58319 0
      vertex 7.49426 -8.32322 11.1
    endloop
  endfacet
  facet normal -0.743145 0.669131 0
    outer loop
      vertex 7.49426 -8.32322 11.1
      vertex 9.06099 -6.58319 0
      vertex 7.49426 -8.32322 0
    endloop
  endfacet
  facet normal -0.587785 0.809017 0
    outer loop
      vertex 7.49426 -8.32322 11.1
      vertex 7.49426 -8.32322 0
      vertex 5.6 -9.69948 11.1
    endloop
  endfacet
  facet normal -0.587785 0.809017 0
    outer loop
      vertex 5.6 -9.69948 11.1
      vertex 7.49426 -8.32322 0
      vertex 5.6 -9.69948 0
    endloop
  endfacet
  facet normal -0.406736 0.913546 0
    outer loop
      vertex 5.6 -9.69948 11.1
      vertex 5.6 -9.69948 0
      vertex 3.46099 -10.6518 11.1
    endloop
  endfacet
  facet normal -0.406736 0.913546 0
    outer loop
      vertex 3.46099 -10.6518 11.1
      vertex 5.6 -9.69948 0
      vertex 3.46099 -10.6518 0
    endloop
  endfacet
  facet normal -0.207912 0.978148 0
    outer loop
      vertex 3.46099 -10.6518 11.1
      vertex 3.46099 -10.6518 0
      vertex 1.17072 -11.1386 11.1
    endloop
  endfacet
  facet normal -0.207912 0.978148 0
    outer loop
      vertex 1.17072 -11.1386 11.1
      vertex 3.46099 -10.6518 0
      vertex 1.17072 -11.1386 0
    endloop
  endfacet
  facet normal 0 1 0
    outer loop
      vertex 1.17072 -11.1386 11.1
      vertex 1.17072 -11.1386 0
      vertex -1.17072 -11.1386 11.1
    endloop
  endfacet
  facet normal 0 1 0
    outer loop
      vertex -1.17072 -11.1386 11.1
      vertex 1.17072 -11.1386 0
      vertex -1.17072 -11.1386 0
    endloop
  endfacet
  facet normal 0.207912 0.978148 0
    outer loop
      vertex -1.17072 -11.1386 11.1
      vertex -1.17072 -11.1386 0
      vertex -3.46099 -10.6518 11.1
    endloop
  endfacet
  facet normal 0.207912 0.978148 0
    outer loop
      vertex -3.46099 -10.6518 11.1
      vertex -1.17072 -11.1386 0
      vertex -3.46099 -10.6518 0
    endloop
  endfacet
  facet normal 0.406736 0.913546 0
    outer loop
      vertex -3.46099 -10.6518 11.1
      vertex -3.46099 -10.6518 0
      vertex -5.6 -9.69948 11.1
    endloop
  endfacet
  facet normal 0.406736 0.913546 0
    outer loop
      vertex -5.6 -9.69948 11.1
      vertex -3.46099 -10.6518 0
      vertex -5.6 -9.69948 0
    endloop
  endfacet
  facet normal 0.587785 0.809017 0
    outer loop
      vertex -5.6 -9.69948 11.1
      vertex -5.6 -9.69948 0
      vertex -7.49426 -8.32322 11.1
    endloop
  endfacet
  facet normal 0.587785 0.809017 0
    outer loop
      vertex -7.49426 -8.32322 11.1
      vertex -5.6 -9.69948 0
      vertex -7.49426 -8.32322 0
    endloop
  endfacet
  facet normal 0.743145 0.669131 0
    outer loop
      vertex -9.06099 -6.58319 11.1
      vertex -7.49426 -8.32322 11.1
      vertex -7.49426 -8.32322 0
    endloop
  endfacet
  facet normal 0.743145 0.669131 0
    outer loop
      vertex -9.06099 -6.58319 0
      vertex -9.06099 -6.58319 11.1
      vertex -7.49426 -8.32322 0
    endloop
  endfacet
  facet normal 0.866025 0.5 0
    outer loop
      vertex -10.2317 -4.55545 11.1
      vertex -9.06099 -6.58319 11.1
      vertex -9.06099 -6.58319 0
    endloop
  endfacet
  facet normal 0.866025 0.5 0
    outer loop
      vertex -10.2317 -4.55545 0
      vertex -10.2317 -4.55545 11.1
      vertex -9.06099 -6.58319 0
    endloop
  endfacet
  facet normal 0.951056 0.309017 0
    outer loop
      vertex -10.9553 -2.32861 11.1
      vertex -10.2317 -4.55545 11.1
      vertex -10.2317 -4.55545 0
    endloop
  endfacet
  facet normal 0.951056 0.309017 0
    outer loop
      vertex -10.9553 -2.32861 0
      vertex -10.9553 -2.32861 11.1
      vertex -10.2317 -4.55545 0
    endloop
  endfacet
  facet normal 0 0 1
    outer loop
      vertex -14.5744 3.09788 1.85
      vertex -14.9 0 1.85
      vertex -14.5744 -3.09788 1.85
    endloop
  endfacet
  facet normal 0 0 1
    outer loop
      vertex -12.0544 -8.758 1.85
      vertex -14.5744 3.09788 1.85
      vertex -13.6118 -6.06038 1.85
    endloop
  endfacet
  facet normal 0 0 1
    outer loop
      vertex -13.6118 -6.06038 1.85
      vertex -14.5744 3.09788 1.85
      vertex -14.5744 -3.09788 1.85
    endloop
  endfacet
  facet normal 0 0 1
    outer loop
      vertex -12.7648 -2.71325 1.85
      vertex -14.5744 3.09788 1.85
      vertex -12.0544 -8.758 1.85
    endloop
  endfacet
  facet normal 0 0 1
    outer loop
      vertex 10.5577 -7.6706 1.85
      vertex 8.73215 -9.69804 1.85
      vertex 12.0544 -8.758 1.85
    endloop
  endfacet
  facet normal 0 0 1
    outer loop
      vertex -12.7648 2.71325 1.85
      vertex -11.9218 5.30791 1.85
      vertex -14.5744 3.09788 1.85
    endloop
  endfacet
  facet normal 0 0 1
    outer loop
      vertex -4.03267 -12.4113 1.85
      vertex -6.525 -11.3016 1.85
      vertex -4.60435 -14.1707 1.85
    endloop
  endfacet
  facet normal 0 0 1
    outer loop
      vertex 11.9218 5.30791 1.85
      vertex 12.7648 2.71325 1.85
      vertex 14.5744 3.09788 1.85
    endloop
  endfacet
  facet normal 0 0 1
    outer loop
      vertex 10.5577 7.6706 1.85
      vertex 11.9218 5.30791 1.85
      vertex 13.6118 6.06038 1.85
    endloop
  endfacet
  facet normal 0 0 1
    outer loop
      vertex 8.73215 9.69804 1.85
      vertex 10.5577 7.6706 1.85
      vertex 12.0544 8.758 1.85
    endloop
  endfacet
  facet normal 0 0 1
    outer loop
      vertex 6.525 11.3016 1.85
      vertex 8.73215 9.69804 1.85
      vertex 9.97005 11.0729 1.85
    endloop
  endfacet
  facet normal 0 0 1
    outer loop
      vertex -1.3641 12.9785 1.85
      vertex 1.3641 12.9785 1.85
      vertex 1.55747 14.8184 1.85
    endloop
  endfacet
  facet normal 0 0 1
    outer loop
      vertex -6.525 11.3016 1.85
      vertex -4.03267 12.4113 1.85
      vertex -1.55747 14.8184 1.85
    endloop
  endfacet
  facet normal 0 0 1
    outer loop
      vertex -9.97005 11.0729 1.85
      vertex -14.5744 3.09788 1.85
      vertex -7.45 12.9038 1.85
    endloop
  endfacet
  facet normal 0 0 1
    outer loop
      vertex -12.0544 8.758 1.85
      vertex -14.5744 3.09788 1.85
      vertex -9.97005 11.0729 1.85
    endloop
  endfacet
  facet normal 0 0 1
    outer loop
      vertex -13.6118 6.06038 1.85
      vertex -14.5744 3.09788 1.85
      vertex -12.0544 8.758 1.85
    endloop
  endfacet
  facet normal 0 0 1
    outer loop
      vertex -11.9218 -5.30791 1.85
      vertex -12.7648 -2.71325 1.85
      vertex -12.0544 -8.758 1.85
    endloop
  endfacet
  facet normal 0 0 1
    outer loop
      vertex 11.9218 -5.30791 1.85
      vertex 10.5577 -7.6706 1.85
      vertex 13.6118 -6.06038 1.85
    endloop
  endfacet
  facet normal 0 0 1
    outer loop
      vertex 1.3641 12.9785 1.85
      vertex 4.03267 12.4113 1.85
      vertex 4.60435 14.1707 1.85
    endloop
  endfacet
  facet normal 0 0 1
    outer loop
      vertex -7.45 12.9038 1.85
      vertex -14.5744 3.09788 1.85
      vertex -10.5577 7.6706 1.85
    endloop
  endfacet
  facet normal 0 0 1
    outer loop
      vertex -7.45 12.9038 1.85
      vertex -8.73215 9.69804 1.85
      vertex -4.60435 14.1707 1.85
    endloop
  endfacet
  facet normal 0 0 1
    outer loop
      vertex -7.45 12.9038 1.85
      vertex -10.5577 7.6706 1.85
      vertex -8.73215 9.69804 1.85
    endloop
  endfacet
  facet normal 0 0 1
    outer loop
      vertex -4.60435 14.1707 1.85
      vertex -6.525 11.3016 1.85
      vertex -1.55747 14.8184 1.85
    endloop
  endfacet
  facet normal 0 0 1
    outer loop
      vertex -8.73215 9.69804 1.85
      vertex -6.525 11.3016 1.85
      vertex -4.60435 14.1707 1.85
    endloop
  endfacet
  facet normal 0 0 1
    outer loop
      vertex -1.55747 14.8184 1.85
      vertex -4.03267 12.4113 1.85
      vertex 1.55747 14.8184 1.85
    endloop
  endfacet
  facet normal 0 0 1
    outer loop
      vertex -4.03267 12.4113 1.85
      vertex -1.3641 12.9785 1.85
      vertex 1.55747 14.8184 1.85
    endloop
  endfacet
  facet normal 0 0 1
    outer loop
      vertex 1.55747 14.8184 1.85
      vertex 1.3641 12.9785 1.85
      vertex 4.60435 14.1707 1.85
    endloop
  endfacet
  facet normal 0 0 1
    outer loop
      vertex 12.7648 2.71325 1.85
      vertex 13.05 0 1.85
      vertex 14.9 0 1.85
    endloop
  endfacet
  facet normal 0 0 1
    outer loop
      vertex 4.60435 14.1707 1.85
      vertex 4.03267 12.4113 1.85
      vertex 7.45 12.9038 1.85
    endloop
  endfacet
  facet normal 0 0 1
    outer loop
      vertex -11.9218 5.30791 1.85
      vertex -10.5577 7.6706 1.85
      vertex -14.5744 3.09788 1.85
    endloop
  endfacet
  facet normal 0 0 1
    outer loop
      vertex 7.45 12.9038 1.85
      vertex 6.525 11.3016 1.85
      vertex 9.97005 11.0729 1.85
    endloop
  endfacet
  facet normal 0 0 1
    outer loop
      vertex 9.97005 11.0729 1.85
      vertex 8.73215 9.69804 1.85
      vertex 12.0544 8.758 1.85
    endloop
  endfacet
  facet normal 0 0 1
    outer loop
      vertex 12.0544 8.758 1.85
      vertex 10.5577 7.6706 1.85
      vertex 13.6118 6.06038 1.85
    endloop
  endfacet
  facet normal 0 0 1
    outer loop
      vertex 13.6118 6.06038 1.85
      vertex 11.9218 5.30791 1.85
      vertex 14.5744 3.09788 1.85
    endloop
  endfacet
  facet normal 0 0 1
    outer loop
      vertex 14.5744 3.09788 1.85
      vertex 12.7648 2.71325 1.85
      vertex 14.9 0 1.85
    endloop
  endfacet
  facet normal 0 0 1
    outer loop
      vertex 14.9 0 1.85
      vertex 13.05 0 1.85
      vertex 14.5744 -3.09788 1.85
    endloop
  endfacet
  facet normal 0 0 1
    outer loop
      vertex 14.5744 -3.09788 1.85
      vertex 12.7648 -2.71325 1.85
      vertex 13.6118 -6.06038 1.85
    endloop
  endfacet
  facet normal 0 0 1
    outer loop
      vertex 4.03267 12.4113 1.85
      vertex 6.525 11.3016 1.85
      vertex 7.45 12.9038 1.85
    endloop
  endfacet
  facet normal 0 0 1
    outer loop
      vertex 12.7648 -2.71325 1.85
      vertex 11.9218 -5.30791 1.85
      vertex 13.6118 -6.06038 1.85
    endloop
  endfacet
  facet normal 0 0 1
    outer loop
      vertex 13.6118 -6.06038 1.85
      vertex 10.5577 -7.6706 1.85
      vertex 12.0544 -8.758 1.85
    endloop
  endfacet
  facet normal 0 0 1
    outer loop
      vertex 12.0544 -8.758 1.85
      vertex 8.73215 -9.69804 1.85
      vertex 9.97005 -11.0729 1.85
    endloop
  endfacet
  facet normal 0 0 1
    outer loop
      vertex 9.97005 -11.0729 1.85
      vertex 6.525 -11.3016 1.85
      vertex 7.45 -12.9038 1.85
    endloop
  endfacet
  facet normal 0 0 1
    outer loop
      vertex 7.45 -12.9038 1.85
      vertex 4.03267 -12.4113 1.85
      vertex 4.60435 -14.1707 1.85
    endloop
  endfacet
  facet normal 0 0 1
    outer loop
      vertex 4.60435 -14.1707 1.85
      vertex 1.3641 -12.9785 1.85
      vertex 1.55747 -14.8184 1.85
    endloop
  endfacet
  facet normal 0 0 1
    outer loop
      vertex 1.55747 -14.8184 1.85
      vertex -1.3641 -12.9785 1.85
      vertex -1.55747 -14.8184 1.85
    endloop
  endfacet
  facet normal 0 0 1
    outer loop
      vertex 13.05 0 1.85
      vertex 12.7648 -2.71325 1.85
      vertex 14.5744 -3.09788 1.85
    endloop
  endfacet
  facet normal 0 0 1
    outer loop
      vertex -1.55747 -14.8184 1.85
      vertex -4.03267 -12.4113 1.85
      vertex -4.60435 -14.1707 1.85
    endloop
  endfacet
  facet normal 0 0 1
    outer loop
      vertex -4.60435 -14.1707 1.85
      vertex -6.525 -11.3016 1.85
      vertex -7.45 -12.9038 1.85
    endloop
  endfacet
  facet normal 0 0 1
    outer loop
      vertex -6.525 -11.3016 1.85
      vertex -8.73215 -9.69804 1.85
      vertex -7.45 -12.9038 1.85
    endloop
  endfacet
  facet normal 0 0 1
    outer loop
      vertex -7.45 -12.9038 1.85
      vertex -10.5577 -7.6706 1.85
      vertex -9.97005 -11.0729 1.85
    endloop
  endfacet
  facet normal 0 0 1
    outer loop
      vertex -9.97005 -11.0729 1.85
      vertex -11.9218 -5.30791 1.85
      vertex -12.0544 -8.758 1.85
    endloop
  endfacet
  facet normal 0 0 1
    outer loop
      vertex -12.7648 -2.71325 1.85
      vertex -13.05 0 1.85
      vertex -14.5744 3.09788 1.85
    endloop
  endfacet
  facet normal 0 0 1
    outer loop
      vertex 8.73215 -9.69804 1.85
      vertex 6.525 -11.3016 1.85
      vertex 9.97005 -11.0729 1.85
    endloop
  endfacet
  facet normal 0 0 1
    outer loop
      vertex 6.525 -11.3016 1.85
      vertex 4.03267 -12.4113 1.85
      vertex 7.45 -12.9038 1.85
    endloop
  endfacet
  facet normal 0 0 1
    outer loop
      vertex 4.03267 -12.4113 1.85
      vertex 1.3641 -12.9785 1.85
      vertex 4.60435 -14.1707 1.85
    endloop
  endfacet
  facet normal 0 0 1
    outer loop
      vertex 1.3641 -12.9785 1.85
      vertex -1.3641 -12.9785 1.85
      vertex 1.55747 -14.8184 1.85
    endloop
  endfacet
  facet normal 0 0 1
    outer loop
      vertex -1.3641 -12.9785 1.85
      vertex -4.03267 -12.4113 1.85
      vertex -1.55747 -14.8184 1.85
    endloop
  endfacet
  facet normal 0 0 1
    outer loop
      vertex -10.5577 -7.6706 1.85
      vertex -11.9218 -5.30791 1.85
      vertex -9.97005 -11.0729 1.85
    endloop
  endfacet
  facet normal 0 0 1
    outer loop
      vertex -8.73215 -9.69804 1.85
      vertex -10.5577 -7.6706 1.85
      vertex -7.45 -12.9038 1.85
    endloop
  endfacet
  facet normal 0 0 1
    outer loop
      vertex -13.05 0 1.85
      vertex -12.7648 2.71325 1.85
      vertex -14.5744 3.09788 1.85
    endloop
  endfacet
  facet normal 0 0 1
    outer loop
      vertex -14.5744 3.09788 11.1
      vertex -14.9 0 11.1
      vertex -14.5744 -3.09788 11.1
    endloop
  endfacet
  facet normal 0 0 1
    outer loop
      vertex -12.0544 -8.758 11.1
      vertex -14.5744 3.09788 11.1
      vertex -13.6118 -6.06038 11.1
    endloop
  endfacet
  facet normal 0 0 1
    outer loop
      vertex -13.6118 -6.06038 11.1
      vertex -14.5744 3.09788 11.1
      vertex -14.5744 -3.09788 11.1
    endloop
  endfacet
  facet normal 0 0 1
    outer loop
      vertex -9.97005 -11.0729 11.1
      vertex -14.5744 3.09788 11.1
      vertex -12.0544 -8.758 11.1
    endloop
  endfacet
  facet normal 0 0 1
    outer loop
      vertex -7.45 -12.9038 11.1
      vertex -14.5744 3.09788 11.1
      vertex -9.97005 -11.0729 11.1
    endloop
  endfacet
  facet normal 0 0 1
    outer loop
      vertex -10.2317 -4.55545 11.1
      vertex -14.5744 3.09788 11.1
      vertex -7.45 -12.9038 11.1
    endloop
  endfacet
  facet normal 0 0 1
    outer loop
      vertex 9.06099 -6.58319 11.1
      vertex 7.49426 -8.32322 11.1
      vertex 12.0544 -8.758 11.1
    endloop
  endfacet
  facet normal 0 0 1
    outer loop
      vertex -10.9553 2.32861 11.1
      vertex -10.2317 4.55545 11.1
      vertex -14.5744 3.09788 11.1
    endloop
  endfacet
  facet normal 0 0 1
    outer loop
      vertex 3.46099 -10.6518 11.1
      vertex 1.17072 -11.1386 11.1
      vertex 4.60435 -14.1707 11.1
    endloop
  endfacet
  facet normal 0 0 1
    outer loop
      vertex 10.2317 4.55545 11.1
      vertex 10.9553 2.32861 11.1
      vertex 14.5744 3.09788 11.1
    endloop
  endfacet
  facet normal 0 0 1
    outer loop
      vertex 5.6 9.69948 11.1
      vertex 7.49426 8.32322 11.1
      vertex 9.97005 11.0729 11.1
    endloop
  endfacet
  facet normal 0 0 1
    outer loop
      vertex -5.6 9.69948 11.1
      vertex -3.46099 10.6518 11.1
      vertex 1.55747 14.8184 11.1
    endloop
  endfacet
  facet normal 0 0 1
    outer loop
      vertex -1.17072 11.1386 11.1
      vertex 1.17072 11.1386 11.1
      vertex 4.60435 14.1707 11.1
    endloop
  endfacet
  facet normal 0 0 1
    outer loop
      vertex -4.60435 14.1707 11.1
      vertex -14.5744 3.09788 11.1
      vertex -1.55747 14.8184 11.1
    endloop
  endfacet
  facet normal 0 0 1
    outer loop
      vertex -7.45 12.9038 11.1
      vertex -14.5744 3.09788 11.1
      vertex -4.60435 14.1707 11.1
    endloop
  endfacet
  facet normal 0 0 1
    outer loop
      vertex -9.97005 11.0729 11.1
      vertex -14.5744 3.09788 11.1
      vertex -7.45 12.9038 11.1
    endloop
  endfacet
  facet normal 0 0 1
    outer loop
      vertex -12.0544 8.758 11.1
      vertex -14.5744 3.09788 11.1
      vertex -9.97005 11.0729 11.1
    endloop
  endfacet
  facet normal 0 0 1
    outer loop
      vertex -13.6118 6.06038 11.1
      vertex -14.5744 3.09788 11.1
      vertex -12.0544 8.758 11.1
    endloop
  endfacet
  facet normal 0 0 1
    outer loop
      vertex 10.2317 -4.55545 11.1
      vertex 9.06099 -6.58319 11.1
      vertex 13.6118 -6.06038 11.1
    endloop
  endfacet
  facet normal 0 0 1
    outer loop
      vertex 7.49426 8.32322 11.1
      vertex 9.06099 6.58319 11.1
      vertex 12.0544 8.758 11.1
    endloop
  endfacet
  facet normal 0 0 1
    outer loop
      vertex 1.17072 11.1386 11.1
      vertex 3.46099 10.6518 11.1
      vertex 7.45 12.9038 11.1
    endloop
  endfacet
  facet normal 0 0 1
    outer loop
      vertex -1.55747 14.8184 11.1
      vertex -14.5744 3.09788 11.1
      vertex -7.49426 8.32322 11.1
    endloop
  endfacet
  facet normal 0 0 1
    outer loop
      vertex -1.55747 14.8184 11.1
      vertex -5.6 9.69948 11.1
      vertex 1.55747 14.8184 11.1
    endloop
  endfacet
  facet normal 0 0 1
    outer loop
      vertex -1.55747 14.8184 11.1
      vertex -7.49426 8.32322 11.1
      vertex -5.6 9.69948 11.1
    endloop
  endfacet
  facet normal 0 0 1
    outer loop
      vertex 1.55747 14.8184 11.1
      vertex -3.46099 10.6518 11.1
      vertex 4.60435 14.1707 11.1
    endloop
  endfacet
  facet normal 0 0 1
    outer loop
      vertex -3.46099 10.6518 11.1
      vertex -1.17072 11.1386 11.1
      vertex 4.60435 14.1707 11.1
    endloop
  endfacet
  facet normal 0 0 1
    outer loop
      vertex 4.60435 14.1707 11.1
      vertex 1.17072 11.1386 11.1
      vertex 7.45 12.9038 11.1
    endloop
  endfacet
  facet normal 0 0 1
    outer loop
      vertex -9.06099 6.58319 11.1
      vertex -7.49426 8.32322 11.1
      vertex -14.5744 3.09788 11.1
    endloop
  endfacet
  facet normal 0 0 1
    outer loop
      vertex 7.45 12.9038 11.1
      vertex 3.46099 10.6518 11.1
      vertex 9.97005 11.0729 11.1
    endloop
  endfacet
  facet normal 0 0 1
    outer loop
      vertex 3.46099 10.6518 11.1
      vertex 5.6 9.69948 11.1
      vertex 9.97005 11.0729 11.1
    endloop
  endfacet
  facet normal 0 0 1
    outer loop
      vertex 9.97005 11.0729 11.1
      vertex 7.49426 8.32322 11.1
      vertex 12.0544 8.758 11.1
    endloop
  endfacet
  facet normal 0 0 1
    outer loop
      vertex 10.9553 2.32861 11.1
      vertex 11.2 0 11.1
      vertex 14.9 0 11.1
    endloop
  endfacet
  facet normal 0 0 1
    outer loop
      vertex 12.0544 8.758 11.1
      vertex 9.06099 6.58319 11.1
      vertex 13.6118 6.06038 11.1
    endloop
  endfacet
  facet normal 0 0 1
    outer loop
      vertex -10.2317 4.55545 11.1
      vertex -9.06099 6.58319 11.1
      vertex -14.5744 3.09788 11.1
    endloop
  endfacet
  facet normal 0 0 1
    outer loop
      vertex 13.6118 6.06038 11.1
      vertex 10.2317 4.55545 11.1
      vertex 14.5744 3.09788 11.1
    endloop
  endfacet
  facet normal 0 0 1
    outer loop
      vertex 14.5744 3.09788 11.1
      vertex 10.9553 2.32861 11.1
      vertex 14.9 0 11.1
    endloop
  endfacet
  facet normal 0 0 1
    outer loop
      vertex 14.9 0 11.1
      vertex 11.2 0 11.1
      vertex 14.5744 -3.09788 11.1
    endloop
  endfacet
  facet normal 0 0 1
    outer loop
      vertex 14.5744 -3.09788 11.1
      vertex 10.9553 -2.32861 11.1
      vertex 13.6118 -6.06038 11.1
    endloop
  endfacet
  facet normal 0 0 1
    outer loop
      vertex 9.06099 6.58319 11.1
      vertex 10.2317 4.55545 11.1
      vertex 13.6118 6.06038 11.1
    endloop
  endfacet
  facet normal 0 0 1
    outer loop
      vertex 10.9553 -2.32861 11.1
      vertex 10.2317 -4.55545 11.1
      vertex 13.6118 -6.06038 11.1
    endloop
  endfacet
  facet normal 0 0 1
    outer loop
      vertex 13.6118 -6.06038 11.1
      vertex 9.06099 -6.58319 11.1
      vertex 12.0544 -8.758 11.1
    endloop
  endfacet
  facet normal 0 0 1
    outer loop
      vertex 12.0544 -8.758 11.1
      vertex 7.49426 -8.32322 11.1
      vertex 9.97005 -11.0729 11.1
    endloop
  endfacet
  facet normal 0 0 1
    outer loop
      vertex 9.97005 -11.0729 11.1
      vertex 5.6 -9.69948 11.1
      vertex 7.45 -12.9038 11.1
    endloop
  endfacet
  facet normal 0 0 1
    outer loop
      vertex 11.2 0 11.1
      vertex 10.9553 -2.32861 11.1
      vertex 14.5744 -3.09788 11.1
    endloop
  endfacet
  facet normal 0 0 1
    outer loop
      vertex 7.45 -12.9038 11.1
      vertex 3.46099 -10.6518 11.1
      vertex 4.60435 -14.1707 11.1
    endloop
  endfacet
  facet normal 0 0 1
    outer loop
      vertex 4.60435 -14.1707 11.1
      vertex 1.17072 -11.1386 11.1
      vertex 1.55747 -14.8184 11.1
    endloop
  endfacet
  facet normal 0 0 1
    outer loop
      vertex 1.17072 -11.1386 11.1
      vertex -1.17072 -11.1386 11.1
      vertex 1.55747 -14.8184 11.1
    endloop
  endfacet
  facet normal 0 0 1
    outer loop
      vertex 1.55747 -14.8184 11.1
      vertex -3.46099 -10.6518 11.1
      vertex -1.55747 -14.8184 11.1
    endloop
  endfacet
  facet normal 0 0 1
    outer loop
      vertex -1.55747 -14.8184 11.1
      vertex -5.6 -9.69948 11.1
      vertex -4.60435 -14.1707 11.1
    endloop
  endfacet
  facet normal 0 0 1
    outer loop
      vertex -5.6 -9.69948 11.1
      vertex -7.49426 -8.32322 11.1
      vertex -4.60435 -14.1707 11.1
    endloop
  endfacet
  facet normal 0 0 1
    outer loop
      vertex -4.60435 -14.1707 11.1
      vertex -9.06099 -6.58319 11.1
      vertex -7.45 -12.9038 11.1
    endloop
  endfacet
  facet normal 0 0 1
    outer loop
      vertex -9.06099 -6.58319 11.1
      vertex -10.2317 -4.55545 11.1
      vertex -7.45 -12.9038 11.1
    endloop
  endfacet
  facet normal 0 0 1
    outer loop
      vertex -7.49426 -8.32322 11.1
      vertex -9.06099 -6.58319 11.1
      vertex -4.60435 -14.1707 11.1
    endloop
  endfacet
  facet normal 0 0 1
    outer loop
      vertex -10.2317 -4.55545 11.1
      vertex -10.9553 -2.32861 11.1
      vertex -14.5744 3.09788 11.1
    endloop
  endfacet
  facet normal 0 0 1
    outer loop
      vertex -10.9553 -2.32861 11.1
      vertex -11.2 0 11.1
      vertex -14.5744 3.09788 11.1
    endloop
  endfacet
  facet normal 0 0 1
    outer loop
      vertex 7.49426 -8.32322 11.1
      vertex 5.6 -9.69948 11.1
      vertex 9.97005 -11.0729 11.1
    endloop
  endfacet
  facet normal 0 0 1
    outer loop
      vertex 5.6 -9.69948 11.1
      vertex 3.46099 -10.6518 11.1
      vertex 7.45 -12.9038 11.1
    endloop
  endfacet
  facet normal 0 0 1
    outer loop
      vertex -3.46099 -10.6518 11.1
      vertex -5.6 -9.69948 11.1
      vertex -1.55747 -14.8184 11.1
    endloop
  endfacet
  facet normal 0 0 1
    outer loop
      vertex -1.17072 -11.1386 11.1
      vertex -3.46099 -10.6518 11.1
      vertex 1.55747 -14.8184 11.1
    endloop
  endfacet
  facet normal 0 0 1
    outer loop
      vertex -11.2 0 11.1
      vertex -10.9553 2.32861 11.1
      vertex -14.5744 3.09788 11.1
    endloop
  endfacet
  facet normal -0.951056 -0.309017 0
    outer loop
      vertex -12.7648 -2.71325 1.85
      vertex -11.9218 -5.30791 1.85
      vertex -12.7648 -2.71325 9.25
    endloop
  endfacet
  facet normal -0.951056 -0.309017 0
    outer loop
      vertex -12.7648 -2.71325 9.25
      vertex -11.9218 -5.30791 1.85
      vertex -11.9218 -5.30791 9.25
    endloop
  endfacet
  facet normal -0.994522 -0.104529 0
    outer loop
      vertex -13.05 0 1.85
      vertex -12.7648 -2.71325 1.85
      vertex -13.05 0 9.25
    endloop
  endfacet
  facet normal -0.994522 -0.104529 0
    outer loop
      vertex -13.05 0 9.25
      vertex -12.7648 -2.71325 1.85
      vertex -12.7648 -2.71325 9.25
    endloop
  endfacet
  facet normal -0.866026 -0.5 0
    outer loop
      vertex -11.9218 -5.30791 1.85
      vertex -10.5577 -7.6706 1.85
      vertex -11.9218 -5.30791 9.25
    endloop
  endfacet
  facet normal -0.866026 -0.5 0
    outer loop
      vertex -11.9218 -5.30791 9.25
      vertex -10.5577 -7.6706 1.85
      vertex -10.5577 -7.6706 9.25
    endloop
  endfacet
  facet normal -0.743145 -0.669131 0
    outer loop
      vertex -10.5577 -7.6706 1.85
      vertex -8.73215 -9.69804 1.85
      vertex -10.5577 -7.6706 9.25
    endloop
  endfacet
  facet normal -0.743145 -0.669131 0
    outer loop
      vertex -10.5577 -7.6706 9.25
      vertex -8.73215 -9.69804 1.85
      vertex -8.73215 -9.69804 9.25
    endloop
  endfacet
  facet normal -0.587785 -0.809017 0
    outer loop
      vertex -8.73215 -9.69804 9.25
      vertex -8.73215 -9.69804 1.85
      vertex -6.525 -11.3016 1.85
    endloop
  endfacet
  facet normal -0.587785 -0.809017 0
    outer loop
      vertex -6.525 -11.3016 9.25
      vertex -8.73215 -9.69804 9.25
      vertex -6.525 -11.3016 1.85
    endloop
  endfacet
  facet normal -0.406737 -0.913545 0
    outer loop
      vertex -6.525 -11.3016 9.25
      vertex -6.525 -11.3016 1.85
      vertex -4.03267 -12.4113 1.85
    endloop
  endfacet
  facet normal -0.406737 -0.913545 0
    outer loop
      vertex -4.03267 -12.4113 9.25
      vertex -6.525 -11.3016 9.25
      vertex -4.03267 -12.4113 1.85
    endloop
  endfacet
  facet normal -0.207912 -0.978148 0
    outer loop
      vertex -4.03267 -12.4113 9.25
      vertex -4.03267 -12.4113 1.85
      vertex -1.3641 -12.9785 1.85
    endloop
  endfacet
  facet normal -0.207912 -0.978148 0
    outer loop
      vertex -1.3641 -12.9785 9.25
      vertex -4.03267 -12.4113 9.25
      vertex -1.3641 -12.9785 1.85
    endloop
  endfacet
  facet normal 0 -1 0
    outer loop
      vertex -1.3641 -12.9785 9.25
      vertex -1.3641 -12.9785 1.85
      vertex 1.3641 -12.9785 1.85
    endloop
  endfacet
  facet normal 0 -1 0
    outer loop
      vertex 1.3641 -12.9785 9.25
      vertex -1.3641 -12.9785 9.25
      vertex 1.3641 -12.9785 1.85
    endloop
  endfacet
  facet normal 0.207912 -0.978148 0
    outer loop
      vertex 1.3641 -12.9785 9.25
      vertex 1.3641 -12.9785 1.85
      vertex 4.03267 -12.4113 1.85
    endloop
  endfacet
  facet normal 0.207912 -0.978148 0
    outer loop
      vertex 4.03267 -12.4113 9.25
      vertex 1.3641 -12.9785 9.25
      vertex 4.03267 -12.4113 1.85
    endloop
  endfacet
  facet normal 0.406737 -0.913545 0
    outer loop
      vertex 4.03267 -12.4113 9.25
      vertex 4.03267 -12.4113 1.85
      vertex 6.525 -11.3016 1.85
    endloop
  endfacet
  facet normal 0.406737 -0.913545 0
    outer loop
      vertex 6.525 -11.3016 9.25
      vertex 4.03267 -12.4113 9.25
      vertex 6.525 -11.3016 1.85
    endloop
  endfacet
  facet normal 0.587785 -0.809017 0
    outer loop
      vertex 6.525 -11.3016 9.25
      vertex 6.525 -11.3016 1.85
      vertex 8.73215 -9.69804 1.85
    endloop
  endfacet
  facet normal 0.587785 -0.809017 0
    outer loop
      vertex 8.73215 -9.69804 9.25
      vertex 6.525 -11.3016 9.25
      vertex 8.73215 -9.69804 1.85
    endloop
  endfacet
  facet normal 0.743145 -0.669131 0
    outer loop
      vertex 8.73215 -9.69804 9.25
      vertex 8.73215 -9.69804 1.85
      vertex 10.5577 -7.6706 1.85
    endloop
  endfacet
  facet normal 0.743145 -0.669131 0
    outer loop
      vertex 10.5577 -7.6706 9.25
      vertex 8.73215 -9.69804 9.25
      vertex 10.5577 -7.6706 1.85
    endloop
  endfacet
  facet normal 0.866026 -0.5 0
    outer loop
      vertex 10.5577 -7.6706 9.25
      vertex 10.5577 -7.6706 1.85
      vertex 11.9218 -5.30791 1.85
    endloop
  endfacet
  facet normal 0.866026 -0.5 0
    outer loop
      vertex 11.9218 -5.30791 9.25
      vertex 10.5577 -7.6706 9.25
      vertex 11.9218 -5.30791 1.85
    endloop
  endfacet
  facet normal 0.951056 -0.309017 0
    outer loop
      vertex 11.9218 -5.30791 9.25
      vertex 11.9218 -5.30791 1.85
      vertex 12.7648 -2.71325 1.85
    endloop
  endfacet
  facet normal 0.951056 -0.309017 0
    outer loop
      vertex 12.7648 -2.71325 9.25
      vertex 11.9218 -5.30791 9.25
      vertex 12.7648 -2.71325 1.85
    endloop
  endfacet
  facet normal 0.994522 -0.104529 0
    outer loop
      vertex 12.7648 -2.71325 9.25
      vertex 12.7648 -2.71325 1.85
      vertex 13.05 0 1.85
    endloop
  endfacet
  facet normal 0.994522 -0.104529 0
    outer loop
      vertex 13.05 0 9.25
      vertex 12.7648 -2.71325 9.25
      vertex 13.05 0 1.85
    endloop
  endfacet
  facet normal 0.994522 0.104529 0
    outer loop
      vertex 13.05 0 1.85
      vertex 12.7648 2.71325 1.85
      vertex 12.7648 2.71325 9.25
    endloop
  endfacet
  facet normal 0.994522 0.104529 0
    outer loop
      vertex 13.05 0 9.25
      vertex 13.05 0 1.85
      vertex 12.7648 2.71325 9.25
    endloop
  endfacet
  facet normal 0.951056 0.309017 0
    outer loop
      vertex 12.7648 2.71325 1.85
      vertex 11.9218 5.30791 1.85
      vertex 11.9218 5.30791 9.25
    endloop
  endfacet
  facet normal 0.951056 0.309017 0
    outer loop
      vertex 12.7648 2.71325 9.25
      vertex 12.7648 2.71325 1.85
      vertex 11.9218 5.30791 9.25
    endloop
  endfacet
  facet normal 0.866026 0.5 0
    outer loop
      vertex 11.9218 5.30791 1.85
      vertex 10.5577 7.6706 1.85
      vertex 10.5577 7.6706 9.25
    endloop
  endfacet
  facet normal 0.866026 0.5 0
    outer loop
      vertex 11.9218 5.30791 9.25
      vertex 11.9218 5.30791 1.85
      vertex 10.5577 7.6706 9.25
    endloop
  endfacet
  facet normal 0.743145 0.669131 0
    outer loop
      vertex 10.5577 7.6706 1.85
      vertex 8.73215 9.69804 1.85
      vertex 8.73215 9.69804 9.25
    endloop
  endfacet
  facet normal 0.743145 0.669131 0
    outer loop
      vertex 10.5577 7.6706 9.25
      vertex 10.5577 7.6706 1.85
      vertex 8.73215 9.69804 9.25
    endloop
  endfacet
  facet normal 0.587785 0.809017 0
    outer loop
      vertex 6.525 11.3016 1.85
      vertex 6.525 11.3016 9.25
      vertex 8.73215 9.69804 1.85
    endloop
  endfacet
  facet normal 0.587785 0.809017 0
    outer loop
      vertex 8.73215 9.69804 1.85
      vertex 6.525 11.3016 9.25
      vertex 8.73215 9.69804 9.25
    endloop
  endfacet
  facet normal 0.406737 0.913545 0
    outer loop
      vertex 4.03267 12.4113 1.85
      vertex 4.03267 12.4113 9.25
      vertex 6.525 11.3016 1.85
    endloop
  endfacet
  facet normal 0.406737 0.913545 0
    outer loop
      vertex 6.525 11.3016 1.85
      vertex 4.03267 12.4113 9.25
      vertex 6.525 11.3016 9.25
    endloop
  endfacet
  facet normal 0.207912 0.978148 0
    outer loop
      vertex 1.3641 12.9785 1.85
      vertex 1.3641 12.9785 9.25
      vertex 4.03267 12.4113 1.85
    endloop
  endfacet
  facet normal 0.207912 0.978148 0
    outer loop
      vertex 4.03267 12.4113 1.85
      vertex 1.3641 12.9785 9.25
      vertex 4.03267 12.4113 9.25
    endloop
  endfacet
  facet normal 0 1 0
    outer loop
      vertex -1.3641 12.9785 1.85
      vertex -1.3641 12.9785 9.25
      vertex 1.3641 12.9785 1.85
    endloop
  endfacet
  facet normal 0 1 0
    outer loop
      vertex 1.3641 12.9785 1.85
      vertex -1.3641 12.9785 9.25
      vertex 1.3641 12.9785 9.25
    endloop
  endfacet
  facet normal -0.207912 0.978148 0
    outer loop
      vertex -4.03267 12.4113 1.85
      vertex -4.03267 12.4113 9.25
      vertex -1.3641 12.9785 1.85
    endloop
  endfacet
  facet normal -0.207912 0.978148 0
    outer loop
      vertex -1.3641 12.9785 1.85
      vertex -4.03267 12.4113 9.25
      vertex -1.3641 12.9785 9.25
    endloop
  endfacet
  facet normal -0.406737 0.913545 0
    outer loop
      vertex -6.525 11.3016 1.85
      vertex -6.525 11.3016 9.25
      vertex -4.03267 12.4113 1.85
    endloop
  endfacet
  facet normal -0.406737 0.913545 0
    outer loop
      vertex -4.03267 12.4113 1.85
      vertex -6.525 11.3016 9.25
      vertex -4.03267 12.4113 9.25
    endloop
  endfacet
  facet normal -0.587785 0.809017 0
    outer loop
      vertex -8.73215 9.69804 1.85
      vertex -8.73215 9.69804 9.25
      vertex -6.525 11.3016 1.85
    endloop
  endfacet
  facet normal -0.587785 0.809017 0
    outer loop
      vertex -6.525 11.3016 1.85
      vertex -8.73215 9.69804 9.25
      vertex -6.525 11.3016 9.25
    endloop
  endfacet
  facet normal -0.743145 0.669131 0
    outer loop
      vertex -10.5577 7.6706 1.85
      vertex -10.5577 7.6706 9.25
      vertex -8.73215 9.69804 1.85
    endloop
  endfacet
  facet normal -0.743145 0.669131 0
    outer loop
      vertex -8.73215 9.69804 1.85
      vertex -10.5577 7.6706 9.25
      vertex -8.73215 9.69804 9.25
    endloop
  endfacet
  facet normal -0.866026 0.5 0
    outer loop
      vertex -11.9218 5.30791 1.85
      vertex -11.9218 5.30791 9.25
      vertex -10.5577 7.6706 1.85
    endloop
  endfacet
  facet normal -0.866026 0.5 0
    outer loop
      vertex -10.5577 7.6706 1.85
      vertex -11.9218 5.30791 9.25
      vertex -10.5577 7.6706 9.25
    endloop
  endfacet
  facet normal -0.951056 0.309017 0
    outer loop
      vertex -12.7648 2.71325 1.85
      vertex -12.7648 2.71325 9.25
      vertex -11.9218 5.30791 1.85
    endloop
  endfacet
  facet normal -0.951056 0.309017 0
    outer loop
      vertex -11.9218 5.30791 1.85
      vertex -12.7648 2.71325 9.25
      vertex -11.9218 5.30791 9.25
    endloop
  endfacet
  facet normal -0.994522 0.104529 0
    outer loop
      vertex -13.05 0 1.85
      vertex -13.05 0 9.25
      vertex -12.7648 2.71325 1.85
    endloop
  endfacet
  facet normal -0.994522 0.104529 0
    outer loop
      vertex -12.7648 2.71325 1.85
      vertex -13.05 0 9.25
      vertex -12.7648 2.71325 9.25
    endloop
  endfacet
  facet normal -0.994522 0.104529 0
    outer loop
      vertex -14.9 0 9.25
      vertex -14.9 0 11.1
      vertex -14.5744 3.09788 9.25
    endloop
  endfacet
  facet normal -0.994522 0.104529 0
    outer loop
      vertex -14.5744 3.09788 9.25
      vertex -14.9 0 11.1
      vertex -14.5744 3.09788 11.1
    endloop
  endfacet
  facet normal -0.951057 0.309017 0
    outer loop
      vertex -14.5744 3.09788 9.25
      vertex -14.5744 3.09788 11.1
      vertex -13.6118 6.06038 9.25
    endloop
  endfacet
  facet normal -0.951057 0.309017 0
    outer loop
      vertex -13.6118 6.06038 9.25
      vertex -14.5744 3.09788 11.1
      vertex -13.6118 6.06038 11.1
    endloop
  endfacet
  facet normal -0.866025 0.5 0
    outer loop
      vertex -13.6118 6.06038 9.25
      vertex -13.6118 6.06038 11.1
      vertex -12.0544 8.758 9.25
    endloop
  endfacet
  facet normal -0.866025 0.5 0
    outer loop
      vertex -12.0544 8.758 9.25
      vertex -13.6118 6.06038 11.1
      vertex -12.0544 8.758 11.1
    endloop
  endfacet
  facet normal -0.743145 0.669131 0
    outer loop
      vertex -12.0544 8.758 9.25
      vertex -12.0544 8.758 11.1
      vertex -9.97005 11.0729 9.25
    endloop
  endfacet
  facet normal -0.743145 0.669131 0
    outer loop
      vertex -9.97005 11.0729 9.25
      vertex -12.0544 8.758 11.1
      vertex -9.97005 11.0729 11.1
    endloop
  endfacet
  facet normal -0.587785 0.809017 0
    outer loop
      vertex -9.97005 11.0729 9.25
      vertex -9.97005 11.0729 11.1
      vertex -7.45 12.9038 9.25
    endloop
  endfacet
  facet normal -0.587785 0.809017 0
    outer loop
      vertex -7.45 12.9038 9.25
      vertex -9.97005 11.0729 11.1
      vertex -7.45 12.9038 11.1
    endloop
  endfacet
  facet normal -0.406736 0.913546 0
    outer loop
      vertex -7.45 12.9038 9.25
      vertex -7.45 12.9038 11.1
      vertex -4.60435 14.1707 9.25
    endloop
  endfacet
  facet normal -0.406736 0.913546 0
    outer loop
      vertex -4.60435 14.1707 9.25
      vertex -7.45 12.9038 11.1
      vertex -4.60435 14.1707 11.1
    endloop
  endfacet
  facet normal -0.207912 0.978148 0
    outer loop
      vertex -4.60435 14.1707 9.25
      vertex -4.60435 14.1707 11.1
      vertex -1.55747 14.8184 9.25
    endloop
  endfacet
  facet normal -0.207912 0.978148 0
    outer loop
      vertex -1.55747 14.8184 9.25
      vertex -4.60435 14.1707 11.1
      vertex -1.55747 14.8184 11.1
    endloop
  endfacet
  facet normal 0 1 0
    outer loop
      vertex -1.55747 14.8184 9.25
      vertex -1.55747 14.8184 11.1
      vertex 1.55747 14.8184 9.25
    endloop
  endfacet
  facet normal 0 1 0
    outer loop
      vertex 1.55747 14.8184 9.25
      vertex -1.55747 14.8184 11.1
      vertex 1.55747 14.8184 11.1
    endloop
  endfacet
  facet normal 0.207912 0.978148 0
    outer loop
      vertex 1.55747 14.8184 9.25
      vertex 1.55747 14.8184 11.1
      vertex 4.60435 14.1707 9.25
    endloop
  endfacet
  facet normal 0.207912 0.978148 0
    outer loop
      vertex 4.60435 14.1707 9.25
      vertex 1.55747 14.8184 11.1
      vertex 4.60435 14.1707 11.1
    endloop
  endfacet
  facet normal 0.406736 0.913546 0
    outer loop
      vertex 4.60435 14.1707 9.25
      vertex 4.60435 14.1707 11.1
      vertex 7.45 12.9038 9.25
    endloop
  endfacet
  facet normal 0.406736 0.913546 0
    outer loop
      vertex 7.45 12.9038 9.25
      vertex 4.60435 14.1707 11.1
      vertex 7.45 12.9038 11.1
    endloop
  endfacet
  facet normal 0.587785 0.809017 0
    outer loop
      vertex 7.45 12.9038 9.25
      vertex 7.45 12.9038 11.1
      vertex 9.97005 11.0729 9.25
    endloop
  endfacet
  facet normal 0.587785 0.809017 0
    outer loop
      vertex 9.97005 11.0729 9.25
      vertex 7.45 12.9038 11.1
      vertex 9.97005 11.0729 11.1
    endloop
  endfacet
  facet normal 0.743145 0.669131 0
    outer loop
      vertex 12.0544 8.758 9.25
      vertex 9.97005 11.0729 9.25
      vertex 9.97005 11.0729 11.1
    endloop
  endfacet
  facet normal 0.743145 0.669131 0
    outer loop
      vertex 12.0544 8.758 11.1
      vertex 12.0544 8.758 9.25
      vertex 9.97005 11.0729 11.1
    endloop
  endfacet
  facet normal 0.866025 0.5 0
    outer loop
      vertex 13.6118 6.06038 9.25
      vertex 12.0544 8.758 9.25
      vertex 12.0544 8.758 11.1
    endloop
  endfacet
  facet normal 0.866025 0.5 0
    outer loop
      vertex 13.6118 6.06038 11.1
      vertex 13.6118 6.06038 9.25
      vertex 12.0544 8.758 11.1
    endloop
  endfacet
  facet normal 0.951057 0.309017 0
    outer loop
      vertex 14.5744 3.09788 9.25
      vertex 13.6118 6.06038 9.25
      vertex 13.6118 6.06038 11.1
    endloop
  endfacet
  facet normal 0.951057 0.309017 0
    outer loop
      vertex 14.5744 3.09788 11.1
      vertex 14.5744 3.09788 9.25
      vertex 13.6118 6.06038 11.1
    endloop
  endfacet
  facet normal 0.994522 0.104529 0
    outer loop
      vertex 14.9 0 9.25
      vertex 14.5744 3.09788 9.25
      vertex 14.5744 3.09788 11.1
    endloop
  endfacet
  facet normal 0.994522 0.104529 0
    outer loop
      vertex 14.9 0 11.1
      vertex 14.9 0 9.25
      vertex 14.5744 3.09788 11.1
    endloop
  endfacet
  facet normal 0.994522 -0.104529 0
    outer loop
      vertex 14.5744 -3.09788 11.1
      vertex 14.5744 -3.09788 9.25
      vertex 14.9 0 9.25
    endloop
  endfacet
  facet normal 0.994522 -0.104529 0
    outer loop
      vertex 14.9 0 11.1
      vertex 14.5744 -3.09788 11.1
      vertex 14.9 0 9.25
    endloop
  endfacet
  facet normal 0.951057 -0.309017 0
    outer loop
      vertex 13.6118 -6.06038 11.1
      vertex 13.6118 -6.06038 9.25
      vertex 14.5744 -3.09788 9.25
    endloop
  endfacet
  facet normal 0.951057 -0.309017 0
    outer loop
      vertex 14.5744 -3.09788 11.1
      vertex 13.6118 -6.06038 11.1
      vertex 14.5744 -3.09788 9.25
    endloop
  endfacet
  facet normal 0.866025 -0.5 0
    outer loop
      vertex 12.0544 -8.758 11.1
      vertex 12.0544 -8.758 9.25
      vertex 13.6118 -6.06038 9.25
    endloop
  endfacet
  facet normal 0.866025 -0.5 0
    outer loop
      vertex 13.6118 -6.06038 11.1
      vertex 12.0544 -8.758 11.1
      vertex 13.6118 -6.06038 9.25
    endloop
  endfacet
  facet normal 0.743145 -0.669131 0
    outer loop
      vertex 9.97005 -11.0729 11.1
      vertex 9.97005 -11.0729 9.25
      vertex 12.0544 -8.758 9.25
    endloop
  endfacet
  facet normal 0.743145 -0.669131 0
    outer loop
      vertex 12.0544 -8.758 11.1
      vertex 9.97005 -11.0729 11.1
      vertex 12.0544 -8.758 9.25
    endloop
  endfacet
  facet normal 0.587785 -0.809017 0
    outer loop
      vertex 7.45 -12.9038 11.1
      vertex 7.45 -12.9038 9.25
      vertex 9.97005 -11.0729 9.25
    endloop
  endfacet
  facet normal 0.587785 -0.809017 0
    outer loop
      vertex 9.97005 -11.0729 11.1
      vertex 7.45 -12.9038 11.1
      vertex 9.97005 -11.0729 9.25
    endloop
  endfacet
  facet normal 0.406736 -0.913546 0
    outer loop
      vertex 4.60435 -14.1707 11.1
      vertex 4.60435 -14.1707 9.25
      vertex 7.45 -12.9038 9.25
    endloop
  endfacet
  facet normal 0.406736 -0.913546 0
    outer loop
      vertex 7.45 -12.9038 11.1
      vertex 4.60435 -14.1707 11.1
      vertex 7.45 -12.9038 9.25
    endloop
  endfacet
  facet normal 0.207912 -0.978148 0
    outer loop
      vertex 1.55747 -14.8184 11.1
      vertex 1.55747 -14.8184 9.25
      vertex 4.60435 -14.1707 9.25
    endloop
  endfacet
  facet normal 0.207912 -0.978148 0
    outer loop
      vertex 4.60435 -14.1707 11.1
      vertex 1.55747 -14.8184 11.1
      vertex 4.60435 -14.1707 9.25
    endloop
  endfacet
  facet normal 0 -1 0
    outer loop
      vertex -1.55747 -14.8184 11.1
      vertex -1.55747 -14.8184 9.25
      vertex 1.55747 -14.8184 9.25
    endloop
  endfacet
  facet normal 0 -1 0
    outer loop
      vertex 1.55747 -14.8184 11.1
      vertex -1.55747 -14.8184 11.1
      vertex 1.55747 -14.8184 9.25
    endloop
  endfacet
  facet normal -0.207912 -0.978148 0
    outer loop
      vertex -4.60435 -14.1707 11.1
      vertex -4.60435 -14.1707 9.25
      vertex -1.55747 -14.8184 9.25
    endloop
  endfacet
  facet normal -0.207912 -0.978148 0
    outer loop
      vertex -1.55747 -14.8184 11.1
      vertex -4.60435 -14.1707 11.1
      vertex -1.55747 -14.8184 9.25
    endloop
  endfacet
  facet normal -0.406736 -0.913546 0
    outer loop
      vertex -7.45 -12.9038 11.1
      vertex -7.45 -12.9038 9.25
      vertex -4.60435 -14.1707 9.25
    endloop
  endfacet
  facet normal -0.406736 -0.913546 0
    outer loop
      vertex -4.60435 -14.1707 11.1
      vertex -7.45 -12.9038 11.1
      vertex -4.60435 -14.1707 9.25
    endloop
  endfacet
  facet normal -0.587785 -0.809017 0
    outer loop
      vertex -9.97005 -11.0729 11.1
      vertex -9.97005 -11.0729 9.25
      vertex -7.45 -12.9038 9.25
    endloop
  endfacet
  facet normal -0.587785 -0.809017 0
    outer loop
      vertex -7.45 -12.9038 11.1
      vertex -9.97005 -11.0729 11.1
      vertex -7.45 -12.9038 9.25
    endloop
  endfacet
  facet normal -0.743145 -0.669131 0
    outer loop
      vertex -12.0544 -8.758 9.25
      vertex -9.97005 -11.0729 9.25
      vertex -12.0544 -8.758 11.1
    endloop
  endfacet
  facet normal -0.743145 -0.669131 0
    outer loop
      vertex -12.0544 -8.758 11.1
      vertex -9.97005 -11.0729 9.25
      vertex -9.97005 -11.0729 11.1
    endloop
  endfacet
  facet normal -0.866025 -0.5 0
    outer loop
      vertex -13.6118 -6.06038 9.25
      vertex -12.0544 -8.758 9.25
      vertex -13.6118 -6.06038 11.1
    endloop
  endfacet
  facet normal -0.866025 -0.5 0
    outer loop
      vertex -13.6118 -6.06038 11.1
      vertex -12.0544 -8.758 9.25
      vertex -12.0544 -8.758 11.1
    endloop
  endfacet
  facet normal -0.951057 -0.309017 0
    outer loop
      vertex -14.5744 -3.09788 9.25
      vertex -13.6118 -6.06038 9.25
      vertex -14.5744 -3.09788 11.1
    endloop
  endfacet
  facet normal -0.951057 -0.309017 0
    outer loop
      vertex -14.5744 -3.09788 11.1
      vertex -13.6118 -6.06038 9.25
      vertex -13.6118 -6.06038 11.1
    endloop
  endfacet
  facet normal -0.994522 -0.104529 0
    outer loop
      vertex -14.9 0 9.25
      vertex -14.5744 -3.09788 9.25
      vertex -14.9 0 11.1
    endloop
  endfacet
  facet normal -0.994522 -0.104529 0
    outer loop
      vertex -14.9 0 11.1
      vertex -14.5744 -3.09788 9.25
      vertex -14.5744 -3.09788 11.1
    endloop
  endfacet
  facet normal 0 0 -1
    outer loop
      vertex -14.9 0 9.25
      vertex -14.5744 3.09788 9.25
      vertex -14.5744 -3.09788 9.25
    endloop
  endfacet
  facet normal 0 0 -1
    outer loop
      vertex -14.5744 -3.09788 9.25
      vertex -14.5744 3.09788 9.25
      vertex -13.6118 6.06038 9.25
    endloop
  endfacet
  facet normal 0 0 -1
    outer loop
      vertex -14.5744 -3.09788 9.25
      vertex -13.6118 6.06038 9.25
      vertex -12.0544 8.758 9.25
    endloop
  endfacet
  facet normal 0 0 -1
    outer loop
      vertex -11.9218 5.30791 9.25
      vertex -12.0544 8.758 9.25
      vertex -9.97005 11.0729 9.25
    endloop
  endfacet
  facet normal 0 0 -1
    outer loop
      vertex -10.5577 7.6706 9.25
      vertex -9.97005 11.0729 9.25
      vertex -7.45 12.9038 9.25
    endloop
  endfacet
  facet normal 0 0 -1
    outer loop
      vertex -6.525 11.3016 9.25
      vertex -7.45 12.9038 9.25
      vertex -4.60435 14.1707 9.25
    endloop
  endfacet
  facet normal 0 0 -1
    outer loop
      vertex -4.03267 12.4113 9.25
      vertex -4.60435 14.1707 9.25
      vertex -1.55747 14.8184 9.25
    endloop
  endfacet
  facet normal 0 0 -1
    outer loop
      vertex -1.3641 12.9785 9.25
      vertex -1.55747 14.8184 9.25
      vertex 1.55747 14.8184 9.25
    endloop
  endfacet
  facet normal 0 0 -1
    outer loop
      vertex 1.3641 12.9785 9.25
      vertex 1.55747 14.8184 9.25
      vertex 4.60435 14.1707 9.25
    endloop
  endfacet
  facet normal 0 0 -1
    outer loop
      vertex 4.03267 12.4113 9.25
      vertex 4.60435 14.1707 9.25
      vertex 7.45 12.9038 9.25
    endloop
  endfacet
  facet normal 0 0 -1
    outer loop
      vertex 6.525 11.3016 9.25
      vertex 7.45 12.9038 9.25
      vertex 9.97005 11.0729 9.25
    endloop
  endfacet
  facet normal 0 0 -1
    outer loop
      vertex 8.73215 9.69804 9.25
      vertex 9.97005 11.0729 9.25
      vertex 12.0544 8.758 9.25
    endloop
  endfacet
  facet normal 0 0 -1
    outer loop
      vertex 10.5577 7.6706 9.25
      vertex 12.0544 8.758 9.25
      vertex 13.6118 6.06038 9.25
    endloop
  endfacet
  facet normal 0 0 -1
    outer loop
      vertex 12.7648 2.71325 9.25
      vertex 13.6118 6.06038 9.25
      vertex 14.5744 3.09788 9.25
    endloop
  endfacet
  facet normal 0 0 -1
    outer loop
      vertex 13.05 0 9.25
      vertex 14.5744 3.09788 9.25
      vertex 14.9 0 9.25
    endloop
  endfacet
  facet normal 0 0 -1
    outer loop
      vertex 12.7648 -2.71325 9.25
      vertex 14.9 0 9.25
      vertex 14.5744 -3.09788 9.25
    endloop
  endfacet
  facet normal 0 0 -1
    outer loop
      vertex 11.9218 -5.30791 9.25
      vertex 14.5744 -3.09788 9.25
      vertex 13.6118 -6.06038 9.25
    endloop
  endfacet
  facet normal 0 0 -1
    outer loop
      vertex 10.5577 -7.6706 9.25
      vertex 13.6118 -6.06038 9.25
      vertex 12.0544 -8.758 9.25
    endloop
  endfacet
  facet normal 0 0 -1
    outer loop
      vertex 8.73215 -9.69804 9.25
      vertex 12.0544 -8.758 9.25
      vertex 9.97005 -11.0729 9.25
    endloop
  endfacet
  facet normal 0 0 -1
    outer loop
      vertex 6.525 -11.3016 9.25
      vertex 9.97005 -11.0729 9.25
      vertex 7.45 -12.9038 9.25
    endloop
  endfacet
  facet normal 0 0 -1
    outer loop
      vertex 4.03267 -12.4113 9.25
      vertex 7.45 -12.9038 9.25
      vertex 4.60435 -14.1707 9.25
    endloop
  endfacet
  facet normal 0 0 -1
    outer loop
      vertex 1.3641 -12.9785 9.25
      vertex 4.60435 -14.1707 9.25
      vertex 1.55747 -14.8184 9.25
    endloop
  endfacet
  facet normal 0 0 -1
    outer loop
      vertex -4.03267 -12.4113 9.25
      vertex 1.55747 -14.8184 9.25
      vertex -1.55747 -14.8184 9.25
    endloop
  endfacet
  facet normal 0 0 -1
    outer loop
      vertex -6.525 -11.3016 9.25
      vertex -1.55747 -14.8184 9.25
      vertex -4.60435 -14.1707 9.25
    endloop
  endfacet
  facet normal 0 0 -1
    outer loop
      vertex -8.73215 -9.69804 9.25
      vertex -4.60435 -14.1707 9.25
      vertex -7.45 -12.9038 9.25
    endloop
  endfacet
  facet normal 0 0 -1
    outer loop
      vertex -14.5744 -3.09788 9.25
      vertex -7.45 -12.9038 9.25
      vertex -9.97005 -11.0729 9.25
    endloop
  endfacet
  facet normal 0 0 -1
    outer loop
      vertex -14.5744 -3.09788 9.25
      vertex -9.97005 -11.0729 9.25
      vertex -12.0544 -8.758 9.25
    endloop
  endfacet
  facet normal 0 0 -1
    outer loop
      vertex -14.5744 -3.09788 9.25
      vertex -12.0544 -8.758 9.25
      vertex -13.6118 -6.06038 9.25
    endloop
  endfacet
  facet normal 0 0 -1
    outer loop
      vertex -12.7648 -2.71325 9.25
      vertex -14.5744 -3.09788 9.25
      vertex -13.05 0 9.25
    endloop
  endfacet
  facet normal 0 0 -1
    outer loop
      vertex -11.9218 -5.30791 9.25
      vertex -14.5744 -3.09788 9.25
      vertex -12.7648 -2.71325 9.25
    endloop
  endfacet
  facet normal 0 0 -1
    outer loop
      vertex -10.5577 -7.6706 9.25
      vertex -14.5744 -3.09788 9.25
      vertex -11.9218 -5.30791 9.25
    endloop
  endfacet
  facet normal 0 0 -1
    outer loop
      vertex -6.525 -11.3016 9.25
      vertex -4.60435 -14.1707 9.25
      vertex -8.73215 -9.69804 9.25
    endloop
  endfacet
  facet normal 0 0 -1
    outer loop
      vertex -14.5744 -3.09788 9.25
      vertex -10.5577 -7.6706 9.25
      vertex -7.45 -12.9038 9.25
    endloop
  endfacet
  facet normal 0 0 -1
    outer loop
      vertex -10.5577 -7.6706 9.25
      vertex -8.73215 -9.69804 9.25
      vertex -7.45 -12.9038 9.25
    endloop
  endfacet
  facet normal 0 0 -1
    outer loop
      vertex -1.3641 -12.9785 9.25
      vertex 1.55747 -14.8184 9.25
      vertex -4.03267 -12.4113 9.25
    endloop
  endfacet
  facet normal 0 0 -1
    outer loop
      vertex 1.3641 -12.9785 9.25
      vertex 1.55747 -14.8184 9.25
      vertex -1.3641 -12.9785 9.25
    endloop
  endfacet
  facet normal 0 0 -1
    outer loop
      vertex -4.03267 -12.4113 9.25
      vertex -1.55747 -14.8184 9.25
      vertex -6.525 -11.3016 9.25
    endloop
  endfacet
  facet normal 0 0 -1
    outer loop
      vertex 12.7648 2.71325 9.25
      vertex 14.5744 3.09788 9.25
      vertex 13.05 0 9.25
    endloop
  endfacet
  facet normal 0 0 -1
    outer loop
      vertex 11.9218 5.30791 9.25
      vertex 13.6118 6.06038 9.25
      vertex 12.7648 2.71325 9.25
    endloop
  endfacet
  facet normal 0 0 -1
    outer loop
      vertex 13.05 0 9.25
      vertex 14.9 0 9.25
      vertex 12.7648 -2.71325 9.25
    endloop
  endfacet
  facet normal 0 0 -1
    outer loop
      vertex 12.7648 -2.71325 9.25
      vertex 14.5744 -3.09788 9.25
      vertex 11.9218 -5.30791 9.25
    endloop
  endfacet
  facet normal 0 0 -1
    outer loop
      vertex 11.9218 -5.30791 9.25
      vertex 13.6118 -6.06038 9.25
      vertex 10.5577 -7.6706 9.25
    endloop
  endfacet
  facet normal 0 0 -1
    outer loop
      vertex 10.5577 -7.6706 9.25
      vertex 12.0544 -8.758 9.25
      vertex 8.73215 -9.69804 9.25
    endloop
  endfacet
  facet normal 0 0 -1
    outer loop
      vertex 8.73215 -9.69804 9.25
      vertex 9.97005 -11.0729 9.25
      vertex 6.525 -11.3016 9.25
    endloop
  endfacet
  facet normal 0 0 -1
    outer loop
      vertex 6.525 -11.3016 9.25
      vertex 7.45 -12.9038 9.25
      vertex 4.03267 -12.4113 9.25
    endloop
  endfacet
  facet normal 0 0 -1
    outer loop
      vertex 4.03267 -12.4113 9.25
      vertex 4.60435 -14.1707 9.25
      vertex 1.3641 -12.9785 9.25
    endloop
  endfacet
  facet normal 0 0 -1
    outer loop
      vertex -8.73215 9.69804 9.25
      vertex -7.45 12.9038 9.25
      vertex -6.525 11.3016 9.25
    endloop
  endfacet
  facet normal 0 0 -1
    outer loop
      vertex -10.5577 7.6706 9.25
      vertex -7.45 12.9038 9.25
      vertex -8.73215 9.69804 9.25
    endloop
  endfacet
  facet normal 0 0 -1
    outer loop
      vertex -6.525 11.3016 9.25
      vertex -4.60435 14.1707 9.25
      vertex -4.03267 12.4113 9.25
    endloop
  endfacet
  facet normal 0 0 -1
    outer loop
      vertex -12.7648 2.71325 9.25
      vertex -12.0544 8.758 9.25
      vertex -11.9218 5.30791 9.25
    endloop
  endfacet
  facet normal 0 0 -1
    outer loop
      vertex -14.5744 -3.09788 9.25
      vertex -12.0544 8.758 9.25
      vertex -12.7648 2.71325 9.25
    endloop
  endfacet
  facet normal 0 0 -1
    outer loop
      vertex -4.03267 12.4113 9.25
      vertex -1.55747 14.8184 9.25
      vertex -1.3641 12.9785 9.25
    endloop
  endfacet
  facet normal 0 0 -1
    outer loop
      vertex -13.05 0 9.25
      vertex -14.5744 -3.09788 9.25
      vertex -12.7648 2.71325 9.25
    endloop
  endfacet
  facet normal 0 0 -1
    outer loop
      vertex -11.9218 5.30791 9.25
      vertex -9.97005 11.0729 9.25
      vertex -10.5577 7.6706 9.25
    endloop
  endfacet
  facet normal 0 0 -1
    outer loop
      vertex -1.3641 12.9785 9.25
      vertex 1.55747 14.8184 9.25
      vertex 1.3641 12.9785 9.25
    endloop
  endfacet
  facet normal 0 0 -1
    outer loop
      vertex 1.3641 12.9785 9.25
      vertex 4.60435 14.1707 9.25
      vertex 4.03267 12.4113 9.25
    endloop
  endfacet
  facet normal 0 0 -1
    outer loop
      vertex 4.03267 12.4113 9.25
      vertex 7.45 12.9038 9.25
      vertex 6.525 11.3016 9.25
    endloop
  endfacet
  facet normal 0 0 -1
    outer loop
      vertex 6.525 11.3016 9.25
      vertex 9.97005 11.0729 9.25
      vertex 8.73215 9.69804 9.25
    endloop
  endfacet
  facet normal 0 0 -1
    outer loop
      vertex 8.73215 9.69804 9.25
      vertex 12.0544 8.758 9.25
      vertex 10.5577 7.6706 9.25
    endloop
  endfacet
  facet normal 0 0 -1
    outer loop
      vertex 10.5577 7.6706 9.25
      vertex 13.6118 6.06038 9.25
      vertex 11.9218 5.30791 9.25
    endloop
  endfacet
endsolid OpenSCAD_Model
