solid OpenSCAD_Model
  facet normal 0 0 1
    outer loop
      vertex -24.8449 5.28096 21.05
      vertex -25.4 0 21.05
      vertex -24.8449 -5.28096 21.05
    endloop
  endfacet
  facet normal 0 0 1
    outer loop
      vertex -20.549 -14.9297 21.05
      vertex -24.8449 5.28096 21.05
      vertex -23.2041 -10.3311 21.05
    endloop
  endfacet
  facet normal 0 0 1
    outer loop
      vertex -23.2041 -10.3311 21.05
      vertex -24.8449 5.28096 21.05
      vertex -24.8449 -5.28096 21.05
    endloop
  endfacet
  facet normal 0 0 1
    outer loop
      vertex -16.9959 -18.8759 21.05
      vertex -24.8449 5.28096 21.05
      vertex -20.549 -14.9297 21.05
    endloop
  endfacet
  facet normal 0 0 1
    outer loop
      vertex -12.7 -21.997 21.05
      vertex -24.8449 5.28096 21.05
      vertex -16.9959 -18.8759 21.05
    endloop
  endfacet
  facet normal 0 0 1
    outer loop
      vertex -7.84903 -24.1568 21.05
      vertex -24.8449 5.28096 21.05
      vertex -12.7 -21.997 21.05
    endloop
  endfacet
  facet normal 0 0 1
    outer loop
      vertex -2.65502 -25.2609 21.05
      vertex -24.8449 5.28096 21.05
      vertex -7.84903 -24.1568 21.05
    endloop
  endfacet
  facet normal 0 0 1
    outer loop
      vertex -12.0262 -11.0587 21.05
      vertex -24.8449 5.28096 21.05
      vertex -2.65502 -25.2609 21.05
    endloop
  endfacet
  facet normal 0 0 1
    outer loop
      vertex -5.15937 -8.9363 21.05
      vertex -24.8449 5.28096 21.05
      vertex 12.7 -21.997 21.05
    endloop
  endfacet
  facet normal 0 0 1
    outer loop
      vertex 3.18867 -9.81371 21.05
      vertex 1.0786 -10.2622 21.05
      vertex 16.9959 -18.8759 21.05
    endloop
  endfacet
  facet normal 0 0 1
    outer loop
      vertex 8.29376 9.26127 21.05
      vertex 8.29376 11.0587 21.05
      vertex 3.18867 9.81371 21.05
    endloop
  endfacet
  facet normal 0 0 1
    outer loop
      vertex 10.3188 0 21.05
      vertex 10.0933 -2.14539 21.05
      vertex 24.8449 -5.28096 21.05
    endloop
  endfacet
  facet normal 0 0 1
    outer loop
      vertex 8.34804 6.06521 21.05
      vertex 9.42665 4.19701 21.05
      vertex 24.8449 5.28096 21.05
    endloop
  endfacet
  facet normal 0 0 1
    outer loop
      vertex 16.9959 18.8759 21.05
      vertex -24.8449 5.28096 21.05
      vertex 20.549 14.9297 21.05
    endloop
  endfacet
  facet normal 0 0 1
    outer loop
      vertex 12.7 21.997 21.05
      vertex -24.8449 5.28096 21.05
      vertex 16.9959 18.8759 21.05
    endloop
  endfacet
  facet normal 0 0 1
    outer loop
      vertex 7.84903 24.1568 21.05
      vertex -24.8449 5.28096 21.05
      vertex 12.7 21.997 21.05
    endloop
  endfacet
  facet normal 0 0 1
    outer loop
      vertex 2.65502 25.2609 21.05
      vertex -24.8449 5.28096 21.05
      vertex 7.84903 24.1568 21.05
    endloop
  endfacet
  facet normal 0 0 1
    outer loop
      vertex -2.65502 25.2609 21.05
      vertex -24.8449 5.28096 21.05
      vertex 2.65502 25.2609 21.05
    endloop
  endfacet
  facet normal 0 0 1
    outer loop
      vertex -7.84903 24.1568 21.05
      vertex -24.8449 5.28096 21.05
      vertex -2.65502 25.2609 21.05
    endloop
  endfacet
  facet normal 0 0 1
    outer loop
      vertex -12.7 21.997 21.05
      vertex -24.8449 5.28096 21.05
      vertex -7.84903 24.1568 21.05
    endloop
  endfacet
  facet normal 0 0 1
    outer loop
      vertex -16.9959 18.8759 21.05
      vertex -24.8449 5.28096 21.05
      vertex -12.7 21.997 21.05
    endloop
  endfacet
  facet normal 0 0 1
    outer loop
      vertex -20.549 14.9297 21.05
      vertex -24.8449 5.28096 21.05
      vertex -16.9959 18.8759 21.05
    endloop
  endfacet
  facet normal 0 0 1
    outer loop
      vertex -23.2041 10.3311 21.05
      vertex -24.8449 5.28096 21.05
      vertex -20.549 14.9297 21.05
    endloop
  endfacet
  facet normal 0 0 1
    outer loop
      vertex 2.65502 -25.2609 21.05
      vertex -12.0262 -11.0587 21.05
      vertex -2.65502 -25.2609 21.05
    endloop
  endfacet
  facet normal 0 0 1
    outer loop
      vertex -12.0262 -9.26127 21.05
      vertex -24.8449 5.28096 21.05
      vertex -12.0262 -11.0587 21.05
    endloop
  endfacet
  facet normal 0 0 1
    outer loop
      vertex -10.6209 -8.14056 21.05
      vertex -8.86852 -8.54054 21.05
      vertex -24.8449 5.28096 21.05
    endloop
  endfacet
  facet normal 0 0 1
    outer loop
      vertex -8.86852 -11.7795 21.05
      vertex -10.6209 -12.1794 21.05
      vertex 2.65502 -25.2609 21.05
    endloop
  endfacet
  facet normal 0 0 1
    outer loop
      vertex -8.08863 -10.16 21.05
      vertex -8.86852 -11.7795 21.05
      vertex 2.65502 -25.2609 21.05
    endloop
  endfacet
  facet normal 0 0 1
    outer loop
      vertex 12.7 -21.997 21.05
      vertex -8.86852 -8.54054 21.05
      vertex 7.84903 -24.1568 21.05
    endloop
  endfacet
  facet normal 0 0 1
    outer loop
      vertex 12.7 -21.997 21.05
      vertex -24.8449 5.28096 21.05
      vertex -8.86852 -8.54054 21.05
    endloop
  endfacet
  facet normal 0 0 1
    outer loop
      vertex -9.42665 -4.19701 21.05
      vertex -10.0933 -2.14539 21.05
      vertex -24.8449 5.28096 21.05
    endloop
  endfacet
  facet normal 0 0 1
    outer loop
      vertex -8.08863 -10.16 21.05
      vertex 2.65502 -25.2609 21.05
      vertex 7.84903 -24.1568 21.05
    endloop
  endfacet
  facet normal 0 0 1
    outer loop
      vertex -8.86852 -8.54054 21.05
      vertex -8.08863 -10.16 21.05
      vertex 7.84903 -24.1568 21.05
    endloop
  endfacet
  facet normal 0 0 1
    outer loop
      vertex 2.65502 -25.2609 21.05
      vertex -10.6209 -12.1794 21.05
      vertex -12.0262 -11.0587 21.05
    endloop
  endfacet
  facet normal 0 0 1
    outer loop
      vertex -6.90459 -7.66833 21.05
      vertex -8.34804 -6.06521 21.05
      vertex -24.8449 5.28096 21.05
    endloop
  endfacet
  facet normal 0 0 1
    outer loop
      vertex 9.69908 8.14056 21.05
      vertex 5.15937 8.9363 21.05
      vertex 6.90459 7.66833 21.05
    endloop
  endfacet
  facet normal 0 0 1
    outer loop
      vertex -9.42665 4.19701 21.05
      vertex -8.34804 6.06521 21.05
      vertex -24.8449 5.28096 21.05
    endloop
  endfacet
  facet normal 0 0 1
    outer loop
      vertex 9.42665 -4.19701 21.05
      vertex 8.34804 -6.06521 21.05
      vertex 23.2041 -10.3311 21.05
    endloop
  endfacet
  facet normal 0 0 1
    outer loop
      vertex -8.34804 6.06521 21.05
      vertex -6.90459 7.66833 21.05
      vertex -24.8449 5.28096 21.05
    endloop
  endfacet
  facet normal 0 0 1
    outer loop
      vertex 10.0933 2.14539 21.05
      vertex 10.3188 0 21.05
      vertex 25.4 0 21.05
    endloop
  endfacet
  facet normal 0 0 1
    outer loop
      vertex -1.0786 10.2622 21.05
      vertex 1.0786 10.2622 21.05
      vertex 20.549 14.9297 21.05
    endloop
  endfacet
  facet normal 0 0 1
    outer loop
      vertex 9.69908 8.14056 21.05
      vertex 8.29376 9.26127 21.05
      vertex 5.15937 8.9363 21.05
    endloop
  endfacet
  facet normal 0 0 1
    outer loop
      vertex -5.15937 8.9363 21.05
      vertex -24.8449 5.28096 21.05
      vertex -6.90459 7.66833 21.05
    endloop
  endfacet
  facet normal 0 0 1
    outer loop
      vertex -3.18867 9.81371 21.05
      vertex -24.8449 5.28096 21.05
      vertex -5.15937 8.9363 21.05
    endloop
  endfacet
  facet normal 0 0 1
    outer loop
      vertex 20.549 14.9297 21.05
      vertex -24.8449 5.28096 21.05
      vertex -3.18867 9.81371 21.05
    endloop
  endfacet
  facet normal 0 0 1
    outer loop
      vertex 20.549 14.9297 21.05
      vertex -3.18867 9.81371 21.05
      vertex -1.0786 10.2622 21.05
    endloop
  endfacet
  facet normal 0 0 1
    outer loop
      vertex 8.29376 11.0587 21.05
      vertex 9.69908 12.1794 21.05
      vertex 3.18867 9.81371 21.05
    endloop
  endfacet
  facet normal 0 0 1
    outer loop
      vertex 23.2041 10.3311 21.05
      vertex 6.90459 7.66833 21.05
      vertex 24.8449 5.28096 21.05
    endloop
  endfacet
  facet normal 0 0 1
    outer loop
      vertex 6.90459 7.66833 21.05
      vertex 8.34804 6.06521 21.05
      vertex 24.8449 5.28096 21.05
    endloop
  endfacet
  facet normal 0 0 1
    outer loop
      vertex 24.8449 5.28096 21.05
      vertex 9.42665 4.19701 21.05
      vertex 25.4 0 21.05
    endloop
  endfacet
  facet normal 0 0 1
    outer loop
      vertex 9.42665 4.19701 21.05
      vertex 10.0933 2.14539 21.05
      vertex 25.4 0 21.05
    endloop
  endfacet
  facet normal 0 0 1
    outer loop
      vertex 25.4 0 21.05
      vertex 10.3188 0 21.05
      vertex 24.8449 -5.28096 21.05
    endloop
  endfacet
  facet normal 0 0 1
    outer loop
      vertex 24.8449 -5.28096 21.05
      vertex 10.0933 -2.14539 21.05
      vertex 23.2041 -10.3311 21.05
    endloop
  endfacet
  facet normal 0 0 1
    outer loop
      vertex -10.0933 2.14539 21.05
      vertex -9.42665 4.19701 21.05
      vertex -24.8449 5.28096 21.05
    endloop
  endfacet
  facet normal 0 0 1
    outer loop
      vertex 10.0933 -2.14539 21.05
      vertex 9.42665 -4.19701 21.05
      vertex 23.2041 -10.3311 21.05
    endloop
  endfacet
  facet normal 0 0 1
    outer loop
      vertex 1.0786 10.2622 21.05
      vertex 3.18867 9.81371 21.05
      vertex 9.69908 12.1794 21.05
    endloop
  endfacet
  facet normal 0 0 1
    outer loop
      vertex 23.2041 -10.3311 21.05
      vertex 8.34804 -6.06521 21.05
      vertex 20.549 -14.9297 21.05
    endloop
  endfacet
  facet normal 0 0 1
    outer loop
      vertex 8.34804 -6.06521 21.05
      vertex 6.90459 -7.66833 21.05
      vertex 20.549 -14.9297 21.05
    endloop
  endfacet
  facet normal 0 0 1
    outer loop
      vertex 20.549 -14.9297 21.05
      vertex 5.15937 -8.9363 21.05
      vertex 16.9959 -18.8759 21.05
    endloop
  endfacet
  facet normal 0 0 1
    outer loop
      vertex 5.15937 -8.9363 21.05
      vertex 3.18867 -9.81371 21.05
      vertex 16.9959 -18.8759 21.05
    endloop
  endfacet
  facet normal 0 0 1
    outer loop
      vertex 16.9959 -18.8759 21.05
      vertex 1.0786 -10.2622 21.05
      vertex 12.7 -21.997 21.05
    endloop
  endfacet
  facet normal 0 0 1
    outer loop
      vertex -10.0933 -2.14539 21.05
      vertex -10.3188 0 21.05
      vertex -24.8449 5.28096 21.05
    endloop
  endfacet
  facet normal 0 0 1
    outer loop
      vertex 1.0786 -10.2622 21.05
      vertex -1.0786 -10.2622 21.05
      vertex 12.7 -21.997 21.05
    endloop
  endfacet
  facet normal 0 0 1
    outer loop
      vertex -1.0786 -10.2622 21.05
      vertex -3.18867 -9.81371 21.05
      vertex 12.7 -21.997 21.05
    endloop
  endfacet
  facet normal 0 0 1
    outer loop
      vertex -3.18867 -9.81371 21.05
      vertex -5.15937 -8.9363 21.05
      vertex 12.7 -21.997 21.05
    endloop
  endfacet
  facet normal 0 0 1
    outer loop
      vertex -6.90459 -7.66833 21.05
      vertex -24.8449 5.28096 21.05
      vertex -5.15937 -8.9363 21.05
    endloop
  endfacet
  facet normal 0 0 1
    outer loop
      vertex -8.34804 -6.06521 21.05
      vertex -9.42665 -4.19701 21.05
      vertex -24.8449 5.28096 21.05
    endloop
  endfacet
  facet normal 0 0 1
    outer loop
      vertex 6.90459 -7.66833 21.05
      vertex 5.15937 -8.9363 21.05
      vertex 20.549 -14.9297 21.05
    endloop
  endfacet
  facet normal 0 0 1
    outer loop
      vertex 3.18867 9.81371 21.05
      vertex 5.15937 8.9363 21.05
      vertex 8.29376 9.26127 21.05
    endloop
  endfacet
  facet normal 0 0 1
    outer loop
      vertex 12.2314 10.16 21.05
      vertex 11.4515 8.54054 21.05
      vertex 23.2041 10.3311 21.05
    endloop
  endfacet
  facet normal 0 0 1
    outer loop
      vertex 9.69908 12.1794 21.05
      vertex 11.4515 11.7795 21.05
      vertex 20.549 14.9297 21.05
    endloop
  endfacet
  facet normal 0 0 1
    outer loop
      vertex 20.549 14.9297 21.05
      vertex 1.0786 10.2622 21.05
      vertex 9.69908 12.1794 21.05
    endloop
  endfacet
  facet normal 0 0 1
    outer loop
      vertex 20.549 14.9297 21.05
      vertex 11.4515 11.7795 21.05
      vertex 23.2041 10.3311 21.05
    endloop
  endfacet
  facet normal 0 0 1
    outer loop
      vertex 11.4515 11.7795 21.05
      vertex 12.2314 10.16 21.05
      vertex 23.2041 10.3311 21.05
    endloop
  endfacet
  facet normal 0 0 1
    outer loop
      vertex 23.2041 10.3311 21.05
      vertex 9.69908 8.14056 21.05
      vertex 6.90459 7.66833 21.05
    endloop
  endfacet
  facet normal 0 0 1
    outer loop
      vertex 23.2041 10.3311 21.05
      vertex 11.4515 8.54054 21.05
      vertex 9.69908 8.14056 21.05
    endloop
  endfacet
  facet normal 0 0 1
    outer loop
      vertex -12.0262 -9.26127 21.05
      vertex -10.6209 -8.14056 21.05
      vertex -24.8449 5.28096 21.05
    endloop
  endfacet
  facet normal 0 0 1
    outer loop
      vertex -10.3188 0 21.05
      vertex -10.0933 2.14539 21.05
      vertex -24.8449 5.28096 21.05
    endloop
  endfacet
  facet normal -0.940761 -0.0988779 -0.324334
    outer loop
      vertex -24.8449 -5.28096 21.05
      vertex -25.4 0 21.05
      vertex -17.7464 -3.77211 0
    endloop
  endfacet
  facet normal -0.940761 -0.0988779 -0.324334
    outer loop
      vertex -17.7464 -3.77211 0
      vertex -25.4 0 21.05
      vertex -18.1429 0 0
    endloop
  endfacet
  facet normal -0.940761 0.0988779 -0.324334
    outer loop
      vertex -18.1429 0 0
      vertex -25.4 0 21.05
      vertex -24.8449 5.28096 21.05
    endloop
  endfacet
  facet normal -0.940761 0.0988779 -0.324334
    outer loop
      vertex -18.1429 0 0
      vertex -24.8449 5.28096 21.05
      vertex -17.7464 3.77211 0
    endloop
  endfacet
  facet normal -0.899645 0.292312 -0.324334
    outer loop
      vertex -17.7464 3.77211 0
      vertex -24.8449 5.28096 21.05
      vertex -23.2041 10.3311 21.05
    endloop
  endfacet
  facet normal -0.899645 0.292312 -0.324334
    outer loop
      vertex -17.7464 3.77211 0
      vertex -23.2041 10.3311 21.05
      vertex -16.5743 7.37937 0
    endloop
  endfacet
  facet normal -0.81921 0.472971 -0.324334
    outer loop
      vertex -16.5743 7.37937 0
      vertex -23.2041 10.3311 21.05
      vertex -20.549 14.9297 21.05
    endloop
  endfacet
  facet normal -0.81921 0.472971 -0.324334
    outer loop
      vertex -16.5743 7.37937 0
      vertex -20.549 14.9297 21.05
      vertex -14.6779 10.6641 0
    endloop
  endfacet
  facet normal -0.702972 0.632959 -0.324334
    outer loop
      vertex -14.6779 10.6641 0
      vertex -20.549 14.9297 21.05
      vertex -16.9959 18.8759 21.05
    endloop
  endfacet
  facet normal -0.702972 0.632959 -0.324334
    outer loop
      vertex -14.6779 10.6641 0
      vertex -16.9959 18.8759 21.05
      vertex -12.1399 13.4828 0
    endloop
  endfacet
  facet normal -0.556011 0.765284 -0.324334
    outer loop
      vertex -12.1399 13.4828 0
      vertex -16.9959 18.8759 21.05
      vertex -12.7 21.997 21.05
    endloop
  endfacet
  facet normal -0.556011 0.765284 -0.324334
    outer loop
      vertex -12.1399 13.4828 0
      vertex -12.7 21.997 21.05
      vertex -9.07143 15.7122 0
    endloop
  endfacet
  facet normal -0.38475 0.864161 -0.324334
    outer loop
      vertex -9.07143 15.7122 0
      vertex -12.7 21.997 21.05
      vertex -7.84903 24.1568 21.05
    endloop
  endfacet
  facet normal -0.38475 0.864162 -0.324334
    outer loop
      vertex -5.60645 17.2549 0
      vertex -9.07143 15.7122 0
      vertex -7.84903 24.1568 21.05
    endloop
  endfacet
  facet normal -0.196672 0.925271 -0.324334
    outer loop
      vertex -5.60645 17.2549 0
      vertex -7.84903 24.1568 21.05
      vertex -2.65502 25.2609 21.05
    endloop
  endfacet
  facet normal -0.196672 0.925271 -0.324334
    outer loop
      vertex -1.89644 18.0435 0
      vertex -5.60645 17.2549 0
      vertex -2.65502 25.2609 21.05
    endloop
  endfacet
  facet normal 0 0.945943 -0.324334
    outer loop
      vertex -2.65502 25.2609 21.05
      vertex 2.65502 25.2609 21.05
      vertex -1.89644 18.0435 0
    endloop
  endfacet
  facet normal 0 0.945943 -0.324334
    outer loop
      vertex -1.89644 18.0435 0
      vertex 2.65502 25.2609 21.05
      vertex 1.89644 18.0435 0
    endloop
  endfacet
  facet normal 0.196672 0.925271 -0.324334
    outer loop
      vertex 7.84903 24.1568 21.05
      vertex 1.89644 18.0435 0
      vertex 2.65502 25.2609 21.05
    endloop
  endfacet
  facet normal 0.196672 0.925271 -0.324334
    outer loop
      vertex 5.60645 17.2549 0
      vertex 1.89644 18.0435 0
      vertex 7.84903 24.1568 21.05
    endloop
  endfacet
  facet normal 0.38475 0.864161 -0.324334
    outer loop
      vertex 12.7 21.997 21.05
      vertex 5.60645 17.2549 0
      vertex 7.84903 24.1568 21.05
    endloop
  endfacet
  facet normal 0.38475 0.864162 -0.324334
    outer loop
      vertex 9.07143 15.7122 0
      vertex 5.60645 17.2549 0
      vertex 12.7 21.997 21.05
    endloop
  endfacet
  facet normal 0.556011 0.765284 -0.324334
    outer loop
      vertex 16.9959 18.8759 21.05
      vertex 9.07143 15.7122 0
      vertex 12.7 21.997 21.05
    endloop
  endfacet
  facet normal 0.556011 0.765284 -0.324334
    outer loop
      vertex 12.1399 13.4828 0
      vertex 9.07143 15.7122 0
      vertex 16.9959 18.8759 21.05
    endloop
  endfacet
  facet normal 0.702972 0.632959 -0.324334
    outer loop
      vertex 20.549 14.9297 21.05
      vertex 12.1399 13.4828 0
      vertex 16.9959 18.8759 21.05
    endloop
  endfacet
  facet normal 0.702972 0.632959 -0.324334
    outer loop
      vertex 14.6779 10.6641 0
      vertex 12.1399 13.4828 0
      vertex 20.549 14.9297 21.05
    endloop
  endfacet
  facet normal 0.81921 0.472971 -0.324334
    outer loop
      vertex 23.2041 10.3311 21.05
      vertex 14.6779 10.6641 0
      vertex 20.549 14.9297 21.05
    endloop
  endfacet
  facet normal 0.81921 0.472971 -0.324334
    outer loop
      vertex 16.5743 7.37937 0
      vertex 14.6779 10.6641 0
      vertex 23.2041 10.3311 21.05
    endloop
  endfacet
  facet normal 0.899645 0.292312 -0.324334
    outer loop
      vertex 24.8449 5.28096 21.05
      vertex 16.5743 7.37937 0
      vertex 23.2041 10.3311 21.05
    endloop
  endfacet
  facet normal 0.899645 0.292312 -0.324334
    outer loop
      vertex 17.7464 3.77211 0
      vertex 16.5743 7.37937 0
      vertex 24.8449 5.28096 21.05
    endloop
  endfacet
  facet normal 0.940761 0.0988779 -0.324334
    outer loop
      vertex 25.4 0 21.05
      vertex 17.7464 3.77211 0
      vertex 24.8449 5.28096 21.05
    endloop
  endfacet
  facet normal 0.940761 0.0988779 -0.324334
    outer loop
      vertex 18.1429 0 0
      vertex 17.7464 3.77211 0
      vertex 25.4 0 21.05
    endloop
  endfacet
  facet normal 0.940761 -0.0988779 -0.324334
    outer loop
      vertex 24.8449 -5.28096 21.05
      vertex 18.1429 0 0
      vertex 25.4 0 21.05
    endloop
  endfacet
  facet normal 0.940761 -0.0988779 -0.324334
    outer loop
      vertex 24.8449 -5.28096 21.05
      vertex 17.7464 -3.77211 0
      vertex 18.1429 0 0
    endloop
  endfacet
  facet normal 0.899645 -0.292312 -0.324334
    outer loop
      vertex 23.2041 -10.3311 21.05
      vertex 17.7464 -3.77211 0
      vertex 24.8449 -5.28096 21.05
    endloop
  endfacet
  facet normal 0.899645 -0.292312 -0.324334
    outer loop
      vertex 23.2041 -10.3311 21.05
      vertex 16.5743 -7.37937 0
      vertex 17.7464 -3.77211 0
    endloop
  endfacet
  facet normal 0.81921 -0.472971 -0.324334
    outer loop
      vertex 20.549 -14.9297 21.05
      vertex 16.5743 -7.37937 0
      vertex 23.2041 -10.3311 21.05
    endloop
  endfacet
  facet normal 0.81921 -0.472971 -0.324334
    outer loop
      vertex 20.549 -14.9297 21.05
      vertex 14.6779 -10.6641 0
      vertex 16.5743 -7.37937 0
    endloop
  endfacet
  facet normal 0.702972 -0.632959 -0.324334
    outer loop
      vertex 16.9959 -18.8759 21.05
      vertex 14.6779 -10.6641 0
      vertex 20.549 -14.9297 21.05
    endloop
  endfacet
  facet normal 0.702972 -0.632959 -0.324334
    outer loop
      vertex 16.9959 -18.8759 21.05
      vertex 12.1399 -13.4828 0
      vertex 14.6779 -10.6641 0
    endloop
  endfacet
  facet normal 0.556011 -0.765284 -0.324334
    outer loop
      vertex 12.7 -21.997 21.05
      vertex 12.1399 -13.4828 0
      vertex 16.9959 -18.8759 21.05
    endloop
  endfacet
  facet normal 0.556011 -0.765284 -0.324334
    outer loop
      vertex 12.7 -21.997 21.05
      vertex 9.07143 -15.7122 0
      vertex 12.1399 -13.4828 0
    endloop
  endfacet
  facet normal 0.38475 -0.864161 -0.324334
    outer loop
      vertex 12.7 -21.997 21.05
      vertex 7.84903 -24.1568 21.05
      vertex 9.07143 -15.7122 0
    endloop
  endfacet
  facet normal 0.38475 -0.864162 -0.324334
    outer loop
      vertex 7.84903 -24.1568 21.05
      vertex 5.60645 -17.2549 0
      vertex 9.07143 -15.7122 0
    endloop
  endfacet
  facet normal 0.196672 -0.925271 -0.324334
    outer loop
      vertex 7.84903 -24.1568 21.05
      vertex 2.65502 -25.2609 21.05
      vertex 5.60645 -17.2549 0
    endloop
  endfacet
  facet normal 0.196672 -0.925271 -0.324334
    outer loop
      vertex 2.65502 -25.2609 21.05
      vertex 1.89644 -18.0435 0
      vertex 5.60645 -17.2549 0
    endloop
  endfacet
  facet normal 0 -0.945943 -0.324334
    outer loop
      vertex 2.65502 -25.2609 21.05
      vertex -2.65502 -25.2609 21.05
      vertex -1.89644 -18.0435 0
    endloop
  endfacet
  facet normal 0 -0.945943 -0.324334
    outer loop
      vertex 1.89644 -18.0435 0
      vertex 2.65502 -25.2609 21.05
      vertex -1.89644 -18.0435 0
    endloop
  endfacet
  facet normal -0.196672 -0.925271 -0.324334
    outer loop
      vertex -2.65502 -25.2609 21.05
      vertex -7.84903 -24.1568 21.05
      vertex -1.89644 -18.0435 0
    endloop
  endfacet
  facet normal -0.196672 -0.925271 -0.324334
    outer loop
      vertex -1.89644 -18.0435 0
      vertex -7.84903 -24.1568 21.05
      vertex -5.60645 -17.2549 0
    endloop
  endfacet
  facet normal -0.38475 -0.864161 -0.324334
    outer loop
      vertex -7.84903 -24.1568 21.05
      vertex -12.7 -21.997 21.05
      vertex -5.60645 -17.2549 0
    endloop
  endfacet
  facet normal -0.38475 -0.864162 -0.324334
    outer loop
      vertex -5.60645 -17.2549 0
      vertex -12.7 -21.997 21.05
      vertex -9.07143 -15.7122 0
    endloop
  endfacet
  facet normal -0.556011 -0.765284 -0.324334
    outer loop
      vertex -12.7 -21.997 21.05
      vertex -16.9959 -18.8759 21.05
      vertex -9.07143 -15.7122 0
    endloop
  endfacet
  facet normal -0.556011 -0.765284 -0.324334
    outer loop
      vertex -9.07143 -15.7122 0
      vertex -16.9959 -18.8759 21.05
      vertex -12.1399 -13.4828 0
    endloop
  endfacet
  facet normal -0.702972 -0.632959 -0.324334
    outer loop
      vertex -16.9959 -18.8759 21.05
      vertex -20.549 -14.9297 21.05
      vertex -12.1399 -13.4828 0
    endloop
  endfacet
  facet normal -0.702972 -0.632959 -0.324334
    outer loop
      vertex -12.1399 -13.4828 0
      vertex -20.549 -14.9297 21.05
      vertex -14.6779 -10.6641 0
    endloop
  endfacet
  facet normal -0.81921 -0.472971 -0.324334
    outer loop
      vertex -20.549 -14.9297 21.05
      vertex -23.2041 -10.3311 21.05
      vertex -14.6779 -10.6641 0
    endloop
  endfacet
  facet normal -0.81921 -0.472971 -0.324334
    outer loop
      vertex -14.6779 -10.6641 0
      vertex -23.2041 -10.3311 21.05
      vertex -16.5743 -7.37937 0
    endloop
  endfacet
  facet normal -0.899645 -0.292312 -0.324334
    outer loop
      vertex -23.2041 -10.3311 21.05
      vertex -24.8449 -5.28096 21.05
      vertex -16.5743 -7.37937 0
    endloop
  endfacet
  facet normal -0.899645 -0.292312 -0.324334
    outer loop
      vertex -16.5743 -7.37937 0
      vertex -24.8449 -5.28096 21.05
      vertex -17.7464 -3.77211 0
    endloop
  endfacet
  facet normal 1 0 0
    outer loop
      vertex -12.0262 -9.26127 0
      vertex -12.0262 -9.26127 21.05
      vertex -12.0262 -11.0587 21.05
    endloop
  endfacet
  facet normal 1 0 0
    outer loop
      vertex -12.0262 -11.0587 0
      vertex -12.0262 -9.26127 0
      vertex -12.0262 -11.0587 21.05
    endloop
  endfacet
  facet normal 0.623489 0.781832 0
    outer loop
      vertex -10.6209 -12.1794 21.05
      vertex -10.6209 -12.1794 0
      vertex -12.0262 -11.0587 21.05
    endloop
  endfacet
  facet normal 0.623489 0.781832 0
    outer loop
      vertex -12.0262 -11.0587 21.05
      vertex -10.6209 -12.1794 0
      vertex -12.0262 -11.0587 0
    endloop
  endfacet
  facet normal -0.222521 0.974928 0
    outer loop
      vertex -8.86852 -11.7795 21.05
      vertex -8.86852 -11.7795 0
      vertex -10.6209 -12.1794 21.05
    endloop
  endfacet
  facet normal -0.222521 0.974928 0
    outer loop
      vertex -10.6209 -12.1794 21.05
      vertex -8.86852 -11.7795 0
      vertex -10.6209 -12.1794 0
    endloop
  endfacet
  facet normal -0.900969 0.433884 0
    outer loop
      vertex -8.08863 -10.16 21.05
      vertex -8.08863 -10.16 0
      vertex -8.86852 -11.7795 21.05
    endloop
  endfacet
  facet normal -0.900969 0.433884 0
    outer loop
      vertex -8.86852 -11.7795 21.05
      vertex -8.08863 -10.16 0
      vertex -8.86852 -11.7795 0
    endloop
  endfacet
  facet normal -0.900969 -0.433884 0
    outer loop
      vertex -8.08863 -10.16 21.05
      vertex -8.86852 -8.54054 21.05
      vertex -8.08863 -10.16 0
    endloop
  endfacet
  facet normal -0.900969 -0.433884 0
    outer loop
      vertex -8.08863 -10.16 0
      vertex -8.86852 -8.54054 21.05
      vertex -8.86852 -8.54054 0
    endloop
  endfacet
  facet normal -0.222521 -0.974928 0
    outer loop
      vertex -8.86852 -8.54054 0
      vertex -8.86852 -8.54054 21.05
      vertex -10.6209 -8.14056 21.05
    endloop
  endfacet
  facet normal -0.222521 -0.974928 0
    outer loop
      vertex -10.6209 -8.14056 0
      vertex -8.86852 -8.54054 0
      vertex -10.6209 -8.14056 21.05
    endloop
  endfacet
  facet normal 0.623489 -0.781832 0
    outer loop
      vertex -10.6209 -8.14056 0
      vertex -10.6209 -8.14056 21.05
      vertex -12.0262 -9.26127 21.05
    endloop
  endfacet
  facet normal 0.623489 -0.781832 0
    outer loop
      vertex -12.0262 -9.26127 0
      vertex -10.6209 -8.14056 0
      vertex -12.0262 -9.26127 21.05
    endloop
  endfacet
  facet normal 0.994522 0.104528 0
    outer loop
      vertex -10.3188 0 21.05
      vertex -10.0933 -2.14539 21.05
      vertex -10.0933 -2.14539 12.065
    endloop
  endfacet
  facet normal 0.994522 0.104528 0
    outer loop
      vertex -10.3188 0 12.065
      vertex -10.3188 0 21.05
      vertex -10.0933 -2.14539 12.065
    endloop
  endfacet
  facet normal 0.951056 0.309017 0
    outer loop
      vertex -10.0933 -2.14539 21.05
      vertex -9.42665 -4.19701 21.05
      vertex -9.42665 -4.19701 12.065
    endloop
  endfacet
  facet normal 0.951056 0.309017 0
    outer loop
      vertex -10.0933 -2.14539 12.065
      vertex -10.0933 -2.14539 21.05
      vertex -9.42665 -4.19701 12.065
    endloop
  endfacet
  facet normal 0.866025 0.5 0
    outer loop
      vertex -9.42665 -4.19701 21.05
      vertex -8.34804 -6.06521 21.05
      vertex -8.34804 -6.06521 12.065
    endloop
  endfacet
  facet normal 0.866025 0.5 0
    outer loop
      vertex -9.42665 -4.19701 12.065
      vertex -9.42665 -4.19701 21.05
      vertex -8.34804 -6.06521 12.065
    endloop
  endfacet
  facet normal 0.743145 0.669131 0
    outer loop
      vertex -8.34804 -6.06521 21.05
      vertex -6.90459 -7.66833 21.05
      vertex -6.90459 -7.66833 12.065
    endloop
  endfacet
  facet normal 0.743145 0.669131 0
    outer loop
      vertex -8.34804 -6.06521 12.065
      vertex -8.34804 -6.06521 21.05
      vertex -6.90459 -7.66833 12.065
    endloop
  endfacet
  facet normal 0.587785 0.809017 0
    outer loop
      vertex -5.15937 -8.9363 21.05
      vertex -5.15937 -8.9363 12.065
      vertex -6.90459 -7.66833 21.05
    endloop
  endfacet
  facet normal 0.587785 0.809017 0
    outer loop
      vertex -6.90459 -7.66833 21.05
      vertex -5.15937 -8.9363 12.065
      vertex -6.90459 -7.66833 12.065
    endloop
  endfacet
  facet normal 0.406736 0.913546 0
    outer loop
      vertex -3.18867 -9.81371 21.05
      vertex -3.18867 -9.81371 12.065
      vertex -5.15937 -8.9363 21.05
    endloop
  endfacet
  facet normal 0.406736 0.913546 0
    outer loop
      vertex -5.15937 -8.9363 21.05
      vertex -3.18867 -9.81371 12.065
      vertex -5.15937 -8.9363 12.065
    endloop
  endfacet
  facet normal 0.207912 0.978148 0
    outer loop
      vertex -1.0786 -10.2622 21.05
      vertex -1.0786 -10.2622 12.065
      vertex -3.18867 -9.81371 21.05
    endloop
  endfacet
  facet normal 0.207912 0.978148 0
    outer loop
      vertex -3.18867 -9.81371 21.05
      vertex -1.0786 -10.2622 12.065
      vertex -3.18867 -9.81371 12.065
    endloop
  endfacet
  facet normal 0 1 0
    outer loop
      vertex 1.0786 -10.2622 21.05
      vertex 1.0786 -10.2622 12.065
      vertex -1.0786 -10.2622 21.05
    endloop
  endfacet
  facet normal 0 1 0
    outer loop
      vertex -1.0786 -10.2622 21.05
      vertex 1.0786 -10.2622 12.065
      vertex -1.0786 -10.2622 12.065
    endloop
  endfacet
  facet normal -0.207912 0.978148 0
    outer loop
      vertex 3.18867 -9.81371 21.05
      vertex 3.18867 -9.81371 12.065
      vertex 1.0786 -10.2622 21.05
    endloop
  endfacet
  facet normal -0.207912 0.978148 0
    outer loop
      vertex 1.0786 -10.2622 21.05
      vertex 3.18867 -9.81371 12.065
      vertex 1.0786 -10.2622 12.065
    endloop
  endfacet
  facet normal -0.406736 0.913546 0
    outer loop
      vertex 5.15937 -8.9363 21.05
      vertex 5.15937 -8.9363 12.065
      vertex 3.18867 -9.81371 21.05
    endloop
  endfacet
  facet normal -0.406736 0.913546 0
    outer loop
      vertex 3.18867 -9.81371 21.05
      vertex 5.15937 -8.9363 12.065
      vertex 3.18867 -9.81371 12.065
    endloop
  endfacet
  facet normal -0.587785 0.809017 0
    outer loop
      vertex 6.90459 -7.66833 21.05
      vertex 6.90459 -7.66833 12.065
      vertex 5.15937 -8.9363 21.05
    endloop
  endfacet
  facet normal -0.587785 0.809017 0
    outer loop
      vertex 5.15937 -8.9363 21.05
      vertex 6.90459 -7.66833 12.065
      vertex 5.15937 -8.9363 12.065
    endloop
  endfacet
  facet normal -0.743145 0.669131 0
    outer loop
      vertex 8.34804 -6.06521 21.05
      vertex 8.34804 -6.06521 12.065
      vertex 6.90459 -7.66833 21.05
    endloop
  endfacet
  facet normal -0.743145 0.669131 0
    outer loop
      vertex 6.90459 -7.66833 21.05
      vertex 8.34804 -6.06521 12.065
      vertex 6.90459 -7.66833 12.065
    endloop
  endfacet
  facet normal -0.866025 0.5 0
    outer loop
      vertex 9.42665 -4.19701 21.05
      vertex 9.42665 -4.19701 12.065
      vertex 8.34804 -6.06521 21.05
    endloop
  endfacet
  facet normal -0.866025 0.5 0
    outer loop
      vertex 8.34804 -6.06521 21.05
      vertex 9.42665 -4.19701 12.065
      vertex 8.34804 -6.06521 12.065
    endloop
  endfacet
  facet normal -0.951056 0.309017 0
    outer loop
      vertex 10.0933 -2.14539 21.05
      vertex 10.0933 -2.14539 12.065
      vertex 9.42665 -4.19701 21.05
    endloop
  endfacet
  facet normal -0.951056 0.309017 0
    outer loop
      vertex 9.42665 -4.19701 21.05
      vertex 10.0933 -2.14539 12.065
      vertex 9.42665 -4.19701 12.065
    endloop
  endfacet
  facet normal -0.994522 0.104528 0
    outer loop
      vertex 10.3188 0 21.05
      vertex 10.3188 0 12.065
      vertex 10.0933 -2.14539 21.05
    endloop
  endfacet
  facet normal -0.994522 0.104528 0
    outer loop
      vertex 10.0933 -2.14539 21.05
      vertex 10.3188 0 12.065
      vertex 10.0933 -2.14539 12.065
    endloop
  endfacet
  facet normal -0.994522 -0.104528 0
    outer loop
      vertex 10.3188 0 21.05
      vertex 10.0933 2.14539 21.05
      vertex 10.3188 0 12.065
    endloop
  endfacet
  facet normal -0.994522 -0.104528 0
    outer loop
      vertex 10.3188 0 12.065
      vertex 10.0933 2.14539 21.05
      vertex 10.0933 2.14539 12.065
    endloop
  endfacet
  facet normal -0.951056 -0.309017 0
    outer loop
      vertex 10.0933 2.14539 21.05
      vertex 9.42665 4.19701 21.05
      vertex 10.0933 2.14539 12.065
    endloop
  endfacet
  facet normal -0.951056 -0.309017 0
    outer loop
      vertex 10.0933 2.14539 12.065
      vertex 9.42665 4.19701 21.05
      vertex 9.42665 4.19701 12.065
    endloop
  endfacet
  facet normal -0.866025 -0.5 0
    outer loop
      vertex 9.42665 4.19701 21.05
      vertex 8.34804 6.06521 21.05
      vertex 9.42665 4.19701 12.065
    endloop
  endfacet
  facet normal -0.866025 -0.5 0
    outer loop
      vertex 9.42665 4.19701 12.065
      vertex 8.34804 6.06521 21.05
      vertex 8.34804 6.06521 12.065
    endloop
  endfacet
  facet normal -0.743145 -0.669131 0
    outer loop
      vertex 8.34804 6.06521 21.05
      vertex 6.90459 7.66833 21.05
      vertex 8.34804 6.06521 12.065
    endloop
  endfacet
  facet normal -0.743145 -0.669131 0
    outer loop
      vertex 8.34804 6.06521 12.065
      vertex 6.90459 7.66833 21.05
      vertex 6.90459 7.66833 12.065
    endloop
  endfacet
  facet normal -0.587785 -0.809017 0
    outer loop
      vertex 6.90459 7.66833 12.065
      vertex 6.90459 7.66833 21.05
      vertex 5.15937 8.9363 21.05
    endloop
  endfacet
  facet normal -0.587785 -0.809017 0
    outer loop
      vertex 5.15937 8.9363 12.065
      vertex 6.90459 7.66833 12.065
      vertex 5.15937 8.9363 21.05
    endloop
  endfacet
  facet normal -0.406736 -0.913546 0
    outer loop
      vertex 5.15937 8.9363 12.065
      vertex 5.15937 8.9363 21.05
      vertex 3.18867 9.81371 21.05
    endloop
  endfacet
  facet normal -0.406736 -0.913546 0
    outer loop
      vertex 3.18867 9.81371 12.065
      vertex 5.15937 8.9363 12.065
      vertex 3.18867 9.81371 21.05
    endloop
  endfacet
  facet normal -0.207912 -0.978148 0
    outer loop
      vertex 3.18867 9.81371 12.065
      vertex 3.18867 9.81371 21.05
      vertex 1.0786 10.2622 21.05
    endloop
  endfacet
  facet normal -0.207912 -0.978148 0
    outer loop
      vertex 1.0786 10.2622 12.065
      vertex 3.18867 9.81371 12.065
      vertex 1.0786 10.2622 21.05
    endloop
  endfacet
  facet normal 0 -1 0
    outer loop
      vertex 1.0786 10.2622 12.065
      vertex 1.0786 10.2622 21.05
      vertex -1.0786 10.2622 21.05
    endloop
  endfacet
  facet normal 0 -1 0
    outer loop
      vertex -1.0786 10.2622 12.065
      vertex 1.0786 10.2622 12.065
      vertex -1.0786 10.2622 21.05
    endloop
  endfacet
  facet normal 0.207912 -0.978148 0
    outer loop
      vertex -1.0786 10.2622 12.065
      vertex -1.0786 10.2622 21.05
      vertex -3.18867 9.81371 21.05
    endloop
  endfacet
  facet normal 0.207912 -0.978148 0
    outer loop
      vertex -3.18867 9.81371 12.065
      vertex -1.0786 10.2622 12.065
      vertex -3.18867 9.81371 21.05
    endloop
  endfacet
  facet normal 0.406736 -0.913546 0
    outer loop
      vertex -3.18867 9.81371 12.065
      vertex -3.18867 9.81371 21.05
      vertex -5.15937 8.9363 21.05
    endloop
  endfacet
  facet normal 0.406736 -0.913546 0
    outer loop
      vertex -5.15937 8.9363 12.065
      vertex -3.18867 9.81371 12.065
      vertex -5.15937 8.9363 21.05
    endloop
  endfacet
  facet normal 0.587785 -0.809017 0
    outer loop
      vertex -5.15937 8.9363 12.065
      vertex -5.15937 8.9363 21.05
      vertex -6.90459 7.66833 21.05
    endloop
  endfacet
  facet normal 0.587785 -0.809017 0
    outer loop
      vertex -6.90459 7.66833 12.065
      vertex -5.15937 8.9363 12.065
      vertex -6.90459 7.66833 21.05
    endloop
  endfacet
  facet normal 0.743145 -0.669131 0
    outer loop
      vertex -6.90459 7.66833 12.065
      vertex -6.90459 7.66833 21.05
      vertex -8.34804 6.06521 21.05
    endloop
  endfacet
  facet normal 0.743145 -0.669131 0
    outer loop
      vertex -8.34804 6.06521 12.065
      vertex -6.90459 7.66833 12.065
      vertex -8.34804 6.06521 21.05
    endloop
  endfacet
  facet normal 0.866025 -0.5 0
    outer loop
      vertex -8.34804 6.06521 12.065
      vertex -8.34804 6.06521 21.05
      vertex -9.42665 4.19701 21.05
    endloop
  endfacet
  facet normal 0.866025 -0.5 0
    outer loop
      vertex -9.42665 4.19701 12.065
      vertex -8.34804 6.06521 12.065
      vertex -9.42665 4.19701 21.05
    endloop
  endfacet
  facet normal 0.951056 -0.309017 0
    outer loop
      vertex -9.42665 4.19701 12.065
      vertex -9.42665 4.19701 21.05
      vertex -10.0933 2.14539 21.05
    endloop
  endfacet
  facet normal 0.951056 -0.309017 0
    outer loop
      vertex -10.0933 2.14539 12.065
      vertex -9.42665 4.19701 12.065
      vertex -10.0933 2.14539 21.05
    endloop
  endfacet
  facet normal 0.994522 -0.104528 0
    outer loop
      vertex -10.0933 2.14539 12.065
      vertex -10.0933 2.14539 21.05
      vertex -10.3188 0 21.05
    endloop
  endfacet
  facet normal 0.994522 -0.104528 0
    outer loop
      vertex -10.3188 0 12.065
      vertex -10.0933 2.14539 12.065
      vertex -10.3188 0 21.05
    endloop
  endfacet
  facet normal 1 0 0
    outer loop
      vertex 8.29376 11.0587 0
      vertex 8.29376 11.0587 21.05
      vertex 8.29376 9.26127 21.05
    endloop
  endfacet
  facet normal 1 0 0
    outer loop
      vertex 8.29376 9.26127 0
      vertex 8.29376 11.0587 0
      vertex 8.29376 9.26127 21.05
    endloop
  endfacet
  facet normal 0.623489 0.781832 0
    outer loop
      vertex 9.69908 8.14056 21.05
      vertex 9.69908 8.14056 0
      vertex 8.29376 9.26127 21.05
    endloop
  endfacet
  facet normal 0.623489 0.781832 0
    outer loop
      vertex 8.29376 9.26127 21.05
      vertex 9.69908 8.14056 0
      vertex 8.29376 9.26127 0
    endloop
  endfacet
  facet normal -0.222521 0.974928 0
    outer loop
      vertex 11.4515 8.54054 21.05
      vertex 11.4515 8.54054 0
      vertex 9.69908 8.14056 21.05
    endloop
  endfacet
  facet normal -0.222521 0.974928 0
    outer loop
      vertex 9.69908 8.14056 21.05
      vertex 11.4515 8.54054 0
      vertex 9.69908 8.14056 0
    endloop
  endfacet
  facet normal -0.900969 0.433884 0
    outer loop
      vertex 12.2314 10.16 21.05
      vertex 12.2314 10.16 0
      vertex 11.4515 8.54054 21.05
    endloop
  endfacet
  facet normal -0.900969 0.433884 0
    outer loop
      vertex 11.4515 8.54054 21.05
      vertex 12.2314 10.16 0
      vertex 11.4515 8.54054 0
    endloop
  endfacet
  facet normal -0.900969 -0.433884 0
    outer loop
      vertex 12.2314 10.16 21.05
      vertex 11.4515 11.7795 21.05
      vertex 12.2314 10.16 0
    endloop
  endfacet
  facet normal -0.900969 -0.433884 0
    outer loop
      vertex 12.2314 10.16 0
      vertex 11.4515 11.7795 21.05
      vertex 11.4515 11.7795 0
    endloop
  endfacet
  facet normal -0.222521 -0.974928 0
    outer loop
      vertex 11.4515 11.7795 0
      vertex 11.4515 11.7795 21.05
      vertex 9.69908 12.1794 21.05
    endloop
  endfacet
  facet normal -0.222521 -0.974928 0
    outer loop
      vertex 9.69908 12.1794 0
      vertex 11.4515 11.7795 0
      vertex 9.69908 12.1794 21.05
    endloop
  endfacet
  facet normal 0.623489 -0.781832 0
    outer loop
      vertex 9.69908 12.1794 0
      vertex 9.69908 12.1794 21.05
      vertex 8.29376 11.0587 21.05
    endloop
  endfacet
  facet normal 0.623489 -0.781832 0
    outer loop
      vertex 8.29376 11.0587 0
      vertex 9.69908 12.1794 0
      vertex 8.29376 11.0587 21.05
    endloop
  endfacet
  facet normal 0 0 -1
    outer loop
      vertex -18.1429 0 0
      vertex -17.7464 3.77211 0
      vertex -17.7464 -3.77211 0
    endloop
  endfacet
  facet normal 0 0 -1
    outer loop
      vertex -17.7464 -3.77211 0
      vertex -17.7464 3.77211 0
      vertex -16.5743 7.37937 0
    endloop
  endfacet
  facet normal 0 0 -1
    outer loop
      vertex -17.7464 -3.77211 0
      vertex -16.5743 7.37937 0
      vertex -14.6779 10.6641 0
    endloop
  endfacet
  facet normal 0 0 -1
    outer loop
      vertex -17.7464 -3.77211 0
      vertex -14.6779 10.6641 0
      vertex -12.1399 13.4828 0
    endloop
  endfacet
  facet normal 0 0 -1
    outer loop
      vertex -17.7464 -3.77211 0
      vertex -12.1399 13.4828 0
      vertex -9.07143 15.7122 0
    endloop
  endfacet
  facet normal 0 0 -1
    outer loop
      vertex -17.7464 -3.77211 0
      vertex -9.07143 15.7122 0
      vertex -5.60645 17.2549 0
    endloop
  endfacet
  facet normal 0 0 -1
    outer loop
      vertex -17.7464 -3.77211 0
      vertex -5.60645 17.2549 0
      vertex -1.89644 18.0435 0
    endloop
  endfacet
  facet normal 0 0 -1
    outer loop
      vertex -17.7464 -3.77211 0
      vertex -1.89644 18.0435 0
      vertex 1.89644 18.0435 0
    endloop
  endfacet
  facet normal 0 0 -1
    outer loop
      vertex -17.7464 -3.77211 0
      vertex 1.89644 18.0435 0
      vertex 5.60645 17.2549 0
    endloop
  endfacet
  facet normal 0 0 -1
    outer loop
      vertex -2.92726 7.71856 0
      vertex 5.60645 17.2549 0
      vertex 9.07143 15.7122 0
    endloop
  endfacet
  facet normal 0 0 -1
    outer loop
      vertex 0.99503 8.19481 0
      vertex 9.07143 15.7122 0
      vertex 12.1399 13.4828 0
    endloop
  endfacet
  facet normal 0 0 -1
    outer loop
      vertex 12.2314 10.16 0
      vertex 12.1399 13.4828 0
      vertex 14.6779 10.6641 0
    endloop
  endfacet
  facet normal 0 0 -1
    outer loop
      vertex 11.4515 8.54054 0
      vertex 14.6779 10.6641 0
      vertex 16.5743 7.37937 0
    endloop
  endfacet
  facet normal 0 0 -1
    outer loop
      vertex 8.01512 1.97555 0
      vertex 16.5743 7.37937 0
      vertex 17.7464 3.77211 0
    endloop
  endfacet
  facet normal 0 0 -1
    outer loop
      vertex 8.255 0 0
      vertex 17.7464 3.77211 0
      vertex 18.1429 0 0
    endloop
  endfacet
  facet normal 0 0 -1
    outer loop
      vertex 8.01512 -1.97555 0
      vertex 18.1429 0 0
      vertex 17.7464 -3.77211 0
    endloop
  endfacet
  facet normal 0 0 -1
    outer loop
      vertex 6.17896 -5.47408 0
      vertex 17.7464 -3.77211 0
      vertex 16.5743 -7.37937 0
    endloop
  endfacet
  facet normal 0 0 -1
    outer loop
      vertex 2.92726 -7.71856 0
      vertex 16.5743 -7.37937 0
      vertex 14.6779 -10.6641 0
    endloop
  endfacet
  facet normal 0 0 -1
    outer loop
      vertex -0.99503 -8.19481 0
      vertex 14.6779 -10.6641 0
      vertex 12.1399 -13.4828 0
    endloop
  endfacet
  facet normal 0 0 -1
    outer loop
      vertex -17.7464 -3.77211 0
      vertex 12.1399 -13.4828 0
      vertex 9.07143 -15.7122 0
    endloop
  endfacet
  facet normal 0 0 -1
    outer loop
      vertex -8.86852 -8.54054 0
      vertex 9.07143 -15.7122 0
      vertex 5.60645 -17.2549 0
    endloop
  endfacet
  facet normal 0 0 -1
    outer loop
      vertex -8.08863 -10.16 0
      vertex 5.60645 -17.2549 0
      vertex 1.89644 -18.0435 0
    endloop
  endfacet
  facet normal 0 0 -1
    outer loop
      vertex -12.0262 -11.0587 0
      vertex -5.60645 -17.2549 0
      vertex -9.07143 -15.7122 0
    endloop
  endfacet
  facet normal 0 0 -1
    outer loop
      vertex -17.7464 -3.77211 0
      vertex -9.07143 -15.7122 0
      vertex -12.1399 -13.4828 0
    endloop
  endfacet
  facet normal 0 0 -1
    outer loop
      vertex -17.7464 -3.77211 0
      vertex -12.1399 -13.4828 0
      vertex -14.6779 -10.6641 0
    endloop
  endfacet
  facet normal 0 0 -1
    outer loop
      vertex -17.7464 -3.77211 0
      vertex -14.6779 -10.6641 0
      vertex -16.5743 -7.37937 0
    endloop
  endfacet
  facet normal 0 0 -1
    outer loop
      vertex -8.08863 -10.16 0
      vertex -1.89644 -18.0435 0
      vertex -8.86852 -11.7795 0
    endloop
  endfacet
  facet normal 0 0 -1
    outer loop
      vertex -10.6209 -12.1794 0
      vertex -5.60645 -17.2549 0
      vertex -12.0262 -11.0587 0
    endloop
  endfacet
  facet normal 0 0 -1
    outer loop
      vertex -17.7464 -3.77211 0
      vertex -12.0262 -11.0587 0
      vertex -9.07143 -15.7122 0
    endloop
  endfacet
  facet normal 0 0 -1
    outer loop
      vertex -8.86852 -11.7795 0
      vertex -5.60645 -17.2549 0
      vertex -10.6209 -12.1794 0
    endloop
  endfacet
  facet normal 0 0 -1
    outer loop
      vertex -8.86852 -11.7795 0
      vertex -1.89644 -18.0435 0
      vertex -5.60645 -17.2549 0
    endloop
  endfacet
  facet normal 0 0 -1
    outer loop
      vertex -12.0262 -11.0587 0
      vertex -17.7464 -3.77211 0
      vertex -12.0262 -9.26127 0
    endloop
  endfacet
  facet normal 0 0 -1
    outer loop
      vertex -17.7464 -3.77211 0
      vertex 9.07143 -15.7122 0
      vertex -8.86852 -8.54054 0
    endloop
  endfacet
  facet normal 0 0 -1
    outer loop
      vertex -8.255 0 0
      vertex -17.7464 -3.77211 0
      vertex -8.01512 1.97555 0
    endloop
  endfacet
  facet normal 0 0 -1
    outer loop
      vertex -8.01512 -1.97555 0
      vertex -17.7464 -3.77211 0
      vertex -8.255 0 0
    endloop
  endfacet
  facet normal 0 0 -1
    outer loop
      vertex -7.30944 -3.83629 0
      vertex -17.7464 -3.77211 0
      vertex -8.01512 -1.97555 0
    endloop
  endfacet
  facet normal 0 0 -1
    outer loop
      vertex -6.17896 -5.47408 0
      vertex -17.7464 -3.77211 0
      vertex -7.30944 -3.83629 0
    endloop
  endfacet
  facet normal 0 0 -1
    outer loop
      vertex -4.68937 -6.79373 0
      vertex -17.7464 -3.77211 0
      vertex -6.17896 -5.47408 0
    endloop
  endfacet
  facet normal 0 0 -1
    outer loop
      vertex -0.99503 -8.19481 0
      vertex 12.1399 -13.4828 0
      vertex -2.92726 -7.71856 0
    endloop
  endfacet
  facet normal 0 0 -1
    outer loop
      vertex -17.7464 -3.77211 0
      vertex -4.68937 -6.79373 0
      vertex -2.92726 -7.71856 0
    endloop
  endfacet
  facet normal 0 0 -1
    outer loop
      vertex -17.7464 -3.77211 0
      vertex -2.92726 -7.71856 0
      vertex 12.1399 -13.4828 0
    endloop
  endfacet
  facet normal 0 0 -1
    outer loop
      vertex 0.99503 -8.19481 0
      vertex 14.6779 -10.6641 0
      vertex -0.99503 -8.19481 0
    endloop
  endfacet
  facet normal 0 0 -1
    outer loop
      vertex 2.92726 -7.71856 0
      vertex 14.6779 -10.6641 0
      vertex 0.99503 -8.19481 0
    endloop
  endfacet
  facet normal 0 0 -1
    outer loop
      vertex 4.68937 -6.79373 0
      vertex 16.5743 -7.37937 0
      vertex 2.92726 -7.71856 0
    endloop
  endfacet
  facet normal 0 0 -1
    outer loop
      vertex 6.17896 -5.47408 0
      vertex 16.5743 -7.37937 0
      vertex 4.68937 -6.79373 0
    endloop
  endfacet
  facet normal 0 0 -1
    outer loop
      vertex 7.30944 -3.83629 0
      vertex 17.7464 -3.77211 0
      vertex 6.17896 -5.47408 0
    endloop
  endfacet
  facet normal 0 0 -1
    outer loop
      vertex 8.01512 -1.97555 0
      vertex 17.7464 -3.77211 0
      vertex 7.30944 -3.83629 0
    endloop
  endfacet
  facet normal 0 0 -1
    outer loop
      vertex 8.01512 1.97555 0
      vertex 17.7464 3.77211 0
      vertex 8.255 0 0
    endloop
  endfacet
  facet normal 0 0 -1
    outer loop
      vertex 7.30944 3.83629 0
      vertex 16.5743 7.37937 0
      vertex 8.01512 1.97555 0
    endloop
  endfacet
  facet normal 0 0 -1
    outer loop
      vertex 8.255 0 0
      vertex 18.1429 0 0
      vertex 8.01512 -1.97555 0
    endloop
  endfacet
  facet normal 0 0 -1
    outer loop
      vertex 11.4515 8.54054 0
      vertex 6.17896 5.47408 0
      vertex 9.69908 8.14056 0
    endloop
  endfacet
  facet normal 0 0 -1
    outer loop
      vertex 4.68937 6.79373 0
      vertex 9.69908 8.14056 0
      vertex 6.17896 5.47408 0
    endloop
  endfacet
  facet normal 0 0 -1
    outer loop
      vertex 6.17896 5.47408 0
      vertex 16.5743 7.37937 0
      vertex 7.30944 3.83629 0
    endloop
  endfacet
  facet normal 0 0 -1
    outer loop
      vertex -0.99503 8.19481 0
      vertex 9.07143 15.7122 0
      vertex 0.99503 8.19481 0
    endloop
  endfacet
  facet normal 0 0 -1
    outer loop
      vertex 9.69908 12.1794 0
      vertex 0.99503 8.19481 0
      vertex 12.1399 13.4828 0
    endloop
  endfacet
  facet normal 0 0 -1
    outer loop
      vertex -4.68937 6.79373 0
      vertex 5.60645 17.2549 0
      vertex -2.92726 7.71856 0
    endloop
  endfacet
  facet normal 0 0 -1
    outer loop
      vertex -7.30944 3.83629 0
      vertex -17.7464 -3.77211 0
      vertex -6.17896 5.47408 0
    endloop
  endfacet
  facet normal 0 0 -1
    outer loop
      vertex -17.7464 -3.77211 0
      vertex 5.60645 17.2549 0
      vertex -4.68937 6.79373 0
    endloop
  endfacet
  facet normal 0 0 -1
    outer loop
      vertex -17.7464 -3.77211 0
      vertex -4.68937 6.79373 0
      vertex -6.17896 5.47408 0
    endloop
  endfacet
  facet normal 0 0 -1
    outer loop
      vertex -8.01512 1.97555 0
      vertex -17.7464 -3.77211 0
      vertex -7.30944 3.83629 0
    endloop
  endfacet
  facet normal 0 0 -1
    outer loop
      vertex 8.29376 11.0587 0
      vertex 2.92726 7.71856 0
      vertex 9.69908 12.1794 0
    endloop
  endfacet
  facet normal 0 0 -1
    outer loop
      vertex 8.29376 9.26127 0
      vertex 4.68937 6.79373 0
      vertex 8.29376 11.0587 0
    endloop
  endfacet
  facet normal 0 0 -1
    outer loop
      vertex 2.92726 7.71856 0
      vertex 8.29376 11.0587 0
      vertex 4.68937 6.79373 0
    endloop
  endfacet
  facet normal 0 0 -1
    outer loop
      vertex 9.69908 8.14056 0
      vertex 4.68937 6.79373 0
      vertex 8.29376 9.26127 0
    endloop
  endfacet
  facet normal 0 0 -1
    outer loop
      vertex 0.99503 8.19481 0
      vertex 9.69908 12.1794 0
      vertex 2.92726 7.71856 0
    endloop
  endfacet
  facet normal 0 0 -1
    outer loop
      vertex 12.2314 10.16 0
      vertex 14.6779 10.6641 0
      vertex 11.4515 8.54054 0
    endloop
  endfacet
  facet normal 0 0 -1
    outer loop
      vertex 6.17896 5.47408 0
      vertex 11.4515 8.54054 0
      vertex 16.5743 7.37937 0
    endloop
  endfacet
  facet normal 0 0 -1
    outer loop
      vertex 11.4515 11.7795 0
      vertex 12.1399 13.4828 0
      vertex 12.2314 10.16 0
    endloop
  endfacet
  facet normal 0 0 -1
    outer loop
      vertex 9.69908 12.1794 0
      vertex 12.1399 13.4828 0
      vertex 11.4515 11.7795 0
    endloop
  endfacet
  facet normal 0 0 -1
    outer loop
      vertex -2.92726 7.71856 0
      vertex 9.07143 15.7122 0
      vertex -0.99503 8.19481 0
    endloop
  endfacet
  facet normal 0 0 -1
    outer loop
      vertex -12.0262 -9.26127 0
      vertex -17.7464 -3.77211 0
      vertex -10.6209 -8.14056 0
    endloop
  endfacet
  facet normal 0 0 -1
    outer loop
      vertex -8.08863 -10.16 0
      vertex 1.89644 -18.0435 0
      vertex -1.89644 -18.0435 0
    endloop
  endfacet
  facet normal 0 0 -1
    outer loop
      vertex -8.86852 -8.54054 0
      vertex 5.60645 -17.2549 0
      vertex -8.08863 -10.16 0
    endloop
  endfacet
  facet normal 0 0 -1
    outer loop
      vertex -10.6209 -8.14056 0
      vertex -17.7464 -3.77211 0
      vertex -8.86852 -8.54054 0
    endloop
  endfacet
  facet normal 0 0 1
    outer loop
      vertex -10.0933 2.14539 12.065
      vertex -10.3188 0 12.065
      vertex -10.0933 -2.14539 12.065
    endloop
  endfacet
  facet normal 0 0 1
    outer loop
      vertex -8.34804 -6.06521 12.065
      vertex -10.0933 2.14539 12.065
      vertex -9.42665 -4.19701 12.065
    endloop
  endfacet
  facet normal 0 0 1
    outer loop
      vertex -9.42665 -4.19701 12.065
      vertex -10.0933 2.14539 12.065
      vertex -10.0933 -2.14539 12.065
    endloop
  endfacet
  facet normal 0 0 1
    outer loop
      vertex -6.90459 -7.66833 12.065
      vertex -10.0933 2.14539 12.065
      vertex -8.34804 -6.06521 12.065
    endloop
  endfacet
  facet normal 0 0 1
    outer loop
      vertex -5.15937 -8.9363 12.065
      vertex -10.0933 2.14539 12.065
      vertex -6.90459 -7.66833 12.065
    endloop
  endfacet
  facet normal 0 0 1
    outer loop
      vertex -7.30944 -3.83629 12.065
      vertex -10.0933 2.14539 12.065
      vertex -5.15937 -8.9363 12.065
    endloop
  endfacet
  facet normal 0 0 1
    outer loop
      vertex 7.30944 -3.83629 12.065
      vertex 6.17896 -5.47408 12.065
      vertex 8.34804 -6.06521 12.065
    endloop
  endfacet
  facet normal 0 0 1
    outer loop
      vertex 8.01512 1.97555 12.065
      vertex 8.255 0 12.065
      vertex 10.3188 0 12.065
    endloop
  endfacet
  facet normal 0 0 1
    outer loop
      vertex -2.92726 7.71856 12.065
      vertex -0.99503 8.19481 12.065
      vertex 1.0786 10.2622 12.065
    endloop
  endfacet
  facet normal 0 0 1
    outer loop
      vertex -0.99503 8.19481 12.065
      vertex 0.99503 8.19481 12.065
      vertex 3.18867 9.81371 12.065
    endloop
  endfacet
  facet normal 0 0 1
    outer loop
      vertex -3.18867 9.81371 12.065
      vertex -10.0933 2.14539 12.065
      vertex -1.0786 10.2622 12.065
    endloop
  endfacet
  facet normal 0 0 1
    outer loop
      vertex -5.15937 8.9363 12.065
      vertex -10.0933 2.14539 12.065
      vertex -3.18867 9.81371 12.065
    endloop
  endfacet
  facet normal 0 0 1
    outer loop
      vertex -6.90459 7.66833 12.065
      vertex -10.0933 2.14539 12.065
      vertex -5.15937 8.9363 12.065
    endloop
  endfacet
  facet normal 0 0 1
    outer loop
      vertex -8.34804 6.06521 12.065
      vertex -10.0933 2.14539 12.065
      vertex -6.90459 7.66833 12.065
    endloop
  endfacet
  facet normal 0 0 1
    outer loop
      vertex -9.42665 4.19701 12.065
      vertex -10.0933 2.14539 12.065
      vertex -8.34804 6.06521 12.065
    endloop
  endfacet
  facet normal 0 0 1
    outer loop
      vertex 8.255 0 12.065
      vertex 8.01512 -1.97555 12.065
      vertex 10.0933 -2.14539 12.065
    endloop
  endfacet
  facet normal 0 0 1
    outer loop
      vertex 0.99503 8.19481 12.065
      vertex 2.92726 7.71856 12.065
      vertex 5.15937 8.9363 12.065
    endloop
  endfacet
  facet normal 0 0 1
    outer loop
      vertex 7.30944 3.83629 12.065
      vertex 8.01512 1.97555 12.065
      vertex 10.0933 2.14539 12.065
    endloop
  endfacet
  facet normal 0 0 1
    outer loop
      vertex -1.0786 10.2622 12.065
      vertex -10.0933 2.14539 12.065
      vertex -6.17896 5.47408 12.065
    endloop
  endfacet
  facet normal 0 0 1
    outer loop
      vertex -1.0786 10.2622 12.065
      vertex -4.68937 6.79373 12.065
      vertex 1.0786 10.2622 12.065
    endloop
  endfacet
  facet normal 0 0 1
    outer loop
      vertex -1.0786 10.2622 12.065
      vertex -6.17896 5.47408 12.065
      vertex -4.68937 6.79373 12.065
    endloop
  endfacet
  facet normal 0 0 1
    outer loop
      vertex -4.68937 6.79373 12.065
      vertex -2.92726 7.71856 12.065
      vertex 1.0786 10.2622 12.065
    endloop
  endfacet
  facet normal 0 0 1
    outer loop
      vertex 1.0786 10.2622 12.065
      vertex -0.99503 8.19481 12.065
      vertex 3.18867 9.81371 12.065
    endloop
  endfacet
  facet normal 0 0 1
    outer loop
      vertex 3.18867 9.81371 12.065
      vertex 0.99503 8.19481 12.065
      vertex 5.15937 8.9363 12.065
    endloop
  endfacet
  facet normal 0 0 1
    outer loop
      vertex -7.30944 3.83629 12.065
      vertex -6.17896 5.47408 12.065
      vertex -10.0933 2.14539 12.065
    endloop
  endfacet
  facet normal 0 0 1
    outer loop
      vertex 5.15937 8.9363 12.065
      vertex 2.92726 7.71856 12.065
      vertex 6.90459 7.66833 12.065
    endloop
  endfacet
  facet normal 0 0 1
    outer loop
      vertex 6.90459 7.66833 12.065
      vertex 4.68937 6.79373 12.065
      vertex 8.34804 6.06521 12.065
    endloop
  endfacet
  facet normal 0 0 1
    outer loop
      vertex 8.34804 6.06521 12.065
      vertex 6.17896 5.47408 12.065
      vertex 9.42665 4.19701 12.065
    endloop
  endfacet
  facet normal 0 0 1
    outer loop
      vertex 9.42665 4.19701 12.065
      vertex 7.30944 3.83629 12.065
      vertex 10.0933 2.14539 12.065
    endloop
  endfacet
  facet normal 0 0 1
    outer loop
      vertex 10.0933 2.14539 12.065
      vertex 8.01512 1.97555 12.065
      vertex 10.3188 0 12.065
    endloop
  endfacet
  facet normal 0 0 1
    outer loop
      vertex 10.3188 0 12.065
      vertex 8.255 0 12.065
      vertex 10.0933 -2.14539 12.065
    endloop
  endfacet
  facet normal 0 0 1
    outer loop
      vertex 2.92726 7.71856 12.065
      vertex 4.68937 6.79373 12.065
      vertex 6.90459 7.66833 12.065
    endloop
  endfacet
  facet normal 0 0 1
    outer loop
      vertex 10.0933 -2.14539 12.065
      vertex 8.01512 -1.97555 12.065
      vertex 9.42665 -4.19701 12.065
    endloop
  endfacet
  facet normal 0 0 1
    outer loop
      vertex 4.68937 6.79373 12.065
      vertex 6.17896 5.47408 12.065
      vertex 8.34804 6.06521 12.065
    endloop
  endfacet
  facet normal 0 0 1
    outer loop
      vertex 9.42665 -4.19701 12.065
      vertex 7.30944 -3.83629 12.065
      vertex 8.34804 -6.06521 12.065
    endloop
  endfacet
  facet normal 0 0 1
    outer loop
      vertex 6.17896 5.47408 12.065
      vertex 7.30944 3.83629 12.065
      vertex 9.42665 4.19701 12.065
    endloop
  endfacet
  facet normal 0 0 1
    outer loop
      vertex 8.34804 -6.06521 12.065
      vertex 6.17896 -5.47408 12.065
      vertex 6.90459 -7.66833 12.065
    endloop
  endfacet
  facet normal 0 0 1
    outer loop
      vertex 6.90459 -7.66833 12.065
      vertex 4.68937 -6.79373 12.065
      vertex 5.15937 -8.9363 12.065
    endloop
  endfacet
  facet normal 0 0 1
    outer loop
      vertex 0.99503 -8.19481 12.065
      vertex -0.99503 -8.19481 12.065
      vertex 1.0786 -10.2622 12.065
    endloop
  endfacet
  facet normal 0 0 1
    outer loop
      vertex 5.15937 -8.9363 12.065
      vertex 2.92726 -7.71856 12.065
      vertex 3.18867 -9.81371 12.065
    endloop
  endfacet
  facet normal 0 0 1
    outer loop
      vertex -8.01512 1.97555 12.065
      vertex -7.30944 3.83629 12.065
      vertex -10.0933 2.14539 12.065
    endloop
  endfacet
  facet normal 0 0 1
    outer loop
      vertex 3.18867 -9.81371 12.065
      vertex 0.99503 -8.19481 12.065
      vertex 1.0786 -10.2622 12.065
    endloop
  endfacet
  facet normal 0 0 1
    outer loop
      vertex 1.0786 -10.2622 12.065
      vertex -0.99503 -8.19481 12.065
      vertex -1.0786 -10.2622 12.065
    endloop
  endfacet
  facet normal 0 0 1
    outer loop
      vertex -1.0786 -10.2622 12.065
      vertex -2.92726 -7.71856 12.065
      vertex -3.18867 -9.81371 12.065
    endloop
  endfacet
  facet normal 0 0 1
    outer loop
      vertex 8.01512 -1.97555 12.065
      vertex 7.30944 -3.83629 12.065
      vertex 9.42665 -4.19701 12.065
    endloop
  endfacet
  facet normal 0 0 1
    outer loop
      vertex -2.92726 -7.71856 12.065
      vertex -4.68937 -6.79373 12.065
      vertex -3.18867 -9.81371 12.065
    endloop
  endfacet
  facet normal 0 0 1
    outer loop
      vertex -3.18867 -9.81371 12.065
      vertex -6.17896 -5.47408 12.065
      vertex -5.15937 -8.9363 12.065
    endloop
  endfacet
  facet normal 0 0 1
    outer loop
      vertex -8.01512 -1.97555 12.065
      vertex -10.0933 2.14539 12.065
      vertex -7.30944 -3.83629 12.065
    endloop
  endfacet
  facet normal 0 0 1
    outer loop
      vertex -6.17896 -5.47408 12.065
      vertex -7.30944 -3.83629 12.065
      vertex -5.15937 -8.9363 12.065
    endloop
  endfacet
  facet normal 0 0 1
    outer loop
      vertex -8.01512 -1.97555 12.065
      vertex -8.255 0 12.065
      vertex -10.0933 2.14539 12.065
    endloop
  endfacet
  facet normal 0 0 1
    outer loop
      vertex 6.17896 -5.47408 12.065
      vertex 4.68937 -6.79373 12.065
      vertex 6.90459 -7.66833 12.065
    endloop
  endfacet
  facet normal 0 0 1
    outer loop
      vertex 4.68937 -6.79373 12.065
      vertex 2.92726 -7.71856 12.065
      vertex 5.15937 -8.9363 12.065
    endloop
  endfacet
  facet normal 0 0 1
    outer loop
      vertex 2.92726 -7.71856 12.065
      vertex 0.99503 -8.19481 12.065
      vertex 3.18867 -9.81371 12.065
    endloop
  endfacet
  facet normal 0 0 1
    outer loop
      vertex -4.68937 -6.79373 12.065
      vertex -6.17896 -5.47408 12.065
      vertex -3.18867 -9.81371 12.065
    endloop
  endfacet
  facet normal 0 0 1
    outer loop
      vertex -0.99503 -8.19481 12.065
      vertex -2.92726 -7.71856 12.065
      vertex -1.0786 -10.2622 12.065
    endloop
  endfacet
  facet normal 0 0 1
    outer loop
      vertex -8.255 0 12.065
      vertex -8.01512 1.97555 12.065
      vertex -10.0933 2.14539 12.065
    endloop
  endfacet
  facet normal 0.992709 -0.120537 0
    outer loop
      vertex -8.01512 1.97555 0
      vertex -8.01512 1.97555 12.065
      vertex -8.255 0 12.065
    endloop
  endfacet
  facet normal 0.992709 -0.120537 0
    outer loop
      vertex -8.255 0 0
      vertex -8.01512 1.97555 0
      vertex -8.255 0 12.065
    endloop
  endfacet
  facet normal 0.992709 0.120537 0
    outer loop
      vertex -8.255 0 12.065
      vertex -8.01512 -1.97555 12.065
      vertex -8.01512 -1.97555 0
    endloop
  endfacet
  facet normal 0.992709 0.120537 0
    outer loop
      vertex -8.255 0 0
      vertex -8.255 0 12.065
      vertex -8.01512 -1.97555 0
    endloop
  endfacet
  facet normal 0.935016 -0.354605 0
    outer loop
      vertex -7.30944 3.83629 0
      vertex -7.30944 3.83629 12.065
      vertex -8.01512 1.97555 12.065
    endloop
  endfacet
  facet normal 0.935016 -0.354605 0
    outer loop
      vertex -8.01512 1.97555 0
      vertex -7.30944 3.83629 0
      vertex -8.01512 1.97555 12.065
    endloop
  endfacet
  facet normal 0.822984 -0.568065 0
    outer loop
      vertex -6.17896 5.47408 0
      vertex -6.17896 5.47408 12.065
      vertex -7.30944 3.83629 12.065
    endloop
  endfacet
  facet normal 0.822984 -0.568065 0
    outer loop
      vertex -7.30944 3.83629 0
      vertex -6.17896 5.47408 0
      vertex -7.30944 3.83629 12.065
    endloop
  endfacet
  facet normal 0.663123 -0.748511 0
    outer loop
      vertex -4.68937 6.79373 0
      vertex -4.68937 6.79373 12.065
      vertex -6.17896 5.47408 12.065
    endloop
  endfacet
  facet normal 0.663123 -0.748511 0
    outer loop
      vertex -6.17896 5.47408 0
      vertex -4.68937 6.79373 0
      vertex -6.17896 5.47408 12.065
    endloop
  endfacet
  facet normal 0.464723 -0.885456 0
    outer loop
      vertex -2.92726 7.71856 0
      vertex -2.92726 7.71856 12.065
      vertex -4.68937 6.79373 12.065
    endloop
  endfacet
  facet normal 0.464723 -0.885456 0
    outer loop
      vertex -4.68937 6.79373 0
      vertex -2.92726 7.71856 0
      vertex -4.68937 6.79373 12.065
    endloop
  endfacet
  facet normal 0.239316 -0.970942 0
    outer loop
      vertex -0.99503 8.19481 0
      vertex -0.99503 8.19481 12.065
      vertex -2.92726 7.71856 12.065
    endloop
  endfacet
  facet normal 0.239316 -0.970942 0
    outer loop
      vertex -2.92726 7.71856 0
      vertex -0.99503 8.19481 0
      vertex -2.92726 7.71856 12.065
    endloop
  endfacet
  facet normal 0 -1 0
    outer loop
      vertex 0.99503 8.19481 0
      vertex 0.99503 8.19481 12.065
      vertex -0.99503 8.19481 12.065
    endloop
  endfacet
  facet normal 0 -1 0
    outer loop
      vertex -0.99503 8.19481 0
      vertex 0.99503 8.19481 0
      vertex -0.99503 8.19481 12.065
    endloop
  endfacet
  facet normal -0.239316 -0.970942 0
    outer loop
      vertex 2.92726 7.71856 0
      vertex 2.92726 7.71856 12.065
      vertex 0.99503 8.19481 12.065
    endloop
  endfacet
  facet normal -0.239316 -0.970942 0
    outer loop
      vertex 0.99503 8.19481 0
      vertex 2.92726 7.71856 0
      vertex 0.99503 8.19481 12.065
    endloop
  endfacet
  facet normal -0.464723 -0.885456 0
    outer loop
      vertex 4.68937 6.79373 0
      vertex 4.68937 6.79373 12.065
      vertex 2.92726 7.71856 12.065
    endloop
  endfacet
  facet normal -0.464723 -0.885456 0
    outer loop
      vertex 2.92726 7.71856 0
      vertex 4.68937 6.79373 0
      vertex 2.92726 7.71856 12.065
    endloop
  endfacet
  facet normal -0.663123 -0.748511 0
    outer loop
      vertex 6.17896 5.47408 0
      vertex 6.17896 5.47408 12.065
      vertex 4.68937 6.79373 12.065
    endloop
  endfacet
  facet normal -0.663123 -0.748511 0
    outer loop
      vertex 4.68937 6.79373 0
      vertex 6.17896 5.47408 0
      vertex 4.68937 6.79373 12.065
    endloop
  endfacet
  facet normal -0.822984 -0.568065 0
    outer loop
      vertex 7.30944 3.83629 12.065
      vertex 6.17896 5.47408 12.065
      vertex 7.30944 3.83629 0
    endloop
  endfacet
  facet normal -0.822984 -0.568065 0
    outer loop
      vertex 7.30944 3.83629 0
      vertex 6.17896 5.47408 12.065
      vertex 6.17896 5.47408 0
    endloop
  endfacet
  facet normal -0.935016 -0.354605 0
    outer loop
      vertex 8.01512 1.97555 12.065
      vertex 7.30944 3.83629 12.065
      vertex 8.01512 1.97555 0
    endloop
  endfacet
  facet normal -0.935016 -0.354605 0
    outer loop
      vertex 8.01512 1.97555 0
      vertex 7.30944 3.83629 12.065
      vertex 7.30944 3.83629 0
    endloop
  endfacet
  facet normal -0.992709 -0.120537 0
    outer loop
      vertex 8.255 0 12.065
      vertex 8.01512 1.97555 12.065
      vertex 8.255 0 0
    endloop
  endfacet
  facet normal -0.992709 -0.120537 0
    outer loop
      vertex 8.255 0 0
      vertex 8.01512 1.97555 12.065
      vertex 8.01512 1.97555 0
    endloop
  endfacet
  facet normal -0.992709 0.120537 0
    outer loop
      vertex 8.255 0 12.065
      vertex 8.255 0 0
      vertex 8.01512 -1.97555 12.065
    endloop
  endfacet
  facet normal -0.992709 0.120537 0
    outer loop
      vertex 8.01512 -1.97555 12.065
      vertex 8.255 0 0
      vertex 8.01512 -1.97555 0
    endloop
  endfacet
  facet normal -0.935016 0.354605 0
    outer loop
      vertex 8.01512 -1.97555 12.065
      vertex 8.01512 -1.97555 0
      vertex 7.30944 -3.83629 12.065
    endloop
  endfacet
  facet normal -0.935016 0.354605 0
    outer loop
      vertex 7.30944 -3.83629 12.065
      vertex 8.01512 -1.97555 0
      vertex 7.30944 -3.83629 0
    endloop
  endfacet
  facet normal -0.822984 0.568065 0
    outer loop
      vertex 7.30944 -3.83629 12.065
      vertex 7.30944 -3.83629 0
      vertex 6.17896 -5.47408 12.065
    endloop
  endfacet
  facet normal -0.822984 0.568065 0
    outer loop
      vertex 6.17896 -5.47408 12.065
      vertex 7.30944 -3.83629 0
      vertex 6.17896 -5.47408 0
    endloop
  endfacet
  facet normal -0.663123 0.748511 0
    outer loop
      vertex 6.17896 -5.47408 12.065
      vertex 6.17896 -5.47408 0
      vertex 4.68937 -6.79373 12.065
    endloop
  endfacet
  facet normal -0.663123 0.748511 0
    outer loop
      vertex 4.68937 -6.79373 12.065
      vertex 6.17896 -5.47408 0
      vertex 4.68937 -6.79373 0
    endloop
  endfacet
  facet normal -0.464723 0.885456 0
    outer loop
      vertex 4.68937 -6.79373 12.065
      vertex 4.68937 -6.79373 0
      vertex 2.92726 -7.71856 12.065
    endloop
  endfacet
  facet normal -0.464723 0.885456 0
    outer loop
      vertex 2.92726 -7.71856 12.065
      vertex 4.68937 -6.79373 0
      vertex 2.92726 -7.71856 0
    endloop
  endfacet
  facet normal -0.239316 0.970942 0
    outer loop
      vertex 2.92726 -7.71856 12.065
      vertex 2.92726 -7.71856 0
      vertex 0.99503 -8.19481 12.065
    endloop
  endfacet
  facet normal -0.239316 0.970942 0
    outer loop
      vertex 0.99503 -8.19481 12.065
      vertex 2.92726 -7.71856 0
      vertex 0.99503 -8.19481 0
    endloop
  endfacet
  facet normal 0 1 0
    outer loop
      vertex 0.99503 -8.19481 12.065
      vertex 0.99503 -8.19481 0
      vertex -0.99503 -8.19481 12.065
    endloop
  endfacet
  facet normal 0 1 0
    outer loop
      vertex -0.99503 -8.19481 12.065
      vertex 0.99503 -8.19481 0
      vertex -0.99503 -8.19481 0
    endloop
  endfacet
  facet normal 0.239316 0.970942 0
    outer loop
      vertex -0.99503 -8.19481 12.065
      vertex -0.99503 -8.19481 0
      vertex -2.92726 -7.71856 12.065
    endloop
  endfacet
  facet normal 0.239316 0.970942 0
    outer loop
      vertex -2.92726 -7.71856 12.065
      vertex -0.99503 -8.19481 0
      vertex -2.92726 -7.71856 0
    endloop
  endfacet
  facet normal 0.464723 0.885456 0
    outer loop
      vertex -2.92726 -7.71856 12.065
      vertex -2.92726 -7.71856 0
      vertex -4.68937 -6.79373 12.065
    endloop
  endfacet
  facet normal 0.464723 0.885456 0
    outer loop
      vertex -4.68937 -6.79373 12.065
      vertex -2.92726 -7.71856 0
      vertex -4.68937 -6.79373 0
    endloop
  endfacet
  facet normal 0.663123 0.748511 0
    outer loop
      vertex -4.68937 -6.79373 12.065
      vertex -4.68937 -6.79373 0
      vertex -6.17896 -5.47408 12.065
    endloop
  endfacet
  facet normal 0.663123 0.748511 0
    outer loop
      vertex -6.17896 -5.47408 12.065
      vertex -4.68937 -6.79373 0
      vertex -6.17896 -5.47408 0
    endloop
  endfacet
  facet normal 0.822984 0.568065 0
    outer loop
      vertex -7.30944 -3.83629 12.065
      vertex -6.17896 -5.47408 12.065
      vertex -6.17896 -5.47408 0
    endloop
  endfacet
  facet normal 0.822984 0.568065 0
    outer loop
      vertex -7.30944 -3.83629 0
      vertex -7.30944 -3.83629 12.065
      vertex -6.17896 -5.47408 0
    endloop
  endfacet
  facet normal 0.935016 0.354605 0
    outer loop
      vertex -8.01512 -1.97555 12.065
      vertex -7.30944 -3.83629 12.065
      vertex -7.30944 -3.83629 0
    endloop
  endfacet
  facet normal 0.935016 0.354605 0
    outer loop
      vertex -8.01512 -1.97555 0
      vertex -8.01512 -1.97555 12.065
      vertex -7.30944 -3.83629 0
    endloop
  endfacet
endsolid OpenSCAD_Model
