solid OpenSCAD_Model
  facet normal 0 0 1
    outer loop
      vertex -24.858 5.28373 14.7
      vertex -25.4133 0 14.7
      vertex -24.858 -5.28373 14.7
    endloop
  endfacet
  facet normal 0 0 1
    outer loop
      vertex -20.5598 -14.9376 14.7
      vertex -24.858 5.28373 14.7
      vertex -23.2162 -10.3365 14.7
    endloop
  endfacet
  facet normal 0 0 1
    outer loop
      vertex -23.2162 -10.3365 14.7
      vertex -24.858 5.28373 14.7
      vertex -24.858 -5.28373 14.7
    endloop
  endfacet
  facet normal 0 0 1
    outer loop
      vertex -17.0048 -18.8858 14.7
      vertex -24.858 5.28373 14.7
      vertex -20.5598 -14.9376 14.7
    endloop
  endfacet
  facet normal 0 0 1
    outer loop
      vertex -12.7067 -22.0086 14.7
      vertex -24.858 5.28373 14.7
      vertex -17.0048 -18.8858 14.7
    endloop
  endfacet
  facet normal 0 0 1
    outer loop
      vertex -7.85315 -24.1695 14.7
      vertex -24.858 5.28373 14.7
      vertex -12.7067 -22.0086 14.7
    endloop
  endfacet
  facet normal 0 0 1
    outer loop
      vertex -2.65642 -25.2741 14.7
      vertex -24.858 5.28373 14.7
      vertex -7.85315 -24.1695 14.7
    endloop
  endfacet
  facet normal 0 0 1
    outer loop
      vertex -11.9472 -11.9472 14.7
      vertex -24.858 5.28373 14.7
      vertex -2.65642 -25.2741 14.7
    endloop
  endfacet
  facet normal 0 0 1
    outer loop
      vertex -8.38342 -8.38342 14.7
      vertex 7.85315 -24.1695 14.7
      vertex 12.7067 -22.0086 14.7
    endloop
  endfacet
  facet normal 0 0 1
    outer loop
      vertex -7.34036 -8.1523 14.7
      vertex -8.87492 -6.448 14.7
      vertex -24.858 5.28373 14.7
    endloop
  endfacet
  facet normal 0 0 1
    outer loop
      vertex 3.38992 -10.4331 14.7
      vertex 1.14668 -10.9099 14.7
      vertex 17.0048 -18.8858 14.7
    endloop
  endfacet
  facet normal 0 0 1
    outer loop
      vertex 10.7303 2.28079 14.7
      vertex 10.97 0 14.7
      vertex 25.4133 0 14.7
    endloop
  endfacet
  facet normal 0 0 1
    outer loop
      vertex 8.87492 6.448 14.7
      vertex 10.0216 4.4619 14.7
      vertex 24.858 5.28373 14.7
    endloop
  endfacet
  facet normal 0 0 1
    outer loop
      vertex 12.7067 22.0086 14.7
      vertex -24.858 5.28373 14.7
      vertex 17.0048 18.8858 14.7
    endloop
  endfacet
  facet normal 0 0 1
    outer loop
      vertex 7.85315 24.1695 14.7
      vertex -24.858 5.28373 14.7
      vertex 12.7067 22.0086 14.7
    endloop
  endfacet
  facet normal 0 0 1
    outer loop
      vertex 2.65642 25.2741 14.7
      vertex -24.858 5.28373 14.7
      vertex 7.85315 24.1695 14.7
    endloop
  endfacet
  facet normal 0 0 1
    outer loop
      vertex -2.65642 25.2741 14.7
      vertex -24.858 5.28373 14.7
      vertex 2.65642 25.2741 14.7
    endloop
  endfacet
  facet normal 0 0 1
    outer loop
      vertex -7.85315 24.1695 14.7
      vertex -24.858 5.28373 14.7
      vertex -2.65642 25.2741 14.7
    endloop
  endfacet
  facet normal 0 0 1
    outer loop
      vertex -12.7067 22.0086 14.7
      vertex -24.858 5.28373 14.7
      vertex -7.85315 24.1695 14.7
    endloop
  endfacet
  facet normal 0 0 1
    outer loop
      vertex -17.0048 18.8858 14.7
      vertex -24.858 5.28373 14.7
      vertex -12.7067 22.0086 14.7
    endloop
  endfacet
  facet normal 0 0 1
    outer loop
      vertex -20.5598 14.9376 14.7
      vertex -24.858 5.28373 14.7
      vertex -17.0048 18.8858 14.7
    endloop
  endfacet
  facet normal 0 0 1
    outer loop
      vertex -23.2162 10.3365 14.7
      vertex -24.858 5.28373 14.7
      vertex -20.5598 14.9376 14.7
    endloop
  endfacet
  facet normal 0 0 1
    outer loop
      vertex 2.65642 -25.2741 14.7
      vertex -11.9472 -11.9472 14.7
      vertex -2.65642 -25.2741 14.7
    endloop
  endfacet
  facet normal 0 0 1
    outer loop
      vertex -12.6853 -10.1653 14.7
      vertex -24.858 5.28373 14.7
      vertex -11.9472 -11.9472 14.7
    endloop
  endfacet
  facet normal 0 0 1
    outer loop
      vertex -10.0216 -4.4619 14.7
      vertex -10.7303 -2.28079 14.7
      vertex -24.858 5.28373 14.7
    endloop
  endfacet
  facet normal 0 0 1
    outer loop
      vertex -8.38342 -8.38342 14.7
      vertex -7.64533 -10.1653 14.7
      vertex 7.85315 -24.1695 14.7
    endloop
  endfacet
  facet normal 0 0 1
    outer loop
      vertex -7.64533 -10.1653 14.7
      vertex -8.38342 -11.9472 14.7
      vertex 7.85315 -24.1695 14.7
    endloop
  endfacet
  facet normal 0 0 1
    outer loop
      vertex -8.38342 -8.38342 14.7
      vertex -24.858 5.28373 14.7
      vertex -10.1653 -7.64533 14.7
    endloop
  endfacet
  facet normal 0 0 1
    outer loop
      vertex -8.38342 -11.9472 14.7
      vertex -10.1653 -12.6853 14.7
      vertex 2.65642 -25.2741 14.7
    endloop
  endfacet
  facet normal 0 0 1
    outer loop
      vertex -7.34036 -8.1523 14.7
      vertex -24.858 5.28373 14.7
      vertex -8.38342 -8.38342 14.7
    endloop
  endfacet
  facet normal 0 0 1
    outer loop
      vertex 7.85315 -24.1695 14.7
      vertex -8.38342 -11.9472 14.7
      vertex 2.65642 -25.2741 14.7
    endloop
  endfacet
  facet normal 0 0 1
    outer loop
      vertex 2.65642 -25.2741 14.7
      vertex -10.1653 -12.6853 14.7
      vertex -11.9472 -11.9472 14.7
    endloop
  endfacet
  facet normal 0 0 1
    outer loop
      vertex -1.14668 -10.9099 14.7
      vertex -3.38992 -10.4331 14.7
      vertex 12.7067 -22.0086 14.7
    endloop
  endfacet
  facet normal 0 0 1
    outer loop
      vertex -10.97 0 14.7
      vertex -10.7303 2.28079 14.7
      vertex -24.858 5.28373 14.7
    endloop
  endfacet
  facet normal 0 0 1
    outer loop
      vertex -8.87492 -6.448 14.7
      vertex -10.0216 -4.4619 14.7
      vertex -24.858 5.28373 14.7
    endloop
  endfacet
  facet normal 0 0 1
    outer loop
      vertex 7.34036 -8.1523 14.7
      vertex 5.485 -9.5003 14.7
      vertex 20.5598 -14.9376 14.7
    endloop
  endfacet
  facet normal 0 0 1
    outer loop
      vertex 1.14668 10.9099 14.7
      vertex 8.38342 11.9472 14.7
      vertex 10.1653 12.6853 14.7
    endloop
  endfacet
  facet normal 0 0 1
    outer loop
      vertex 10.7303 -2.28079 14.7
      vertex 10.0216 -4.4619 14.7
      vertex 24.858 -5.28373 14.7
    endloop
  endfacet
  facet normal 0 0 1
    outer loop
      vertex -8.87492 6.448 14.7
      vertex -7.34036 8.1523 14.7
      vertex -24.858 5.28373 14.7
    endloop
  endfacet
  facet normal 0 0 1
    outer loop
      vertex 10.0216 -4.4619 14.7
      vertex 8.87492 -6.448 14.7
      vertex 23.2162 -10.3365 14.7
    endloop
  endfacet
  facet normal 0 0 1
    outer loop
      vertex 5.485 9.5003 14.7
      vertex 7.34036 8.1523 14.7
      vertex 8.38342 8.38342 14.7
    endloop
  endfacet
  facet normal 0 0 1
    outer loop
      vertex 10.1653 7.64533 14.7
      vertex 8.38342 8.38342 14.7
      vertex 7.34036 8.1523 14.7
    endloop
  endfacet
  facet normal 0 0 1
    outer loop
      vertex 1.14668 10.9099 14.7
      vertex 10.1653 12.6853 14.7
      vertex 20.5598 14.9376 14.7
    endloop
  endfacet
  facet normal 0 0 1
    outer loop
      vertex -3.38992 10.4331 14.7
      vertex -24.858 5.28373 14.7
      vertex -5.485 9.5003 14.7
    endloop
  endfacet
  facet normal 0 0 1
    outer loop
      vertex 17.0048 18.8858 14.7
      vertex -24.858 5.28373 14.7
      vertex -3.38992 10.4331 14.7
    endloop
  endfacet
  facet normal 0 0 1
    outer loop
      vertex 17.0048 18.8858 14.7
      vertex -1.14668 10.9099 14.7
      vertex 20.5598 14.9376 14.7
    endloop
  endfacet
  facet normal 0 0 1
    outer loop
      vertex -1.14668 10.9099 14.7
      vertex 1.14668 10.9099 14.7
      vertex 20.5598 14.9376 14.7
    endloop
  endfacet
  facet normal 0 0 1
    outer loop
      vertex 11.9472 11.9472 14.7
      vertex 12.6853 10.1653 14.7
      vertex 23.2162 10.3365 14.7
    endloop
  endfacet
  facet normal 0 0 1
    outer loop
      vertex 8.38342 8.38342 14.7
      vertex 7.64533 10.1653 14.7
      vertex 5.485 9.5003 14.7
    endloop
  endfacet
  facet normal 0 0 1
    outer loop
      vertex 10.1653 7.64533 14.7
      vertex 8.87492 6.448 14.7
      vertex 24.858 5.28373 14.7
    endloop
  endfacet
  facet normal 0 0 1
    outer loop
      vertex 24.858 5.28373 14.7
      vertex 10.0216 4.4619 14.7
      vertex 25.4133 0 14.7
    endloop
  endfacet
  facet normal 0 0 1
    outer loop
      vertex 10.0216 4.4619 14.7
      vertex 10.7303 2.28079 14.7
      vertex 25.4133 0 14.7
    endloop
  endfacet
  facet normal 0 0 1
    outer loop
      vertex 25.4133 0 14.7
      vertex 10.97 0 14.7
      vertex 24.858 -5.28373 14.7
    endloop
  endfacet
  facet normal 0 0 1
    outer loop
      vertex -10.0216 4.4619 14.7
      vertex -8.87492 6.448 14.7
      vertex -24.858 5.28373 14.7
    endloop
  endfacet
  facet normal 0 0 1
    outer loop
      vertex 10.97 0 14.7
      vertex 10.7303 -2.28079 14.7
      vertex 24.858 -5.28373 14.7
    endloop
  endfacet
  facet normal 0 0 1
    outer loop
      vertex -7.34036 8.1523 14.7
      vertex -5.485 9.5003 14.7
      vertex -24.858 5.28373 14.7
    endloop
  endfacet
  facet normal 0 0 1
    outer loop
      vertex 24.858 -5.28373 14.7
      vertex 10.0216 -4.4619 14.7
      vertex 23.2162 -10.3365 14.7
    endloop
  endfacet
  facet normal 0 0 1
    outer loop
      vertex 23.2162 -10.3365 14.7
      vertex 8.87492 -6.448 14.7
      vertex 20.5598 -14.9376 14.7
    endloop
  endfacet
  facet normal 0 0 1
    outer loop
      vertex 8.87492 -6.448 14.7
      vertex 7.34036 -8.1523 14.7
      vertex 20.5598 -14.9376 14.7
    endloop
  endfacet
  facet normal 0 0 1
    outer loop
      vertex 20.5598 -14.9376 14.7
      vertex 5.485 -9.5003 14.7
      vertex 17.0048 -18.8858 14.7
    endloop
  endfacet
  facet normal 0 0 1
    outer loop
      vertex 5.485 -9.5003 14.7
      vertex 3.38992 -10.4331 14.7
      vertex 17.0048 -18.8858 14.7
    endloop
  endfacet
  facet normal 0 0 1
    outer loop
      vertex 17.0048 -18.8858 14.7
      vertex 1.14668 -10.9099 14.7
      vertex 12.7067 -22.0086 14.7
    endloop
  endfacet
  facet normal 0 0 1
    outer loop
      vertex -10.7303 -2.28079 14.7
      vertex -10.97 0 14.7
      vertex -24.858 5.28373 14.7
    endloop
  endfacet
  facet normal 0 0 1
    outer loop
      vertex 1.14668 -10.9099 14.7
      vertex -1.14668 -10.9099 14.7
      vertex 12.7067 -22.0086 14.7
    endloop
  endfacet
  facet normal 0 0 1
    outer loop
      vertex 12.7067 -22.0086 14.7
      vertex -3.38992 -10.4331 14.7
      vertex -8.38342 -8.38342 14.7
    endloop
  endfacet
  facet normal 0 0 1
    outer loop
      vertex -3.38992 -10.4331 14.7
      vertex -5.485 -9.5003 14.7
      vertex -8.38342 -8.38342 14.7
    endloop
  endfacet
  facet normal 0 0 1
    outer loop
      vertex -5.485 -9.5003 14.7
      vertex -7.34036 -8.1523 14.7
      vertex -8.38342 -8.38342 14.7
    endloop
  endfacet
  facet normal 0 0 1
    outer loop
      vertex 11.9472 8.38342 14.7
      vertex 10.1653 7.64533 14.7
      vertex 24.858 5.28373 14.7
    endloop
  endfacet
  facet normal 0 0 1
    outer loop
      vertex 3.38992 10.4331 14.7
      vertex 5.485 9.5003 14.7
      vertex 7.64533 10.1653 14.7
    endloop
  endfacet
  facet normal 0 0 1
    outer loop
      vertex 12.6853 10.1653 14.7
      vertex 11.9472 8.38342 14.7
      vertex 23.2162 10.3365 14.7
    endloop
  endfacet
  facet normal 0 0 1
    outer loop
      vertex -3.38992 10.4331 14.7
      vertex -1.14668 10.9099 14.7
      vertex 17.0048 18.8858 14.7
    endloop
  endfacet
  facet normal 0 0 1
    outer loop
      vertex 20.5598 14.9376 14.7
      vertex 11.9472 11.9472 14.7
      vertex 23.2162 10.3365 14.7
    endloop
  endfacet
  facet normal 0 0 1
    outer loop
      vertex 10.1653 12.6853 14.7
      vertex 11.9472 11.9472 14.7
      vertex 20.5598 14.9376 14.7
    endloop
  endfacet
  facet normal 0 0 1
    outer loop
      vertex 23.2162 10.3365 14.7
      vertex 11.9472 8.38342 14.7
      vertex 24.858 5.28373 14.7
    endloop
  endfacet
  facet normal 0 0 1
    outer loop
      vertex 7.64533 10.1653 14.7
      vertex 8.38342 11.9472 14.7
      vertex 3.38992 10.4331 14.7
    endloop
  endfacet
  facet normal 0 0 1
    outer loop
      vertex 7.34036 8.1523 14.7
      vertex 8.87492 6.448 14.7
      vertex 10.1653 7.64533 14.7
    endloop
  endfacet
  facet normal 0 0 1
    outer loop
      vertex -12.6853 -10.1653 14.7
      vertex -11.9472 -8.38342 14.7
      vertex -24.858 5.28373 14.7
    endloop
  endfacet
  facet normal 0 0 1
    outer loop
      vertex -11.9472 -8.38342 14.7
      vertex -10.1653 -7.64533 14.7
      vertex -24.858 5.28373 14.7
    endloop
  endfacet
  facet normal 0 0 1
    outer loop
      vertex -10.7303 2.28079 14.7
      vertex -10.0216 4.4619 14.7
      vertex -24.858 5.28373 14.7
    endloop
  endfacet
  facet normal 0 0 1
    outer loop
      vertex 1.14668 10.9099 14.7
      vertex 3.38992 10.4331 14.7
      vertex 8.38342 11.9472 14.7
    endloop
  endfacet
  facet normal -0.876076 -0.0920792 -0.473299
    outer loop
      vertex -24.858 -5.28373 14.7
      vertex -25.4133 0 14.7
      vertex -17.0899 -3.63256 0
    endloop
  endfacet
  facet normal -0.876076 -0.0920793 -0.473299
    outer loop
      vertex -17.0899 -3.63256 0
      vertex -25.4133 0 14.7
      vertex -17.4717 0 0
    endloop
  endfacet
  facet normal -0.876076 0.0920792 -0.473299
    outer loop
      vertex -17.4717 0 0
      vertex -25.4133 0 14.7
      vertex -24.858 5.28373 14.7
    endloop
  endfacet
  facet normal -0.876076 0.0920793 -0.473299
    outer loop
      vertex -17.4717 0 0
      vertex -24.858 5.28373 14.7
      vertex -17.0899 3.63256 0
    endloop
  endfacet
  facet normal -0.837787 0.272214 -0.473299
    outer loop
      vertex -17.0899 3.63256 0
      vertex -24.858 5.28373 14.7
      vertex -23.2162 10.3365 14.7
    endloop
  endfacet
  facet normal -0.837787 0.272214 -0.473299
    outer loop
      vertex -17.0899 3.63256 0
      vertex -23.2162 10.3365 14.7
      vertex -15.9612 7.10637 0
    endloop
  endfacet
  facet normal -0.762883 0.440451 -0.473299
    outer loop
      vertex -15.9612 7.10637 0
      vertex -23.2162 10.3365 14.7
      vertex -20.5598 14.9376 14.7
    endloop
  endfacet
  facet normal -0.762883 0.440451 -0.4733
    outer loop
      vertex -15.9612 7.10637 0
      vertex -20.5598 14.9376 14.7
      vertex -14.1349 10.2696 0
    endloop
  endfacet
  facet normal -0.654637 0.589438 -0.4733
    outer loop
      vertex -14.1349 10.2696 0
      vertex -20.5598 14.9376 14.7
      vertex -17.0048 18.8858 14.7
    endloop
  endfacet
  facet normal -0.654638 0.589438 -0.473299
    outer loop
      vertex -14.1349 10.2696 0
      vertex -17.0048 18.8858 14.7
      vertex -11.6908 12.984 0
    endloop
  endfacet
  facet normal -0.517781 0.712664 -0.473299
    outer loop
      vertex -11.6908 12.984 0
      vertex -17.0048 18.8858 14.7
      vertex -12.7067 22.0086 14.7
    endloop
  endfacet
  facet normal -0.517781 0.712664 -0.4733
    outer loop
      vertex -11.6908 12.984 0
      vertex -12.7067 22.0086 14.7
      vertex -8.73583 15.1309 0
    endloop
  endfacet
  facet normal -0.358295 0.804744 -0.4733
    outer loop
      vertex -8.73583 15.1309 0
      vertex -12.7067 22.0086 14.7
      vertex -7.85315 24.1695 14.7
    endloop
  endfacet
  facet normal -0.358295 0.804744 -0.4733
    outer loop
      vertex -5.39904 16.6165 0
      vertex -8.73583 15.1309 0
      vertex -7.85315 24.1695 14.7
    endloop
  endfacet
  facet normal -0.18315 0.861652 -0.4733
    outer loop
      vertex -5.39904 16.6165 0
      vertex -7.85315 24.1695 14.7
      vertex -2.65642 25.2741 14.7
    endloop
  endfacet
  facet normal -0.18315 0.861652 -0.473299
    outer loop
      vertex -1.82629 17.376 0
      vertex -5.39904 16.6165 0
      vertex -2.65642 25.2741 14.7
    endloop
  endfacet
  facet normal 0 0.880902 -0.473299
    outer loop
      vertex -2.65642 25.2741 14.7
      vertex 2.65642 25.2741 14.7
      vertex -1.82629 17.376 0
    endloop
  endfacet
  facet normal 0 0.880902 -0.473299
    outer loop
      vertex -1.82629 17.376 0
      vertex 2.65642 25.2741 14.7
      vertex 1.82629 17.376 0
    endloop
  endfacet
  facet normal 0.18315 0.861652 -0.473299
    outer loop
      vertex 7.85315 24.1695 14.7
      vertex 1.82629 17.376 0
      vertex 2.65642 25.2741 14.7
    endloop
  endfacet
  facet normal 0.18315 0.861652 -0.4733
    outer loop
      vertex 5.39904 16.6165 0
      vertex 1.82629 17.376 0
      vertex 7.85315 24.1695 14.7
    endloop
  endfacet
  facet normal 0.358295 0.804744 -0.4733
    outer loop
      vertex 12.7067 22.0086 14.7
      vertex 5.39904 16.6165 0
      vertex 7.85315 24.1695 14.7
    endloop
  endfacet
  facet normal 0.358295 0.804744 -0.4733
    outer loop
      vertex 8.73583 15.1309 0
      vertex 5.39904 16.6165 0
      vertex 12.7067 22.0086 14.7
    endloop
  endfacet
  facet normal 0.517781 0.712664 -0.4733
    outer loop
      vertex 17.0048 18.8858 14.7
      vertex 8.73583 15.1309 0
      vertex 12.7067 22.0086 14.7
    endloop
  endfacet
  facet normal 0.517781 0.712664 -0.473299
    outer loop
      vertex 11.6908 12.984 0
      vertex 8.73583 15.1309 0
      vertex 17.0048 18.8858 14.7
    endloop
  endfacet
  facet normal 0.654637 0.589438 -0.473299
    outer loop
      vertex 20.5598 14.9376 14.7
      vertex 11.6908 12.984 0
      vertex 17.0048 18.8858 14.7
    endloop
  endfacet
  facet normal 0.654638 0.589438 -0.4733
    outer loop
      vertex 14.1349 10.2696 0
      vertex 11.6908 12.984 0
      vertex 20.5598 14.9376 14.7
    endloop
  endfacet
  facet normal 0.762883 0.440451 -0.4733
    outer loop
      vertex 23.2162 10.3365 14.7
      vertex 14.1349 10.2696 0
      vertex 20.5598 14.9376 14.7
    endloop
  endfacet
  facet normal 0.762883 0.440451 -0.473299
    outer loop
      vertex 15.9612 7.10637 0
      vertex 14.1349 10.2696 0
      vertex 23.2162 10.3365 14.7
    endloop
  endfacet
  facet normal 0.837787 0.272214 -0.473299
    outer loop
      vertex 24.858 5.28373 14.7
      vertex 15.9612 7.10637 0
      vertex 23.2162 10.3365 14.7
    endloop
  endfacet
  facet normal 0.837787 0.272214 -0.473299
    outer loop
      vertex 17.0899 3.63256 0
      vertex 15.9612 7.10637 0
      vertex 24.858 5.28373 14.7
    endloop
  endfacet
  facet normal 0.876076 0.0920792 -0.473299
    outer loop
      vertex 25.4133 0 14.7
      vertex 17.0899 3.63256 0
      vertex 24.858 5.28373 14.7
    endloop
  endfacet
  facet normal 0.876076 0.0920793 -0.473299
    outer loop
      vertex 17.4717 0 0
      vertex 17.0899 3.63256 0
      vertex 25.4133 0 14.7
    endloop
  endfacet
  facet normal 0.876076 -0.0920792 -0.473299
    outer loop
      vertex 24.858 -5.28373 14.7
      vertex 17.4717 0 0
      vertex 25.4133 0 14.7
    endloop
  endfacet
  facet normal 0.876076 -0.0920793 -0.473299
    outer loop
      vertex 24.858 -5.28373 14.7
      vertex 17.0899 -3.63256 0
      vertex 17.4717 0 0
    endloop
  endfacet
  facet normal 0.837787 -0.272214 -0.473299
    outer loop
      vertex 23.2162 -10.3365 14.7
      vertex 17.0899 -3.63256 0
      vertex 24.858 -5.28373 14.7
    endloop
  endfacet
  facet normal 0.837787 -0.272214 -0.473299
    outer loop
      vertex 23.2162 -10.3365 14.7
      vertex 15.9612 -7.10637 0
      vertex 17.0899 -3.63256 0
    endloop
  endfacet
  facet normal 0.762883 -0.440451 -0.473299
    outer loop
      vertex 20.5598 -14.9376 14.7
      vertex 15.9612 -7.10637 0
      vertex 23.2162 -10.3365 14.7
    endloop
  endfacet
  facet normal 0.762883 -0.440451 -0.4733
    outer loop
      vertex 20.5598 -14.9376 14.7
      vertex 14.1349 -10.2696 0
      vertex 15.9612 -7.10637 0
    endloop
  endfacet
  facet normal 0.654637 -0.589438 -0.4733
    outer loop
      vertex 17.0048 -18.8858 14.7
      vertex 14.1349 -10.2696 0
      vertex 20.5598 -14.9376 14.7
    endloop
  endfacet
  facet normal 0.654638 -0.589438 -0.473299
    outer loop
      vertex 17.0048 -18.8858 14.7
      vertex 11.6908 -12.984 0
      vertex 14.1349 -10.2696 0
    endloop
  endfacet
  facet normal 0.517781 -0.712664 -0.473299
    outer loop
      vertex 12.7067 -22.0086 14.7
      vertex 11.6908 -12.984 0
      vertex 17.0048 -18.8858 14.7
    endloop
  endfacet
  facet normal 0.517781 -0.712664 -0.4733
    outer loop
      vertex 12.7067 -22.0086 14.7
      vertex 8.73583 -15.1309 0
      vertex 11.6908 -12.984 0
    endloop
  endfacet
  facet normal 0.358295 -0.804744 -0.4733
    outer loop
      vertex 12.7067 -22.0086 14.7
      vertex 7.85315 -24.1695 14.7
      vertex 8.73583 -15.1309 0
    endloop
  endfacet
  facet normal 0.358295 -0.804744 -0.4733
    outer loop
      vertex 7.85315 -24.1695 14.7
      vertex 5.39904 -16.6165 0
      vertex 8.73583 -15.1309 0
    endloop
  endfacet
  facet normal 0.18315 -0.861652 -0.4733
    outer loop
      vertex 7.85315 -24.1695 14.7
      vertex 2.65642 -25.2741 14.7
      vertex 5.39904 -16.6165 0
    endloop
  endfacet
  facet normal 0.18315 -0.861652 -0.473299
    outer loop
      vertex 2.65642 -25.2741 14.7
      vertex 1.82629 -17.376 0
      vertex 5.39904 -16.6165 0
    endloop
  endfacet
  facet normal 0 -0.880902 -0.473299
    outer loop
      vertex 2.65642 -25.2741 14.7
      vertex -2.65642 -25.2741 14.7
      vertex -1.82629 -17.376 0
    endloop
  endfacet
  facet normal 0 -0.880902 -0.473299
    outer loop
      vertex 1.82629 -17.376 0
      vertex 2.65642 -25.2741 14.7
      vertex -1.82629 -17.376 0
    endloop
  endfacet
  facet normal -0.18315 -0.861652 -0.473299
    outer loop
      vertex -2.65642 -25.2741 14.7
      vertex -7.85315 -24.1695 14.7
      vertex -1.82629 -17.376 0
    endloop
  endfacet
  facet normal -0.18315 -0.861652 -0.4733
    outer loop
      vertex -1.82629 -17.376 0
      vertex -7.85315 -24.1695 14.7
      vertex -5.39904 -16.6165 0
    endloop
  endfacet
  facet normal -0.358295 -0.804744 -0.4733
    outer loop
      vertex -7.85315 -24.1695 14.7
      vertex -12.7067 -22.0086 14.7
      vertex -5.39904 -16.6165 0
    endloop
  endfacet
  facet normal -0.358295 -0.804744 -0.4733
    outer loop
      vertex -5.39904 -16.6165 0
      vertex -12.7067 -22.0086 14.7
      vertex -8.73583 -15.1309 0
    endloop
  endfacet
  facet normal -0.517781 -0.712664 -0.4733
    outer loop
      vertex -12.7067 -22.0086 14.7
      vertex -17.0048 -18.8858 14.7
      vertex -8.73583 -15.1309 0
    endloop
  endfacet
  facet normal -0.517781 -0.712664 -0.473299
    outer loop
      vertex -8.73583 -15.1309 0
      vertex -17.0048 -18.8858 14.7
      vertex -11.6908 -12.984 0
    endloop
  endfacet
  facet normal -0.654637 -0.589438 -0.473299
    outer loop
      vertex -17.0048 -18.8858 14.7
      vertex -20.5598 -14.9376 14.7
      vertex -11.6908 -12.984 0
    endloop
  endfacet
  facet normal -0.654638 -0.589438 -0.4733
    outer loop
      vertex -11.6908 -12.984 0
      vertex -20.5598 -14.9376 14.7
      vertex -14.1349 -10.2696 0
    endloop
  endfacet
  facet normal -0.762883 -0.440451 -0.4733
    outer loop
      vertex -20.5598 -14.9376 14.7
      vertex -23.2162 -10.3365 14.7
      vertex -14.1349 -10.2696 0
    endloop
  endfacet
  facet normal -0.762883 -0.440451 -0.473299
    outer loop
      vertex -14.1349 -10.2696 0
      vertex -23.2162 -10.3365 14.7
      vertex -15.9612 -7.10637 0
    endloop
  endfacet
  facet normal -0.837787 -0.272214 -0.473299
    outer loop
      vertex -23.2162 -10.3365 14.7
      vertex -24.858 -5.28373 14.7
      vertex -15.9612 -7.10637 0
    endloop
  endfacet
  facet normal -0.837787 -0.272214 -0.473299
    outer loop
      vertex -15.9612 -7.10637 0
      vertex -24.858 -5.28373 14.7
      vertex -17.0899 -3.63256 0
    endloop
  endfacet
  facet normal 0.92388 0.382683 0
    outer loop
      vertex -12.6853 -10.1653 14.7
      vertex -11.9472 -11.9472 14.7
      vertex -11.9472 -11.9472 0
    endloop
  endfacet
  facet normal 0.92388 0.382683 0
    outer loop
      vertex -12.6853 -10.1653 0
      vertex -12.6853 -10.1653 14.7
      vertex -11.9472 -11.9472 0
    endloop
  endfacet
  facet normal 0.382683 0.92388 0
    outer loop
      vertex -10.1653 -12.6853 14.7
      vertex -10.1653 -12.6853 0
      vertex -11.9472 -11.9472 14.7
    endloop
  endfacet
  facet normal 0.382683 0.92388 0
    outer loop
      vertex -11.9472 -11.9472 14.7
      vertex -10.1653 -12.6853 0
      vertex -11.9472 -11.9472 0
    endloop
  endfacet
  facet normal -0.382683 0.92388 0
    outer loop
      vertex -8.38342 -11.9472 14.7
      vertex -8.38342 -11.9472 0
      vertex -10.1653 -12.6853 14.7
    endloop
  endfacet
  facet normal -0.382683 0.92388 0
    outer loop
      vertex -10.1653 -12.6853 14.7
      vertex -8.38342 -11.9472 0
      vertex -10.1653 -12.6853 0
    endloop
  endfacet
  facet normal -0.92388 0.382683 0
    outer loop
      vertex -7.64533 -10.1653 14.7
      vertex -7.64533 -10.1653 0
      vertex -8.38342 -11.9472 14.7
    endloop
  endfacet
  facet normal -0.92388 0.382683 0
    outer loop
      vertex -8.38342 -11.9472 14.7
      vertex -7.64533 -10.1653 0
      vertex -8.38342 -11.9472 0
    endloop
  endfacet
  facet normal -0.92388 -0.382683 0
    outer loop
      vertex -7.64533 -10.1653 14.7
      vertex -8.38342 -8.38342 14.7
      vertex -7.64533 -10.1653 0
    endloop
  endfacet
  facet normal -0.92388 -0.382683 0
    outer loop
      vertex -7.64533 -10.1653 0
      vertex -8.38342 -8.38342 14.7
      vertex -8.38342 -8.38342 0
    endloop
  endfacet
  facet normal -0.382683 -0.92388 0
    outer loop
      vertex -8.38342 -8.38342 0
      vertex -8.38342 -8.38342 14.7
      vertex -10.1653 -7.64533 14.7
    endloop
  endfacet
  facet normal -0.382683 -0.92388 0
    outer loop
      vertex -10.1653 -7.64533 0
      vertex -8.38342 -8.38342 0
      vertex -10.1653 -7.64533 14.7
    endloop
  endfacet
  facet normal 0.382683 -0.92388 0
    outer loop
      vertex -10.1653 -7.64533 0
      vertex -10.1653 -7.64533 14.7
      vertex -11.9472 -8.38342 14.7
    endloop
  endfacet
  facet normal 0.382683 -0.92388 0
    outer loop
      vertex -11.9472 -8.38342 0
      vertex -10.1653 -7.64533 0
      vertex -11.9472 -8.38342 14.7
    endloop
  endfacet
  facet normal 0.92388 -0.382683 0
    outer loop
      vertex -11.9472 -8.38342 0
      vertex -11.9472 -8.38342 14.7
      vertex -12.6853 -10.1653 14.7
    endloop
  endfacet
  facet normal 0.92388 -0.382683 0
    outer loop
      vertex -12.6853 -10.1653 0
      vertex -11.9472 -8.38342 0
      vertex -12.6853 -10.1653 14.7
    endloop
  endfacet
  facet normal 0.994522 0.104529 0
    outer loop
      vertex -10.97 0 14.7
      vertex -10.7303 -2.28079 14.7
      vertex -10.7303 -2.28079 5.7
    endloop
  endfacet
  facet normal 0.994522 0.104529 0
    outer loop
      vertex -10.97 0 5.7
      vertex -10.97 0 14.7
      vertex -10.7303 -2.28079 5.7
    endloop
  endfacet
  facet normal 0.951057 0.309017 0
    outer loop
      vertex -10.7303 -2.28079 14.7
      vertex -10.0216 -4.4619 14.7
      vertex -10.0216 -4.4619 5.7
    endloop
  endfacet
  facet normal 0.951057 0.309017 0
    outer loop
      vertex -10.7303 -2.28079 5.7
      vertex -10.7303 -2.28079 14.7
      vertex -10.0216 -4.4619 5.7
    endloop
  endfacet
  facet normal 0.866025 0.5 0
    outer loop
      vertex -10.0216 -4.4619 14.7
      vertex -8.87492 -6.448 14.7
      vertex -8.87492 -6.448 5.7
    endloop
  endfacet
  facet normal 0.866025 0.5 0
    outer loop
      vertex -10.0216 -4.4619 5.7
      vertex -10.0216 -4.4619 14.7
      vertex -8.87492 -6.448 5.7
    endloop
  endfacet
  facet normal 0.743145 0.66913 0
    outer loop
      vertex -8.87492 -6.448 14.7
      vertex -7.34036 -8.1523 14.7
      vertex -7.34036 -8.1523 5.7
    endloop
  endfacet
  facet normal 0.743145 0.66913 0
    outer loop
      vertex -8.87492 -6.448 5.7
      vertex -8.87492 -6.448 14.7
      vertex -7.34036 -8.1523 5.7
    endloop
  endfacet
  facet normal 0.587785 0.809017 0
    outer loop
      vertex -5.485 -9.5003 14.7
      vertex -5.485 -9.5003 5.7
      vertex -7.34036 -8.1523 14.7
    endloop
  endfacet
  facet normal 0.587785 0.809017 0
    outer loop
      vertex -7.34036 -8.1523 14.7
      vertex -5.485 -9.5003 5.7
      vertex -7.34036 -8.1523 5.7
    endloop
  endfacet
  facet normal 0.406736 0.913546 0
    outer loop
      vertex -3.38992 -10.4331 14.7
      vertex -3.38992 -10.4331 5.7
      vertex -5.485 -9.5003 14.7
    endloop
  endfacet
  facet normal 0.406736 0.913546 0
    outer loop
      vertex -5.485 -9.5003 14.7
      vertex -3.38992 -10.4331 5.7
      vertex -5.485 -9.5003 5.7
    endloop
  endfacet
  facet normal 0.207912 0.978148 0
    outer loop
      vertex -1.14668 -10.9099 14.7
      vertex -1.14668 -10.9099 5.7
      vertex -3.38992 -10.4331 14.7
    endloop
  endfacet
  facet normal 0.207912 0.978148 0
    outer loop
      vertex -3.38992 -10.4331 14.7
      vertex -1.14668 -10.9099 5.7
      vertex -3.38992 -10.4331 5.7
    endloop
  endfacet
  facet normal 0 1 0
    outer loop
      vertex 1.14668 -10.9099 14.7
      vertex 1.14668 -10.9099 5.7
      vertex -1.14668 -10.9099 14.7
    endloop
  endfacet
  facet normal 0 1 0
    outer loop
      vertex -1.14668 -10.9099 14.7
      vertex 1.14668 -10.9099 5.7
      vertex -1.14668 -10.9099 5.7
    endloop
  endfacet
  facet normal -0.207912 0.978148 0
    outer loop
      vertex 3.38992 -10.4331 14.7
      vertex 3.38992 -10.4331 5.7
      vertex 1.14668 -10.9099 14.7
    endloop
  endfacet
  facet normal -0.207912 0.978148 0
    outer loop
      vertex 1.14668 -10.9099 14.7
      vertex 3.38992 -10.4331 5.7
      vertex 1.14668 -10.9099 5.7
    endloop
  endfacet
  facet normal -0.406736 0.913546 0
    outer loop
      vertex 5.485 -9.5003 14.7
      vertex 5.485 -9.5003 5.7
      vertex 3.38992 -10.4331 14.7
    endloop
  endfacet
  facet normal -0.406736 0.913546 0
    outer loop
      vertex 3.38992 -10.4331 14.7
      vertex 5.485 -9.5003 5.7
      vertex 3.38992 -10.4331 5.7
    endloop
  endfacet
  facet normal -0.587785 0.809017 0
    outer loop
      vertex 7.34036 -8.1523 14.7
      vertex 7.34036 -8.1523 5.7
      vertex 5.485 -9.5003 14.7
    endloop
  endfacet
  facet normal -0.587785 0.809017 0
    outer loop
      vertex 5.485 -9.5003 14.7
      vertex 7.34036 -8.1523 5.7
      vertex 5.485 -9.5003 5.7
    endloop
  endfacet
  facet normal -0.743145 0.66913 0
    outer loop
      vertex 8.87492 -6.448 14.7
      vertex 8.87492 -6.448 5.7
      vertex 7.34036 -8.1523 14.7
    endloop
  endfacet
  facet normal -0.743145 0.66913 0
    outer loop
      vertex 7.34036 -8.1523 14.7
      vertex 8.87492 -6.448 5.7
      vertex 7.34036 -8.1523 5.7
    endloop
  endfacet
  facet normal -0.866025 0.5 0
    outer loop
      vertex 10.0216 -4.4619 14.7
      vertex 10.0216 -4.4619 5.7
      vertex 8.87492 -6.448 14.7
    endloop
  endfacet
  facet normal -0.866025 0.5 0
    outer loop
      vertex 8.87492 -6.448 14.7
      vertex 10.0216 -4.4619 5.7
      vertex 8.87492 -6.448 5.7
    endloop
  endfacet
  facet normal -0.951057 0.309017 0
    outer loop
      vertex 10.7303 -2.28079 14.7
      vertex 10.7303 -2.28079 5.7
      vertex 10.0216 -4.4619 14.7
    endloop
  endfacet
  facet normal -0.951057 0.309017 0
    outer loop
      vertex 10.0216 -4.4619 14.7
      vertex 10.7303 -2.28079 5.7
      vertex 10.0216 -4.4619 5.7
    endloop
  endfacet
  facet normal -0.994522 0.104529 0
    outer loop
      vertex 10.97 0 14.7
      vertex 10.97 0 5.7
      vertex 10.7303 -2.28079 14.7
    endloop
  endfacet
  facet normal -0.994522 0.104529 0
    outer loop
      vertex 10.7303 -2.28079 14.7
      vertex 10.97 0 5.7
      vertex 10.7303 -2.28079 5.7
    endloop
  endfacet
  facet normal -0.994522 -0.104529 0
    outer loop
      vertex 10.97 0 14.7
      vertex 10.7303 2.28079 14.7
      vertex 10.97 0 5.7
    endloop
  endfacet
  facet normal -0.994522 -0.104529 0
    outer loop
      vertex 10.97 0 5.7
      vertex 10.7303 2.28079 14.7
      vertex 10.7303 2.28079 5.7
    endloop
  endfacet
  facet normal -0.951057 -0.309017 0
    outer loop
      vertex 10.7303 2.28079 14.7
      vertex 10.0216 4.4619 14.7
      vertex 10.7303 2.28079 5.7
    endloop
  endfacet
  facet normal -0.951057 -0.309017 0
    outer loop
      vertex 10.7303 2.28079 5.7
      vertex 10.0216 4.4619 14.7
      vertex 10.0216 4.4619 5.7
    endloop
  endfacet
  facet normal -0.866025 -0.5 0
    outer loop
      vertex 10.0216 4.4619 14.7
      vertex 8.87492 6.448 14.7
      vertex 10.0216 4.4619 5.7
    endloop
  endfacet
  facet normal -0.866025 -0.5 0
    outer loop
      vertex 10.0216 4.4619 5.7
      vertex 8.87492 6.448 14.7
      vertex 8.87492 6.448 5.7
    endloop
  endfacet
  facet normal -0.743145 -0.66913 0
    outer loop
      vertex 8.87492 6.448 14.7
      vertex 7.34036 8.1523 14.7
      vertex 8.87492 6.448 5.7
    endloop
  endfacet
  facet normal -0.743145 -0.66913 0
    outer loop
      vertex 8.87492 6.448 5.7
      vertex 7.34036 8.1523 14.7
      vertex 7.34036 8.1523 5.7
    endloop
  endfacet
  facet normal -0.587785 -0.809017 0
    outer loop
      vertex 7.34036 8.1523 5.7
      vertex 7.34036 8.1523 14.7
      vertex 5.485 9.5003 14.7
    endloop
  endfacet
  facet normal -0.587785 -0.809017 0
    outer loop
      vertex 5.485 9.5003 5.7
      vertex 7.34036 8.1523 5.7
      vertex 5.485 9.5003 14.7
    endloop
  endfacet
  facet normal -0.406736 -0.913546 0
    outer loop
      vertex 5.485 9.5003 5.7
      vertex 5.485 9.5003 14.7
      vertex 3.38992 10.4331 14.7
    endloop
  endfacet
  facet normal -0.406736 -0.913546 0
    outer loop
      vertex 3.38992 10.4331 5.7
      vertex 5.485 9.5003 5.7
      vertex 3.38992 10.4331 14.7
    endloop
  endfacet
  facet normal -0.207912 -0.978148 0
    outer loop
      vertex 3.38992 10.4331 5.7
      vertex 3.38992 10.4331 14.7
      vertex 1.14668 10.9099 14.7
    endloop
  endfacet
  facet normal -0.207912 -0.978148 0
    outer loop
      vertex 1.14668 10.9099 5.7
      vertex 3.38992 10.4331 5.7
      vertex 1.14668 10.9099 14.7
    endloop
  endfacet
  facet normal 0 -1 0
    outer loop
      vertex 1.14668 10.9099 5.7
      vertex 1.14668 10.9099 14.7
      vertex -1.14668 10.9099 14.7
    endloop
  endfacet
  facet normal 0 -1 0
    outer loop
      vertex -1.14668 10.9099 5.7
      vertex 1.14668 10.9099 5.7
      vertex -1.14668 10.9099 14.7
    endloop
  endfacet
  facet normal 0.207912 -0.978148 0
    outer loop
      vertex -1.14668 10.9099 5.7
      vertex -1.14668 10.9099 14.7
      vertex -3.38992 10.4331 14.7
    endloop
  endfacet
  facet normal 0.207912 -0.978148 0
    outer loop
      vertex -3.38992 10.4331 5.7
      vertex -1.14668 10.9099 5.7
      vertex -3.38992 10.4331 14.7
    endloop
  endfacet
  facet normal 0.406736 -0.913546 0
    outer loop
      vertex -3.38992 10.4331 5.7
      vertex -3.38992 10.4331 14.7
      vertex -5.485 9.5003 14.7
    endloop
  endfacet
  facet normal 0.406736 -0.913546 0
    outer loop
      vertex -5.485 9.5003 5.7
      vertex -3.38992 10.4331 5.7
      vertex -5.485 9.5003 14.7
    endloop
  endfacet
  facet normal 0.587785 -0.809017 0
    outer loop
      vertex -5.485 9.5003 5.7
      vertex -5.485 9.5003 14.7
      vertex -7.34036 8.1523 14.7
    endloop
  endfacet
  facet normal 0.587785 -0.809017 0
    outer loop
      vertex -7.34036 8.1523 5.7
      vertex -5.485 9.5003 5.7
      vertex -7.34036 8.1523 14.7
    endloop
  endfacet
  facet normal 0.743145 -0.66913 0
    outer loop
      vertex -7.34036 8.1523 5.7
      vertex -7.34036 8.1523 14.7
      vertex -8.87492 6.448 14.7
    endloop
  endfacet
  facet normal 0.743145 -0.66913 0
    outer loop
      vertex -8.87492 6.448 5.7
      vertex -7.34036 8.1523 5.7
      vertex -8.87492 6.448 14.7
    endloop
  endfacet
  facet normal 0.866025 -0.5 0
    outer loop
      vertex -8.87492 6.448 5.7
      vertex -8.87492 6.448 14.7
      vertex -10.0216 4.4619 14.7
    endloop
  endfacet
  facet normal 0.866025 -0.5 0
    outer loop
      vertex -10.0216 4.4619 5.7
      vertex -8.87492 6.448 5.7
      vertex -10.0216 4.4619 14.7
    endloop
  endfacet
  facet normal 0.951057 -0.309017 0
    outer loop
      vertex -10.0216 4.4619 5.7
      vertex -10.0216 4.4619 14.7
      vertex -10.7303 2.28079 14.7
    endloop
  endfacet
  facet normal 0.951057 -0.309017 0
    outer loop
      vertex -10.7303 2.28079 5.7
      vertex -10.0216 4.4619 5.7
      vertex -10.7303 2.28079 14.7
    endloop
  endfacet
  facet normal 0.994522 -0.104529 0
    outer loop
      vertex -10.7303 2.28079 5.7
      vertex -10.7303 2.28079 14.7
      vertex -10.97 0 14.7
    endloop
  endfacet
  facet normal 0.994522 -0.104529 0
    outer loop
      vertex -10.97 0 5.7
      vertex -10.7303 2.28079 5.7
      vertex -10.97 0 14.7
    endloop
  endfacet
  facet normal 0.92388 0.382683 0
    outer loop
      vertex 7.64533 10.1653 14.7
      vertex 8.38342 8.38342 14.7
      vertex 8.38342 8.38342 0
    endloop
  endfacet
  facet normal 0.92388 0.382683 0
    outer loop
      vertex 7.64533 10.1653 0
      vertex 7.64533 10.1653 14.7
      vertex 8.38342 8.38342 0
    endloop
  endfacet
  facet normal 0.382683 0.92388 0
    outer loop
      vertex 10.1653 7.64533 14.7
      vertex 10.1653 7.64533 0
      vertex 8.38342 8.38342 14.7
    endloop
  endfacet
  facet normal 0.382683 0.92388 0
    outer loop
      vertex 8.38342 8.38342 14.7
      vertex 10.1653 7.64533 0
      vertex 8.38342 8.38342 0
    endloop
  endfacet
  facet normal -0.382683 0.92388 0
    outer loop
      vertex 11.9472 8.38342 14.7
      vertex 11.9472 8.38342 0
      vertex 10.1653 7.64533 14.7
    endloop
  endfacet
  facet normal -0.382683 0.92388 0
    outer loop
      vertex 10.1653 7.64533 14.7
      vertex 11.9472 8.38342 0
      vertex 10.1653 7.64533 0
    endloop
  endfacet
  facet normal -0.92388 0.382683 0
    outer loop
      vertex 12.6853 10.1653 14.7
      vertex 12.6853 10.1653 0
      vertex 11.9472 8.38342 14.7
    endloop
  endfacet
  facet normal -0.92388 0.382683 0
    outer loop
      vertex 11.9472 8.38342 14.7
      vertex 12.6853 10.1653 0
      vertex 11.9472 8.38342 0
    endloop
  endfacet
  facet normal -0.92388 -0.382683 0
    outer loop
      vertex 12.6853 10.1653 14.7
      vertex 11.9472 11.9472 14.7
      vertex 12.6853 10.1653 0
    endloop
  endfacet
  facet normal -0.92388 -0.382683 0
    outer loop
      vertex 12.6853 10.1653 0
      vertex 11.9472 11.9472 14.7
      vertex 11.9472 11.9472 0
    endloop
  endfacet
  facet normal -0.382683 -0.92388 0
    outer loop
      vertex 11.9472 11.9472 0
      vertex 11.9472 11.9472 14.7
      vertex 10.1653 12.6853 14.7
    endloop
  endfacet
  facet normal -0.382683 -0.92388 0
    outer loop
      vertex 10.1653 12.6853 0
      vertex 11.9472 11.9472 0
      vertex 10.1653 12.6853 14.7
    endloop
  endfacet
  facet normal 0.382683 -0.92388 0
    outer loop
      vertex 10.1653 12.6853 0
      vertex 10.1653 12.6853 14.7
      vertex 8.38342 11.9472 14.7
    endloop
  endfacet
  facet normal 0.382683 -0.92388 0
    outer loop
      vertex 8.38342 11.9472 0
      vertex 10.1653 12.6853 0
      vertex 8.38342 11.9472 14.7
    endloop
  endfacet
  facet normal 0.92388 -0.382683 0
    outer loop
      vertex 8.38342 11.9472 0
      vertex 8.38342 11.9472 14.7
      vertex 7.64533 10.1653 14.7
    endloop
  endfacet
  facet normal 0.92388 -0.382683 0
    outer loop
      vertex 7.64533 10.1653 0
      vertex 8.38342 11.9472 0
      vertex 7.64533 10.1653 14.7
    endloop
  endfacet
  facet normal 0 0 -1
    outer loop
      vertex -17.4717 0 0
      vertex -17.0899 3.63256 0
      vertex -17.0899 -3.63256 0
    endloop
  endfacet
  facet normal 0 0 -1
    outer loop
      vertex -17.0899 -3.63256 0
      vertex -17.0899 3.63256 0
      vertex -15.9612 7.10637 0
    endloop
  endfacet
  facet normal 0 0 -1
    outer loop
      vertex -17.0899 -3.63256 0
      vertex -15.9612 7.10637 0
      vertex -14.1349 10.2696 0
    endloop
  endfacet
  facet normal 0 0 -1
    outer loop
      vertex -17.0899 -3.63256 0
      vertex -14.1349 10.2696 0
      vertex -11.6908 12.984 0
    endloop
  endfacet
  facet normal 0 0 -1
    outer loop
      vertex -17.0899 -3.63256 0
      vertex -11.6908 12.984 0
      vertex -8.73583 15.1309 0
    endloop
  endfacet
  facet normal 0 0 -1
    outer loop
      vertex -17.0899 -3.63256 0
      vertex -8.73583 15.1309 0
      vertex -5.39904 16.6165 0
    endloop
  endfacet
  facet normal 0 0 -1
    outer loop
      vertex -17.0899 -3.63256 0
      vertex -5.39904 16.6165 0
      vertex -1.82629 17.376 0
    endloop
  endfacet
  facet normal 0 0 -1
    outer loop
      vertex -17.0899 -3.63256 0
      vertex -1.82629 17.376 0
      vertex 1.82629 17.376 0
    endloop
  endfacet
  facet normal 0 0 -1
    outer loop
      vertex -5.47175 6.86135 0
      vertex 1.82629 17.376 0
      vertex 5.39904 16.6165 0
    endloop
  endfacet
  facet normal 0 0 -1
    outer loop
      vertex -1.95284 8.55597 0
      vertex 5.39904 16.6165 0
      vertex 8.73583 15.1309 0
    endloop
  endfacet
  facet normal 0 0 -1
    outer loop
      vertex 10.1653 12.6853 0
      vertex 8.73583 15.1309 0
      vertex 11.6908 12.984 0
    endloop
  endfacet
  facet normal 0 0 -1
    outer loop
      vertex 12.6853 10.1653 0
      vertex 11.6908 12.984 0
      vertex 14.1349 10.2696 0
    endloop
  endfacet
  facet normal 0 0 -1
    outer loop
      vertex 11.9472 8.38342 0
      vertex 14.1349 10.2696 0
      vertex 15.9612 7.10637 0
    endloop
  endfacet
  facet normal 0 0 -1
    outer loop
      vertex 8.55597 1.95284 0
      vertex 15.9612 7.10637 0
      vertex 17.0899 3.63256 0
    endloop
  endfacet
  facet normal 0 0 -1
    outer loop
      vertex 8.776 0 0
      vertex 17.0899 3.63256 0
      vertex 17.4717 0 0
    endloop
  endfacet
  facet normal 0 0 -1
    outer loop
      vertex 8.55597 -1.95284 0
      vertex 17.4717 0 0
      vertex 17.0899 -3.63256 0
    endloop
  endfacet
  facet normal 0 0 -1
    outer loop
      vertex 6.86135 -5.47175 0
      vertex 17.0899 -3.63256 0
      vertex 15.9612 -7.10637 0
    endloop
  endfacet
  facet normal 0 0 -1
    outer loop
      vertex 3.80776 -7.9069 0
      vertex 15.9612 -7.10637 0
      vertex 14.1349 -10.2696 0
    endloop
  endfacet
  facet normal 0 0 -1
    outer loop
      vertex 0 -8.776 0
      vertex 14.1349 -10.2696 0
      vertex 11.6908 -12.984 0
    endloop
  endfacet
  facet normal 0 0 -1
    outer loop
      vertex -1.95284 -8.55597 0
      vertex 11.6908 -12.984 0
      vertex 8.73583 -15.1309 0
    endloop
  endfacet
  facet normal 0 0 -1
    outer loop
      vertex -8.38342 -8.38342 0
      vertex 8.73583 -15.1309 0
      vertex 5.39904 -16.6165 0
    endloop
  endfacet
  facet normal 0 0 -1
    outer loop
      vertex -7.64533 -10.1653 0
      vertex 5.39904 -16.6165 0
      vertex 1.82629 -17.376 0
    endloop
  endfacet
  facet normal 0 0 -1
    outer loop
      vertex -10.1653 -7.64533 0
      vertex -17.0899 -3.63256 0
      vertex -8.38342 -8.38342 0
    endloop
  endfacet
  facet normal 0 0 -1
    outer loop
      vertex -8.38342 -11.9472 0
      vertex -1.82629 -17.376 0
      vertex -5.39904 -16.6165 0
    endloop
  endfacet
  facet normal 0 0 -1
    outer loop
      vertex -10.1653 -12.6853 0
      vertex -5.39904 -16.6165 0
      vertex -8.73583 -15.1309 0
    endloop
  endfacet
  facet normal 0 0 -1
    outer loop
      vertex -11.9472 -11.9472 0
      vertex -8.73583 -15.1309 0
      vertex -11.6908 -12.984 0
    endloop
  endfacet
  facet normal 0 0 -1
    outer loop
      vertex -17.0899 -3.63256 0
      vertex -11.6908 -12.984 0
      vertex -14.1349 -10.2696 0
    endloop
  endfacet
  facet normal 0 0 -1
    outer loop
      vertex -17.0899 -3.63256 0
      vertex -14.1349 -10.2696 0
      vertex -15.9612 -7.10637 0
    endloop
  endfacet
  facet normal 0 0 -1
    outer loop
      vertex -10.1653 -12.6853 0
      vertex -8.73583 -15.1309 0
      vertex -11.9472 -11.9472 0
    endloop
  endfacet
  facet normal 0 0 -1
    outer loop
      vertex -17.0899 -3.63256 0
      vertex -12.6853 -10.1653 0
      vertex -11.6908 -12.984 0
    endloop
  endfacet
  facet normal 0 0 -1
    outer loop
      vertex -12.6853 -10.1653 0
      vertex -11.9472 -11.9472 0
      vertex -11.6908 -12.984 0
    endloop
  endfacet
  facet normal 0 0 -1
    outer loop
      vertex -8.776 0 0
      vertex -17.0899 -3.63256 0
      vertex -8.55597 1.95284 0
    endloop
  endfacet
  facet normal 0 0 -1
    outer loop
      vertex 7.64533 10.1653 0
      vertex 1.95284 8.55597 0
      vertex 8.38342 11.9472 0
    endloop
  endfacet
  facet normal 0 0 -1
    outer loop
      vertex -8.38342 -8.38342 0
      vertex 5.39904 -16.6165 0
      vertex -7.64533 -10.1653 0
    endloop
  endfacet
  facet normal 0 0 -1
    outer loop
      vertex -17.0899 -3.63256 0
      vertex 8.73583 -15.1309 0
      vertex -8.38342 -8.38342 0
    endloop
  endfacet
  facet normal 0 0 -1
    outer loop
      vertex -11.9472 -8.38342 0
      vertex -17.0899 -3.63256 0
      vertex -10.1653 -7.64533 0
    endloop
  endfacet
  facet normal 0 0 -1
    outer loop
      vertex -1.95284 8.55597 0
      vertex 8.73583 15.1309 0
      vertex 0 8.776 0
    endloop
  endfacet
  facet normal 0 0 -1
    outer loop
      vertex -8.55597 -1.95284 0
      vertex -17.0899 -3.63256 0
      vertex -8.776 0 0
    endloop
  endfacet
  facet normal 0 0 -1
    outer loop
      vertex -7.9069 -3.80776 0
      vertex -17.0899 -3.63256 0
      vertex -8.55597 -1.95284 0
    endloop
  endfacet
  facet normal 0 0 -1
    outer loop
      vertex -6.86135 -5.47175 0
      vertex -17.0899 -3.63256 0
      vertex -7.9069 -3.80776 0
    endloop
  endfacet
  facet normal 0 0 -1
    outer loop
      vertex -5.47175 -6.86135 0
      vertex -17.0899 -3.63256 0
      vertex -6.86135 -5.47175 0
    endloop
  endfacet
  facet normal 0 0 -1
    outer loop
      vertex -1.95284 -8.55597 0
      vertex -17.0899 -3.63256 0
      vertex -3.80776 -7.9069 0
    endloop
  endfacet
  facet normal 0 0 -1
    outer loop
      vertex -17.0899 -3.63256 0
      vertex -5.47175 -6.86135 0
      vertex -3.80776 -7.9069 0
    endloop
  endfacet
  facet normal 0 0 -1
    outer loop
      vertex 0 -8.776 0
      vertex 11.6908 -12.984 0
      vertex -1.95284 -8.55597 0
    endloop
  endfacet
  facet normal 0 0 -1
    outer loop
      vertex -17.0899 -3.63256 0
      vertex -1.95284 -8.55597 0
      vertex 8.73583 -15.1309 0
    endloop
  endfacet
  facet normal 0 0 -1
    outer loop
      vertex 1.95284 -8.55597 0
      vertex 14.1349 -10.2696 0
      vertex 0 -8.776 0
    endloop
  endfacet
  facet normal 0 0 -1
    outer loop
      vertex 3.80776 -7.9069 0
      vertex 14.1349 -10.2696 0
      vertex 1.95284 -8.55597 0
    endloop
  endfacet
  facet normal 0 0 -1
    outer loop
      vertex 5.47175 -6.86135 0
      vertex 15.9612 -7.10637 0
      vertex 3.80776 -7.9069 0
    endloop
  endfacet
  facet normal 0 0 -1
    outer loop
      vertex 6.86135 -5.47175 0
      vertex 15.9612 -7.10637 0
      vertex 5.47175 -6.86135 0
    endloop
  endfacet
  facet normal 0 0 -1
    outer loop
      vertex 7.9069 -3.80776 0
      vertex 17.0899 -3.63256 0
      vertex 6.86135 -5.47175 0
    endloop
  endfacet
  facet normal 0 0 -1
    outer loop
      vertex 8.55597 -1.95284 0
      vertex 17.0899 -3.63256 0
      vertex 7.9069 -3.80776 0
    endloop
  endfacet
  facet normal 0 0 -1
    outer loop
      vertex 8.55597 1.95284 0
      vertex 17.0899 3.63256 0
      vertex 8.776 0 0
    endloop
  endfacet
  facet normal 0 0 -1
    outer loop
      vertex 7.9069 3.80776 0
      vertex 15.9612 7.10637 0
      vertex 8.55597 1.95284 0
    endloop
  endfacet
  facet normal 0 0 -1
    outer loop
      vertex 8.776 0 0
      vertex 17.4717 0 0
      vertex 8.55597 -1.95284 0
    endloop
  endfacet
  facet normal 0 0 -1
    outer loop
      vertex 10.1653 7.64533 0
      vertex 5.47175 6.86135 0
      vertex 8.38342 8.38342 0
    endloop
  endfacet
  facet normal 0 0 -1
    outer loop
      vertex 6.86135 5.47175 0
      vertex 15.9612 7.10637 0
      vertex 7.9069 3.80776 0
    endloop
  endfacet
  facet normal 0 0 -1
    outer loop
      vertex 0 8.776 0
      vertex 8.73583 15.1309 0
      vertex 1.95284 8.55597 0
    endloop
  endfacet
  facet normal 0 0 -1
    outer loop
      vertex -6.86135 5.47175 0
      vertex -17.0899 -3.63256 0
      vertex -5.47175 6.86135 0
    endloop
  endfacet
  facet normal 0 0 -1
    outer loop
      vertex -3.80776 7.9069 0
      vertex 5.39904 16.6165 0
      vertex -1.95284 8.55597 0
    endloop
  endfacet
  facet normal 0 0 -1
    outer loop
      vertex -5.47175 6.86135 0
      vertex 5.39904 16.6165 0
      vertex -3.80776 7.9069 0
    endloop
  endfacet
  facet normal 0 0 -1
    outer loop
      vertex -17.0899 -3.63256 0
      vertex 1.82629 17.376 0
      vertex -5.47175 6.86135 0
    endloop
  endfacet
  facet normal 0 0 -1
    outer loop
      vertex -7.9069 3.80776 0
      vertex -17.0899 -3.63256 0
      vertex -6.86135 5.47175 0
    endloop
  endfacet
  facet normal 0 0 -1
    outer loop
      vertex -8.55597 1.95284 0
      vertex -17.0899 -3.63256 0
      vertex -7.9069 3.80776 0
    endloop
  endfacet
  facet normal 0 0 -1
    outer loop
      vertex 7.64533 10.1653 0
      vertex 3.80776 7.9069 0
      vertex 1.95284 8.55597 0
    endloop
  endfacet
  facet normal 0 0 -1
    outer loop
      vertex 8.38342 8.38342 0
      vertex 5.47175 6.86135 0
      vertex 7.64533 10.1653 0
    endloop
  endfacet
  facet normal 0 0 -1
    outer loop
      vertex 3.80776 7.9069 0
      vertex 7.64533 10.1653 0
      vertex 5.47175 6.86135 0
    endloop
  endfacet
  facet normal 0 0 -1
    outer loop
      vertex 10.1653 7.64533 0
      vertex 6.86135 5.47175 0
      vertex 5.47175 6.86135 0
    endloop
  endfacet
  facet normal 0 0 -1
    outer loop
      vertex 12.6853 10.1653 0
      vertex 14.1349 10.2696 0
      vertex 11.9472 8.38342 0
    endloop
  endfacet
  facet normal 0 0 -1
    outer loop
      vertex 6.86135 5.47175 0
      vertex 10.1653 7.64533 0
      vertex 15.9612 7.10637 0
    endloop
  endfacet
  facet normal 0 0 -1
    outer loop
      vertex 10.1653 7.64533 0
      vertex 11.9472 8.38342 0
      vertex 15.9612 7.10637 0
    endloop
  endfacet
  facet normal 0 0 -1
    outer loop
      vertex 11.9472 11.9472 0
      vertex 11.6908 12.984 0
      vertex 12.6853 10.1653 0
    endloop
  endfacet
  facet normal 0 0 -1
    outer loop
      vertex 10.1653 12.6853 0
      vertex 11.6908 12.984 0
      vertex 11.9472 11.9472 0
    endloop
  endfacet
  facet normal 0 0 -1
    outer loop
      vertex 8.38342 11.9472 0
      vertex 8.73583 15.1309 0
      vertex 10.1653 12.6853 0
    endloop
  endfacet
  facet normal 0 0 -1
    outer loop
      vertex 1.95284 8.55597 0
      vertex 8.73583 15.1309 0
      vertex 8.38342 11.9472 0
    endloop
  endfacet
  facet normal 0 0 -1
    outer loop
      vertex -12.6853 -10.1653 0
      vertex -17.0899 -3.63256 0
      vertex -11.9472 -8.38342 0
    endloop
  endfacet
  facet normal 0 0 -1
    outer loop
      vertex -7.64533 -10.1653 0
      vertex 1.82629 -17.376 0
      vertex -1.82629 -17.376 0
    endloop
  endfacet
  facet normal 0 0 -1
    outer loop
      vertex -7.64533 -10.1653 0
      vertex -1.82629 -17.376 0
      vertex -8.38342 -11.9472 0
    endloop
  endfacet
  facet normal 0 0 -1
    outer loop
      vertex -8.38342 -11.9472 0
      vertex -5.39904 -16.6165 0
      vertex -10.1653 -12.6853 0
    endloop
  endfacet
  facet normal 0 0 1
    outer loop
      vertex -10.7303 2.28079 5.7
      vertex -10.97 0 5.7
      vertex -10.7303 -2.28079 5.7
    endloop
  endfacet
  facet normal 0 0 1
    outer loop
      vertex -8.87492 -6.448 5.7
      vertex -10.7303 2.28079 5.7
      vertex -10.0216 -4.4619 5.7
    endloop
  endfacet
  facet normal 0 0 1
    outer loop
      vertex -10.0216 -4.4619 5.7
      vertex -10.7303 2.28079 5.7
      vertex -10.7303 -2.28079 5.7
    endloop
  endfacet
  facet normal 0 0 1
    outer loop
      vertex -7.34036 -8.1523 5.7
      vertex -10.7303 2.28079 5.7
      vertex -8.87492 -6.448 5.7
    endloop
  endfacet
  facet normal 0 0 1
    outer loop
      vertex -5.485 -9.5003 5.7
      vertex -10.7303 2.28079 5.7
      vertex -7.34036 -8.1523 5.7
    endloop
  endfacet
  facet normal 0 0 1
    outer loop
      vertex -7.9069 -3.80776 5.7
      vertex -10.7303 2.28079 5.7
      vertex -5.485 -9.5003 5.7
    endloop
  endfacet
  facet normal 0 0 1
    outer loop
      vertex -8.55597 1.95284 5.7
      vertex -7.9069 3.80776 5.7
      vertex -10.7303 2.28079 5.7
    endloop
  endfacet
  facet normal 0 0 1
    outer loop
      vertex 0 -8.776 5.7
      vertex -1.95284 -8.55597 5.7
      vertex 1.14668 -10.9099 5.7
    endloop
  endfacet
  facet normal 0 0 1
    outer loop
      vertex 7.9069 3.80776 5.7
      vertex 8.55597 1.95284 5.7
      vertex 10.7303 2.28079 5.7
    endloop
  endfacet
  facet normal 0 0 1
    outer loop
      vertex -7.9069 3.80776 5.7
      vertex -6.86135 5.47175 5.7
      vertex -10.7303 2.28079 5.7
    endloop
  endfacet
  facet normal 0 0 1
    outer loop
      vertex 1.95284 8.55597 5.7
      vertex 3.80776 7.9069 5.7
      vertex 5.485 9.5003 5.7
    endloop
  endfacet
  facet normal 0 0 1
    outer loop
      vertex -3.38992 10.4331 5.7
      vertex -10.7303 2.28079 5.7
      vertex -1.14668 10.9099 5.7
    endloop
  endfacet
  facet normal 0 0 1
    outer loop
      vertex -5.485 9.5003 5.7
      vertex -10.7303 2.28079 5.7
      vertex -3.38992 10.4331 5.7
    endloop
  endfacet
  facet normal 0 0 1
    outer loop
      vertex -7.34036 8.1523 5.7
      vertex -10.7303 2.28079 5.7
      vertex -5.485 9.5003 5.7
    endloop
  endfacet
  facet normal 0 0 1
    outer loop
      vertex -8.87492 6.448 5.7
      vertex -10.7303 2.28079 5.7
      vertex -7.34036 8.1523 5.7
    endloop
  endfacet
  facet normal 0 0 1
    outer loop
      vertex -10.0216 4.4619 5.7
      vertex -10.7303 2.28079 5.7
      vertex -8.87492 6.448 5.7
    endloop
  endfacet
  facet normal 0 0 1
    outer loop
      vertex 5.47175 -6.86135 5.7
      vertex 3.80776 -7.9069 5.7
      vertex 7.34036 -8.1523 5.7
    endloop
  endfacet
  facet normal 0 0 1
    outer loop
      vertex -3.80776 -7.9069 5.7
      vertex -5.47175 -6.86135 5.7
      vertex -3.38992 -10.4331 5.7
    endloop
  endfacet
  facet normal 0 0 1
    outer loop
      vertex 8.55597 -1.95284 5.7
      vertex 7.9069 -3.80776 5.7
      vertex 10.0216 -4.4619 5.7
    endloop
  endfacet
  facet normal 0 0 1
    outer loop
      vertex 3.80776 7.9069 5.7
      vertex 5.47175 6.86135 5.7
      vertex 7.34036 8.1523 5.7
    endloop
  endfacet
  facet normal 0 0 1
    outer loop
      vertex 0 8.776 5.7
      vertex 1.95284 8.55597 5.7
      vertex 3.38992 10.4331 5.7
    endloop
  endfacet
  facet normal 0 0 1
    outer loop
      vertex -5.47175 6.86135 5.7
      vertex -10.7303 2.28079 5.7
      vertex -6.86135 5.47175 5.7
    endloop
  endfacet
  facet normal 0 0 1
    outer loop
      vertex -3.80776 7.9069 5.7
      vertex -1.95284 8.55597 5.7
      vertex 1.14668 10.9099 5.7
    endloop
  endfacet
  facet normal 0 0 1
    outer loop
      vertex -1.14668 10.9099 5.7
      vertex -10.7303 2.28079 5.7
      vertex -5.47175 6.86135 5.7
    endloop
  endfacet
  facet normal 0 0 1
    outer loop
      vertex -1.14668 10.9099 5.7
      vertex -3.80776 7.9069 5.7
      vertex 1.14668 10.9099 5.7
    endloop
  endfacet
  facet normal 0 0 1
    outer loop
      vertex 1.14668 10.9099 5.7
      vertex -1.95284 8.55597 5.7
      vertex 3.38992 10.4331 5.7
    endloop
  endfacet
  facet normal 0 0 1
    outer loop
      vertex -5.47175 6.86135 5.7
      vertex -3.80776 7.9069 5.7
      vertex -1.14668 10.9099 5.7
    endloop
  endfacet
  facet normal 0 0 1
    outer loop
      vertex -1.95284 8.55597 5.7
      vertex 0 8.776 5.7
      vertex 3.38992 10.4331 5.7
    endloop
  endfacet
  facet normal 0 0 1
    outer loop
      vertex 8.55597 1.95284 5.7
      vertex 8.776 0 5.7
      vertex 10.97 0 5.7
    endloop
  endfacet
  facet normal 0 0 1
    outer loop
      vertex 3.38992 10.4331 5.7
      vertex 1.95284 8.55597 5.7
      vertex 5.485 9.5003 5.7
    endloop
  endfacet
  facet normal 0 0 1
    outer loop
      vertex 5.485 9.5003 5.7
      vertex 3.80776 7.9069 5.7
      vertex 7.34036 8.1523 5.7
    endloop
  endfacet
  facet normal 0 0 1
    outer loop
      vertex 7.34036 8.1523 5.7
      vertex 5.47175 6.86135 5.7
      vertex 8.87492 6.448 5.7
    endloop
  endfacet
  facet normal 0 0 1
    outer loop
      vertex 8.87492 6.448 5.7
      vertex 6.86135 5.47175 5.7
      vertex 10.0216 4.4619 5.7
    endloop
  endfacet
  facet normal 0 0 1
    outer loop
      vertex 10.0216 4.4619 5.7
      vertex 7.9069 3.80776 5.7
      vertex 10.7303 2.28079 5.7
    endloop
  endfacet
  facet normal 0 0 1
    outer loop
      vertex 10.7303 2.28079 5.7
      vertex 8.55597 1.95284 5.7
      vertex 10.97 0 5.7
    endloop
  endfacet
  facet normal 0 0 1
    outer loop
      vertex 10.97 0 5.7
      vertex 8.776 0 5.7
      vertex 10.7303 -2.28079 5.7
    endloop
  endfacet
  facet normal 0 0 1
    outer loop
      vertex 10.7303 -2.28079 5.7
      vertex 8.55597 -1.95284 5.7
      vertex 10.0216 -4.4619 5.7
    endloop
  endfacet
  facet normal 0 0 1
    outer loop
      vertex 5.47175 6.86135 5.7
      vertex 6.86135 5.47175 5.7
      vertex 8.87492 6.448 5.7
    endloop
  endfacet
  facet normal 0 0 1
    outer loop
      vertex 10.0216 -4.4619 5.7
      vertex 7.9069 -3.80776 5.7
      vertex 8.87492 -6.448 5.7
    endloop
  endfacet
  facet normal 0 0 1
    outer loop
      vertex 6.86135 5.47175 5.7
      vertex 7.9069 3.80776 5.7
      vertex 10.0216 4.4619 5.7
    endloop
  endfacet
  facet normal 0 0 1
    outer loop
      vertex 7.9069 -3.80776 5.7
      vertex 6.86135 -5.47175 5.7
      vertex 8.87492 -6.448 5.7
    endloop
  endfacet
  facet normal 0 0 1
    outer loop
      vertex 8.87492 -6.448 5.7
      vertex 5.47175 -6.86135 5.7
      vertex 7.34036 -8.1523 5.7
    endloop
  endfacet
  facet normal 0 0 1
    outer loop
      vertex 7.34036 -8.1523 5.7
      vertex 3.80776 -7.9069 5.7
      vertex 5.485 -9.5003 5.7
    endloop
  endfacet
  facet normal 0 0 1
    outer loop
      vertex 5.485 -9.5003 5.7
      vertex 1.95284 -8.55597 5.7
      vertex 3.38992 -10.4331 5.7
    endloop
  endfacet
  facet normal 0 0 1
    outer loop
      vertex 8.776 0 5.7
      vertex 8.55597 -1.95284 5.7
      vertex 10.7303 -2.28079 5.7
    endloop
  endfacet
  facet normal 0 0 1
    outer loop
      vertex 3.38992 -10.4331 5.7
      vertex 0 -8.776 5.7
      vertex 1.14668 -10.9099 5.7
    endloop
  endfacet
  facet normal 0 0 1
    outer loop
      vertex 1.14668 -10.9099 5.7
      vertex -1.95284 -8.55597 5.7
      vertex -1.14668 -10.9099 5.7
    endloop
  endfacet
  facet normal 0 0 1
    outer loop
      vertex -1.14668 -10.9099 5.7
      vertex -3.80776 -7.9069 5.7
      vertex -3.38992 -10.4331 5.7
    endloop
  endfacet
  facet normal 0 0 1
    outer loop
      vertex 6.86135 -5.47175 5.7
      vertex 5.47175 -6.86135 5.7
      vertex 8.87492 -6.448 5.7
    endloop
  endfacet
  facet normal 0 0 1
    outer loop
      vertex -6.86135 -5.47175 5.7
      vertex -7.9069 -3.80776 5.7
      vertex -5.485 -9.5003 5.7
    endloop
  endfacet
  facet normal 0 0 1
    outer loop
      vertex -3.38992 -10.4331 5.7
      vertex -6.86135 -5.47175 5.7
      vertex -5.485 -9.5003 5.7
    endloop
  endfacet
  facet normal 0 0 1
    outer loop
      vertex -8.55597 -1.95284 5.7
      vertex -10.7303 2.28079 5.7
      vertex -7.9069 -3.80776 5.7
    endloop
  endfacet
  facet normal 0 0 1
    outer loop
      vertex -5.47175 -6.86135 5.7
      vertex -6.86135 -5.47175 5.7
      vertex -3.38992 -10.4331 5.7
    endloop
  endfacet
  facet normal 0 0 1
    outer loop
      vertex -8.55597 -1.95284 5.7
      vertex -8.776 0 5.7
      vertex -10.7303 2.28079 5.7
    endloop
  endfacet
  facet normal 0 0 1
    outer loop
      vertex 3.80776 -7.9069 5.7
      vertex 1.95284 -8.55597 5.7
      vertex 5.485 -9.5003 5.7
    endloop
  endfacet
  facet normal 0 0 1
    outer loop
      vertex 1.95284 -8.55597 5.7
      vertex 0 -8.776 5.7
      vertex 3.38992 -10.4331 5.7
    endloop
  endfacet
  facet normal 0 0 1
    outer loop
      vertex -1.95284 -8.55597 5.7
      vertex -3.80776 -7.9069 5.7
      vertex -1.14668 -10.9099 5.7
    endloop
  endfacet
  facet normal 0 0 1
    outer loop
      vertex -8.776 0 5.7
      vertex -8.55597 1.95284 5.7
      vertex -10.7303 2.28079 5.7
    endloop
  endfacet
  facet normal 0.993712 -0.111965 0
    outer loop
      vertex -8.55597 1.95284 0
      vertex -8.55597 1.95284 5.7
      vertex -8.776 0 5.7
    endloop
  endfacet
  facet normal 0.993712 -0.111965 0
    outer loop
      vertex -8.776 0 0
      vertex -8.55597 1.95284 0
      vertex -8.776 0 5.7
    endloop
  endfacet
  facet normal 0.993712 0.111965 0
    outer loop
      vertex -8.776 0 5.7
      vertex -8.55597 -1.95284 5.7
      vertex -8.55597 -1.95284 0
    endloop
  endfacet
  facet normal 0.993712 0.111965 0
    outer loop
      vertex -8.776 0 0
      vertex -8.776 0 5.7
      vertex -8.55597 -1.95284 0
    endloop
  endfacet
  facet normal 0.943883 -0.330279 0
    outer loop
      vertex -7.9069 3.80776 0
      vertex -7.9069 3.80776 5.7
      vertex -8.55597 1.95284 5.7
    endloop
  endfacet
  facet normal 0.943883 -0.330279 0
    outer loop
      vertex -8.55597 1.95284 0
      vertex -7.9069 3.80776 0
      vertex -8.55597 1.95284 5.7
    endloop
  endfacet
  facet normal 0.846724 -0.532032 0
    outer loop
      vertex -6.86135 5.47175 0
      vertex -6.86135 5.47175 5.7
      vertex -7.9069 3.80776 5.7
    endloop
  endfacet
  facet normal 0.846724 -0.532032 0
    outer loop
      vertex -7.9069 3.80776 0
      vertex -6.86135 5.47175 0
      vertex -7.9069 3.80776 5.7
    endloop
  endfacet
  facet normal 0.707107 -0.707107 0
    outer loop
      vertex -5.47175 6.86135 0
      vertex -5.47175 6.86135 5.7
      vertex -6.86135 5.47175 5.7
    endloop
  endfacet
  facet normal 0.707107 -0.707107 0
    outer loop
      vertex -6.86135 5.47175 0
      vertex -5.47175 6.86135 0
      vertex -6.86135 5.47175 5.7
    endloop
  endfacet
  facet normal 0.532032 -0.846724 0
    outer loop
      vertex -3.80776 7.9069 0
      vertex -3.80776 7.9069 5.7
      vertex -5.47175 6.86135 5.7
    endloop
  endfacet
  facet normal 0.532032 -0.846724 0
    outer loop
      vertex -5.47175 6.86135 0
      vertex -3.80776 7.9069 0
      vertex -5.47175 6.86135 5.7
    endloop
  endfacet
  facet normal 0.330279 -0.943883 0
    outer loop
      vertex -1.95284 8.55597 0
      vertex -1.95284 8.55597 5.7
      vertex -3.80776 7.9069 5.7
    endloop
  endfacet
  facet normal 0.330279 -0.943883 0
    outer loop
      vertex -3.80776 7.9069 0
      vertex -1.95284 8.55597 0
      vertex -3.80776 7.9069 5.7
    endloop
  endfacet
  facet normal 0.111965 -0.993712 0
    outer loop
      vertex 0 8.776 0
      vertex 0 8.776 5.7
      vertex -1.95284 8.55597 5.7
    endloop
  endfacet
  facet normal 0.111965 -0.993712 0
    outer loop
      vertex -1.95284 8.55597 0
      vertex 0 8.776 0
      vertex -1.95284 8.55597 5.7
    endloop
  endfacet
  facet normal -0.111965 -0.993712 0
    outer loop
      vertex 1.95284 8.55597 0
      vertex 1.95284 8.55597 5.7
      vertex 0 8.776 5.7
    endloop
  endfacet
  facet normal -0.111965 -0.993712 0
    outer loop
      vertex 0 8.776 0
      vertex 1.95284 8.55597 0
      vertex 0 8.776 5.7
    endloop
  endfacet
  facet normal -0.330279 -0.943883 0
    outer loop
      vertex 3.80776 7.9069 0
      vertex 3.80776 7.9069 5.7
      vertex 1.95284 8.55597 5.7
    endloop
  endfacet
  facet normal -0.330279 -0.943883 0
    outer loop
      vertex 1.95284 8.55597 0
      vertex 3.80776 7.9069 0
      vertex 1.95284 8.55597 5.7
    endloop
  endfacet
  facet normal -0.532032 -0.846724 0
    outer loop
      vertex 5.47175 6.86135 0
      vertex 5.47175 6.86135 5.7
      vertex 3.80776 7.9069 5.7
    endloop
  endfacet
  facet normal -0.532032 -0.846724 0
    outer loop
      vertex 3.80776 7.9069 0
      vertex 5.47175 6.86135 0
      vertex 3.80776 7.9069 5.7
    endloop
  endfacet
  facet normal -0.707107 -0.707107 0
    outer loop
      vertex 6.86135 5.47175 0
      vertex 6.86135 5.47175 5.7
      vertex 5.47175 6.86135 5.7
    endloop
  endfacet
  facet normal -0.707107 -0.707107 0
    outer loop
      vertex 5.47175 6.86135 0
      vertex 6.86135 5.47175 0
      vertex 5.47175 6.86135 5.7
    endloop
  endfacet
  facet normal -0.846724 -0.532032 0
    outer loop
      vertex 7.9069 3.80776 5.7
      vertex 6.86135 5.47175 5.7
      vertex 7.9069 3.80776 0
    endloop
  endfacet
  facet normal -0.846724 -0.532032 0
    outer loop
      vertex 7.9069 3.80776 0
      vertex 6.86135 5.47175 5.7
      vertex 6.86135 5.47175 0
    endloop
  endfacet
  facet normal -0.943883 -0.330279 0
    outer loop
      vertex 8.55597 1.95284 5.7
      vertex 7.9069 3.80776 5.7
      vertex 8.55597 1.95284 0
    endloop
  endfacet
  facet normal -0.943883 -0.330279 0
    outer loop
      vertex 8.55597 1.95284 0
      vertex 7.9069 3.80776 5.7
      vertex 7.9069 3.80776 0
    endloop
  endfacet
  facet normal -0.993712 -0.111965 0
    outer loop
      vertex 8.776 0 5.7
      vertex 8.55597 1.95284 5.7
      vertex 8.776 0 0
    endloop
  endfacet
  facet normal -0.993712 -0.111965 0
    outer loop
      vertex 8.776 0 0
      vertex 8.55597 1.95284 5.7
      vertex 8.55597 1.95284 0
    endloop
  endfacet
  facet normal -0.993712 0.111965 0
    outer loop
      vertex 8.776 0 5.7
      vertex 8.776 0 0
      vertex 8.55597 -1.95284 5.7
    endloop
  endfacet
  facet normal -0.993712 0.111965 0
    outer loop
      vertex 8.55597 -1.95284 5.7
      vertex 8.776 0 0
      vertex 8.55597 -1.95284 0
    endloop
  endfacet
  facet normal -0.943883 0.330279 0
    outer loop
      vertex 8.55597 -1.95284 5.7
      vertex 8.55597 -1.95284 0
      vertex 7.9069 -3.80776 5.7
    endloop
  endfacet
  facet normal -0.943883 0.330279 0
    outer loop
      vertex 7.9069 -3.80776 5.7
      vertex 8.55597 -1.95284 0
      vertex 7.9069 -3.80776 0
    endloop
  endfacet
  facet normal -0.846724 0.532032 0
    outer loop
      vertex 7.9069 -3.80776 5.7
      vertex 7.9069 -3.80776 0
      vertex 6.86135 -5.47175 5.7
    endloop
  endfacet
  facet normal -0.846724 0.532032 0
    outer loop
      vertex 6.86135 -5.47175 5.7
      vertex 7.9069 -3.80776 0
      vertex 6.86135 -5.47175 0
    endloop
  endfacet
  facet normal -0.707107 0.707107 0
    outer loop
      vertex 6.86135 -5.47175 5.7
      vertex 6.86135 -5.47175 0
      vertex 5.47175 -6.86135 5.7
    endloop
  endfacet
  facet normal -0.707107 0.707107 0
    outer loop
      vertex 5.47175 -6.86135 5.7
      vertex 6.86135 -5.47175 0
      vertex 5.47175 -6.86135 0
    endloop
  endfacet
  facet normal -0.532032 0.846724 0
    outer loop
      vertex 5.47175 -6.86135 5.7
      vertex 5.47175 -6.86135 0
      vertex 3.80776 -7.9069 5.7
    endloop
  endfacet
  facet normal -0.532032 0.846724 0
    outer loop
      vertex 3.80776 -7.9069 5.7
      vertex 5.47175 -6.86135 0
      vertex 3.80776 -7.9069 0
    endloop
  endfacet
  facet normal -0.330279 0.943883 0
    outer loop
      vertex 3.80776 -7.9069 5.7
      vertex 3.80776 -7.9069 0
      vertex 1.95284 -8.55597 5.7
    endloop
  endfacet
  facet normal -0.330279 0.943883 0
    outer loop
      vertex 1.95284 -8.55597 5.7
      vertex 3.80776 -7.9069 0
      vertex 1.95284 -8.55597 0
    endloop
  endfacet
  facet normal -0.111965 0.993712 0
    outer loop
      vertex 1.95284 -8.55597 5.7
      vertex 1.95284 -8.55597 0
      vertex 0 -8.776 5.7
    endloop
  endfacet
  facet normal -0.111965 0.993712 0
    outer loop
      vertex 0 -8.776 5.7
      vertex 1.95284 -8.55597 0
      vertex 0 -8.776 0
    endloop
  endfacet
  facet normal 0.111965 0.993712 0
    outer loop
      vertex 0 -8.776 5.7
      vertex 0 -8.776 0
      vertex -1.95284 -8.55597 5.7
    endloop
  endfacet
  facet normal 0.111965 0.993712 0
    outer loop
      vertex -1.95284 -8.55597 5.7
      vertex 0 -8.776 0
      vertex -1.95284 -8.55597 0
    endloop
  endfacet
  facet normal 0.330279 0.943883 0
    outer loop
      vertex -1.95284 -8.55597 5.7
      vertex -1.95284 -8.55597 0
      vertex -3.80776 -7.9069 5.7
    endloop
  endfacet
  facet normal 0.330279 0.943883 0
    outer loop
      vertex -3.80776 -7.9069 5.7
      vertex -1.95284 -8.55597 0
      vertex -3.80776 -7.9069 0
    endloop
  endfacet
  facet normal 0.532032 0.846724 0
    outer loop
      vertex -3.80776 -7.9069 5.7
      vertex -3.80776 -7.9069 0
      vertex -5.47175 -6.86135 5.7
    endloop
  endfacet
  facet normal 0.532032 0.846724 0
    outer loop
      vertex -5.47175 -6.86135 5.7
      vertex -3.80776 -7.9069 0
      vertex -5.47175 -6.86135 0
    endloop
  endfacet
  facet normal 0.707107 0.707107 0
    outer loop
      vertex -5.47175 -6.86135 5.7
      vertex -5.47175 -6.86135 0
      vertex -6.86135 -5.47175 5.7
    endloop
  endfacet
  facet normal 0.707107 0.707107 0
    outer loop
      vertex -6.86135 -5.47175 5.7
      vertex -5.47175 -6.86135 0
      vertex -6.86135 -5.47175 0
    endloop
  endfacet
  facet normal 0.846724 0.532032 0
    outer loop
      vertex -7.9069 -3.80776 5.7
      vertex -6.86135 -5.47175 5.7
      vertex -6.86135 -5.47175 0
    endloop
  endfacet
  facet normal 0.846724 0.532032 0
    outer loop
      vertex -7.9069 -3.80776 0
      vertex -7.9069 -3.80776 5.7
      vertex -6.86135 -5.47175 0
    endloop
  endfacet
  facet normal 0.943883 0.330279 0
    outer loop
      vertex -8.55597 -1.95284 5.7
      vertex -7.9069 -3.80776 5.7
      vertex -7.9069 -3.80776 0
    endloop
  endfacet
  facet normal 0.943883 0.330279 0
    outer loop
      vertex -8.55597 -1.95284 0
      vertex -8.55597 -1.95284 5.7
      vertex -7.9069 -3.80776 0
    endloop
  endfacet
endsolid OpenSCAD_Model
