solid OpenSCAD_Model
  facet normal 0 0 1
    outer loop
      vertex -24.8449 5.28096 14.7
      vertex -25.4 0 14.7
      vertex -24.8449 -5.28096 14.7
    endloop
  endfacet
  facet normal 0 0 1
    outer loop
      vertex -20.549 -14.9297 14.7
      vertex -24.8449 5.28096 14.7
      vertex -23.2041 -10.3311 14.7
    endloop
  endfacet
  facet normal 0 0 1
    outer loop
      vertex -23.2041 -10.3311 14.7
      vertex -24.8449 5.28096 14.7
      vertex -24.8449 -5.28096 14.7
    endloop
  endfacet
  facet normal 0 0 1
    outer loop
      vertex -16.9959 -18.8759 14.7
      vertex -24.8449 5.28096 14.7
      vertex -20.549 -14.9297 14.7
    endloop
  endfacet
  facet normal 0 0 1
    outer loop
      vertex -12.7 -21.997 14.7
      vertex -24.8449 5.28096 14.7
      vertex -16.9959 -18.8759 14.7
    endloop
  endfacet
  facet normal 0 0 1
    outer loop
      vertex -7.84903 -24.1568 14.7
      vertex -24.8449 5.28096 14.7
      vertex -12.7 -21.997 14.7
    endloop
  endfacet
  facet normal 0 0 1
    outer loop
      vertex -2.65502 -25.2609 14.7
      vertex -24.8449 5.28096 14.7
      vertex -7.84903 -24.1568 14.7
    endloop
  endfacet
  facet normal 0 0 1
    outer loop
      vertex -12.0262 -11.0587 14.7
      vertex -24.8449 5.28096 14.7
      vertex -2.65502 -25.2609 14.7
    endloop
  endfacet
  facet normal 0 0 1
    outer loop
      vertex -5.15937 -8.9363 14.7
      vertex -24.8449 5.28096 14.7
      vertex 12.7 -21.997 14.7
    endloop
  endfacet
  facet normal 0 0 1
    outer loop
      vertex 3.18867 -9.81371 14.7
      vertex 1.0786 -10.2622 14.7
      vertex 16.9959 -18.8759 14.7
    endloop
  endfacet
  facet normal 0 0 1
    outer loop
      vertex 8.29376 9.26127 14.7
      vertex 8.29376 11.0587 14.7
      vertex 3.18867 9.81371 14.7
    endloop
  endfacet
  facet normal 0 0 1
    outer loop
      vertex 10.3188 0 14.7
      vertex 10.0933 -2.14539 14.7
      vertex 24.8449 -5.28096 14.7
    endloop
  endfacet
  facet normal 0 0 1
    outer loop
      vertex 8.34804 6.06521 14.7
      vertex 9.42665 4.19701 14.7
      vertex 24.8449 5.28096 14.7
    endloop
  endfacet
  facet normal 0 0 1
    outer loop
      vertex 16.9959 18.8759 14.7
      vertex -24.8449 5.28096 14.7
      vertex 20.549 14.9297 14.7
    endloop
  endfacet
  facet normal 0 0 1
    outer loop
      vertex 12.7 21.997 14.7
      vertex -24.8449 5.28096 14.7
      vertex 16.9959 18.8759 14.7
    endloop
  endfacet
  facet normal 0 0 1
    outer loop
      vertex 7.84903 24.1568 14.7
      vertex -24.8449 5.28096 14.7
      vertex 12.7 21.997 14.7
    endloop
  endfacet
  facet normal 0 0 1
    outer loop
      vertex 2.65502 25.2609 14.7
      vertex -24.8449 5.28096 14.7
      vertex 7.84903 24.1568 14.7
    endloop
  endfacet
  facet normal 0 0 1
    outer loop
      vertex -2.65502 25.2609 14.7
      vertex -24.8449 5.28096 14.7
      vertex 2.65502 25.2609 14.7
    endloop
  endfacet
  facet normal 0 0 1
    outer loop
      vertex -7.84903 24.1568 14.7
      vertex -24.8449 5.28096 14.7
      vertex -2.65502 25.2609 14.7
    endloop
  endfacet
  facet normal 0 0 1
    outer loop
      vertex -12.7 21.997 14.7
      vertex -24.8449 5.28096 14.7
      vertex -7.84903 24.1568 14.7
    endloop
  endfacet
  facet normal 0 0 1
    outer loop
      vertex -16.9959 18.8759 14.7
      vertex -24.8449 5.28096 14.7
      vertex -12.7 21.997 14.7
    endloop
  endfacet
  facet normal 0 0 1
    outer loop
      vertex -20.549 14.9297 14.7
      vertex -24.8449 5.28096 14.7
      vertex -16.9959 18.8759 14.7
    endloop
  endfacet
  facet normal 0 0 1
    outer loop
      vertex -23.2041 10.3311 14.7
      vertex -24.8449 5.28096 14.7
      vertex -20.549 14.9297 14.7
    endloop
  endfacet
  facet normal 0 0 1
    outer loop
      vertex 2.65502 -25.2609 14.7
      vertex -12.0262 -11.0587 14.7
      vertex -2.65502 -25.2609 14.7
    endloop
  endfacet
  facet normal 0 0 1
    outer loop
      vertex -12.0262 -9.26127 14.7
      vertex -24.8449 5.28096 14.7
      vertex -12.0262 -11.0587 14.7
    endloop
  endfacet
  facet normal 0 0 1
    outer loop
      vertex -10.6209 -8.14056 14.7
      vertex -8.86852 -8.54054 14.7
      vertex -24.8449 5.28096 14.7
    endloop
  endfacet
  facet normal 0 0 1
    outer loop
      vertex -8.86852 -11.7795 14.7
      vertex -10.6209 -12.1794 14.7
      vertex 2.65502 -25.2609 14.7
    endloop
  endfacet
  facet normal 0 0 1
    outer loop
      vertex -8.08863 -10.16 14.7
      vertex -8.86852 -11.7795 14.7
      vertex 2.65502 -25.2609 14.7
    endloop
  endfacet
  facet normal 0 0 1
    outer loop
      vertex 12.7 -21.997 14.7
      vertex -8.86852 -8.54054 14.7
      vertex 7.84903 -24.1568 14.7
    endloop
  endfacet
  facet normal 0 0 1
    outer loop
      vertex 12.7 -21.997 14.7
      vertex -24.8449 5.28096 14.7
      vertex -8.86852 -8.54054 14.7
    endloop
  endfacet
  facet normal 0 0 1
    outer loop
      vertex -9.42665 -4.19701 14.7
      vertex -10.0933 -2.14539 14.7
      vertex -24.8449 5.28096 14.7
    endloop
  endfacet
  facet normal 0 0 1
    outer loop
      vertex -8.08863 -10.16 14.7
      vertex 2.65502 -25.2609 14.7
      vertex 7.84903 -24.1568 14.7
    endloop
  endfacet
  facet normal 0 0 1
    outer loop
      vertex -8.86852 -8.54054 14.7
      vertex -8.08863 -10.16 14.7
      vertex 7.84903 -24.1568 14.7
    endloop
  endfacet
  facet normal 0 0 1
    outer loop
      vertex 2.65502 -25.2609 14.7
      vertex -10.6209 -12.1794 14.7
      vertex -12.0262 -11.0587 14.7
    endloop
  endfacet
  facet normal 0 0 1
    outer loop
      vertex -6.90459 -7.66833 14.7
      vertex -8.34804 -6.06521 14.7
      vertex -24.8449 5.28096 14.7
    endloop
  endfacet
  facet normal 0 0 1
    outer loop
      vertex 9.69908 8.14056 14.7
      vertex 5.15937 8.9363 14.7
      vertex 6.90459 7.66833 14.7
    endloop
  endfacet
  facet normal 0 0 1
    outer loop
      vertex -9.42665 4.19701 14.7
      vertex -8.34804 6.06521 14.7
      vertex -24.8449 5.28096 14.7
    endloop
  endfacet
  facet normal 0 0 1
    outer loop
      vertex 9.42665 -4.19701 14.7
      vertex 8.34804 -6.06521 14.7
      vertex 23.2041 -10.3311 14.7
    endloop
  endfacet
  facet normal 0 0 1
    outer loop
      vertex -8.34804 6.06521 14.7
      vertex -6.90459 7.66833 14.7
      vertex -24.8449 5.28096 14.7
    endloop
  endfacet
  facet normal 0 0 1
    outer loop
      vertex 10.0933 2.14539 14.7
      vertex 10.3188 0 14.7
      vertex 25.4 0 14.7
    endloop
  endfacet
  facet normal 0 0 1
    outer loop
      vertex -1.0786 10.2622 14.7
      vertex 1.0786 10.2622 14.7
      vertex 20.549 14.9297 14.7
    endloop
  endfacet
  facet normal 0 0 1
    outer loop
      vertex 9.69908 8.14056 14.7
      vertex 8.29376 9.26127 14.7
      vertex 5.15937 8.9363 14.7
    endloop
  endfacet
  facet normal 0 0 1
    outer loop
      vertex -5.15937 8.9363 14.7
      vertex -24.8449 5.28096 14.7
      vertex -6.90459 7.66833 14.7
    endloop
  endfacet
  facet normal 0 0 1
    outer loop
      vertex -3.18867 9.81371 14.7
      vertex -24.8449 5.28096 14.7
      vertex -5.15937 8.9363 14.7
    endloop
  endfacet
  facet normal 0 0 1
    outer loop
      vertex 20.549 14.9297 14.7
      vertex -24.8449 5.28096 14.7
      vertex -3.18867 9.81371 14.7
    endloop
  endfacet
  facet normal 0 0 1
    outer loop
      vertex 20.549 14.9297 14.7
      vertex -3.18867 9.81371 14.7
      vertex -1.0786 10.2622 14.7
    endloop
  endfacet
  facet normal 0 0 1
    outer loop
      vertex 8.29376 11.0587 14.7
      vertex 9.69908 12.1794 14.7
      vertex 3.18867 9.81371 14.7
    endloop
  endfacet
  facet normal 0 0 1
    outer loop
      vertex 23.2041 10.3311 14.7
      vertex 6.90459 7.66833 14.7
      vertex 24.8449 5.28096 14.7
    endloop
  endfacet
  facet normal 0 0 1
    outer loop
      vertex 6.90459 7.66833 14.7
      vertex 8.34804 6.06521 14.7
      vertex 24.8449 5.28096 14.7
    endloop
  endfacet
  facet normal 0 0 1
    outer loop
      vertex 24.8449 5.28096 14.7
      vertex 9.42665 4.19701 14.7
      vertex 25.4 0 14.7
    endloop
  endfacet
  facet normal 0 0 1
    outer loop
      vertex 9.42665 4.19701 14.7
      vertex 10.0933 2.14539 14.7
      vertex 25.4 0 14.7
    endloop
  endfacet
  facet normal 0 0 1
    outer loop
      vertex 25.4 0 14.7
      vertex 10.3188 0 14.7
      vertex 24.8449 -5.28096 14.7
    endloop
  endfacet
  facet normal 0 0 1
    outer loop
      vertex 24.8449 -5.28096 14.7
      vertex 10.0933 -2.14539 14.7
      vertex 23.2041 -10.3311 14.7
    endloop
  endfacet
  facet normal 0 0 1
    outer loop
      vertex -10.0933 2.14539 14.7
      vertex -9.42665 4.19701 14.7
      vertex -24.8449 5.28096 14.7
    endloop
  endfacet
  facet normal 0 0 1
    outer loop
      vertex 10.0933 -2.14539 14.7
      vertex 9.42665 -4.19701 14.7
      vertex 23.2041 -10.3311 14.7
    endloop
  endfacet
  facet normal 0 0 1
    outer loop
      vertex 1.0786 10.2622 14.7
      vertex 3.18867 9.81371 14.7
      vertex 9.69908 12.1794 14.7
    endloop
  endfacet
  facet normal 0 0 1
    outer loop
      vertex 23.2041 -10.3311 14.7
      vertex 8.34804 -6.06521 14.7
      vertex 20.549 -14.9297 14.7
    endloop
  endfacet
  facet normal 0 0 1
    outer loop
      vertex 8.34804 -6.06521 14.7
      vertex 6.90459 -7.66833 14.7
      vertex 20.549 -14.9297 14.7
    endloop
  endfacet
  facet normal 0 0 1
    outer loop
      vertex 20.549 -14.9297 14.7
      vertex 5.15937 -8.9363 14.7
      vertex 16.9959 -18.8759 14.7
    endloop
  endfacet
  facet normal 0 0 1
    outer loop
      vertex 5.15937 -8.9363 14.7
      vertex 3.18867 -9.81371 14.7
      vertex 16.9959 -18.8759 14.7
    endloop
  endfacet
  facet normal 0 0 1
    outer loop
      vertex 16.9959 -18.8759 14.7
      vertex 1.0786 -10.2622 14.7
      vertex 12.7 -21.997 14.7
    endloop
  endfacet
  facet normal 0 0 1
    outer loop
      vertex -10.0933 -2.14539 14.7
      vertex -10.3188 0 14.7
      vertex -24.8449 5.28096 14.7
    endloop
  endfacet
  facet normal 0 0 1
    outer loop
      vertex 1.0786 -10.2622 14.7
      vertex -1.0786 -10.2622 14.7
      vertex 12.7 -21.997 14.7
    endloop
  endfacet
  facet normal 0 0 1
    outer loop
      vertex -1.0786 -10.2622 14.7
      vertex -3.18867 -9.81371 14.7
      vertex 12.7 -21.997 14.7
    endloop
  endfacet
  facet normal 0 0 1
    outer loop
      vertex -3.18867 -9.81371 14.7
      vertex -5.15937 -8.9363 14.7
      vertex 12.7 -21.997 14.7
    endloop
  endfacet
  facet normal 0 0 1
    outer loop
      vertex -6.90459 -7.66833 14.7
      vertex -24.8449 5.28096 14.7
      vertex -5.15937 -8.9363 14.7
    endloop
  endfacet
  facet normal 0 0 1
    outer loop
      vertex -8.34804 -6.06521 14.7
      vertex -9.42665 -4.19701 14.7
      vertex -24.8449 5.28096 14.7
    endloop
  endfacet
  facet normal 0 0 1
    outer loop
      vertex 6.90459 -7.66833 14.7
      vertex 5.15937 -8.9363 14.7
      vertex 20.549 -14.9297 14.7
    endloop
  endfacet
  facet normal 0 0 1
    outer loop
      vertex 3.18867 9.81371 14.7
      vertex 5.15937 8.9363 14.7
      vertex 8.29376 9.26127 14.7
    endloop
  endfacet
  facet normal 0 0 1
    outer loop
      vertex 12.2314 10.16 14.7
      vertex 11.4515 8.54054 14.7
      vertex 23.2041 10.3311 14.7
    endloop
  endfacet
  facet normal 0 0 1
    outer loop
      vertex 9.69908 12.1794 14.7
      vertex 11.4515 11.7795 14.7
      vertex 20.549 14.9297 14.7
    endloop
  endfacet
  facet normal 0 0 1
    outer loop
      vertex 20.549 14.9297 14.7
      vertex 1.0786 10.2622 14.7
      vertex 9.69908 12.1794 14.7
    endloop
  endfacet
  facet normal 0 0 1
    outer loop
      vertex 20.549 14.9297 14.7
      vertex 11.4515 11.7795 14.7
      vertex 23.2041 10.3311 14.7
    endloop
  endfacet
  facet normal 0 0 1
    outer loop
      vertex 11.4515 11.7795 14.7
      vertex 12.2314 10.16 14.7
      vertex 23.2041 10.3311 14.7
    endloop
  endfacet
  facet normal 0 0 1
    outer loop
      vertex 23.2041 10.3311 14.7
      vertex 9.69908 8.14056 14.7
      vertex 6.90459 7.66833 14.7
    endloop
  endfacet
  facet normal 0 0 1
    outer loop
      vertex 23.2041 10.3311 14.7
      vertex 11.4515 8.54054 14.7
      vertex 9.69908 8.14056 14.7
    endloop
  endfacet
  facet normal 0 0 1
    outer loop
      vertex -12.0262 -9.26127 14.7
      vertex -10.6209 -8.14056 14.7
      vertex -24.8449 5.28096 14.7
    endloop
  endfacet
  facet normal 0 0 1
    outer loop
      vertex -10.3188 0 14.7
      vertex -10.0933 2.14539 14.7
      vertex -24.8449 5.28096 14.7
    endloop
  endfacet
  facet normal -0.876179 -0.0920901 -0.473107
    outer loop
      vertex -24.8449 -5.28096 14.7
      vertex -25.4 0 14.7
      vertex -17.0809 -3.63066 0
    endloop
  endfacet
  facet normal -0.876179 -0.0920902 -0.473107
    outer loop
      vertex -17.0809 -3.63066 0
      vertex -25.4 0 14.7
      vertex -17.4625 0 0
    endloop
  endfacet
  facet normal -0.876179 0.0920901 -0.473107
    outer loop
      vertex -17.4625 0 0
      vertex -25.4 0 14.7
      vertex -24.8449 5.28096 14.7
    endloop
  endfacet
  facet normal -0.876179 0.0920902 -0.473107
    outer loop
      vertex -17.4625 0 0
      vertex -24.8449 5.28096 14.7
      vertex -17.0809 3.63066 0
    endloop
  endfacet
  facet normal -0.837886 0.272245 -0.473107
    outer loop
      vertex -17.0809 3.63066 0
      vertex -24.8449 5.28096 14.7
      vertex -23.2041 10.3311 14.7
    endloop
  endfacet
  facet normal -0.837886 0.272245 -0.473107
    outer loop
      vertex -17.0809 3.63066 0
      vertex -23.2041 10.3311 14.7
      vertex -15.9528 7.10264 0
    endloop
  endfacet
  facet normal -0.762973 0.440503 -0.473107
    outer loop
      vertex -15.9528 7.10264 0
      vertex -23.2041 10.3311 14.7
      vertex -20.549 14.9297 14.7
    endloop
  endfacet
  facet normal -0.762973 0.440503 -0.473107
    outer loop
      vertex -15.9528 7.10264 0
      vertex -20.549 14.9297 14.7
      vertex -14.1275 10.2642 0
    endloop
  endfacet
  facet normal -0.654714 0.589507 -0.473107
    outer loop
      vertex -14.1275 10.2642 0
      vertex -20.549 14.9297 14.7
      vertex -16.9959 18.8759 14.7
    endloop
  endfacet
  facet normal -0.654714 0.589507 -0.473107
    outer loop
      vertex -14.1275 10.2642 0
      vertex -16.9959 18.8759 14.7
      vertex -11.6847 12.9772 0
    endloop
  endfacet
  facet normal -0.517842 0.712748 -0.473107
    outer loop
      vertex -11.6847 12.9772 0
      vertex -16.9959 18.8759 14.7
      vertex -12.7 21.997 14.7
    endloop
  endfacet
  facet normal -0.517842 0.712748 -0.473107
    outer loop
      vertex -11.6847 12.9772 0
      vertex -12.7 21.997 14.7
      vertex -8.73125 15.123 0
    endloop
  endfacet
  facet normal -0.358337 0.804838 -0.473107
    outer loop
      vertex -8.73125 15.123 0
      vertex -12.7 21.997 14.7
      vertex -7.84903 24.1568 14.7
    endloop
  endfacet
  facet normal -0.358337 0.804838 -0.473107
    outer loop
      vertex -5.39621 16.6078 0
      vertex -8.73125 15.123 0
      vertex -7.84903 24.1568 14.7
    endloop
  endfacet
  facet normal -0.183171 0.861753 -0.473107
    outer loop
      vertex -5.39621 16.6078 0
      vertex -7.84903 24.1568 14.7
      vertex -2.65502 25.2609 14.7
    endloop
  endfacet
  facet normal -0.183171 0.861753 -0.473107
    outer loop
      vertex -1.82533 17.3668 0
      vertex -5.39621 16.6078 0
      vertex -2.65502 25.2609 14.7
    endloop
  endfacet
  facet normal 0 0.881005 -0.473107
    outer loop
      vertex -2.65502 25.2609 14.7
      vertex 2.65502 25.2609 14.7
      vertex -1.82533 17.3668 0
    endloop
  endfacet
  facet normal 0 0.881005 -0.473107
    outer loop
      vertex -1.82533 17.3668 0
      vertex 2.65502 25.2609 14.7
      vertex 1.82533 17.3668 0
    endloop
  endfacet
  facet normal 0.183171 0.861753 -0.473107
    outer loop
      vertex 7.84903 24.1568 14.7
      vertex 1.82533 17.3668 0
      vertex 2.65502 25.2609 14.7
    endloop
  endfacet
  facet normal 0.183171 0.861753 -0.473107
    outer loop
      vertex 5.39621 16.6078 0
      vertex 1.82533 17.3668 0
      vertex 7.84903 24.1568 14.7
    endloop
  endfacet
  facet normal 0.358337 0.804838 -0.473107
    outer loop
      vertex 12.7 21.997 14.7
      vertex 5.39621 16.6078 0
      vertex 7.84903 24.1568 14.7
    endloop
  endfacet
  facet normal 0.358337 0.804838 -0.473107
    outer loop
      vertex 8.73125 15.123 0
      vertex 5.39621 16.6078 0
      vertex 12.7 21.997 14.7
    endloop
  endfacet
  facet normal 0.517842 0.712748 -0.473107
    outer loop
      vertex 16.9959 18.8759 14.7
      vertex 8.73125 15.123 0
      vertex 12.7 21.997 14.7
    endloop
  endfacet
  facet normal 0.517842 0.712748 -0.473107
    outer loop
      vertex 11.6847 12.9772 0
      vertex 8.73125 15.123 0
      vertex 16.9959 18.8759 14.7
    endloop
  endfacet
  facet normal 0.654714 0.589507 -0.473107
    outer loop
      vertex 20.549 14.9297 14.7
      vertex 11.6847 12.9772 0
      vertex 16.9959 18.8759 14.7
    endloop
  endfacet
  facet normal 0.654714 0.589507 -0.473107
    outer loop
      vertex 14.1275 10.2642 0
      vertex 11.6847 12.9772 0
      vertex 20.549 14.9297 14.7
    endloop
  endfacet
  facet normal 0.762973 0.440503 -0.473107
    outer loop
      vertex 23.2041 10.3311 14.7
      vertex 14.1275 10.2642 0
      vertex 20.549 14.9297 14.7
    endloop
  endfacet
  facet normal 0.762973 0.440503 -0.473107
    outer loop
      vertex 15.9528 7.10264 0
      vertex 14.1275 10.2642 0
      vertex 23.2041 10.3311 14.7
    endloop
  endfacet
  facet normal 0.837886 0.272245 -0.473107
    outer loop
      vertex 24.8449 5.28096 14.7
      vertex 15.9528 7.10264 0
      vertex 23.2041 10.3311 14.7
    endloop
  endfacet
  facet normal 0.837886 0.272245 -0.473107
    outer loop
      vertex 17.0809 3.63066 0
      vertex 15.9528 7.10264 0
      vertex 24.8449 5.28096 14.7
    endloop
  endfacet
  facet normal 0.876179 0.0920901 -0.473107
    outer loop
      vertex 25.4 0 14.7
      vertex 17.0809 3.63066 0
      vertex 24.8449 5.28096 14.7
    endloop
  endfacet
  facet normal 0.876179 0.0920902 -0.473107
    outer loop
      vertex 17.4625 0 0
      vertex 17.0809 3.63066 0
      vertex 25.4 0 14.7
    endloop
  endfacet
  facet normal 0.876179 -0.0920901 -0.473107
    outer loop
      vertex 24.8449 -5.28096 14.7
      vertex 17.4625 0 0
      vertex 25.4 0 14.7
    endloop
  endfacet
  facet normal 0.876179 -0.0920902 -0.473107
    outer loop
      vertex 24.8449 -5.28096 14.7
      vertex 17.0809 -3.63066 0
      vertex 17.4625 0 0
    endloop
  endfacet
  facet normal 0.837886 -0.272245 -0.473107
    outer loop
      vertex 23.2041 -10.3311 14.7
      vertex 17.0809 -3.63066 0
      vertex 24.8449 -5.28096 14.7
    endloop
  endfacet
  facet normal 0.837886 -0.272245 -0.473107
    outer loop
      vertex 23.2041 -10.3311 14.7
      vertex 15.9528 -7.10264 0
      vertex 17.0809 -3.63066 0
    endloop
  endfacet
  facet normal 0.762973 -0.440503 -0.473107
    outer loop
      vertex 20.549 -14.9297 14.7
      vertex 15.9528 -7.10264 0
      vertex 23.2041 -10.3311 14.7
    endloop
  endfacet
  facet normal 0.762973 -0.440503 -0.473107
    outer loop
      vertex 20.549 -14.9297 14.7
      vertex 14.1275 -10.2642 0
      vertex 15.9528 -7.10264 0
    endloop
  endfacet
  facet normal 0.654714 -0.589507 -0.473107
    outer loop
      vertex 16.9959 -18.8759 14.7
      vertex 14.1275 -10.2642 0
      vertex 20.549 -14.9297 14.7
    endloop
  endfacet
  facet normal 0.654714 -0.589507 -0.473107
    outer loop
      vertex 16.9959 -18.8759 14.7
      vertex 11.6847 -12.9772 0
      vertex 14.1275 -10.2642 0
    endloop
  endfacet
  facet normal 0.517842 -0.712748 -0.473107
    outer loop
      vertex 12.7 -21.997 14.7
      vertex 11.6847 -12.9772 0
      vertex 16.9959 -18.8759 14.7
    endloop
  endfacet
  facet normal 0.517842 -0.712748 -0.473107
    outer loop
      vertex 12.7 -21.997 14.7
      vertex 8.73125 -15.123 0
      vertex 11.6847 -12.9772 0
    endloop
  endfacet
  facet normal 0.358337 -0.804838 -0.473107
    outer loop
      vertex 12.7 -21.997 14.7
      vertex 7.84903 -24.1568 14.7
      vertex 8.73125 -15.123 0
    endloop
  endfacet
  facet normal 0.358337 -0.804838 -0.473107
    outer loop
      vertex 7.84903 -24.1568 14.7
      vertex 5.39621 -16.6078 0
      vertex 8.73125 -15.123 0
    endloop
  endfacet
  facet normal 0.183171 -0.861753 -0.473107
    outer loop
      vertex 7.84903 -24.1568 14.7
      vertex 2.65502 -25.2609 14.7
      vertex 5.39621 -16.6078 0
    endloop
  endfacet
  facet normal 0.183171 -0.861753 -0.473107
    outer loop
      vertex 2.65502 -25.2609 14.7
      vertex 1.82533 -17.3668 0
      vertex 5.39621 -16.6078 0
    endloop
  endfacet
  facet normal 0 -0.881005 -0.473107
    outer loop
      vertex 2.65502 -25.2609 14.7
      vertex -2.65502 -25.2609 14.7
      vertex -1.82533 -17.3668 0
    endloop
  endfacet
  facet normal 0 -0.881005 -0.473107
    outer loop
      vertex 1.82533 -17.3668 0
      vertex 2.65502 -25.2609 14.7
      vertex -1.82533 -17.3668 0
    endloop
  endfacet
  facet normal -0.183171 -0.861753 -0.473107
    outer loop
      vertex -2.65502 -25.2609 14.7
      vertex -7.84903 -24.1568 14.7
      vertex -1.82533 -17.3668 0
    endloop
  endfacet
  facet normal -0.183171 -0.861753 -0.473107
    outer loop
      vertex -1.82533 -17.3668 0
      vertex -7.84903 -24.1568 14.7
      vertex -5.39621 -16.6078 0
    endloop
  endfacet
  facet normal -0.358337 -0.804838 -0.473107
    outer loop
      vertex -7.84903 -24.1568 14.7
      vertex -12.7 -21.997 14.7
      vertex -5.39621 -16.6078 0
    endloop
  endfacet
  facet normal -0.358337 -0.804838 -0.473107
    outer loop
      vertex -5.39621 -16.6078 0
      vertex -12.7 -21.997 14.7
      vertex -8.73125 -15.123 0
    endloop
  endfacet
  facet normal -0.517842 -0.712748 -0.473107
    outer loop
      vertex -12.7 -21.997 14.7
      vertex -16.9959 -18.8759 14.7
      vertex -8.73125 -15.123 0
    endloop
  endfacet
  facet normal -0.517842 -0.712748 -0.473107
    outer loop
      vertex -8.73125 -15.123 0
      vertex -16.9959 -18.8759 14.7
      vertex -11.6847 -12.9772 0
    endloop
  endfacet
  facet normal -0.654714 -0.589507 -0.473107
    outer loop
      vertex -16.9959 -18.8759 14.7
      vertex -20.549 -14.9297 14.7
      vertex -11.6847 -12.9772 0
    endloop
  endfacet
  facet normal -0.654714 -0.589507 -0.473107
    outer loop
      vertex -11.6847 -12.9772 0
      vertex -20.549 -14.9297 14.7
      vertex -14.1275 -10.2642 0
    endloop
  endfacet
  facet normal -0.762973 -0.440503 -0.473107
    outer loop
      vertex -20.549 -14.9297 14.7
      vertex -23.2041 -10.3311 14.7
      vertex -14.1275 -10.2642 0
    endloop
  endfacet
  facet normal -0.762973 -0.440503 -0.473107
    outer loop
      vertex -14.1275 -10.2642 0
      vertex -23.2041 -10.3311 14.7
      vertex -15.9528 -7.10264 0
    endloop
  endfacet
  facet normal -0.837886 -0.272245 -0.473107
    outer loop
      vertex -23.2041 -10.3311 14.7
      vertex -24.8449 -5.28096 14.7
      vertex -15.9528 -7.10264 0
    endloop
  endfacet
  facet normal -0.837886 -0.272245 -0.473107
    outer loop
      vertex -15.9528 -7.10264 0
      vertex -24.8449 -5.28096 14.7
      vertex -17.0809 -3.63066 0
    endloop
  endfacet
  facet normal 1 0 0
    outer loop
      vertex -12.0262 -9.26127 0
      vertex -12.0262 -9.26127 14.7
      vertex -12.0262 -11.0587 14.7
    endloop
  endfacet
  facet normal 1 0 0
    outer loop
      vertex -12.0262 -11.0587 0
      vertex -12.0262 -9.26127 0
      vertex -12.0262 -11.0587 14.7
    endloop
  endfacet
  facet normal 0.623489 0.781832 0
    outer loop
      vertex -10.6209 -12.1794 14.7
      vertex -10.6209 -12.1794 0
      vertex -12.0262 -11.0587 14.7
    endloop
  endfacet
  facet normal 0.623489 0.781832 0
    outer loop
      vertex -12.0262 -11.0587 14.7
      vertex -10.6209 -12.1794 0
      vertex -12.0262 -11.0587 0
    endloop
  endfacet
  facet normal -0.222521 0.974928 0
    outer loop
      vertex -8.86852 -11.7795 14.7
      vertex -8.86852 -11.7795 0
      vertex -10.6209 -12.1794 14.7
    endloop
  endfacet
  facet normal -0.222521 0.974928 0
    outer loop
      vertex -10.6209 -12.1794 14.7
      vertex -8.86852 -11.7795 0
      vertex -10.6209 -12.1794 0
    endloop
  endfacet
  facet normal -0.900969 0.433884 0
    outer loop
      vertex -8.08863 -10.16 14.7
      vertex -8.08863 -10.16 0
      vertex -8.86852 -11.7795 14.7
    endloop
  endfacet
  facet normal -0.900969 0.433884 0
    outer loop
      vertex -8.86852 -11.7795 14.7
      vertex -8.08863 -10.16 0
      vertex -8.86852 -11.7795 0
    endloop
  endfacet
  facet normal -0.900969 -0.433884 0
    outer loop
      vertex -8.08863 -10.16 14.7
      vertex -8.86852 -8.54054 14.7
      vertex -8.08863 -10.16 0
    endloop
  endfacet
  facet normal -0.900969 -0.433884 0
    outer loop
      vertex -8.08863 -10.16 0
      vertex -8.86852 -8.54054 14.7
      vertex -8.86852 -8.54054 0
    endloop
  endfacet
  facet normal -0.222521 -0.974928 0
    outer loop
      vertex -8.86852 -8.54054 0
      vertex -8.86852 -8.54054 14.7
      vertex -10.6209 -8.14056 14.7
    endloop
  endfacet
  facet normal -0.222521 -0.974928 0
    outer loop
      vertex -10.6209 -8.14056 0
      vertex -8.86852 -8.54054 0
      vertex -10.6209 -8.14056 14.7
    endloop
  endfacet
  facet normal 0.623489 -0.781832 0
    outer loop
      vertex -10.6209 -8.14056 0
      vertex -10.6209 -8.14056 14.7
      vertex -12.0262 -9.26127 14.7
    endloop
  endfacet
  facet normal 0.623489 -0.781832 0
    outer loop
      vertex -12.0262 -9.26127 0
      vertex -10.6209 -8.14056 0
      vertex -12.0262 -9.26127 14.7
    endloop
  endfacet
  facet normal 0.994522 0.104528 0
    outer loop
      vertex -10.3188 0 14.7
      vertex -10.0933 -2.14539 14.7
      vertex -10.0933 -2.14539 5.715
    endloop
  endfacet
  facet normal 0.994522 0.104528 0
    outer loop
      vertex -10.3188 0 5.715
      vertex -10.3188 0 14.7
      vertex -10.0933 -2.14539 5.715
    endloop
  endfacet
  facet normal 0.951056 0.309017 0
    outer loop
      vertex -10.0933 -2.14539 14.7
      vertex -9.42665 -4.19701 14.7
      vertex -9.42665 -4.19701 5.715
    endloop
  endfacet
  facet normal 0.951056 0.309017 0
    outer loop
      vertex -10.0933 -2.14539 5.715
      vertex -10.0933 -2.14539 14.7
      vertex -9.42665 -4.19701 5.715
    endloop
  endfacet
  facet normal 0.866025 0.5 0
    outer loop
      vertex -9.42665 -4.19701 14.7
      vertex -8.34804 -6.06521 14.7
      vertex -8.34804 -6.06521 5.715
    endloop
  endfacet
  facet normal 0.866025 0.5 0
    outer loop
      vertex -9.42665 -4.19701 5.715
      vertex -9.42665 -4.19701 14.7
      vertex -8.34804 -6.06521 5.715
    endloop
  endfacet
  facet normal 0.743145 0.669131 0
    outer loop
      vertex -8.34804 -6.06521 14.7
      vertex -6.90459 -7.66833 14.7
      vertex -6.90459 -7.66833 5.715
    endloop
  endfacet
  facet normal 0.743145 0.669131 0
    outer loop
      vertex -8.34804 -6.06521 5.715
      vertex -8.34804 -6.06521 14.7
      vertex -6.90459 -7.66833 5.715
    endloop
  endfacet
  facet normal 0.587785 0.809017 0
    outer loop
      vertex -5.15937 -8.9363 14.7
      vertex -5.15937 -8.9363 5.715
      vertex -6.90459 -7.66833 14.7
    endloop
  endfacet
  facet normal 0.587785 0.809017 0
    outer loop
      vertex -6.90459 -7.66833 14.7
      vertex -5.15937 -8.9363 5.715
      vertex -6.90459 -7.66833 5.715
    endloop
  endfacet
  facet normal 0.406736 0.913546 0
    outer loop
      vertex -3.18867 -9.81371 14.7
      vertex -3.18867 -9.81371 5.715
      vertex -5.15937 -8.9363 14.7
    endloop
  endfacet
  facet normal 0.406736 0.913546 0
    outer loop
      vertex -5.15937 -8.9363 14.7
      vertex -3.18867 -9.81371 5.715
      vertex -5.15937 -8.9363 5.715
    endloop
  endfacet
  facet normal 0.207912 0.978148 0
    outer loop
      vertex -1.0786 -10.2622 14.7
      vertex -1.0786 -10.2622 5.715
      vertex -3.18867 -9.81371 14.7
    endloop
  endfacet
  facet normal 0.207912 0.978148 0
    outer loop
      vertex -3.18867 -9.81371 14.7
      vertex -1.0786 -10.2622 5.715
      vertex -3.18867 -9.81371 5.715
    endloop
  endfacet
  facet normal 0 1 0
    outer loop
      vertex 1.0786 -10.2622 14.7
      vertex 1.0786 -10.2622 5.715
      vertex -1.0786 -10.2622 14.7
    endloop
  endfacet
  facet normal 0 1 0
    outer loop
      vertex -1.0786 -10.2622 14.7
      vertex 1.0786 -10.2622 5.715
      vertex -1.0786 -10.2622 5.715
    endloop
  endfacet
  facet normal -0.207912 0.978148 0
    outer loop
      vertex 3.18867 -9.81371 14.7
      vertex 3.18867 -9.81371 5.715
      vertex 1.0786 -10.2622 14.7
    endloop
  endfacet
  facet normal -0.207912 0.978148 0
    outer loop
      vertex 1.0786 -10.2622 14.7
      vertex 3.18867 -9.81371 5.715
      vertex 1.0786 -10.2622 5.715
    endloop
  endfacet
  facet normal -0.406736 0.913546 0
    outer loop
      vertex 5.15937 -8.9363 14.7
      vertex 5.15937 -8.9363 5.715
      vertex 3.18867 -9.81371 14.7
    endloop
  endfacet
  facet normal -0.406736 0.913546 0
    outer loop
      vertex 3.18867 -9.81371 14.7
      vertex 5.15937 -8.9363 5.715
      vertex 3.18867 -9.81371 5.715
    endloop
  endfacet
  facet normal -0.587785 0.809017 0
    outer loop
      vertex 6.90459 -7.66833 14.7
      vertex 6.90459 -7.66833 5.715
      vertex 5.15937 -8.9363 14.7
    endloop
  endfacet
  facet normal -0.587785 0.809017 0
    outer loop
      vertex 5.15937 -8.9363 14.7
      vertex 6.90459 -7.66833 5.715
      vertex 5.15937 -8.9363 5.715
    endloop
  endfacet
  facet normal -0.743145 0.669131 0
    outer loop
      vertex 8.34804 -6.06521 14.7
      vertex 8.34804 -6.06521 5.715
      vertex 6.90459 -7.66833 14.7
    endloop
  endfacet
  facet normal -0.743145 0.669131 0
    outer loop
      vertex 6.90459 -7.66833 14.7
      vertex 8.34804 -6.06521 5.715
      vertex 6.90459 -7.66833 5.715
    endloop
  endfacet
  facet normal -0.866025 0.5 0
    outer loop
      vertex 9.42665 -4.19701 14.7
      vertex 9.42665 -4.19701 5.715
      vertex 8.34804 -6.06521 14.7
    endloop
  endfacet
  facet normal -0.866025 0.5 0
    outer loop
      vertex 8.34804 -6.06521 14.7
      vertex 9.42665 -4.19701 5.715
      vertex 8.34804 -6.06521 5.715
    endloop
  endfacet
  facet normal -0.951056 0.309017 0
    outer loop
      vertex 10.0933 -2.14539 14.7
      vertex 10.0933 -2.14539 5.715
      vertex 9.42665 -4.19701 14.7
    endloop
  endfacet
  facet normal -0.951056 0.309017 0
    outer loop
      vertex 9.42665 -4.19701 14.7
      vertex 10.0933 -2.14539 5.715
      vertex 9.42665 -4.19701 5.715
    endloop
  endfacet
  facet normal -0.994522 0.104528 0
    outer loop
      vertex 10.3188 0 14.7
      vertex 10.3188 0 5.715
      vertex 10.0933 -2.14539 14.7
    endloop
  endfacet
  facet normal -0.994522 0.104528 0
    outer loop
      vertex 10.0933 -2.14539 14.7
      vertex 10.3188 0 5.715
      vertex 10.0933 -2.14539 5.715
    endloop
  endfacet
  facet normal -0.994522 -0.104528 0
    outer loop
      vertex 10.3188 0 14.7
      vertex 10.0933 2.14539 14.7
      vertex 10.3188 0 5.715
    endloop
  endfacet
  facet normal -0.994522 -0.104528 0
    outer loop
      vertex 10.3188 0 5.715
      vertex 10.0933 2.14539 14.7
      vertex 10.0933 2.14539 5.715
    endloop
  endfacet
  facet normal -0.951056 -0.309017 0
    outer loop
      vertex 10.0933 2.14539 14.7
      vertex 9.42665 4.19701 14.7
      vertex 10.0933 2.14539 5.715
    endloop
  endfacet
  facet normal -0.951056 -0.309017 0
    outer loop
      vertex 10.0933 2.14539 5.715
      vertex 9.42665 4.19701 14.7
      vertex 9.42665 4.19701 5.715
    endloop
  endfacet
  facet normal -0.866025 -0.5 0
    outer loop
      vertex 9.42665 4.19701 14.7
      vertex 8.34804 6.06521 14.7
      vertex 9.42665 4.19701 5.715
    endloop
  endfacet
  facet normal -0.866025 -0.5 0
    outer loop
      vertex 9.42665 4.19701 5.715
      vertex 8.34804 6.06521 14.7
      vertex 8.34804 6.06521 5.715
    endloop
  endfacet
  facet normal -0.743145 -0.669131 0
    outer loop
      vertex 8.34804 6.06521 14.7
      vertex 6.90459 7.66833 14.7
      vertex 8.34804 6.06521 5.715
    endloop
  endfacet
  facet normal -0.743145 -0.669131 0
    outer loop
      vertex 8.34804 6.06521 5.715
      vertex 6.90459 7.66833 14.7
      vertex 6.90459 7.66833 5.715
    endloop
  endfacet
  facet normal -0.587785 -0.809017 0
    outer loop
      vertex 6.90459 7.66833 5.715
      vertex 6.90459 7.66833 14.7
      vertex 5.15937 8.9363 14.7
    endloop
  endfacet
  facet normal -0.587785 -0.809017 0
    outer loop
      vertex 5.15937 8.9363 5.715
      vertex 6.90459 7.66833 5.715
      vertex 5.15937 8.9363 14.7
    endloop
  endfacet
  facet normal -0.406736 -0.913546 0
    outer loop
      vertex 5.15937 8.9363 5.715
      vertex 5.15937 8.9363 14.7
      vertex 3.18867 9.81371 14.7
    endloop
  endfacet
  facet normal -0.406736 -0.913546 0
    outer loop
      vertex 3.18867 9.81371 5.715
      vertex 5.15937 8.9363 5.715
      vertex 3.18867 9.81371 14.7
    endloop
  endfacet
  facet normal -0.207912 -0.978148 0
    outer loop
      vertex 3.18867 9.81371 5.715
      vertex 3.18867 9.81371 14.7
      vertex 1.0786 10.2622 14.7
    endloop
  endfacet
  facet normal -0.207912 -0.978148 0
    outer loop
      vertex 1.0786 10.2622 5.715
      vertex 3.18867 9.81371 5.715
      vertex 1.0786 10.2622 14.7
    endloop
  endfacet
  facet normal 0 -1 0
    outer loop
      vertex 1.0786 10.2622 5.715
      vertex 1.0786 10.2622 14.7
      vertex -1.0786 10.2622 14.7
    endloop
  endfacet
  facet normal 0 -1 0
    outer loop
      vertex -1.0786 10.2622 5.715
      vertex 1.0786 10.2622 5.715
      vertex -1.0786 10.2622 14.7
    endloop
  endfacet
  facet normal 0.207912 -0.978148 0
    outer loop
      vertex -1.0786 10.2622 5.715
      vertex -1.0786 10.2622 14.7
      vertex -3.18867 9.81371 14.7
    endloop
  endfacet
  facet normal 0.207912 -0.978148 0
    outer loop
      vertex -3.18867 9.81371 5.715
      vertex -1.0786 10.2622 5.715
      vertex -3.18867 9.81371 14.7
    endloop
  endfacet
  facet normal 0.406736 -0.913546 0
    outer loop
      vertex -3.18867 9.81371 5.715
      vertex -3.18867 9.81371 14.7
      vertex -5.15937 8.9363 14.7
    endloop
  endfacet
  facet normal 0.406736 -0.913546 0
    outer loop
      vertex -5.15937 8.9363 5.715
      vertex -3.18867 9.81371 5.715
      vertex -5.15937 8.9363 14.7
    endloop
  endfacet
  facet normal 0.587785 -0.809017 0
    outer loop
      vertex -5.15937 8.9363 5.715
      vertex -5.15937 8.9363 14.7
      vertex -6.90459 7.66833 14.7
    endloop
  endfacet
  facet normal 0.587785 -0.809017 0
    outer loop
      vertex -6.90459 7.66833 5.715
      vertex -5.15937 8.9363 5.715
      vertex -6.90459 7.66833 14.7
    endloop
  endfacet
  facet normal 0.743145 -0.669131 0
    outer loop
      vertex -6.90459 7.66833 5.715
      vertex -6.90459 7.66833 14.7
      vertex -8.34804 6.06521 14.7
    endloop
  endfacet
  facet normal 0.743145 -0.669131 0
    outer loop
      vertex -8.34804 6.06521 5.715
      vertex -6.90459 7.66833 5.715
      vertex -8.34804 6.06521 14.7
    endloop
  endfacet
  facet normal 0.866025 -0.5 0
    outer loop
      vertex -8.34804 6.06521 5.715
      vertex -8.34804 6.06521 14.7
      vertex -9.42665 4.19701 14.7
    endloop
  endfacet
  facet normal 0.866025 -0.5 0
    outer loop
      vertex -9.42665 4.19701 5.715
      vertex -8.34804 6.06521 5.715
      vertex -9.42665 4.19701 14.7
    endloop
  endfacet
  facet normal 0.951056 -0.309017 0
    outer loop
      vertex -9.42665 4.19701 5.715
      vertex -9.42665 4.19701 14.7
      vertex -10.0933 2.14539 14.7
    endloop
  endfacet
  facet normal 0.951056 -0.309017 0
    outer loop
      vertex -10.0933 2.14539 5.715
      vertex -9.42665 4.19701 5.715
      vertex -10.0933 2.14539 14.7
    endloop
  endfacet
  facet normal 0.994522 -0.104528 0
    outer loop
      vertex -10.0933 2.14539 5.715
      vertex -10.0933 2.14539 14.7
      vertex -10.3188 0 14.7
    endloop
  endfacet
  facet normal 0.994522 -0.104528 0
    outer loop
      vertex -10.3188 0 5.715
      vertex -10.0933 2.14539 5.715
      vertex -10.3188 0 14.7
    endloop
  endfacet
  facet normal 1 0 0
    outer loop
      vertex 8.29376 11.0587 0
      vertex 8.29376 11.0587 14.7
      vertex 8.29376 9.26127 14.7
    endloop
  endfacet
  facet normal 1 0 0
    outer loop
      vertex 8.29376 9.26127 0
      vertex 8.29376 11.0587 0
      vertex 8.29376 9.26127 14.7
    endloop
  endfacet
  facet normal 0.623489 0.781832 0
    outer loop
      vertex 9.69908 8.14056 14.7
      vertex 9.69908 8.14056 0
      vertex 8.29376 9.26127 14.7
    endloop
  endfacet
  facet normal 0.623489 0.781832 0
    outer loop
      vertex 8.29376 9.26127 14.7
      vertex 9.69908 8.14056 0
      vertex 8.29376 9.26127 0
    endloop
  endfacet
  facet normal -0.222521 0.974928 0
    outer loop
      vertex 11.4515 8.54054 14.7
      vertex 11.4515 8.54054 0
      vertex 9.69908 8.14056 14.7
    endloop
  endfacet
  facet normal -0.222521 0.974928 0
    outer loop
      vertex 9.69908 8.14056 14.7
      vertex 11.4515 8.54054 0
      vertex 9.69908 8.14056 0
    endloop
  endfacet
  facet normal -0.900969 0.433884 0
    outer loop
      vertex 12.2314 10.16 14.7
      vertex 12.2314 10.16 0
      vertex 11.4515 8.54054 14.7
    endloop
  endfacet
  facet normal -0.900969 0.433884 0
    outer loop
      vertex 11.4515 8.54054 14.7
      vertex 12.2314 10.16 0
      vertex 11.4515 8.54054 0
    endloop
  endfacet
  facet normal -0.900969 -0.433884 0
    outer loop
      vertex 12.2314 10.16 14.7
      vertex 11.4515 11.7795 14.7
      vertex 12.2314 10.16 0
    endloop
  endfacet
  facet normal -0.900969 -0.433884 0
    outer loop
      vertex 12.2314 10.16 0
      vertex 11.4515 11.7795 14.7
      vertex 11.4515 11.7795 0
    endloop
  endfacet
  facet normal -0.222521 -0.974928 0
    outer loop
      vertex 11.4515 11.7795 0
      vertex 11.4515 11.7795 14.7
      vertex 9.69908 12.1794 14.7
    endloop
  endfacet
  facet normal -0.222521 -0.974928 0
    outer loop
      vertex 9.69908 12.1794 0
      vertex 11.4515 11.7795 0
      vertex 9.69908 12.1794 14.7
    endloop
  endfacet
  facet normal 0.623489 -0.781832 0
    outer loop
      vertex 9.69908 12.1794 0
      vertex 9.69908 12.1794 14.7
      vertex 8.29376 11.0587 14.7
    endloop
  endfacet
  facet normal 0.623489 -0.781832 0
    outer loop
      vertex 8.29376 11.0587 0
      vertex 9.69908 12.1794 0
      vertex 8.29376 11.0587 14.7
    endloop
  endfacet
  facet normal 0 0 -1
    outer loop
      vertex -17.4625 0 0
      vertex -17.0809 3.63066 0
      vertex -17.0809 -3.63066 0
    endloop
  endfacet
  facet normal 0 0 -1
    outer loop
      vertex -17.0809 -3.63066 0
      vertex -17.0809 3.63066 0
      vertex -15.9528 7.10264 0
    endloop
  endfacet
  facet normal 0 0 -1
    outer loop
      vertex -17.0809 -3.63066 0
      vertex -15.9528 7.10264 0
      vertex -14.1275 10.2642 0
    endloop
  endfacet
  facet normal 0 0 -1
    outer loop
      vertex -17.0809 -3.63066 0
      vertex -14.1275 10.2642 0
      vertex -11.6847 12.9772 0
    endloop
  endfacet
  facet normal 0 0 -1
    outer loop
      vertex -17.0809 -3.63066 0
      vertex -11.6847 12.9772 0
      vertex -8.73125 15.123 0
    endloop
  endfacet
  facet normal 0 0 -1
    outer loop
      vertex -17.0809 -3.63066 0
      vertex -8.73125 15.123 0
      vertex -5.39621 16.6078 0
    endloop
  endfacet
  facet normal 0 0 -1
    outer loop
      vertex -17.0809 -3.63066 0
      vertex -5.39621 16.6078 0
      vertex -1.82533 17.3668 0
    endloop
  endfacet
  facet normal 0 0 -1
    outer loop
      vertex -17.0809 -3.63066 0
      vertex -1.82533 17.3668 0
      vertex 1.82533 17.3668 0
    endloop
  endfacet
  facet normal 0 0 -1
    outer loop
      vertex -17.0809 -3.63066 0
      vertex 1.82533 17.3668 0
      vertex 5.39621 16.6078 0
    endloop
  endfacet
  facet normal 0 0 -1
    outer loop
      vertex -0.99503 8.19481 0
      vertex 5.39621 16.6078 0
      vertex 8.73125 15.123 0
    endloop
  endfacet
  facet normal 0 0 -1
    outer loop
      vertex 9.69908 12.1794 0
      vertex 8.73125 15.123 0
      vertex 11.6847 12.9772 0
    endloop
  endfacet
  facet normal 0 0 -1
    outer loop
      vertex 12.2314 10.16 0
      vertex 11.6847 12.9772 0
      vertex 14.1275 10.2642 0
    endloop
  endfacet
  facet normal 0 0 -1
    outer loop
      vertex 11.4515 8.54054 0
      vertex 14.1275 10.2642 0
      vertex 15.9528 7.10264 0
    endloop
  endfacet
  facet normal 0 0 -1
    outer loop
      vertex 8.01512 1.97555 0
      vertex 15.9528 7.10264 0
      vertex 17.0809 3.63066 0
    endloop
  endfacet
  facet normal 0 0 -1
    outer loop
      vertex 8.255 0 0
      vertex 17.0809 3.63066 0
      vertex 17.4625 0 0
    endloop
  endfacet
  facet normal 0 0 -1
    outer loop
      vertex 8.01512 -1.97555 0
      vertex 17.4625 0 0
      vertex 17.0809 -3.63066 0
    endloop
  endfacet
  facet normal 0 0 -1
    outer loop
      vertex 6.17896 -5.47408 0
      vertex 17.0809 -3.63066 0
      vertex 15.9528 -7.10264 0
    endloop
  endfacet
  facet normal 0 0 -1
    outer loop
      vertex 4.68937 -6.79373 0
      vertex 15.9528 -7.10264 0
      vertex 14.1275 -10.2642 0
    endloop
  endfacet
  facet normal 0 0 -1
    outer loop
      vertex 0.99503 -8.19481 0
      vertex 14.1275 -10.2642 0
      vertex 11.6847 -12.9772 0
    endloop
  endfacet
  facet normal 0 0 -1
    outer loop
      vertex -17.0809 -3.63066 0
      vertex 11.6847 -12.9772 0
      vertex 8.73125 -15.123 0
    endloop
  endfacet
  facet normal 0 0 -1
    outer loop
      vertex -17.0809 -3.63066 0
      vertex 8.73125 -15.123 0
      vertex 5.39621 -16.6078 0
    endloop
  endfacet
  facet normal 0 0 -1
    outer loop
      vertex -8.08863 -10.16 0
      vertex 5.39621 -16.6078 0
      vertex 1.82533 -17.3668 0
    endloop
  endfacet
  facet normal 0 0 -1
    outer loop
      vertex -8.86852 -11.7795 0
      vertex -1.82533 -17.3668 0
      vertex -5.39621 -16.6078 0
    endloop
  endfacet
  facet normal 0 0 -1
    outer loop
      vertex -12.0262 -11.0587 0
      vertex -8.73125 -15.123 0
      vertex -11.6847 -12.9772 0
    endloop
  endfacet
  facet normal 0 0 -1
    outer loop
      vertex -17.0809 -3.63066 0
      vertex -11.6847 -12.9772 0
      vertex -14.1275 -10.2642 0
    endloop
  endfacet
  facet normal 0 0 -1
    outer loop
      vertex -17.0809 -3.63066 0
      vertex -14.1275 -10.2642 0
      vertex -15.9528 -7.10264 0
    endloop
  endfacet
  facet normal 0 0 -1
    outer loop
      vertex -12.0262 -11.0587 0
      vertex -17.0809 -3.63066 0
      vertex -12.0262 -9.26127 0
    endloop
  endfacet
  facet normal 0 0 -1
    outer loop
      vertex -8.86852 -11.7795 0
      vertex -5.39621 -16.6078 0
      vertex -8.73125 -15.123 0
    endloop
  endfacet
  facet normal 0 0 -1
    outer loop
      vertex -17.0809 -3.63066 0
      vertex -12.0262 -11.0587 0
      vertex -11.6847 -12.9772 0
    endloop
  endfacet
  facet normal 0 0 -1
    outer loop
      vertex -8.86852 -11.7795 0
      vertex -8.73125 -15.123 0
      vertex -10.6209 -12.1794 0
    endloop
  endfacet
  facet normal 0 0 -1
    outer loop
      vertex -10.6209 -12.1794 0
      vertex -8.73125 -15.123 0
      vertex -12.0262 -11.0587 0
    endloop
  endfacet
  facet normal 0 0 -1
    outer loop
      vertex -8.86852 -8.54054 0
      vertex 5.39621 -16.6078 0
      vertex -8.08863 -10.16 0
    endloop
  endfacet
  facet normal 0 0 -1
    outer loop
      vertex 8.29376 9.26127 0
      vertex 4.68937 6.79373 0
      vertex 2.92726 7.71856 0
    endloop
  endfacet
  facet normal 0 0 -1
    outer loop
      vertex -17.0809 -3.63066 0
      vertex 5.39621 -16.6078 0
      vertex -8.86852 -8.54054 0
    endloop
  endfacet
  facet normal 0 0 -1
    outer loop
      vertex -17.0809 -3.63066 0
      vertex -8.86852 -8.54054 0
      vertex -10.6209 -8.14056 0
    endloop
  endfacet
  facet normal 0 0 -1
    outer loop
      vertex 0.99503 8.19481 0
      vertex 8.29376 11.0587 0
      vertex 2.92726 7.71856 0
    endloop
  endfacet
  facet normal 0 0 -1
    outer loop
      vertex -8.01512 -1.97555 0
      vertex -17.0809 -3.63066 0
      vertex -8.255 0 0
    endloop
  endfacet
  facet normal 0 0 -1
    outer loop
      vertex -7.30944 -3.83629 0
      vertex -17.0809 -3.63066 0
      vertex -8.01512 -1.97555 0
    endloop
  endfacet
  facet normal 0 0 -1
    outer loop
      vertex -6.17896 -5.47408 0
      vertex -17.0809 -3.63066 0
      vertex -7.30944 -3.83629 0
    endloop
  endfacet
  facet normal 0 0 -1
    outer loop
      vertex 4.68937 -6.79373 0
      vertex 14.1275 -10.2642 0
      vertex 2.92726 -7.71856 0
    endloop
  endfacet
  facet normal 0 0 -1
    outer loop
      vertex -4.68937 -6.79373 0
      vertex -17.0809 -3.63066 0
      vertex -6.17896 -5.47408 0
    endloop
  endfacet
  facet normal 0 0 -1
    outer loop
      vertex 0.99503 -8.19481 0
      vertex 11.6847 -12.9772 0
      vertex -0.99503 -8.19481 0
    endloop
  endfacet
  facet normal 0 0 -1
    outer loop
      vertex -17.0809 -3.63066 0
      vertex -4.68937 -6.79373 0
      vertex -2.92726 -7.71856 0
    endloop
  endfacet
  facet normal 0 0 -1
    outer loop
      vertex -17.0809 -3.63066 0
      vertex -2.92726 -7.71856 0
      vertex 11.6847 -12.9772 0
    endloop
  endfacet
  facet normal 0 0 -1
    outer loop
      vertex -2.92726 -7.71856 0
      vertex -0.99503 -8.19481 0
      vertex 11.6847 -12.9772 0
    endloop
  endfacet
  facet normal 0 0 -1
    outer loop
      vertex 2.92726 -7.71856 0
      vertex 14.1275 -10.2642 0
      vertex 0.99503 -8.19481 0
    endloop
  endfacet
  facet normal 0 0 -1
    outer loop
      vertex 6.17896 -5.47408 0
      vertex 15.9528 -7.10264 0
      vertex 4.68937 -6.79373 0
    endloop
  endfacet
  facet normal 0 0 -1
    outer loop
      vertex 7.30944 -3.83629 0
      vertex 17.0809 -3.63066 0
      vertex 6.17896 -5.47408 0
    endloop
  endfacet
  facet normal 0 0 -1
    outer loop
      vertex 8.01512 -1.97555 0
      vertex 17.0809 -3.63066 0
      vertex 7.30944 -3.83629 0
    endloop
  endfacet
  facet normal 0 0 -1
    outer loop
      vertex 8.01512 1.97555 0
      vertex 17.0809 3.63066 0
      vertex 8.255 0 0
    endloop
  endfacet
  facet normal 0 0 -1
    outer loop
      vertex 7.30944 3.83629 0
      vertex 15.9528 7.10264 0
      vertex 8.01512 1.97555 0
    endloop
  endfacet
  facet normal 0 0 -1
    outer loop
      vertex 8.255 0 0
      vertex 17.4625 0 0
      vertex 8.01512 -1.97555 0
    endloop
  endfacet
  facet normal 0 0 -1
    outer loop
      vertex 11.4515 8.54054 0
      vertex 6.17896 5.47408 0
      vertex 9.69908 8.14056 0
    endloop
  endfacet
  facet normal 0 0 -1
    outer loop
      vertex 4.68937 6.79373 0
      vertex 9.69908 8.14056 0
      vertex 6.17896 5.47408 0
    endloop
  endfacet
  facet normal 0 0 -1
    outer loop
      vertex 6.17896 5.47408 0
      vertex 15.9528 7.10264 0
      vertex 7.30944 3.83629 0
    endloop
  endfacet
  facet normal 0 0 -1
    outer loop
      vertex -0.99503 8.19481 0
      vertex 8.73125 15.123 0
      vertex 0.99503 8.19481 0
    endloop
  endfacet
  facet normal 0 0 -1
    outer loop
      vertex -2.92726 7.71856 0
      vertex 5.39621 16.6078 0
      vertex -0.99503 8.19481 0
    endloop
  endfacet
  facet normal 0 0 -1
    outer loop
      vertex -7.30944 3.83629 0
      vertex -17.0809 -3.63066 0
      vertex -6.17896 5.47408 0
    endloop
  endfacet
  facet normal 0 0 -1
    outer loop
      vertex -4.68937 6.79373 0
      vertex 5.39621 16.6078 0
      vertex -2.92726 7.71856 0
    endloop
  endfacet
  facet normal 0 0 -1
    outer loop
      vertex -17.0809 -3.63066 0
      vertex 5.39621 16.6078 0
      vertex -4.68937 6.79373 0
    endloop
  endfacet
  facet normal 0 0 -1
    outer loop
      vertex -17.0809 -3.63066 0
      vertex -4.68937 6.79373 0
      vertex -6.17896 5.47408 0
    endloop
  endfacet
  facet normal 0 0 -1
    outer loop
      vertex -8.01512 1.97555 0
      vertex -17.0809 -3.63066 0
      vertex -7.30944 3.83629 0
    endloop
  endfacet
  facet normal 0 0 -1
    outer loop
      vertex 8.29376 11.0587 0
      vertex 0.99503 8.19481 0
      vertex 9.69908 12.1794 0
    endloop
  endfacet
  facet normal 0 0 -1
    outer loop
      vertex 9.69908 8.14056 0
      vertex 4.68937 6.79373 0
      vertex 8.29376 9.26127 0
    endloop
  endfacet
  facet normal 0 0 -1
    outer loop
      vertex 12.2314 10.16 0
      vertex 14.1275 10.2642 0
      vertex 11.4515 8.54054 0
    endloop
  endfacet
  facet normal 0 0 -1
    outer loop
      vertex 6.17896 5.47408 0
      vertex 11.4515 8.54054 0
      vertex 15.9528 7.10264 0
    endloop
  endfacet
  facet normal 0 0 -1
    outer loop
      vertex 11.4515 11.7795 0
      vertex 11.6847 12.9772 0
      vertex 12.2314 10.16 0
    endloop
  endfacet
  facet normal 0 0 -1
    outer loop
      vertex 9.69908 12.1794 0
      vertex 11.6847 12.9772 0
      vertex 11.4515 11.7795 0
    endloop
  endfacet
  facet normal 0 0 -1
    outer loop
      vertex 0.99503 8.19481 0
      vertex 8.73125 15.123 0
      vertex 9.69908 12.1794 0
    endloop
  endfacet
  facet normal 0 0 -1
    outer loop
      vertex 8.29376 9.26127 0
      vertex 2.92726 7.71856 0
      vertex 8.29376 11.0587 0
    endloop
  endfacet
  facet normal 0 0 -1
    outer loop
      vertex -12.0262 -9.26127 0
      vertex -17.0809 -3.63066 0
      vertex -10.6209 -8.14056 0
    endloop
  endfacet
  facet normal 0 0 -1
    outer loop
      vertex -8.08863 -10.16 0
      vertex 1.82533 -17.3668 0
      vertex -1.82533 -17.3668 0
    endloop
  endfacet
  facet normal 0 0 -1
    outer loop
      vertex -8.255 0 0
      vertex -17.0809 -3.63066 0
      vertex -8.01512 1.97555 0
    endloop
  endfacet
  facet normal 0 0 -1
    outer loop
      vertex -8.08863 -10.16 0
      vertex -1.82533 -17.3668 0
      vertex -8.86852 -11.7795 0
    endloop
  endfacet
  facet normal 0 0 1
    outer loop
      vertex -10.0933 2.14539 5.715
      vertex -10.3188 0 5.715
      vertex -10.0933 -2.14539 5.715
    endloop
  endfacet
  facet normal 0 0 1
    outer loop
      vertex -8.34804 -6.06521 5.715
      vertex -10.0933 2.14539 5.715
      vertex -9.42665 -4.19701 5.715
    endloop
  endfacet
  facet normal 0 0 1
    outer loop
      vertex -9.42665 -4.19701 5.715
      vertex -10.0933 2.14539 5.715
      vertex -10.0933 -2.14539 5.715
    endloop
  endfacet
  facet normal 0 0 1
    outer loop
      vertex -6.90459 -7.66833 5.715
      vertex -10.0933 2.14539 5.715
      vertex -8.34804 -6.06521 5.715
    endloop
  endfacet
  facet normal 0 0 1
    outer loop
      vertex -5.15937 -8.9363 5.715
      vertex -10.0933 2.14539 5.715
      vertex -6.90459 -7.66833 5.715
    endloop
  endfacet
  facet normal 0 0 1
    outer loop
      vertex -7.30944 -3.83629 5.715
      vertex -10.0933 2.14539 5.715
      vertex -5.15937 -8.9363 5.715
    endloop
  endfacet
  facet normal 0 0 1
    outer loop
      vertex 7.30944 -3.83629 5.715
      vertex 6.17896 -5.47408 5.715
      vertex 8.34804 -6.06521 5.715
    endloop
  endfacet
  facet normal 0 0 1
    outer loop
      vertex 8.01512 1.97555 5.715
      vertex 8.255 0 5.715
      vertex 10.3188 0 5.715
    endloop
  endfacet
  facet normal 0 0 1
    outer loop
      vertex -2.92726 7.71856 5.715
      vertex -0.99503 8.19481 5.715
      vertex 1.0786 10.2622 5.715
    endloop
  endfacet
  facet normal 0 0 1
    outer loop
      vertex -0.99503 8.19481 5.715
      vertex 0.99503 8.19481 5.715
      vertex 3.18867 9.81371 5.715
    endloop
  endfacet
  facet normal 0 0 1
    outer loop
      vertex -3.18867 9.81371 5.715
      vertex -10.0933 2.14539 5.715
      vertex -1.0786 10.2622 5.715
    endloop
  endfacet
  facet normal 0 0 1
    outer loop
      vertex -5.15937 8.9363 5.715
      vertex -10.0933 2.14539 5.715
      vertex -3.18867 9.81371 5.715
    endloop
  endfacet
  facet normal 0 0 1
    outer loop
      vertex -6.90459 7.66833 5.715
      vertex -10.0933 2.14539 5.715
      vertex -5.15937 8.9363 5.715
    endloop
  endfacet
  facet normal 0 0 1
    outer loop
      vertex -8.34804 6.06521 5.715
      vertex -10.0933 2.14539 5.715
      vertex -6.90459 7.66833 5.715
    endloop
  endfacet
  facet normal 0 0 1
    outer loop
      vertex -9.42665 4.19701 5.715
      vertex -10.0933 2.14539 5.715
      vertex -8.34804 6.06521 5.715
    endloop
  endfacet
  facet normal 0 0 1
    outer loop
      vertex 8.255 0 5.715
      vertex 8.01512 -1.97555 5.715
      vertex 10.0933 -2.14539 5.715
    endloop
  endfacet
  facet normal 0 0 1
    outer loop
      vertex 0.99503 8.19481 5.715
      vertex 2.92726 7.71856 5.715
      vertex 5.15937 8.9363 5.715
    endloop
  endfacet
  facet normal 0 0 1
    outer loop
      vertex 7.30944 3.83629 5.715
      vertex 8.01512 1.97555 5.715
      vertex 10.0933 2.14539 5.715
    endloop
  endfacet
  facet normal 0 0 1
    outer loop
      vertex -1.0786 10.2622 5.715
      vertex -10.0933 2.14539 5.715
      vertex -6.17896 5.47408 5.715
    endloop
  endfacet
  facet normal 0 0 1
    outer loop
      vertex -1.0786 10.2622 5.715
      vertex -4.68937 6.79373 5.715
      vertex 1.0786 10.2622 5.715
    endloop
  endfacet
  facet normal 0 0 1
    outer loop
      vertex -1.0786 10.2622 5.715
      vertex -6.17896 5.47408 5.715
      vertex -4.68937 6.79373 5.715
    endloop
  endfacet
  facet normal 0 0 1
    outer loop
      vertex -4.68937 6.79373 5.715
      vertex -2.92726 7.71856 5.715
      vertex 1.0786 10.2622 5.715
    endloop
  endfacet
  facet normal 0 0 1
    outer loop
      vertex 1.0786 10.2622 5.715
      vertex -0.99503 8.19481 5.715
      vertex 3.18867 9.81371 5.715
    endloop
  endfacet
  facet normal 0 0 1
    outer loop
      vertex 3.18867 9.81371 5.715
      vertex 0.99503 8.19481 5.715
      vertex 5.15937 8.9363 5.715
    endloop
  endfacet
  facet normal 0 0 1
    outer loop
      vertex -7.30944 3.83629 5.715
      vertex -6.17896 5.47408 5.715
      vertex -10.0933 2.14539 5.715
    endloop
  endfacet
  facet normal 0 0 1
    outer loop
      vertex 5.15937 8.9363 5.715
      vertex 2.92726 7.71856 5.715
      vertex 6.90459 7.66833 5.715
    endloop
  endfacet
  facet normal 0 0 1
    outer loop
      vertex 6.90459 7.66833 5.715
      vertex 4.68937 6.79373 5.715
      vertex 8.34804 6.06521 5.715
    endloop
  endfacet
  facet normal 0 0 1
    outer loop
      vertex 8.34804 6.06521 5.715
      vertex 6.17896 5.47408 5.715
      vertex 9.42665 4.19701 5.715
    endloop
  endfacet
  facet normal 0 0 1
    outer loop
      vertex 9.42665 4.19701 5.715
      vertex 7.30944 3.83629 5.715
      vertex 10.0933 2.14539 5.715
    endloop
  endfacet
  facet normal 0 0 1
    outer loop
      vertex 10.0933 2.14539 5.715
      vertex 8.01512 1.97555 5.715
      vertex 10.3188 0 5.715
    endloop
  endfacet
  facet normal 0 0 1
    outer loop
      vertex 10.3188 0 5.715
      vertex 8.255 0 5.715
      vertex 10.0933 -2.14539 5.715
    endloop
  endfacet
  facet normal 0 0 1
    outer loop
      vertex 2.92726 7.71856 5.715
      vertex 4.68937 6.79373 5.715
      vertex 6.90459 7.66833 5.715
    endloop
  endfacet
  facet normal 0 0 1
    outer loop
      vertex 10.0933 -2.14539 5.715
      vertex 8.01512 -1.97555 5.715
      vertex 9.42665 -4.19701 5.715
    endloop
  endfacet
  facet normal 0 0 1
    outer loop
      vertex 4.68937 6.79373 5.715
      vertex 6.17896 5.47408 5.715
      vertex 8.34804 6.06521 5.715
    endloop
  endfacet
  facet normal 0 0 1
    outer loop
      vertex 9.42665 -4.19701 5.715
      vertex 7.30944 -3.83629 5.715
      vertex 8.34804 -6.06521 5.715
    endloop
  endfacet
  facet normal 0 0 1
    outer loop
      vertex 6.17896 5.47408 5.715
      vertex 7.30944 3.83629 5.715
      vertex 9.42665 4.19701 5.715
    endloop
  endfacet
  facet normal 0 0 1
    outer loop
      vertex 8.34804 -6.06521 5.715
      vertex 6.17896 -5.47408 5.715
      vertex 6.90459 -7.66833 5.715
    endloop
  endfacet
  facet normal 0 0 1
    outer loop
      vertex 6.90459 -7.66833 5.715
      vertex 4.68937 -6.79373 5.715
      vertex 5.15937 -8.9363 5.715
    endloop
  endfacet
  facet normal 0 0 1
    outer loop
      vertex 0.99503 -8.19481 5.715
      vertex -0.99503 -8.19481 5.715
      vertex 1.0786 -10.2622 5.715
    endloop
  endfacet
  facet normal 0 0 1
    outer loop
      vertex 5.15937 -8.9363 5.715
      vertex 2.92726 -7.71856 5.715
      vertex 3.18867 -9.81371 5.715
    endloop
  endfacet
  facet normal 0 0 1
    outer loop
      vertex -8.01512 1.97555 5.715
      vertex -7.30944 3.83629 5.715
      vertex -10.0933 2.14539 5.715
    endloop
  endfacet
  facet normal 0 0 1
    outer loop
      vertex 3.18867 -9.81371 5.715
      vertex 0.99503 -8.19481 5.715
      vertex 1.0786 -10.2622 5.715
    endloop
  endfacet
  facet normal 0 0 1
    outer loop
      vertex 1.0786 -10.2622 5.715
      vertex -0.99503 -8.19481 5.715
      vertex -1.0786 -10.2622 5.715
    endloop
  endfacet
  facet normal 0 0 1
    outer loop
      vertex -1.0786 -10.2622 5.715
      vertex -2.92726 -7.71856 5.715
      vertex -3.18867 -9.81371 5.715
    endloop
  endfacet
  facet normal 0 0 1
    outer loop
      vertex 8.01512 -1.97555 5.715
      vertex 7.30944 -3.83629 5.715
      vertex 9.42665 -4.19701 5.715
    endloop
  endfacet
  facet normal 0 0 1
    outer loop
      vertex -2.92726 -7.71856 5.715
      vertex -4.68937 -6.79373 5.715
      vertex -3.18867 -9.81371 5.715
    endloop
  endfacet
  facet normal 0 0 1
    outer loop
      vertex -3.18867 -9.81371 5.715
      vertex -6.17896 -5.47408 5.715
      vertex -5.15937 -8.9363 5.715
    endloop
  endfacet
  facet normal 0 0 1
    outer loop
      vertex -8.01512 -1.97555 5.715
      vertex -10.0933 2.14539 5.715
      vertex -7.30944 -3.83629 5.715
    endloop
  endfacet
  facet normal 0 0 1
    outer loop
      vertex -6.17896 -5.47408 5.715
      vertex -7.30944 -3.83629 5.715
      vertex -5.15937 -8.9363 5.715
    endloop
  endfacet
  facet normal 0 0 1
    outer loop
      vertex -8.01512 -1.97555 5.715
      vertex -8.255 0 5.715
      vertex -10.0933 2.14539 5.715
    endloop
  endfacet
  facet normal 0 0 1
    outer loop
      vertex 6.17896 -5.47408 5.715
      vertex 4.68937 -6.79373 5.715
      vertex 6.90459 -7.66833 5.715
    endloop
  endfacet
  facet normal 0 0 1
    outer loop
      vertex 4.68937 -6.79373 5.715
      vertex 2.92726 -7.71856 5.715
      vertex 5.15937 -8.9363 5.715
    endloop
  endfacet
  facet normal 0 0 1
    outer loop
      vertex 2.92726 -7.71856 5.715
      vertex 0.99503 -8.19481 5.715
      vertex 3.18867 -9.81371 5.715
    endloop
  endfacet
  facet normal 0 0 1
    outer loop
      vertex -4.68937 -6.79373 5.715
      vertex -6.17896 -5.47408 5.715
      vertex -3.18867 -9.81371 5.715
    endloop
  endfacet
  facet normal 0 0 1
    outer loop
      vertex -0.99503 -8.19481 5.715
      vertex -2.92726 -7.71856 5.715
      vertex -1.0786 -10.2622 5.715
    endloop
  endfacet
  facet normal 0 0 1
    outer loop
      vertex -8.255 0 5.715
      vertex -8.01512 1.97555 5.715
      vertex -10.0933 2.14539 5.715
    endloop
  endfacet
  facet normal 0.992709 -0.120537 0
    outer loop
      vertex -8.01512 1.97555 0
      vertex -8.01512 1.97555 5.715
      vertex -8.255 0 5.715
    endloop
  endfacet
  facet normal 0.992709 -0.120537 0
    outer loop
      vertex -8.255 0 0
      vertex -8.01512 1.97555 0
      vertex -8.255 0 5.715
    endloop
  endfacet
  facet normal 0.992709 0.120537 0
    outer loop
      vertex -8.255 0 5.715
      vertex -8.01512 -1.97555 5.715
      vertex -8.01512 -1.97555 0
    endloop
  endfacet
  facet normal 0.992709 0.120537 0
    outer loop
      vertex -8.255 0 0
      vertex -8.255 0 5.715
      vertex -8.01512 -1.97555 0
    endloop
  endfacet
  facet normal 0.935016 -0.354605 0
    outer loop
      vertex -7.30944 3.83629 0
      vertex -7.30944 3.83629 5.715
      vertex -8.01512 1.97555 5.715
    endloop
  endfacet
  facet normal 0.935016 -0.354605 0
    outer loop
      vertex -8.01512 1.97555 0
      vertex -7.30944 3.83629 0
      vertex -8.01512 1.97555 5.715
    endloop
  endfacet
  facet normal 0.822984 -0.568065 0
    outer loop
      vertex -6.17896 5.47408 0
      vertex -6.17896 5.47408 5.715
      vertex -7.30944 3.83629 5.715
    endloop
  endfacet
  facet normal 0.822984 -0.568065 0
    outer loop
      vertex -7.30944 3.83629 0
      vertex -6.17896 5.47408 0
      vertex -7.30944 3.83629 5.715
    endloop
  endfacet
  facet normal 0.663123 -0.748511 0
    outer loop
      vertex -4.68937 6.79373 0
      vertex -4.68937 6.79373 5.715
      vertex -6.17896 5.47408 5.715
    endloop
  endfacet
  facet normal 0.663123 -0.748511 0
    outer loop
      vertex -6.17896 5.47408 0
      vertex -4.68937 6.79373 0
      vertex -6.17896 5.47408 5.715
    endloop
  endfacet
  facet normal 0.464723 -0.885456 0
    outer loop
      vertex -2.92726 7.71856 0
      vertex -2.92726 7.71856 5.715
      vertex -4.68937 6.79373 5.715
    endloop
  endfacet
  facet normal 0.464723 -0.885456 0
    outer loop
      vertex -4.68937 6.79373 0
      vertex -2.92726 7.71856 0
      vertex -4.68937 6.79373 5.715
    endloop
  endfacet
  facet normal 0.239316 -0.970942 0
    outer loop
      vertex -0.99503 8.19481 0
      vertex -0.99503 8.19481 5.715
      vertex -2.92726 7.71856 5.715
    endloop
  endfacet
  facet normal 0.239316 -0.970942 0
    outer loop
      vertex -2.92726 7.71856 0
      vertex -0.99503 8.19481 0
      vertex -2.92726 7.71856 5.715
    endloop
  endfacet
  facet normal 0 -1 0
    outer loop
      vertex 0.99503 8.19481 0
      vertex 0.99503 8.19481 5.715
      vertex -0.99503 8.19481 5.715
    endloop
  endfacet
  facet normal 0 -1 0
    outer loop
      vertex -0.99503 8.19481 0
      vertex 0.99503 8.19481 0
      vertex -0.99503 8.19481 5.715
    endloop
  endfacet
  facet normal -0.239316 -0.970942 0
    outer loop
      vertex 2.92726 7.71856 0
      vertex 2.92726 7.71856 5.715
      vertex 0.99503 8.19481 5.715
    endloop
  endfacet
  facet normal -0.239316 -0.970942 0
    outer loop
      vertex 0.99503 8.19481 0
      vertex 2.92726 7.71856 0
      vertex 0.99503 8.19481 5.715
    endloop
  endfacet
  facet normal -0.464723 -0.885456 0
    outer loop
      vertex 4.68937 6.79373 0
      vertex 4.68937 6.79373 5.715
      vertex 2.92726 7.71856 5.715
    endloop
  endfacet
  facet normal -0.464723 -0.885456 0
    outer loop
      vertex 2.92726 7.71856 0
      vertex 4.68937 6.79373 0
      vertex 2.92726 7.71856 5.715
    endloop
  endfacet
  facet normal -0.663123 -0.748511 0
    outer loop
      vertex 6.17896 5.47408 0
      vertex 6.17896 5.47408 5.715
      vertex 4.68937 6.79373 5.715
    endloop
  endfacet
  facet normal -0.663123 -0.748511 0
    outer loop
      vertex 4.68937 6.79373 0
      vertex 6.17896 5.47408 0
      vertex 4.68937 6.79373 5.715
    endloop
  endfacet
  facet normal -0.822984 -0.568065 0
    outer loop
      vertex 7.30944 3.83629 5.715
      vertex 6.17896 5.47408 5.715
      vertex 7.30944 3.83629 0
    endloop
  endfacet
  facet normal -0.822984 -0.568065 0
    outer loop
      vertex 7.30944 3.83629 0
      vertex 6.17896 5.47408 5.715
      vertex 6.17896 5.47408 0
    endloop
  endfacet
  facet normal -0.935016 -0.354605 0
    outer loop
      vertex 8.01512 1.97555 5.715
      vertex 7.30944 3.83629 5.715
      vertex 8.01512 1.97555 0
    endloop
  endfacet
  facet normal -0.935016 -0.354605 0
    outer loop
      vertex 8.01512 1.97555 0
      vertex 7.30944 3.83629 5.715
      vertex 7.30944 3.83629 0
    endloop
  endfacet
  facet normal -0.992709 -0.120537 0
    outer loop
      vertex 8.255 0 5.715
      vertex 8.01512 1.97555 5.715
      vertex 8.255 0 0
    endloop
  endfacet
  facet normal -0.992709 -0.120537 0
    outer loop
      vertex 8.255 0 0
      vertex 8.01512 1.97555 5.715
      vertex 8.01512 1.97555 0
    endloop
  endfacet
  facet normal -0.992709 0.120537 0
    outer loop
      vertex 8.255 0 5.715
      vertex 8.255 0 0
      vertex 8.01512 -1.97555 5.715
    endloop
  endfacet
  facet normal -0.992709 0.120537 0
    outer loop
      vertex 8.01512 -1.97555 5.715
      vertex 8.255 0 0
      vertex 8.01512 -1.97555 0
    endloop
  endfacet
  facet normal -0.935016 0.354605 0
    outer loop
      vertex 8.01512 -1.97555 5.715
      vertex 8.01512 -1.97555 0
      vertex 7.30944 -3.83629 5.715
    endloop
  endfacet
  facet normal -0.935016 0.354605 0
    outer loop
      vertex 7.30944 -3.83629 5.715
      vertex 8.01512 -1.97555 0
      vertex 7.30944 -3.83629 0
    endloop
  endfacet
  facet normal -0.822984 0.568065 0
    outer loop
      vertex 7.30944 -3.83629 5.715
      vertex 7.30944 -3.83629 0
      vertex 6.17896 -5.47408 5.715
    endloop
  endfacet
  facet normal -0.822984 0.568065 0
    outer loop
      vertex 6.17896 -5.47408 5.715
      vertex 7.30944 -3.83629 0
      vertex 6.17896 -5.47408 0
    endloop
  endfacet
  facet normal -0.663123 0.748511 0
    outer loop
      vertex 6.17896 -5.47408 5.715
      vertex 6.17896 -5.47408 0
      vertex 4.68937 -6.79373 5.715
    endloop
  endfacet
  facet normal -0.663123 0.748511 0
    outer loop
      vertex 4.68937 -6.79373 5.715
      vertex 6.17896 -5.47408 0
      vertex 4.68937 -6.79373 0
    endloop
  endfacet
  facet normal -0.464723 0.885456 0
    outer loop
      vertex 4.68937 -6.79373 5.715
      vertex 4.68937 -6.79373 0
      vertex 2.92726 -7.71856 5.715
    endloop
  endfacet
  facet normal -0.464723 0.885456 0
    outer loop
      vertex 2.92726 -7.71856 5.715
      vertex 4.68937 -6.79373 0
      vertex 2.92726 -7.71856 0
    endloop
  endfacet
  facet normal -0.239316 0.970942 0
    outer loop
      vertex 2.92726 -7.71856 5.715
      vertex 2.92726 -7.71856 0
      vertex 0.99503 -8.19481 5.715
    endloop
  endfacet
  facet normal -0.239316 0.970942 0
    outer loop
      vertex 0.99503 -8.19481 5.715
      vertex 2.92726 -7.71856 0
      vertex 0.99503 -8.19481 0
    endloop
  endfacet
  facet normal 0 1 0
    outer loop
      vertex 0.99503 -8.19481 5.715
      vertex 0.99503 -8.19481 0
      vertex -0.99503 -8.19481 5.715
    endloop
  endfacet
  facet normal 0 1 0
    outer loop
      vertex -0.99503 -8.19481 5.715
      vertex 0.99503 -8.19481 0
      vertex -0.99503 -8.19481 0
    endloop
  endfacet
  facet normal 0.239316 0.970942 0
    outer loop
      vertex -0.99503 -8.19481 5.715
      vertex -0.99503 -8.19481 0
      vertex -2.92726 -7.71856 5.715
    endloop
  endfacet
  facet normal 0.239316 0.970942 0
    outer loop
      vertex -2.92726 -7.71856 5.715
      vertex -0.99503 -8.19481 0
      vertex -2.92726 -7.71856 0
    endloop
  endfacet
  facet normal 0.464723 0.885456 0
    outer loop
      vertex -2.92726 -7.71856 5.715
      vertex -2.92726 -7.71856 0
      vertex -4.68937 -6.79373 5.715
    endloop
  endfacet
  facet normal 0.464723 0.885456 0
    outer loop
      vertex -4.68937 -6.79373 5.715
      vertex -2.92726 -7.71856 0
      vertex -4.68937 -6.79373 0
    endloop
  endfacet
  facet normal 0.663123 0.748511 0
    outer loop
      vertex -4.68937 -6.79373 5.715
      vertex -4.68937 -6.79373 0
      vertex -6.17896 -5.47408 5.715
    endloop
  endfacet
  facet normal 0.663123 0.748511 0
    outer loop
      vertex -6.17896 -5.47408 5.715
      vertex -4.68937 -6.79373 0
      vertex -6.17896 -5.47408 0
    endloop
  endfacet
  facet normal 0.822984 0.568065 0
    outer loop
      vertex -7.30944 -3.83629 5.715
      vertex -6.17896 -5.47408 5.715
      vertex -6.17896 -5.47408 0
    endloop
  endfacet
  facet normal 0.822984 0.568065 0
    outer loop
      vertex -7.30944 -3.83629 0
      vertex -7.30944 -3.83629 5.715
      vertex -6.17896 -5.47408 0
    endloop
  endfacet
  facet normal 0.935016 0.354605 0
    outer loop
      vertex -8.01512 -1.97555 5.715
      vertex -7.30944 -3.83629 5.715
      vertex -7.30944 -3.83629 0
    endloop
  endfacet
  facet normal 0.935016 0.354605 0
    outer loop
      vertex -8.01512 -1.97555 0
      vertex -8.01512 -1.97555 5.715
      vertex -7.30944 -3.83629 0
    endloop
  endfacet
endsolid OpenSCAD_Model
