<svg id="Layer_1" data-name="Layer 1" xmlns="http://www.w3.org/2000/svg" viewBox="0 0 184.32 198.08"><defs><style>.cls-1{fill-rule:evenodd;}</style></defs><path class="cls-1" d="M305.08,293.28c1.32.18,3,1,3.36,2.4.28,1.17-.77,2.52-.48,3.84.39,1.82,3.35,3,3.84,5.52.39,2-.52,4-.24,6.24.18,1.44,1.23,2.57,1.92,4.08h3.12c-.31-3.83.91-6.13,4.08-6.48-1.22,2-.55,4.56.72,7a41.35,41.35,0,0,1,15.84,2.64c2.2.8,3.92,2.43,6,3.36,1.61.72,3.89.92,4.32,2.88.15.68-.47,2.37-.48,3.6,0,4.57,2.74,10.81,1.92,14.64-.29,1.37-1.67,3.32-2.88,3.36-.18-2.1,2.09-2,1.68-5.76-.38-3.48-2-9.23-1.92-12.48,0-1.13.42-2.52.24-3.12-.42-1.45-7.3-4.65-8.88-5.28-10.36-4.11-28.95-3.78-43.92-3.12-7.66.34-14.63,1.7-19.44,3.6-.86.34-.49,1.91-1.2,2.4-2.31-1.59-3.77.88-6,.72-1.45,1.1-.65,2.57-.72,5.52-.1,4-1.6,9-1.92,11.52a9.83,9.83,0,0,0,0,2.64c.4,1.71,3.1,2.15,1.44,3.84-.46-.89-2.27-2.12-2.64-3.84-.72-3.38,1.9-10.13,1.92-14.4,0-1.23-.61-2.88-.48-3.6.58-3.25,4.93-2.6,6.24-4.56,1-.24,1.1.5,1.68.72.17-2.29,2.48-2.37,4.56-3.12a46.07,46.07,0,0,1,11.76-2.4c4.57-.34,7.88.56,10.8-1.92,1.86-1.58,5.54-5.09,5.52-7.44,0-1.63-1.8-2.09-2.16-3.6-.88-3.63,2.31-4,3.36-7C306.18,294.49,304.35,294.3,305.08,293.28Z" transform="translate(-213.4 -293.28)"/><path class="cls-1" d="M304.36,320.4c-.16.72-.83.93-1.68,1,.3,3-.2,6.76,1.44,8.4-3.45-.47-3.58-4.26-5.52-6.24-.56,1.2-.08,3.44-.24,5,.1.7,1.41.19,1.68.72-.6,1.41-2.49.05-3.12,1.44a39.33,39.33,0,0,0,.48-8.4c-.68,0-1.14-.68-2.16-.24.09,2.77-.27,4.51-.24,6.72-.11.67,1.31-.19,1.2.48-.29,1.31-2.13,1.07-3.12,1.68.35-1.49,1.44-2.24,1-4.56a5.93,5.93,0,0,1-2.4.24c-.86.84-.61,3.07.48,3.36-.46.82-2.06.5-2.88,1,1.25-1.95.51-5,1.44-7.92-.08-.8-.74.94-1,0-.67-1.12,1.89-2,2.64-1.68a6.2,6.2,0,0,0-1,4.32c3.12,1.2,3.61-3.16,2.16-3.6,3.67-3.38,6.75,1.54,8.16,4.56.28-1.48.57-5.05-1-5.52C300.66,319.67,303.48,320.09,304.36,320.4Z" transform="translate(-213.4 -293.28)"/><path class="cls-1" d="M309.16,329c-8.31,1.85-5.67-12.14.24-8.16C311.33,322.18,311.88,327.94,309.16,329Zm.72-1.92c.13-2.21-.1-4.06-1-5.28C302.57,319,305,331.83,309.88,327.12Z" transform="translate(-213.4 -293.28)"/><path class="cls-1" d="M318.76,322.32c-.2.68-.68,1.08-1.68,1-1.11-.62-1.24-2.09-3.12-1.44-2,.7-1.9,6.54,1.44,7,1.08.13,1.74-.87,2.88-.24-.66,1.64-2.89,1.34-3.6,1.2-3.53-.71-4.91-9.53.72-8.88C316.85,321.05,316.9,322.15,318.76,322.32Z" transform="translate(-213.4 -293.28)"/><path class="cls-1" d="M321.16,321.84c3.19-.73,7.1,4.53,4.56,7.92C322,334.71,315,323.26,321.16,321.84Zm-.48,1c-1.74,2.66-.45,7.55,3.6,6.72a2.23,2.23,0,0,1,1-1C325.44,325,323.85,322.21,320.68,322.8Z" transform="translate(-213.4 -293.28)"/><path class="cls-1" d="M289.24,324c-.26.94-1.2,1.2-2.16,1.44-.27-1,.51-.94.48-1.68-2.8-3.76-6.19,5.34-2.88,6.24,1.66.45,1.62-1.3,3.6-1.68.31,1.69-2.5,3.31-4.8,2.4C279.64,326.81,285.6,318.33,289.24,324Z" transform="translate(-213.4 -293.28)"/><path class="cls-1" d="M280.84,322.32h.72A5.62,5.62,0,0,1,282,325a4.09,4.09,0,0,0-3.36-.24v2.16a1.82,1.82,0,0,0,.72.48c1.05.33.51-.93,1.44-.72a9.14,9.14,0,0,1,.48,2.16c-.88-.16-1.89-.19-2.4-.72a6.9,6.9,0,0,0-.48,2.88c.26.54,1.51.09,2.16.24.86-.32.08-.79.48-1.44,1.07,0,.92,1.16,1.2,1.92-2.17.81-4,.54-6.24,1.44-.21-1.25.85-1.23,1.44-1.68-.49-2.85,1.31-5.33-.72-7.2-.68.28.27,2.19-.72,2.16-.82.18-.4-.88-1-1s-.71.41-1.44.24q-.34,4-1,7.68c1,.24.72-.72,1.68-.48a3.22,3.22,0,0,1-3.6,2.4c-.2-1.16.56-1.36,1.2-1.68,0-2.69.63-4.81.72-7.44a7.21,7.21,0,0,0-2.4,1.2c-.14.5.3,1.58-.24,1.68-1.19.07-.75-1.49-1-2.4,3.14-2.35,7.6-2.76,11.76-3.6C280.41,322.86,280.81,322.6,280.84,322.32Z" transform="translate(-213.4 -293.28)"/><path class="cls-1" d="M328.6,327.84a8.08,8.08,0,0,1,.24,2.88c.2.7.6-.31,1.2,0,.19.83-.27,1-.48,1.44a11.75,11.75,0,0,0-2.88-.48c-.27-1.07.74-.86,1.2-1.2-.37-2.64-.51-4.06-.72-6.72-.1-.54-1.27,0-1.44-.48C329.44,319.22,336.09,328.22,328.6,327.84Zm0-1a3.38,3.38,0,0,0,2.4-.48c.18-1.86-1.24-3.4-2.88-2.64C328.78,324.3,328,326.32,328.6,326.88Z" transform="translate(-213.4 -293.28)"/><path class="cls-1" d="M332.2,323.28a18.44,18.44,0,0,1,3.36.72c-2.38,1.34-1.25,7.17-.48,8.64-1.11-.25-2.08.44-2.64,0,1.78-1.39.08-5.33,1-7.92-.22-.87-.71-.15-1.44-.24A1.55,1.55,0,0,1,332.2,323.28Z" transform="translate(-213.4 -293.28)"/><path class="cls-1" d="M339.16,324.48c-.92,1.88.86,4.35,1.92,5.76a1.71,1.71,0,0,0,1.44-1c0-.53-1-.1-1.44-.24-.29-1.61,2.24-1,2.4-.24.18,1.78-1.17,2-2.4,2.4.07,1.06,1.26,2,.72,2.88.64.74.91-.63,1.44,0,.21.77-.38.74-.48,1.2-1.42.18-1.51-.87-2.4,0,.15-2.09.32-4.71-2.64-4.8-.54.26-.09,1.51-.24,2.16.85.37.14-.81.72-.72,1-.23.83,1.3.48,1.68-1.57-.37-1.91.49-2.88.72a1,1,0,0,1,.72-1.68,23.84,23.84,0,0,1,.72-7c-.51-.85-.89,1.06-1.44.24C335.35,324,338.31,324.35,339.16,324.48Zm-1.44,5c.43,0,1.4.65,1.68,0-.76-.6-.68-2-1.44-2.64A9,9,0,0,0,337.72,329.52Z" transform="translate(-213.4 -293.28)"/><path class="cls-1" d="M249.16,334.8c4.43-1.81,9-4.71,14.88-4.32-1.87,1.63-4.69,1.19-7,1.92s-4.39,2.47-6.72,2.88c.68,3.24,2.95,4.89,4.56,7.2-1.32,1.88-1.21,5.19-2.16,7.44,1.49-1.07,6.07-1.13,6.72-3.84,1.35,1.84,5.27,1.16,7.68.72,1.33-.95.22-3.3.48-4.32-1.51.09-.45,1.68-1,2.4-3.64-2.08,1.59-4.29,4.08-5.52,3.64-1.8,7.83-3.79,12.24-4.32,11.28-1.35,26.2,1,36.48-.24,1-.06-.37-1.27.72-1.44s.53,1.07,1,1.44c4.68.12,9.38.22,12.72,1.68,1.48.12,1.16-1.56,2.64-1.44.15.89.65,1.43.48,2.64a52.47,52.47,0,0,1,9.36,4.8c.14,1.18-.31,1.77-1.2,1.92-.4-.6.3-1.58-.72-1.92a16.1,16.1,0,0,0-.24,3.6c4.05,2.27,11.53,1.11,14.88,4.08-.27-2.92-2-5.33-1.44-7.92.62-2.85,4.65-4.11,6.24-6-4.06-1-7.63-3.64-12-4.56-1.24-.26-3.23.3-4.08-1.2,7.56-.59,11.78,4.22,19,4.8-2.14,3-6,4.25-7.92,7.44.42,3.69,2,7.37,2.16,10.56-1.42,0-1.51-1.43-2.4-2.16-3.5-2.9-10.38-1.8-15.12-4.08-.47-1-1-4,.24-4.56a26.16,26.16,0,0,0-7.68-3.6c-.33-.31-.24-1-.24-1.68-2.26,1.93-5.17-1.2-8.64-1,2.87,7.1,1.54,16.17-3.84,19.44,5.82,14.49-19.27,13.9-30.48,11.52-4.44-3.91-11.13-12.69-12-20.64-.59-5.38,1.28-8,4.32-10.32-6.91.77-11.86,3.5-17,6,3.78,5.2-5.19,7.84-8.16,5.52-.63.25-.5,1.26-1.2,1.44-3.87,0-5.27,2.41-7.68,3.84.31-3.85,1.4-6.92,2.16-10.32C251.66,340.46,249.45,337.55,249.16,334.8ZM313,336.48a10.35,10.35,0,0,1,1.44,3.36c1.05-.87,2.19-1.65,2.16-3.6C315.88,336,313.35,335.62,313,336.48ZM293.8,347c-1.27-.73-1.14-4.93-3.12-5.76C290.15,344.19,290.82,347,293.8,347Zm6.72,3.36c-.29,1.23-1.95,1.09-3.12,1.44,1,2.75.1,5.67,1.68,7.92a6.68,6.68,0,0,0,7.68,2.16c.36-.17,1-1.14,1.68-1.68,1.28-1,2.76-1.59,3.36-2.4,1.57-2.14,1.15-6.85-.72-9.6-2.09-3.09-7.5-3.29-9.12-7A10.11,10.11,0,0,0,300.52,350.4Z" transform="translate(-213.4 -293.28)"/><path class="cls-1" d="M249.16,338.88c.18.78,1.87.05,1.68,1.2-1,.65-2.21-.09-3.36,0,.22-1.46.83-2.53,2.16-2.88A1.13,1.13,0,0,1,249.16,338.88Z" transform="translate(-213.4 -293.28)"/><path class="cls-1" d="M333.4,345.6a15.53,15.53,0,0,1-1.44,6.24c-1.22,2.11-3.42,4.55-6,4.32,1.11-4.09,4.85-5.55,4.08-11.52C331.14,343.67,332.56,344.91,333.4,345.6Z" transform="translate(-213.4 -293.28)"/><path class="cls-1" d="M335.8,345.84c.65,3.81-1.59,7.39-3.6,9.6-1.08,1.18-2.67,2.88-4.32,2.64-.31-1.59,1.26-1.3,1.92-1.92,2-3,5-4.93,4.56-10.32C335.12,346,335.3,345.32,335.8,345.84Z" transform="translate(-213.4 -293.28)"/><path class="cls-1" d="M283.48,357.6c-1.68.48-3.32-1.53-4.32-2.88a25.43,25.43,0,0,1-3.36-7.2c.26-.94,1.35-1,1.92-1.68a1.11,1.11,0,0,0,.72.24,25.84,25.84,0,0,0,2.16,7.2C281.44,354.82,283.18,355.73,283.48,357.6Z" transform="translate(-213.4 -293.28)"/><path class="cls-1" d="M337.24,347.52c.43,0,.51.29,1,.24C338.65,349.8,336.08,348.73,337.24,347.52Z" transform="translate(-213.4 -293.28)"/><path class="cls-1" d="M274.36,362.4c4.09-.1,3.35-8.13-1-5.76.31,1.21,2.44.6,2.64,1.92.23,2.26-2.4,3-4.08,1.92-2.09-4.9,4.81-7.64,1-11.28.17-.63,1.09-.51,1.2-1.2a20.75,20.75,0,0,1,3.12,7c.4,2,1.56,3.61,1.2,5C278.15,361.17,275.56,363.7,274.36,362.4Z" transform="translate(-213.4 -293.28)"/><path class="cls-1" d="M338.68,348.72a56.1,56.1,0,0,1,7.2,5.76c-.28,1.08-.24,2.48-1.44,2.64.46-5.67-6.09-6.1-9.36-3.6.62-1.3,1.39-2.45,1.92-3.84C337.81,350.09,338.82,349.9,338.68,348.72Z" transform="translate(-213.4 -293.28)"/><path class="cls-1" d="M270.52,360.24a6.46,6.46,0,0,1-2.64-4.32c2.38.3,2.82-2.62,2.16-4.56.81-1.23,2.37-1.92,2.88-.48C273.82,353.4,268.77,356.24,270.52,360.24Z" transform="translate(-213.4 -293.28)"/><path class="cls-1" d="M267.64,354.72V353C269.3,350.88,269.78,355,267.64,354.72Z" transform="translate(-213.4 -293.28)"/><path class="cls-1" d="M266,354.48c1.34,4.42,3.2,8.32,8.16,9.12C271.65,368.79,262.8,358,266,354.48Z" transform="translate(-213.4 -293.28)"/><path class="cls-1" d="M348,355.68c-1.38,4.08-6.42,11.17-10.32,9.84,3.7-2.62,7.46-5.18,9.12-9.84Z" transform="translate(-213.4 -293.28)"/><path class="cls-1" d="M279.4,356.88c1.2.76,2.25,1.87.48,2.64A9.41,9.41,0,0,1,279.4,356.88Z" transform="translate(-213.4 -293.28)"/><path class="cls-1" d="M263.8,357.12c1.48,4.2,3.61,7.75,7.92,9.12-4.91,6.32-9.06,18.8-4.08,28.08-8.16-1.4-15.1,3.31-18.72,7.2C247.52,381.31,254.5,367.42,263.8,357.12Z" transform="translate(-213.4 -293.28)"/><path class="cls-1" d="M360,416.16c-.75-3.57-1.86-6.78-6-7,.44-4-1-6-5-5.52,5.72-13.65-2.68-28.22-8.64-37a20.4,20.4,0,0,0,8.16-8.88c.39-.07.41.23.72.24C361.12,369.44,367.67,396,360,416.16Z" transform="translate(-213.4 -293.28)"/><path class="cls-1" d="M337.48,360.48c0,.28,0,.43.24.48.22,1.34-.8,1.44-1.44,1.92-.78-.66-2.52-1.63-2.4-2.4A6.3,6.3,0,0,1,337.48,360.48Z" transform="translate(-213.4 -293.28)"/><path class="cls-1" d="M288.52,363.36c.65,1.68-.33,1.87-.72,3.36a7.21,7.21,0,0,0,3.36,2.16c9.58,2.64,25.93,1.53,33.12-2.16-.07-1.25-1.22-2-.48-3.36,4.62-1.65,9.1,6.6,4.8,9.6-.69,6.3,0,13.58-.48,19-4.65,3.1-11.32,6.87-18.72,7.44A37,37,0,0,1,284,391.92c-1.17-5.1,1.19-12.93-.48-18.48-.39-1.31-1.79-2.22-1.92-3.36C281.11,366.07,284.77,362.49,288.52,363.36Z" transform="translate(-213.4 -293.28)"/><path class="cls-1" d="M345.88,382.8c-1.28-1.18-.5,1.73-1.68,1.44,1.09,1.84-1.16,3.52-.24,5.28-.23.41-.89.39-.72,1.2-.23-.41-.75-.53-1.2-.72.63-3.21.88-6.8,2.88-8.64,3.36-.22,4,3.91,3.6,6.48-.33,2.27-3,3.82-3.12,5.52-1.13.25-1.21-.55-1.68-1,0-.64.67-.61,1-1-.24-.51-1.46-1.53,0-1.68-.9-1,.34-1.43-.24-2.64a1.31,1.31,0,0,1,1-.24C344.75,385.86,344.54,383.43,345.88,382.8Z" transform="translate(-213.4 -293.28)"/><path class="cls-1" d="M347.8,401.52c-4.54,1.54-7.25-5.35-6.72-8.88,1.21.87,1.61,2.55,2.4,3.84-.43-3.25-3.57-5.87-6-7.92C344.77,387.14,343.54,398.32,347.8,401.52Z" transform="translate(-213.4 -293.28)"/><path class="cls-1" d="M346.84,395.28c.76-.6.33-2.39,2.16-1.92.35,2.22-.13,5.6-1.44,7-3.92-2.51-2.06-9.94,1.92-11C350.24,392.92,346.9,392.46,346.84,395.28Z" transform="translate(-213.4 -293.28)"/><path class="cls-1" d="M269.8,397.44c-1.42.27-2.44-.81-3.84-1-7.7-.81-14.24,4.79-16.32,10.32-2.7-2.52,1.7-5.89,4.08-7.68a18,18,0,0,1,10.08-3.84C265.6,395.25,268.89,395.51,269.8,397.44Z" transform="translate(-213.4 -293.28)"/><path class="cls-1" d="M261.4,397.92c-1,1.53.06,5-.72,7.2s-2.41,1.06-3.6,2.16c-.25.89.51.77.72,1.2,4.47-.17,4.16-5.12,4.56-9.36,2.22-2.42,6.5-.24,8.88.72,1.6,2.66-1.24,5.38-.72,7.68,1.4.36.69-1.39,1.68-1.44q.62,2.87,3.84,3.12c-.79,1-2.09,1.43-2.88,2.4.32-4.08-7.5-3.09-4.56.48,1.18,0,.47-.94.48-1.68,1.72-.82,3.06.33,2.64,2.4-4,2.09-8.56,3.65-13.2,1.44-2.59-1.24-4.22-3.92-7.44-1.92-1.81-2.83-.65-5.66,1-7.92.33,1.2-1.21,5.26.72,6,.62-2.18.06-6.55,1.92-8.16,2.24-1,4.32.78,5.76.48-.25-1.75-2-2-4.08-1.92C257.42,399.22,259.76,398.92,261.4,397.92Zm5.76,1.44c-1.15-.32-3.22-.31-2.88,1.44.75.63,1.19-.59,2.4-.24,2.25,1.36.9,3.93-1.2,4.08-1.31.09-1.34-1.37-2.64-.72C265.51,410.08,272.45,400.85,267.16,399.36Zm-2.4,4.32a1.72,1.72,0,0,0,1.92-2.4A2.14,2.14,0,0,0,264.76,403.68Zm-9.6,2.16c-1.27,7.5,11,6,7.92,0-.2,4.23-5.89,5.83-6.72.72.28-.76,1.64-.44,1.44-1.68C256.79,404.23,255.62,405.17,255.16,405.84Zm9.84,8.64c.73-.07.33-1.27,1-1.44.17.47.64.64,1.2.72C268.58,410,262.16,412.54,265,414.48Z" transform="translate(-213.4 -293.28)"/><path class="cls-1" d="M295.48,400.32c5.31,3.23,15.56,3.31,21.12.24,0,4.2-.68,7.8-.72,12-5.34,2.22-13.48,1.59-19.44-.24C295.65,408.79,296,404.15,295.48,400.32Z" transform="translate(-213.4 -293.28)"/><path class="cls-1" d="M274.12,403.44c1,0,.88,1.2,1.92,1.2-.89,3.19,2.21,1.12,3.6,2.64C277.6,410.08,270.89,406.62,274.12,403.44Z" transform="translate(-213.4 -293.28)"/><path class="cls-1" d="M351.88,406.56c.68-.24-.07-1,0-1.44,2.66.16,1.17,5.69,1.2,7.68-.28,0-.43.05-.48.24-2.16-1.36-4.59-2.45-5.28-5.28.43-.21.61-.67,1.44-.48C348.52,404.92,351.46,404.57,351.88,406.56Z" transform="translate(-213.4 -293.28)"/><path class="cls-1" d="M331,407.28c-1.31,1.73-3,3.1-3.6,5.52C322.24,411.45,327.09,403,331,407.28Z" transform="translate(-213.4 -293.28)"/><path class="cls-1" d="M333.4,407c-1.53,3.46,1.86,5.06,1.92,8.4-1.28.31-2.44.76-2.88,1.92-1.66-.74-2.3-2.5-4.08-3.12,1.33-1.31,1.38-3.9,3.36-4.56C331.44,408.05,332.12,406.34,333.4,407Z" transform="translate(-213.4 -293.28)"/><path class="cls-1" d="M283,409.2a19.84,19.84,0,0,1-3.84,1.44c-7.27,5.78-14,13.4-14.64,25-.78.14-1.12-.16-1.68-.24.23-12.95,9.28-22.89,18.48-27.36C282.19,407.58,282.83,408.29,283,409.2Z" transform="translate(-213.4 -293.28)"/><path class="cls-1" d="M301.72,415c5,7,8.25,17.81,7,29.52h1.68c.44-9.47-.91-19.35-4.56-25.92-.67-1.22-2.18-1.86-1.68-3.6,2.49,1.47,3.78,5,4.8,8.16a55.93,55.93,0,0,1,2.88,21.36c2.14-.67,1.05-3.85,1-5.76-.42-9-2.73-17.47-6.24-23.28,2.33.17,3.91-.4,6.24-.24,6.77,5.86,9.53,16.5,8.4,29.52,2.17-.31,1.68-4.09,1.68-6,0-8.54-2.12-15.85-6-20.88-.86-1.12-2.48-1.73-2.16-3.36,1.71.36,2.78,2.32,3.84,3.84,4.11,5.89,6.56,15.64,5,26.4.58-.1.52.44,1.2.24,2.48-3.25-1-11,1.92-13.68.58,1.43,1.42,3.57,3.6,2.64,1,2.05-1.17,3.49-1.2,5.28,0,2.1,1.27,3.18,3.84,3.6a8.45,8.45,0,0,0,.24,2.4c.9.18,1.15-.29,1.92-.24,0-.36-.91-1.95-.24-3.12,1.87-1.23,5,.46,3.84,2.88,3.25-.47,7-.71,9.84-2.16a4.43,4.43,0,0,1,1.2,1.44c1.12-.24-.11-1.75.48-2.16,1.68-1,3.52-1.92,5.28-2.88.08-.58-1.05-1.16-.24-1.68,1-.2.95.65,1.44,1-.82,2.38-3.48,2.92-5.52,4.08.06,1.72-.68,3.91-2.64,4.32a14.34,14.34,0,0,0,.24-2.88c-12.8,4.93-30.87.95-45.36,1.92-1.07.61-1.18,2.18-1.92,3.12-1.1-.42-.82-2.22-1.44-3.12-16.3.54-36.55,2.83-44.88-7.44.48-.24.38-1.06,1.2-1,1.06,0,.21,1.25,0,1.44,5,3.7,11.45,5.89,19.2,6.24-2.53-2.35-7.12-4.72-9.6-7.92a25.27,25.27,0,0,1,6.24-17.76c2.44-3,5.17-6.37,7.68-7.68a14.16,14.16,0,0,1,4.8-1.44c1.42,0,3,1.51,4.8,2.16C293.4,413.72,297,414.23,301.72,415Zm8.64,1.44c-.29.05-.15.27,0,.48.52.71,1.69-.62,1.92.48-.89,2.34-3.33,0-3.84-1-.72,4.64,7.66,3.31,4.08-.24C311.77,416.21,310.76,416,310.36,416.4Zm3.12,8.4a2.56,2.56,0,0,0,2.88-2.88c-.37-2.5-4.67-1.77-2.64.48.95.23.1-1.34,1-1.2.62.18.83.77.72,1.68-3,2.24-3.14-2.83-5.28-2.16C311.19,422.18,311.26,424.63,313.48,424.8Zm3.12,6.72c1.72-.19,3.08-2.81,1.44-5-1.51-.81-3.91.22-2.88,1.92,1.28.32.64-1.28,1.92-1a1.52,1.52,0,0,1-.72,2.64c-2.61.55-2.45-4.88-4.56-5.28C312.6,427.59,313.15,431.91,316.6,431.52Zm-3.36.24c.8,1.34.62,2.69.48,4.56,1.12,1.61,2.85,4,5.52,2.64,1.45-2.08.67-6-2.4-5.76-1.26.38-1.42,3.33.48,3.12.65-.38-.69-1.34,0-1.68,2.23-.12,2,3.38.24,3.6C314.18,438,314.79,431.19,313.24,431.76Zm1.92,12.72c-.4-2.25.31-5-1.44-6.24C314.65,439.88,312.72,444.36,315.16,444.48Zm.72-2.16c0,1.16,0,2.41,1.44,2.16.06-.72-.67-1.46.24-1.68,1.17.19.42,2.3,2.16,1.92C320.09,442.23,317.43,440.71,315.88,442.32Z" transform="translate(-213.4 -293.28)"/><path class="cls-1" d="M358.12,421.92c-5.11,0-10.71-3.54-7.92-8.4.93-.85,2.16.64,2.88,0,.89-.15.73-1.35.72-2.4C358.8,411.05,358.39,417.49,358.12,421.92Z" transform="translate(-213.4 -293.28)"/><path class="cls-1" d="M325.24,415c-1.36,1.21-4.34.78-5.52,2.16-1.06-.62-1.61-1.75-2.64-2.4C318.48,411.47,324.61,412.3,325.24,415Z" transform="translate(-213.4 -293.28)"/><path class="cls-1" d="M260.2,415.92c-2.53,1.15-4.61,2.75-5.28,5.76a25.56,25.56,0,0,1-3.36-8.16C255,411.53,256.72,415.74,260.2,415.92Zm-3.36,1a7.93,7.93,0,0,0-3.12-3.12C253.16,415.35,255.15,417.53,256.84,416.88Z" transform="translate(-213.4 -293.28)"/><path class="cls-1" d="M269.08,415.44c0,1.44-2.39.49-2.88,1.44-.11.75.51.77,1.2.72a4.66,4.66,0,0,1-1.92,2.88,5.5,5.5,0,0,0-2.64-3.36C264.61,416.25,267,416,269.08,415.44Z" transform="translate(-213.4 -293.28)"/><path class="cls-1" d="M324.76,416.16c1.72-.41,3.2-.34,4.32.72.33.32.14,1.09.72,1.68s1.77.66,2.16,1.92c1.25,4-1.4,9.27-6,8.16-1.63-.39-1.56-2.39-2.64-5S320.3,417.22,324.76,416.16Zm2.88,4.32a2,2,0,0,0,1.44-.24v-1C328.18,417.84,326.3,419.15,327.64,420.48Z" transform="translate(-213.4 -293.28)"/><path class="cls-1" d="M346.6,416.16h.72c.82,4.86,5.36,6,8.88,8.16a35.31,35.31,0,0,1-11.76,14.4c1.35-3,.43-6.61-2.88-7-.1-2.06-1.4-2.91-3.12-3.36,3.39-.69,5.74-3.43,4.56-7.92a7.89,7.89,0,0,0,3.12-1.44C345.86,417.66,346.45,417.13,346.6,416.16Z" transform="translate(-213.4 -293.28)"/><path class="cls-1" d="M344.44,417.36c-1.07.89-4.43,3.37-5.28,1.44C341.45,418.94,341.94,415.51,344.44,417.36Z" transform="translate(-213.4 -293.28)"/><path class="cls-1" d="M336.28,421.68c.83-.14,1.72-2.28,4.08-1.68,2.49,2.34.53,6.13-1.92,7-1.05-1.27-2.15-2.49-4.8-2.16a7.37,7.37,0,0,0-.72-5,4.39,4.39,0,0,1,5-2.64C340.06,419.17,337,420.26,336.28,421.68Z" transform="translate(-213.4 -293.28)"/><path class="cls-1" d="M260,422.16c-1.62,1.47.54,4.72,3.36,4.08a4.68,4.68,0,0,0-1,3.84c-1-.6-1.42.17-2.4.24a6,6,0,0,0-.72-1.2c-.18-.82,1-.3.72-1.2a.9.9,0,0,0-1.68-.48,14.33,14.33,0,0,1-2.64-4.08c.78-3,2.66-7.12,6.48-5.52,2.72,1.14,3.33,7.7,0,7.2C260.46,424.79,261.42,423,260,422.16Zm-.48-3.6c1.4,1.56,1.45,4.47,3.36,5.52C263.06,422,261.78,418.14,259.48,418.56Z" transform="translate(-213.4 -293.28)"/><path class="cls-1" d="M336.52,427.44c.21,1.91-.18,2.64-1.2,2.88C331.54,431.22,333,423.56,336.52,427.44Z" transform="translate(-213.4 -293.28)"/><path class="cls-1" d="M331.72,429.84a4.06,4.06,0,0,1-2.4,2.64C327.38,431,329.87,428.22,331.72,429.84Z" transform="translate(-213.4 -293.28)"/><path class="cls-1" d="M337.24,434.16c-.43-.84-1.05-1.28-1-2.16C336.79,426.94,344.18,434.46,337.24,434.16Z" transform="translate(-213.4 -293.28)"/><path class="cls-1" d="M335.08,432.24c1.63,3.9-3.32,4.88-3.6,1.92A2.25,2.25,0,0,1,335.08,432.24Z" transform="translate(-213.4 -293.28)"/><path class="cls-1" d="M343.48,436.32a1.78,1.78,0,0,1-3.36-.72C340.07,433.43,343.71,432.93,343.48,436.32Z" transform="translate(-213.4 -293.28)"/><path class="cls-1" d="M338.92,439a3.37,3.37,0,0,1-3.12-.24C334,434.2,341.37,435.47,338.92,439Z" transform="translate(-213.4 -293.28)"/><path class="cls-1" d="M331,440.16c-.57-2.94,2.14-3.37,3.12-2.16C335.53,439.75,332.26,442.17,331,440.16Z" transform="translate(-213.4 -293.28)"/><path class="cls-1" d="M342.76,439.2c0,.34,0,.68.24.72a2.57,2.57,0,0,1-3.6,1.68C338.51,439.49,341,438.05,342.76,439.2Z" transform="translate(-213.4 -293.28)"/><path class="cls-1" d="M259.48,447.6c0,.69,0,1.31-.72,1.2.66,2.14,1.19,4.41,2.4,6,1.46-1.83-.26-4.22.48-5.52.82,1.11,1.13-.18,2.4.48.29,1.09-.84.76-1,1.44.55,1.77,1.64,3,2.4,4.56,1-1.74,1.08-4.36,2.16-6-.6.06-.8.9-1.44.24.12-2,2.3-.53,3.6-1.2.2,1.32-1.17,1.07-1.68,1.68-.46,2.1-1.09,4-1.68,6,.74.75.41-.81,1.44-.48a1.55,1.55,0,0,1-.24,1.92c-1.76-.33-1.68-.4-3.12.24.51-1.88-.76-3.33-1.68-5-.78.83-.37,2.83-1.2,3.6.58.1.52-.44,1.2-.24,0,2.36-2.8.27-3.6,1-.15-.95.54-1.06,1.2-1.2-1.1-2.42-1.94-5.1-2.88-7.68-.86-.2-1.16.54-1.68,0C256.08,446.74,258.4,448.2,259.48,447.6Z" transform="translate(-213.4 -293.28)"/><path class="cls-1" d="M351.64,447.84c.25.64.18,1.37-.72,1.44-.18,1.7.44,2.6.48,4.08.64,0,1.41.13,1.44-.48.19-1-1.15-.45-1-1.44.91-.68,1.74.39,2.16,1,.1.58-.44.52-.24,1.2a5.7,5.7,0,0,1-2.16,1c.19.93.74,1.5.72,2.64.43-.21.31-1,1.2-.72.15,2.33-1.65,1.51-2.88,2.16,0-1.19,1.25-4.62-1.44-4.8-.74.86-.53,2.67-1,3.84.06.62.41-.33,1,0-.33,2-1.66.41-2.88,1.2,1.34-2.18,1.57-5.47,2.16-8.4-.07-.5-.64.35-1-.24C347.53,448.05,350.56,448.92,351.64,447.84Zm-2.64,4.8c.5.14.69.6,1.44.48-.4-1-.28-2.44-.72-3.36C349.24,450.48,349.4,451.84,349,452.64Z" transform="translate(-213.4 -293.28)"/><path class="cls-1" d="M345.4,449h.72c.14,1.5-.29,2.43-1.68,2.4a18.79,18.79,0,0,1-.48,5.76c.23,1.1,1.4-.23,1.92.48-.29,1.92-2.43.51-3.6,1.44,0-1.59,1.62-3.48,1.2-6.24-1.15.85-1.36,2.65-2.4,3.6-.13.85.85.59.72,1.44-.72.28-1.3,0-2.4.24-.09-2.63-1.46-4-1.92-6.24-.56,1.52-.08,4.08-.24,6,.22.5,1.35.09,1.44.72-.63.83-2.8.68-3.6,1,1.47-1.73,1.25-5.15,1.2-8.4-.81-.09-.38,1.06-1.44.72-.92-2.45,3.52-1.28,4.08-1.92a1.14,1.14,0,0,1-.72,1.44,34.31,34.31,0,0,1,1.92,4.8c1.17-1.31,1.71-3.25,2.88-4.56-.49-.46-.83-.69-.48-1.44a2.3,2.3,0,0,1,2.16,0C345.3,450.22,345.07,449.35,345.4,449Z" transform="translate(-213.4 -293.28)"/><path class="cls-1" d="M271.72,449.52c7.81-2.59,8.06,13.06.48,9.36C270.24,457.92,267,451.08,271.72,449.52Zm2.4,1c-6.76-1.86-2.56,12.57,2.64,6.48C276.56,454.12,276.07,451,274.12,450.48Z" transform="translate(-213.4 -293.28)"/><path class="cls-1" d="M278.92,449.28c.28,1-.5.94-.48,1.68,2.68-.2,5.44-.51,5.76,2.16.18,1.06-.78,1-1,1.68a59.15,59.15,0,0,0,3.36,5.28c-3.74.11-2.61-6.29-6.24-4.8v2.64c.28.68,1.18.74,1.68,1.2-.82,1.69-2.17-.81-3.36.72.72-1.64.6-4.51.48-7.68-.28-.44-1.25-.19-1.68-.48C276.93,450.53,277.36,449,278.92,449.28Zm1.44,4.8c.82-.22,1.76-.32,2.64-.48.37-1.81-1.14-1.74-2.64-1.68Z" transform="translate(-213.4 -293.28)"/><path class="cls-1" d="M293.32,450.48H294c.52.69-.17,1.78-.24,2.64-2.16.14-3.28-2-5-1-2.93,1.7-.41,8.16,3.12,7.68,1.1-.15.79-.84,2.4-1.2.15,1.27-.6,1.64-1.2,2.16-6,1.33-7.52-5.43-5.28-9.36a5.3,5.3,0,0,1,5,.48C293.38,451.82,292.85,450.65,293.32,450.48Z" transform="translate(-213.4 -293.28)"/><path class="cls-1" d="M322.84,450.48c.83-.17.86.84.48,1.2,2.61-.66,4.79.1,5,1.68.17,1.07-1.19,1.43-1.2,2.16,0,1.54,2.41,1.65,1.68,3.36.08,1.12,1.86.54,1.92,1.68-3.86,1.44-1.76-5.11-6-4.08.31,1.37-.87,4.23,1.2,3.84-.51,1.94-2.28-.14-3.12.48,1.64-1.85.57-5.07,1-7.92,0-.8-1.36-.24-1.68-.72A1.62,1.62,0,0,1,322.84,450.48Zm1.92,5c1.43-.17,2.5-.7,2.64-2.16-.91-.37-1.34-1.22-2.88-1A11.27,11.27,0,0,1,324.76,455.52Z" transform="translate(-213.4 -293.28)"/><path class="cls-1" d="M295.24,450.72c.49,1.82,3.94,1.18,5.76,1a2.69,2.69,0,0,1-.48,1.92c-1-.77-1.72-.63-3.6-.72-.54.26-.09,1.51-.24,2.16.24.4,1,.26,1.44.48.49-.06.06-1.06.72-1,1.09.11,1,1.83.72,2.64-1.12-.08-1.57-.83-2.64-1-.55.41-.09,1.83-.24,2.64a9.36,9.36,0,0,0,2.88.72c.39-.33.26-1.18.72-1.44a3.1,3.1,0,0,1,1,2.16c-2.12.95-4.54-1.05-6,.48-.38-1,.72-2.42.48-4.08-.29-.73-.92.35-1.2-.24-.15-1,.54-1.06,1.2-1.2C296.49,452.91,294,452.11,295.24,450.72Z" transform="translate(-213.4 -293.28)"/><path class="cls-1" d="M305.56,451.68c.35-.05.08-.72.48-.72,1.45.06.85,1.63.24,2.16-1.17-.11-1-1.57-2.64-1.2-.62,0-.39.89-.72,1.2,2.47,1.18,6.94,2.22,4.8,6.48a5.21,5.21,0,0,1-5.52,1c-.72-1.23-.39-3.22-.48-4.08.77-.54,2.33-.21,2.4.72-.5.74-1.54.22-1.44,1.92,1,1.42,3.66.55,4.32-.48,1.33-4.05-5.07-3.06-5-5.76C302,451.68,304.14,450,305.56,451.68Z" transform="translate(-213.4 -293.28)"/><path class="cls-1" d="M314.92,451.2c0,.69.13,1.57-.24,1.92-1-.08-.83-1.41-2.4-1-.93,1.5-.5,5.55-.24,7.44.81.09.38-1.06,1.44-.72.37,2.68-2.56,1-3.36,2.16-.69-.92.59-1.53,1-2.16a39.15,39.15,0,0,1-.24-6.24c-.56-.94-2-.37-2.4.24-.74,0-.72-.72-.72-1.44A53.78,53.78,0,0,1,314.92,451.2Z" transform="translate(-213.4 -293.28)"/><path class="cls-1" d="M315.64,451c1.35,1,4,.81,6,.48,0,.69.13,1.57-.24,1.92-.9-1-2.23-.6-3.84-.48-.05.75.16,1.76-.24,2.16,1,.53,1.82.55,2.4-.24.91-.16.45,1.68.24,1.92-1,0-1.44-.48-2.4-.48-.44.56.25,1.53,0,2.64a8.17,8.17,0,0,0,2.64.72c.52,0,.11-.85.24-1.2,1,0,1.51.57,1.44,1.68-1.88,1.29-4.51-.79-6.24.72.36-1.21,2-3.56,0-4.32C317.15,454.92,316.39,452.69,315.64,451Z" transform="translate(-213.4 -293.28)"/><path class="cls-1" d="M331.24,462.24c-.07-1.35,1.59-1,1.2-2.64-.34-.49-.83.24-1.44-.24C331.22,454.41,336.17,462.51,331.24,462.24Z" transform="translate(-213.4 -293.28)"/><path class="cls-1" d="M314,479.28c.37,2.85-1.47,3.49-3.12,4.32.14,2.54-1.95,2.85-1.44,5.76-1.14,1.92-4.59,2.85-6,1-.61-.82-.18-1.86-.48-2.88-.43-1.47-1.83-2.38-1.44-3.6-1.48-1.08-3.71-1.41-3.36-4.32,2.84-.71,2.78,1.33,4.56,2.16,3.14-.14,5.43.37,7.44-.48C311.48,480.63,312.11,478.75,314,479.28Z" transform="translate(-213.4 -293.28)"/><path class="cls-1" d="M332.44,359.76c-.94-.1-1-1.05-1.92-1.2,2.14-1.63,5.69-5.8,9.84-5.28,1.59.2,3.45,1.51,2.4,4.32h-1.68c-.71-.33-.27-1.81-.72-2.4-4.07.95.7,5.17,2.88,3.36-.14,2.12-4.29,4.81-5.52,5C341.52,360.37,335.57,357.19,332.44,359.76Z" transform="translate(-213.4 -293.28)"/><path class="cls-1" d="M385.48,367.68c1.51-1.53,2-4.1,3.84-5.28.3,3-1.91,5.43-2.16,8.64,1.14-1.34,1.94-3,4.08-3.36-1.41,3.23-4,5.26-3.6,10.32,1.88-.55,1.93-4.11,3.84-3.84,0,3.64-3.17,7.33-2.4,11.76,1.67-.49,2.56-3.84,5-4.32-.58,2.88-3.19,5.76-4.32,8.88,1.5-.58,2.83-3.41,5-4.08-1.13,4.15-3.94,6.62-5.52,10.32,1.34,0,2-2.84,4.08-2.88-.9,3.1-3.8,4.2-4.8,7.2,2-.36,3-2.87,4.8-2.64-.54,2.11-3.15,4.2-4.56,6.24,2.41-1.35,4.87-4.73,8.88-5.28-3.15,3.63-7.43,6.37-9.36,11.52,1.6-1.68,2.66-3.9,4.56-5.28-.49,5.11-4.11,9.16-6,13.68,2,.15,3.46-2.3,6-2.4-2.62,3.94-8.31,6.89-11.28,11.28.95-.57,1.66-1.38,3.12-1.44.67.7-.22,1.19-.48,1.68,2.68-.63,7-2.07,9.84-1-1.74,1.32-4.5,1.46-7,2.4-3.91,1.5-7.83,2.94-9.36,6.72,2.62-1.3,5.35-3.77,8.64-3.6.35,1.39-1.15.93-1.68,1.44-2.81,3.67-7.08,5.88-9.12,10.32-1.38.38-2.05,1.47-2.88,2.4,3.71,1,8.54-1.34,11.76,0-4.28,2.28-10.26,2.86-14.4,5.28,2,.37,7.47-.79,9.12.72-3.25,1.79-7.51,2.57-11.52,3.6,1.14.7,4-.36,4.56,1a78.29,78.29,0,0,1-14.16,4.56c3.84,1,10.46-1.79,13.44.72-.47.48-1.37.15-1.92,0-5.51.82-11.76,4.68-17.76,5-1,.06-1.92-.28-2.88-.24-3.07.13-6.2,1.12-9.12,1.68a56,56,0,0,0-11.52,4.08c-3.53,1.55-7,4.4-10.8,3.6-.68-1.4.32-2.56.72-3.6,8.65-1,14.88-4.48,22.32-6.72a12.41,12.41,0,0,0,1.92-2.64c-8.39,2.67-19.92,1.86-30.24,1.44.58,8.28-.9,16.88-9.84,13.44-2.76-2.52-2.42-8.14-2.64-13.2-9.76-.18-21.5,1.11-30-1.44,1.74,3.45,6.31,4.43,10.08,5.76,4,1.41,8.36,2,12,3.6-.23,1.49.45,2.61,0,3.6-6-3.24-14.13-5.69-21.6-8.4a23.13,23.13,0,0,0-3.12-1.2c-5.36-.83-9.55,3.09-14.64,3.84a14.86,14.86,0,0,1,6-5.76c-4.17-2.11-10.28-3.43-15.36-3.84-.55-2.11,3.52-1.57,5.76-1.68-3.52-1.36-7.3-2.46-9.12-5.52,2.37-.22,4.95,1.24,7.44,1.68-2.55-3-8.51-4.61-12.24-7.2,1.63-2.66,6.74,1.14,9.84,1-2.41-3.43-9.25-4.5-13.44-7,1.45-2.41,6.58,1.5,7.2-1.44a52.41,52.41,0,0,0-12.72-5.52c1.66-2.33,6.94-.79,9.12,0-1.57-2.51-5.89-4.35-7.92-7.2,1-.48,2.4.57,3.6.72-2.43-2.29-5.12-4.32-7.68-6.48,2.27-.72,4.26.84,5.76,1.68-1.76-3.44-6.26-6.22-10.08-8.4,1.33-1.89,4.08.13,5.76.72.06-2-2.14-3.78-2.88-5.76-2-1.54-5.31-1.73-6.48-4.08a13.8,13.8,0,0,1,4.8-.24c-2-2.42-5.51-3.29-6.48-6.72,2.66,1.1,5.51,2,8.16,3.12-.65-2.47-3.95-4.37-5.76-6.48,1.44-1.24,4,.48,5.28,1-.41-2.31-2.37-5.15-3.36-7.68,2.38-.14,2.6,1.88,4.08,2.64-1-3-3.51-6.56-5.28-9.6,1.83-.27,3.47,1.62,5,2.4-.37-3.07-1.91-5-2.64-7.68,2,.12,2.52,1.64,3.6,2.64-.69-4.91-3.21-8-4.56-12.24,2.63.49,3.26,3,4.56,4.8.56-2.18-.9-5.63-.48-7.68,1.15.13,1.19,1.37,1.92,1.92-1.14-3.69-1.47-10.25-.24-14.16,1.91,1.61.39,6.65,1.68,8.88.78-2.39.31-7.66.48-10.56,1.77.31,1.52,2.64,2.4,3.84.71-.89.26-2.94,1.2-3.6,1-.16.65,1.11.72,1.92,1.47-3-.92-5.85-1.2-8.64,2,.43,2.43,2.37,3.12,4.08.49-.78-.71-4.07.48-4.8,1.05.23,1,1.58,1.44,2.4,1.18-2.82,1.37-6.63,3.6-8.4.6,2.46-.62,5.12-.24,8.16,3.26-1.7,5.54-4.38,9.6-5.28-1.79,3.09-5.21,4.55-7.2,7.44,2.94.18,5.77.47,6.48,2.88-2.57-.68-7.5-.35-8.64,1.92,1.31-.11,2.21-1.71,3.6-1-1.26,2.82-4.6,3.56-6,6.24,2.89.39,5.29,1.27,5.28,4.56-2.31-2-5.2-1.9-6.72.72,1.07,1,3.43.73,4.08,2.16-.6,1.77-4-.91-5.28.72-.1.93.72-.13,1,.72-1.26,2.9-2.71,5.61-4.08,8.4.1.46.93.19.72,1,1.55-.36,3.43-.72,4.8,0-1.37,2.39-5.64,1.88-5.76,5.52,1.38-.46,1.4-2.28,3.12-2.4-.13,2.21-2.21,4.5-2.88,7,.07.5.64-.35,1,.24-.23,3-.63,5.93-.72,9.12,1.29-1.35,1.63-3.65,3.6-4.32,0,3-2,6-2.4,9.36,1.26-1.14,1.48-3.32,3.6-3.6-.91,4.47-3.28,9.89-1.44,14.88,1-.72.26-3.25,1.92-3.36a39.19,39.19,0,0,0,1.44,12.72c1.08-3.24.76-7.88,3.36-9.6,0,4.14-.46,10.54.48,13.92.84-2.2.3-5.78,1.92-7.2,1.31,3,.9,7.75,2.16,10.8,4.11,2.13,10,2.44,14.64,4.08.63,1.8-.43,3.21-1,4.56-1.78-.44.8-2.87-.24-4.08-5.61-1.19-11.71-1.89-15.84-4.56.13,3.15,1.37,6.2,1.2,8.88a8.37,8.37,0,0,0-3.12,2.64,17.3,17.3,0,0,0-1.68,1.92c0,1.19,3.94,2.76,6,3.84,3.24,1.7,5.09,2.93,8.4,3.12q.78-.06.72.72c1.13-5.29-2.36-8-1.92-13.44,1.3-.94,2.16-2.32,3.84-2.88.83,1.93-2.19,1.93-2.64,3.36.16,3.33,1.82,8.27,2.16,13,.21,2.9-.29,5.64,1,7.44,1.53,2.2,4.12,1.86,7,2.88.39-.72-1.26-1.46-1-2.88.77-.19,1.21-.71,2.16-.72a4.36,4.36,0,0,1,1.44,2.16c.18,1.06-.78,1-1,1.68a3.22,3.22,0,0,0,1.92.48c.87-.41.89-1.67,1.44-2.4,1.28.16.76,2.12,1.44,2.88,12,3,28.15,1.22,43.92,1.2,6.72,0,12.1,1,18.24.24,6.36-.75,16.85-1.55,22.32-3.84,4.32-1.8,2.92-9.36,3.84-14.88.33-2,2.14-4.35,1.44-7-.47-1.76-3.12-1.34-2.64-3.6,1.68.56,2.54,1.94,3.84,2.88.3,5.5-2.68,7.72-2.16,13.44.86-1.14,3.32-.68,4.56-1.44.14-1.11-.33-1.45,0-2.16.74-.06,1.08-.52,1.68-.72a8.3,8.3,0,0,1,1.92,1.2,58.79,58.79,0,0,0,7-4.08,9.78,9.78,0,0,0-4.56-5c-.14-2.57.94-5.7,1.2-8.64A48.41,48.41,0,0,1,354,434.64c-.79,1.57.89,3.14.24,4.56a4.81,4.81,0,0,1-1.44-4.8c4.4-1.6,10.11-1.89,14.16-3.84.1-1.59-.92-3.17-.72-4.08,1.62.38,1.39,2.61,2.88,3.12.8-2.61-1.48-6.16-2.16-8.88,3.67,1.85,5,6.06,7.2,9.36,1.45-4.7-.77-10.39-.72-14.4,1.71.53,1.76,2.72,2.4,4.32.81-3.63-1-7.89-.72-11,2.56,1.52,2.87,5.29,4.08,8.16,1.58-7.26-3.84-10.87-5-15.36,2.57-.15,3.84,3,5.52,4.56-.29-4.11-2.39-6.41-3.12-10.08,2.28.84,2.81,3.43,4.08,5.28,2-3.41-1.53-5.85-2.88-8.64,1.45-.51,2.7,1.09,3.84,1.68-1.21-4.15-4.68-6-6.48-9.6,3.14.07,5.33,3.14,7.44,5-1.29-3.35-3.64-5.64-5.52-8.4a5.78,5.78,0,0,1,4.08.72c-.29-3.79-2.59-5.57-3.6-8.64,1.58,0,1.81,1.39,3.12,1.68,0-3.94-4.28-4.82-4.8-7.44a10.87,10.87,0,0,1,5,2.88c-.59-3.23-4.36-4.39-7.2-3.36-.11-1.87,2.52-1,2.88-2.4-.44-1.16-2.71-.48-2.88-1.92,1-.71,2.76-.47,4.08-.24-2-1.51-6.52-.76-8.64-1.44,1.58-1.94,5.85-.9,7.68-1.44-1.46-3.42-6.09-3.66-8.88-5.76,1.14-1,4,.31,5.28.72-1.6-3.28-6.24-5.6-10.08-7.44,2.17-1.11,4.86,1.36,7,1.92-.44-2-3.92-4.22-4.08-6.48a24.42,24.42,0,0,1,6,4.08c0-3.79.16-7.36,1.44-9.84,1.2,1.21.06,6,1,8.16,0,.54.6-.31,1.2,0,0,1.41.86,2,1.2,3.12,1-2.07-1.58-4.78-.24-6.48,2.3,2.66,2.91,7,4.56,10.32,1.09-1.31.19-4.61,1.92-5.28.32,2.58-.14,5.66.24,8.64,1.35-.93.63-3.65,1.44-4.56,2,2.52-.53,8-.48,11.76,1.41-1.55,1.91-4,3.6-5.28C388.71,360.68,386,364.3,385.48,367.68Z" transform="translate(-213.4 -293.28)"/><path class="cls-1" d="M343.72,406.8c.77,2.15,1.77,5.38,1,7.68-2.27-.19-3.28.88-4.56,1.68-1.23-.45-2.13-1.23-3.36-1.68-1-2.85,0-5.49,1.44-7.68-1.74.74-1.92,3-2.88,4.56-3.19-3.38.4-8.79,3.84-9.36v1.44c.91-.54.24-1.88.24-2.88.49-.72,1.84-.51,2.4,0,.05.75-.16,1.76.24,2.16.33-.07.2-.6.24-1,2.82.46,5.29,1.27,5.52,4.32-3,2.93,3.94,7.14-1.2,9.12C344.26,414,346.54,408.49,343.72,406.8Zm-4.32-1.68c1-.18.83.77,1.92.48-.19-.61.94-1.1.24-1.44C341.31,405.94,339.93,404.17,339.4,405.12Z" transform="translate(-213.4 -293.28)"/></svg>