  0
SECTION
  2
HEADER
  9
$ACADVER
  1
AC1009
  9
$INSBASE
 10
0.0
 20
0.0
 30
0.0
  9
$EXTMIN
 10
0.0
 20
0.0
 30
0.0
  9
$EXTMAX
 10
0.0
 20
0.0
 30
0.0
  0
ENDSEC
  0
SECTION
  2
TABLES
  0
TABLE
  2
VPORT
 70
0
  0
ENDTAB
  0
TABLE
  2
LTYPE
 70
1
  0
LTYPE
  2
CONTINUOUS
 70
0
  3
Solid line
 72
65
 73
0
 40
0.0
  0
ENDTAB
  0
TABLE
  2
LAYER
 70
1
  0
LAYER
  2
PYDXF
 70
64
 62
7
  6
continuous
  0
ENDTAB
  0
TABLE
  2
STYLE
 70
1
  0
STYLE
  2
STANDARD
 70
0
 40
0
 41
1.0
 50
0.0
 71
0
 42
1
 3
ARIAL.TTF
 4

  0
ENDTAB
  0
TABLE
  2
VIEW
 70
0
  0
ENDTAB
  0
ENDSEC
  0
SECTION
  2
BLOCKS
  0
ENDSEC
  0
SECTION
  2
ENTITIES
  0
POLYLINE
  8
0
 62
0
 70
1
 66
1
 10
0.0
 20
0.0
 30
0.0
  0
VERTEX
  8
0
 10
-126.0
 20
600.0
  0
VERTEX
  8
0
 10
-5.0
 20
600.0
  0
VERTEX
  8
0
 10
-5.0
 20
600.0
  0
VERTEX
  8
0
 10
-126.0
 20
600.0
  0
SEQEND
  8
0
  0
POLYLINE
  8
0
 62
0
 70
1
 66
1
 10
0.0
 20
0.0
 30
0.0
  0
VERTEX
  8
0
 10
-11.5
 20
89.5
  0
VERTEX
  8
0
 10
-11.5
 20
91.0
  0
VERTEX
  8
0
 10
-7.5
 20
91.0
  0
VERTEX
  8
0
 10
-7.5
 20
89.5
  0
VERTEX
  8
0
 10
0.0
 20
89.5
  0
VERTEX
  8
0
 10
0.0
 20
94.0
  0
VERTEX
  8
0
 10
-5.0
 20
94.0
  0
VERTEX
  8
0
 10
-5.0
 20
194.0
  0
VERTEX
  8
0
 10
0.0
 20
194.0
  0
VERTEX
  8
0
 10
0.0
 20
198.5
  0
VERTEX
  8
0
 10
-7.5
 20
198.5
  0
VERTEX
  8
0
 10
-7.5
 20
197.0
  0
VERTEX
  8
0
 10
-11.5
 20
197.0
  0
VERTEX
  8
0
 10
-11.5
 20
198.5
  0
VERTEX
  8
0
 10
-13.0
 20
198.5
  0
VERTEX
  8
0
 10
-13.0
 20
203.5
  0
VERTEX
  8
0
 10
-11.5
 20
203.5
  0
VERTEX
  8
0
 10
-11.5
 20
205.0
  0
VERTEX
  8
0
 10
-7.5
 20
205.0
  0
VERTEX
  8
0
 10
-7.5
 20
203.5
  0
VERTEX
  8
0
 10
0.0
 20
203.5
  0
VERTEX
  8
0
 10
0.0
 20
208.0
  0
VERTEX
  8
0
 10
-5.0
 20
208.0
  0
VERTEX
  8
0
 10
-5.0
 20
308.0
  0
VERTEX
  8
0
 10
0.0
 20
308.0
  0
VERTEX
  8
0
 10
0.0
 20
312.5
  0
VERTEX
  8
0
 10
-7.5
 20
312.5
  0
VERTEX
  8
0
 10
-7.5
 20
311.0
  0
VERTEX
  8
0
 10
-11.5
 20
311.0
  0
VERTEX
  8
0
 10
-11.5
 20
312.5
  0
VERTEX
  8
0
 10
-13.0
 20
312.5
  0
VERTEX
  8
0
 10
-13.0
 20
317.5
  0
VERTEX
  8
0
 10
-11.5
 20
317.5
  0
VERTEX
  8
0
 10
-11.5
 20
319.0
  0
VERTEX
  8
0
 10
-7.5
 20
319.0
  0
VERTEX
  8
0
 10
-7.5
 20
317.5
  0
VERTEX
  8
0
 10
0.0
 20
317.5
  0
VERTEX
  8
0
 10
0.0
 20
322.0
  0
VERTEX
  8
0
 10
-5.0
 20
322.0
  0
VERTEX
  8
0
 10
-5.0
 20
422.0
  0
VERTEX
  8
0
 10
0.0
 20
422.0
  0
VERTEX
  8
0
 10
0.0
 20
426.5
  0
VERTEX
  8
0
 10
-7.5
 20
426.5
  0
VERTEX
  8
0
 10
-7.5
 20
425.0
  0
VERTEX
  8
0
 10
-11.5
 20
425.0
  0
VERTEX
  8
0
 10
-11.5
 20
426.5
  0
VERTEX
  8
0
 10
-13.0
 20
426.5
  0
VERTEX
  8
0
 10
-13.0
 20
431.5
  0
VERTEX
  8
0
 10
-11.5
 20
431.5
  0
VERTEX
  8
0
 10
-11.5
 20
433.0
  0
VERTEX
  8
0
 10
-7.5
 20
433.0
  0
VERTEX
  8
0
 10
-7.5
 20
431.5
  0
VERTEX
  8
0
 10
0.0
 20
431.5
  0
VERTEX
  8
0
 10
0.0
 20
436.0
  0
VERTEX
  8
0
 10
-5.0
 20
436.0
  0
VERTEX
  8
0
 10
-5.0
 20
536.0
  0
VERTEX
  8
0
 10
0.0
 20
535.999999975
  0
VERTEX
  8
0
 10
0.0
 20
540.5
  0
VERTEX
  8
0
 10
-7.5
 20
540.5
  0
VERTEX
  8
0
 10
-7.5
 20
539.0
  0
VERTEX
  8
0
 10
-11.5
 20
539.0
  0
VERTEX
  8
0
 10
-11.5
 20
540.5
  0
VERTEX
  8
0
 10
-13.0
 20
540.5
  0
VERTEX
  8
0
 10
-13.0
 20
545.5
  0
VERTEX
  8
0
 10
-11.5
 20
545.5
  0
VERTEX
  8
0
 10
-11.5
 20
547.0
  0
VERTEX
  8
0
 10
-7.5
 20
547.0
  0
VERTEX
  8
0
 10
-7.5
 20
545.5
  0
VERTEX
  8
0
 10
0.0
 20
545.5
  0
VERTEX
  8
0
 10
0.0
 20
550.0
  0
VERTEX
  8
0
 10
-5.0
 20
550.0
  0
VERTEX
  8
0
 10
-5.0
 20
600.0
  0
VERTEX
  8
0
 10
-126.0
 20
600.0
  0
VERTEX
  8
0
 10
-126.0
 20
550.0
  0
VERTEX
  8
0
 10
-131.0
 20
550.0
  0
VERTEX
  8
0
 10
-131.0
 20
545.5
  0
VERTEX
  8
0
 10
-123.5
 20
545.5
  0
VERTEX
  8
0
 10
-123.5
 20
547.0
  0
VERTEX
  8
0
 10
-119.5
 20
547.0
  0
VERTEX
  8
0
 10
-119.5
 20
545.5
  0
VERTEX
  8
0
 10
-118.0
 20
545.5
  0
VERTEX
  8
0
 10
-118.0
 20
540.5
  0
VERTEX
  8
0
 10
-119.5
 20
540.5
  0
VERTEX
  8
0
 10
-119.5
 20
539.0
  0
VERTEX
  8
0
 10
-123.5
 20
539.0
  0
VERTEX
  8
0
 10
-123.5
 20
540.5
  0
VERTEX
  8
0
 10
-131.0
 20
540.5
  0
VERTEX
  8
0
 10
-131.0
 20
536.0
  0
VERTEX
  8
0
 10
-126.0
 20
536.0
  0
VERTEX
  8
0
 10
-126.0
 20
436.0
  0
VERTEX
  8
0
 10
-131.0
 20
436.0
  0
VERTEX
  8
0
 10
-131.0
 20
431.5
  0
VERTEX
  8
0
 10
-123.5
 20
431.5
  0
VERTEX
  8
0
 10
-123.5
 20
433.0
  0
VERTEX
  8
0
 10
-119.5
 20
433.0
  0
VERTEX
  8
0
 10
-119.5
 20
431.5
  0
VERTEX
  8
0
 10
-118.0
 20
431.5
  0
VERTEX
  8
0
 10
-118.0
 20
426.5
  0
VERTEX
  8
0
 10
-119.5
 20
426.5
  0
VERTEX
  8
0
 10
-119.5
 20
425.0
  0
VERTEX
  8
0
 10
-123.5
 20
425.0
  0
VERTEX
  8
0
 10
-123.5
 20
426.5
  0
VERTEX
  8
0
 10
-131.0
 20
426.5
  0
VERTEX
  8
0
 10
-131.0
 20
422.0
  0
VERTEX
  8
0
 10
-126.0
 20
422.0
  0
VERTEX
  8
0
 10
-126.0
 20
322.0
  0
VERTEX
  8
0
 10
-131.0
 20
322.0
  0
VERTEX
  8
0
 10
-131.0
 20
317.5
  0
VERTEX
  8
0
 10
-123.5
 20
317.5
  0
VERTEX
  8
0
 10
-123.5
 20
319.0
  0
VERTEX
  8
0
 10
-119.5
 20
319.0
  0
VERTEX
  8
0
 10
-119.5
 20
317.5
  0
VERTEX
  8
0
 10
-118.0
 20
317.5
  0
VERTEX
  8
0
 10
-118.0
 20
312.5
  0
VERTEX
  8
0
 10
-119.5
 20
312.5
  0
VERTEX
  8
0
 10
-119.5
 20
311.0
  0
VERTEX
  8
0
 10
-123.5
 20
311.0
  0
VERTEX
  8
0
 10
-123.5
 20
312.5
  0
VERTEX
  8
0
 10
-131.0
 20
312.5
  0
VERTEX
  8
0
 10
-131.0
 20
308.0
  0
VERTEX
  8
0
 10
-126.0
 20
308.0
  0
VERTEX
  8
0
 10
-126.0
 20
208.0
  0
VERTEX
  8
0
 10
-131.0
 20
208.0
  0
VERTEX
  8
0
 10
-131.0
 20
203.5
  0
VERTEX
  8
0
 10
-123.5
 20
203.5
  0
VERTEX
  8
0
 10
-123.5
 20
205.0
  0
VERTEX
  8
0
 10
-119.5
 20
205.0
  0
VERTEX
  8
0
 10
-119.5
 20
203.5
  0
VERTEX
  8
0
 10
-118.0
 20
203.5
  0
VERTEX
  8
0
 10
-118.0
 20
198.5
  0
VERTEX
  8
0
 10
-119.5
 20
198.5
  0
VERTEX
  8
0
 10
-119.5
 20
197.0
  0
VERTEX
  8
0
 10
-123.5
 20
197.0
  0
VERTEX
  8
0
 10
-123.5
 20
198.5
  0
VERTEX
  8
0
 10
-131.0
 20
198.5
  0
VERTEX
  8
0
 10
-131.0
 20
194.0
  0
VERTEX
  8
0
 10
-126.0
 20
194.0
  0
VERTEX
  8
0
 10
-126.0
 20
94.0
  0
VERTEX
  8
0
 10
-131.0
 20
94.0
  0
VERTEX
  8
0
 10
-131.0
 20
89.5
  0
VERTEX
  8
0
 10
-123.5
 20
89.5
  0
VERTEX
  8
0
 10
-123.5
 20
91.0
  0
VERTEX
  8
0
 10
-119.5
 20
91.0
  0
VERTEX
  8
0
 10
-119.5
 20
89.5
  0
VERTEX
  8
0
 10
-118.0
 20
89.5
  0
VERTEX
  8
0
 10
-118.0
 20
84.5
  0
VERTEX
  8
0
 10
-119.5
 20
84.5
  0
VERTEX
  8
0
 10
-119.5
 20
83.0
  0
VERTEX
  8
0
 10
-123.5
 20
83.0
  0
VERTEX
  8
0
 10
-123.5
 20
84.5
  0
VERTEX
  8
0
 10
-131.0
 20
84.5
  0
VERTEX
  8
0
 10
-131.0
 20
80.0
  0
VERTEX
  8
0
 10
-126.0
 20
80.0
  0
VERTEX
  8
0
 10
-126.0
 20
0.0
  0
VERTEX
  8
0
 10
-5.0
 20
0.0
  0
VERTEX
  8
0
 10
-5.0
 20
80.0
  0
VERTEX
  8
0
 10
0.0
 20
80.0
  0
VERTEX
  8
0
 10
0.0
 20
84.5
  0
VERTEX
  8
0
 10
-7.5
 20
84.5
  0
VERTEX
  8
0
 10
-7.5
 20
83.0
  0
VERTEX
  8
0
 10
-11.5
 20
83.0
  0
VERTEX
  8
0
 10
-11.5
 20
84.5
  0
VERTEX
  8
0
 10
-13.0
 20
84.5
  0
VERTEX
  8
0
 10
-13.0
 20
89.5
  0
SEQEND
  8
0
  0
POLYLINE
  8
0
 62
0
 70
1
 66
1
 10
0.0
 20
0.0
 30
0.0
  0
VERTEX
  8
0
 10
-5.0
 20
600.0
  0
VERTEX
  8
0
 10
-5.0
 20
600.0
  0
VERTEX
  8
0
 10
-5.0
 20
550.0
  0
VERTEX
  8
0
 10
-5.0
 20
550.0
  0
SEQEND
  8
0
  0
POLYLINE
  8
0
 62
0
 70
1
 66
1
 10
0.0
 20
0.0
 30
0.0
  0
VERTEX
  8
0
 10
-126.0
 20
600.0
  0
VERTEX
  8
0
 10
-5.0
 20
600.0
  0
VERTEX
  8
0
 10
-5.0
 20
550.0
  0
VERTEX
  8
0
 10
0.0
 20
550.0
  0
VERTEX
  8
0
 10
0.0
 20
545.5
  0
VERTEX
  8
0
 10
-7.5
 20
545.5
  0
VERTEX
  8
0
 10
-7.5
 20
547.0
  0
VERTEX
  8
0
 10
-11.5
 20
547.0
  0
VERTEX
  8
0
 10
-11.5
 20
545.5
  0
VERTEX
  8
0
 10
-13.0
 20
545.5
  0
VERTEX
  8
0
 10
-13.0
 20
540.5
  0
VERTEX
  8
0
 10
-11.5
 20
540.5
  0
VERTEX
  8
0
 10
-11.5
 20
539.0
  0
VERTEX
  8
0
 10
-7.5
 20
539.0
  0
VERTEX
  8
0
 10
-7.5
 20
540.5
  0
VERTEX
  8
0
 10
0.0
 20
540.5
  0
VERTEX
  8
0
 10
0.0
 20
536.0
  0
VERTEX
  8
0
 10
-5.0
 20
536.0
  0
VERTEX
  8
0
 10
-5.0
 20
436.0
  0
VERTEX
  8
0
 10
0.0
 20
436.0
  0
VERTEX
  8
0
 10
0.0
 20
431.5
  0
VERTEX
  8
0
 10
-7.5
 20
431.5
  0
VERTEX
  8
0
 10
-7.5
 20
433.0
  0
VERTEX
  8
0
 10
-11.5
 20
433.0
  0
VERTEX
  8
0
 10
-11.5
 20
431.5
  0
VERTEX
  8
0
 10
-13.0
 20
431.5
  0
VERTEX
  8
0
 10
-13.0
 20
426.5
  0
VERTEX
  8
0
 10
-11.5
 20
426.5
  0
VERTEX
  8
0
 10
-11.5
 20
425.0
  0
VERTEX
  8
0
 10
-7.5
 20
425.0
  0
VERTEX
  8
0
 10
-7.5
 20
426.5
  0
VERTEX
  8
0
 10
0.0
 20
426.5
  0
VERTEX
  8
0
 10
0.0
 20
422.0
  0
VERTEX
  8
0
 10
-5.0
 20
422.0
  0
VERTEX
  8
0
 10
-5.0
 20
322.0
  0
VERTEX
  8
0
 10
0.0
 20
322.0
  0
VERTEX
  8
0
 10
0.0
 20
317.5
  0
VERTEX
  8
0
 10
-7.5
 20
317.5
  0
VERTEX
  8
0
 10
-7.5
 20
319.0
  0
VERTEX
  8
0
 10
-11.5
 20
319.0
  0
VERTEX
  8
0
 10
-11.5
 20
317.5
  0
VERTEX
  8
0
 10
-13.0
 20
317.5
  0
VERTEX
  8
0
 10
-13.0
 20
312.5
  0
VERTEX
  8
0
 10
-11.5
 20
312.5
  0
VERTEX
  8
0
 10
-11.5
 20
311.0
  0
VERTEX
  8
0
 10
-7.5
 20
311.0
  0
VERTEX
  8
0
 10
-7.5
 20
312.5
  0
VERTEX
  8
0
 10
0.0
 20
312.5
  0
VERTEX
  8
0
 10
0.0
 20
308.0
  0
VERTEX
  8
0
 10
-5.0
 20
308.0
  0
VERTEX
  8
0
 10
-5.0
 20
208.0
  0
VERTEX
  8
0
 10
0.0
 20
208.0
  0
VERTEX
  8
0
 10
0.0
 20
203.5
  0
VERTEX
  8
0
 10
-7.5
 20
203.5
  0
VERTEX
  8
0
 10
-7.5
 20
205.0
  0
VERTEX
  8
0
 10
-11.5
 20
205.0
  0
VERTEX
  8
0
 10
-11.5
 20
203.5
  0
VERTEX
  8
0
 10
-13.0
 20
203.5
  0
VERTEX
  8
0
 10
-13.0
 20
198.5
  0
VERTEX
  8
0
 10
-11.5
 20
198.5
  0
VERTEX
  8
0
 10
-11.5
 20
197.0
  0
VERTEX
  8
0
 10
-7.5
 20
197.0
  0
VERTEX
  8
0
 10
-7.5
 20
198.5
  0
VERTEX
  8
0
 10
0.0
 20
198.5
  0
VERTEX
  8
0
 10
0.0
 20
194.0
  0
VERTEX
  8
0
 10
-5.0
 20
194.0
  0
VERTEX
  8
0
 10
-5.0
 20
94.0
  0
VERTEX
  8
0
 10
0.0
 20
94.0
  0
VERTEX
  8
0
 10
0.0
 20
89.5
  0
VERTEX
  8
0
 10
-7.5
 20
89.5
  0
VERTEX
  8
0
 10
-7.5
 20
91.0
  0
VERTEX
  8
0
 10
-11.5
 20
91.0
  0
VERTEX
  8
0
 10
-11.5
 20
89.5
  0
VERTEX
  8
0
 10
-13.0
 20
89.5
  0
VERTEX
  8
0
 10
-13.0
 20
84.5
  0
VERTEX
  8
0
 10
-11.5
 20
84.5
  0
VERTEX
  8
0
 10
-11.5
 20
83.0
  0
VERTEX
  8
0
 10
-7.5
 20
83.0
  0
VERTEX
  8
0
 10
-7.5
 20
84.5
  0
VERTEX
  8
0
 10
0.0
 20
84.5
  0
VERTEX
  8
0
 10
0.0
 20
80.0
  0
VERTEX
  8
0
 10
-5.0
 20
80.0
  0
VERTEX
  8
0
 10
-5.0
 20
0.0
  0
VERTEX
  8
0
 10
-126.0
 20
0.0
  0
VERTEX
  8
0
 10
-126.0
 20
80.0
  0
VERTEX
  8
0
 10
-131.0
 20
80.0
  0
VERTEX
  8
0
 10
-131.0
 20
84.5
  0
VERTEX
  8
0
 10
-123.5
 20
84.5
  0
VERTEX
  8
0
 10
-123.5
 20
83.0
  0
VERTEX
  8
0
 10
-119.5
 20
83.0
  0
VERTEX
  8
0
 10
-119.5
 20
84.5
  0
VERTEX
  8
0
 10
-118.0
 20
84.5
  0
VERTEX
  8
0
 10
-118.0
 20
89.5
  0
VERTEX
  8
0
 10
-119.5
 20
89.5
  0
VERTEX
  8
0
 10
-119.5
 20
91.0
  0
VERTEX
  8
0
 10
-123.5
 20
91.0
  0
VERTEX
  8
0
 10
-123.5
 20
89.5
  0
VERTEX
  8
0
 10
-131.0
 20
89.5
  0
VERTEX
  8
0
 10
-131.0
 20
94.0
  0
VERTEX
  8
0
 10
-126.0
 20
94.0
  0
VERTEX
  8
0
 10
-126.0
 20
194.0
  0
VERTEX
  8
0
 10
-131.0
 20
194.0
  0
VERTEX
  8
0
 10
-131.0
 20
198.5
  0
VERTEX
  8
0
 10
-123.5
 20
198.5
  0
VERTEX
  8
0
 10
-123.5
 20
197.0
  0
VERTEX
  8
0
 10
-119.5
 20
197.0
  0
VERTEX
  8
0
 10
-119.5
 20
198.5
  0
VERTEX
  8
0
 10
-118.0
 20
198.5
  0
VERTEX
  8
0
 10
-118.0
 20
203.5
  0
VERTEX
  8
0
 10
-119.5
 20
203.5
  0
VERTEX
  8
0
 10
-119.5
 20
205.0
  0
VERTEX
  8
0
 10
-123.5
 20
205.0
  0
VERTEX
  8
0
 10
-123.5
 20
203.5
  0
VERTEX
  8
0
 10
-131.0
 20
203.5
  0
VERTEX
  8
0
 10
-131.0
 20
208.0
  0
VERTEX
  8
0
 10
-126.0
 20
208.0
  0
VERTEX
  8
0
 10
-126.0
 20
308.0
  0
VERTEX
  8
0
 10
-131.0
 20
308.0
  0
VERTEX
  8
0
 10
-131.0
 20
312.5
  0
VERTEX
  8
0
 10
-123.5
 20
312.5
  0
VERTEX
  8
0
 10
-123.5
 20
311.0
  0
VERTEX
  8
0
 10
-119.5
 20
311.0
  0
VERTEX
  8
0
 10
-119.5
 20
312.5
  0
VERTEX
  8
0
 10
-118.0
 20
312.5
  0
VERTEX
  8
0
 10
-118.0
 20
317.5
  0
VERTEX
  8
0
 10
-119.5
 20
317.5
  0
VERTEX
  8
0
 10
-119.5
 20
319.0
  0
VERTEX
  8
0
 10
-123.5
 20
319.0
  0
VERTEX
  8
0
 10
-123.5
 20
317.5
  0
VERTEX
  8
0
 10
-131.0
 20
317.5
  0
VERTEX
  8
0
 10
-131.0
 20
322.0
  0
VERTEX
  8
0
 10
-126.0
 20
322.0
  0
VERTEX
  8
0
 10
-126.0
 20
422.0
  0
VERTEX
  8
0
 10
-131.0
 20
422.0
  0
VERTEX
  8
0
 10
-131.0
 20
426.5
  0
VERTEX
  8
0
 10
-123.5
 20
426.5
  0
VERTEX
  8
0
 10
-123.5
 20
425.0
  0
VERTEX
  8
0
 10
-119.5
 20
425.0
  0
VERTEX
  8
0
 10
-119.5
 20
426.5
  0
VERTEX
  8
0
 10
-118.0
 20
426.5
  0
VERTEX
  8
0
 10
-118.0
 20
431.5
  0
VERTEX
  8
0
 10
-119.5
 20
431.5
  0
VERTEX
  8
0
 10
-119.5
 20
433.0
  0
VERTEX
  8
0
 10
-123.5
 20
433.0
  0
VERTEX
  8
0
 10
-123.5
 20
431.5
  0
VERTEX
  8
0
 10
-131.0
 20
431.5
  0
VERTEX
  8
0
 10
-131.0
 20
436.0
  0
VERTEX
  8
0
 10
-126.0
 20
436.0
  0
VERTEX
  8
0
 10
-126.0
 20
536.0
  0
VERTEX
  8
0
 10
-131.0
 20
536.0
  0
VERTEX
  8
0
 10
-131.0
 20
540.5
  0
VERTEX
  8
0
 10
-123.5
 20
540.5
  0
VERTEX
  8
0
 10
-123.5
 20
539.0
  0
VERTEX
  8
0
 10
-119.5
 20
539.0
  0
VERTEX
  8
0
 10
-119.5
 20
540.5
  0
VERTEX
  8
0
 10
-118.0
 20
540.5
  0
VERTEX
  8
0
 10
-118.0
 20
545.5
  0
VERTEX
  8
0
 10
-119.5
 20
545.5
  0
VERTEX
  8
0
 10
-119.5
 20
547.0
  0
VERTEX
  8
0
 10
-123.5
 20
547.0
  0
VERTEX
  8
0
 10
-123.5
 20
545.5
  0
VERTEX
  8
0
 10
-131.0
 20
545.5
  0
VERTEX
  8
0
 10
-131.0
 20
550.0
  0
VERTEX
  8
0
 10
-126.0
 20
550.0
  0
SEQEND
  8
0
  0
POLYLINE
  8
0
 62
0
 70
1
 66
1
 10
0.0
 20
0.0
 30
0.0
  0
VERTEX
  8
0
 10
-126.0
 20
600.0
  0
VERTEX
  8
0
 10
-126.0
 20
600.0
  0
VERTEX
  8
0
 10
-126.0
 20
550.0
  0
VERTEX
  8
0
 10
-126.0
 20
550.0
  0
SEQEND
  8
0
  0
POLYLINE
  8
0
 62
0
 70
1
 66
1
 10
0.0
 20
0.0
 30
0.0
  0
VERTEX
  8
0
 10
-11.5
 20
89.5
  0
VERTEX
  8
0
 10
-11.5
 20
91.0
  0
VERTEX
  8
0
 10
-11.5
 20
91.0
  0
VERTEX
  8
0
 10
-11.5
 20
89.5
  0
SEQEND
  8
0
  0
POLYLINE
  8
0
 62
0
 70
1
 66
1
 10
0.0
 20
0.0
 30
0.0
  0
VERTEX
  8
0
 10
-11.5
 20
89.5
  0
VERTEX
  8
0
 10
-11.5
 20
89.5
  0
VERTEX
  8
0
 10
-13.0
 20
89.5
  0
VERTEX
  8
0
 10
-13.0
 20
89.5
  0
SEQEND
  8
0
  0
POLYLINE
  8
0
 62
0
 70
1
 66
1
 10
0.0
 20
0.0
 30
0.0
  0
VERTEX
  8
0
 10
-13.0
 20
89.5
  0
VERTEX
  8
0
 10
-13.0
 20
89.5
  0
VERTEX
  8
0
 10
-13.0
 20
84.5
  0
VERTEX
  8
0
 10
-13.0
 20
84.5
  0
SEQEND
  8
0
  0
POLYLINE
  8
0
 62
0
 70
1
 66
1
 10
0.0
 20
0.0
 30
0.0
  0
VERTEX
  8
0
 10
-11.5
 20
84.5
  0
VERTEX
  8
0
 10
-11.5
 20
84.5
  0
VERTEX
  8
0
 10
-13.0
 20
84.5
  0
VERTEX
  8
0
 10
-13.0
 20
84.5
  0
SEQEND
  8
0
  0
POLYLINE
  8
0
 62
0
 70
1
 66
1
 10
0.0
 20
0.0
 30
0.0
  0
VERTEX
  8
0
 10
-11.5
 20
83.0
  0
VERTEX
  8
0
 10
-11.5
 20
83.0
  0
VERTEX
  8
0
 10
-11.5
 20
84.5
  0
VERTEX
  8
0
 10
-11.5
 20
84.5
  0
SEQEND
  8
0
  0
POLYLINE
  8
0
 62
0
 70
1
 66
1
 10
0.0
 20
0.0
 30
0.0
  0
VERTEX
  8
0
 10
-7.5
 20
83.0
  0
VERTEX
  8
0
 10
-7.5
 20
83.0
  0
VERTEX
  8
0
 10
-11.5
 20
83.0
  0
VERTEX
  8
0
 10
-11.5
 20
83.0
  0
SEQEND
  8
0
  0
POLYLINE
  8
0
 62
0
 70
1
 66
1
 10
0.0
 20
0.0
 30
0.0
  0
VERTEX
  8
0
 10
-7.5
 20
84.5
  0
VERTEX
  8
0
 10
-7.5
 20
83.0
  0
VERTEX
  8
0
 10
-7.5
 20
83.0
  0
VERTEX
  8
0
 10
-7.5
 20
84.5
  0
SEQEND
  8
0
  0
POLYLINE
  8
0
 62
0
 70
1
 66
1
 10
0.0
 20
0.0
 30
0.0
  0
VERTEX
  8
0
 10
-7.5
 20
84.5
  0
VERTEX
  8
0
 10
0.0
 20
84.5
  0
VERTEX
  8
0
 10
0.0
 20
84.5
  0
VERTEX
  8
0
 10
-7.5
 20
84.5
  0
SEQEND
  8
0
  0
POLYLINE
  8
0
 62
0
 70
1
 66
1
 10
0.0
 20
0.0
 30
0.0
  0
VERTEX
  8
0
 10
0.0
 20
84.5
  0
VERTEX
  8
0
 10
0.0
 20
80.0
  0
VERTEX
  8
0
 10
0.0
 20
80.0
  0
VERTEX
  8
0
 10
0.0
 20
84.5
  0
SEQEND
  8
0
  0
POLYLINE
  8
0
 62
0
 70
1
 66
1
 10
0.0
 20
0.0
 30
0.0
  0
VERTEX
  8
0
 10
0.0
 20
80.0
  0
VERTEX
  8
0
 10
0.0
 20
80.0
  0
VERTEX
  8
0
 10
-5.0
 20
80.0
  0
VERTEX
  8
0
 10
-5.0
 20
80.0
  0
SEQEND
  8
0
  0
POLYLINE
  8
0
 62
0
 70
1
 66
1
 10
0.0
 20
0.0
 30
0.0
  0
VERTEX
  8
0
 10
-5.0
 20
0.0
  0
VERTEX
  8
0
 10
-5.0
 20
0.0
  0
VERTEX
  8
0
 10
-5.0
 20
80.0
  0
VERTEX
  8
0
 10
-5.0
 20
80.0
  0
SEQEND
  8
0
  0
POLYLINE
  8
0
 62
0
 70
1
 66
1
 10
0.0
 20
0.0
 30
0.0
  0
VERTEX
  8
0
 10
-5.0
 20
0.0
  0
VERTEX
  8
0
 10
-5.0
 20
0.0
  0
VERTEX
  8
0
 10
-126.0
 20
0.0
  0
VERTEX
  8
0
 10
-126.0
 20
0.0
  0
SEQEND
  8
0
  0
POLYLINE
  8
0
 62
0
 70
1
 66
1
 10
0.0
 20
0.0
 30
0.0
  0
VERTEX
  8
0
 10
-126.0
 20
0.0
  0
VERTEX
  8
0
 10
-126.0
 20
0.0
  0
VERTEX
  8
0
 10
-126.0
 20
80.0
  0
VERTEX
  8
0
 10
-126.0
 20
80.0
  0
SEQEND
  8
0
  0
POLYLINE
  8
0
 62
0
 70
1
 66
1
 10
0.0
 20
0.0
 30
0.0
  0
VERTEX
  8
0
 10
-131.0
 20
80.0
  0
VERTEX
  8
0
 10
-131.0
 20
80.0
  0
VERTEX
  8
0
 10
-126.0
 20
80.0
  0
VERTEX
  8
0
 10
-126.0
 20
80.0
  0
SEQEND
  8
0
  0
POLYLINE
  8
0
 62
0
 70
1
 66
1
 10
0.0
 20
0.0
 30
0.0
  0
VERTEX
  8
0
 10
-131.0
 20
80.0
  0
VERTEX
  8
0
 10
-131.0
 20
84.5
  0
VERTEX
  8
0
 10
-131.0
 20
84.5
  0
VERTEX
  8
0
 10
-131.0
 20
80.0
  0
SEQEND
  8
0
  0
POLYLINE
  8
0
 62
0
 70
1
 66
1
 10
0.0
 20
0.0
 30
0.0
  0
VERTEX
  8
0
 10
-123.5
 20
84.5
  0
VERTEX
  8
0
 10
-123.5
 20
84.5
  0
VERTEX
  8
0
 10
-131.0
 20
84.5
  0
VERTEX
  8
0
 10
-131.0
 20
84.5
  0
SEQEND
  8
0
  0
POLYLINE
  8
0
 62
0
 70
1
 66
1
 10
0.0
 20
0.0
 30
0.0
  0
VERTEX
  8
0
 10
-123.5
 20
83.0
  0
VERTEX
  8
0
 10
-123.5
 20
83.0
  0
VERTEX
  8
0
 10
-123.5
 20
84.5
  0
VERTEX
  8
0
 10
-123.5
 20
84.5
  0
SEQEND
  8
0
  0
POLYLINE
  8
0
 62
0
 70
1
 66
1
 10
0.0
 20
0.0
 30
0.0
  0
VERTEX
  8
0
 10
-119.5
 20
83.0
  0
VERTEX
  8
0
 10
-119.5
 20
83.0
  0
VERTEX
  8
0
 10
-123.5
 20
83.0
  0
VERTEX
  8
0
 10
-123.5
 20
83.0
  0
SEQEND
  8
0
  0
POLYLINE
  8
0
 62
0
 70
1
 66
1
 10
0.0
 20
0.0
 30
0.0
  0
VERTEX
  8
0
 10
-119.5
 20
84.5
  0
VERTEX
  8
0
 10
-119.5
 20
83.0
  0
VERTEX
  8
0
 10
-119.5
 20
83.0
  0
VERTEX
  8
0
 10
-119.5
 20
84.5
  0
SEQEND
  8
0
  0
POLYLINE
  8
0
 62
0
 70
1
 66
1
 10
0.0
 20
0.0
 30
0.0
  0
VERTEX
  8
0
 10
-118.0
 20
84.5
  0
VERTEX
  8
0
 10
-119.5
 20
84.5
  0
VERTEX
  8
0
 10
-119.5
 20
84.5
  0
VERTEX
  8
0
 10
-118.0
 20
84.5
  0
SEQEND
  8
0
  0
POLYLINE
  8
0
 62
0
 70
1
 66
1
 10
0.0
 20
0.0
 30
0.0
  0
VERTEX
  8
0
 10
-118.0
 20
89.5
  0
VERTEX
  8
0
 10
-118.0
 20
89.5
  0
VERTEX
  8
0
 10
-118.0
 20
84.5
  0
VERTEX
  8
0
 10
-118.0
 20
84.5
  0
SEQEND
  8
0
  0
POLYLINE
  8
0
 62
0
 70
1
 66
1
 10
0.0
 20
0.0
 30
0.0
  0
VERTEX
  8
0
 10
-119.5
 20
89.5
  0
VERTEX
  8
0
 10
-118.0
 20
89.5
  0
VERTEX
  8
0
 10
-118.0
 20
89.5
  0
VERTEX
  8
0
 10
-119.5
 20
89.5
  0
SEQEND
  8
0
  0
POLYLINE
  8
0
 62
0
 70
1
 66
1
 10
0.0
 20
0.0
 30
0.0
  0
VERTEX
  8
0
 10
-119.5
 20
91.0
  0
VERTEX
  8
0
 10
-119.5
 20
91.0
  0
VERTEX
  8
0
 10
-119.5
 20
89.5
  0
VERTEX
  8
0
 10
-119.5
 20
89.5
  0
SEQEND
  8
0
  0
POLYLINE
  8
0
 62
0
 70
1
 66
1
 10
0.0
 20
0.0
 30
0.0
  0
VERTEX
  8
0
 10
-123.5
 20
91.0
  0
VERTEX
  8
0
 10
-123.5
 20
91.0
  0
VERTEX
  8
0
 10
-119.5
 20
91.0
  0
VERTEX
  8
0
 10
-119.5
 20
91.0
  0
SEQEND
  8
0
  0
POLYLINE
  8
0
 62
0
 70
1
 66
1
 10
0.0
 20
0.0
 30
0.0
  0
VERTEX
  8
0
 10
-123.5
 20
89.5
  0
VERTEX
  8
0
 10
-123.5
 20
91.0
  0
VERTEX
  8
0
 10
-123.5
 20
91.0
  0
VERTEX
  8
0
 10
-123.5
 20
89.5
  0
SEQEND
  8
0
  0
POLYLINE
  8
0
 62
0
 70
1
 66
1
 10
0.0
 20
0.0
 30
0.0
  0
VERTEX
  8
0
 10
-123.5
 20
89.5
  0
VERTEX
  8
0
 10
-123.5
 20
89.5
  0
VERTEX
  8
0
 10
-131.0
 20
89.5
  0
VERTEX
  8
0
 10
-131.0
 20
89.5
  0
SEQEND
  8
0
  0
POLYLINE
  8
0
 62
0
 70
1
 66
1
 10
0.0
 20
0.0
 30
0.0
  0
VERTEX
  8
0
 10
-131.0
 20
89.5
  0
VERTEX
  8
0
 10
-131.0
 20
94.0
  0
VERTEX
  8
0
 10
-131.0
 20
94.0
  0
VERTEX
  8
0
 10
-131.0
 20
89.5
  0
SEQEND
  8
0
  0
POLYLINE
  8
0
 62
0
 70
1
 66
1
 10
0.0
 20
0.0
 30
0.0
  0
VERTEX
  8
0
 10
-126.0
 20
94.0
  0
VERTEX
  8
0
 10
-126.0
 20
94.0
  0
VERTEX
  8
0
 10
-131.0
 20
94.0
  0
VERTEX
  8
0
 10
-131.0
 20
94.0
  0
SEQEND
  8
0
  0
POLYLINE
  8
0
 62
0
 70
1
 66
1
 10
0.0
 20
0.0
 30
0.0
  0
VERTEX
  8
0
 10
-126.0
 20
194.0
  0
VERTEX
  8
0
 10
-126.0
 20
194.0
  0
VERTEX
  8
0
 10
-126.0
 20
94.0
  0
VERTEX
  8
0
 10
-126.0
 20
94.0
  0
SEQEND
  8
0
  0
POLYLINE
  8
0
 62
0
 70
1
 66
1
 10
0.0
 20
0.0
 30
0.0
  0
VERTEX
  8
0
 10
-131.0
 20
194.0
  0
VERTEX
  8
0
 10
-131.0
 20
194.0
  0
VERTEX
  8
0
 10
-126.0
 20
194.0
  0
VERTEX
  8
0
 10
-126.0
 20
194.0
  0
SEQEND
  8
0
  0
POLYLINE
  8
0
 62
0
 70
1
 66
1
 10
0.0
 20
0.0
 30
0.0
  0
VERTEX
  8
0
 10
-131.0
 20
194.0
  0
VERTEX
  8
0
 10
-131.0
 20
198.5
  0
VERTEX
  8
0
 10
-131.0
 20
198.5
  0
VERTEX
  8
0
 10
-131.0
 20
194.0
  0
SEQEND
  8
0
  0
POLYLINE
  8
0
 62
0
 70
1
 66
1
 10
0.0
 20
0.0
 30
0.0
  0
VERTEX
  8
0
 10
-123.5
 20
198.5
  0
VERTEX
  8
0
 10
-123.5
 20
198.5
  0
VERTEX
  8
0
 10
-131.0
 20
198.5
  0
VERTEX
  8
0
 10
-131.0
 20
198.5
  0
SEQEND
  8
0
  0
POLYLINE
  8
0
 62
0
 70
1
 66
1
 10
0.0
 20
0.0
 30
0.0
  0
VERTEX
  8
0
 10
-123.5
 20
197.0
  0
VERTEX
  8
0
 10
-123.5
 20
197.0
  0
VERTEX
  8
0
 10
-123.5
 20
198.5
  0
VERTEX
  8
0
 10
-123.5
 20
198.5
  0
SEQEND
  8
0
  0
POLYLINE
  8
0
 62
0
 70
1
 66
1
 10
0.0
 20
0.0
 30
0.0
  0
VERTEX
  8
0
 10
-119.5
 20
197.0
  0
VERTEX
  8
0
 10
-119.5
 20
197.0
  0
VERTEX
  8
0
 10
-123.5
 20
197.0
  0
VERTEX
  8
0
 10
-123.5
 20
197.0
  0
SEQEND
  8
0
  0
POLYLINE
  8
0
 62
0
 70
1
 66
1
 10
0.0
 20
0.0
 30
0.0
  0
VERTEX
  8
0
 10
-119.5
 20
198.5
  0
VERTEX
  8
0
 10
-119.5
 20
197.0
  0
VERTEX
  8
0
 10
-119.5
 20
197.0
  0
VERTEX
  8
0
 10
-119.5
 20
198.5
  0
SEQEND
  8
0
  0
POLYLINE
  8
0
 62
0
 70
1
 66
1
 10
0.0
 20
0.0
 30
0.0
  0
VERTEX
  8
0
 10
-118.0
 20
198.5
  0
VERTEX
  8
0
 10
-119.5
 20
198.5
  0
VERTEX
  8
0
 10
-119.5
 20
198.5
  0
VERTEX
  8
0
 10
-118.0
 20
198.5
  0
SEQEND
  8
0
  0
POLYLINE
  8
0
 62
0
 70
1
 66
1
 10
0.0
 20
0.0
 30
0.0
  0
VERTEX
  8
0
 10
-118.0
 20
203.5
  0
VERTEX
  8
0
 10
-118.0
 20
203.5
  0
VERTEX
  8
0
 10
-118.0
 20
198.5
  0
VERTEX
  8
0
 10
-118.0
 20
198.5
  0
SEQEND
  8
0
  0
POLYLINE
  8
0
 62
0
 70
1
 66
1
 10
0.0
 20
0.0
 30
0.0
  0
VERTEX
  8
0
 10
-119.5
 20
203.5
  0
VERTEX
  8
0
 10
-118.0
 20
203.5
  0
VERTEX
  8
0
 10
-118.0
 20
203.5
  0
VERTEX
  8
0
 10
-119.5
 20
203.5
  0
SEQEND
  8
0
  0
POLYLINE
  8
0
 62
0
 70
1
 66
1
 10
0.0
 20
0.0
 30
0.0
  0
VERTEX
  8
0
 10
-119.5
 20
205.0
  0
VERTEX
  8
0
 10
-119.5
 20
205.0
  0
VERTEX
  8
0
 10
-119.5
 20
203.5
  0
VERTEX
  8
0
 10
-119.5
 20
203.5
  0
SEQEND
  8
0
  0
POLYLINE
  8
0
 62
0
 70
1
 66
1
 10
0.0
 20
0.0
 30
0.0
  0
VERTEX
  8
0
 10
-123.5
 20
205.0
  0
VERTEX
  8
0
 10
-123.5
 20
205.0
  0
VERTEX
  8
0
 10
-119.5
 20
205.0
  0
VERTEX
  8
0
 10
-119.5
 20
205.0
  0
SEQEND
  8
0
  0
POLYLINE
  8
0
 62
0
 70
1
 66
1
 10
0.0
 20
0.0
 30
0.0
  0
VERTEX
  8
0
 10
-123.5
 20
203.5
  0
VERTEX
  8
0
 10
-123.5
 20
205.0
  0
VERTEX
  8
0
 10
-123.5
 20
205.0
  0
VERTEX
  8
0
 10
-123.5
 20
203.5
  0
SEQEND
  8
0
  0
POLYLINE
  8
0
 62
0
 70
1
 66
1
 10
0.0
 20
0.0
 30
0.0
  0
VERTEX
  8
0
 10
-123.5
 20
203.5
  0
VERTEX
  8
0
 10
-123.5
 20
203.5
  0
VERTEX
  8
0
 10
-131.0
 20
203.5
  0
VERTEX
  8
0
 10
-131.0
 20
203.5
  0
SEQEND
  8
0
  0
POLYLINE
  8
0
 62
0
 70
1
 66
1
 10
0.0
 20
0.0
 30
0.0
  0
VERTEX
  8
0
 10
-131.0
 20
203.5
  0
VERTEX
  8
0
 10
-131.0
 20
208.0
  0
VERTEX
  8
0
 10
-131.0
 20
208.0
  0
VERTEX
  8
0
 10
-131.0
 20
203.5
  0
SEQEND
  8
0
  0
POLYLINE
  8
0
 62
0
 70
1
 66
1
 10
0.0
 20
0.0
 30
0.0
  0
VERTEX
  8
0
 10
-126.0
 20
208.0
  0
VERTEX
  8
0
 10
-126.0
 20
208.0
  0
VERTEX
  8
0
 10
-131.0
 20
208.0
  0
VERTEX
  8
0
 10
-131.0
 20
208.0
  0
SEQEND
  8
0
  0
POLYLINE
  8
0
 62
0
 70
1
 66
1
 10
0.0
 20
0.0
 30
0.0
  0
VERTEX
  8
0
 10
-126.0
 20
308.0
  0
VERTEX
  8
0
 10
-126.0
 20
308.0
  0
VERTEX
  8
0
 10
-126.0
 20
208.0
  0
VERTEX
  8
0
 10
-126.0
 20
208.0
  0
SEQEND
  8
0
  0
POLYLINE
  8
0
 62
0
 70
1
 66
1
 10
0.0
 20
0.0
 30
0.0
  0
VERTEX
  8
0
 10
-131.0
 20
308.0
  0
VERTEX
  8
0
 10
-131.0
 20
308.0
  0
VERTEX
  8
0
 10
-126.0
 20
308.0
  0
VERTEX
  8
0
 10
-126.0
 20
308.0
  0
SEQEND
  8
0
  0
POLYLINE
  8
0
 62
0
 70
1
 66
1
 10
0.0
 20
0.0
 30
0.0
  0
VERTEX
  8
0
 10
-131.0
 20
308.0
  0
VERTEX
  8
0
 10
-131.0
 20
312.5
  0
VERTEX
  8
0
 10
-131.0
 20
312.5
  0
VERTEX
  8
0
 10
-131.0
 20
308.0
  0
SEQEND
  8
0
  0
POLYLINE
  8
0
 62
0
 70
1
 66
1
 10
0.0
 20
0.0
 30
0.0
  0
VERTEX
  8
0
 10
-123.5
 20
312.5
  0
VERTEX
  8
0
 10
-123.5
 20
312.5
  0
VERTEX
  8
0
 10
-131.0
 20
312.5
  0
VERTEX
  8
0
 10
-131.0
 20
312.5
  0
SEQEND
  8
0
  0
POLYLINE
  8
0
 62
0
 70
1
 66
1
 10
0.0
 20
0.0
 30
0.0
  0
VERTEX
  8
0
 10
-123.5
 20
311.0
  0
VERTEX
  8
0
 10
-123.5
 20
311.0
  0
VERTEX
  8
0
 10
-123.5
 20
312.5
  0
VERTEX
  8
0
 10
-123.5
 20
312.5
  0
SEQEND
  8
0
  0
POLYLINE
  8
0
 62
0
 70
1
 66
1
 10
0.0
 20
0.0
 30
0.0
  0
VERTEX
  8
0
 10
-119.5
 20
311.0
  0
VERTEX
  8
0
 10
-119.5
 20
311.0
  0
VERTEX
  8
0
 10
-123.5
 20
311.0
  0
VERTEX
  8
0
 10
-123.5
 20
311.0
  0
SEQEND
  8
0
  0
POLYLINE
  8
0
 62
0
 70
1
 66
1
 10
0.0
 20
0.0
 30
0.0
  0
VERTEX
  8
0
 10
-119.5
 20
312.5
  0
VERTEX
  8
0
 10
-119.5
 20
311.0
  0
VERTEX
  8
0
 10
-119.5
 20
311.0
  0
VERTEX
  8
0
 10
-119.5
 20
312.5
  0
SEQEND
  8
0
  0
POLYLINE
  8
0
 62
0
 70
1
 66
1
 10
0.0
 20
0.0
 30
0.0
  0
VERTEX
  8
0
 10
-118.0
 20
312.5
  0
VERTEX
  8
0
 10
-119.5
 20
312.5
  0
VERTEX
  8
0
 10
-119.5
 20
312.5
  0
VERTEX
  8
0
 10
-118.0
 20
312.5
  0
SEQEND
  8
0
  0
POLYLINE
  8
0
 62
0
 70
1
 66
1
 10
0.0
 20
0.0
 30
0.0
  0
VERTEX
  8
0
 10
-118.0
 20
317.5
  0
VERTEX
  8
0
 10
-118.0
 20
317.5
  0
VERTEX
  8
0
 10
-118.0
 20
312.5
  0
VERTEX
  8
0
 10
-118.0
 20
312.5
  0
SEQEND
  8
0
  0
POLYLINE
  8
0
 62
0
 70
1
 66
1
 10
0.0
 20
0.0
 30
0.0
  0
VERTEX
  8
0
 10
-119.5
 20
317.5
  0
VERTEX
  8
0
 10
-118.0
 20
317.5
  0
VERTEX
  8
0
 10
-118.0
 20
317.5
  0
VERTEX
  8
0
 10
-119.5
 20
317.5
  0
SEQEND
  8
0
  0
POLYLINE
  8
0
 62
0
 70
1
 66
1
 10
0.0
 20
0.0
 30
0.0
  0
VERTEX
  8
0
 10
-119.5
 20
319.0
  0
VERTEX
  8
0
 10
-119.5
 20
319.0
  0
VERTEX
  8
0
 10
-119.5
 20
317.5
  0
VERTEX
  8
0
 10
-119.5
 20
317.5
  0
SEQEND
  8
0
  0
POLYLINE
  8
0
 62
0
 70
1
 66
1
 10
0.0
 20
0.0
 30
0.0
  0
VERTEX
  8
0
 10
-123.5
 20
319.0
  0
VERTEX
  8
0
 10
-123.5
 20
319.0
  0
VERTEX
  8
0
 10
-119.5
 20
319.0
  0
VERTEX
  8
0
 10
-119.5
 20
319.0
  0
SEQEND
  8
0
  0
POLYLINE
  8
0
 62
0
 70
1
 66
1
 10
0.0
 20
0.0
 30
0.0
  0
VERTEX
  8
0
 10
-123.5
 20
317.5
  0
VERTEX
  8
0
 10
-123.5
 20
319.0
  0
VERTEX
  8
0
 10
-123.5
 20
319.0
  0
VERTEX
  8
0
 10
-123.5
 20
317.5
  0
SEQEND
  8
0
  0
POLYLINE
  8
0
 62
0
 70
1
 66
1
 10
0.0
 20
0.0
 30
0.0
  0
VERTEX
  8
0
 10
-123.5
 20
317.5
  0
VERTEX
  8
0
 10
-123.5
 20
317.5
  0
VERTEX
  8
0
 10
-131.0
 20
317.5
  0
VERTEX
  8
0
 10
-131.0
 20
317.5
  0
SEQEND
  8
0
  0
POLYLINE
  8
0
 62
0
 70
1
 66
1
 10
0.0
 20
0.0
 30
0.0
  0
VERTEX
  8
0
 10
-131.0
 20
317.5
  0
VERTEX
  8
0
 10
-131.0
 20
322.0
  0
VERTEX
  8
0
 10
-131.0
 20
322.0
  0
VERTEX
  8
0
 10
-131.0
 20
317.5
  0
SEQEND
  8
0
  0
POLYLINE
  8
0
 62
0
 70
1
 66
1
 10
0.0
 20
0.0
 30
0.0
  0
VERTEX
  8
0
 10
-126.0
 20
322.0
  0
VERTEX
  8
0
 10
-126.0
 20
322.0
  0
VERTEX
  8
0
 10
-131.0
 20
322.0
  0
VERTEX
  8
0
 10
-131.0
 20
322.0
  0
SEQEND
  8
0
  0
POLYLINE
  8
0
 62
0
 70
1
 66
1
 10
0.0
 20
0.0
 30
0.0
  0
VERTEX
  8
0
 10
-126.0
 20
422.0
  0
VERTEX
  8
0
 10
-126.0
 20
422.0
  0
VERTEX
  8
0
 10
-126.0
 20
322.0
  0
VERTEX
  8
0
 10
-126.0
 20
322.0
  0
SEQEND
  8
0
  0
POLYLINE
  8
0
 62
0
 70
1
 66
1
 10
0.0
 20
0.0
 30
0.0
  0
VERTEX
  8
0
 10
-131.0
 20
422.0
  0
VERTEX
  8
0
 10
-131.0
 20
422.0
  0
VERTEX
  8
0
 10
-126.0
 20
422.0
  0
VERTEX
  8
0
 10
-126.0
 20
422.0
  0
SEQEND
  8
0
  0
POLYLINE
  8
0
 62
0
 70
1
 66
1
 10
0.0
 20
0.0
 30
0.0
  0
VERTEX
  8
0
 10
-131.0
 20
422.0
  0
VERTEX
  8
0
 10
-131.0
 20
426.5
  0
VERTEX
  8
0
 10
-131.0
 20
426.5
  0
VERTEX
  8
0
 10
-131.0
 20
422.0
  0
SEQEND
  8
0
  0
POLYLINE
  8
0
 62
0
 70
1
 66
1
 10
0.0
 20
0.0
 30
0.0
  0
VERTEX
  8
0
 10
-123.5
 20
426.5
  0
VERTEX
  8
0
 10
-123.5
 20
426.5
  0
VERTEX
  8
0
 10
-131.0
 20
426.5
  0
VERTEX
  8
0
 10
-131.0
 20
426.5
  0
SEQEND
  8
0
  0
POLYLINE
  8
0
 62
0
 70
1
 66
1
 10
0.0
 20
0.0
 30
0.0
  0
VERTEX
  8
0
 10
-123.5
 20
425.0
  0
VERTEX
  8
0
 10
-123.5
 20
425.0
  0
VERTEX
  8
0
 10
-123.5
 20
426.5
  0
VERTEX
  8
0
 10
-123.5
 20
426.5
  0
SEQEND
  8
0
  0
POLYLINE
  8
0
 62
0
 70
1
 66
1
 10
0.0
 20
0.0
 30
0.0
  0
VERTEX
  8
0
 10
-119.5
 20
425.0
  0
VERTEX
  8
0
 10
-119.5
 20
425.0
  0
VERTEX
  8
0
 10
-123.5
 20
425.0
  0
VERTEX
  8
0
 10
-123.5
 20
425.0
  0
SEQEND
  8
0
  0
POLYLINE
  8
0
 62
0
 70
1
 66
1
 10
0.0
 20
0.0
 30
0.0
  0
VERTEX
  8
0
 10
-119.5
 20
426.5
  0
VERTEX
  8
0
 10
-119.5
 20
425.0
  0
VERTEX
  8
0
 10
-119.5
 20
425.0
  0
VERTEX
  8
0
 10
-119.5
 20
426.5
  0
SEQEND
  8
0
  0
POLYLINE
  8
0
 62
0
 70
1
 66
1
 10
0.0
 20
0.0
 30
0.0
  0
VERTEX
  8
0
 10
-118.0
 20
426.5
  0
VERTEX
  8
0
 10
-119.5
 20
426.5
  0
VERTEX
  8
0
 10
-119.5
 20
426.5
  0
VERTEX
  8
0
 10
-118.0
 20
426.5
  0
SEQEND
  8
0
  0
POLYLINE
  8
0
 62
0
 70
1
 66
1
 10
0.0
 20
0.0
 30
0.0
  0
VERTEX
  8
0
 10
-118.0
 20
431.5
  0
VERTEX
  8
0
 10
-118.0
 20
431.5
  0
VERTEX
  8
0
 10
-118.0
 20
426.5
  0
VERTEX
  8
0
 10
-118.0
 20
426.5
  0
SEQEND
  8
0
  0
POLYLINE
  8
0
 62
0
 70
1
 66
1
 10
0.0
 20
0.0
 30
0.0
  0
VERTEX
  8
0
 10
-119.5
 20
431.5
  0
VERTEX
  8
0
 10
-118.0
 20
431.5
  0
VERTEX
  8
0
 10
-118.0
 20
431.5
  0
VERTEX
  8
0
 10
-119.5
 20
431.5
  0
SEQEND
  8
0
  0
POLYLINE
  8
0
 62
0
 70
1
 66
1
 10
0.0
 20
0.0
 30
0.0
  0
VERTEX
  8
0
 10
-119.5
 20
433.0
  0
VERTEX
  8
0
 10
-119.5
 20
433.0
  0
VERTEX
  8
0
 10
-119.5
 20
431.5
  0
VERTEX
  8
0
 10
-119.5
 20
431.5
  0
SEQEND
  8
0
  0
POLYLINE
  8
0
 62
0
 70
1
 66
1
 10
0.0
 20
0.0
 30
0.0
  0
VERTEX
  8
0
 10
-123.5
 20
433.0
  0
VERTEX
  8
0
 10
-123.5
 20
433.0
  0
VERTEX
  8
0
 10
-119.5
 20
433.0
  0
VERTEX
  8
0
 10
-119.5
 20
433.0
  0
SEQEND
  8
0
  0
POLYLINE
  8
0
 62
0
 70
1
 66
1
 10
0.0
 20
0.0
 30
0.0
  0
VERTEX
  8
0
 10
-123.5
 20
431.5
  0
VERTEX
  8
0
 10
-123.5
 20
433.0
  0
VERTEX
  8
0
 10
-123.5
 20
433.0
  0
VERTEX
  8
0
 10
-123.5
 20
431.5
  0
SEQEND
  8
0
  0
POLYLINE
  8
0
 62
0
 70
1
 66
1
 10
0.0
 20
0.0
 30
0.0
  0
VERTEX
  8
0
 10
-123.5
 20
431.5
  0
VERTEX
  8
0
 10
-123.5
 20
431.5
  0
VERTEX
  8
0
 10
-131.0
 20
431.5
  0
VERTEX
  8
0
 10
-131.0
 20
431.5
  0
SEQEND
  8
0
  0
POLYLINE
  8
0
 62
0
 70
1
 66
1
 10
0.0
 20
0.0
 30
0.0
  0
VERTEX
  8
0
 10
-131.0
 20
431.5
  0
VERTEX
  8
0
 10
-131.0
 20
436.0
  0
VERTEX
  8
0
 10
-131.0
 20
436.0
  0
VERTEX
  8
0
 10
-131.0
 20
431.5
  0
SEQEND
  8
0
  0
POLYLINE
  8
0
 62
0
 70
1
 66
1
 10
0.0
 20
0.0
 30
0.0
  0
VERTEX
  8
0
 10
-126.0
 20
436.0
  0
VERTEX
  8
0
 10
-126.0
 20
436.0
  0
VERTEX
  8
0
 10
-131.0
 20
436.0
  0
VERTEX
  8
0
 10
-131.0
 20
436.0
  0
SEQEND
  8
0
  0
POLYLINE
  8
0
 62
0
 70
1
 66
1
 10
0.0
 20
0.0
 30
0.0
  0
VERTEX
  8
0
 10
-126.0
 20
536.0
  0
VERTEX
  8
0
 10
-126.0
 20
536.0
  0
VERTEX
  8
0
 10
-126.0
 20
436.0
  0
VERTEX
  8
0
 10
-126.0
 20
436.0
  0
SEQEND
  8
0
  0
POLYLINE
  8
0
 62
0
 70
1
 66
1
 10
0.0
 20
0.0
 30
0.0
  0
VERTEX
  8
0
 10
-131.0
 20
536.0
  0
VERTEX
  8
0
 10
-131.0
 20
536.0
  0
VERTEX
  8
0
 10
-126.0
 20
536.0
  0
VERTEX
  8
0
 10
-126.0
 20
536.0
  0
SEQEND
  8
0
  0
POLYLINE
  8
0
 62
0
 70
1
 66
1
 10
0.0
 20
0.0
 30
0.0
  0
VERTEX
  8
0
 10
-131.0
 20
536.0
  0
VERTEX
  8
0
 10
-131.0
 20
540.5
  0
VERTEX
  8
0
 10
-131.0
 20
540.5
  0
VERTEX
  8
0
 10
-131.0
 20
536.0
  0
SEQEND
  8
0
  0
POLYLINE
  8
0
 62
0
 70
1
 66
1
 10
0.0
 20
0.0
 30
0.0
  0
VERTEX
  8
0
 10
-123.5
 20
540.5
  0
VERTEX
  8
0
 10
-123.5
 20
540.5
  0
VERTEX
  8
0
 10
-131.0
 20
540.5
  0
VERTEX
  8
0
 10
-131.0
 20
540.5
  0
SEQEND
  8
0
  0
POLYLINE
  8
0
 62
0
 70
1
 66
1
 10
0.0
 20
0.0
 30
0.0
  0
VERTEX
  8
0
 10
-123.5
 20
539.0
  0
VERTEX
  8
0
 10
-123.5
 20
539.0
  0
VERTEX
  8
0
 10
-123.5
 20
540.5
  0
VERTEX
  8
0
 10
-123.5
 20
540.5
  0
SEQEND
  8
0
  0
POLYLINE
  8
0
 62
0
 70
1
 66
1
 10
0.0
 20
0.0
 30
0.0
  0
VERTEX
  8
0
 10
-119.5
 20
539.0
  0
VERTEX
  8
0
 10
-119.5
 20
539.0
  0
VERTEX
  8
0
 10
-123.5
 20
539.0
  0
VERTEX
  8
0
 10
-123.5
 20
539.0
  0
SEQEND
  8
0
  0
POLYLINE
  8
0
 62
0
 70
1
 66
1
 10
0.0
 20
0.0
 30
0.0
  0
VERTEX
  8
0
 10
-119.5
 20
540.5
  0
VERTEX
  8
0
 10
-119.5
 20
539.0
  0
VERTEX
  8
0
 10
-119.5
 20
539.0
  0
VERTEX
  8
0
 10
-119.5
 20
540.5
  0
SEQEND
  8
0
  0
POLYLINE
  8
0
 62
0
 70
1
 66
1
 10
0.0
 20
0.0
 30
0.0
  0
VERTEX
  8
0
 10
-118.0
 20
540.5
  0
VERTEX
  8
0
 10
-119.5
 20
540.5
  0
VERTEX
  8
0
 10
-119.5
 20
540.5
  0
VERTEX
  8
0
 10
-118.0
 20
540.5
  0
SEQEND
  8
0
  0
POLYLINE
  8
0
 62
0
 70
1
 66
1
 10
0.0
 20
0.0
 30
0.0
  0
VERTEX
  8
0
 10
-118.0
 20
545.5
  0
VERTEX
  8
0
 10
-118.0
 20
545.5
  0
VERTEX
  8
0
 10
-118.0
 20
540.5
  0
VERTEX
  8
0
 10
-118.0
 20
540.5
  0
SEQEND
  8
0
  0
POLYLINE
  8
0
 62
0
 70
1
 66
1
 10
0.0
 20
0.0
 30
0.0
  0
VERTEX
  8
0
 10
-119.5
 20
545.5
  0
VERTEX
  8
0
 10
-118.0
 20
545.5
  0
VERTEX
  8
0
 10
-118.0
 20
545.5
  0
VERTEX
  8
0
 10
-119.5
 20
545.5
  0
SEQEND
  8
0
  0
POLYLINE
  8
0
 62
0
 70
1
 66
1
 10
0.0
 20
0.0
 30
0.0
  0
VERTEX
  8
0
 10
-119.5
 20
547.0
  0
VERTEX
  8
0
 10
-119.5
 20
547.0
  0
VERTEX
  8
0
 10
-119.5
 20
545.5
  0
VERTEX
  8
0
 10
-119.5
 20
545.5
  0
SEQEND
  8
0
  0
POLYLINE
  8
0
 62
0
 70
1
 66
1
 10
0.0
 20
0.0
 30
0.0
  0
VERTEX
  8
0
 10
-123.5
 20
547.0
  0
VERTEX
  8
0
 10
-123.5
 20
547.0
  0
VERTEX
  8
0
 10
-119.5
 20
547.0
  0
VERTEX
  8
0
 10
-119.5
 20
547.0
  0
SEQEND
  8
0
  0
POLYLINE
  8
0
 62
0
 70
1
 66
1
 10
0.0
 20
0.0
 30
0.0
  0
VERTEX
  8
0
 10
-123.5
 20
545.5
  0
VERTEX
  8
0
 10
-123.5
 20
547.0
  0
VERTEX
  8
0
 10
-123.5
 20
547.0
  0
VERTEX
  8
0
 10
-123.5
 20
545.5
  0
SEQEND
  8
0
  0
POLYLINE
  8
0
 62
0
 70
1
 66
1
 10
0.0
 20
0.0
 30
0.0
  0
VERTEX
  8
0
 10
-123.5
 20
545.5
  0
VERTEX
  8
0
 10
-123.5
 20
545.5
  0
VERTEX
  8
0
 10
-131.0
 20
545.5
  0
VERTEX
  8
0
 10
-131.0
 20
545.5
  0
SEQEND
  8
0
  0
POLYLINE
  8
0
 62
0
 70
1
 66
1
 10
0.0
 20
0.0
 30
0.0
  0
VERTEX
  8
0
 10
-131.0
 20
545.5
  0
VERTEX
  8
0
 10
-131.0
 20
550.0
  0
VERTEX
  8
0
 10
-131.0
 20
550.0
  0
VERTEX
  8
0
 10
-131.0
 20
545.5
  0
SEQEND
  8
0
  0
POLYLINE
  8
0
 62
0
 70
1
 66
1
 10
0.0
 20
0.0
 30
0.0
  0
VERTEX
  8
0
 10
-126.0
 20
550.0
  0
VERTEX
  8
0
 10
-126.0
 20
550.0
  0
VERTEX
  8
0
 10
-131.0
 20
550.0
  0
VERTEX
  8
0
 10
-131.0
 20
550.0
  0
SEQEND
  8
0
  0
POLYLINE
  8
0
 62
0
 70
1
 66
1
 10
0.0
 20
0.0
 30
0.0
  0
VERTEX
  8
0
 10
-5.0
 20
550.0
  0
VERTEX
  8
0
 10
-5.0
 20
550.0
  0
VERTEX
  8
0
 10
0.0
 20
550.0
  0
VERTEX
  8
0
 10
0.0
 20
550.0
  0
SEQEND
  8
0
  0
POLYLINE
  8
0
 62
0
 70
1
 66
1
 10
0.0
 20
0.0
 30
0.0
  0
VERTEX
  8
0
 10
0.0
 20
550.0
  0
VERTEX
  8
0
 10
0.0
 20
545.5
  0
VERTEX
  8
0
 10
0.0
 20
545.5
  0
VERTEX
  8
0
 10
0.0
 20
550.0
  0
SEQEND
  8
0
  0
POLYLINE
  8
0
 62
0
 70
1
 66
1
 10
0.0
 20
0.0
 30
0.0
  0
VERTEX
  8
0
 10
0.0
 20
545.5
  0
VERTEX
  8
0
 10
-7.5
 20
545.5
  0
VERTEX
  8
0
 10
-7.5
 20
545.5
  0
VERTEX
  8
0
 10
0.0
 20
545.5
  0
SEQEND
  8
0
  0
POLYLINE
  8
0
 62
0
 70
1
 66
1
 10
0.0
 20
0.0
 30
0.0
  0
VERTEX
  8
0
 10
-7.5
 20
547.0
  0
VERTEX
  8
0
 10
-7.5
 20
547.0
  0
VERTEX
  8
0
 10
-7.5
 20
545.5
  0
VERTEX
  8
0
 10
-7.5
 20
545.5
  0
SEQEND
  8
0
  0
POLYLINE
  8
0
 62
0
 70
1
 66
1
 10
0.0
 20
0.0
 30
0.0
  0
VERTEX
  8
0
 10
-11.5
 20
547.0
  0
VERTEX
  8
0
 10
-11.5
 20
547.0
  0
VERTEX
  8
0
 10
-7.5
 20
547.0
  0
VERTEX
  8
0
 10
-7.5
 20
547.0
  0
SEQEND
  8
0
  0
POLYLINE
  8
0
 62
0
 70
1
 66
1
 10
0.0
 20
0.0
 30
0.0
  0
VERTEX
  8
0
 10
-11.5
 20
545.5
  0
VERTEX
  8
0
 10
-11.5
 20
547.0
  0
VERTEX
  8
0
 10
-11.5
 20
547.0
  0
VERTEX
  8
0
 10
-11.5
 20
545.5
  0
SEQEND
  8
0
  0
POLYLINE
  8
0
 62
0
 70
1
 66
1
 10
0.0
 20
0.0
 30
0.0
  0
VERTEX
  8
0
 10
-11.5
 20
545.5
  0
VERTEX
  8
0
 10
-11.5
 20
545.5
  0
VERTEX
  8
0
 10
-13.0
 20
545.5
  0
VERTEX
  8
0
 10
-13.0
 20
545.5
  0
SEQEND
  8
0
  0
POLYLINE
  8
0
 62
0
 70
1
 66
1
 10
0.0
 20
0.0
 30
0.0
  0
VERTEX
  8
0
 10
-13.0
 20
545.5
  0
VERTEX
  8
0
 10
-13.0
 20
545.5
  0
VERTEX
  8
0
 10
-13.0
 20
540.5
  0
VERTEX
  8
0
 10
-13.0
 20
540.5
  0
SEQEND
  8
0
  0
POLYLINE
  8
0
 62
0
 70
1
 66
1
 10
0.0
 20
0.0
 30
0.0
  0
VERTEX
  8
0
 10
-11.5
 20
540.5
  0
VERTEX
  8
0
 10
-11.5
 20
540.5
  0
VERTEX
  8
0
 10
-13.0
 20
540.5
  0
VERTEX
  8
0
 10
-13.0
 20
540.5
  0
SEQEND
  8
0
  0
POLYLINE
  8
0
 62
0
 70
1
 66
1
 10
0.0
 20
0.0
 30
0.0
  0
VERTEX
  8
0
 10
-11.5
 20
539.0
  0
VERTEX
  8
0
 10
-11.5
 20
539.0
  0
VERTEX
  8
0
 10
-11.5
 20
540.5
  0
VERTEX
  8
0
 10
-11.5
 20
540.5
  0
SEQEND
  8
0
  0
POLYLINE
  8
0
 62
0
 70
1
 66
1
 10
0.0
 20
0.0
 30
0.0
  0
VERTEX
  8
0
 10
-7.5
 20
539.0
  0
VERTEX
  8
0
 10
-7.5
 20
539.0
  0
VERTEX
  8
0
 10
-11.5
 20
539.0
  0
VERTEX
  8
0
 10
-11.5
 20
539.0
  0
SEQEND
  8
0
  0
POLYLINE
  8
0
 62
0
 70
1
 66
1
 10
0.0
 20
0.0
 30
0.0
  0
VERTEX
  8
0
 10
-7.5
 20
540.5
  0
VERTEX
  8
0
 10
-7.5
 20
539.0
  0
VERTEX
  8
0
 10
-7.5
 20
539.0
  0
VERTEX
  8
0
 10
-7.5
 20
540.5
  0
SEQEND
  8
0
  0
POLYLINE
  8
0
 62
0
 70
1
 66
1
 10
0.0
 20
0.0
 30
0.0
  0
VERTEX
  8
0
 10
-7.5
 20
540.5
  0
VERTEX
  8
0
 10
0.0
 20
540.5
  0
VERTEX
  8
0
 10
0.0
 20
540.5
  0
VERTEX
  8
0
 10
-7.5
 20
540.5
  0
SEQEND
  8
0
  0
POLYLINE
  8
0
 62
0
 70
1
 66
1
 10
0.0
 20
0.0
 30
0.0
  0
VERTEX
  8
0
 10
0.0
 20
540.5
  0
VERTEX
  8
0
 10
0.0
 20
535.999999975
  0
VERTEX
  8
0
 10
0.0
 20
536.0
  0
VERTEX
  8
0
 10
0.0
 20
540.5
  0
SEQEND
  8
0
  0
POLYLINE
  8
0
 62
0
 70
1
 66
1
 10
0.0
 20
0.0
 30
0.0
  0
VERTEX
  8
0
 10
0.0
 20
536.0
  0
VERTEX
  8
0
 10
0.0
 20
535.999999975
  0
VERTEX
  8
0
 10
-5.0
 20
536.0
  0
VERTEX
  8
0
 10
-5.0
 20
536.0
  0
SEQEND
  8
0
  0
POLYLINE
  8
0
 62
0
 70
1
 66
1
 10
0.0
 20
0.0
 30
0.0
  0
VERTEX
  8
0
 10
-5.0
 20
536.0
  0
VERTEX
  8
0
 10
-5.0
 20
536.0
  0
VERTEX
  8
0
 10
-5.0
 20
436.0
  0
VERTEX
  8
0
 10
-5.0
 20
436.0
  0
SEQEND
  8
0
  0
POLYLINE
  8
0
 62
0
 70
1
 66
1
 10
0.0
 20
0.0
 30
0.0
  0
VERTEX
  8
0
 10
-5.0
 20
436.0
  0
VERTEX
  8
0
 10
-5.0
 20
436.0
  0
VERTEX
  8
0
 10
0.0
 20
436.0
  0
VERTEX
  8
0
 10
0.0
 20
436.0
  0
SEQEND
  8
0
  0
POLYLINE
  8
0
 62
0
 70
1
 66
1
 10
0.0
 20
0.0
 30
0.0
  0
VERTEX
  8
0
 10
0.0
 20
436.0
  0
VERTEX
  8
0
 10
0.0
 20
431.5
  0
VERTEX
  8
0
 10
0.0
 20
431.5
  0
VERTEX
  8
0
 10
0.0
 20
436.0
  0
SEQEND
  8
0
  0
POLYLINE
  8
0
 62
0
 70
1
 66
1
 10
0.0
 20
0.0
 30
0.0
  0
VERTEX
  8
0
 10
0.0
 20
431.5
  0
VERTEX
  8
0
 10
-7.5
 20
431.5
  0
VERTEX
  8
0
 10
-7.5
 20
431.5
  0
VERTEX
  8
0
 10
0.0
 20
431.5
  0
SEQEND
  8
0
  0
POLYLINE
  8
0
 62
0
 70
1
 66
1
 10
0.0
 20
0.0
 30
0.0
  0
VERTEX
  8
0
 10
-7.5
 20
433.0
  0
VERTEX
  8
0
 10
-7.5
 20
433.0
  0
VERTEX
  8
0
 10
-7.5
 20
431.5
  0
VERTEX
  8
0
 10
-7.5
 20
431.5
  0
SEQEND
  8
0
  0
POLYLINE
  8
0
 62
0
 70
1
 66
1
 10
0.0
 20
0.0
 30
0.0
  0
VERTEX
  8
0
 10
-11.5
 20
433.0
  0
VERTEX
  8
0
 10
-11.5
 20
433.0
  0
VERTEX
  8
0
 10
-7.5
 20
433.0
  0
VERTEX
  8
0
 10
-7.5
 20
433.0
  0
SEQEND
  8
0
  0
POLYLINE
  8
0
 62
0
 70
1
 66
1
 10
0.0
 20
0.0
 30
0.0
  0
VERTEX
  8
0
 10
-11.5
 20
431.5
  0
VERTEX
  8
0
 10
-11.5
 20
433.0
  0
VERTEX
  8
0
 10
-11.5
 20
433.0
  0
VERTEX
  8
0
 10
-11.5
 20
431.5
  0
SEQEND
  8
0
  0
POLYLINE
  8
0
 62
0
 70
1
 66
1
 10
0.0
 20
0.0
 30
0.0
  0
VERTEX
  8
0
 10
-11.5
 20
431.5
  0
VERTEX
  8
0
 10
-11.5
 20
431.5
  0
VERTEX
  8
0
 10
-13.0
 20
431.5
  0
VERTEX
  8
0
 10
-13.0
 20
431.5
  0
SEQEND
  8
0
  0
POLYLINE
  8
0
 62
0
 70
1
 66
1
 10
0.0
 20
0.0
 30
0.0
  0
VERTEX
  8
0
 10
-13.0
 20
431.5
  0
VERTEX
  8
0
 10
-13.0
 20
431.5
  0
VERTEX
  8
0
 10
-13.0
 20
426.5
  0
VERTEX
  8
0
 10
-13.0
 20
426.5
  0
SEQEND
  8
0
  0
POLYLINE
  8
0
 62
0
 70
1
 66
1
 10
0.0
 20
0.0
 30
0.0
  0
VERTEX
  8
0
 10
-11.5
 20
426.5
  0
VERTEX
  8
0
 10
-11.5
 20
426.5
  0
VERTEX
  8
0
 10
-13.0
 20
426.5
  0
VERTEX
  8
0
 10
-13.0
 20
426.5
  0
SEQEND
  8
0
  0
POLYLINE
  8
0
 62
0
 70
1
 66
1
 10
0.0
 20
0.0
 30
0.0
  0
VERTEX
  8
0
 10
-11.5
 20
425.0
  0
VERTEX
  8
0
 10
-11.5
 20
425.0
  0
VERTEX
  8
0
 10
-11.5
 20
426.5
  0
VERTEX
  8
0
 10
-11.5
 20
426.5
  0
SEQEND
  8
0
  0
POLYLINE
  8
0
 62
0
 70
1
 66
1
 10
0.0
 20
0.0
 30
0.0
  0
VERTEX
  8
0
 10
-7.5
 20
425.0
  0
VERTEX
  8
0
 10
-7.5
 20
425.0
  0
VERTEX
  8
0
 10
-11.5
 20
425.0
  0
VERTEX
  8
0
 10
-11.5
 20
425.0
  0
SEQEND
  8
0
  0
POLYLINE
  8
0
 62
0
 70
1
 66
1
 10
0.0
 20
0.0
 30
0.0
  0
VERTEX
  8
0
 10
-7.5
 20
426.5
  0
VERTEX
  8
0
 10
-7.5
 20
425.0
  0
VERTEX
  8
0
 10
-7.5
 20
425.0
  0
VERTEX
  8
0
 10
-7.5
 20
426.5
  0
SEQEND
  8
0
  0
POLYLINE
  8
0
 62
0
 70
1
 66
1
 10
0.0
 20
0.0
 30
0.0
  0
VERTEX
  8
0
 10
-7.5
 20
426.5
  0
VERTEX
  8
0
 10
0.0
 20
426.5
  0
VERTEX
  8
0
 10
0.0
 20
426.5
  0
VERTEX
  8
0
 10
-7.5
 20
426.5
  0
SEQEND
  8
0
  0
POLYLINE
  8
0
 62
0
 70
1
 66
1
 10
0.0
 20
0.0
 30
0.0
  0
VERTEX
  8
0
 10
0.0
 20
426.5
  0
VERTEX
  8
0
 10
0.0
 20
422.0
  0
VERTEX
  8
0
 10
0.0
 20
422.0
  0
VERTEX
  8
0
 10
0.0
 20
426.5
  0
SEQEND
  8
0
  0
POLYLINE
  8
0
 62
0
 70
1
 66
1
 10
0.0
 20
0.0
 30
0.0
  0
VERTEX
  8
0
 10
0.0
 20
422.0
  0
VERTEX
  8
0
 10
0.0
 20
422.0
  0
VERTEX
  8
0
 10
-5.0
 20
422.0
  0
VERTEX
  8
0
 10
-5.0
 20
422.0
  0
SEQEND
  8
0
  0
POLYLINE
  8
0
 62
0
 70
1
 66
1
 10
0.0
 20
0.0
 30
0.0
  0
VERTEX
  8
0
 10
-5.0
 20
422.0
  0
VERTEX
  8
0
 10
-5.0
 20
422.0
  0
VERTEX
  8
0
 10
-5.0
 20
322.0
  0
VERTEX
  8
0
 10
-5.0
 20
322.0
  0
SEQEND
  8
0
  0
POLYLINE
  8
0
 62
0
 70
1
 66
1
 10
0.0
 20
0.0
 30
0.0
  0
VERTEX
  8
0
 10
-5.0
 20
322.0
  0
VERTEX
  8
0
 10
-5.0
 20
322.0
  0
VERTEX
  8
0
 10
0.0
 20
322.0
  0
VERTEX
  8
0
 10
0.0
 20
322.0
  0
SEQEND
  8
0
  0
POLYLINE
  8
0
 62
0
 70
1
 66
1
 10
0.0
 20
0.0
 30
0.0
  0
VERTEX
  8
0
 10
0.0
 20
322.0
  0
VERTEX
  8
0
 10
0.0
 20
317.5
  0
VERTEX
  8
0
 10
0.0
 20
317.5
  0
VERTEX
  8
0
 10
0.0
 20
322.0
  0
SEQEND
  8
0
  0
POLYLINE
  8
0
 62
0
 70
1
 66
1
 10
0.0
 20
0.0
 30
0.0
  0
VERTEX
  8
0
 10
0.0
 20
317.5
  0
VERTEX
  8
0
 10
-7.5
 20
317.5
  0
VERTEX
  8
0
 10
-7.5
 20
317.5
  0
VERTEX
  8
0
 10
0.0
 20
317.5
  0
SEQEND
  8
0
  0
POLYLINE
  8
0
 62
0
 70
1
 66
1
 10
0.0
 20
0.0
 30
0.0
  0
VERTEX
  8
0
 10
-7.5
 20
319.0
  0
VERTEX
  8
0
 10
-7.5
 20
319.0
  0
VERTEX
  8
0
 10
-7.5
 20
317.5
  0
VERTEX
  8
0
 10
-7.5
 20
317.5
  0
SEQEND
  8
0
  0
POLYLINE
  8
0
 62
0
 70
1
 66
1
 10
0.0
 20
0.0
 30
0.0
  0
VERTEX
  8
0
 10
-11.5
 20
319.0
  0
VERTEX
  8
0
 10
-11.5
 20
319.0
  0
VERTEX
  8
0
 10
-7.5
 20
319.0
  0
VERTEX
  8
0
 10
-7.5
 20
319.0
  0
SEQEND
  8
0
  0
POLYLINE
  8
0
 62
0
 70
1
 66
1
 10
0.0
 20
0.0
 30
0.0
  0
VERTEX
  8
0
 10
-11.5
 20
317.5
  0
VERTEX
  8
0
 10
-11.5
 20
319.0
  0
VERTEX
  8
0
 10
-11.5
 20
319.0
  0
VERTEX
  8
0
 10
-11.5
 20
317.5
  0
SEQEND
  8
0
  0
POLYLINE
  8
0
 62
0
 70
1
 66
1
 10
0.0
 20
0.0
 30
0.0
  0
VERTEX
  8
0
 10
-11.5
 20
317.5
  0
VERTEX
  8
0
 10
-11.5
 20
317.5
  0
VERTEX
  8
0
 10
-13.0
 20
317.5
  0
VERTEX
  8
0
 10
-13.0
 20
317.5
  0
SEQEND
  8
0
  0
POLYLINE
  8
0
 62
0
 70
1
 66
1
 10
0.0
 20
0.0
 30
0.0
  0
VERTEX
  8
0
 10
-13.0
 20
317.5
  0
VERTEX
  8
0
 10
-13.0
 20
317.5
  0
VERTEX
  8
0
 10
-13.0
 20
312.5
  0
VERTEX
  8
0
 10
-13.0
 20
312.5
  0
SEQEND
  8
0
  0
POLYLINE
  8
0
 62
0
 70
1
 66
1
 10
0.0
 20
0.0
 30
0.0
  0
VERTEX
  8
0
 10
-11.5
 20
312.5
  0
VERTEX
  8
0
 10
-11.5
 20
312.5
  0
VERTEX
  8
0
 10
-13.0
 20
312.5
  0
VERTEX
  8
0
 10
-13.0
 20
312.5
  0
SEQEND
  8
0
  0
POLYLINE
  8
0
 62
0
 70
1
 66
1
 10
0.0
 20
0.0
 30
0.0
  0
VERTEX
  8
0
 10
-11.5
 20
311.0
  0
VERTEX
  8
0
 10
-11.5
 20
311.0
  0
VERTEX
  8
0
 10
-11.5
 20
312.5
  0
VERTEX
  8
0
 10
-11.5
 20
312.5
  0
SEQEND
  8
0
  0
POLYLINE
  8
0
 62
0
 70
1
 66
1
 10
0.0
 20
0.0
 30
0.0
  0
VERTEX
  8
0
 10
-7.5
 20
311.0
  0
VERTEX
  8
0
 10
-7.5
 20
311.0
  0
VERTEX
  8
0
 10
-11.5
 20
311.0
  0
VERTEX
  8
0
 10
-11.5
 20
311.0
  0
SEQEND
  8
0
  0
POLYLINE
  8
0
 62
0
 70
1
 66
1
 10
0.0
 20
0.0
 30
0.0
  0
VERTEX
  8
0
 10
-7.5
 20
312.5
  0
VERTEX
  8
0
 10
-7.5
 20
311.0
  0
VERTEX
  8
0
 10
-7.5
 20
311.0
  0
VERTEX
  8
0
 10
-7.5
 20
312.5
  0
SEQEND
  8
0
  0
POLYLINE
  8
0
 62
0
 70
1
 66
1
 10
0.0
 20
0.0
 30
0.0
  0
VERTEX
  8
0
 10
-7.5
 20
312.5
  0
VERTEX
  8
0
 10
0.0
 20
312.5
  0
VERTEX
  8
0
 10
0.0
 20
312.5
  0
VERTEX
  8
0
 10
-7.5
 20
312.5
  0
SEQEND
  8
0
  0
POLYLINE
  8
0
 62
0
 70
1
 66
1
 10
0.0
 20
0.0
 30
0.0
  0
VERTEX
  8
0
 10
0.0
 20
312.5
  0
VERTEX
  8
0
 10
0.0
 20
308.0
  0
VERTEX
  8
0
 10
0.0
 20
308.0
  0
VERTEX
  8
0
 10
0.0
 20
312.5
  0
SEQEND
  8
0
  0
POLYLINE
  8
0
 62
0
 70
1
 66
1
 10
0.0
 20
0.0
 30
0.0
  0
VERTEX
  8
0
 10
0.0
 20
308.0
  0
VERTEX
  8
0
 10
0.0
 20
308.0
  0
VERTEX
  8
0
 10
-5.0
 20
308.0
  0
VERTEX
  8
0
 10
-5.0
 20
308.0
  0
SEQEND
  8
0
  0
POLYLINE
  8
0
 62
0
 70
1
 66
1
 10
0.0
 20
0.0
 30
0.0
  0
VERTEX
  8
0
 10
-5.0
 20
308.0
  0
VERTEX
  8
0
 10
-5.0
 20
308.0
  0
VERTEX
  8
0
 10
-5.0
 20
208.0
  0
VERTEX
  8
0
 10
-5.0
 20
208.0
  0
SEQEND
  8
0
  0
POLYLINE
  8
0
 62
0
 70
1
 66
1
 10
0.0
 20
0.0
 30
0.0
  0
VERTEX
  8
0
 10
-5.0
 20
208.0
  0
VERTEX
  8
0
 10
-5.0
 20
208.0
  0
VERTEX
  8
0
 10
0.0
 20
208.0
  0
VERTEX
  8
0
 10
0.0
 20
208.0
  0
SEQEND
  8
0
  0
POLYLINE
  8
0
 62
0
 70
1
 66
1
 10
0.0
 20
0.0
 30
0.0
  0
VERTEX
  8
0
 10
0.0
 20
208.0
  0
VERTEX
  8
0
 10
0.0
 20
203.5
  0
VERTEX
  8
0
 10
0.0
 20
203.5
  0
VERTEX
  8
0
 10
0.0
 20
208.0
  0
SEQEND
  8
0
  0
POLYLINE
  8
0
 62
0
 70
1
 66
1
 10
0.0
 20
0.0
 30
0.0
  0
VERTEX
  8
0
 10
0.0
 20
203.5
  0
VERTEX
  8
0
 10
-7.5
 20
203.5
  0
VERTEX
  8
0
 10
-7.5
 20
203.5
  0
VERTEX
  8
0
 10
0.0
 20
203.5
  0
SEQEND
  8
0
  0
POLYLINE
  8
0
 62
0
 70
1
 66
1
 10
0.0
 20
0.0
 30
0.0
  0
VERTEX
  8
0
 10
-7.5
 20
205.0
  0
VERTEX
  8
0
 10
-7.5
 20
205.0
  0
VERTEX
  8
0
 10
-7.5
 20
203.5
  0
VERTEX
  8
0
 10
-7.5
 20
203.5
  0
SEQEND
  8
0
  0
POLYLINE
  8
0
 62
0
 70
1
 66
1
 10
0.0
 20
0.0
 30
0.0
  0
VERTEX
  8
0
 10
-11.5
 20
205.0
  0
VERTEX
  8
0
 10
-11.5
 20
205.0
  0
VERTEX
  8
0
 10
-7.5
 20
205.0
  0
VERTEX
  8
0
 10
-7.5
 20
205.0
  0
SEQEND
  8
0
  0
POLYLINE
  8
0
 62
0
 70
1
 66
1
 10
0.0
 20
0.0
 30
0.0
  0
VERTEX
  8
0
 10
-11.5
 20
203.5
  0
VERTEX
  8
0
 10
-11.5
 20
205.0
  0
VERTEX
  8
0
 10
-11.5
 20
205.0
  0
VERTEX
  8
0
 10
-11.5
 20
203.5
  0
SEQEND
  8
0
  0
POLYLINE
  8
0
 62
0
 70
1
 66
1
 10
0.0
 20
0.0
 30
0.0
  0
VERTEX
  8
0
 10
-11.5
 20
203.5
  0
VERTEX
  8
0
 10
-11.5
 20
203.5
  0
VERTEX
  8
0
 10
-13.0
 20
203.5
  0
VERTEX
  8
0
 10
-13.0
 20
203.5
  0
SEQEND
  8
0
  0
POLYLINE
  8
0
 62
0
 70
1
 66
1
 10
0.0
 20
0.0
 30
0.0
  0
VERTEX
  8
0
 10
-13.0
 20
203.5
  0
VERTEX
  8
0
 10
-13.0
 20
203.5
  0
VERTEX
  8
0
 10
-13.0
 20
198.5
  0
VERTEX
  8
0
 10
-13.0
 20
198.5
  0
SEQEND
  8
0
  0
POLYLINE
  8
0
 62
0
 70
1
 66
1
 10
0.0
 20
0.0
 30
0.0
  0
VERTEX
  8
0
 10
-11.5
 20
198.5
  0
VERTEX
  8
0
 10
-11.5
 20
198.5
  0
VERTEX
  8
0
 10
-13.0
 20
198.5
  0
VERTEX
  8
0
 10
-13.0
 20
198.5
  0
SEQEND
  8
0
  0
POLYLINE
  8
0
 62
0
 70
1
 66
1
 10
0.0
 20
0.0
 30
0.0
  0
VERTEX
  8
0
 10
-11.5
 20
197.0
  0
VERTEX
  8
0
 10
-11.5
 20
197.0
  0
VERTEX
  8
0
 10
-11.5
 20
198.5
  0
VERTEX
  8
0
 10
-11.5
 20
198.5
  0
SEQEND
  8
0
  0
POLYLINE
  8
0
 62
0
 70
1
 66
1
 10
0.0
 20
0.0
 30
0.0
  0
VERTEX
  8
0
 10
-7.5
 20
197.0
  0
VERTEX
  8
0
 10
-7.5
 20
197.0
  0
VERTEX
  8
0
 10
-11.5
 20
197.0
  0
VERTEX
  8
0
 10
-11.5
 20
197.0
  0
SEQEND
  8
0
  0
POLYLINE
  8
0
 62
0
 70
1
 66
1
 10
0.0
 20
0.0
 30
0.0
  0
VERTEX
  8
0
 10
-7.5
 20
198.5
  0
VERTEX
  8
0
 10
-7.5
 20
197.0
  0
VERTEX
  8
0
 10
-7.5
 20
197.0
  0
VERTEX
  8
0
 10
-7.5
 20
198.5
  0
SEQEND
  8
0
  0
POLYLINE
  8
0
 62
0
 70
1
 66
1
 10
0.0
 20
0.0
 30
0.0
  0
VERTEX
  8
0
 10
-7.5
 20
198.5
  0
VERTEX
  8
0
 10
0.0
 20
198.5
  0
VERTEX
  8
0
 10
0.0
 20
198.5
  0
VERTEX
  8
0
 10
-7.5
 20
198.5
  0
SEQEND
  8
0
  0
POLYLINE
  8
0
 62
0
 70
1
 66
1
 10
0.0
 20
0.0
 30
0.0
  0
VERTEX
  8
0
 10
0.0
 20
198.5
  0
VERTEX
  8
0
 10
0.0
 20
194.0
  0
VERTEX
  8
0
 10
0.0
 20
194.0
  0
VERTEX
  8
0
 10
0.0
 20
198.5
  0
SEQEND
  8
0
  0
POLYLINE
  8
0
 62
0
 70
1
 66
1
 10
0.0
 20
0.0
 30
0.0
  0
VERTEX
  8
0
 10
0.0
 20
194.0
  0
VERTEX
  8
0
 10
0.0
 20
194.0
  0
VERTEX
  8
0
 10
-5.0
 20
194.0
  0
VERTEX
  8
0
 10
-5.0
 20
194.0
  0
SEQEND
  8
0
  0
POLYLINE
  8
0
 62
0
 70
1
 66
1
 10
0.0
 20
0.0
 30
0.0
  0
VERTEX
  8
0
 10
-5.0
 20
194.0
  0
VERTEX
  8
0
 10
-5.0
 20
194.0
  0
VERTEX
  8
0
 10
-5.0
 20
94.0
  0
VERTEX
  8
0
 10
-5.0
 20
94.0
  0
SEQEND
  8
0
  0
POLYLINE
  8
0
 62
0
 70
1
 66
1
 10
0.0
 20
0.0
 30
0.0
  0
VERTEX
  8
0
 10
-5.0
 20
94.0
  0
VERTEX
  8
0
 10
-5.0
 20
94.0
  0
VERTEX
  8
0
 10
0.0
 20
94.0
  0
VERTEX
  8
0
 10
0.0
 20
94.0
  0
SEQEND
  8
0
  0
POLYLINE
  8
0
 62
0
 70
1
 66
1
 10
0.0
 20
0.0
 30
0.0
  0
VERTEX
  8
0
 10
0.0
 20
94.0
  0
VERTEX
  8
0
 10
0.0
 20
89.5
  0
VERTEX
  8
0
 10
0.0
 20
89.5
  0
VERTEX
  8
0
 10
0.0
 20
94.0
  0
SEQEND
  8
0
  0
POLYLINE
  8
0
 62
0
 70
1
 66
1
 10
0.0
 20
0.0
 30
0.0
  0
VERTEX
  8
0
 10
0.0
 20
89.5
  0
VERTEX
  8
0
 10
-7.5
 20
89.5
  0
VERTEX
  8
0
 10
-7.5
 20
89.5
  0
VERTEX
  8
0
 10
0.0
 20
89.5
  0
SEQEND
  8
0
  0
POLYLINE
  8
0
 62
0
 70
1
 66
1
 10
0.0
 20
0.0
 30
0.0
  0
VERTEX
  8
0
 10
-7.5
 20
91.0
  0
VERTEX
  8
0
 10
-7.5
 20
91.0
  0
VERTEX
  8
0
 10
-7.5
 20
89.5
  0
VERTEX
  8
0
 10
-7.5
 20
89.5
  0
SEQEND
  8
0
  0
POLYLINE
  8
0
 62
0
 70
1
 66
1
 10
0.0
 20
0.0
 30
0.0
  0
VERTEX
  8
0
 10
-11.5
 20
91.0
  0
VERTEX
  8
0
 10
-11.5
 20
91.0
  0
VERTEX
  8
0
 10
-7.5
 20
91.0
  0
VERTEX
  8
0
 10
-7.5
 20
91.0
  0
SEQEND
  8
0
  0
ENDSEC
  0
EOF
