solid OpenSCAD_Model
  facet normal 0 0 -1
    outer loop
      vertex -2.5 0 0
      vertex -1.76777 1.76777 0
      vertex -1.76777 -1.76777 0
    endloop
  endfacet
  facet normal 0 0 -1
    outer loop
      vertex -1.76777 -1.76777 0
      vertex -1.76777 1.76777 0
      vertex 0 2.5 0
    endloop
  endfacet
  facet normal 0 0 -1
    outer loop
      vertex -1.76777 -1.76777 0
      vertex 0 2.5 0
      vertex 1.76777 1.76777 0
    endloop
  endfacet
  facet normal 0 0 -1
    outer loop
      vertex -1.76777 -1.76777 0
      vertex 1.76777 1.76777 0
      vertex 2.5 0 0
    endloop
  endfacet
  facet normal 0 0 -1
    outer loop
      vertex -1.76777 -1.76777 0
      vertex 2.5 0 0
      vertex 1.76777 -1.76777 0
    endloop
  endfacet
  facet normal 0 0 -1
    outer loop
      vertex -1.76777 -1.76777 0
      vertex 1.76777 -1.76777 0
      vertex 0 -2.5 0
    endloop
  endfacet
  facet normal -0.92388 0.382683 0
    outer loop
      vertex -2.5 0 0
      vertex -2.5 0 1.4
      vertex -1.76777 1.76777 0
    endloop
  endfacet
  facet normal -0.92388 0.382683 0
    outer loop
      vertex -1.76777 1.76777 0
      vertex -2.5 0 1.4
      vertex -1.76777 1.76777 1.4
    endloop
  endfacet
  facet normal -0.92388 -0.382683 0
    outer loop
      vertex -2.5 0 0
      vertex -1.76777 -1.76777 0
      vertex -2.5 0 1.4
    endloop
  endfacet
  facet normal -0.92388 -0.382683 0
    outer loop
      vertex -2.5 0 1.4
      vertex -1.76777 -1.76777 0
      vertex -1.76777 -1.76777 1.4
    endloop
  endfacet
  facet normal -0.382683 -0.92388 0
    outer loop
      vertex -1.76777 -1.76777 1.4
      vertex -1.76777 -1.76777 0
      vertex 0 -2.5 0
    endloop
  endfacet
  facet normal -0.382683 -0.92388 0
    outer loop
      vertex 0 -2.5 1.4
      vertex -1.76777 -1.76777 1.4
      vertex 0 -2.5 0
    endloop
  endfacet
  facet normal 0.382683 -0.92388 0
    outer loop
      vertex 0 -2.5 1.4
      vertex 0 -2.5 0
      vertex 1.76777 -1.76777 0
    endloop
  endfacet
  facet normal 0.382683 -0.92388 0
    outer loop
      vertex 1.76777 -1.76777 1.4
      vertex 0 -2.5 1.4
      vertex 1.76777 -1.76777 0
    endloop
  endfacet
  facet normal 0.92388 -0.382683 0
    outer loop
      vertex 1.76777 -1.76777 1.4
      vertex 1.76777 -1.76777 0
      vertex 2.5 0 0
    endloop
  endfacet
  facet normal 0.92388 -0.382683 0
    outer loop
      vertex 2.5 0 1.4
      vertex 1.76777 -1.76777 1.4
      vertex 2.5 0 0
    endloop
  endfacet
  facet normal 0.92388 0.382683 0
    outer loop
      vertex 2.5 0 0
      vertex 1.76777 1.76777 0
      vertex 1.76777 1.76777 1.4
    endloop
  endfacet
  facet normal 0.92388 0.382683 0
    outer loop
      vertex 2.5 0 1.4
      vertex 2.5 0 0
      vertex 1.76777 1.76777 1.4
    endloop
  endfacet
  facet normal 0.382683 0.92388 0
    outer loop
      vertex 0 2.5 0
      vertex 0 2.5 1.4
      vertex 1.76777 1.76777 0
    endloop
  endfacet
  facet normal 0.382683 0.92388 0
    outer loop
      vertex 1.76777 1.76777 0
      vertex 0 2.5 1.4
      vertex 1.76777 1.76777 1.4
    endloop
  endfacet
  facet normal -0.382683 0.92388 0
    outer loop
      vertex -1.76777 1.76777 0
      vertex -1.76777 1.76777 1.4
      vertex 0 2.5 0
    endloop
  endfacet
  facet normal -0.382683 0.92388 0
    outer loop
      vertex 0 2.5 0
      vertex -1.76777 1.76777 1.4
      vertex 0 2.5 1.4
    endloop
  endfacet
  facet normal 0 0 1
    outer loop
      vertex -1.76777 1.76777 1.4
      vertex -2.5 0 1.4
      vertex -1.76777 -1.76777 1.4
    endloop
  endfacet
  facet normal 0 0 1
    outer loop
      vertex -0.6998 -0.508434 1.4
      vertex -1.76777 1.76777 1.4
      vertex 0 -2.5 1.4
    endloop
  endfacet
  facet normal 0 0 1
    outer loop
      vertex 0 -2.5 1.4
      vertex -1.76777 1.76777 1.4
      vertex -1.76777 -1.76777 1.4
    endloop
  endfacet
  facet normal 0 0 1
    outer loop
      vertex 1.76777 1.76777 1.4
      vertex -1.76777 1.76777 1.4
      vertex 2.5 0 1.4
    endloop
  endfacet
  facet normal 0 0 1
    outer loop
      vertex 0 2.5 1.4
      vertex -1.76777 1.76777 1.4
      vertex 1.76777 1.76777 1.4
    endloop
  endfacet
  facet normal 0 0 1
    outer loop
      vertex 1.76777 -1.76777 1.4
      vertex -0.6998 -0.508434 1.4
      vertex 0 -2.5 1.4
    endloop
  endfacet
  facet normal 0 0 1
    outer loop
      vertex -0.6998 0.508434 1.4
      vertex -1.76777 1.76777 1.4
      vertex -0.6998 -0.508434 1.4
    endloop
  endfacet
  facet normal 0 0 1
    outer loop
      vertex 2.5 0 1.4
      vertex -1.76777 1.76777 1.4
      vertex 0.2673 0.822664 1.4
    endloop
  endfacet
  facet normal 0 0 1
    outer loop
      vertex 2.5 0 1.4
      vertex 0.865 0 1.4
      vertex 1.76777 -1.76777 1.4
    endloop
  endfacet
  facet normal 0 0 1
    outer loop
      vertex 2.5 0 1.4
      vertex 0.2673 0.822664 1.4
      vertex 0.865 0 1.4
    endloop
  endfacet
  facet normal 0 0 1
    outer loop
      vertex 1.76777 -1.76777 1.4
      vertex 0.2673 -0.822664 1.4
      vertex -0.6998 -0.508434 1.4
    endloop
  endfacet
  facet normal 0 0 1
    outer loop
      vertex -0.6998 0.508434 1.4
      vertex 0.2673 0.822664 1.4
      vertex -1.76777 1.76777 1.4
    endloop
  endfacet
  facet normal 0 0 1
    outer loop
      vertex 0.865 0 1.4
      vertex 0.2673 -0.822664 1.4
      vertex 1.76777 -1.76777 1.4
    endloop
  endfacet
  facet normal -1 0 0
    outer loop
      vertex -0.6998 -0.508434 1.4
      vertex -0.6998 -0.508434 13
      vertex -0.6998 0.508434 1.4
    endloop
  endfacet
  facet normal -1 0 0
    outer loop
      vertex -0.6998 0.508434 1.4
      vertex -0.6998 -0.508434 13
      vertex -0.6998 0.508434 13
    endloop
  endfacet
  facet normal -0.309017 -0.951056 0
    outer loop
      vertex -0.6998 -0.508434 13
      vertex -0.6998 -0.508434 1.4
      vertex 0.2673 -0.822664 1.4
    endloop
  endfacet
  facet normal -0.309017 -0.951056 0
    outer loop
      vertex 0.2673 -0.822664 13
      vertex -0.6998 -0.508434 13
      vertex 0.2673 -0.822664 1.4
    endloop
  endfacet
  facet normal 0.809017 -0.587785 0
    outer loop
      vertex 0.2673 -0.822664 13
      vertex 0.2673 -0.822664 1.4
      vertex 0.865 0 1.4
    endloop
  endfacet
  facet normal 0.809017 -0.587785 0
    outer loop
      vertex 0.865 0 13
      vertex 0.2673 -0.822664 13
      vertex 0.865 0 1.4
    endloop
  endfacet
  facet normal 0.809017 0.587785 0
    outer loop
      vertex 0.865 0 1.4
      vertex 0.2673 0.822664 1.4
      vertex 0.2673 0.822664 13
    endloop
  endfacet
  facet normal 0.809017 0.587785 0
    outer loop
      vertex 0.865 0 13
      vertex 0.865 0 1.4
      vertex 0.2673 0.822664 13
    endloop
  endfacet
  facet normal -0.309017 0.951056 0
    outer loop
      vertex -0.6998 0.508434 1.4
      vertex -0.6998 0.508434 13
      vertex 0.2673 0.822664 1.4
    endloop
  endfacet
  facet normal -0.309017 0.951056 0
    outer loop
      vertex 0.2673 0.822664 1.4
      vertex -0.6998 0.508434 13
      vertex 0.2673 0.822664 13
    endloop
  endfacet
  facet normal 0 0 1
    outer loop
      vertex -0.6998 0.508434 13
      vertex -0.6998 -0.508434 13
      vertex 0.2673 -0.822664 13
    endloop
  endfacet
  facet normal 0 0 1
    outer loop
      vertex 0.2673 0.822664 13
      vertex -0.6998 0.508434 13
      vertex 0.865 0 13
    endloop
  endfacet
  facet normal 0 0 1
    outer loop
      vertex 0.865 0 13
      vertex -0.6998 0.508434 13
      vertex 0.2673 -0.822664 13
    endloop
  endfacet
endsolid OpenSCAD_Model
