solid OpenSCAD_Model
  facet normal 0 0 -1
    outer loop
      vertex -3.15 0 0
      vertex -2.5484 1.85152 0
      vertex -2.5484 -1.85152 0
    endloop
  endfacet
  facet normal 0 0 -1
    outer loop
      vertex -2.5484 -1.85152 0
      vertex -2.5484 1.85152 0
      vertex -0.973404 2.99583 0
    endloop
  endfacet
  facet normal 0 0 -1
    outer loop
      vertex -1.13262 0.822899 0
      vertex -0.973404 2.99583 0
      vertex 0.973404 2.99583 0
    endloop
  endfacet
  facet normal 0 0 -1
    outer loop
      vertex 0.432624 1.33148 0
      vertex 0.973404 2.99583 0
      vertex 2.5484 1.85152 0
    endloop
  endfacet
  facet normal 0 0 -1
    outer loop
      vertex 1.4 0 0
      vertex 2.5484 1.85152 0
      vertex 3.15 0 0
    endloop
  endfacet
  facet normal 0 0 -1
    outer loop
      vertex 0.432624 -1.33148 0
      vertex 3.15 0 0
      vertex 2.5484 -1.85152 0
    endloop
  endfacet
  facet normal 0 0 -1
    outer loop
      vertex -2.5484 -1.85152 0
      vertex 2.5484 -1.85152 0
      vertex 0.973404 -2.99583 0
    endloop
  endfacet
  facet normal 0 0 -1
    outer loop
      vertex -2.5484 -1.85152 0
      vertex 0.973404 -2.99583 0
      vertex -0.973404 -2.99583 0
    endloop
  endfacet
  facet normal 0 0 -1
    outer loop
      vertex -2.5484 -1.85152 0
      vertex -0.973404 2.99583 0
      vertex -1.13262 0.822899 0
    endloop
  endfacet
  facet normal 0 0 -1
    outer loop
      vertex -1.13262 -0.822899 0
      vertex -2.5484 -1.85152 0
      vertex -1.13262 0.822899 0
    endloop
  endfacet
  facet normal 0 0 -1
    outer loop
      vertex 1.4 0 0
      vertex 3.15 0 0
      vertex 0.432624 -1.33148 0
    endloop
  endfacet
  facet normal 0 0 -1
    outer loop
      vertex -2.5484 -1.85152 0
      vertex 0.432624 -1.33148 0
      vertex 2.5484 -1.85152 0
    endloop
  endfacet
  facet normal 0 0 -1
    outer loop
      vertex 0.432624 1.33148 0
      vertex 2.5484 1.85152 0
      vertex 1.4 0 0
    endloop
  endfacet
  facet normal 0 0 -1
    outer loop
      vertex -1.13262 0.822899 0
      vertex 0.973404 2.99583 0
      vertex 0.432624 1.33148 0
    endloop
  endfacet
  facet normal 0 0 -1
    outer loop
      vertex 0.432624 -1.33148 0
      vertex -2.5484 -1.85152 0
      vertex -1.13262 -0.822899 0
    endloop
  endfacet
  facet normal -0.951057 0.309017 0
    outer loop
      vertex -3.15 0 0
      vertex -3.15 0 1.3
      vertex -2.5484 1.85152 0
    endloop
  endfacet
  facet normal -0.951057 0.309017 0
    outer loop
      vertex -2.5484 1.85152 0
      vertex -3.15 0 1.3
      vertex -2.5484 1.85152 1.3
    endloop
  endfacet
  facet normal -0.951057 -0.309017 0
    outer loop
      vertex -3.15 0 0
      vertex -2.5484 -1.85152 0
      vertex -3.15 0 1.3
    endloop
  endfacet
  facet normal -0.951057 -0.309017 0
    outer loop
      vertex -3.15 0 1.3
      vertex -2.5484 -1.85152 0
      vertex -2.5484 -1.85152 1.3
    endloop
  endfacet
  facet normal -0.587785 -0.809017 0
    outer loop
      vertex -2.5484 -1.85152 1.3
      vertex -2.5484 -1.85152 0
      vertex -0.973404 -2.99583 0
    endloop
  endfacet
  facet normal -0.587785 -0.809017 0
    outer loop
      vertex -0.973404 -2.99583 1.3
      vertex -2.5484 -1.85152 1.3
      vertex -0.973404 -2.99583 0
    endloop
  endfacet
  facet normal 0 -1 0
    outer loop
      vertex -0.973404 -2.99583 1.3
      vertex -0.973404 -2.99583 0
      vertex 0.973404 -2.99583 0
    endloop
  endfacet
  facet normal 0 -1 0
    outer loop
      vertex 0.973404 -2.99583 1.3
      vertex -0.973404 -2.99583 1.3
      vertex 0.973404 -2.99583 0
    endloop
  endfacet
  facet normal 0.587785 -0.809017 0
    outer loop
      vertex 0.973404 -2.99583 1.3
      vertex 0.973404 -2.99583 0
      vertex 2.5484 -1.85152 0
    endloop
  endfacet
  facet normal 0.587785 -0.809017 0
    outer loop
      vertex 2.5484 -1.85152 1.3
      vertex 0.973404 -2.99583 1.3
      vertex 2.5484 -1.85152 0
    endloop
  endfacet
  facet normal 0.951057 -0.309017 0
    outer loop
      vertex 2.5484 -1.85152 1.3
      vertex 2.5484 -1.85152 0
      vertex 3.15 0 0
    endloop
  endfacet
  facet normal 0.951057 -0.309017 0
    outer loop
      vertex 3.15 0 1.3
      vertex 2.5484 -1.85152 1.3
      vertex 3.15 0 0
    endloop
  endfacet
  facet normal 0.951057 0.309017 0
    outer loop
      vertex 3.15 0 0
      vertex 2.5484 1.85152 0
      vertex 2.5484 1.85152 1.3
    endloop
  endfacet
  facet normal 0.951057 0.309017 0
    outer loop
      vertex 3.15 0 1.3
      vertex 3.15 0 0
      vertex 2.5484 1.85152 1.3
    endloop
  endfacet
  facet normal 0.587785 0.809017 0
    outer loop
      vertex 0.973404 2.99583 0
      vertex 0.973404 2.99583 1.3
      vertex 2.5484 1.85152 0
    endloop
  endfacet
  facet normal 0.587785 0.809017 0
    outer loop
      vertex 2.5484 1.85152 0
      vertex 0.973404 2.99583 1.3
      vertex 2.5484 1.85152 1.3
    endloop
  endfacet
  facet normal 0 1 0
    outer loop
      vertex -0.973404 2.99583 0
      vertex -0.973404 2.99583 1.3
      vertex 0.973404 2.99583 0
    endloop
  endfacet
  facet normal 0 1 0
    outer loop
      vertex 0.973404 2.99583 0
      vertex -0.973404 2.99583 1.3
      vertex 0.973404 2.99583 1.3
    endloop
  endfacet
  facet normal -0.587785 0.809017 0
    outer loop
      vertex -2.5484 1.85152 0
      vertex -2.5484 1.85152 1.3
      vertex -0.973404 2.99583 0
    endloop
  endfacet
  facet normal -0.587785 0.809017 0
    outer loop
      vertex -0.973404 2.99583 0
      vertex -2.5484 1.85152 1.3
      vertex -0.973404 2.99583 1.3
    endloop
  endfacet
  facet normal 0.309017 -0.951056 0
    outer loop
      vertex 0.432624 1.33148 0
      vertex 0.432624 1.33148 4.3
      vertex -1.13262 0.822899 4.3
    endloop
  endfacet
  facet normal 0.309017 -0.951056 0
    outer loop
      vertex -1.13262 0.822899 0
      vertex 0.432624 1.33148 0
      vertex -1.13262 0.822899 4.3
    endloop
  endfacet
  facet normal 1 0 0
    outer loop
      vertex -1.13262 0.822899 0
      vertex -1.13262 0.822899 4.3
      vertex -1.13262 -0.822899 4.3
    endloop
  endfacet
  facet normal 1 0 0
    outer loop
      vertex -1.13262 -0.822899 0
      vertex -1.13262 0.822899 0
      vertex -1.13262 -0.822899 4.3
    endloop
  endfacet
  facet normal -0.809017 -0.587785 0
    outer loop
      vertex 1.4 0 4.3
      vertex 0.432624 1.33148 4.3
      vertex 1.4 0 0
    endloop
  endfacet
  facet normal -0.809017 -0.587785 0
    outer loop
      vertex 1.4 0 0
      vertex 0.432624 1.33148 4.3
      vertex 0.432624 1.33148 0
    endloop
  endfacet
  facet normal -0.809017 0.587785 0
    outer loop
      vertex 1.4 0 4.3
      vertex 1.4 0 0
      vertex 0.432624 -1.33148 4.3
    endloop
  endfacet
  facet normal -0.809017 0.587785 0
    outer loop
      vertex 0.432624 -1.33148 4.3
      vertex 1.4 0 0
      vertex 0.432624 -1.33148 0
    endloop
  endfacet
  facet normal 0.309017 0.951056 0
    outer loop
      vertex 0.432624 -1.33148 4.3
      vertex 0.432624 -1.33148 0
      vertex -1.13262 -0.822899 4.3
    endloop
  endfacet
  facet normal 0.309017 0.951056 0
    outer loop
      vertex -1.13262 -0.822899 4.3
      vertex 0.432624 -1.33148 0
      vertex -1.13262 -0.822899 0
    endloop
  endfacet
  facet normal 0 0 1
    outer loop
      vertex -2.5484 1.85152 1.3
      vertex -3.15 0 1.3
      vertex -2.5484 -1.85152 1.3
    endloop
  endfacet
  facet normal 0 0 1
    outer loop
      vertex 2.15 0 1.3
      vertex 1.3405 -1.68094 1.3
      vertex 2.5484 -1.85152 1.3
    endloop
  endfacet
  facet normal 0 0 1
    outer loop
      vertex -1.93708 -0.93285 1.3
      vertex -2.5484 1.85152 1.3
      vertex -2.5484 -1.85152 1.3
    endloop
  endfacet
  facet normal 0 0 1
    outer loop
      vertex 1.3405 -1.68094 1.3
      vertex -0.47842 -2.0961 1.3
      vertex 0.973404 -2.99583 1.3
    endloop
  endfacet
  facet normal 0 0 1
    outer loop
      vertex -0.973404 2.99583 1.3
      vertex -2.5484 1.85152 1.3
      vertex 0.973404 2.99583 1.3
    endloop
  endfacet
  facet normal 0 0 1
    outer loop
      vertex -0.973404 -2.99583 1.3
      vertex -1.93708 -0.93285 1.3
      vertex -2.5484 -1.85152 1.3
    endloop
  endfacet
  facet normal 0 0 1
    outer loop
      vertex -0.47842 2.0961 1.3
      vertex 1.3405 1.68094 1.3
      vertex 2.5484 1.85152 1.3
    endloop
  endfacet
  facet normal 0 0 1
    outer loop
      vertex 0.973404 2.99583 1.3
      vertex -0.47842 2.0961 1.3
      vertex 2.5484 1.85152 1.3
    endloop
  endfacet
  facet normal 0 0 1
    outer loop
      vertex 0.973404 2.99583 1.3
      vertex -2.5484 1.85152 1.3
      vertex -0.47842 2.0961 1.3
    endloop
  endfacet
  facet normal 0 0 1
    outer loop
      vertex 2.5484 1.85152 1.3
      vertex 1.3405 1.68094 1.3
      vertex 3.15 0 1.3
    endloop
  endfacet
  facet normal 0 0 1
    outer loop
      vertex 1.3405 1.68094 1.3
      vertex 2.15 0 1.3
      vertex 3.15 0 1.3
    endloop
  endfacet
  facet normal 0 0 1
    outer loop
      vertex 3.15 0 1.3
      vertex 2.15 0 1.3
      vertex 2.5484 -1.85152 1.3
    endloop
  endfacet
  facet normal 0 0 1
    outer loop
      vertex 2.5484 -1.85152 1.3
      vertex 1.3405 -1.68094 1.3
      vertex 0.973404 -2.99583 1.3
    endloop
  endfacet
  facet normal 0 0 1
    outer loop
      vertex 0.973404 -2.99583 1.3
      vertex -0.47842 -2.0961 1.3
      vertex -0.973404 -2.99583 1.3
    endloop
  endfacet
  facet normal 0 0 1
    outer loop
      vertex -1.93708 -0.93285 1.3
      vertex -1.93708 0.93285 1.3
      vertex -2.5484 1.85152 1.3
    endloop
  endfacet
  facet normal 0 0 1
    outer loop
      vertex -0.47842 -2.0961 1.3
      vertex -1.93708 -0.93285 1.3
      vertex -0.973404 -2.99583 1.3
    endloop
  endfacet
  facet normal 0 0 1
    outer loop
      vertex -1.93708 0.93285 1.3
      vertex -0.47842 2.0961 1.3
      vertex -2.5484 1.85152 1.3
    endloop
  endfacet
  facet normal 0 0 1
    outer loop
      vertex -2.5484 1.85152 4.3
      vertex -3.15 0 4.3
      vertex -2.5484 -1.85152 4.3
    endloop
  endfacet
  facet normal 0 0 1
    outer loop
      vertex -1.13262 -0.822899 4.3
      vertex -2.5484 1.85152 4.3
      vertex -0.973404 -2.99583 4.3
    endloop
  endfacet
  facet normal 0 0 1
    outer loop
      vertex -0.973404 -2.99583 4.3
      vertex -2.5484 1.85152 4.3
      vertex -2.5484 -1.85152 4.3
    endloop
  endfacet
  facet normal 0 0 1
    outer loop
      vertex 1.4 0 4.3
      vertex 0.432624 -1.33148 4.3
      vertex 2.5484 -1.85152 4.3
    endloop
  endfacet
  facet normal 0 0 1
    outer loop
      vertex 0.973404 2.99583 4.3
      vertex -2.5484 1.85152 4.3
      vertex 2.5484 1.85152 4.3
    endloop
  endfacet
  facet normal 0 0 1
    outer loop
      vertex -0.973404 2.99583 4.3
      vertex -2.5484 1.85152 4.3
      vertex 0.973404 2.99583 4.3
    endloop
  endfacet
  facet normal 0 0 1
    outer loop
      vertex 0.973404 -2.99583 4.3
      vertex -1.13262 -0.822899 4.3
      vertex -0.973404 -2.99583 4.3
    endloop
  endfacet
  facet normal 0 0 1
    outer loop
      vertex 0.432624 1.33148 4.3
      vertex 1.4 0 4.3
      vertex 3.15 0 4.3
    endloop
  endfacet
  facet normal 0 0 1
    outer loop
      vertex 2.5484 1.85152 4.3
      vertex 0.432624 1.33148 4.3
      vertex 3.15 0 4.3
    endloop
  endfacet
  facet normal 0 0 1
    outer loop
      vertex 2.5484 1.85152 4.3
      vertex -2.5484 1.85152 4.3
      vertex 0.432624 1.33148 4.3
    endloop
  endfacet
  facet normal 0 0 1
    outer loop
      vertex 3.15 0 4.3
      vertex 1.4 0 4.3
      vertex 2.5484 -1.85152 4.3
    endloop
  endfacet
  facet normal 0 0 1
    outer loop
      vertex 2.5484 -1.85152 4.3
      vertex 0.432624 -1.33148 4.3
      vertex 0.973404 -2.99583 4.3
    endloop
  endfacet
  facet normal 0 0 1
    outer loop
      vertex -1.13262 -0.822899 4.3
      vertex -1.13262 0.822899 4.3
      vertex -2.5484 1.85152 4.3
    endloop
  endfacet
  facet normal 0 0 1
    outer loop
      vertex 0.432624 -1.33148 4.3
      vertex -1.13262 -0.822899 4.3
      vertex 0.973404 -2.99583 4.3
    endloop
  endfacet
  facet normal 0 0 1
    outer loop
      vertex -1.13262 0.822899 4.3
      vertex 0.432624 1.33148 4.3
      vertex -2.5484 1.85152 4.3
    endloop
  endfacet
  facet normal -1 0 0
    outer loop
      vertex -1.93708 -0.93285 1.3
      vertex -1.93708 -0.93285 3
      vertex -1.93708 0.93285 1.3
    endloop
  endfacet
  facet normal -1 0 0
    outer loop
      vertex -1.93708 0.93285 1.3
      vertex -1.93708 -0.93285 3
      vertex -1.93708 0.93285 3
    endloop
  endfacet
  facet normal -0.62349 -0.781831 0
    outer loop
      vertex -1.93708 -0.93285 3
      vertex -1.93708 -0.93285 1.3
      vertex -0.47842 -2.0961 1.3
    endloop
  endfacet
  facet normal -0.62349 -0.781831 0
    outer loop
      vertex -0.47842 -2.0961 3
      vertex -1.93708 -0.93285 3
      vertex -0.47842 -2.0961 1.3
    endloop
  endfacet
  facet normal 0.222521 -0.974928 0
    outer loop
      vertex -0.47842 -2.0961 3
      vertex -0.47842 -2.0961 1.3
      vertex 1.3405 -1.68094 1.3
    endloop
  endfacet
  facet normal 0.222521 -0.974928 0
    outer loop
      vertex 1.3405 -1.68094 3
      vertex -0.47842 -2.0961 3
      vertex 1.3405 -1.68094 1.3
    endloop
  endfacet
  facet normal 0.900969 -0.433884 0
    outer loop
      vertex 1.3405 -1.68094 3
      vertex 1.3405 -1.68094 1.3
      vertex 2.15 0 1.3
    endloop
  endfacet
  facet normal 0.900969 -0.433884 0
    outer loop
      vertex 2.15 0 3
      vertex 1.3405 -1.68094 3
      vertex 2.15 0 1.3
    endloop
  endfacet
  facet normal 0.900969 0.433884 0
    outer loop
      vertex 2.15 0 1.3
      vertex 1.3405 1.68094 1.3
      vertex 1.3405 1.68094 3
    endloop
  endfacet
  facet normal 0.900969 0.433884 0
    outer loop
      vertex 2.15 0 3
      vertex 2.15 0 1.3
      vertex 1.3405 1.68094 3
    endloop
  endfacet
  facet normal 0.222521 0.974928 0
    outer loop
      vertex -0.47842 2.0961 1.3
      vertex -0.47842 2.0961 3
      vertex 1.3405 1.68094 1.3
    endloop
  endfacet
  facet normal 0.222521 0.974928 0
    outer loop
      vertex 1.3405 1.68094 1.3
      vertex -0.47842 2.0961 3
      vertex 1.3405 1.68094 3
    endloop
  endfacet
  facet normal -0.62349 0.781831 0
    outer loop
      vertex -1.93708 0.93285 1.3
      vertex -1.93708 0.93285 3
      vertex -0.47842 2.0961 1.3
    endloop
  endfacet
  facet normal -0.62349 0.781831 0
    outer loop
      vertex -0.47842 2.0961 1.3
      vertex -1.93708 0.93285 3
      vertex -0.47842 2.0961 3
    endloop
  endfacet
  facet normal -0.951057 0.309017 0
    outer loop
      vertex -3.15 0 3
      vertex -3.15 0 4.3
      vertex -2.5484 1.85152 3
    endloop
  endfacet
  facet normal -0.951057 0.309017 0
    outer loop
      vertex -2.5484 1.85152 3
      vertex -3.15 0 4.3
      vertex -2.5484 1.85152 4.3
    endloop
  endfacet
  facet normal -0.587785 0.809017 0
    outer loop
      vertex -2.5484 1.85152 3
      vertex -2.5484 1.85152 4.3
      vertex -0.973404 2.99583 3
    endloop
  endfacet
  facet normal -0.587785 0.809017 0
    outer loop
      vertex -0.973404 2.99583 3
      vertex -2.5484 1.85152 4.3
      vertex -0.973404 2.99583 4.3
    endloop
  endfacet
  facet normal 0 1 0
    outer loop
      vertex -0.973404 2.99583 3
      vertex -0.973404 2.99583 4.3
      vertex 0.973404 2.99583 3
    endloop
  endfacet
  facet normal 0 1 0
    outer loop
      vertex 0.973404 2.99583 3
      vertex -0.973404 2.99583 4.3
      vertex 0.973404 2.99583 4.3
    endloop
  endfacet
  facet normal 0.587785 0.809017 0
    outer loop
      vertex 0.973404 2.99583 3
      vertex 0.973404 2.99583 4.3
      vertex 2.5484 1.85152 3
    endloop
  endfacet
  facet normal 0.587785 0.809017 0
    outer loop
      vertex 2.5484 1.85152 3
      vertex 0.973404 2.99583 4.3
      vertex 2.5484 1.85152 4.3
    endloop
  endfacet
  facet normal 0.951057 0.309017 0
    outer loop
      vertex 3.15 0 3
      vertex 2.5484 1.85152 3
      vertex 2.5484 1.85152 4.3
    endloop
  endfacet
  facet normal 0.951057 0.309017 0
    outer loop
      vertex 3.15 0 4.3
      vertex 3.15 0 3
      vertex 2.5484 1.85152 4.3
    endloop
  endfacet
  facet normal 0.951057 -0.309017 0
    outer loop
      vertex 2.5484 -1.85152 4.3
      vertex 2.5484 -1.85152 3
      vertex 3.15 0 3
    endloop
  endfacet
  facet normal 0.951057 -0.309017 0
    outer loop
      vertex 3.15 0 4.3
      vertex 2.5484 -1.85152 4.3
      vertex 3.15 0 3
    endloop
  endfacet
  facet normal 0.587785 -0.809017 0
    outer loop
      vertex 0.973404 -2.99583 4.3
      vertex 0.973404 -2.99583 3
      vertex 2.5484 -1.85152 3
    endloop
  endfacet
  facet normal 0.587785 -0.809017 0
    outer loop
      vertex 2.5484 -1.85152 4.3
      vertex 0.973404 -2.99583 4.3
      vertex 2.5484 -1.85152 3
    endloop
  endfacet
  facet normal 0 -1 0
    outer loop
      vertex -0.973404 -2.99583 4.3
      vertex -0.973404 -2.99583 3
      vertex 0.973404 -2.99583 3
    endloop
  endfacet
  facet normal 0 -1 0
    outer loop
      vertex 0.973404 -2.99583 4.3
      vertex -0.973404 -2.99583 4.3
      vertex 0.973404 -2.99583 3
    endloop
  endfacet
  facet normal -0.587785 -0.809017 0
    outer loop
      vertex -2.5484 -1.85152 4.3
      vertex -2.5484 -1.85152 3
      vertex -0.973404 -2.99583 3
    endloop
  endfacet
  facet normal -0.587785 -0.809017 0
    outer loop
      vertex -0.973404 -2.99583 4.3
      vertex -2.5484 -1.85152 4.3
      vertex -0.973404 -2.99583 3
    endloop
  endfacet
  facet normal -0.951057 -0.309017 0
    outer loop
      vertex -3.15 0 3
      vertex -2.5484 -1.85152 3
      vertex -3.15 0 4.3
    endloop
  endfacet
  facet normal -0.951057 -0.309017 0
    outer loop
      vertex -3.15 0 4.3
      vertex -2.5484 -1.85152 3
      vertex -2.5484 -1.85152 4.3
    endloop
  endfacet
  facet normal 0 0 -1
    outer loop
      vertex -3.15 0 3
      vertex -2.5484 1.85152 3
      vertex -2.5484 -1.85152 3
    endloop
  endfacet
  facet normal 0 0 -1
    outer loop
      vertex -1.93708 0.93285 3
      vertex -2.5484 1.85152 3
      vertex -0.973404 2.99583 3
    endloop
  endfacet
  facet normal 0 0 -1
    outer loop
      vertex -0.47842 2.0961 3
      vertex -0.973404 2.99583 3
      vertex 0.973404 2.99583 3
    endloop
  endfacet
  facet normal 0 0 -1
    outer loop
      vertex 1.3405 1.68094 3
      vertex 0.973404 2.99583 3
      vertex 2.5484 1.85152 3
    endloop
  endfacet
  facet normal 0 0 -1
    outer loop
      vertex 2.15 0 3
      vertex 2.5484 1.85152 3
      vertex 3.15 0 3
    endloop
  endfacet
  facet normal 0 0 -1
    outer loop
      vertex 1.3405 -1.68094 3
      vertex 3.15 0 3
      vertex 2.5484 -1.85152 3
    endloop
  endfacet
  facet normal 0 0 -1
    outer loop
      vertex -0.47842 -2.0961 3
      vertex 2.5484 -1.85152 3
      vertex 0.973404 -2.99583 3
    endloop
  endfacet
  facet normal 0 0 -1
    outer loop
      vertex -2.5484 -1.85152 3
      vertex 0.973404 -2.99583 3
      vertex -0.973404 -2.99583 3
    endloop
  endfacet
  facet normal 0 0 -1
    outer loop
      vertex -2.5484 -1.85152 3
      vertex -2.5484 1.85152 3
      vertex -1.93708 0.93285 3
    endloop
  endfacet
  facet normal 0 0 -1
    outer loop
      vertex -1.93708 -0.93285 3
      vertex -2.5484 -1.85152 3
      vertex -1.93708 0.93285 3
    endloop
  endfacet
  facet normal 0 0 -1
    outer loop
      vertex 2.15 0 3
      vertex 3.15 0 3
      vertex 1.3405 -1.68094 3
    endloop
  endfacet
  facet normal 0 0 -1
    outer loop
      vertex -2.5484 -1.85152 3
      vertex -0.47842 -2.0961 3
      vertex 0.973404 -2.99583 3
    endloop
  endfacet
  facet normal 0 0 -1
    outer loop
      vertex -0.47842 2.0961 3
      vertex 0.973404 2.99583 3
      vertex 1.3405 1.68094 3
    endloop
  endfacet
  facet normal 0 0 -1
    outer loop
      vertex -1.93708 0.93285 3
      vertex -0.973404 2.99583 3
      vertex -0.47842 2.0961 3
    endloop
  endfacet
  facet normal 0 0 -1
    outer loop
      vertex -0.47842 -2.0961 3
      vertex -2.5484 -1.85152 3
      vertex -1.93708 -0.93285 3
    endloop
  endfacet
  facet normal 0 0 -1
    outer loop
      vertex 1.3405 1.68094 3
      vertex 2.5484 1.85152 3
      vertex 2.15 0 3
    endloop
  endfacet
  facet normal 0 0 -1
    outer loop
      vertex 1.3405 -1.68094 3
      vertex 2.5484 -1.85152 3
      vertex -0.47842 -2.0961 3
    endloop
  endfacet
endsolid OpenSCAD_Model
