solid OpenSCAD_Model
  facet normal -1 0 0
    outer loop
      vertex 0 0 2.8
      vertex 0 3.65 2.8
      vertex 0 0 0
    endloop
  endfacet
  facet normal -1 0 0
    outer loop
      vertex 0 0 0
      vertex 0 3.65 2.8
      vertex 0 3.65 0
    endloop
  endfacet
  facet normal 0 0 1
    outer loop
      vertex 0 0 2.8
      vertex 5.7 0 2.8
      vertex 5.7 3.65 2.8
    endloop
  endfacet
  facet normal 0 0 1
    outer loop
      vertex 0 3.65 2.8
      vertex 0 0 2.8
      vertex 5.7 3.65 2.8
    endloop
  endfacet
  facet normal 0 -1 0
    outer loop
      vertex 0 0 0
      vertex 5.7 0 0
      vertex 5.7 0 2.8
    endloop
  endfacet
  facet normal 0 -1 0
    outer loop
      vertex 0 0 2.8
      vertex 0 0 0
      vertex 5.7 0 2.8
    endloop
  endfacet
  facet normal 0 0 -1
    outer loop
      vertex 0 3.65 0
      vertex 5.7 3.65 0
      vertex 0 0 0
    endloop
  endfacet
  facet normal 0 0 -1
    outer loop
      vertex 0 0 0
      vertex 5.7 3.65 0
      vertex 5.7 0 0
    endloop
  endfacet
  facet normal 0 1 0
    outer loop
      vertex 0 3.65 2.8
      vertex 5.7 3.65 2.8
      vertex 0 3.65 0
    endloop
  endfacet
  facet normal 0 1 0
    outer loop
      vertex 0 3.65 0
      vertex 5.7 3.65 2.8
      vertex 5.7 3.65 0
    endloop
  endfacet
  facet normal 1 0 0
    outer loop
      vertex 5.7 0 0
      vertex 5.7 3.65 0
      vertex 5.7 3.65 2.8
    endloop
  endfacet
  facet normal 1 0 0
    outer loop
      vertex 5.7 0 2.8
      vertex 5.7 0 0
      vertex 5.7 3.65 2.8
    endloop
  endfacet
endsolid OpenSCAD_Model
