  0
SECTION
  2
HEADER
  9
$ACADVER
  1
AC1009
  9
$INSBASE
 10
0.0
 20
0.0
 30
0.0
  9
$EXTMIN
 10
0.0
 20
0.0
 30
0.0
  9
$EXTMAX
 10
0.0
 20
0.0
 30
0.0
  0
ENDSEC
  0
SECTION
  2
TABLES
  0
TABLE
  2
VPORT
 70
0
  0
ENDTAB
  0
TABLE
  2
LTYPE
 70
1
  0
LTYPE
  2
CONTINUOUS
 70
0
  3
Solid line
 72
65
 73
0
 40
0.0
  0
ENDTAB
  0
TABLE
  2
LAYER
 70
1
  0
LAYER
  2
PYDXF
 70
64
 62
7
  6
continuous
  0
ENDTAB
  0
TABLE
  2
STYLE
 70
1
  0
STYLE
  2
STANDARD
 70
0
 40
0
 41
1.0
 50
0.0
 71
0
 42
1
 3
ARIAL.TTF
 4

  0
ENDTAB
  0
TABLE
  2
VIEW
 70
0
  0
ENDTAB
  0
ENDSEC
  0
SECTION
  2
BLOCKS
  0
ENDSEC
  0
SECTION
  2
ENTITIES
  0
POLYLINE
  8
0
 62
0
 70
1
 66
1
 10
0.0
 20
0.0
 30
0.0
  0
VERTEX
  8
0
 10
-10.0
 20
50.0
  0
VERTEX
  8
0
 10
-10.0
 20
50.0
  0
VERTEX
  8
0
 10
-10.0
 20
600.0
  0
VERTEX
  8
0
 10
-10.0
 20
600.0
  0
SEQEND
  8
0
  0
POLYLINE
  8
0
 62
0
 70
1
 66
1
 10
0.0
 20
0.0
 30
0.0
  0
VERTEX
  8
0
 10
0.0
 20
50.0
  0
VERTEX
  8
0
 10
0.0
 20
50.0
  0
VERTEX
  8
0
 10
-10.0
 20
50.0
  0
VERTEX
  8
0
 10
-10.0
 20
50.0
  0
SEQEND
  8
0
  0
POLYLINE
  8
0
 62
0
 70
1
 66
1
 10
0.0
 20
0.0
 30
0.0
  0
VERTEX
  8
0
 10
-530.0
 20
600.0
  0
VERTEX
  8
0
 10
-500.0
 20
600.0
  0
VERTEX
  8
0
 10
-500.0
 20
50.0
  0
VERTEX
  8
0
 10
-495.0
 20
50.0
  0
VERTEX
  8
0
 10
-495.0
 20
600.0
  0
VERTEX
  8
0
 10
-467.5
 20
600.0
  0
VERTEX
  8
0
 10
-467.5
 20
50.0
  0
VERTEX
  8
0
 10
-462.5
 20
50.0
  0
VERTEX
  8
0
 10
-462.5
 20
600.0
  0
VERTEX
  8
0
 10
-435.0
 20
600.0
  0
VERTEX
  8
0
 10
-435.0
 20
50.0
  0
VERTEX
  8
0
 10
-430.0
 20
50.0
  0
VERTEX
  8
0
 10
-430.0
 20
600.0
  0
VERTEX
  8
0
 10
-370.0
 20
600.0
  0
VERTEX
  8
0
 10
-370.0
 20
50.0
  0
VERTEX
  8
0
 10
-365.0
 20
50.0
  0
VERTEX
  8
0
 10
-365.0
 20
600.0
  0
VERTEX
  8
0
 10
-337.5
 20
600.0
  0
VERTEX
  8
0
 10
-337.5
 20
50.0
  0
VERTEX
  8
0
 10
-332.5
 20
50.0
  0
VERTEX
  8
0
 10
-332.5
 20
600.0
  0
VERTEX
  8
0
 10
-305.0
 20
600.0
  0
VERTEX
  8
0
 10
-305.0
 20
50.0
  0
VERTEX
  8
0
 10
-300.0
 20
50.0
  0
VERTEX
  8
0
 10
-300.0
 20
600.0
  0
VERTEX
  8
0
 10
-240.0
 20
600.0
  0
VERTEX
  8
0
 10
-240.0
 20
50.0
  0
VERTEX
  8
0
 10
-235.0
 20
50.0
  0
VERTEX
  8
0
 10
-235.0
 20
600.0
  0
VERTEX
  8
0
 10
-207.5
 20
600.0
  0
VERTEX
  8
0
 10
-207.5
 20
50.0
  0
VERTEX
  8
0
 10
-202.5
 20
50.0
  0
VERTEX
  8
0
 10
-202.5
 20
600.0
  0
VERTEX
  8
0
 10
-175.0
 20
600.0
  0
VERTEX
  8
0
 10
-175.0
 20
50.0
  0
VERTEX
  8
0
 10
-170.0
 20
50.0
  0
VERTEX
  8
0
 10
-170.0
 20
600.0
  0
VERTEX
  8
0
 10
-110.0
 20
600.0
  0
VERTEX
  8
0
 10
-110.0
 20
50.0
  0
VERTEX
  8
0
 10
-105.0
 20
50.0
  0
VERTEX
  8
0
 10
-105.0
 20
600.0
  0
VERTEX
  8
0
 10
-77.5
 20
600.0
  0
VERTEX
  8
0
 10
-77.5
 20
50.0
  0
VERTEX
  8
0
 10
-72.5
 20
50.0
  0
VERTEX
  8
0
 10
-72.5
 20
600.0
  0
VERTEX
  8
0
 10
-45.0
 20
600.0
  0
VERTEX
  8
0
 10
-45.0
 20
50.0
  0
VERTEX
  8
0
 10
-40.0
 20
50.0
  0
VERTEX
  8
0
 10
-40.0
 20
600.0
  0
VERTEX
  8
0
 10
-10.0
 20
600.0
  0
VERTEX
  8
0
 10
-10.0
 20
50.0
  0
VERTEX
  8
0
 10
0.0
 20
50.0
  0
VERTEX
  8
0
 10
0.0
 20
45.5
  0
VERTEX
  8
0
 10
-8.5
 20
45.5
  0
VERTEX
  8
0
 10
-8.5
 20
47.0
  0
VERTEX
  8
0
 10
-12.5
 20
47.0
  0
VERTEX
  8
0
 10
-12.5
 20
45.5
  0
VERTEX
  8
0
 10
-14.0
 20
45.5
  0
VERTEX
  8
0
 10
-14.0
 20
40.5
  0
VERTEX
  8
0
 10
-12.5
 20
40.5
  0
VERTEX
  8
0
 10
-12.5
 20
39.0
  0
VERTEX
  8
0
 10
-8.5
 20
39.0
  0
VERTEX
  8
0
 10
-8.5
 20
40.5
  0
VERTEX
  8
0
 10
0.0
 20
40.5
  0
VERTEX
  8
0
 10
0.0
 20
36.0
  0
VERTEX
  8
0
 10
-10.0
 20
36.0
  0
VERTEX
  8
0
 10
-10.0
 20
25.5259848155
  0
VERTEX
  8
0
 10
0.0
 20
25.5259848155
  0
VERTEX
  8
0
 10
0.0
 20
21.0259848155
  0
VERTEX
  8
0
 10
-8.5
 20
21.0259848155
  0
VERTEX
  8
0
 10
-8.5
 20
22.5259848155
  0
VERTEX
  8
0
 10
-12.5
 20
22.5259848155
  0
VERTEX
  8
0
 10
-12.5
 20
21.0259848155
  0
VERTEX
  8
0
 10
-14.0
 20
21.0259848155
  0
VERTEX
  8
0
 10
-14.0
 20
16.0259848155
  0
VERTEX
  8
0
 10
-12.5
 20
16.0259848155
  0
VERTEX
  8
0
 10
-12.5
 20
14.5259848155
  0
VERTEX
  8
0
 10
-8.5
 20
14.5259848155
  0
VERTEX
  8
0
 10
-8.5
 20
16.0259848155
  0
VERTEX
  8
0
 10
0.0
 20
16.0259848155
  0
VERTEX
  8
0
 10
0.0
 20
11.5259848155
  0
VERTEX
  8
0
 10
-10.0
 20
11.5259848155
  0
VERTEX
  8
0
 10
-10.0
 20
0.0
  0
VERTEX
  8
0
 10
-530.0
 20
0.0
  0
VERTEX
  8
0
 10
-530.0
 20
58.0
  0
VERTEX
  8
0
 10
-540.0
 20
58.0
  0
VERTEX
  8
0
 10
-540.0
 20
62.5
  0
VERTEX
  8
0
 10
-531.5
 20
62.5
  0
VERTEX
  8
0
 10
-531.5
 20
61.0
  0
VERTEX
  8
0
 10
-527.5
 20
61.0
  0
VERTEX
  8
0
 10
-527.5
 20
62.5
  0
VERTEX
  8
0
 10
-526.0
 20
62.5
  0
VERTEX
  8
0
 10
-526.0
 20
67.5
  0
VERTEX
  8
0
 10
-527.5
 20
67.5
  0
VERTEX
  8
0
 10
-527.5
 20
69.0
  0
VERTEX
  8
0
 10
-531.5
 20
69.0
  0
VERTEX
  8
0
 10
-531.5
 20
67.5
  0
VERTEX
  8
0
 10
-540.0
 20
67.5
  0
VERTEX
  8
0
 10
-540.0
 20
72.0
  0
VERTEX
  8
0
 10
-530.0
 20
72.0
  0
VERTEX
  8
0
 10
-530.0
 20
152.0
  0
VERTEX
  8
0
 10
-540.0
 20
152.0
  0
VERTEX
  8
0
 10
-540.0
 20
156.5
  0
VERTEX
  8
0
 10
-531.5
 20
156.5
  0
VERTEX
  8
0
 10
-531.5
 20
155.0
  0
VERTEX
  8
0
 10
-527.5
 20
155.0
  0
VERTEX
  8
0
 10
-527.5
 20
156.5
  0
VERTEX
  8
0
 10
-526.0
 20
156.5
  0
VERTEX
  8
0
 10
-526.0
 20
161.5
  0
VERTEX
  8
0
 10
-527.5
 20
161.5
  0
VERTEX
  8
0
 10
-527.5
 20
163.0
  0
VERTEX
  8
0
 10
-531.5
 20
163.0
  0
VERTEX
  8
0
 10
-531.5
 20
161.5
  0
VERTEX
  8
0
 10
-540.0
 20
161.5
  0
VERTEX
  8
0
 10
-540.0
 20
166.0
  0
VERTEX
  8
0
 10
-530.0
 20
166.0
  0
VERTEX
  8
0
 10
-530.0
 20
246.0
  0
VERTEX
  8
0
 10
-540.0
 20
246.0
  0
VERTEX
  8
0
 10
-540.0
 20
250.5
  0
VERTEX
  8
0
 10
-531.5
 20
250.5
  0
VERTEX
  8
0
 10
-531.5
 20
249.0
  0
VERTEX
  8
0
 10
-527.5
 20
249.0
  0
VERTEX
  8
0
 10
-527.5
 20
250.5
  0
VERTEX
  8
0
 10
-526.0
 20
250.5
  0
VERTEX
  8
0
 10
-526.0
 20
255.5
  0
VERTEX
  8
0
 10
-527.5
 20
255.5
  0
VERTEX
  8
0
 10
-527.5
 20
257.0
  0
VERTEX
  8
0
 10
-531.5
 20
257.0
  0
VERTEX
  8
0
 10
-531.5
 20
255.5
  0
VERTEX
  8
0
 10
-540.0
 20
255.5
  0
VERTEX
  8
0
 10
-540.0
 20
260.0
  0
VERTEX
  8
0
 10
-530.0
 20
260.0
  0
VERTEX
  8
0
 10
-530.0
 20
340.0
  0
VERTEX
  8
0
 10
-540.0
 20
340.0
  0
VERTEX
  8
0
 10
-540.0
 20
344.5
  0
VERTEX
  8
0
 10
-531.5
 20
344.5
  0
VERTEX
  8
0
 10
-531.5
 20
343.0
  0
VERTEX
  8
0
 10
-527.5
 20
343.0
  0
VERTEX
  8
0
 10
-527.5
 20
344.5
  0
VERTEX
  8
0
 10
-526.0
 20
344.5
  0
VERTEX
  8
0
 10
-526.0
 20
349.5
  0
VERTEX
  8
0
 10
-527.5
 20
349.5
  0
VERTEX
  8
0
 10
-527.5
 20
351.0
  0
VERTEX
  8
0
 10
-531.5
 20
351.0
  0
VERTEX
  8
0
 10
-531.5
 20
349.5
  0
VERTEX
  8
0
 10
-540.0
 20
349.5
  0
VERTEX
  8
0
 10
-540.0
 20
354.0
  0
VERTEX
  8
0
 10
-530.0
 20
354.0
  0
VERTEX
  8
0
 10
-530.0
 20
434.0
  0
VERTEX
  8
0
 10
-540.0
 20
434.0
  0
VERTEX
  8
0
 10
-540.0
 20
438.5
  0
VERTEX
  8
0
 10
-531.5
 20
438.5
  0
VERTEX
  8
0
 10
-531.5
 20
437.0
  0
VERTEX
  8
0
 10
-527.5
 20
437.0
  0
VERTEX
  8
0
 10
-527.5
 20
438.5
  0
VERTEX
  8
0
 10
-526.0
 20
438.5
  0
VERTEX
  8
0
 10
-526.0
 20
443.5
  0
VERTEX
  8
0
 10
-527.5
 20
443.5
  0
VERTEX
  8
0
 10
-527.5
 20
445.0
  0
VERTEX
  8
0
 10
-531.5
 20
445.0
  0
VERTEX
  8
0
 10
-531.5
 20
443.5
  0
VERTEX
  8
0
 10
-540.0
 20
443.5
  0
VERTEX
  8
0
 10
-540.0
 20
448.0
  0
VERTEX
  8
0
 10
-530.0
 20
448.0
  0
VERTEX
  8
0
 10
-530.0
 20
528.0
  0
VERTEX
  8
0
 10
-540.0
 20
528.0
  0
VERTEX
  8
0
 10
-540.0
 20
532.5
  0
VERTEX
  8
0
 10
-531.5
 20
532.5
  0
VERTEX
  8
0
 10
-531.5
 20
531.0
  0
VERTEX
  8
0
 10
-527.5
 20
531.0
  0
VERTEX
  8
0
 10
-527.5
 20
532.5
  0
VERTEX
  8
0
 10
-526.0
 20
532.5
  0
VERTEX
  8
0
 10
-526.0
 20
537.5
  0
VERTEX
  8
0
 10
-527.5
 20
537.5
  0
VERTEX
  8
0
 10
-527.5
 20
539.0
  0
VERTEX
  8
0
 10
-531.5
 20
539.0
  0
VERTEX
  8
0
 10
-531.5
 20
537.5
  0
VERTEX
  8
0
 10
-540.0
 20
537.5
  0
VERTEX
  8
0
 10
-540.0
 20
542.0
  0
VERTEX
  8
0
 10
-530.0
 20
542.0
  0
SEQEND
  8
0
  0
POLYLINE
  8
0
 62
0
 70
1
 66
1
 10
0.0
 20
0.0
 30
0.0
  0
VERTEX
  8
0
 10
-40.0
 20
600.0
  0
VERTEX
  8
0
 10
-10.0
 20
600.0
  0
VERTEX
  8
0
 10
-10.0
 20
600.0
  0
VERTEX
  8
0
 10
-40.0
 20
600.0
  0
SEQEND
  8
0
  0
POLYLINE
  8
0
 62
0
 70
1
 66
1
 10
0.0
 20
0.0
 30
0.0
  0
VERTEX
  8
0
 10
-12.5
 20
16.0259848155
  0
VERTEX
  8
0
 10
-14.0
 20
16.0259848155
  0
VERTEX
  8
0
 10
-14.0
 20
21.0259848155
  0
VERTEX
  8
0
 10
-12.5
 20
21.0259848155
  0
VERTEX
  8
0
 10
-12.5
 20
22.5259848155
  0
VERTEX
  8
0
 10
-8.5
 20
22.5259848155
  0
VERTEX
  8
0
 10
-8.5
 20
21.0259848155
  0
VERTEX
  8
0
 10
0.0
 20
21.0259848155
  0
VERTEX
  8
0
 10
0.0
 20
25.5259848155
  0
VERTEX
  8
0
 10
-10.0
 20
25.5259848155
  0
VERTEX
  8
0
 10
-10.0
 20
36.0
  0
VERTEX
  8
0
 10
0.0
 20
36.0
  0
VERTEX
  8
0
 10
0.0
 20
40.5
  0
VERTEX
  8
0
 10
-8.5
 20
40.5
  0
VERTEX
  8
0
 10
-8.5
 20
39.0
  0
VERTEX
  8
0
 10
-12.5
 20
39.0
  0
VERTEX
  8
0
 10
-12.5
 20
40.5
  0
VERTEX
  8
0
 10
-14.0
 20
40.5
  0
VERTEX
  8
0
 10
-14.0
 20
45.5
  0
VERTEX
  8
0
 10
-12.5
 20
45.5
  0
VERTEX
  8
0
 10
-12.5
 20
47.0
  0
VERTEX
  8
0
 10
-8.5
 20
47.0
  0
VERTEX
  8
0
 10
-8.5
 20
45.5
  0
VERTEX
  8
0
 10
0.0
 20
45.5
  0
VERTEX
  8
0
 10
0.0
 20
50.0
  0
VERTEX
  8
0
 10
-10.0
 20
50.0
  0
VERTEX
  8
0
 10
-10.0
 20
600.0
  0
VERTEX
  8
0
 10
-40.0
 20
600.0
  0
VERTEX
  8
0
 10
-40.0
 20
50.0
  0
VERTEX
  8
0
 10
-45.0
 20
50.0
  0
VERTEX
  8
0
 10
-45.0
 20
600.0
  0
VERTEX
  8
0
 10
-72.5
 20
600.0
  0
VERTEX
  8
0
 10
-72.5
 20
50.0
  0
VERTEX
  8
0
 10
-77.5
 20
50.0
  0
VERTEX
  8
0
 10
-77.5
 20
600.0
  0
VERTEX
  8
0
 10
-105.0
 20
600.0
  0
VERTEX
  8
0
 10
-105.0
 20
50.0
  0
VERTEX
  8
0
 10
-110.0
 20
50.0
  0
VERTEX
  8
0
 10
-110.0
 20
600.0
  0
VERTEX
  8
0
 10
-170.0
 20
600.0
  0
VERTEX
  8
0
 10
-170.0
 20
50.0
  0
VERTEX
  8
0
 10
-175.0
 20
50.0
  0
VERTEX
  8
0
 10
-175.0
 20
600.0
  0
VERTEX
  8
0
 10
-202.5
 20
600.0
  0
VERTEX
  8
0
 10
-202.5
 20
50.0
  0
VERTEX
  8
0
 10
-207.5
 20
50.0
  0
VERTEX
  8
0
 10
-207.5
 20
600.0
  0
VERTEX
  8
0
 10
-235.0
 20
600.0
  0
VERTEX
  8
0
 10
-235.0
 20
50.0
  0
VERTEX
  8
0
 10
-240.0
 20
50.0
  0
VERTEX
  8
0
 10
-240.0
 20
600.0
  0
VERTEX
  8
0
 10
-300.0
 20
600.0
  0
VERTEX
  8
0
 10
-300.0
 20
50.0
  0
VERTEX
  8
0
 10
-305.0
 20
50.0
  0
VERTEX
  8
0
 10
-305.0
 20
600.0
  0
VERTEX
  8
0
 10
-332.5
 20
600.0
  0
VERTEX
  8
0
 10
-332.5
 20
50.0
  0
VERTEX
  8
0
 10
-337.5
 20
50.0
  0
VERTEX
  8
0
 10
-337.5
 20
600.0
  0
VERTEX
  8
0
 10
-365.0
 20
600.0
  0
VERTEX
  8
0
 10
-365.0
 20
50.0
  0
VERTEX
  8
0
 10
-370.0
 20
50.0
  0
VERTEX
  8
0
 10
-370.0
 20
600.0
  0
VERTEX
  8
0
 10
-430.0
 20
600.0
  0
VERTEX
  8
0
 10
-430.0
 20
50.0
  0
VERTEX
  8
0
 10
-435.0
 20
50.0
  0
VERTEX
  8
0
 10
-435.0
 20
600.0
  0
VERTEX
  8
0
 10
-462.5
 20
600.0
  0
VERTEX
  8
0
 10
-462.5
 20
50.0
  0
VERTEX
  8
0
 10
-467.5
 20
50.0
  0
VERTEX
  8
0
 10
-467.5
 20
600.0
  0
VERTEX
  8
0
 10
-495.0
 20
600.0
  0
VERTEX
  8
0
 10
-495.0
 20
50.0
  0
VERTEX
  8
0
 10
-500.0
 20
50.0
  0
VERTEX
  8
0
 10
-500.0
 20
600.0
  0
VERTEX
  8
0
 10
-530.0
 20
600.0
  0
VERTEX
  8
0
 10
-530.0
 20
542.0
  0
VERTEX
  8
0
 10
-540.0
 20
542.0
  0
VERTEX
  8
0
 10
-540.0
 20
537.5
  0
VERTEX
  8
0
 10
-531.5
 20
537.5
  0
VERTEX
  8
0
 10
-531.5
 20
539.0
  0
VERTEX
  8
0
 10
-527.5
 20
539.0
  0
VERTEX
  8
0
 10
-527.5
 20
537.5
  0
VERTEX
  8
0
 10
-526.0
 20
537.5
  0
VERTEX
  8
0
 10
-526.0
 20
532.5
  0
VERTEX
  8
0
 10
-527.5
 20
532.5
  0
VERTEX
  8
0
 10
-527.5
 20
531.0
  0
VERTEX
  8
0
 10
-531.5
 20
531.0
  0
VERTEX
  8
0
 10
-531.5
 20
532.5
  0
VERTEX
  8
0
 10
-540.0
 20
532.5
  0
VERTEX
  8
0
 10
-540.0
 20
528.0
  0
VERTEX
  8
0
 10
-530.0
 20
528.0
  0
VERTEX
  8
0
 10
-530.0
 20
448.0
  0
VERTEX
  8
0
 10
-540.0
 20
448.0
  0
VERTEX
  8
0
 10
-540.0
 20
443.5
  0
VERTEX
  8
0
 10
-531.5
 20
443.5
  0
VERTEX
  8
0
 10
-531.5
 20
445.0
  0
VERTEX
  8
0
 10
-527.5
 20
445.0
  0
VERTEX
  8
0
 10
-527.5
 20
443.5
  0
VERTEX
  8
0
 10
-526.0
 20
443.5
  0
VERTEX
  8
0
 10
-526.0
 20
438.5
  0
VERTEX
  8
0
 10
-527.5
 20
438.5
  0
VERTEX
  8
0
 10
-527.5
 20
437.0
  0
VERTEX
  8
0
 10
-531.5
 20
437.0
  0
VERTEX
  8
0
 10
-531.5
 20
438.5
  0
VERTEX
  8
0
 10
-540.0
 20
438.5
  0
VERTEX
  8
0
 10
-540.0
 20
434.0
  0
VERTEX
  8
0
 10
-530.0
 20
434.0
  0
VERTEX
  8
0
 10
-530.0
 20
354.0
  0
VERTEX
  8
0
 10
-540.0
 20
354.0
  0
VERTEX
  8
0
 10
-540.0
 20
349.5
  0
VERTEX
  8
0
 10
-531.5
 20
349.5
  0
VERTEX
  8
0
 10
-531.5
 20
351.0
  0
VERTEX
  8
0
 10
-527.5
 20
351.0
  0
VERTEX
  8
0
 10
-527.5
 20
349.5
  0
VERTEX
  8
0
 10
-526.0
 20
349.5
  0
VERTEX
  8
0
 10
-526.0
 20
344.5
  0
VERTEX
  8
0
 10
-527.5
 20
344.5
  0
VERTEX
  8
0
 10
-527.5
 20
343.0
  0
VERTEX
  8
0
 10
-531.5
 20
343.0
  0
VERTEX
  8
0
 10
-531.5
 20
344.5
  0
VERTEX
  8
0
 10
-540.0
 20
344.5
  0
VERTEX
  8
0
 10
-540.0
 20
340.0
  0
VERTEX
  8
0
 10
-530.0
 20
340.0
  0
VERTEX
  8
0
 10
-530.0
 20
260.0
  0
VERTEX
  8
0
 10
-540.0
 20
260.0
  0
VERTEX
  8
0
 10
-540.0
 20
255.5
  0
VERTEX
  8
0
 10
-531.5
 20
255.5
  0
VERTEX
  8
0
 10
-531.5
 20
257.0
  0
VERTEX
  8
0
 10
-527.5
 20
257.0
  0
VERTEX
  8
0
 10
-527.5
 20
255.5
  0
VERTEX
  8
0
 10
-526.0
 20
255.5
  0
VERTEX
  8
0
 10
-526.0
 20
250.5
  0
VERTEX
  8
0
 10
-527.5
 20
250.5
  0
VERTEX
  8
0
 10
-527.5
 20
249.0
  0
VERTEX
  8
0
 10
-531.5
 20
249.0
  0
VERTEX
  8
0
 10
-531.5
 20
250.5
  0
VERTEX
  8
0
 10
-540.0
 20
250.5
  0
VERTEX
  8
0
 10
-540.0
 20
246.0
  0
VERTEX
  8
0
 10
-530.0
 20
246.0
  0
VERTEX
  8
0
 10
-530.0
 20
166.0
  0
VERTEX
  8
0
 10
-540.0
 20
166.0
  0
VERTEX
  8
0
 10
-540.0
 20
161.5
  0
VERTEX
  8
0
 10
-531.5
 20
161.5
  0
VERTEX
  8
0
 10
-531.5
 20
163.0
  0
VERTEX
  8
0
 10
-527.5
 20
163.0
  0
VERTEX
  8
0
 10
-527.5
 20
161.5
  0
VERTEX
  8
0
 10
-526.0
 20
161.5
  0
VERTEX
  8
0
 10
-526.0
 20
156.5
  0
VERTEX
  8
0
 10
-527.5
 20
156.5
  0
VERTEX
  8
0
 10
-527.5
 20
155.0
  0
VERTEX
  8
0
 10
-531.5
 20
155.0
  0
VERTEX
  8
0
 10
-531.5
 20
156.5
  0
VERTEX
  8
0
 10
-540.0
 20
156.5
  0
VERTEX
  8
0
 10
-540.0
 20
152.0
  0
VERTEX
  8
0
 10
-530.0
 20
152.0
  0
VERTEX
  8
0
 10
-530.0
 20
72.0
  0
VERTEX
  8
0
 10
-540.0
 20
72.0
  0
VERTEX
  8
0
 10
-540.0
 20
67.5
  0
VERTEX
  8
0
 10
-531.5
 20
67.5
  0
VERTEX
  8
0
 10
-531.5
 20
69.0
  0
VERTEX
  8
0
 10
-527.5
 20
69.0
  0
VERTEX
  8
0
 10
-527.5
 20
67.5
  0
VERTEX
  8
0
 10
-526.0
 20
67.5
  0
VERTEX
  8
0
 10
-526.0
 20
62.5
  0
VERTEX
  8
0
 10
-527.5
 20
62.5
  0
VERTEX
  8
0
 10
-527.5
 20
61.0
  0
VERTEX
  8
0
 10
-531.5
 20
61.0
  0
VERTEX
  8
0
 10
-531.5
 20
62.5
  0
VERTEX
  8
0
 10
-540.0
 20
62.5
  0
VERTEX
  8
0
 10
-540.0
 20
58.0
  0
VERTEX
  8
0
 10
-530.0
 20
58.0
  0
VERTEX
  8
0
 10
-530.0
 20
0.0
  0
VERTEX
  8
0
 10
-10.0
 20
0.0
  0
VERTEX
  8
0
 10
-10.0
 20
11.5259848155
  0
VERTEX
  8
0
 10
0.0
 20
11.5259848155
  0
VERTEX
  8
0
 10
0.0
 20
16.0259848155
  0
VERTEX
  8
0
 10
-8.5
 20
16.0259848155
  0
VERTEX
  8
0
 10
-8.5
 20
14.5259848155
  0
VERTEX
  8
0
 10
-12.5
 20
14.5259848155
  0
SEQEND
  8
0
  0
POLYLINE
  8
0
 62
0
 70
1
 66
1
 10
0.0
 20
0.0
 30
0.0
  0
VERTEX
  8
0
 10
0.0
 20
50.0
  0
VERTEX
  8
0
 10
0.0
 20
45.5
  0
VERTEX
  8
0
 10
0.0
 20
45.5
  0
VERTEX
  8
0
 10
0.0
 20
50.0
  0
SEQEND
  8
0
  0
POLYLINE
  8
0
 62
0
 70
1
 66
1
 10
0.0
 20
0.0
 30
0.0
  0
VERTEX
  8
0
 10
-530.0
 20
600.0
  0
VERTEX
  8
0
 10
-500.0
 20
600.0
  0
VERTEX
  8
0
 10
-500.0
 20
600.0
  0
VERTEX
  8
0
 10
-530.0
 20
600.0
  0
SEQEND
  8
0
  0
POLYLINE
  8
0
 62
0
 70
1
 66
1
 10
0.0
 20
0.0
 30
0.0
  0
VERTEX
  8
0
 10
-500.0
 20
50.0
  0
VERTEX
  8
0
 10
-500.0
 20
50.0
  0
VERTEX
  8
0
 10
-500.0
 20
600.0
  0
VERTEX
  8
0
 10
-500.0
 20
600.0
  0
SEQEND
  8
0
  0
POLYLINE
  8
0
 62
0
 70
1
 66
1
 10
0.0
 20
0.0
 30
0.0
  0
VERTEX
  8
0
 10
-495.0
 20
50.0
  0
VERTEX
  8
0
 10
-495.0
 20
50.0
  0
VERTEX
  8
0
 10
-500.0
 20
50.0
  0
VERTEX
  8
0
 10
-500.0
 20
50.0
  0
SEQEND
  8
0
  0
POLYLINE
  8
0
 62
0
 70
1
 66
1
 10
0.0
 20
0.0
 30
0.0
  0
VERTEX
  8
0
 10
-495.0
 20
600.0
  0
VERTEX
  8
0
 10
-495.0
 20
600.0
  0
VERTEX
  8
0
 10
-495.0
 20
50.0
  0
VERTEX
  8
0
 10
-495.0
 20
50.0
  0
SEQEND
  8
0
  0
POLYLINE
  8
0
 62
0
 70
1
 66
1
 10
0.0
 20
0.0
 30
0.0
  0
VERTEX
  8
0
 10
-495.0
 20
600.0
  0
VERTEX
  8
0
 10
-467.5
 20
600.0
  0
VERTEX
  8
0
 10
-467.5
 20
600.0
  0
VERTEX
  8
0
 10
-495.0
 20
600.0
  0
SEQEND
  8
0
  0
POLYLINE
  8
0
 62
0
 70
1
 66
1
 10
0.0
 20
0.0
 30
0.0
  0
VERTEX
  8
0
 10
-467.5
 20
50.0
  0
VERTEX
  8
0
 10
-467.5
 20
50.0
  0
VERTEX
  8
0
 10
-467.5
 20
600.0
  0
VERTEX
  8
0
 10
-467.5
 20
600.0
  0
SEQEND
  8
0
  0
POLYLINE
  8
0
 62
0
 70
1
 66
1
 10
0.0
 20
0.0
 30
0.0
  0
VERTEX
  8
0
 10
-462.5
 20
50.0
  0
VERTEX
  8
0
 10
-462.5
 20
50.0
  0
VERTEX
  8
0
 10
-467.5
 20
50.0
  0
VERTEX
  8
0
 10
-467.5
 20
50.0
  0
SEQEND
  8
0
  0
POLYLINE
  8
0
 62
0
 70
1
 66
1
 10
0.0
 20
0.0
 30
0.0
  0
VERTEX
  8
0
 10
-462.5
 20
600.0
  0
VERTEX
  8
0
 10
-462.5
 20
600.0
  0
VERTEX
  8
0
 10
-462.5
 20
50.0
  0
VERTEX
  8
0
 10
-462.5
 20
50.0
  0
SEQEND
  8
0
  0
POLYLINE
  8
0
 62
0
 70
1
 66
1
 10
0.0
 20
0.0
 30
0.0
  0
VERTEX
  8
0
 10
-462.5
 20
600.0
  0
VERTEX
  8
0
 10
-435.0
 20
600.0
  0
VERTEX
  8
0
 10
-435.0
 20
600.0
  0
VERTEX
  8
0
 10
-462.5
 20
600.0
  0
SEQEND
  8
0
  0
POLYLINE
  8
0
 62
0
 70
1
 66
1
 10
0.0
 20
0.0
 30
0.0
  0
VERTEX
  8
0
 10
-435.0
 20
50.0
  0
VERTEX
  8
0
 10
-435.0
 20
50.0
  0
VERTEX
  8
0
 10
-435.0
 20
600.0
  0
VERTEX
  8
0
 10
-435.0
 20
600.0
  0
SEQEND
  8
0
  0
POLYLINE
  8
0
 62
0
 70
1
 66
1
 10
0.0
 20
0.0
 30
0.0
  0
VERTEX
  8
0
 10
-430.0
 20
50.0
  0
VERTEX
  8
0
 10
-430.0
 20
50.0
  0
VERTEX
  8
0
 10
-435.0
 20
50.0
  0
VERTEX
  8
0
 10
-435.0
 20
50.0
  0
SEQEND
  8
0
  0
POLYLINE
  8
0
 62
0
 70
1
 66
1
 10
0.0
 20
0.0
 30
0.0
  0
VERTEX
  8
0
 10
-430.0
 20
600.0
  0
VERTEX
  8
0
 10
-430.0
 20
600.0
  0
VERTEX
  8
0
 10
-430.0
 20
50.0
  0
VERTEX
  8
0
 10
-430.0
 20
50.0
  0
SEQEND
  8
0
  0
POLYLINE
  8
0
 62
0
 70
1
 66
1
 10
0.0
 20
0.0
 30
0.0
  0
VERTEX
  8
0
 10
-430.0
 20
600.0
  0
VERTEX
  8
0
 10
-370.0
 20
600.0
  0
VERTEX
  8
0
 10
-370.0
 20
600.0
  0
VERTEX
  8
0
 10
-430.0
 20
600.0
  0
SEQEND
  8
0
  0
POLYLINE
  8
0
 62
0
 70
1
 66
1
 10
0.0
 20
0.0
 30
0.0
  0
VERTEX
  8
0
 10
-370.0
 20
50.0
  0
VERTEX
  8
0
 10
-370.0
 20
50.0
  0
VERTEX
  8
0
 10
-370.0
 20
600.0
  0
VERTEX
  8
0
 10
-370.0
 20
600.0
  0
SEQEND
  8
0
  0
POLYLINE
  8
0
 62
0
 70
1
 66
1
 10
0.0
 20
0.0
 30
0.0
  0
VERTEX
  8
0
 10
-365.0
 20
50.0
  0
VERTEX
  8
0
 10
-365.0
 20
50.0
  0
VERTEX
  8
0
 10
-370.0
 20
50.0
  0
VERTEX
  8
0
 10
-370.0
 20
50.0
  0
SEQEND
  8
0
  0
POLYLINE
  8
0
 62
0
 70
1
 66
1
 10
0.0
 20
0.0
 30
0.0
  0
VERTEX
  8
0
 10
-365.0
 20
600.0
  0
VERTEX
  8
0
 10
-365.0
 20
600.0
  0
VERTEX
  8
0
 10
-365.0
 20
50.0
  0
VERTEX
  8
0
 10
-365.0
 20
50.0
  0
SEQEND
  8
0
  0
POLYLINE
  8
0
 62
0
 70
1
 66
1
 10
0.0
 20
0.0
 30
0.0
  0
VERTEX
  8
0
 10
-365.0
 20
600.0
  0
VERTEX
  8
0
 10
-337.5
 20
600.0
  0
VERTEX
  8
0
 10
-337.5
 20
600.0
  0
VERTEX
  8
0
 10
-365.0
 20
600.0
  0
SEQEND
  8
0
  0
POLYLINE
  8
0
 62
0
 70
1
 66
1
 10
0.0
 20
0.0
 30
0.0
  0
VERTEX
  8
0
 10
-337.5
 20
50.0
  0
VERTEX
  8
0
 10
-337.5
 20
50.0
  0
VERTEX
  8
0
 10
-337.5
 20
600.0
  0
VERTEX
  8
0
 10
-337.5
 20
600.0
  0
SEQEND
  8
0
  0
POLYLINE
  8
0
 62
0
 70
1
 66
1
 10
0.0
 20
0.0
 30
0.0
  0
VERTEX
  8
0
 10
-332.5
 20
50.0
  0
VERTEX
  8
0
 10
-332.5
 20
50.0
  0
VERTEX
  8
0
 10
-337.5
 20
50.0
  0
VERTEX
  8
0
 10
-337.5
 20
50.0
  0
SEQEND
  8
0
  0
POLYLINE
  8
0
 62
0
 70
1
 66
1
 10
0.0
 20
0.0
 30
0.0
  0
VERTEX
  8
0
 10
-332.5
 20
600.0
  0
VERTEX
  8
0
 10
-332.5
 20
600.0
  0
VERTEX
  8
0
 10
-332.5
 20
50.0
  0
VERTEX
  8
0
 10
-332.5
 20
50.0
  0
SEQEND
  8
0
  0
POLYLINE
  8
0
 62
0
 70
1
 66
1
 10
0.0
 20
0.0
 30
0.0
  0
VERTEX
  8
0
 10
-332.5
 20
600.0
  0
VERTEX
  8
0
 10
-305.0
 20
600.0
  0
VERTEX
  8
0
 10
-305.0
 20
600.0
  0
VERTEX
  8
0
 10
-332.5
 20
600.0
  0
SEQEND
  8
0
  0
POLYLINE
  8
0
 62
0
 70
1
 66
1
 10
0.0
 20
0.0
 30
0.0
  0
VERTEX
  8
0
 10
-305.0
 20
50.0
  0
VERTEX
  8
0
 10
-305.0
 20
50.0
  0
VERTEX
  8
0
 10
-305.0
 20
600.0
  0
VERTEX
  8
0
 10
-305.0
 20
600.0
  0
SEQEND
  8
0
  0
POLYLINE
  8
0
 62
0
 70
1
 66
1
 10
0.0
 20
0.0
 30
0.0
  0
VERTEX
  8
0
 10
-300.0
 20
50.0
  0
VERTEX
  8
0
 10
-300.0
 20
50.0
  0
VERTEX
  8
0
 10
-305.0
 20
50.0
  0
VERTEX
  8
0
 10
-305.0
 20
50.0
  0
SEQEND
  8
0
  0
POLYLINE
  8
0
 62
0
 70
1
 66
1
 10
0.0
 20
0.0
 30
0.0
  0
VERTEX
  8
0
 10
-300.0
 20
600.0
  0
VERTEX
  8
0
 10
-300.0
 20
600.0
  0
VERTEX
  8
0
 10
-300.0
 20
50.0
  0
VERTEX
  8
0
 10
-300.0
 20
50.0
  0
SEQEND
  8
0
  0
POLYLINE
  8
0
 62
0
 70
1
 66
1
 10
0.0
 20
0.0
 30
0.0
  0
VERTEX
  8
0
 10
-300.0
 20
600.0
  0
VERTEX
  8
0
 10
-240.0
 20
600.0
  0
VERTEX
  8
0
 10
-240.0
 20
600.0
  0
VERTEX
  8
0
 10
-300.0
 20
600.0
  0
SEQEND
  8
0
  0
POLYLINE
  8
0
 62
0
 70
1
 66
1
 10
0.0
 20
0.0
 30
0.0
  0
VERTEX
  8
0
 10
-240.0
 20
50.0
  0
VERTEX
  8
0
 10
-240.0
 20
50.0
  0
VERTEX
  8
0
 10
-240.0
 20
600.0
  0
VERTEX
  8
0
 10
-240.0
 20
600.0
  0
SEQEND
  8
0
  0
POLYLINE
  8
0
 62
0
 70
1
 66
1
 10
0.0
 20
0.0
 30
0.0
  0
VERTEX
  8
0
 10
-235.0
 20
50.0
  0
VERTEX
  8
0
 10
-235.0
 20
50.0
  0
VERTEX
  8
0
 10
-240.0
 20
50.0
  0
VERTEX
  8
0
 10
-240.0
 20
50.0
  0
SEQEND
  8
0
  0
POLYLINE
  8
0
 62
0
 70
1
 66
1
 10
0.0
 20
0.0
 30
0.0
  0
VERTEX
  8
0
 10
-235.0
 20
600.0
  0
VERTEX
  8
0
 10
-235.0
 20
600.0
  0
VERTEX
  8
0
 10
-235.0
 20
50.0
  0
VERTEX
  8
0
 10
-235.0
 20
50.0
  0
SEQEND
  8
0
  0
POLYLINE
  8
0
 62
0
 70
1
 66
1
 10
0.0
 20
0.0
 30
0.0
  0
VERTEX
  8
0
 10
-235.0
 20
600.0
  0
VERTEX
  8
0
 10
-207.5
 20
600.0
  0
VERTEX
  8
0
 10
-207.5
 20
600.0
  0
VERTEX
  8
0
 10
-235.0
 20
600.0
  0
SEQEND
  8
0
  0
POLYLINE
  8
0
 62
0
 70
1
 66
1
 10
0.0
 20
0.0
 30
0.0
  0
VERTEX
  8
0
 10
-207.5
 20
50.0
  0
VERTEX
  8
0
 10
-207.5
 20
50.0
  0
VERTEX
  8
0
 10
-207.5
 20
600.0
  0
VERTEX
  8
0
 10
-207.5
 20
600.0
  0
SEQEND
  8
0
  0
POLYLINE
  8
0
 62
0
 70
1
 66
1
 10
0.0
 20
0.0
 30
0.0
  0
VERTEX
  8
0
 10
-202.5
 20
50.0
  0
VERTEX
  8
0
 10
-202.5
 20
50.0
  0
VERTEX
  8
0
 10
-207.5
 20
50.0
  0
VERTEX
  8
0
 10
-207.5
 20
50.0
  0
SEQEND
  8
0
  0
POLYLINE
  8
0
 62
0
 70
1
 66
1
 10
0.0
 20
0.0
 30
0.0
  0
VERTEX
  8
0
 10
-202.5
 20
600.0
  0
VERTEX
  8
0
 10
-202.5
 20
600.0
  0
VERTEX
  8
0
 10
-202.5
 20
50.0
  0
VERTEX
  8
0
 10
-202.5
 20
50.0
  0
SEQEND
  8
0
  0
POLYLINE
  8
0
 62
0
 70
1
 66
1
 10
0.0
 20
0.0
 30
0.0
  0
VERTEX
  8
0
 10
-202.5
 20
600.0
  0
VERTEX
  8
0
 10
-175.0
 20
600.0
  0
VERTEX
  8
0
 10
-175.0
 20
600.0
  0
VERTEX
  8
0
 10
-202.5
 20
600.0
  0
SEQEND
  8
0
  0
POLYLINE
  8
0
 62
0
 70
1
 66
1
 10
0.0
 20
0.0
 30
0.0
  0
VERTEX
  8
0
 10
-175.0
 20
50.0
  0
VERTEX
  8
0
 10
-175.0
 20
50.0
  0
VERTEX
  8
0
 10
-175.0
 20
600.0
  0
VERTEX
  8
0
 10
-175.0
 20
600.0
  0
SEQEND
  8
0
  0
POLYLINE
  8
0
 62
0
 70
1
 66
1
 10
0.0
 20
0.0
 30
0.0
  0
VERTEX
  8
0
 10
-170.0
 20
50.0
  0
VERTEX
  8
0
 10
-170.0
 20
50.0
  0
VERTEX
  8
0
 10
-175.0
 20
50.0
  0
VERTEX
  8
0
 10
-175.0
 20
50.0
  0
SEQEND
  8
0
  0
POLYLINE
  8
0
 62
0
 70
1
 66
1
 10
0.0
 20
0.0
 30
0.0
  0
VERTEX
  8
0
 10
-170.0
 20
600.0
  0
VERTEX
  8
0
 10
-170.0
 20
600.0
  0
VERTEX
  8
0
 10
-170.0
 20
50.0
  0
VERTEX
  8
0
 10
-170.0
 20
50.0
  0
SEQEND
  8
0
  0
POLYLINE
  8
0
 62
0
 70
1
 66
1
 10
0.0
 20
0.0
 30
0.0
  0
VERTEX
  8
0
 10
-170.0
 20
600.0
  0
VERTEX
  8
0
 10
-110.0
 20
600.0
  0
VERTEX
  8
0
 10
-110.0
 20
600.0
  0
VERTEX
  8
0
 10
-170.0
 20
600.0
  0
SEQEND
  8
0
  0
POLYLINE
  8
0
 62
0
 70
1
 66
1
 10
0.0
 20
0.0
 30
0.0
  0
VERTEX
  8
0
 10
-110.0
 20
50.0
  0
VERTEX
  8
0
 10
-110.0
 20
50.0
  0
VERTEX
  8
0
 10
-110.0
 20
600.0
  0
VERTEX
  8
0
 10
-110.0
 20
600.0
  0
SEQEND
  8
0
  0
POLYLINE
  8
0
 62
0
 70
1
 66
1
 10
0.0
 20
0.0
 30
0.0
  0
VERTEX
  8
0
 10
-105.0
 20
50.0
  0
VERTEX
  8
0
 10
-105.0
 20
50.0
  0
VERTEX
  8
0
 10
-110.0
 20
50.0
  0
VERTEX
  8
0
 10
-110.0
 20
50.0
  0
SEQEND
  8
0
  0
POLYLINE
  8
0
 62
0
 70
1
 66
1
 10
0.0
 20
0.0
 30
0.0
  0
VERTEX
  8
0
 10
-105.0
 20
600.0
  0
VERTEX
  8
0
 10
-105.0
 20
600.0
  0
VERTEX
  8
0
 10
-105.0
 20
50.0
  0
VERTEX
  8
0
 10
-105.0
 20
50.0
  0
SEQEND
  8
0
  0
POLYLINE
  8
0
 62
0
 70
1
 66
1
 10
0.0
 20
0.0
 30
0.0
  0
VERTEX
  8
0
 10
-105.0
 20
600.0
  0
VERTEX
  8
0
 10
-77.5
 20
600.0
  0
VERTEX
  8
0
 10
-77.5
 20
600.0
  0
VERTEX
  8
0
 10
-105.0
 20
600.0
  0
SEQEND
  8
0
  0
POLYLINE
  8
0
 62
0
 70
1
 66
1
 10
0.0
 20
0.0
 30
0.0
  0
VERTEX
  8
0
 10
-77.5
 20
50.0
  0
VERTEX
  8
0
 10
-77.5
 20
50.0
  0
VERTEX
  8
0
 10
-77.5
 20
600.0
  0
VERTEX
  8
0
 10
-77.5
 20
600.0
  0
SEQEND
  8
0
  0
POLYLINE
  8
0
 62
0
 70
1
 66
1
 10
0.0
 20
0.0
 30
0.0
  0
VERTEX
  8
0
 10
-72.5
 20
50.0
  0
VERTEX
  8
0
 10
-72.5
 20
50.0
  0
VERTEX
  8
0
 10
-77.5
 20
50.0
  0
VERTEX
  8
0
 10
-77.5
 20
50.0
  0
SEQEND
  8
0
  0
POLYLINE
  8
0
 62
0
 70
1
 66
1
 10
0.0
 20
0.0
 30
0.0
  0
VERTEX
  8
0
 10
-72.5
 20
600.0
  0
VERTEX
  8
0
 10
-72.5
 20
600.0
  0
VERTEX
  8
0
 10
-72.5
 20
50.0
  0
VERTEX
  8
0
 10
-72.5
 20
50.0
  0
SEQEND
  8
0
  0
POLYLINE
  8
0
 62
0
 70
1
 66
1
 10
0.0
 20
0.0
 30
0.0
  0
VERTEX
  8
0
 10
-72.5
 20
600.0
  0
VERTEX
  8
0
 10
-45.0
 20
600.0
  0
VERTEX
  8
0
 10
-45.0
 20
600.0
  0
VERTEX
  8
0
 10
-72.5
 20
600.0
  0
SEQEND
  8
0
  0
POLYLINE
  8
0
 62
0
 70
1
 66
1
 10
0.0
 20
0.0
 30
0.0
  0
VERTEX
  8
0
 10
-45.0
 20
50.0
  0
VERTEX
  8
0
 10
-45.0
 20
50.0
  0
VERTEX
  8
0
 10
-45.0
 20
600.0
  0
VERTEX
  8
0
 10
-45.0
 20
600.0
  0
SEQEND
  8
0
  0
POLYLINE
  8
0
 62
0
 70
1
 66
1
 10
0.0
 20
0.0
 30
0.0
  0
VERTEX
  8
0
 10
-40.0
 20
50.0
  0
VERTEX
  8
0
 10
-40.0
 20
50.0
  0
VERTEX
  8
0
 10
-45.0
 20
50.0
  0
VERTEX
  8
0
 10
-45.0
 20
50.0
  0
SEQEND
  8
0
  0
POLYLINE
  8
0
 62
0
 70
1
 66
1
 10
0.0
 20
0.0
 30
0.0
  0
VERTEX
  8
0
 10
-40.0
 20
600.0
  0
VERTEX
  8
0
 10
-40.0
 20
600.0
  0
VERTEX
  8
0
 10
-40.0
 20
50.0
  0
VERTEX
  8
0
 10
-40.0
 20
50.0
  0
SEQEND
  8
0
  0
POLYLINE
  8
0
 62
0
 70
1
 66
1
 10
0.0
 20
0.0
 30
0.0
  0
VERTEX
  8
0
 10
-8.5
 20
45.5
  0
VERTEX
  8
0
 10
0.0
 20
45.5
  0
VERTEX
  8
0
 10
0.0
 20
45.5
  0
VERTEX
  8
0
 10
-8.5
 20
45.5
  0
SEQEND
  8
0
  0
POLYLINE
  8
0
 62
0
 70
1
 66
1
 10
0.0
 20
0.0
 30
0.0
  0
VERTEX
  8
0
 10
-8.5
 20
45.5
  0
VERTEX
  8
0
 10
-8.5
 20
45.5
  0
VERTEX
  8
0
 10
-8.5
 20
47.0
  0
VERTEX
  8
0
 10
-8.5
 20
47.0
  0
SEQEND
  8
0
  0
POLYLINE
  8
0
 62
0
 70
1
 66
1
 10
0.0
 20
0.0
 30
0.0
  0
VERTEX
  8
0
 10
-12.5
 20
47.0
  0
VERTEX
  8
0
 10
-12.5
 20
47.0
  0
VERTEX
  8
0
 10
-8.5
 20
47.0
  0
VERTEX
  8
0
 10
-8.5
 20
47.0
  0
SEQEND
  8
0
  0
POLYLINE
  8
0
 62
0
 70
1
 66
1
 10
0.0
 20
0.0
 30
0.0
  0
VERTEX
  8
0
 10
-12.5
 20
45.5
  0
VERTEX
  8
0
 10
-12.5
 20
45.5
  0
VERTEX
  8
0
 10
-12.5
 20
47.0
  0
VERTEX
  8
0
 10
-12.5
 20
47.0
  0
SEQEND
  8
0
  0
POLYLINE
  8
0
 62
0
 70
1
 66
1
 10
0.0
 20
0.0
 30
0.0
  0
VERTEX
  8
0
 10
-12.5
 20
45.5
  0
VERTEX
  8
0
 10
-12.5
 20
45.5
  0
VERTEX
  8
0
 10
-14.0
 20
45.5
  0
VERTEX
  8
0
 10
-14.0
 20
45.5
  0
SEQEND
  8
0
  0
POLYLINE
  8
0
 62
0
 70
1
 66
1
 10
0.0
 20
0.0
 30
0.0
  0
VERTEX
  8
0
 10
-14.0
 20
40.5
  0
VERTEX
  8
0
 10
-14.0
 20
40.5
  0
VERTEX
  8
0
 10
-14.0
 20
45.5
  0
VERTEX
  8
0
 10
-14.0
 20
45.5
  0
SEQEND
  8
0
  0
POLYLINE
  8
0
 62
0
 70
1
 66
1
 10
0.0
 20
0.0
 30
0.0
  0
VERTEX
  8
0
 10
-12.5
 20
40.5
  0
VERTEX
  8
0
 10
-12.5
 20
40.5
  0
VERTEX
  8
0
 10
-14.0
 20
40.5
  0
VERTEX
  8
0
 10
-14.0
 20
40.5
  0
SEQEND
  8
0
  0
POLYLINE
  8
0
 62
0
 70
1
 66
1
 10
0.0
 20
0.0
 30
0.0
  0
VERTEX
  8
0
 10
-12.5
 20
39.0
  0
VERTEX
  8
0
 10
-12.5
 20
40.5
  0
VERTEX
  8
0
 10
-12.5
 20
40.5
  0
VERTEX
  8
0
 10
-12.5
 20
39.0
  0
SEQEND
  8
0
  0
POLYLINE
  8
0
 62
0
 70
1
 66
1
 10
0.0
 20
0.0
 30
0.0
  0
VERTEX
  8
0
 10
-8.5
 20
39.0
  0
VERTEX
  8
0
 10
-8.5
 20
39.0
  0
VERTEX
  8
0
 10
-12.5
 20
39.0
  0
VERTEX
  8
0
 10
-12.5
 20
39.0
  0
SEQEND
  8
0
  0
POLYLINE
  8
0
 62
0
 70
1
 66
1
 10
0.0
 20
0.0
 30
0.0
  0
VERTEX
  8
0
 10
-8.5
 20
40.5
  0
VERTEX
  8
0
 10
-8.5
 20
39.0
  0
VERTEX
  8
0
 10
-8.5
 20
39.0
  0
VERTEX
  8
0
 10
-8.5
 20
40.5
  0
SEQEND
  8
0
  0
POLYLINE
  8
0
 62
0
 70
1
 66
1
 10
0.0
 20
0.0
 30
0.0
  0
VERTEX
  8
0
 10
0.0
 20
40.5
  0
VERTEX
  8
0
 10
-8.5
 20
40.5
  0
VERTEX
  8
0
 10
-8.5
 20
40.5
  0
VERTEX
  8
0
 10
0.0
 20
40.5
  0
SEQEND
  8
0
  0
POLYLINE
  8
0
 62
0
 70
1
 66
1
 10
0.0
 20
0.0
 30
0.0
  0
VERTEX
  8
0
 10
0.0
 20
40.5
  0
VERTEX
  8
0
 10
0.0
 20
36.0
  0
VERTEX
  8
0
 10
0.0
 20
36.0
  0
VERTEX
  8
0
 10
0.0
 20
40.5
  0
SEQEND
  8
0
  0
POLYLINE
  8
0
 62
0
 70
1
 66
1
 10
0.0
 20
0.0
 30
0.0
  0
VERTEX
  8
0
 10
0.0
 20
36.0
  0
VERTEX
  8
0
 10
0.0
 20
36.0
  0
VERTEX
  8
0
 10
-10.0
 20
36.0
  0
VERTEX
  8
0
 10
-10.0
 20
36.0
  0
SEQEND
  8
0
  0
POLYLINE
  8
0
 62
0
 70
1
 66
1
 10
0.0
 20
0.0
 30
0.0
  0
VERTEX
  8
0
 10
-10.0
 20
36.0
  0
VERTEX
  8
0
 10
-10.0
 20
36.0
  0
VERTEX
  8
0
 10
-10.0
 20
25.5259848155
  0
VERTEX
  8
0
 10
-10.0
 20
25.5259848155
  0
SEQEND
  8
0
  0
POLYLINE
  8
0
 62
0
 70
1
 66
1
 10
0.0
 20
0.0
 30
0.0
  0
VERTEX
  8
0
 10
-10.0
 20
25.5259848155
  0
VERTEX
  8
0
 10
-10.0
 20
25.5259848155
  0
VERTEX
  8
0
 10
0.0
 20
25.5259848155
  0
VERTEX
  8
0
 10
0.0
 20
25.5259848155
  0
SEQEND
  8
0
  0
POLYLINE
  8
0
 62
0
 70
1
 66
1
 10
0.0
 20
0.0
 30
0.0
  0
VERTEX
  8
0
 10
0.0
 20
25.5259848155
  0
VERTEX
  8
0
 10
0.0
 20
21.0259848155
  0
VERTEX
  8
0
 10
0.0
 20
21.0259848155
  0
VERTEX
  8
0
 10
0.0
 20
25.5259848155
  0
SEQEND
  8
0
  0
POLYLINE
  8
0
 62
0
 70
1
 66
1
 10
0.0
 20
0.0
 30
0.0
  0
VERTEX
  8
0
 10
-8.5
 20
21.0259848155
  0
VERTEX
  8
0
 10
0.0
 20
21.0259848155
  0
VERTEX
  8
0
 10
0.0
 20
21.0259848155
  0
VERTEX
  8
0
 10
-8.5
 20
21.0259848155
  0
SEQEND
  8
0
  0
POLYLINE
  8
0
 62
0
 70
1
 66
1
 10
0.0
 20
0.0
 30
0.0
  0
VERTEX
  8
0
 10
-8.5
 20
21.0259848155
  0
VERTEX
  8
0
 10
-8.5
 20
21.0259848155
  0
VERTEX
  8
0
 10
-8.5
 20
22.5259848155
  0
VERTEX
  8
0
 10
-8.5
 20
22.5259848155
  0
SEQEND
  8
0
  0
POLYLINE
  8
0
 62
0
 70
1
 66
1
 10
0.0
 20
0.0
 30
0.0
  0
VERTEX
  8
0
 10
-12.5
 20
22.5259848155
  0
VERTEX
  8
0
 10
-12.5
 20
22.5259848155
  0
VERTEX
  8
0
 10
-8.5
 20
22.5259848155
  0
VERTEX
  8
0
 10
-8.5
 20
22.5259848155
  0
SEQEND
  8
0
  0
POLYLINE
  8
0
 62
0
 70
1
 66
1
 10
0.0
 20
0.0
 30
0.0
  0
VERTEX
  8
0
 10
-12.5
 20
21.0259848155
  0
VERTEX
  8
0
 10
-12.5
 20
21.0259848155
  0
VERTEX
  8
0
 10
-12.5
 20
22.5259848155
  0
VERTEX
  8
0
 10
-12.5
 20
22.5259848155
  0
SEQEND
  8
0
  0
POLYLINE
  8
0
 62
0
 70
1
 66
1
 10
0.0
 20
0.0
 30
0.0
  0
VERTEX
  8
0
 10
-12.5
 20
21.0259848155
  0
VERTEX
  8
0
 10
-12.5
 20
21.0259848155
  0
VERTEX
  8
0
 10
-14.0
 20
21.0259848155
  0
VERTEX
  8
0
 10
-14.0
 20
21.0259848155
  0
SEQEND
  8
0
  0
POLYLINE
  8
0
 62
0
 70
1
 66
1
 10
0.0
 20
0.0
 30
0.0
  0
VERTEX
  8
0
 10
-14.0
 20
16.0259848155
  0
VERTEX
  8
0
 10
-14.0
 20
16.0259848155
  0
VERTEX
  8
0
 10
-14.0
 20
21.0259848155
  0
VERTEX
  8
0
 10
-14.0
 20
21.0259848155
  0
SEQEND
  8
0
  0
POLYLINE
  8
0
 62
0
 70
1
 66
1
 10
0.0
 20
0.0
 30
0.0
  0
VERTEX
  8
0
 10
-12.5
 20
16.0259848155
  0
VERTEX
  8
0
 10
-12.5
 20
16.0259848155
  0
VERTEX
  8
0
 10
-14.0
 20
16.0259848155
  0
VERTEX
  8
0
 10
-14.0
 20
16.0259848155
  0
SEQEND
  8
0
  0
POLYLINE
  8
0
 62
0
 70
1
 66
1
 10
0.0
 20
0.0
 30
0.0
  0
VERTEX
  8
0
 10
-12.5
 20
14.5259848155
  0
VERTEX
  8
0
 10
-12.5
 20
16.0259848155
  0
VERTEX
  8
0
 10
-12.5
 20
16.0259848155
  0
VERTEX
  8
0
 10
-12.5
 20
14.5259848155
  0
SEQEND
  8
0
  0
POLYLINE
  8
0
 62
0
 70
1
 66
1
 10
0.0
 20
0.0
 30
0.0
  0
VERTEX
  8
0
 10
-8.5
 20
14.5259848155
  0
VERTEX
  8
0
 10
-8.5
 20
14.5259848155
  0
VERTEX
  8
0
 10
-12.5
 20
14.5259848155
  0
VERTEX
  8
0
 10
-12.5
 20
14.5259848155
  0
SEQEND
  8
0
  0
POLYLINE
  8
0
 62
0
 70
1
 66
1
 10
0.0
 20
0.0
 30
0.0
  0
VERTEX
  8
0
 10
-8.5
 20
16.0259848155
  0
VERTEX
  8
0
 10
-8.5
 20
14.5259848155
  0
VERTEX
  8
0
 10
-8.5
 20
14.5259848155
  0
VERTEX
  8
0
 10
-8.5
 20
16.0259848155
  0
SEQEND
  8
0
  0
POLYLINE
  8
0
 62
0
 70
1
 66
1
 10
0.0
 20
0.0
 30
0.0
  0
VERTEX
  8
0
 10
0.0
 20
16.0259848155
  0
VERTEX
  8
0
 10
-8.5
 20
16.0259848155
  0
VERTEX
  8
0
 10
-8.5
 20
16.0259848155
  0
VERTEX
  8
0
 10
0.0
 20
16.0259848155
  0
SEQEND
  8
0
  0
POLYLINE
  8
0
 62
0
 70
1
 66
1
 10
0.0
 20
0.0
 30
0.0
  0
VERTEX
  8
0
 10
0.0
 20
16.0259848155
  0
VERTEX
  8
0
 10
0.0
 20
11.5259848155
  0
VERTEX
  8
0
 10
0.0
 20
11.5259848155
  0
VERTEX
  8
0
 10
0.0
 20
16.0259848155
  0
SEQEND
  8
0
  0
POLYLINE
  8
0
 62
0
 70
1
 66
1
 10
0.0
 20
0.0
 30
0.0
  0
VERTEX
  8
0
 10
-10.0
 20
11.5259848155
  0
VERTEX
  8
0
 10
-10.0
 20
11.5259848155
  0
VERTEX
  8
0
 10
0.0
 20
11.5259848155
  0
VERTEX
  8
0
 10
0.0
 20
11.5259848155
  0
SEQEND
  8
0
  0
POLYLINE
  8
0
 62
0
 70
1
 66
1
 10
0.0
 20
0.0
 30
0.0
  0
VERTEX
  8
0
 10
-10.0
 20
0.0
  0
VERTEX
  8
0
 10
-10.0
 20
0.0
  0
VERTEX
  8
0
 10
-10.0
 20
11.5259848155
  0
VERTEX
  8
0
 10
-10.0
 20
11.5259848155
  0
SEQEND
  8
0
  0
POLYLINE
  8
0
 62
0
 70
1
 66
1
 10
0.0
 20
0.0
 30
0.0
  0
VERTEX
  8
0
 10
-10.0
 20
0.0
  0
VERTEX
  8
0
 10
-530.0
 20
0.0
  0
VERTEX
  8
0
 10
-530.0
 20
0.0
  0
VERTEX
  8
0
 10
-10.0
 20
0.0
  0
SEQEND
  8
0
  0
POLYLINE
  8
0
 62
0
 70
1
 66
1
 10
0.0
 20
0.0
 30
0.0
  0
VERTEX
  8
0
 10
-530.0
 20
58.0
  0
VERTEX
  8
0
 10
-530.0
 20
58.0
  0
VERTEX
  8
0
 10
-530.0
 20
0.0
  0
VERTEX
  8
0
 10
-530.0
 20
0.0
  0
SEQEND
  8
0
  0
POLYLINE
  8
0
 62
0
 70
1
 66
1
 10
0.0
 20
0.0
 30
0.0
  0
VERTEX
  8
0
 10
-540.0
 20
58.0
  0
VERTEX
  8
0
 10
-540.0
 20
58.0
  0
VERTEX
  8
0
 10
-530.0
 20
58.0
  0
VERTEX
  8
0
 10
-530.0
 20
58.0
  0
SEQEND
  8
0
  0
POLYLINE
  8
0
 62
0
 70
1
 66
1
 10
0.0
 20
0.0
 30
0.0
  0
VERTEX
  8
0
 10
-540.0
 20
58.0
  0
VERTEX
  8
0
 10
-540.0
 20
62.5
  0
VERTEX
  8
0
 10
-540.0
 20
62.5
  0
VERTEX
  8
0
 10
-540.0
 20
58.0
  0
SEQEND
  8
0
  0
POLYLINE
  8
0
 62
0
 70
1
 66
1
 10
0.0
 20
0.0
 30
0.0
  0
VERTEX
  8
0
 10
-531.5
 20
62.5
  0
VERTEX
  8
0
 10
-531.5
 20
62.5
  0
VERTEX
  8
0
 10
-540.0
 20
62.5
  0
VERTEX
  8
0
 10
-540.0
 20
62.5
  0
SEQEND
  8
0
  0
POLYLINE
  8
0
 62
0
 70
1
 66
1
 10
0.0
 20
0.0
 30
0.0
  0
VERTEX
  8
0
 10
-531.5
 20
62.5
  0
VERTEX
  8
0
 10
-531.5
 20
62.5
  0
VERTEX
  8
0
 10
-531.5
 20
61.0
  0
VERTEX
  8
0
 10
-531.5
 20
61.0
  0
SEQEND
  8
0
  0
POLYLINE
  8
0
 62
0
 70
1
 66
1
 10
0.0
 20
0.0
 30
0.0
  0
VERTEX
  8
0
 10
-527.5
 20
61.0
  0
VERTEX
  8
0
 10
-527.5
 20
61.0
  0
VERTEX
  8
0
 10
-531.5
 20
61.0
  0
VERTEX
  8
0
 10
-531.5
 20
61.0
  0
SEQEND
  8
0
  0
POLYLINE
  8
0
 62
0
 70
1
 66
1
 10
0.0
 20
0.0
 30
0.0
  0
VERTEX
  8
0
 10
-527.5
 20
62.5
  0
VERTEX
  8
0
 10
-527.5
 20
62.5
  0
VERTEX
  8
0
 10
-527.5
 20
61.0
  0
VERTEX
  8
0
 10
-527.5
 20
61.0
  0
SEQEND
  8
0
  0
POLYLINE
  8
0
 62
0
 70
1
 66
1
 10
0.0
 20
0.0
 30
0.0
  0
VERTEX
  8
0
 10
-526.0
 20
62.5
  0
VERTEX
  8
0
 10
-527.5
 20
62.5
  0
VERTEX
  8
0
 10
-527.5
 20
62.5
  0
VERTEX
  8
0
 10
-526.0
 20
62.5
  0
SEQEND
  8
0
  0
POLYLINE
  8
0
 62
0
 70
1
 66
1
 10
0.0
 20
0.0
 30
0.0
  0
VERTEX
  8
0
 10
-526.0
 20
67.5
  0
VERTEX
  8
0
 10
-526.0
 20
67.5
  0
VERTEX
  8
0
 10
-526.0
 20
62.5
  0
VERTEX
  8
0
 10
-526.0
 20
62.5
  0
SEQEND
  8
0
  0
POLYLINE
  8
0
 62
0
 70
1
 66
1
 10
0.0
 20
0.0
 30
0.0
  0
VERTEX
  8
0
 10
-527.5
 20
67.5
  0
VERTEX
  8
0
 10
-526.0
 20
67.5
  0
VERTEX
  8
0
 10
-526.0
 20
67.5
  0
VERTEX
  8
0
 10
-527.5
 20
67.5
  0
SEQEND
  8
0
  0
POLYLINE
  8
0
 62
0
 70
1
 66
1
 10
0.0
 20
0.0
 30
0.0
  0
VERTEX
  8
0
 10
-527.5
 20
69.0
  0
VERTEX
  8
0
 10
-527.5
 20
67.5
  0
VERTEX
  8
0
 10
-527.5
 20
67.5
  0
VERTEX
  8
0
 10
-527.5
 20
69.0
  0
SEQEND
  8
0
  0
POLYLINE
  8
0
 62
0
 70
1
 66
1
 10
0.0
 20
0.0
 30
0.0
  0
VERTEX
  8
0
 10
-531.5
 20
69.0
  0
VERTEX
  8
0
 10
-531.5
 20
69.0
  0
VERTEX
  8
0
 10
-527.5
 20
69.0
  0
VERTEX
  8
0
 10
-527.5
 20
69.0
  0
SEQEND
  8
0
  0
POLYLINE
  8
0
 62
0
 70
1
 66
1
 10
0.0
 20
0.0
 30
0.0
  0
VERTEX
  8
0
 10
-531.5
 20
67.5
  0
VERTEX
  8
0
 10
-531.5
 20
69.0
  0
VERTEX
  8
0
 10
-531.5
 20
69.0
  0
VERTEX
  8
0
 10
-531.5
 20
67.5
  0
SEQEND
  8
0
  0
POLYLINE
  8
0
 62
0
 70
1
 66
1
 10
0.0
 20
0.0
 30
0.0
  0
VERTEX
  8
0
 10
-531.5
 20
67.5
  0
VERTEX
  8
0
 10
-531.5
 20
67.5
  0
VERTEX
  8
0
 10
-540.0
 20
67.5
  0
VERTEX
  8
0
 10
-540.0
 20
67.5
  0
SEQEND
  8
0
  0
POLYLINE
  8
0
 62
0
 70
1
 66
1
 10
0.0
 20
0.0
 30
0.0
  0
VERTEX
  8
0
 10
-540.0
 20
67.5
  0
VERTEX
  8
0
 10
-540.0
 20
72.0
  0
VERTEX
  8
0
 10
-540.0
 20
72.0
  0
VERTEX
  8
0
 10
-540.0
 20
67.5
  0
SEQEND
  8
0
  0
POLYLINE
  8
0
 62
0
 70
1
 66
1
 10
0.0
 20
0.0
 30
0.0
  0
VERTEX
  8
0
 10
-530.0
 20
72.0
  0
VERTEX
  8
0
 10
-530.0
 20
72.0
  0
VERTEX
  8
0
 10
-540.0
 20
72.0
  0
VERTEX
  8
0
 10
-540.0
 20
72.0
  0
SEQEND
  8
0
  0
POLYLINE
  8
0
 62
0
 70
1
 66
1
 10
0.0
 20
0.0
 30
0.0
  0
VERTEX
  8
0
 10
-530.0
 20
152.0
  0
VERTEX
  8
0
 10
-530.0
 20
152.0
  0
VERTEX
  8
0
 10
-530.0
 20
72.0
  0
VERTEX
  8
0
 10
-530.0
 20
72.0
  0
SEQEND
  8
0
  0
POLYLINE
  8
0
 62
0
 70
1
 66
1
 10
0.0
 20
0.0
 30
0.0
  0
VERTEX
  8
0
 10
-540.0
 20
152.0
  0
VERTEX
  8
0
 10
-540.0
 20
152.0
  0
VERTEX
  8
0
 10
-530.0
 20
152.0
  0
VERTEX
  8
0
 10
-530.0
 20
152.0
  0
SEQEND
  8
0
  0
POLYLINE
  8
0
 62
0
 70
1
 66
1
 10
0.0
 20
0.0
 30
0.0
  0
VERTEX
  8
0
 10
-540.0
 20
152.0
  0
VERTEX
  8
0
 10
-540.0
 20
156.5
  0
VERTEX
  8
0
 10
-540.0
 20
156.5
  0
VERTEX
  8
0
 10
-540.0
 20
152.0
  0
SEQEND
  8
0
  0
POLYLINE
  8
0
 62
0
 70
1
 66
1
 10
0.0
 20
0.0
 30
0.0
  0
VERTEX
  8
0
 10
-531.5
 20
156.5
  0
VERTEX
  8
0
 10
-531.5
 20
156.5
  0
VERTEX
  8
0
 10
-540.0
 20
156.5
  0
VERTEX
  8
0
 10
-540.0
 20
156.5
  0
SEQEND
  8
0
  0
POLYLINE
  8
0
 62
0
 70
1
 66
1
 10
0.0
 20
0.0
 30
0.0
  0
VERTEX
  8
0
 10
-531.5
 20
156.5
  0
VERTEX
  8
0
 10
-531.5
 20
156.5
  0
VERTEX
  8
0
 10
-531.5
 20
155.0
  0
VERTEX
  8
0
 10
-531.5
 20
155.0
  0
SEQEND
  8
0
  0
POLYLINE
  8
0
 62
0
 70
1
 66
1
 10
0.0
 20
0.0
 30
0.0
  0
VERTEX
  8
0
 10
-527.5
 20
155.0
  0
VERTEX
  8
0
 10
-527.5
 20
155.0
  0
VERTEX
  8
0
 10
-531.5
 20
155.0
  0
VERTEX
  8
0
 10
-531.5
 20
155.0
  0
SEQEND
  8
0
  0
POLYLINE
  8
0
 62
0
 70
1
 66
1
 10
0.0
 20
0.0
 30
0.0
  0
VERTEX
  8
0
 10
-527.5
 20
156.5
  0
VERTEX
  8
0
 10
-527.5
 20
156.5
  0
VERTEX
  8
0
 10
-527.5
 20
155.0
  0
VERTEX
  8
0
 10
-527.5
 20
155.0
  0
SEQEND
  8
0
  0
POLYLINE
  8
0
 62
0
 70
1
 66
1
 10
0.0
 20
0.0
 30
0.0
  0
VERTEX
  8
0
 10
-526.0
 20
156.5
  0
VERTEX
  8
0
 10
-527.5
 20
156.5
  0
VERTEX
  8
0
 10
-527.5
 20
156.5
  0
VERTEX
  8
0
 10
-526.0
 20
156.5
  0
SEQEND
  8
0
  0
POLYLINE
  8
0
 62
0
 70
1
 66
1
 10
0.0
 20
0.0
 30
0.0
  0
VERTEX
  8
0
 10
-526.0
 20
161.5
  0
VERTEX
  8
0
 10
-526.0
 20
161.5
  0
VERTEX
  8
0
 10
-526.0
 20
156.5
  0
VERTEX
  8
0
 10
-526.0
 20
156.5
  0
SEQEND
  8
0
  0
POLYLINE
  8
0
 62
0
 70
1
 66
1
 10
0.0
 20
0.0
 30
0.0
  0
VERTEX
  8
0
 10
-527.5
 20
161.5
  0
VERTEX
  8
0
 10
-526.0
 20
161.5
  0
VERTEX
  8
0
 10
-526.0
 20
161.5
  0
VERTEX
  8
0
 10
-527.5
 20
161.5
  0
SEQEND
  8
0
  0
POLYLINE
  8
0
 62
0
 70
1
 66
1
 10
0.0
 20
0.0
 30
0.0
  0
VERTEX
  8
0
 10
-527.5
 20
163.0
  0
VERTEX
  8
0
 10
-527.5
 20
161.5
  0
VERTEX
  8
0
 10
-527.5
 20
161.5
  0
VERTEX
  8
0
 10
-527.5
 20
163.0
  0
SEQEND
  8
0
  0
POLYLINE
  8
0
 62
0
 70
1
 66
1
 10
0.0
 20
0.0
 30
0.0
  0
VERTEX
  8
0
 10
-531.5
 20
163.0
  0
VERTEX
  8
0
 10
-531.5
 20
163.0
  0
VERTEX
  8
0
 10
-527.5
 20
163.0
  0
VERTEX
  8
0
 10
-527.5
 20
163.0
  0
SEQEND
  8
0
  0
POLYLINE
  8
0
 62
0
 70
1
 66
1
 10
0.0
 20
0.0
 30
0.0
  0
VERTEX
  8
0
 10
-531.5
 20
161.5
  0
VERTEX
  8
0
 10
-531.5
 20
163.0
  0
VERTEX
  8
0
 10
-531.5
 20
163.0
  0
VERTEX
  8
0
 10
-531.5
 20
161.5
  0
SEQEND
  8
0
  0
POLYLINE
  8
0
 62
0
 70
1
 66
1
 10
0.0
 20
0.0
 30
0.0
  0
VERTEX
  8
0
 10
-531.5
 20
161.5
  0
VERTEX
  8
0
 10
-531.5
 20
161.5
  0
VERTEX
  8
0
 10
-540.0
 20
161.5
  0
VERTEX
  8
0
 10
-540.0
 20
161.5
  0
SEQEND
  8
0
  0
POLYLINE
  8
0
 62
0
 70
1
 66
1
 10
0.0
 20
0.0
 30
0.0
  0
VERTEX
  8
0
 10
-540.0
 20
161.5
  0
VERTEX
  8
0
 10
-540.0
 20
166.0
  0
VERTEX
  8
0
 10
-540.0
 20
166.0
  0
VERTEX
  8
0
 10
-540.0
 20
161.5
  0
SEQEND
  8
0
  0
POLYLINE
  8
0
 62
0
 70
1
 66
1
 10
0.0
 20
0.0
 30
0.0
  0
VERTEX
  8
0
 10
-530.0
 20
166.0
  0
VERTEX
  8
0
 10
-530.0
 20
166.0
  0
VERTEX
  8
0
 10
-540.0
 20
166.0
  0
VERTEX
  8
0
 10
-540.0
 20
166.0
  0
SEQEND
  8
0
  0
POLYLINE
  8
0
 62
0
 70
1
 66
1
 10
0.0
 20
0.0
 30
0.0
  0
VERTEX
  8
0
 10
-530.0
 20
246.0
  0
VERTEX
  8
0
 10
-530.0
 20
246.0
  0
VERTEX
  8
0
 10
-530.0
 20
166.0
  0
VERTEX
  8
0
 10
-530.0
 20
166.0
  0
SEQEND
  8
0
  0
POLYLINE
  8
0
 62
0
 70
1
 66
1
 10
0.0
 20
0.0
 30
0.0
  0
VERTEX
  8
0
 10
-540.0
 20
246.0
  0
VERTEX
  8
0
 10
-540.0
 20
246.0
  0
VERTEX
  8
0
 10
-530.0
 20
246.0
  0
VERTEX
  8
0
 10
-530.0
 20
246.0
  0
SEQEND
  8
0
  0
POLYLINE
  8
0
 62
0
 70
1
 66
1
 10
0.0
 20
0.0
 30
0.0
  0
VERTEX
  8
0
 10
-540.0
 20
246.0
  0
VERTEX
  8
0
 10
-540.0
 20
250.5
  0
VERTEX
  8
0
 10
-540.0
 20
250.5
  0
VERTEX
  8
0
 10
-540.0
 20
246.0
  0
SEQEND
  8
0
  0
POLYLINE
  8
0
 62
0
 70
1
 66
1
 10
0.0
 20
0.0
 30
0.0
  0
VERTEX
  8
0
 10
-531.5
 20
250.5
  0
VERTEX
  8
0
 10
-531.5
 20
250.5
  0
VERTEX
  8
0
 10
-540.0
 20
250.5
  0
VERTEX
  8
0
 10
-540.0
 20
250.5
  0
SEQEND
  8
0
  0
POLYLINE
  8
0
 62
0
 70
1
 66
1
 10
0.0
 20
0.0
 30
0.0
  0
VERTEX
  8
0
 10
-531.5
 20
250.5
  0
VERTEX
  8
0
 10
-531.5
 20
250.5
  0
VERTEX
  8
0
 10
-531.5
 20
249.0
  0
VERTEX
  8
0
 10
-531.5
 20
249.0
  0
SEQEND
  8
0
  0
POLYLINE
  8
0
 62
0
 70
1
 66
1
 10
0.0
 20
0.0
 30
0.0
  0
VERTEX
  8
0
 10
-527.5
 20
249.0
  0
VERTEX
  8
0
 10
-527.5
 20
249.0
  0
VERTEX
  8
0
 10
-531.5
 20
249.0
  0
VERTEX
  8
0
 10
-531.5
 20
249.0
  0
SEQEND
  8
0
  0
POLYLINE
  8
0
 62
0
 70
1
 66
1
 10
0.0
 20
0.0
 30
0.0
  0
VERTEX
  8
0
 10
-527.5
 20
250.5
  0
VERTEX
  8
0
 10
-527.5
 20
250.5
  0
VERTEX
  8
0
 10
-527.5
 20
249.0
  0
VERTEX
  8
0
 10
-527.5
 20
249.0
  0
SEQEND
  8
0
  0
POLYLINE
  8
0
 62
0
 70
1
 66
1
 10
0.0
 20
0.0
 30
0.0
  0
VERTEX
  8
0
 10
-526.0
 20
250.5
  0
VERTEX
  8
0
 10
-527.5
 20
250.5
  0
VERTEX
  8
0
 10
-527.5
 20
250.5
  0
VERTEX
  8
0
 10
-526.0
 20
250.5
  0
SEQEND
  8
0
  0
POLYLINE
  8
0
 62
0
 70
1
 66
1
 10
0.0
 20
0.0
 30
0.0
  0
VERTEX
  8
0
 10
-526.0
 20
255.5
  0
VERTEX
  8
0
 10
-526.0
 20
255.5
  0
VERTEX
  8
0
 10
-526.0
 20
250.5
  0
VERTEX
  8
0
 10
-526.0
 20
250.5
  0
SEQEND
  8
0
  0
POLYLINE
  8
0
 62
0
 70
1
 66
1
 10
0.0
 20
0.0
 30
0.0
  0
VERTEX
  8
0
 10
-527.5
 20
255.5
  0
VERTEX
  8
0
 10
-526.0
 20
255.5
  0
VERTEX
  8
0
 10
-526.0
 20
255.5
  0
VERTEX
  8
0
 10
-527.5
 20
255.5
  0
SEQEND
  8
0
  0
POLYLINE
  8
0
 62
0
 70
1
 66
1
 10
0.0
 20
0.0
 30
0.0
  0
VERTEX
  8
0
 10
-527.5
 20
257.0
  0
VERTEX
  8
0
 10
-527.5
 20
255.5
  0
VERTEX
  8
0
 10
-527.5
 20
255.5
  0
VERTEX
  8
0
 10
-527.5
 20
257.0
  0
SEQEND
  8
0
  0
POLYLINE
  8
0
 62
0
 70
1
 66
1
 10
0.0
 20
0.0
 30
0.0
  0
VERTEX
  8
0
 10
-531.5
 20
257.0
  0
VERTEX
  8
0
 10
-531.5
 20
257.0
  0
VERTEX
  8
0
 10
-527.5
 20
257.0
  0
VERTEX
  8
0
 10
-527.5
 20
257.0
  0
SEQEND
  8
0
  0
POLYLINE
  8
0
 62
0
 70
1
 66
1
 10
0.0
 20
0.0
 30
0.0
  0
VERTEX
  8
0
 10
-531.5
 20
255.5
  0
VERTEX
  8
0
 10
-531.5
 20
257.0
  0
VERTEX
  8
0
 10
-531.5
 20
257.0
  0
VERTEX
  8
0
 10
-531.5
 20
255.5
  0
SEQEND
  8
0
  0
POLYLINE
  8
0
 62
0
 70
1
 66
1
 10
0.0
 20
0.0
 30
0.0
  0
VERTEX
  8
0
 10
-531.5
 20
255.5
  0
VERTEX
  8
0
 10
-531.5
 20
255.5
  0
VERTEX
  8
0
 10
-540.0
 20
255.5
  0
VERTEX
  8
0
 10
-540.0
 20
255.5
  0
SEQEND
  8
0
  0
POLYLINE
  8
0
 62
0
 70
1
 66
1
 10
0.0
 20
0.0
 30
0.0
  0
VERTEX
  8
0
 10
-540.0
 20
255.5
  0
VERTEX
  8
0
 10
-540.0
 20
260.0
  0
VERTEX
  8
0
 10
-540.0
 20
260.0
  0
VERTEX
  8
0
 10
-540.0
 20
255.5
  0
SEQEND
  8
0
  0
POLYLINE
  8
0
 62
0
 70
1
 66
1
 10
0.0
 20
0.0
 30
0.0
  0
VERTEX
  8
0
 10
-530.0
 20
260.0
  0
VERTEX
  8
0
 10
-530.0
 20
260.0
  0
VERTEX
  8
0
 10
-540.0
 20
260.0
  0
VERTEX
  8
0
 10
-540.0
 20
260.0
  0
SEQEND
  8
0
  0
POLYLINE
  8
0
 62
0
 70
1
 66
1
 10
0.0
 20
0.0
 30
0.0
  0
VERTEX
  8
0
 10
-530.0
 20
340.0
  0
VERTEX
  8
0
 10
-530.0
 20
340.0
  0
VERTEX
  8
0
 10
-530.0
 20
260.0
  0
VERTEX
  8
0
 10
-530.0
 20
260.0
  0
SEQEND
  8
0
  0
POLYLINE
  8
0
 62
0
 70
1
 66
1
 10
0.0
 20
0.0
 30
0.0
  0
VERTEX
  8
0
 10
-540.0
 20
340.0
  0
VERTEX
  8
0
 10
-540.0
 20
340.0
  0
VERTEX
  8
0
 10
-530.0
 20
340.0
  0
VERTEX
  8
0
 10
-530.0
 20
340.0
  0
SEQEND
  8
0
  0
POLYLINE
  8
0
 62
0
 70
1
 66
1
 10
0.0
 20
0.0
 30
0.0
  0
VERTEX
  8
0
 10
-540.0
 20
340.0
  0
VERTEX
  8
0
 10
-540.0
 20
344.5
  0
VERTEX
  8
0
 10
-540.0
 20
344.5
  0
VERTEX
  8
0
 10
-540.0
 20
340.0
  0
SEQEND
  8
0
  0
POLYLINE
  8
0
 62
0
 70
1
 66
1
 10
0.0
 20
0.0
 30
0.0
  0
VERTEX
  8
0
 10
-531.5
 20
344.5
  0
VERTEX
  8
0
 10
-531.5
 20
344.5
  0
VERTEX
  8
0
 10
-540.0
 20
344.5
  0
VERTEX
  8
0
 10
-540.0
 20
344.5
  0
SEQEND
  8
0
  0
POLYLINE
  8
0
 62
0
 70
1
 66
1
 10
0.0
 20
0.0
 30
0.0
  0
VERTEX
  8
0
 10
-531.5
 20
344.5
  0
VERTEX
  8
0
 10
-531.5
 20
344.5
  0
VERTEX
  8
0
 10
-531.5
 20
343.0
  0
VERTEX
  8
0
 10
-531.5
 20
343.0
  0
SEQEND
  8
0
  0
POLYLINE
  8
0
 62
0
 70
1
 66
1
 10
0.0
 20
0.0
 30
0.0
  0
VERTEX
  8
0
 10
-527.5
 20
343.0
  0
VERTEX
  8
0
 10
-527.5
 20
343.0
  0
VERTEX
  8
0
 10
-531.5
 20
343.0
  0
VERTEX
  8
0
 10
-531.5
 20
343.0
  0
SEQEND
  8
0
  0
POLYLINE
  8
0
 62
0
 70
1
 66
1
 10
0.0
 20
0.0
 30
0.0
  0
VERTEX
  8
0
 10
-527.5
 20
344.5
  0
VERTEX
  8
0
 10
-527.5
 20
344.5
  0
VERTEX
  8
0
 10
-527.5
 20
343.0
  0
VERTEX
  8
0
 10
-527.5
 20
343.0
  0
SEQEND
  8
0
  0
POLYLINE
  8
0
 62
0
 70
1
 66
1
 10
0.0
 20
0.0
 30
0.0
  0
VERTEX
  8
0
 10
-526.0
 20
344.5
  0
VERTEX
  8
0
 10
-527.5
 20
344.5
  0
VERTEX
  8
0
 10
-527.5
 20
344.5
  0
VERTEX
  8
0
 10
-526.0
 20
344.5
  0
SEQEND
  8
0
  0
POLYLINE
  8
0
 62
0
 70
1
 66
1
 10
0.0
 20
0.0
 30
0.0
  0
VERTEX
  8
0
 10
-526.0
 20
349.5
  0
VERTEX
  8
0
 10
-526.0
 20
349.5
  0
VERTEX
  8
0
 10
-526.0
 20
344.5
  0
VERTEX
  8
0
 10
-526.0
 20
344.5
  0
SEQEND
  8
0
  0
POLYLINE
  8
0
 62
0
 70
1
 66
1
 10
0.0
 20
0.0
 30
0.0
  0
VERTEX
  8
0
 10
-527.5
 20
349.5
  0
VERTEX
  8
0
 10
-526.0
 20
349.5
  0
VERTEX
  8
0
 10
-526.0
 20
349.5
  0
VERTEX
  8
0
 10
-527.5
 20
349.5
  0
SEQEND
  8
0
  0
POLYLINE
  8
0
 62
0
 70
1
 66
1
 10
0.0
 20
0.0
 30
0.0
  0
VERTEX
  8
0
 10
-527.5
 20
351.0
  0
VERTEX
  8
0
 10
-527.5
 20
349.5
  0
VERTEX
  8
0
 10
-527.5
 20
349.5
  0
VERTEX
  8
0
 10
-527.5
 20
351.0
  0
SEQEND
  8
0
  0
POLYLINE
  8
0
 62
0
 70
1
 66
1
 10
0.0
 20
0.0
 30
0.0
  0
VERTEX
  8
0
 10
-531.5
 20
351.0
  0
VERTEX
  8
0
 10
-531.5
 20
351.0
  0
VERTEX
  8
0
 10
-527.5
 20
351.0
  0
VERTEX
  8
0
 10
-527.5
 20
351.0
  0
SEQEND
  8
0
  0
POLYLINE
  8
0
 62
0
 70
1
 66
1
 10
0.0
 20
0.0
 30
0.0
  0
VERTEX
  8
0
 10
-531.5
 20
349.5
  0
VERTEX
  8
0
 10
-531.5
 20
351.0
  0
VERTEX
  8
0
 10
-531.5
 20
351.0
  0
VERTEX
  8
0
 10
-531.5
 20
349.5
  0
SEQEND
  8
0
  0
POLYLINE
  8
0
 62
0
 70
1
 66
1
 10
0.0
 20
0.0
 30
0.0
  0
VERTEX
  8
0
 10
-531.5
 20
349.5
  0
VERTEX
  8
0
 10
-531.5
 20
349.5
  0
VERTEX
  8
0
 10
-540.0
 20
349.5
  0
VERTEX
  8
0
 10
-540.0
 20
349.5
  0
SEQEND
  8
0
  0
POLYLINE
  8
0
 62
0
 70
1
 66
1
 10
0.0
 20
0.0
 30
0.0
  0
VERTEX
  8
0
 10
-540.0
 20
349.5
  0
VERTEX
  8
0
 10
-540.0
 20
354.0
  0
VERTEX
  8
0
 10
-540.0
 20
354.0
  0
VERTEX
  8
0
 10
-540.0
 20
349.5
  0
SEQEND
  8
0
  0
POLYLINE
  8
0
 62
0
 70
1
 66
1
 10
0.0
 20
0.0
 30
0.0
  0
VERTEX
  8
0
 10
-530.0
 20
354.0
  0
VERTEX
  8
0
 10
-530.0
 20
354.0
  0
VERTEX
  8
0
 10
-540.0
 20
354.0
  0
VERTEX
  8
0
 10
-540.0
 20
354.0
  0
SEQEND
  8
0
  0
POLYLINE
  8
0
 62
0
 70
1
 66
1
 10
0.0
 20
0.0
 30
0.0
  0
VERTEX
  8
0
 10
-530.0
 20
434.0
  0
VERTEX
  8
0
 10
-530.0
 20
434.0
  0
VERTEX
  8
0
 10
-530.0
 20
354.0
  0
VERTEX
  8
0
 10
-530.0
 20
354.0
  0
SEQEND
  8
0
  0
POLYLINE
  8
0
 62
0
 70
1
 66
1
 10
0.0
 20
0.0
 30
0.0
  0
VERTEX
  8
0
 10
-540.0
 20
434.0
  0
VERTEX
  8
0
 10
-540.0
 20
434.0
  0
VERTEX
  8
0
 10
-530.0
 20
434.0
  0
VERTEX
  8
0
 10
-530.0
 20
434.0
  0
SEQEND
  8
0
  0
POLYLINE
  8
0
 62
0
 70
1
 66
1
 10
0.0
 20
0.0
 30
0.0
  0
VERTEX
  8
0
 10
-540.0
 20
434.0
  0
VERTEX
  8
0
 10
-540.0
 20
438.5
  0
VERTEX
  8
0
 10
-540.0
 20
438.5
  0
VERTEX
  8
0
 10
-540.0
 20
434.0
  0
SEQEND
  8
0
  0
POLYLINE
  8
0
 62
0
 70
1
 66
1
 10
0.0
 20
0.0
 30
0.0
  0
VERTEX
  8
0
 10
-531.5
 20
438.5
  0
VERTEX
  8
0
 10
-531.5
 20
438.5
  0
VERTEX
  8
0
 10
-540.0
 20
438.5
  0
VERTEX
  8
0
 10
-540.0
 20
438.5
  0
SEQEND
  8
0
  0
POLYLINE
  8
0
 62
0
 70
1
 66
1
 10
0.0
 20
0.0
 30
0.0
  0
VERTEX
  8
0
 10
-531.5
 20
438.5
  0
VERTEX
  8
0
 10
-531.5
 20
438.5
  0
VERTEX
  8
0
 10
-531.5
 20
437.0
  0
VERTEX
  8
0
 10
-531.5
 20
437.0
  0
SEQEND
  8
0
  0
POLYLINE
  8
0
 62
0
 70
1
 66
1
 10
0.0
 20
0.0
 30
0.0
  0
VERTEX
  8
0
 10
-527.5
 20
437.0
  0
VERTEX
  8
0
 10
-527.5
 20
437.0
  0
VERTEX
  8
0
 10
-531.5
 20
437.0
  0
VERTEX
  8
0
 10
-531.5
 20
437.0
  0
SEQEND
  8
0
  0
POLYLINE
  8
0
 62
0
 70
1
 66
1
 10
0.0
 20
0.0
 30
0.0
  0
VERTEX
  8
0
 10
-527.5
 20
438.5
  0
VERTEX
  8
0
 10
-527.5
 20
438.5
  0
VERTEX
  8
0
 10
-527.5
 20
437.0
  0
VERTEX
  8
0
 10
-527.5
 20
437.0
  0
SEQEND
  8
0
  0
POLYLINE
  8
0
 62
0
 70
1
 66
1
 10
0.0
 20
0.0
 30
0.0
  0
VERTEX
  8
0
 10
-526.0
 20
438.5
  0
VERTEX
  8
0
 10
-527.5
 20
438.5
  0
VERTEX
  8
0
 10
-527.5
 20
438.5
  0
VERTEX
  8
0
 10
-526.0
 20
438.5
  0
SEQEND
  8
0
  0
POLYLINE
  8
0
 62
0
 70
1
 66
1
 10
0.0
 20
0.0
 30
0.0
  0
VERTEX
  8
0
 10
-526.0
 20
443.5
  0
VERTEX
  8
0
 10
-526.0
 20
443.5
  0
VERTEX
  8
0
 10
-526.0
 20
438.5
  0
VERTEX
  8
0
 10
-526.0
 20
438.5
  0
SEQEND
  8
0
  0
POLYLINE
  8
0
 62
0
 70
1
 66
1
 10
0.0
 20
0.0
 30
0.0
  0
VERTEX
  8
0
 10
-527.5
 20
443.5
  0
VERTEX
  8
0
 10
-526.0
 20
443.5
  0
VERTEX
  8
0
 10
-526.0
 20
443.5
  0
VERTEX
  8
0
 10
-527.5
 20
443.5
  0
SEQEND
  8
0
  0
POLYLINE
  8
0
 62
0
 70
1
 66
1
 10
0.0
 20
0.0
 30
0.0
  0
VERTEX
  8
0
 10
-527.5
 20
445.0
  0
VERTEX
  8
0
 10
-527.5
 20
443.5
  0
VERTEX
  8
0
 10
-527.5
 20
443.5
  0
VERTEX
  8
0
 10
-527.5
 20
445.0
  0
SEQEND
  8
0
  0
POLYLINE
  8
0
 62
0
 70
1
 66
1
 10
0.0
 20
0.0
 30
0.0
  0
VERTEX
  8
0
 10
-531.5
 20
445.0
  0
VERTEX
  8
0
 10
-531.5
 20
445.0
  0
VERTEX
  8
0
 10
-527.5
 20
445.0
  0
VERTEX
  8
0
 10
-527.5
 20
445.0
  0
SEQEND
  8
0
  0
POLYLINE
  8
0
 62
0
 70
1
 66
1
 10
0.0
 20
0.0
 30
0.0
  0
VERTEX
  8
0
 10
-531.5
 20
443.5
  0
VERTEX
  8
0
 10
-531.5
 20
445.0
  0
VERTEX
  8
0
 10
-531.5
 20
445.0
  0
VERTEX
  8
0
 10
-531.5
 20
443.5
  0
SEQEND
  8
0
  0
POLYLINE
  8
0
 62
0
 70
1
 66
1
 10
0.0
 20
0.0
 30
0.0
  0
VERTEX
  8
0
 10
-531.5
 20
443.5
  0
VERTEX
  8
0
 10
-531.5
 20
443.5
  0
VERTEX
  8
0
 10
-540.0
 20
443.5
  0
VERTEX
  8
0
 10
-540.0
 20
443.5
  0
SEQEND
  8
0
  0
POLYLINE
  8
0
 62
0
 70
1
 66
1
 10
0.0
 20
0.0
 30
0.0
  0
VERTEX
  8
0
 10
-540.0
 20
443.5
  0
VERTEX
  8
0
 10
-540.0
 20
448.0
  0
VERTEX
  8
0
 10
-540.0
 20
448.0
  0
VERTEX
  8
0
 10
-540.0
 20
443.5
  0
SEQEND
  8
0
  0
POLYLINE
  8
0
 62
0
 70
1
 66
1
 10
0.0
 20
0.0
 30
0.0
  0
VERTEX
  8
0
 10
-530.0
 20
448.0
  0
VERTEX
  8
0
 10
-530.0
 20
448.0
  0
VERTEX
  8
0
 10
-540.0
 20
448.0
  0
VERTEX
  8
0
 10
-540.0
 20
448.0
  0
SEQEND
  8
0
  0
POLYLINE
  8
0
 62
0
 70
1
 66
1
 10
0.0
 20
0.0
 30
0.0
  0
VERTEX
  8
0
 10
-530.0
 20
528.0
  0
VERTEX
  8
0
 10
-530.0
 20
528.0
  0
VERTEX
  8
0
 10
-530.0
 20
448.0
  0
VERTEX
  8
0
 10
-530.0
 20
448.0
  0
SEQEND
  8
0
  0
POLYLINE
  8
0
 62
0
 70
1
 66
1
 10
0.0
 20
0.0
 30
0.0
  0
VERTEX
  8
0
 10
-540.0
 20
528.0
  0
VERTEX
  8
0
 10
-540.0
 20
528.0
  0
VERTEX
  8
0
 10
-530.0
 20
528.0
  0
VERTEX
  8
0
 10
-530.0
 20
528.0
  0
SEQEND
  8
0
  0
POLYLINE
  8
0
 62
0
 70
1
 66
1
 10
0.0
 20
0.0
 30
0.0
  0
VERTEX
  8
0
 10
-540.0
 20
528.0
  0
VERTEX
  8
0
 10
-540.0
 20
532.5
  0
VERTEX
  8
0
 10
-540.0
 20
532.5
  0
VERTEX
  8
0
 10
-540.0
 20
528.0
  0
SEQEND
  8
0
  0
POLYLINE
  8
0
 62
0
 70
1
 66
1
 10
0.0
 20
0.0
 30
0.0
  0
VERTEX
  8
0
 10
-531.5
 20
532.5
  0
VERTEX
  8
0
 10
-531.5
 20
532.5
  0
VERTEX
  8
0
 10
-540.0
 20
532.5
  0
VERTEX
  8
0
 10
-540.0
 20
532.5
  0
SEQEND
  8
0
  0
POLYLINE
  8
0
 62
0
 70
1
 66
1
 10
0.0
 20
0.0
 30
0.0
  0
VERTEX
  8
0
 10
-531.5
 20
532.5
  0
VERTEX
  8
0
 10
-531.5
 20
532.5
  0
VERTEX
  8
0
 10
-531.5
 20
531.0
  0
VERTEX
  8
0
 10
-531.5
 20
531.0
  0
SEQEND
  8
0
  0
POLYLINE
  8
0
 62
0
 70
1
 66
1
 10
0.0
 20
0.0
 30
0.0
  0
VERTEX
  8
0
 10
-527.5
 20
531.0
  0
VERTEX
  8
0
 10
-527.5
 20
531.0
  0
VERTEX
  8
0
 10
-531.5
 20
531.0
  0
VERTEX
  8
0
 10
-531.5
 20
531.0
  0
SEQEND
  8
0
  0
POLYLINE
  8
0
 62
0
 70
1
 66
1
 10
0.0
 20
0.0
 30
0.0
  0
VERTEX
  8
0
 10
-527.5
 20
532.5
  0
VERTEX
  8
0
 10
-527.5
 20
532.5
  0
VERTEX
  8
0
 10
-527.5
 20
531.0
  0
VERTEX
  8
0
 10
-527.5
 20
531.0
  0
SEQEND
  8
0
  0
POLYLINE
  8
0
 62
0
 70
1
 66
1
 10
0.0
 20
0.0
 30
0.0
  0
VERTEX
  8
0
 10
-526.0
 20
532.5
  0
VERTEX
  8
0
 10
-527.5
 20
532.5
  0
VERTEX
  8
0
 10
-527.5
 20
532.5
  0
VERTEX
  8
0
 10
-526.0
 20
532.5
  0
SEQEND
  8
0
  0
POLYLINE
  8
0
 62
0
 70
1
 66
1
 10
0.0
 20
0.0
 30
0.0
  0
VERTEX
  8
0
 10
-526.0
 20
537.5
  0
VERTEX
  8
0
 10
-526.0
 20
537.5
  0
VERTEX
  8
0
 10
-526.0
 20
532.5
  0
VERTEX
  8
0
 10
-526.0
 20
532.5
  0
SEQEND
  8
0
  0
POLYLINE
  8
0
 62
0
 70
1
 66
1
 10
0.0
 20
0.0
 30
0.0
  0
VERTEX
  8
0
 10
-527.5
 20
537.5
  0
VERTEX
  8
0
 10
-526.0
 20
537.5
  0
VERTEX
  8
0
 10
-526.0
 20
537.5
  0
VERTEX
  8
0
 10
-527.5
 20
537.5
  0
SEQEND
  8
0
  0
POLYLINE
  8
0
 62
0
 70
1
 66
1
 10
0.0
 20
0.0
 30
0.0
  0
VERTEX
  8
0
 10
-527.5
 20
539.0
  0
VERTEX
  8
0
 10
-527.5
 20
537.5
  0
VERTEX
  8
0
 10
-527.5
 20
537.5
  0
VERTEX
  8
0
 10
-527.5
 20
539.0
  0
SEQEND
  8
0
  0
POLYLINE
  8
0
 62
0
 70
1
 66
1
 10
0.0
 20
0.0
 30
0.0
  0
VERTEX
  8
0
 10
-531.5
 20
539.0
  0
VERTEX
  8
0
 10
-531.5
 20
539.0
  0
VERTEX
  8
0
 10
-527.5
 20
539.0
  0
VERTEX
  8
0
 10
-527.5
 20
539.0
  0
SEQEND
  8
0
  0
POLYLINE
  8
0
 62
0
 70
1
 66
1
 10
0.0
 20
0.0
 30
0.0
  0
VERTEX
  8
0
 10
-531.5
 20
537.5
  0
VERTEX
  8
0
 10
-531.5
 20
539.0
  0
VERTEX
  8
0
 10
-531.5
 20
539.0
  0
VERTEX
  8
0
 10
-531.5
 20
537.5
  0
SEQEND
  8
0
  0
POLYLINE
  8
0
 62
0
 70
1
 66
1
 10
0.0
 20
0.0
 30
0.0
  0
VERTEX
  8
0
 10
-531.5
 20
537.5
  0
VERTEX
  8
0
 10
-531.5
 20
537.5
  0
VERTEX
  8
0
 10
-540.0
 20
537.5
  0
VERTEX
  8
0
 10
-540.0
 20
537.5
  0
SEQEND
  8
0
  0
POLYLINE
  8
0
 62
0
 70
1
 66
1
 10
0.0
 20
0.0
 30
0.0
  0
VERTEX
  8
0
 10
-540.0
 20
537.5
  0
VERTEX
  8
0
 10
-540.0
 20
542.0
  0
VERTEX
  8
0
 10
-540.0
 20
542.0
  0
VERTEX
  8
0
 10
-540.0
 20
537.5
  0
SEQEND
  8
0
  0
POLYLINE
  8
0
 62
0
 70
1
 66
1
 10
0.0
 20
0.0
 30
0.0
  0
VERTEX
  8
0
 10
-530.0
 20
542.0
  0
VERTEX
  8
0
 10
-530.0
 20
542.0
  0
VERTEX
  8
0
 10
-540.0
 20
542.0
  0
VERTEX
  8
0
 10
-540.0
 20
542.0
  0
SEQEND
  8
0
  0
POLYLINE
  8
0
 62
0
 70
1
 66
1
 10
0.0
 20
0.0
 30
0.0
  0
VERTEX
  8
0
 10
-530.0
 20
600.0
  0
VERTEX
  8
0
 10
-530.0
 20
600.0
  0
VERTEX
  8
0
 10
-530.0
 20
542.0
  0
VERTEX
  8
0
 10
-530.0
 20
542.0
  0
SEQEND
  8
0
  0
ENDSEC
  0
EOF
