<svg xmlns="http://www.w3.org/2000/svg" viewBox="0 0 402.48 546.52"><defs><style>.cls-1,.cls-17{fill:#ff7b00;}.cls-1,.cls-10,.cls-11,.cls-12,.cls-13,.cls-14,.cls-15,.cls-16,.cls-2,.cls-3,.cls-4,.cls-5,.cls-6,.cls-7,.cls-8,.cls-9{stroke:#fff;stroke-width:40px;}.cls-18,.cls-2{fill:#86a0a6;}.cls-10,.cls-11,.cls-12,.cls-13,.cls-14,.cls-15,.cls-16,.cls-18,.cls-2,.cls-20,.cls-21,.cls-22,.cls-23,.cls-24,.cls-25,.cls-26,.cls-27,.cls-28,.cls-29,.cls-30,.cls-31,.cls-32,.cls-4,.cls-5,.cls-6,.cls-7,.cls-8,.cls-9{fill-rule:evenodd;}.cls-19,.cls-3{fill:#ffb700;}.cls-20,.cls-4{fill:#fff;}.cls-21,.cls-5{fill:#c78500;}.cls-22,.cls-6{fill:#cfc759;}.cls-23,.cls-7{fill:#82c759;}.cls-24,.cls-8{fill:#387859;}.cls-25,.cls-9{fill:#546959;}.cls-10,.cls-26{fill:#ad9459;}.cls-11,.cls-27{fill:#8f4059;}.cls-12,.cls-28{fill:#54cc59;}.cls-13,.cls-29{fill:#e07845;}.cls-14,.cls-30{fill:#54a359;}.cls-15,.cls-31{fill:#802433;}.cls-16,.cls-32{fill:#544085;}</style></defs><g id="Layer_1" data-name="Layer 1"><path class="cls-1" d="M459.53,231.05c-6.1,6.9-5.47,15.47-1.51,24.2C468.4,253.47,466.64,235.27,459.53,231.05Z" transform="translate(-230.75 -87.08)"/><path class="cls-1" d="M419.44,259.79c-8.86,7.48-4.17,22.35-6.81,31.77-2.68,1.47-4.37,0-7.56,0,0,20.74,7.3,40.34,30.25,33.28,4-6.78,14.52-8.27,17.4-15.88,2.7-7.12.88-19.16-3.78-26.48C442.19,271.9,424.56,270.91,419.44,259.79Z" transform="translate(-230.75 -87.08)"/><path class="cls-1" d="M383.89,259.79c-3.39,9.92,3.48,21.38,11.34,17.4C387.27,274,391.87,262.89,383.89,259.79Z" transform="translate(-230.75 -87.08)"/><path class="cls-2" d="M377.08,330.14c1.37,5.41-2.64,5.43-2.27,9.83,11,9.53,32.67,11,51.44,11.35,23,.43,47.88-2.7,63.54-10.59.65-5.17-4.55-7.35-.76-11.35,10-3.36,21.68,11.36,20.42,21.18-.62,4.92-6.91,8.11-7.56,16.65-.32,4.17,1,9.94.76,15.88-.3,6.67-1.73,13.56-1.52,18.15.29,6,3.35,12,.76,15.89-18.87,18-59.42,33-96.07,23.45-16.25-4.24-32.28-13.83-43.11-21.94-1-13.52,1.14-33.64,0-50.68a43.24,43.24,0,0,0-1.52-7.56c-1.25-3.33-5.61-6.26-6.05-9.08C353.48,340.67,365.93,324.75,377.08,330.14Z" transform="translate(-230.75 -87.08)"/><path class="cls-3" d="M475.41,208.35c-1.45-8.41,6.3-15.51,6.06-25-.28-10.76-11-16.46-3-25.72-18-.31-7.13,24.66-18.15,30.26-1.68-7.61-10.68-14.89-11.35-24.21s2.73-15.08,0-21.93c-2.17-5.46-9.06-7.17-10.59-12.86-1.25-4.64,2.23-9.55.76-13.62-2.53-3-4.73-6.36-9.84-6.8-1,4.54,4.3,2.75,3,7.56-3,8-11.06,11-10.59,18.91.33,5.63,6.74,8.51,6.81,14.37.08,7.06-12.13,19.47-18.92,25-11.39,9.24-30.06,18.94-37.82,29.51-8,10.93-8.46,27.49,2.27,34.79-6.09,6.83-16.25,9.82-19.66,18.91-7.16,19.05,3.62,35.91,11.34,50.68,6.78,13,15.57,29.1,25.72,33.29,7.49,3.08,22.22,3.57,31,3.78,20.31.47,46.89-.32,59.76-11.35,5.94-6.44,9-18.95,4.54-29.5,6.6-10.93,16.47-16.54,17.4-30.26.94-14-6.12-35.94-12.86-46.14C487.11,221.69,476.74,216,475.41,208.35Zm-91.52,51.44c8,3.1,3.38,14.19,11.34,17.4C387.37,281.17,380.5,269.71,383.89,259.79ZM452.72,309c-2.88,7.61-13.4,9.1-17.4,15.88-22.95,7.06-30.27-12.54-30.25-33.28,3.19,0,4.88,1.47,7.56,0,2.64-9.42-2.05-24.29,6.81-31.77,5.12,11.12,22.75,12.11,29.5,22.69C453.6,289.8,455.42,301.84,452.72,309Zm5.3-53.71c-4-8.73-4.59-17.3,1.51-24.2C466.64,235.27,468.4,253.47,458,255.25Z" transform="translate(-230.75 -87.08)"/><path class="cls-4" d="M383.89,259.79" transform="translate(-230.75 -87.08)"/><path class="cls-4" d="M395.23,277.19" transform="translate(-230.75 -87.08)"/><path class="cls-5" d="M511,269.62c.88-.12,1.34.17,1.51.76C567,297.69,609.61,350.45,613.08,427c1,22.83-3.66,41.78-9.07,59.76-4.34-6-7.18-13.5-16.64-14.37.19-11.09-6.33-22.5-18.16-16.64,17-70-25.74-127.59-71.86-152C503.39,293.82,511.87,286.41,511,269.62Z" transform="translate(-230.75 -87.08)"/><path class="cls-5" d="M344.55,273.41c4.21,11.68,5.13,26.64,12.86,34.79-25.58,16.86-50,39.76-53.71,77.92-1.19,12.32,1.35,28.67,6.81,40.09,1.7,3.55,2.95,7.17,5.63,11a119.54,119.54,0,0,0,13.28,16.21c29.2,29.24,79.78,43.54,130.87,39.33,25.84,19.15,34.6,76,19.66,113.47-64.94,17-123.65-2-161.87-33.29-37.91-31-67.13-78.88-67.33-140.69C250.51,355.78,293.61,303.64,344.55,273.41Z" transform="translate(-230.75 -87.08)"/><path class="cls-2" d="M399.77,446.63c16.33,9.75,49.35,9.85,65.81,0-.75,10.45-2.52,24.11-2.27,37.82-16.89,6.18-47.26,5.81-62-2.27C401.63,469.48,399.14,459.62,399.77,446.63Z" transform="translate(-230.75 -87.08)"/><path class="cls-6" d="M565.43,403.51c-4.8,4.29-6.51,11.64-12.1,15.13-6.41-7.83-10.59-33.55,4.54-32.52C563.57,388.73,563.49,397.13,565.43,403.51Z" transform="translate(-230.75 -87.08)"/><path class="cls-7" d="M557.87,447.39c-5.19-3.34-10.92-5.85-15.13-12.11-3.43-5.09-3.64-12.31-6-15.88-1.53-2.26-13.87-9.54-4.54-12.86a9,9,0,0,1,3,0C549.68,408.59,551.86,435.58,557.87,447.39Z" transform="translate(-230.75 -87.08)"/><path class="cls-7" d="M565.43,410.32h2.27c2.32,11.7-.51,24.67-3,34C552,438.56,560.07,417.79,565.43,410.32Z" transform="translate(-230.75 -87.08)"/><path class="cls-8" d="M546.52,445.87v4.54c7.07,1.5,13.38,3.77,16.64,9.08-9.88,7.68-4.08,18.7,3.78,24.21-1.59,3.45-3.22,6.85-6.05,9.07-8-2.49-16.72-2.84-21.93,2.27-19.66-4.22-24.62-38.18-3-43.87.09-2.18-.41-4.95.76-6.05C540.27,442.93,543.43,444.11,546.52,445.87Z" transform="translate(-230.75 -87.08)"/><path class="cls-9" d="M579.8,461.76c2.59,6.64,1,15.5.76,23.45-9.79-.8-11.6-9.59-17.4-14.37C565.49,464.42,572.48,456.4,579.8,461.76Z" transform="translate(-230.75 -87.08)"/><path class="cls-9" d="M505.67,467.81c1.24,11-9.33,18.69-16.64,12.1C487.25,469.09,498.36,462.38,505.67,467.81Z" transform="translate(-230.75 -87.08)"/><path class="cls-10" d="M523.83,493.53c-5,0-5.86,4.23-9.84,5.29-2.43-4.62-8.9-5.21-10.59-10.59,5.23-3.75,5.23-16.23,14.37-13.61C519.59,481.12,523.53,485.5,523.83,493.53Z" transform="translate(-230.75 -87.08)"/><path class="cls-11" d="M588.12,479.16c12.86,1.32,12.14,25.53,8.32,36.31-13-3.47-33.35-10.61-25.72-27.24,4.06-.52,3.32,3.75,6.81,3.79C586,492.08,587.17,484.58,588.12,479.16Z" transform="translate(-230.75 -87.08)"/><path class="cls-12" d="M492.81,491.26c-2.79,4.52-12.07,2.55-15.88,6.05a21.48,21.48,0,0,1-7.57-9.08C476,482.39,488.59,484.61,492.81,491.26Z" transform="translate(-230.75 -87.08)"/><path class="cls-13" d="M494.33,535.13c-5.15-2.52-4-11.55-7.57-21.18-1.23-3.36-4.7-7.58-4.54-9.83.46-6.55,10.49-11.41,18.91-8.32,10,3.68,20.46,26.92,6.81,36.31C504.25,534.64,501.17,533.67,494.33,535.13Z" transform="translate(-230.75 -87.08)"/><path class="cls-14" d="M554.84,499.58c-3.06,2.62-10.38,4.57-13.62,4.54C540.72,497.51,552,493.66,554.84,499.58Z" transform="translate(-230.75 -87.08)"/><path class="cls-15" d="M533.66,499.58c1.86,2.82,1,4.2.76,8.32.77.57,4.66,1,6.8,2.27,6.65,7.16,0,16.52-6.8,18.91-3.5-3.31-6.48-7.14-14.38-6.05a31.67,31.67,0,0,0-3-17.4C521.18,502.5,525.68,496.45,533.66,499.58Z" transform="translate(-230.75 -87.08)"/><path class="cls-5" d="M560.13,498.82h2.27c4.35,11.54,14.66,17.11,26.48,21.18-8,17.52-19.56,31.38-33.28,43.12.93-10.76-2.62-17-11.35-18.15,1-6.78-4.69-6.91-5.29-12.11,8.36-2.48,13-11,10.58-21.93C556.46,509.42,559.63,504.91,560.13,498.82Z" transform="translate(-230.75 -87.08)"/><path class="cls-16" d="M527.61,530.59c3.91,8.6-5.19,12.11-9.08,7.57C513.9,532.75,519.64,525.41,527.61,530.59Z" transform="translate(-230.75 -87.08)"/><path class="cls-16" d="M502.65,539.67c2-2.77,8.75-3.21,10.59,0C515.65,550.37,500.3,550.09,502.65,539.67Z" transform="translate(-230.75 -87.08)"/><path class="cls-16" d="M529.12,541.94c10.92-6.31,13.77,10.9,4.54,10.59C529.15,552.38,527.08,547.77,529.12,541.94Z" transform="translate(-230.75 -87.08)"/><path class="cls-16" d="M523.07,546.48c2.53,4.28.63,10.54-3,11.35C509.45,560.15,512.1,539.58,523.07,546.48Z" transform="translate(-230.75 -87.08)"/><path class="cls-16" d="M496.59,547.24c4.43.36,4.27,5.31,8.33,6,.29,4.26-6.41,3.21-9.08,2.27C496.08,552.78,495.19,548.86,496.59,547.24Z" transform="translate(-230.75 -87.08)"/><path class="cls-16" d="M549.54,560.09c-2.94,3.4-7.94,2.5-9.07-.75C537.84,551.79,551.13,546.81,549.54,560.09Z" transform="translate(-230.75 -87.08)"/><path class="cls-16" d="M535.93,559.34c4.51,7.66-5.66,12.14-9.83,6.81C523,559.49,530.92,555.4,535.93,559.34Z" transform="translate(-230.75 -87.08)"/><path class="cls-16" d="M496.59,562.36c3.39.12,6.48-.08,8.33-1.51C511.19,568.86,492.43,575.66,496.59,562.36Z" transform="translate(-230.75 -87.08)"/><path class="cls-16" d="M519.29,563.88c8.24,7.41-10,15.61-8.32,2.27A10.82,10.82,0,0,1,519.29,563.88Z" transform="translate(-230.75 -87.08)"/><path class="cls-16" d="M548,569.17c4.65,10.37-9.13,12.33-11.34,4.54C536.49,568.15,543.74,565.68,548,569.17Z" transform="translate(-230.75 -87.08)"/><path class="cls-5" d="M516.26,579.76c-.82,5.37,2.22,6.86,3,10.59-8.35,4.51-17.43,8.3-26.48,12.11.48-6.34,3.52-16.65,2.27-27.24,3.16.71,8.53,1.6,10.59-.75C508.45,577,511.25,579.48,516.26,579.76Z" transform="translate(-230.75 -87.08)"/><path class="cls-16" d="M525.34,576.74c9.34-5,13.62,9.85,6.81,12.1C526,590.86,517.93,580.71,525.34,576.74Z" transform="translate(-230.75 -87.08)"/></g><g id="Layer_1_copy" data-name="Layer 1 copy"><path class="cls-17" d="M459.53,231.05c-6.1,6.9-5.47,15.47-1.51,24.2C468.4,253.47,466.64,235.27,459.53,231.05Z" transform="translate(-230.75 -87.08)"/><path class="cls-17" d="M419.44,259.79c-8.86,7.48-4.17,22.35-6.81,31.77-2.68,1.47-4.37,0-7.56,0,0,20.74,7.3,40.34,30.25,33.28,4-6.78,14.52-8.27,17.4-15.88,2.7-7.12.88-19.16-3.78-26.48C442.19,271.9,424.56,270.91,419.44,259.79Z" transform="translate(-230.75 -87.08)"/><path class="cls-17" d="M383.89,259.79c-3.39,9.92,3.48,21.38,11.34,17.4C387.27,274,391.87,262.89,383.89,259.79Z" transform="translate(-230.75 -87.08)"/><path class="cls-18" d="M377.08,330.14c1.37,5.41-2.64,5.43-2.27,9.83,11,9.53,32.67,11,51.44,11.35,23,.43,47.88-2.7,63.54-10.59.65-5.17-4.55-7.35-.76-11.35,10-3.36,21.68,11.36,20.42,21.18-.62,4.92-6.91,8.11-7.56,16.65-.32,4.17,1,9.94.76,15.88-.3,6.67-1.73,13.56-1.52,18.15.29,6,3.35,12,.76,15.89-18.87,18-59.42,33-96.07,23.45-16.25-4.24-32.28-13.83-43.11-21.94-1-13.52,1.14-33.64,0-50.68a43.24,43.24,0,0,0-1.52-7.56c-1.25-3.33-5.61-6.26-6.05-9.08C353.48,340.67,365.93,324.75,377.08,330.14Z" transform="translate(-230.75 -87.08)"/><path class="cls-19" d="M475.41,208.35c-1.45-8.41,6.3-15.51,6.06-25-.28-10.76-11-16.46-3-25.72-18-.31-7.13,24.66-18.15,30.26-1.68-7.61-10.68-14.89-11.35-24.21s2.73-15.08,0-21.93c-2.17-5.46-9.06-7.17-10.59-12.86-1.25-4.64,2.23-9.55.76-13.62-2.53-3-4.73-6.36-9.84-6.8-1,4.54,4.3,2.75,3,7.56-3,8-11.06,11-10.59,18.91.33,5.63,6.74,8.51,6.81,14.37.08,7.06-12.13,19.47-18.92,25-11.39,9.24-30.06,18.94-37.82,29.51-8,10.93-8.46,27.49,2.27,34.79-6.09,6.83-16.25,9.82-19.66,18.91-7.16,19.05,3.62,35.91,11.34,50.68,6.78,13,15.57,29.1,25.72,33.29,7.49,3.08,22.22,3.57,31,3.78,20.31.47,46.89-.32,59.76-11.35,5.94-6.44,9-18.95,4.54-29.5,6.6-10.93,16.47-16.54,17.4-30.26.94-14-6.12-35.94-12.86-46.14C487.11,221.69,476.74,216,475.41,208.35Zm-91.52,51.44c8,3.1,3.38,14.19,11.34,17.4C387.37,281.17,380.5,269.71,383.89,259.79ZM452.72,309c-2.88,7.61-13.4,9.1-17.4,15.88-22.95,7.06-30.27-12.54-30.25-33.28,3.19,0,4.88,1.47,7.56,0,2.64-9.42-2.05-24.29,6.81-31.77,5.12,11.12,22.75,12.11,29.5,22.69C453.6,289.8,455.42,301.84,452.72,309Zm5.3-53.71c-4-8.73-4.59-17.3,1.51-24.2C466.64,235.27,468.4,253.47,458,255.25Z" transform="translate(-230.75 -87.08)"/><path class="cls-20" d="M383.89,259.79" transform="translate(-230.75 -87.08)"/><path class="cls-20" d="M395.23,277.19" transform="translate(-230.75 -87.08)"/><path class="cls-21" d="M511,269.62c.88-.12,1.34.17,1.51.76C567,297.69,609.61,350.45,613.08,427c1,22.83-3.66,41.78-9.07,59.76-4.34-6-7.18-13.5-16.64-14.37.19-11.09-6.33-22.5-18.16-16.64,17-70-25.74-127.59-71.86-152C503.39,293.82,511.87,286.41,511,269.62Z" transform="translate(-230.75 -87.08)"/><path class="cls-21" d="M344.55,273.41c4.21,11.68,5.13,26.64,12.86,34.79-25.58,16.86-50,39.76-53.71,77.92-1.19,12.32,1.35,28.67,6.81,40.09,1.7,3.55,2.95,7.17,5.63,11a119.54,119.54,0,0,0,13.28,16.21c29.2,29.24,79.78,43.54,130.87,39.33,25.84,19.15,34.6,76,19.66,113.47-64.94,17-123.65-2-161.87-33.29-37.91-31-67.13-78.88-67.33-140.69C250.51,355.78,293.61,303.64,344.55,273.41Z" transform="translate(-230.75 -87.08)"/><path class="cls-18" d="M399.77,446.63c16.33,9.75,49.35,9.85,65.81,0-.75,10.45-2.52,24.11-2.27,37.82-16.89,6.18-47.26,5.81-62-2.27C401.63,469.48,399.14,459.62,399.77,446.63Z" transform="translate(-230.75 -87.08)"/><path class="cls-22" d="M565.43,403.51c-4.8,4.29-6.51,11.64-12.1,15.13-6.41-7.83-10.59-33.55,4.54-32.52C563.57,388.73,563.49,397.13,565.43,403.51Z" transform="translate(-230.75 -87.08)"/><path class="cls-23" d="M557.87,447.39c-5.19-3.34-10.92-5.85-15.13-12.11-3.43-5.09-3.64-12.31-6-15.88-1.53-2.26-13.87-9.54-4.54-12.86a9,9,0,0,1,3,0C549.68,408.59,551.86,435.58,557.87,447.39Z" transform="translate(-230.75 -87.08)"/><path class="cls-23" d="M565.43,410.32h2.27c2.32,11.7-.51,24.67-3,34C552,438.56,560.07,417.79,565.43,410.32Z" transform="translate(-230.75 -87.08)"/><path class="cls-24" d="M546.52,445.87v4.54c7.07,1.5,13.38,3.77,16.64,9.08-9.88,7.68-4.08,18.7,3.78,24.21-1.59,3.45-3.22,6.85-6.05,9.07-8-2.49-16.72-2.84-21.93,2.27-19.66-4.22-24.62-38.18-3-43.87.09-2.18-.41-4.95.76-6.05C540.27,442.93,543.43,444.11,546.52,445.87Z" transform="translate(-230.75 -87.08)"/><path class="cls-25" d="M579.8,461.76c2.59,6.64,1,15.5.76,23.45-9.79-.8-11.6-9.59-17.4-14.37C565.49,464.42,572.48,456.4,579.8,461.76Z" transform="translate(-230.75 -87.08)"/><path class="cls-25" d="M505.67,467.81c1.24,11-9.33,18.69-16.64,12.1C487.25,469.09,498.36,462.38,505.67,467.81Z" transform="translate(-230.75 -87.08)"/><path class="cls-26" d="M523.83,493.53c-5,0-5.86,4.23-9.84,5.29-2.43-4.62-8.9-5.21-10.59-10.59,5.23-3.75,5.23-16.23,14.37-13.61C519.59,481.12,523.53,485.5,523.83,493.53Z" transform="translate(-230.75 -87.08)"/><path class="cls-27" d="M588.12,479.16c12.86,1.32,12.14,25.53,8.32,36.31-13-3.47-33.35-10.61-25.72-27.24,4.06-.52,3.32,3.75,6.81,3.79C586,492.08,587.17,484.58,588.12,479.16Z" transform="translate(-230.75 -87.08)"/><path class="cls-28" d="M492.81,491.26c-2.79,4.52-12.07,2.55-15.88,6.05a21.48,21.48,0,0,1-7.57-9.08C476,482.39,488.59,484.61,492.81,491.26Z" transform="translate(-230.75 -87.08)"/><path class="cls-29" d="M494.33,535.13c-5.15-2.52-4-11.55-7.57-21.18-1.23-3.36-4.7-7.58-4.54-9.83.46-6.55,10.49-11.41,18.91-8.32,10,3.68,20.46,26.92,6.81,36.31C504.25,534.64,501.17,533.67,494.33,535.13Z" transform="translate(-230.75 -87.08)"/><path class="cls-30" d="M554.84,499.58c-3.06,2.62-10.38,4.57-13.62,4.54C540.72,497.51,552,493.66,554.84,499.58Z" transform="translate(-230.75 -87.08)"/><path class="cls-31" d="M533.66,499.58c1.86,2.82,1,4.2.76,8.32.77.57,4.66,1,6.8,2.27,6.65,7.16,0,16.52-6.8,18.91-3.5-3.31-6.48-7.14-14.38-6.05a31.67,31.67,0,0,0-3-17.4C521.18,502.5,525.68,496.45,533.66,499.58Z" transform="translate(-230.75 -87.08)"/><path class="cls-21" d="M560.13,498.82h2.27c4.35,11.54,14.66,17.11,26.48,21.18-8,17.52-19.56,31.38-33.28,43.12.93-10.76-2.62-17-11.35-18.15,1-6.78-4.69-6.91-5.29-12.11,8.36-2.48,13-11,10.58-21.93C556.46,509.42,559.63,504.91,560.13,498.82Z" transform="translate(-230.75 -87.08)"/><path class="cls-32" d="M527.61,530.59c3.91,8.6-5.19,12.11-9.08,7.57C513.9,532.75,519.64,525.41,527.61,530.59Z" transform="translate(-230.75 -87.08)"/><path class="cls-32" d="M502.65,539.67c2-2.77,8.75-3.21,10.59,0C515.65,550.37,500.3,550.09,502.65,539.67Z" transform="translate(-230.75 -87.08)"/><path class="cls-32" d="M529.12,541.94c10.92-6.31,13.77,10.9,4.54,10.59C529.15,552.38,527.08,547.77,529.12,541.94Z" transform="translate(-230.75 -87.08)"/><path class="cls-32" d="M523.07,546.48c2.53,4.28.63,10.54-3,11.35C509.45,560.15,512.1,539.58,523.07,546.48Z" transform="translate(-230.75 -87.08)"/><path class="cls-32" d="M496.59,547.24c4.43.36,4.27,5.31,8.33,6,.29,4.26-6.41,3.21-9.08,2.27C496.08,552.78,495.19,548.86,496.59,547.24Z" transform="translate(-230.75 -87.08)"/><path class="cls-32" d="M549.54,560.09c-2.94,3.4-7.94,2.5-9.07-.75C537.84,551.79,551.13,546.81,549.54,560.09Z" transform="translate(-230.75 -87.08)"/><path class="cls-32" d="M535.93,559.34c4.51,7.66-5.66,12.14-9.83,6.81C523,559.49,530.92,555.4,535.93,559.34Z" transform="translate(-230.75 -87.08)"/><path class="cls-32" d="M496.59,562.36c3.39.12,6.48-.08,8.33-1.51C511.19,568.86,492.43,575.66,496.59,562.36Z" transform="translate(-230.75 -87.08)"/><path class="cls-32" d="M519.29,563.88c8.24,7.41-10,15.61-8.32,2.27A10.82,10.82,0,0,1,519.29,563.88Z" transform="translate(-230.75 -87.08)"/><path class="cls-32" d="M548,569.17c4.65,10.37-9.13,12.33-11.34,4.54C536.49,568.15,543.74,565.68,548,569.17Z" transform="translate(-230.75 -87.08)"/><path class="cls-21" d="M516.26,579.76c-.82,5.37,2.22,6.86,3,10.59-8.35,4.51-17.43,8.3-26.48,12.11.48-6.34,3.52-16.65,2.27-27.24,3.16.71,8.53,1.6,10.59-.75C508.45,577,511.25,579.48,516.26,579.76Z" transform="translate(-230.75 -87.08)"/><path class="cls-32" d="M525.34,576.74c9.34-5,13.62,9.85,6.81,12.1C526,590.86,517.93,580.71,525.34,576.74Z" transform="translate(-230.75 -87.08)"/></g></svg>