<?xml version="1.0" encoding="UTF-8" standalone="no"?>
<svg
   id="Layer_1"
   data-name="Layer 1"
   viewBox="0 0 362.48 504.09"
   version="1.1"
   sodipodi:docname="simplified logo-color-flat.svg"
   inkscape:version="1.1.2 (0a00cf5339, 2022-02-04)"
   xmlns:inkscape="http://www.inkscape.org/namespaces/inkscape"
   xmlns:sodipodi="http://sodipodi.sourceforge.net/DTD/sodipodi-0.dtd"
   xmlns="http://www.w3.org/2000/svg"
   xmlns:svg="http://www.w3.org/2000/svg">
  <sodipodi:namedview
     id="namedview77"
     pagecolor="#ffffff"
     bordercolor="#000000"
     borderopacity="0.25"
     inkscape:pageshadow="2"
     inkscape:pageopacity="0.0"
     inkscape:pagecheckerboard="0"
     showgrid="false"
     inkscape:zoom="3.2095675"
     inkscape:cx="62.469475"
     inkscape:cy="615.19191"
     inkscape:window-width="1433"
     inkscape:window-height="938"
     inkscape:window-x="0"
     inkscape:window-y="0"
     inkscape:window-maximized="1"
     inkscape:current-layer="Layer_1" />
  <defs
     id="defs4">
    <style
       id="style2">.cls-1{fill:#ff7b00;}.cls-2{fill:#86a0a6;}.cls-10,.cls-11,.cls-12,.cls-13,.cls-14,.cls-15,.cls-16,.cls-2,.cls-4,.cls-5,.cls-6,.cls-7,.cls-8,.cls-9{fill-rule:evenodd;}.cls-3{fill:#ffb700;}.cls-4{fill:#fff;}.cls-5{fill:#c78500;}.cls-6{fill:#cfc759;}.cls-7{fill:#82c759;}.cls-8{fill:#387859;}.cls-9{fill:#546959;}.cls-10{fill:#ad9459;}.cls-11{fill:#8f4059;}.cls-12{fill:#54cc59;}.cls-13{fill:#e07845;}.cls-14{fill:#54a359;}.cls-15{fill:#802433;}.cls-16{fill:#544085;}</style>
  </defs>
  <g
     id="g1695"
     transform="translate(-148.60602,224.47573)">
    <path
       class="cls-1"
       d="m 459.53,231.05 c -6.1,6.9 -5.47,15.47 -1.51,24.2 10.38,-1.78 8.62,-19.98 1.51,-24.2 z"
       transform="translate(-250.75,-108.51)"
       id="path6"
       style="stroke:#ff7b00;stroke-opacity:1" />
    <path
       class="cls-1"
       d="m 419.44,259.79 c -8.86,7.48 -4.17,22.35 -6.81,31.77 -2.68,1.47 -4.37,0 -7.56,0 0,20.74 7.3,40.34 30.25,33.28 4,-6.78 14.52,-8.27 17.4,-15.88 2.7,-7.12 0.88,-19.16 -3.78,-26.48 -6.75,-10.58 -24.38,-11.57 -29.5,-22.69 z"
       transform="translate(-250.75,-108.51)"
       id="path8"
       style="stroke:#ff7b00;stroke-opacity:1" />
    <path
       class="cls-1"
       d="m 383.89,259.79 c -3.39,9.92 3.48,21.38 11.34,17.4 -7.96,-3.19 -3.36,-14.3 -11.34,-17.4 z"
       transform="translate(-250.75,-108.51)"
       id="path10"
       style="stroke:#ff7b00;stroke-opacity:1" />
  </g>
  <path
     id="path12"
     style="stroke:#86a0a6;stroke-opacity:1"
     class="cls-2"
     d="M 93.474609 444.84961 C 92.200664 444.74949 90.923828 444.88664 89.673828 445.30664 C 85.883828 449.30664 91.083594 451.48625 90.433594 456.65625 C 74.773594 464.54625 49.894531 467.67609 26.894531 467.24609 C 8.1245313 466.89609 -13.546875 465.42648 -24.546875 455.89648 C -24.916875 451.49648 -20.905391 451.47641 -22.275391 446.06641 C -33.425391 440.67641 -45.876797 456.59609 -44.216797 467.24609 C -43.776797 470.06609 -39.416016 472.99617 -38.166016 476.32617 A 43.24 43.24 0 0 1 -36.646484 483.88672 C -35.506484 500.92672 -37.646484 521.04641 -36.646484 534.56641 C -25.816484 542.67641 -9.7871094 552.26586 6.4628906 556.50586 C 43.112891 566.05586 83.663203 551.05664 102.5332 533.05664 C 105.1232 529.16664 102.06344 523.16602 101.77344 517.16602 C 101.56344 512.57602 102.99297 505.68563 103.29297 499.01562 C 103.53297 493.07562 102.2132 487.30672 102.5332 483.13672 C 103.1832 474.59672 109.47375 471.40633 110.09375 466.48633 C 111.19625 457.89383 102.39223 445.55043 93.474609 444.84961 z " />
  <path
     id="path14"
     style="stroke:#ffb700;stroke-opacity:1"
     class="cls-3"
     d="m 29.94445,224.39754 c -1,4.54 4.3,2.74859 3,7.55859 -3,8 -11.05984,11.00016 -10.58984,18.91016 0.33,5.63 6.73859,8.51109 6.80859,14.37109 0.08,7.06 -12.12992,19.47 -18.91992,25 -11.39,9.24 -30.06031,18.93977 -37.82031,29.50977 -8,10.93 -8.45852,27.48906 2.27148,34.78906 -6.09,6.83 -16.25015,9.82016 -19.66016,18.91016 -7.159995,19.05 3.61985,35.90968 11.33985,50.67968 6.78,13 15.56875,29.10102 25.71875,33.29102 7.49,3.08 22.22,3.5693 31,3.7793 20.31,0.47 46.89172,-0.31961 59.76172,-11.34961 5.94,-6.44 8.99906,-18.95 4.53906,-29.5 6.6,-10.93 16.47039,-16.53977 17.40039,-30.25977 0.94,-14 -6.12133,-35.94062 -12.86133,-46.14062 -4.18,-6.33 -14.5489,-12.01993 -15.8789,-19.66993 -1.45,-8.41 6.30054,-15.51 6.06054,-25 -0.28,-10.76 -11,-16.4607 -3,-25.7207 -18,-0.31 -7.13039,24.66172 -18.15039,30.26172 -1.68,-7.61 -10.67961,-14.89094 -11.34961,-24.21094 -0.67,-9.32 2.73,-15.07969 0,-21.92969 -2.17,-5.46 -9.05984,-7.16937 -10.58984,-12.85937 -1.25,-4.64 2.22977,-9.55109 0.75976,-13.62109 -2.52999,-3 -4.72984,-6.35883 -9.83984,-6.79883 z m 30.22852,122.61914 c 7.10911,4.17948 8.87028,22.37628 -1.52539,24.16015 -3.98387,-8.71649 -4.56551,-17.27045 1.52539,-24.16015 z m -75.63868,28.69922 c 8,3.1 3.37985,14.19039 11.33985,17.40039 -7.86,3.98 -14.72985,-7.48039 -11.33985,-17.40039 z m 35.54883,0.041 c 5.12,11.12 22.75,12.10946 29.5,22.68946 4.66,7.28 6.48125,19.32046 3.78125,26.48046 -2.88,7.61 -13.40039,9.09891 -17.40039,15.87891 -22.95,7.06 -30.27,-12.5393 -30.25,-33.2793 3.19,0 4.88055,1.47 7.56055,0 2.64,-9.42 -2.05141,-24.28953 6.80859,-31.76953 z" />
  <path
     class="cls-4"
     d="M -15.46633,375.7166"
     id="path16" />
  <path
     class="cls-4"
     d="M -4.12633,393.1166"
     id="path18" />
  <path
     id="path20"
     style="stroke:#c78500;stroke-opacity:1"
     class="cls-5"
     d="m 112.22765,385.5323 c -0.16953,-0.0195 -0.36398,-0.0163 -0.58398,0.0137 0.87,16.79 -7.61039,24.20085 -13.65039,34.13085 46.12,24.41 88.86133,82 71.86133,152 11.83,-5.86 18.3482,5.55063 18.1582,16.64063 9.46,0.87 12.30063,8.36914 16.64063,14.36914 5.41,-17.98 10.07031,-36.92977 9.07031,-59.75977 -3.47,-76.55 -46.08031,-129.31109 -100.57031,-156.62109 -0.1275,-0.4425 -0.41719,-0.71484 -0.92579,-0.77344 z m -167.033199,3.80469 c -50.940001,30.23 -94.040781,82.37008 -93.800781,158.83008 0.2,61.81 29.42008,109.68945 67.330078,140.68945 38.220002,31.29 96.929142,50.29102 161.869142,33.29102 14.94,-37.47 6.17984,-94.32071 -19.66016,-113.47071 -51.09,4.21 -101.66914,-10.09007 -130.869138,-39.33007 a 119.54,119.54 0 0 1 -13.279297,-16.21094 c -2.68,-3.83 -3.930859,-7.45 -5.630859,-11 -5.46,-11.42 -8.000547,-27.76985 -6.810547,-40.08984 3.71,-38.16001 28.130937,-61.05993 53.710941,-77.91993 -7.730004,-8.15 -8.649379,-23.10906 -12.859379,-34.78906 z" />
  <path
     id="path24"
     style="stroke:#86a0a6;stroke-opacity:1"
     class="cls-2"
     d="M 0.4140625 562.55664 C -0.2159375 575.54664 2.273125 585.40742 1.953125 598.10742 C 16.693125 606.18742 47.063125 606.55695 63.953125 600.37695 C 63.703125 586.66695 65.474609 573.00664 66.224609 562.55664 C 49.764609 572.40664 16.744062 572.30664 0.4140625 562.55664 z " />
  <path
     id="path26"
     style="stroke:#cfc759;stroke-opacity:1"
     class="cls-6"
     d="M 157.81836 502.01758 C 143.51467 501.81582 147.66477 526.85875 153.97461 534.56641 C 159.56461 531.07641 161.27422 523.7275 166.07422 519.4375 C 164.13422 513.0575 164.21367 504.65688 158.51367 502.04688 C 158.27727 502.03078 158.0454 502.02078 157.81836 502.01758 z " />
  <path
     id="path28"
     style="stroke:#82c759;stroke-opacity:1"
     class="cls-7"
     d="M 134.34375 522.33984 A 9 9 0 0 0 132.84375 522.4668 C 123.51375 525.7868 135.85281 533.06617 137.38281 535.32617 C 139.74281 538.89617 139.95281 546.11703 143.38281 551.20703 C 147.59281 557.46703 153.32367 559.97641 158.51367 563.31641 C 152.50367 551.50641 150.32375 524.5168 135.84375 522.4668 A 9 9 0 0 0 134.34375 522.33984 z " />
  <path
     id="path30"
     style="stroke:#82c759;stroke-opacity:1"
     class="cls-7"
     d="M 166.07422 526.24609 C 160.71422 533.71609 152.64375 554.48609 165.34375 560.24609 C 167.83375 550.91609 170.66375 537.94609 168.34375 526.24609 L 166.07422 526.24609 z " />
  <path
     id="path32"
     style="stroke:#387859;stroke-opacity:1"
     class="cls-8"
     d="M 141.20898 559.85742 C 139.97055 559.87799 138.69453 560.22563 137.36328 561.04688 C 136.19328 562.14687 136.69352 564.9157 136.60352 567.0957 C 114.98352 572.7857 119.94352 606.7468 139.60352 610.9668 C 144.81352 605.8568 153.5332 606.20727 161.5332 608.69727 C 164.3632 606.47727 165.99398 603.07695 167.58398 599.62695 C 159.72398 594.11695 153.92273 583.09602 163.80273 575.41602 C 160.54273 570.10602 154.23406 567.83594 147.16406 566.33594 L 147.16406 561.79688 C 145.23281 560.69688 143.27305 559.82314 141.20898 559.85742 z " />
  <path
     id="path34"
     style="stroke:#546959;stroke-opacity:1"
     class="cls-9"
     d="M 175.73242 575.93359 C 170.28834 575.75932 165.62305 581.75 163.80273 586.76562 C 169.60273 591.54562 171.41313 600.33672 181.20312 601.13672 C 181.44313 593.18672 183.03336 584.3275 180.44336 577.6875 C 178.84211 576.515 177.25677 575.98239 175.73242 575.93359 z " />
  <path
     id="path36"
     style="stroke:#546959;stroke-opacity:1"
     class="cls-9"
     d="M 100.37891 581.81445 C 94.25375 581.91805 88.338828 587.72094 89.673828 595.83594 C 96.983828 602.42594 107.55445 594.73633 106.31445 583.73633 C 104.48695 582.37883 102.42063 581.77992 100.37891 581.81445 z " />
  <path
     id="path38"
     style="stroke:#ad9459;stroke-opacity:1"
     class="cls-10"
     d="M 116.07227 590.1875 C 109.22777 590.18914 108.78266 600.75781 104.04297 604.15625 C 105.73297 609.53625 112.20281 610.12609 114.63281 614.74609 C 118.61281 613.68609 119.47461 609.45703 124.47461 609.45703 C 124.17461 601.42703 120.23406 597.04688 118.41406 590.54688 C 117.55719 590.30125 116.78032 590.18733 116.07227 590.1875 z " />
  <path
     id="path40"
     style="stroke:#8f4059;stroke-opacity:1"
     class="cls-11"
     d="M 188.76367 595.08594 C 187.81367 600.50594 186.64383 608.00727 178.17383 607.94727 C 174.68383 607.90727 175.42328 603.63625 171.36328 604.15625 C 163.73328 620.78625 184.08398 627.92648 197.08398 631.39648 C 200.90398 620.61648 201.62367 596.40594 188.76367 595.08594 z " />
  <path
     id="path42"
     style="stroke:#54cc59;stroke-opacity:1"
     class="cls-12"
     d="M 80.082031 600.78711 C 76.380681 600.74256 72.701406 601.78375 70.003906 604.15625 A 21.48 21.48 0 0 0 77.574219 613.23633 C 81.384219 609.73633 90.663125 611.7075 93.453125 607.1875 C 90.9475 603.23906 85.491697 600.85222 80.082031 600.78711 z " />
  <path
     id="path44"
     style="stroke:#e07845;stroke-opacity:1"
     class="cls-13"
     d="M 96.134766 610.77539 C 89.424301 610.84459 83.222656 614.92969 82.863281 620.04688 C 82.703281 622.29688 86.174297 626.51695 87.404297 629.87695 C 90.974297 639.50695 89.824609 648.53664 94.974609 651.05664 C 101.81461 649.59664 104.89398 650.56711 108.58398 648.03711 C 122.23398 638.64711 111.77344 615.40656 101.77344 611.72656 C 99.931562 611.05062 98.013696 610.75602 96.134766 610.77539 z " />
  <path
     id="path46"
     style="stroke:#54a359;stroke-opacity:1"
     class="cls-14"
     d="M 150.38477 612.58008 C 146.28109 612.55944 141.53516 615.70906 141.86328 620.04688 C 145.10328 620.07688 152.42437 618.12586 155.48438 615.50586 C 154.50812 613.47086 152.53431 612.59089 150.38477 612.58008 z " />
  <path
     id="path48"
     style="stroke:#802433;stroke-opacity:1"
     class="cls-15"
     d="M 130.16211 614.63477 C 124.64955 614.54304 121.04734 619.01352 117.68359 621.55664 A 31.67 31.67 0 0 1 120.68359 638.95703 C 128.58359 637.86703 131.56445 641.69586 135.06445 645.00586 C 141.86445 642.61586 148.51328 633.2557 141.86328 626.0957 C 139.72328 624.8257 135.83445 624.39617 135.06445 623.82617 C 135.30445 619.70617 136.16273 618.32586 134.30273 615.50586 C 132.80648 614.91898 131.43424 614.65593 130.16211 614.63477 z " />
  <path
     id="path50"
     style="stroke:#c78500;stroke-opacity:1"
     class="cls-5"
     d="M 160.77344 614.74609 C 160.27344 620.83609 157.10359 625.34742 150.18359 626.85742 C 152.60359 637.78742 147.96352 646.30711 139.60352 648.78711 C 140.20352 653.98711 145.89453 654.11648 144.89453 660.89648 C 153.62453 662.04648 157.17414 668.28688 156.24414 679.04688 C 169.96414 667.30688 181.52344 653.44578 189.52344 635.92578 C 177.70344 631.85578 167.39297 626.28609 163.04297 614.74609 L 160.77344 614.74609 z " />
  <path
     id="path52"
     style="stroke:#544085;stroke-opacity:1"
     class="cls-16"
     d="M 123.12109 644.75195 C 118.16172 644.67155 115.62898 649.94391 119.17383 654.08594 C 123.06383 658.62594 132.16391 655.11563 128.25391 646.51562 C 126.38594 645.30156 124.63927 644.77657 123.12109 644.75195 z " />
  <path
     id="path54"
     style="stroke:#544085;stroke-opacity:1"
     class="cls-16"
     d="M 109.05469 653.35156 C 108.91967 653.34912 108.78391 653.35008 108.64844 653.35352 C 106.48094 653.40852 104.29297 654.2107 103.29297 655.5957 C 100.94297 666.0157 116.29281 666.2957 113.88281 655.5957 C 113.02031 654.09102 111.07988 653.38817 109.05469 653.35156 z " />
  <path
     id="path56"
     style="stroke:#544085;stroke-opacity:1"
     class="cls-16"
     d="M 134.27539 656.47461 C 132.97848 656.46866 131.46992 656.88125 129.76367 657.86719 C 127.72367 663.69719 129.79273 668.30703 134.30273 668.45703 C 142.09055 668.71859 141.27871 656.50671 134.27539 656.47461 z " />
  <path
     id="path58"
     style="stroke:#544085;stroke-opacity:1"
     class="cls-16"
     d="M 119.59375 660.98438 C 112.26147 660.83832 111.58633 675.74961 120.71289 673.75586 C 124.34289 672.94586 126.24289 666.68625 123.71289 662.40625 C 122.17023 661.43594 120.79358 661.00827 119.59375 660.98438 z " />
  <path
     id="path60"
     style="stroke:#544085;stroke-opacity:1"
     class="cls-16"
     d="M 97.234375 663.16602 C 95.834375 664.78602 96.724375 668.7075 96.484375 671.4375 C 99.154375 672.3775 105.85445 673.42602 105.56445 669.16602 C 101.50445 668.47602 101.66437 663.52602 97.234375 663.16602 z " />
  <path
     id="path62"
     style="stroke:#544085;stroke-opacity:1"
     class="cls-16"
     d="M 146.04492 667.75195 C 142.99824 667.77745 139.675 671.13672 141.11328 675.26562 C 142.24328 678.51562 147.24359 679.41562 150.18359 676.01562 C 150.90406 669.99812 148.56931 667.73083 146.04492 667.75195 z " />
  <path
     id="path64"
     style="stroke:#544085;stroke-opacity:1"
     class="cls-16"
     d="M 131.9668 673.72656 C 127.98134 673.83077 124.51602 677.2893 126.74414 682.07617 C 130.91414 687.40617 141.08422 682.92562 136.57422 675.26562 C 135.16516 674.1575 133.52633 673.68579 131.9668 673.72656 z " />
  <path
     id="path66"
     style="stroke:#544085;stroke-opacity:1"
     class="cls-16"
     d="M 105.56445 676.77734 C 103.71445 678.20734 100.62438 678.40711 97.234375 678.28711 C 93.074375 691.58711 111.83445 684.78734 105.56445 676.77734 z " />
  <path
     id="path68"
     style="stroke:#544085;stroke-opacity:1"
     class="cls-16"
     d="M 118.67188 679.69922 A 10.82 10.82 0 0 0 111.61328 682.07617 C 109.93328 695.41617 128.17359 687.21664 119.93359 679.80664 A 10.82 10.82 0 0 0 118.67188 679.69922 z " />
  <path
     id="path70"
     style="stroke:#544085;stroke-opacity:1"
     class="cls-16"
     d="M 144.0918 683.48242 C 140.57719 683.4513 137.18586 685.81422 137.30273 689.63672 C 139.51273 697.42672 153.29453 695.4657 148.64453 685.0957 C 147.31328 684.00508 145.68934 683.49657 144.0918 683.48242 z " />
  <path
     id="path72"
     style="stroke:#c78500;stroke-opacity:1"
     class="cls-5"
     d="M 106.2832 690.39648 C 104.2232 692.74648 98.853359 691.85648 95.693359 691.14648 C 96.943359 701.73648 93.903828 712.04672 93.423828 718.38672 C 102.47383 714.57672 111.5543 710.78734 119.9043 706.27734 C 119.1243 702.54734 116.0843 701.0575 116.9043 695.6875 C 111.8943 695.4075 109.0932 692.92648 106.2832 690.39648 z " />
  <path
     id="path74"
     style="stroke:#544085;stroke-opacity:1"
     class="cls-16"
     d="M 129.60742 691.64453 C 128.51088 691.65281 127.29781 691.96289 125.98438 692.66602 C 118.57437 696.63602 126.64297 706.78562 132.79297 704.76562 C 138.64531 702.83203 136.30851 691.59391 129.60742 691.64453 z " />
</svg>
