<?xml version="1.0" encoding="UTF-8" standalone="no"?>
<svg
   xmlns:dc="http://purl.org/dc/elements/1.1/"
   xmlns:cc="http://creativecommons.org/ns#"
   xmlns:rdf="http://www.w3.org/1999/02/22-rdf-syntax-ns#"
   xmlns:svg="http://www.w3.org/2000/svg"
   xmlns="http://www.w3.org/2000/svg"
   xmlns:sodipodi="http://sodipodi.sourceforge.net/DTD/sodipodi-0.dtd"
   xmlns:inkscape="http://www.inkscape.org/namespaces/inkscape"
   viewBox="0 0 484.20076 673.01151"
   height="189.93881mm"
   width="136.65222mm"
   xml:space="preserve"
   id="svg2"
   version="1.1"
   inkscape:version="0.92.3 (2405546, 2018-03-11)"
   sodipodi:docname="simplified logo.svg"><sodipodi:namedview
     pagecolor="#ffffff"
     bordercolor="#666666"
     borderopacity="1"
     objecttolerance="10"
     gridtolerance="10"
     guidetolerance="10"
     inkscape:pageopacity="0"
     inkscape:pageshadow="2"
     inkscape:window-width="1200"
     inkscape:window-height="1892"
     id="namedview70"
     showgrid="false"
     inkscape:zoom="1.1588694"
     inkscape:cx="266.81511"
     inkscape:cy="434.73527"
     inkscape:window-x="1200"
     inkscape:window-y="0"
     inkscape:window-maximized="1"
     inkscape:current-layer="layer2"
     fit-margin-top="0"
     fit-margin-left="0"
     fit-margin-right="0"
     fit-margin-bottom="0"
     units="mm"
     inkscape:document-units="mm" /><metadata
     id="metadata8"><rdf:RDF><cc:Work
         rdf:about=""><dc:format>image/svg+xml</dc:format><dc:type
           rdf:resource="http://purl.org/dc/dcmitype/StillImage" /><dc:title></dc:title></cc:Work></rdf:RDF></metadata><defs
     id="defs6"><clipPath
       id="clipPath18"
       clipPathUnits="userSpaceOnUse"><path
         id="path16"
         d="M 0,864 H 864 V 0 H 0 Z"
         inkscape:connector-curvature="0" /></clipPath></defs><g
     inkscape:groupmode="layer"
     id="layer1"
     inkscape:label="holes"
     transform="matrix(1.3333333,0,0,-1.3333333,-333.88833,1007.7743)"
     style="display:inline"><path
       transform="translate(0,3.4332275e-5)"
       inkscape:connector-curvature="0"
       id="path943"
       d="m 412.6309,572.4385 c -2.679,-1.464 -4.369,0.019 -7.564,0 -0.021,-20.743 7.304,-40.336 30.256,-33.283 3.994,6.782 14.521,8.275 17.399,15.885 2.693,7.123 0.882,19.161 -3.782,26.475 -6.748,10.583 -24.379,11.571 -29.501,22.693 -8.858,-7.479 -4.169,-22.344 -6.808,-31.77"
       style="display:inline;fill:none;fill-opacity:1;fill-rule:evenodd;stroke:#000000;stroke-width:0.67500001;stroke-miterlimit:4;stroke-dasharray:none;stroke-opacity:1" /><path
       transform="translate(0,3.4332275e-5)"
       inkscape:connector-curvature="0"
       id="path941"
       d="m 395.2329,586.8105 c -7.96,3.21 -3.366,14.303 -11.347,17.398 -3.385,-9.915 3.483,-21.379 11.347,-17.398"
       style="display:inline;fill:none;fill-opacity:1;fill-rule:evenodd;stroke:#000000;stroke-width:0.67500001;stroke-miterlimit:4;stroke-dasharray:none;stroke-opacity:1" /><path
       transform="translate(0,3.4332275e-5)"
       inkscape:connector-curvature="0"
       id="path939"
       d="m 458.0169,608.7475 c 10.379,1.784 8.628,19.985 1.512,24.205 -6.097,-6.902 -5.464,-15.477 -1.512,-24.205"
       style="display:inline;fill:none;fill-opacity:1;fill-rule:evenodd;stroke:#000000;stroke-width:0.67500001;stroke-miterlimit:4;stroke-dasharray:none;stroke-opacity:1" /></g><g
     inkscape:groupmode="layer"
     id="layer2"
     inkscape:label="parts"
     style="display:inline"
     transform="translate(-333.88833,-144.22569)"><g
       style="fill:none;stroke:#000000;stroke-width:0.67500001;stroke-miterlimit:4;stroke-dasharray:none;stroke-opacity:1"
       id="g12"
       transform="matrix(1.3333333,0,0,-1.3333333,0,1152)"><path
         inkscape:connector-curvature="0"
         id="path22"
         d="m 429.2719,755.4945 c 5.108,-0.44 7.306,-3.788 9.834,-6.808 1.471,-4.062 -2.004,-8.973 -0.756,-13.616 1.529,-5.69 8.42,-7.404 10.59,-12.859 2.726,-6.854 -0.662,-12.749 0,-21.936 0.67,-9.312 9.67,-16.592 11.346,-24.206 11.024,5.603 0.152,30.575 18.155,30.257 -7.937,-9.258 2.746,-14.954 3.025,-25.719 0.245,-9.451 -7.506,-16.548 -6.052,-24.962 1.33,-7.689 11.699,-13.336 15.886,-19.667 6.743,-10.197 13.802,-32.184 12.859,-46.143 -0.926,-13.717 -10.796,-19.322 -17.398,-30.256 4.484,-10.552 1.402,-23.055 -4.538,-29.501 -12.873,-11.025 -39.45,-11.816 -59.759,-11.347 -8.792,0.204 -23.529,0.694 -31.013,3.782 -10.153,4.19 -18.944,20.321 -25.719,33.283 -7.72,14.771 -18.501,31.634 -11.347,50.681 3.414,9.089 13.573,12.078 19.668,18.911 -10.736,7.299 -10.289,23.862 -2.27,34.796 7.754,10.57 26.423,20.267 37.822,29.501 6.786,5.497 18.991,17.899 18.911,24.962 -0.067,5.862 -6.471,8.744 -6.808,14.372 -0.472,7.889 7.56,10.962 10.59,18.911 1.275,4.805 -4.036,3.024 -3.026,7.564"
         style="fill:none;fill-opacity:1;fill-rule:evenodd;stroke:#000000;stroke-width:0.67500001;stroke-miterlimit:4;stroke-dasharray:none;stroke-opacity:1" /><g
         transform="translate(510.9668,594.375)"
         id="g24"
         style="fill:none;stroke:#000000;stroke-width:0.67500001;stroke-miterlimit:4;stroke-dasharray:none;stroke-opacity:1"><path
           id="path26"
           style="fill:none;fill-opacity:1;fill-rule:evenodd;stroke:#000000;stroke-width:0.67500001;stroke-miterlimit:4;stroke-dasharray:none;stroke-opacity:1"
           d="m 0,0 c 0.879,0.123 1.346,-0.167 1.513,-0.757 54.496,-27.312 97.13,-80.064 100.605,-156.581 1.037,-22.832 -3.661,-41.773 -9.077,-59.758 -4.343,5.994 -7.177,13.499 -16.642,14.372 0.197,11.086 -6.331,22.502 -18.154,16.642 C 75.266,-116.047 32.5,-58.497 -13.616,-34.04 -7.58,-24.191 0.904,-16.79 0,0"
           inkscape:connector-curvature="0" /></g><g
         transform="translate(344.5518,590.5928)"
         id="g28"
         style="fill:none;stroke:#000000;stroke-width:0.67500001;stroke-miterlimit:4;stroke-dasharray:none;stroke-opacity:1"><path
           id="path30"
           style="fill:none;fill-opacity:1;fill-rule:evenodd;stroke:#000000;stroke-width:0.67500001;stroke-miterlimit:4;stroke-dasharray:none;stroke-opacity:1"
           d="m 0,0 c 4.204,-11.682 5.125,-26.646 12.859,-34.796 -25.581,-16.852 -50.014,-39.756 -53.706,-77.912 -1.193,-12.32 1.35,-28.68 6.808,-40.091 1.698,-3.552 2.945,-7.179 5.622,-11.019 4.278,-6.136 8.639,-11.557 13.289,-16.213 29.2,-29.24 79.778,-43.539 130.862,-39.334 25.846,-19.152 34.604,-76.036 19.667,-113.465 -64.94,-16.955 -123.653,2.026 -161.876,33.283 -37.903,30.995 -67.124,78.888 -67.322,140.696 C -94.043,-82.375 -50.946,-30.232 0,0"
           inkscape:connector-curvature="0" /></g><g
         transform="translate(377.0786,533.8604)"
         id="g32"
         style="fill:none;stroke:#000000;stroke-width:0.67500001;stroke-miterlimit:4;stroke-dasharray:none;stroke-opacity:1"><path
           id="path34"
           style="fill:none;fill-opacity:1;fill-rule:evenodd;stroke:#000000;stroke-width:0.67500001;stroke-miterlimit:4;stroke-dasharray:none;stroke-opacity:1"
           d="m 0,0 c 1.375,-5.409 -2.636,-5.433 -2.27,-9.834 10.973,-9.524 32.673,-10.992 51.438,-11.346 23.027,-0.435 47.887,2.695 63.54,10.59 0.653,5.173 -4.548,7.349 -0.756,11.346 9.959,3.361 21.678,-11.36 20.423,-21.18 -0.627,-4.914 -6.917,-8.103 -7.564,-16.641 -0.316,-4.178 1.018,-9.943 0.757,-15.885 -0.294,-6.671 -1.731,-13.556 -1.514,-18.154 0.282,-5.964 3.349,-11.975 0.757,-15.886 -18.872,-17.989 -59.42,-33.008 -96.067,-23.449 -16.257,4.241 -32.28,13.829 -43.117,21.937 -1.039,13.517 1.148,33.638 0,50.68 -0.145,2.156 -1.138,6.575 -1.512,7.565 -1.257,3.324 -5.612,6.257 -6.052,9.077 C -23.599,-10.527 -11.146,5.392 0,0"
           inkscape:connector-curvature="0" /></g><g
         transform="translate(565.4297,460.4863)"
         id="g36"
         style="fill:none;stroke:#000000;stroke-width:0.67500001;stroke-miterlimit:4;stroke-dasharray:none;stroke-opacity:1"><path
           id="path38"
           style="fill:none;fill-opacity:1;fill-rule:evenodd;stroke:#000000;stroke-width:0.67500001;stroke-miterlimit:4;stroke-dasharray:none;stroke-opacity:1"
           d="m 0,0 c -4.795,-4.282 -6.514,-11.641 -12.103,-15.128 -6.41,7.828 -10.59,33.552 4.539,32.526 C -1.858,14.783 -1.939,6.381 0,0"
           inkscape:connector-curvature="0" /></g><g
         transform="translate(557.8652,416.6133)"
         id="g40"
         style="fill:none;stroke:#000000;stroke-width:0.67500001;stroke-miterlimit:4;stroke-dasharray:none;stroke-opacity:1"><path
           id="path42"
           style="fill:none;fill-opacity:1;fill-rule:evenodd;stroke:#000000;stroke-width:0.67500001;stroke-miterlimit:4;stroke-dasharray:none;stroke-opacity:1"
           d="m 0,0 c -5.188,3.337 -10.912,5.842 -15.128,12.103 -3.43,5.093 -3.64,12.314 -6.052,15.885 -1.524,2.258 -13.864,9.538 -4.539,12.86 0.665,0.236 2.322,0.099 3.027,0 C -8.184,38.794 -6.008,11.809 0,0"
           inkscape:connector-curvature="0" /></g><g
         transform="translate(565.4297,453.6787)"
         id="g44"
         style="fill:none;stroke:#000000;stroke-width:0.67500001;stroke-miterlimit:4;stroke-dasharray:none;stroke-opacity:1"><path
           id="path46"
           style="fill:none;fill-opacity:1;fill-rule:evenodd;stroke:#000000;stroke-width:0.67500001;stroke-miterlimit:4;stroke-dasharray:none;stroke-opacity:1"
           d="M 0,0 H 2.27 C 4.59,-11.698 1.761,-24.67 -0.756,-34.04 -13.394,-28.234 -5.355,-7.47 0,0"
           inkscape:connector-curvature="0" /></g><g
         transform="translate(546.5195,418.126)"
         id="g48"
         style="fill:none;stroke:#000000;stroke-width:0.67500001;stroke-miterlimit:4;stroke-dasharray:none;stroke-opacity:1"><path
           id="path50"
           style="fill:none;fill-opacity:1;fill-rule:evenodd;stroke:#000000;stroke-width:0.67500001;stroke-miterlimit:4;stroke-dasharray:none;stroke-opacity:1"
           d="m 0,0 v -4.538 c 7.07,-1.502 13.38,-3.766 16.641,-9.077 -9.879,-7.681 -4.081,-18.704 3.782,-24.206 -1.588,-3.455 -3.227,-6.86 -6.051,-9.077 -8.042,2.492 -16.723,2.839 -21.936,-2.27 -19.66,4.226 -24.616,38.178 -3.027,43.873 0.091,2.179 -0.413,4.952 0.757,6.052 C -6.245,2.946 -3.091,1.761 0,0"
           inkscape:connector-curvature="0" /></g><g
         transform="translate(399.7715,417.3701)"
         id="g52"
         style="fill:none;stroke:#000000;stroke-width:0.67500001;stroke-miterlimit:4;stroke-dasharray:none;stroke-opacity:1"><path
           id="path54"
           style="fill:none;fill-opacity:1;fill-rule:evenodd;stroke:#000000;stroke-width:0.67500001;stroke-miterlimit:4;stroke-dasharray:none;stroke-opacity:1"
           d="M 0,0 C 16.324,-9.751 49.352,-9.854 65.81,0 65.063,-10.454 63.293,-24.109 63.54,-37.822 46.645,-43.997 16.278,-43.628 1.513,-35.553 1.861,-22.85 -0.631,-12.986 0,0"
           inkscape:connector-curvature="0" /></g><g
         transform="translate(579.8018,402.2412)"
         id="g56"
         style="fill:none;stroke:#000000;stroke-width:0.67500001;stroke-miterlimit:4;stroke-dasharray:none;stroke-opacity:1"><path
           id="path58"
           style="fill:none;fill-opacity:1;fill-rule:evenodd;stroke:#000000;stroke-width:0.67500001;stroke-miterlimit:4;stroke-dasharray:none;stroke-opacity:1"
           d="m 0,0 c 2.591,-6.641 1.036,-15.5 0.757,-23.449 -9.788,0.803 -11.597,9.583 -17.399,14.372 C -14.308,-2.666 -7.326,5.362 0,0"
           inkscape:connector-curvature="0" /></g><g
         transform="translate(505.6719,396.1895)"
         id="g60"
         style="fill:none;stroke:#000000;stroke-width:0.67500001;stroke-miterlimit:4;stroke-dasharray:none;stroke-opacity:1"><path
           id="path62"
           style="fill:none;fill-opacity:1;fill-rule:evenodd;stroke:#000000;stroke-width:0.67500001;stroke-miterlimit:4;stroke-dasharray:none;stroke-opacity:1"
           d="M 0,0 C 1.235,-11.014 -9.328,-18.685 -16.642,-12.103 -18.422,-1.279 -7.312,5.429 0,0"
           inkscape:connector-curvature="0" /></g><g
         transform="translate(523.8262,370.4707)"
         id="g64"
         style="fill:none;stroke:#000000;stroke-width:0.67500001;stroke-miterlimit:4;stroke-dasharray:none;stroke-opacity:1"><path
           id="path66"
           style="fill:none;fill-opacity:1;fill-rule:evenodd;stroke:#000000;stroke-width:0.67500001;stroke-miterlimit:4;stroke-dasharray:none;stroke-opacity:1"
           d="m 0,0 c -5.007,-0.035 -5.859,-4.227 -9.834,-5.295 -2.432,4.628 -8.903,5.217 -10.59,10.59 5.23,3.755 5.23,16.237 14.372,13.616 C -4.236,12.405 -0.292,8.029 0,0"
           inkscape:connector-curvature="0" /></g><g
         transform="translate(588.123,384.8438)"
         id="g68"
         style="fill:none;stroke:#000000;stroke-width:0.67500001;stroke-miterlimit:4;stroke-dasharray:none;stroke-opacity:1"><path
           id="path70"
           style="fill:none;fill-opacity:1;fill-rule:evenodd;stroke:#000000;stroke-width:0.67500001;stroke-miterlimit:4;stroke-dasharray:none;stroke-opacity:1"
           d="m 0,0 c 12.856,-1.324 12.137,-25.536 8.32,-36.31 -12.973,3.467 -33.352,10.611 -25.718,27.232 4.057,0.528 3.315,-3.744 6.808,-3.781 C -2.142,-12.927 -0.95,-5.42 0,0"
           inkscape:connector-curvature="0" /></g><g
         transform="translate(492.8125,372.7402)"
         id="g72"
         style="fill:none;stroke:#000000;stroke-width:0.67500001;stroke-miterlimit:4;stroke-dasharray:none;stroke-opacity:1"><path
           id="path74"
           style="fill:none;fill-opacity:1;fill-rule:evenodd;stroke:#000000;stroke-width:0.67500001;stroke-miterlimit:4;stroke-dasharray:none;stroke-opacity:1"
           d="m 0,0 c -2.79,-4.522 -12.07,-2.554 -15.885,-6.052 -3.316,2.232 -5.816,5.28 -7.564,9.077 C -16.853,8.869 -4.225,6.649 0,0"
           inkscape:connector-curvature="0" /></g><g
         transform="translate(494.3252,328.8672)"
         id="g76"
         style="fill:none;stroke:#000000;stroke-width:0.67500001;stroke-miterlimit:4;stroke-dasharray:none;stroke-opacity:1"><path
           id="path78"
           style="fill:none;fill-opacity:1;fill-rule:evenodd;stroke:#000000;stroke-width:0.67500001;stroke-miterlimit:4;stroke-dasharray:none;stroke-opacity:1"
           d="m 0,0 c -5.143,2.522 -4.028,11.558 -7.564,21.181 -1.234,3.357 -4.698,7.578 -4.539,9.833 0.46,6.549 10.483,11.413 18.911,8.321 C 16.838,35.654 27.263,12.408 13.616,3.026 9.93,0.492 6.847,1.466 0,0"
           inkscape:connector-curvature="0" /></g><g
         transform="translate(554.8398,364.4199)"
         id="g80"
         style="fill:none;stroke:#000000;stroke-width:0.67500001;stroke-miterlimit:4;stroke-dasharray:none;stroke-opacity:1"><path
           id="path82"
           style="fill:none;fill-opacity:1;fill-rule:evenodd;stroke:#000000;stroke-width:0.67500001;stroke-miterlimit:4;stroke-dasharray:none;stroke-opacity:1"
           d="M 0,0 C -3.058,-2.618 -10.38,-4.573 -13.616,-4.539 -14.123,2.073 -2.863,5.917 0,0"
           inkscape:connector-curvature="0" /></g><g
         transform="translate(533.6602,364.4199)"
         id="g84"
         style="fill:none;stroke:#000000;stroke-width:0.67500001;stroke-miterlimit:4;stroke-dasharray:none;stroke-opacity:1"><path
           id="path86"
           style="fill:none;fill-opacity:1;fill-rule:evenodd;stroke:#000000;stroke-width:0.67500001;stroke-miterlimit:4;stroke-dasharray:none;stroke-opacity:1"
           d="m 0,0 c 1.863,-2.819 0.99,-4.203 0.756,-8.321 0.773,-0.574 4.664,-0.965 6.807,-2.269 6.642,-7.164 0.038,-16.515 -6.807,-18.911 -3.494,3.313 -6.472,7.144 -14.372,6.052 0.662,7.47 -0.828,12.787 -3.026,17.397 C -12.48,-2.924 -7.981,3.127 0,0"
           inkscape:connector-curvature="0" /></g><g
         transform="translate(560.1348,365.1758)"
         id="g88"
         style="fill:none;stroke:#000000;stroke-width:0.67500001;stroke-miterlimit:4;stroke-dasharray:none;stroke-opacity:1"><path
           id="path90"
           style="fill:none;fill-opacity:1;fill-rule:evenodd;stroke:#000000;stroke-width:0.67500001;stroke-miterlimit:4;stroke-dasharray:none;stroke-opacity:1"
           d="m 0,0 h 2.27 c 4.347,-11.537 14.659,-17.11 26.474,-21.18 -7.949,-17.517 -19.56,-31.372 -33.283,-43.117 0.932,10.765 -2.614,17.053 -11.346,18.155 0.974,6.773 -4.69,6.909 -5.295,12.103 8.364,2.479 13.03,10.968 10.59,21.936 C -3.677,-10.601 -0.507,-6.087 0,0"
           inkscape:connector-curvature="0" /></g><g
         transform="translate(527.6084,333.4063)"
         id="g92"
         style="fill:none;stroke:#000000;stroke-width:0.67500001;stroke-miterlimit:4;stroke-dasharray:none;stroke-opacity:1"><path
           id="path94"
           style="fill:none;fill-opacity:1;fill-rule:evenodd;stroke:#000000;stroke-width:0.67500001;stroke-miterlimit:4;stroke-dasharray:none;stroke-opacity:1"
           d="M 0,0 C 3.911,-8.6 -5.19,-12.108 -9.077,-7.564 -13.708,-2.151 -7.972,5.183 0,0"
           inkscape:connector-curvature="0" /></g><g
         transform="translate(502.6465,324.3291)"
         id="g96"
         style="fill:none;stroke:#000000;stroke-width:0.67500001;stroke-miterlimit:4;stroke-dasharray:none;stroke-opacity:1"><path
           id="path98"
           style="fill:none;fill-opacity:1;fill-rule:evenodd;stroke:#000000;stroke-width:0.67500001;stroke-miterlimit:4;stroke-dasharray:none;stroke-opacity:1"
           d="M 0,0 C 1.994,2.771 8.754,3.216 10.59,0 13.005,-10.702 -2.351,-10.42 0,0"
           inkscape:connector-curvature="0" /></g><g
         transform="translate(529.1211,322.0596)"
         id="g100"
         style="fill:none;stroke:#000000;stroke-width:0.67500001;stroke-miterlimit:4;stroke-dasharray:none;stroke-opacity:1"><path
           id="path102"
           style="fill:none;fill-opacity:1;fill-rule:evenodd;stroke:#000000;stroke-width:0.67500001;stroke-miterlimit:4;stroke-dasharray:none;stroke-opacity:1"
           d="M 0,0 C 10.914,6.313 13.769,-10.896 4.539,-10.59 0.025,-10.44 -2.045,-5.833 0,0"
           inkscape:connector-curvature="0" /></g><g
         transform="translate(523.0693,317.5205)"
         id="g104"
         style="fill:none;stroke:#000000;stroke-width:0.67500001;stroke-miterlimit:4;stroke-dasharray:none;stroke-opacity:1"><path
           id="path106"
           style="fill:none;fill-opacity:1;fill-rule:evenodd;stroke:#000000;stroke-width:0.67500001;stroke-miterlimit:4;stroke-dasharray:none;stroke-opacity:1"
           d="M 0,0 C 2.526,-4.278 0.627,-10.545 -3.025,-11.346 -13.617,-13.669 -10.97,6.899 0,0"
           inkscape:connector-curvature="0" /></g><g
         transform="translate(496.5947,316.7646)"
         id="g108"
         style="fill:none;stroke:#000000;stroke-width:0.67500001;stroke-miterlimit:4;stroke-dasharray:none;stroke-opacity:1"><path
           id="path110"
           style="fill:none;fill-opacity:1;fill-rule:evenodd;stroke:#000000;stroke-width:0.67500001;stroke-miterlimit:4;stroke-dasharray:none;stroke-opacity:1"
           d="M 0,0 C 4.427,-0.364 4.27,-5.313 8.32,-6.052 8.62,-10.312 1.919,-9.265 -0.757,-8.321 -0.511,-5.541 -1.402,-1.624 0,0"
           inkscape:connector-curvature="0" /></g><g
         transform="translate(549.5449,303.9053)"
         id="g112"
         style="fill:none;stroke:#000000;stroke-width:0.67500001;stroke-miterlimit:4;stroke-dasharray:none;stroke-opacity:1"><path
           id="path114"
           style="fill:none;fill-opacity:1;fill-rule:evenodd;stroke:#000000;stroke-width:0.67500001;stroke-miterlimit:4;stroke-dasharray:none;stroke-opacity:1"
           d="M 0,0 C -2.941,-3.396 -7.948,-2.492 -9.077,0.756 -11.7,8.302 1.587,13.286 0,0"
           inkscape:connector-curvature="0" /></g><g
         transform="translate(535.9287,304.6611)"
         id="g116"
         style="fill:none;stroke:#000000;stroke-width:0.67500001;stroke-miterlimit:4;stroke-dasharray:none;stroke-opacity:1"><path
           id="path118"
           style="fill:none;fill-opacity:1;fill-rule:evenodd;stroke:#000000;stroke-width:0.67500001;stroke-miterlimit:4;stroke-dasharray:none;stroke-opacity:1"
           d="M 0,0 C 4.513,-7.662 -5.66,-12.141 -9.833,-6.808 -12.943,-0.147 -5.009,3.941 0,0"
           inkscape:connector-curvature="0" /></g><g
         transform="translate(496.5947,301.6357)"
         id="g120"
         style="fill:none;stroke:#000000;stroke-width:0.67500001;stroke-miterlimit:4;stroke-dasharray:none;stroke-opacity:1"><path
           id="path122"
           style="fill:none;fill-opacity:1;fill-rule:evenodd;stroke:#000000;stroke-width:0.67500001;stroke-miterlimit:4;stroke-dasharray:none;stroke-opacity:1"
           d="M 0,0 C 3.389,-0.111 6.474,0.082 8.32,1.513 14.597,-6.495 -4.165,-13.295 0,0"
           inkscape:connector-curvature="0" /></g><g
         transform="translate(519.2871,300.123)"
         id="g124"
         style="fill:none;stroke:#000000;stroke-width:0.67500001;stroke-miterlimit:4;stroke-dasharray:none;stroke-opacity:1"><path
           id="path126"
           style="fill:none;fill-opacity:1;fill-rule:evenodd;stroke:#000000;stroke-width:0.67500001;stroke-miterlimit:4;stroke-dasharray:none;stroke-opacity:1"
           d="M 0,0 C 8.238,-7.418 -9.976,-15.609 -8.32,-2.27 -6.339,-0.721 -3.896,0.367 0,0"
           inkscape:connector-curvature="0" /></g><g
         transform="translate(548.0322,294.8281)"
         id="g128"
         style="fill:none;stroke:#000000;stroke-width:0.67500001;stroke-miterlimit:4;stroke-dasharray:none;stroke-opacity:1"><path
           id="path130"
           style="fill:none;fill-opacity:1;fill-rule:evenodd;stroke:#000000;stroke-width:0.67500001;stroke-miterlimit:4;stroke-dasharray:none;stroke-opacity:1"
           d="M 0,0 C 4.644,-10.368 -9.136,-12.327 -11.347,-4.539 -11.543,1.021 -4.296,3.496 0,0"
           inkscape:connector-curvature="0" /></g><g
         transform="translate(516.2617,284.2383)"
         id="g132"
         style="fill:none;stroke:#000000;stroke-width:0.67500001;stroke-miterlimit:4;stroke-dasharray:none;stroke-opacity:1"><path
           id="path134"
           style="fill:none;fill-opacity:1;fill-rule:evenodd;stroke:#000000;stroke-width:0.67500001;stroke-miterlimit:4;stroke-dasharray:none;stroke-opacity:1"
           d="m 0,0 c -0.826,-5.364 2.223,-6.855 3.025,-10.591 -8.347,-4.511 -17.423,-8.294 -26.474,-12.102 0.482,6.331 3.521,16.645 2.269,27.231 3.158,-0.711 8.529,-1.6 10.59,0.757 C -7.811,2.778 -5.017,0.277 0,0"
           inkscape:connector-curvature="0" /></g><g
         transform="translate(525.3389,287.2637)"
         id="g136"
         style="fill:none;stroke:#000000;stroke-width:0.67500001;stroke-miterlimit:4;stroke-dasharray:none;stroke-opacity:1"><path
           id="path138"
           style="fill:none;fill-opacity:1;fill-rule:evenodd;stroke:#000000;stroke-width:0.67500001;stroke-miterlimit:4;stroke-dasharray:none;stroke-opacity:1"
           d="M 0,0 C 9.337,5.012 13.616,-9.852 6.808,-12.103 0.702,-14.122 -7.408,-3.977 0,0"
           inkscape:connector-curvature="0" /></g></g></g></svg>