solid OpenSCAD_Model
  facet normal -1 0 0
    outer loop
      vertex -0.75 -7.25 25.75
      vertex -0.75 -7.25 34.15
      vertex -0.75 -0.75 25.75
    endloop
  endfacet
  facet normal -1 0 0
    outer loop
      vertex -0.75 -0.75 25.75
      vertex -0.75 -7.25 34.15
      vertex -0.75 -0.75 34.15
    endloop
  endfacet
  facet normal -1 0 0
    outer loop
      vertex -0.75 -0.75 34.15
      vertex -0.75 -0.75 38.75
      vertex -0.75 31 38.75
    endloop
  endfacet
  facet normal -1 0 0
    outer loop
      vertex -0.75 -0.75 34.15
      vertex -0.75 31 38.75
      vertex -0.75 -0.75 25.75
    endloop
  endfacet
  facet normal -1 0 0
    outer loop
      vertex -0.75 -0.75 25.75
      vertex -0.75 31 38.75
      vertex -0.75 42.75 38.75
    endloop
  endfacet
  facet normal -1 0 0
    outer loop
      vertex -0.75 -0.75 25.75
      vertex -0.75 42.75 38.75
      vertex -0.75 42.75 34.15
    endloop
  endfacet
  facet normal -1 0 0
    outer loop
      vertex -0.75 -0.75 25.75
      vertex -0.75 42.75 34.15
      vertex -0.75 49.25 34.15
    endloop
  endfacet
  facet normal -1 0 0
    outer loop
      vertex -0.75 42.75 25.75
      vertex -0.75 49.25 34.15
      vertex -0.75 49.25 25.75
    endloop
  endfacet
  facet normal -1 0 0
    outer loop
      vertex -0.75 -0.75 25.75
      vertex -0.75 49.25 34.15
      vertex -0.75 42.75 25.75
    endloop
  endfacet
  facet normal -1 0 0
    outer loop
      vertex -0.75 42.75 25.75
      vertex -0.75 42.75 -0.75
      vertex -0.75 -0.75 25.75
    endloop
  endfacet
  facet normal -1 0 0
    outer loop
      vertex -0.75 -0.75 25.75
      vertex -0.75 42.75 -0.75
      vertex -0.75 -0.75 -0.75
    endloop
  endfacet
  facet normal 0 -1 0
    outer loop
      vertex -0.75 -7.25 34.15
      vertex -0.75 -7.25 25.75
      vertex 21.75 -7.25 25.75
    endloop
  endfacet
  facet normal 0 -1 0
    outer loop
      vertex 21.75 -7.25 34.15
      vertex -0.75 -7.25 34.15
      vertex 21.75 -7.25 25.75
    endloop
  endfacet
  facet normal 0 0 -1
    outer loop
      vertex 4.79035 -2.99474 25.75
      vertex -0.75 -0.75 25.75
      vertex 21.75 -7.25 25.75
    endloop
  endfacet
  facet normal 0 0 -1
    outer loop
      vertex 15.4972 -3.51241 25.75
      vertex -0.75 -0.75 25.75
      vertex 21.75 -0.75 25.75
    endloop
  endfacet
  facet normal 0 0 -1
    outer loop
      vertex -0.75 -7.25 25.75
      vertex -0.75 -0.75 25.75
      vertex 3.19715 -3.51241 25.75
    endloop
  endfacet
  facet normal 0 0 -1
    outer loop
      vertex -0.75 -7.25 25.75
      vertex 3.19715 -3.51241 25.75
      vertex 3.19715 -5.18759 25.75
    endloop
  endfacet
  facet normal 0 0 -1
    outer loop
      vertex -0.75 -7.25 25.75
      vertex 3.19715 -5.18759 25.75
      vertex 4.79035 -5.70526 25.75
    endloop
  endfacet
  facet normal 0 0 -1
    outer loop
      vertex -0.75 -7.25 25.75
      vertex 4.79035 -5.70526 25.75
      vertex 21.75 -7.25 25.75
    endloop
  endfacet
  facet normal 0 0 -1
    outer loop
      vertex 4.79035 -2.99474 25.75
      vertex 21.75 -7.25 25.75
      vertex 5.775 -4.35 25.75
    endloop
  endfacet
  facet normal 0 0 -1
    outer loop
      vertex 3.19715 -3.51241 25.75
      vertex -0.75 -0.75 25.75
      vertex 4.79035 -2.99474 25.75
    endloop
  endfacet
  facet normal 0 0 -1
    outer loop
      vertex 18.075 -4.35 25.75
      vertex 21.75 -7.25 25.75
      vertex 17.0903 -5.70526 25.75
    endloop
  endfacet
  facet normal 0 0 -1
    outer loop
      vertex 15.4972 -5.18759 25.75
      vertex -0.75 -0.75 25.75
      vertex 15.4972 -3.51241 25.75
    endloop
  endfacet
  facet normal 0 0 -1
    outer loop
      vertex 17.0903 -2.99474 25.75
      vertex 15.4972 -3.51241 25.75
      vertex 21.75 -0.75 25.75
    endloop
  endfacet
  facet normal 0 0 -1
    outer loop
      vertex 21.75 -7.25 25.75
      vertex -0.75 -0.75 25.75
      vertex 15.4972 -5.18759 25.75
    endloop
  endfacet
  facet normal 0 0 -1
    outer loop
      vertex 21.75 -7.25 25.75
      vertex 15.4972 -5.18759 25.75
      vertex 17.0903 -5.70526 25.75
    endloop
  endfacet
  facet normal 0 0 -1
    outer loop
      vertex 21.75 -7.25 25.75
      vertex 18.075 -4.35 25.75
      vertex 21.75 -0.75 25.75
    endloop
  endfacet
  facet normal 0 0 -1
    outer loop
      vertex 18.075 -4.35 25.75
      vertex 17.0903 -2.99474 25.75
      vertex 21.75 -0.75 25.75
    endloop
  endfacet
  facet normal 0 0 -1
    outer loop
      vertex 5.775 -4.35 25.75
      vertex 21.75 -7.25 25.75
      vertex 4.79035 -5.70526 25.75
    endloop
  endfacet
  facet normal 0 -1 0
    outer loop
      vertex -0.75 -0.75 25.75
      vertex -0.75 -0.75 -0.75
      vertex 21.75 -0.75 -0.75
    endloop
  endfacet
  facet normal 0 -1 0
    outer loop
      vertex 21.75 -0.75 25.75
      vertex -0.75 -0.75 25.75
      vertex 21.75 -0.75 -0.75
    endloop
  endfacet
  facet normal 0 0 -1
    outer loop
      vertex -0.75 -0.75 -0.75
      vertex -0.75 42.75 -0.75
      vertex 21.75 -0.75 -0.75
    endloop
  endfacet
  facet normal 0 0 -1
    outer loop
      vertex 21.75 -0.75 -0.75
      vertex -0.75 42.75 -0.75
      vertex 21.75 42.75 -0.75
    endloop
  endfacet
  facet normal 0 1 0
    outer loop
      vertex 13.875 42.75 7.45
      vertex -0.75 42.75 25.75
      vertex 21.75 42.75 -0.75
    endloop
  endfacet
  facet normal 0 1 0
    outer loop
      vertex 21.75 42.75 -0.75
      vertex -0.75 42.75 25.75
      vertex 21.75 42.75 25.75
    endloop
  endfacet
  facet normal 0 1 0
    outer loop
      vertex -0.75 42.75 -0.75
      vertex -0.75 42.75 25.75
      vertex 7.125 42.75 7.45
    endloop
  endfacet
  facet normal 0 1 0
    outer loop
      vertex -0.75 42.75 -0.75
      vertex 7.125 42.75 7.45
      vertex 7.125 42.75 3
    endloop
  endfacet
  facet normal 0 1 0
    outer loop
      vertex -0.75 42.75 -0.75
      vertex 7.125 42.75 3
      vertex 21.75 42.75 -0.75
    endloop
  endfacet
  facet normal 0 1 0
    outer loop
      vertex 7.125 42.75 3
      vertex 13.875 42.75 3
      vertex 21.75 42.75 -0.75
    endloop
  endfacet
  facet normal 0 1 0
    outer loop
      vertex 7.125 42.75 7.45
      vertex -0.75 42.75 25.75
      vertex 13.875 42.75 7.45
    endloop
  endfacet
  facet normal 0 1 0
    outer loop
      vertex 13.875 42.75 7.45
      vertex 21.75 42.75 -0.75
      vertex 13.875 42.75 3
    endloop
  endfacet
  facet normal 0 0 -1
    outer loop
      vertex 5.775 46.35 25.75
      vertex 21.75 42.75 25.75
      vertex 4.79035 44.9947 25.75
    endloop
  endfacet
  facet normal 0 0 -1
    outer loop
      vertex 4.79035 47.7053 25.75
      vertex -0.75 49.25 25.75
      vertex 21.75 49.25 25.75
    endloop
  endfacet
  facet normal 0 0 -1
    outer loop
      vertex -0.75 42.75 25.75
      vertex -0.75 49.25 25.75
      vertex 3.19715 47.1876 25.75
    endloop
  endfacet
  facet normal 0 0 -1
    outer loop
      vertex -0.75 42.75 25.75
      vertex 3.19715 47.1876 25.75
      vertex 3.19715 45.5124 25.75
    endloop
  endfacet
  facet normal 0 0 -1
    outer loop
      vertex -0.75 42.75 25.75
      vertex 3.19715 45.5124 25.75
      vertex 4.79035 44.9947 25.75
    endloop
  endfacet
  facet normal 0 0 -1
    outer loop
      vertex -0.75 42.75 25.75
      vertex 4.79035 44.9947 25.75
      vertex 21.75 42.75 25.75
    endloop
  endfacet
  facet normal 0 0 -1
    outer loop
      vertex 4.79035 47.7053 25.75
      vertex 21.75 42.75 25.75
      vertex 5.775 46.35 25.75
    endloop
  endfacet
  facet normal 0 0 -1
    outer loop
      vertex 15.4972 47.1876 25.75
      vertex 4.79035 47.7053 25.75
      vertex 21.75 49.25 25.75
    endloop
  endfacet
  facet normal 0 0 -1
    outer loop
      vertex 15.4972 45.5124 25.75
      vertex 4.79035 47.7053 25.75
      vertex 15.4972 47.1876 25.75
    endloop
  endfacet
  facet normal 0 0 -1
    outer loop
      vertex 17.0903 47.7053 25.75
      vertex 15.4972 47.1876 25.75
      vertex 21.75 49.25 25.75
    endloop
  endfacet
  facet normal 0 0 -1
    outer loop
      vertex 21.75 42.75 25.75
      vertex 4.79035 47.7053 25.75
      vertex 15.4972 45.5124 25.75
    endloop
  endfacet
  facet normal 0 0 -1
    outer loop
      vertex 21.75 42.75 25.75
      vertex 15.4972 45.5124 25.75
      vertex 17.0903 44.9947 25.75
    endloop
  endfacet
  facet normal 0 0 -1
    outer loop
      vertex 21.75 42.75 25.75
      vertex 18.075 46.35 25.75
      vertex 21.75 49.25 25.75
    endloop
  endfacet
  facet normal 0 0 -1
    outer loop
      vertex 18.075 46.35 25.75
      vertex 17.0903 47.7053 25.75
      vertex 21.75 49.25 25.75
    endloop
  endfacet
  facet normal 0 0 -1
    outer loop
      vertex 3.19715 47.1876 25.75
      vertex -0.75 49.25 25.75
      vertex 4.79035 47.7053 25.75
    endloop
  endfacet
  facet normal 0 0 -1
    outer loop
      vertex 18.075 46.35 25.75
      vertex 21.75 42.75 25.75
      vertex 17.0903 44.9947 25.75
    endloop
  endfacet
  facet normal 0 1 0
    outer loop
      vertex -0.75 49.25 25.75
      vertex -0.75 49.25 34.15
      vertex 21.75 49.25 25.75
    endloop
  endfacet
  facet normal 0 1 0
    outer loop
      vertex 21.75 49.25 25.75
      vertex -0.75 49.25 34.15
      vertex 21.75 49.25 34.15
    endloop
  endfacet
  facet normal 0 0 1
    outer loop
      vertex -0.75 49.25 34.15
      vertex -0.75 42.75 34.15
      vertex 21.75 42.75 34.15
    endloop
  endfacet
  facet normal 0 0 1
    outer loop
      vertex 21.75 49.25 34.15
      vertex -0.75 49.25 34.15
      vertex 21.75 42.75 34.15
    endloop
  endfacet
  facet normal 0 1 0
    outer loop
      vertex -0.75 42.75 34.15
      vertex -0.75 42.75 38.75
      vertex 21.75 42.75 34.15
    endloop
  endfacet
  facet normal 0 1 0
    outer loop
      vertex 21.75 42.75 34.15
      vertex -0.75 42.75 38.75
      vertex 21.75 42.75 38.75
    endloop
  endfacet
  facet normal 0 0 1
    outer loop
      vertex 1.39856 37.6126 38.75
      vertex 2.97228 39.3604 38.75
      vertex -0.75 42.75 38.75
    endloop
  endfacet
  facet normal 0 0 1
    outer loop
      vertex -0.75 42.75 38.75
      vertex -0.75 31 38.75
      vertex -0.504161 33.339 38.75
    endloop
  endfacet
  facet normal 0 0 1
    outer loop
      vertex 2.97228 39.3604 38.75
      vertex 4.875 40.7428 38.75
      vertex -0.75 42.75 38.75
    endloop
  endfacet
  facet normal 0 0 1
    outer loop
      vertex 0.222614 35.5758 38.75
      vertex -0.75 42.75 38.75
      vertex -0.504161 33.339 38.75
    endloop
  endfacet
  facet normal 0 0 1
    outer loop
      vertex 0.222614 35.5758 38.75
      vertex 1.39856 37.6126 38.75
      vertex -0.75 42.75 38.75
    endloop
  endfacet
  facet normal 0 0 1
    outer loop
      vertex 4.875 40.7428 38.75
      vertex 7.02356 41.6994 38.75
      vertex -0.75 42.75 38.75
    endloop
  endfacet
  facet normal 0 0 1
    outer loop
      vertex 7.02356 41.6994 38.75
      vertex 9.32405 42.1884 38.75
      vertex -0.75 42.75 38.75
    endloop
  endfacet
  facet normal 0 0 1
    outer loop
      vertex 9.32405 42.1884 38.75
      vertex 11.6759 42.1884 38.75
      vertex -0.75 42.75 38.75
    endloop
  endfacet
  facet normal 0 0 1
    outer loop
      vertex 11.6759 42.1884 38.75
      vertex 21.75 42.75 38.75
      vertex -0.75 42.75 38.75
    endloop
  endfacet
  facet normal 0 0 1
    outer loop
      vertex 13.9764 41.6994 38.75
      vertex 21.75 42.75 38.75
      vertex 11.6759 42.1884 38.75
    endloop
  endfacet
  facet normal 0 0 1
    outer loop
      vertex 16.125 40.7428 38.75
      vertex 21.75 42.75 38.75
      vertex 13.9764 41.6994 38.75
    endloop
  endfacet
  facet normal 0 0 1
    outer loop
      vertex 18.0277 39.3604 38.75
      vertex 21.75 42.75 38.75
      vertex 16.125 40.7428 38.75
    endloop
  endfacet
  facet normal 0 0 1
    outer loop
      vertex 19.6014 37.6126 38.75
      vertex 21.75 42.75 38.75
      vertex 18.0277 39.3604 38.75
    endloop
  endfacet
  facet normal 0 0 1
    outer loop
      vertex 20.7774 35.5758 38.75
      vertex 21.75 42.75 38.75
      vertex 19.6014 37.6126 38.75
    endloop
  endfacet
  facet normal 0 0 1
    outer loop
      vertex 21.5042 33.339 38.75
      vertex 21.75 42.75 38.75
      vertex 20.7774 35.5758 38.75
    endloop
  endfacet
  facet normal 0 0 1
    outer loop
      vertex 21.75 31 38.75
      vertex 21.75 42.75 38.75
      vertex 21.5042 33.339 38.75
    endloop
  endfacet
  facet normal 0 0 1
    outer loop
      vertex 4.875 21.2572 38.75
      vertex -0.75 -0.75 38.75
      vertex 21.75 -0.75 38.75
    endloop
  endfacet
  facet normal 0 0 1
    outer loop
      vertex 21.75 31 38.75
      vertex 21.5042 28.661 38.75
      vertex 21.75 -0.75 38.75
    endloop
  endfacet
  facet normal 0 0 1
    outer loop
      vertex 21.5042 28.661 38.75
      vertex 20.7774 26.4242 38.75
      vertex 21.75 -0.75 38.75
    endloop
  endfacet
  facet normal 0 0 1
    outer loop
      vertex 20.7774 26.4242 38.75
      vertex 19.6014 24.3874 38.75
      vertex 21.75 -0.75 38.75
    endloop
  endfacet
  facet normal 0 0 1
    outer loop
      vertex 19.6014 24.3874 38.75
      vertex 18.0277 22.6396 38.75
      vertex 21.75 -0.75 38.75
    endloop
  endfacet
  facet normal 0 0 1
    outer loop
      vertex 18.0277 22.6396 38.75
      vertex 16.125 21.2572 38.75
      vertex 21.75 -0.75 38.75
    endloop
  endfacet
  facet normal 0 0 1
    outer loop
      vertex 16.125 21.2572 38.75
      vertex 13.9764 20.3006 38.75
      vertex 21.75 -0.75 38.75
    endloop
  endfacet
  facet normal 0 0 1
    outer loop
      vertex 13.9764 20.3006 38.75
      vertex 11.6759 19.8116 38.75
      vertex 21.75 -0.75 38.75
    endloop
  endfacet
  facet normal 0 0 1
    outer loop
      vertex 11.6759 19.8116 38.75
      vertex 9.32405 19.8116 38.75
      vertex 21.75 -0.75 38.75
    endloop
  endfacet
  facet normal 0 0 1
    outer loop
      vertex 9.32405 19.8116 38.75
      vertex 7.02356 20.3006 38.75
      vertex 21.75 -0.75 38.75
    endloop
  endfacet
  facet normal 0 0 1
    outer loop
      vertex 2.97228 22.6396 38.75
      vertex -0.75 -0.75 38.75
      vertex 4.875 21.2572 38.75
    endloop
  endfacet
  facet normal 0 0 1
    outer loop
      vertex 1.39856 24.3874 38.75
      vertex -0.75 -0.75 38.75
      vertex 2.97228 22.6396 38.75
    endloop
  endfacet
  facet normal 0 0 1
    outer loop
      vertex 0.222614 26.4242 38.75
      vertex -0.75 -0.75 38.75
      vertex 1.39856 24.3874 38.75
    endloop
  endfacet
  facet normal 0 0 1
    outer loop
      vertex -0.504161 28.661 38.75
      vertex -0.75 -0.75 38.75
      vertex 0.222614 26.4242 38.75
    endloop
  endfacet
  facet normal 0 0 1
    outer loop
      vertex -0.75 31 38.75
      vertex -0.75 -0.75 38.75
      vertex -0.504161 28.661 38.75
    endloop
  endfacet
  facet normal 0 0 1
    outer loop
      vertex 7.02356 20.3006 38.75
      vertex 4.875 21.2572 38.75
      vertex 21.75 -0.75 38.75
    endloop
  endfacet
  facet normal -0.994522 0.104528 0
    outer loop
      vertex -0.75 31 38.75
      vertex -0.75 31 47.5
      vertex -0.504161 33.339 38.75
    endloop
  endfacet
  facet normal -0.994522 0.104528 0
    outer loop
      vertex -0.504161 33.339 38.75
      vertex -0.75 31 47.5
      vertex -0.504161 33.339 47.5
    endloop
  endfacet
  facet normal -0.994522 -0.104528 0
    outer loop
      vertex -0.75 31 38.75
      vertex -0.504161 28.661 38.75
      vertex -0.75 31 47.5
    endloop
  endfacet
  facet normal -0.994522 -0.104528 0
    outer loop
      vertex -0.75 31 47.5
      vertex -0.504161 28.661 38.75
      vertex -0.504161 28.661 47.5
    endloop
  endfacet
  facet normal 0 -1 0
    outer loop
      vertex -0.75 -0.75 38.75
      vertex -0.75 -0.75 34.15
      vertex 21.75 -0.75 34.15
    endloop
  endfacet
  facet normal 0 -1 0
    outer loop
      vertex 21.75 -0.75 38.75
      vertex -0.75 -0.75 38.75
      vertex 21.75 -0.75 34.15
    endloop
  endfacet
  facet normal 0 0 1
    outer loop
      vertex -0.75 -0.75 34.15
      vertex -0.75 -7.25 34.15
      vertex 21.75 -7.25 34.15
    endloop
  endfacet
  facet normal 0 0 1
    outer loop
      vertex 21.75 -0.75 34.15
      vertex -0.75 -0.75 34.15
      vertex 21.75 -7.25 34.15
    endloop
  endfacet
  facet normal 1 0 0
    outer loop
      vertex 21.75 42.75 25.75
      vertex 21.75 49.25 25.75
      vertex 21.75 -7.25 34.15
    endloop
  endfacet
  facet normal 1 0 0
    outer loop
      vertex 21.75 -7.25 34.15
      vertex 21.75 -7.25 25.75
      vertex 21.75 -0.75 25.75
    endloop
  endfacet
  facet normal 1 0 0
    outer loop
      vertex 21.75 42.75 -0.75
      vertex 21.75 -7.25 34.15
      vertex 21.75 -0.75 25.75
    endloop
  endfacet
  facet normal 1 0 0
    outer loop
      vertex 21.75 -0.75 -0.75
      vertex 21.75 42.75 -0.75
      vertex 21.75 -0.75 25.75
    endloop
  endfacet
  facet normal 1 0 0
    outer loop
      vertex 21.75 42.75 -0.75
      vertex 21.75 42.75 25.75
      vertex 21.75 -7.25 34.15
    endloop
  endfacet
  facet normal 1 0 0
    outer loop
      vertex 21.75 49.25 25.75
      vertex 21.75 42.75 34.15
      vertex 21.75 -0.75 34.15
    endloop
  endfacet
  facet normal 1 0 0
    outer loop
      vertex 21.75 49.25 25.75
      vertex 21.75 49.25 34.15
      vertex 21.75 42.75 34.15
    endloop
  endfacet
  facet normal 1 0 0
    outer loop
      vertex 21.75 49.25 25.75
      vertex 21.75 -0.75 34.15
      vertex 21.75 -7.25 34.15
    endloop
  endfacet
  facet normal 1 0 0
    outer loop
      vertex 21.75 42.75 34.15
      vertex 21.75 42.75 38.75
      vertex 21.75 -0.75 34.15
    endloop
  endfacet
  facet normal 1 0 0
    outer loop
      vertex 21.75 31 38.75
      vertex 21.75 -0.75 34.15
      vertex 21.75 42.75 38.75
    endloop
  endfacet
  facet normal 1 0 0
    outer loop
      vertex 21.75 -0.75 38.75
      vertex 21.75 -0.75 34.15
      vertex 21.75 31 38.75
    endloop
  endfacet
  facet normal -1 0 0
    outer loop
      vertex 3.19715 -5.18759 13
      vertex 3.19715 -5.18759 25.75
      vertex 3.19715 -3.51241 13
    endloop
  endfacet
  facet normal -1 0 0
    outer loop
      vertex 3.19715 -3.51241 13
      vertex 3.19715 -5.18759 25.75
      vertex 3.19715 -3.51241 25.75
    endloop
  endfacet
  facet normal -0.309017 0.951056 0
    outer loop
      vertex 3.19715 -3.51241 13
      vertex 3.19715 -3.51241 25.75
      vertex 4.79035 -2.99474 13
    endloop
  endfacet
  facet normal -0.309017 0.951056 0
    outer loop
      vertex 4.79035 -2.99474 13
      vertex 3.19715 -3.51241 25.75
      vertex 4.79035 -2.99474 25.75
    endloop
  endfacet
  facet normal 0.809017 0.587785 0
    outer loop
      vertex 5.775 -4.35 13
      vertex 4.79035 -2.99474 13
      vertex 4.79035 -2.99474 25.75
    endloop
  endfacet
  facet normal 0.809017 0.587785 0
    outer loop
      vertex 5.775 -4.35 25.75
      vertex 5.775 -4.35 13
      vertex 4.79035 -2.99474 25.75
    endloop
  endfacet
  facet normal 0.809017 -0.587785 0
    outer loop
      vertex 4.79035 -5.70526 25.75
      vertex 4.79035 -5.70526 13
      vertex 5.775 -4.35 13
    endloop
  endfacet
  facet normal 0.809017 -0.587785 0
    outer loop
      vertex 5.775 -4.35 25.75
      vertex 4.79035 -5.70526 25.75
      vertex 5.775 -4.35 13
    endloop
  endfacet
  facet normal -0.309017 -0.951056 0
    outer loop
      vertex 3.19715 -5.18759 25.75
      vertex 3.19715 -5.18759 13
      vertex 4.79035 -5.70526 13
    endloop
  endfacet
  facet normal -0.309017 -0.951056 0
    outer loop
      vertex 4.79035 -5.70526 25.75
      vertex 3.19715 -5.18759 25.75
      vertex 4.79035 -5.70526 13
    endloop
  endfacet
  facet normal -1 0 0
    outer loop
      vertex 15.4972 -5.18759 13
      vertex 15.4972 -5.18759 25.75
      vertex 15.4972 -3.51241 13
    endloop
  endfacet
  facet normal -1 0 0
    outer loop
      vertex 15.4972 -3.51241 13
      vertex 15.4972 -5.18759 25.75
      vertex 15.4972 -3.51241 25.75
    endloop
  endfacet
  facet normal -0.309017 0.951056 0
    outer loop
      vertex 15.4972 -3.51241 13
      vertex 15.4972 -3.51241 25.75
      vertex 17.0903 -2.99474 13
    endloop
  endfacet
  facet normal -0.309017 0.951056 0
    outer loop
      vertex 17.0903 -2.99474 13
      vertex 15.4972 -3.51241 25.75
      vertex 17.0903 -2.99474 25.75
    endloop
  endfacet
  facet normal 0.809017 0.587785 0
    outer loop
      vertex 18.075 -4.35 13
      vertex 17.0903 -2.99474 13
      vertex 17.0903 -2.99474 25.75
    endloop
  endfacet
  facet normal 0.809017 0.587785 0
    outer loop
      vertex 18.075 -4.35 25.75
      vertex 18.075 -4.35 13
      vertex 17.0903 -2.99474 25.75
    endloop
  endfacet
  facet normal 0.809017 -0.587785 0
    outer loop
      vertex 17.0903 -5.70526 25.75
      vertex 17.0903 -5.70526 13
      vertex 18.075 -4.35 13
    endloop
  endfacet
  facet normal 0.809017 -0.587785 0
    outer loop
      vertex 18.075 -4.35 25.75
      vertex 17.0903 -5.70526 25.75
      vertex 18.075 -4.35 13
    endloop
  endfacet
  facet normal -0.309017 -0.951056 0
    outer loop
      vertex 15.4972 -5.18759 25.75
      vertex 15.4972 -5.18759 13
      vertex 17.0903 -5.70526 13
    endloop
  endfacet
  facet normal -0.309017 -0.951056 0
    outer loop
      vertex 17.0903 -5.70526 25.75
      vertex 15.4972 -5.18759 25.75
      vertex 17.0903 -5.70526 13
    endloop
  endfacet
  facet normal -1 0 0
    outer loop
      vertex 7.125 42.75 3
      vertex 7.125 42.75 7.45
      vertex 7.125 46.5 3
    endloop
  endfacet
  facet normal -1 0 0
    outer loop
      vertex 7.125 46.5 3
      vertex 7.125 42.75 7.45
      vertex 7.125 46.5 7.45
    endloop
  endfacet
  facet normal 0 0 1
    outer loop
      vertex 7.125 46.5 7.45
      vertex 7.125 42.75 7.45
      vertex 13.875 42.75 7.45
    endloop
  endfacet
  facet normal 0 0 1
    outer loop
      vertex 13.875 46.5 7.45
      vertex 7.125 46.5 7.45
      vertex 13.875 42.75 7.45
    endloop
  endfacet
  facet normal 1 0 0
    outer loop
      vertex 13.875 42.75 7.45
      vertex 13.875 42.75 3
      vertex 13.875 46.5 3
    endloop
  endfacet
  facet normal 1 0 0
    outer loop
      vertex 13.875 46.5 7.45
      vertex 13.875 42.75 7.45
      vertex 13.875 46.5 3
    endloop
  endfacet
  facet normal 0 0 -1
    outer loop
      vertex 7.125 42.75 3
      vertex 7.125 46.5 3
      vertex 13.875 42.75 3
    endloop
  endfacet
  facet normal 0 0 -1
    outer loop
      vertex 13.875 42.75 3
      vertex 7.125 46.5 3
      vertex 13.875 46.5 3
    endloop
  endfacet
  facet normal -0.309017 0.951056 0
    outer loop
      vertex 3.19715 47.1876 13
      vertex 3.19715 47.1876 25.75
      vertex 4.79035 47.7053 13
    endloop
  endfacet
  facet normal -0.309017 0.951056 0
    outer loop
      vertex 4.79035 47.7053 13
      vertex 3.19715 47.1876 25.75
      vertex 4.79035 47.7053 25.75
    endloop
  endfacet
  facet normal -1 0 0
    outer loop
      vertex 3.19715 45.5124 13
      vertex 3.19715 45.5124 25.75
      vertex 3.19715 47.1876 13
    endloop
  endfacet
  facet normal -1 0 0
    outer loop
      vertex 3.19715 47.1876 13
      vertex 3.19715 45.5124 25.75
      vertex 3.19715 47.1876 25.75
    endloop
  endfacet
  facet normal 0.809017 0.587785 0
    outer loop
      vertex 5.775 46.35 13
      vertex 4.79035 47.7053 13
      vertex 4.79035 47.7053 25.75
    endloop
  endfacet
  facet normal 0.809017 0.587785 0
    outer loop
      vertex 5.775 46.35 25.75
      vertex 5.775 46.35 13
      vertex 4.79035 47.7053 25.75
    endloop
  endfacet
  facet normal 0.809017 -0.587785 0
    outer loop
      vertex 4.79035 44.9947 25.75
      vertex 4.79035 44.9947 13
      vertex 5.775 46.35 13
    endloop
  endfacet
  facet normal 0.809017 -0.587785 0
    outer loop
      vertex 5.775 46.35 25.75
      vertex 4.79035 44.9947 25.75
      vertex 5.775 46.35 13
    endloop
  endfacet
  facet normal -0.309017 -0.951056 0
    outer loop
      vertex 3.19715 45.5124 25.75
      vertex 3.19715 45.5124 13
      vertex 4.79035 44.9947 13
    endloop
  endfacet
  facet normal -0.309017 -0.951056 0
    outer loop
      vertex 4.79035 44.9947 25.75
      vertex 3.19715 45.5124 25.75
      vertex 4.79035 44.9947 13
    endloop
  endfacet
  facet normal -0.309017 0.951056 0
    outer loop
      vertex 15.4972 47.1876 13
      vertex 15.4972 47.1876 25.75
      vertex 17.0903 47.7053 13
    endloop
  endfacet
  facet normal -0.309017 0.951056 0
    outer loop
      vertex 17.0903 47.7053 13
      vertex 15.4972 47.1876 25.75
      vertex 17.0903 47.7053 25.75
    endloop
  endfacet
  facet normal -1 0 0
    outer loop
      vertex 15.4972 45.5124 13
      vertex 15.4972 45.5124 25.75
      vertex 15.4972 47.1876 13
    endloop
  endfacet
  facet normal -1 0 0
    outer loop
      vertex 15.4972 47.1876 13
      vertex 15.4972 45.5124 25.75
      vertex 15.4972 47.1876 25.75
    endloop
  endfacet
  facet normal 0.809017 0.587785 0
    outer loop
      vertex 18.075 46.35 13
      vertex 17.0903 47.7053 13
      vertex 17.0903 47.7053 25.75
    endloop
  endfacet
  facet normal 0.809017 0.587785 0
    outer loop
      vertex 18.075 46.35 25.75
      vertex 18.075 46.35 13
      vertex 17.0903 47.7053 25.75
    endloop
  endfacet
  facet normal 0.809017 -0.587785 0
    outer loop
      vertex 17.0903 44.9947 25.75
      vertex 17.0903 44.9947 13
      vertex 18.075 46.35 13
    endloop
  endfacet
  facet normal 0.809017 -0.587785 0
    outer loop
      vertex 18.075 46.35 25.75
      vertex 17.0903 44.9947 25.75
      vertex 18.075 46.35 13
    endloop
  endfacet
  facet normal -0.309017 -0.951056 0
    outer loop
      vertex 15.4972 45.5124 25.75
      vertex 15.4972 45.5124 13
      vertex 17.0903 44.9947 13
    endloop
  endfacet
  facet normal -0.309017 -0.951056 0
    outer loop
      vertex 17.0903 44.9947 25.75
      vertex 15.4972 45.5124 25.75
      vertex 17.0903 44.9947 13
    endloop
  endfacet
  facet normal 0.994522 -0.104528 0
    outer loop
      vertex 21.5042 28.661 47.5
      vertex 21.5042 28.661 38.75
      vertex 21.75 31 38.75
    endloop
  endfacet
  facet normal 0.994522 -0.104528 0
    outer loop
      vertex 21.75 31 47.5
      vertex 21.5042 28.661 47.5
      vertex 21.75 31 38.75
    endloop
  endfacet
  facet normal 0.994522 0.104528 0
    outer loop
      vertex 21.75 31 38.75
      vertex 21.5042 33.339 38.75
      vertex 21.5042 33.339 47.5
    endloop
  endfacet
  facet normal 0.994522 0.104528 0
    outer loop
      vertex 21.75 31 47.5
      vertex 21.75 31 38.75
      vertex 21.5042 33.339 47.5
    endloop
  endfacet
  facet normal 0.951056 0.309017 0
    outer loop
      vertex 21.5042 33.339 38.75
      vertex 20.7774 35.5758 38.75
      vertex 20.7774 35.5758 47.5
    endloop
  endfacet
  facet normal 0.951056 0.309017 0
    outer loop
      vertex 21.5042 33.339 47.5
      vertex 21.5042 33.339 38.75
      vertex 20.7774 35.5758 47.5
    endloop
  endfacet
  facet normal 0.866025 0.5 0
    outer loop
      vertex 20.7774 35.5758 38.75
      vertex 19.6014 37.6126 38.75
      vertex 19.6014 37.6126 47.5
    endloop
  endfacet
  facet normal 0.866025 0.5 0
    outer loop
      vertex 20.7774 35.5758 47.5
      vertex 20.7774 35.5758 38.75
      vertex 19.6014 37.6126 47.5
    endloop
  endfacet
  facet normal 0.743145 0.669131 0
    outer loop
      vertex 19.6014 37.6126 38.75
      vertex 18.0277 39.3604 38.75
      vertex 18.0277 39.3604 47.5
    endloop
  endfacet
  facet normal 0.743145 0.669131 0
    outer loop
      vertex 19.6014 37.6126 47.5
      vertex 19.6014 37.6126 38.75
      vertex 18.0277 39.3604 47.5
    endloop
  endfacet
  facet normal 0.587785 0.809017 0
    outer loop
      vertex 16.125 40.7428 38.75
      vertex 16.125 40.7428 47.5
      vertex 18.0277 39.3604 38.75
    endloop
  endfacet
  facet normal 0.587785 0.809017 0
    outer loop
      vertex 18.0277 39.3604 38.75
      vertex 16.125 40.7428 47.5
      vertex 18.0277 39.3604 47.5
    endloop
  endfacet
  facet normal 0.406737 0.913545 0
    outer loop
      vertex 13.9764 41.6994 38.75
      vertex 13.9764 41.6994 47.5
      vertex 16.125 40.7428 38.75
    endloop
  endfacet
  facet normal 0.406737 0.913545 0
    outer loop
      vertex 16.125 40.7428 38.75
      vertex 13.9764 41.6994 47.5
      vertex 16.125 40.7428 47.5
    endloop
  endfacet
  facet normal 0.207911 0.978148 0
    outer loop
      vertex 11.6759 42.1884 38.75
      vertex 11.6759 42.1884 47.5
      vertex 13.9764 41.6994 38.75
    endloop
  endfacet
  facet normal 0.207911 0.978148 0
    outer loop
      vertex 13.9764 41.6994 38.75
      vertex 11.6759 42.1884 47.5
      vertex 13.9764 41.6994 47.5
    endloop
  endfacet
  facet normal 0 1 0
    outer loop
      vertex 9.32405 42.1884 38.75
      vertex 9.32405 42.1884 47.5
      vertex 11.6759 42.1884 38.75
    endloop
  endfacet
  facet normal 0 1 0
    outer loop
      vertex 11.6759 42.1884 38.75
      vertex 9.32405 42.1884 47.5
      vertex 11.6759 42.1884 47.5
    endloop
  endfacet
  facet normal -0.207911 0.978148 0
    outer loop
      vertex 7.02356 41.6994 38.75
      vertex 7.02356 41.6994 47.5
      vertex 9.32405 42.1884 38.75
    endloop
  endfacet
  facet normal -0.207911 0.978148 0
    outer loop
      vertex 9.32405 42.1884 38.75
      vertex 7.02356 41.6994 47.5
      vertex 9.32405 42.1884 47.5
    endloop
  endfacet
  facet normal -0.406737 0.913545 0
    outer loop
      vertex 4.875 40.7428 38.75
      vertex 4.875 40.7428 47.5
      vertex 7.02356 41.6994 38.75
    endloop
  endfacet
  facet normal -0.406737 0.913545 0
    outer loop
      vertex 7.02356 41.6994 38.75
      vertex 4.875 40.7428 47.5
      vertex 7.02356 41.6994 47.5
    endloop
  endfacet
  facet normal -0.587785 0.809017 0
    outer loop
      vertex 2.97228 39.3604 38.75
      vertex 2.97228 39.3604 47.5
      vertex 4.875 40.7428 38.75
    endloop
  endfacet
  facet normal -0.587785 0.809017 0
    outer loop
      vertex 4.875 40.7428 38.75
      vertex 2.97228 39.3604 47.5
      vertex 4.875 40.7428 47.5
    endloop
  endfacet
  facet normal -0.743145 0.669131 0
    outer loop
      vertex 1.39856 37.6126 38.75
      vertex 1.39856 37.6126 47.5
      vertex 2.97228 39.3604 38.75
    endloop
  endfacet
  facet normal -0.743145 0.669131 0
    outer loop
      vertex 2.97228 39.3604 38.75
      vertex 1.39856 37.6126 47.5
      vertex 2.97228 39.3604 47.5
    endloop
  endfacet
  facet normal -0.866025 0.5 0
    outer loop
      vertex 0.222614 35.5758 38.75
      vertex 0.222614 35.5758 47.5
      vertex 1.39856 37.6126 38.75
    endloop
  endfacet
  facet normal -0.866025 0.5 0
    outer loop
      vertex 1.39856 37.6126 38.75
      vertex 0.222614 35.5758 47.5
      vertex 1.39856 37.6126 47.5
    endloop
  endfacet
  facet normal -0.951056 0.309017 0
    outer loop
      vertex -0.504161 33.339 38.75
      vertex -0.504161 33.339 47.5
      vertex 0.222614 35.5758 38.75
    endloop
  endfacet
  facet normal -0.951056 0.309017 0
    outer loop
      vertex 0.222614 35.5758 38.75
      vertex -0.504161 33.339 47.5
      vertex 0.222614 35.5758 47.5
    endloop
  endfacet
  facet normal -0.951056 -0.309017 0
    outer loop
      vertex -0.504161 28.661 38.75
      vertex 0.222614 26.4242 38.75
      vertex -0.504161 28.661 47.5
    endloop
  endfacet
  facet normal -0.951056 -0.309017 0
    outer loop
      vertex -0.504161 28.661 47.5
      vertex 0.222614 26.4242 38.75
      vertex 0.222614 26.4242 47.5
    endloop
  endfacet
  facet normal -0.866025 -0.5 0
    outer loop
      vertex 0.222614 26.4242 38.75
      vertex 1.39856 24.3874 38.75
      vertex 0.222614 26.4242 47.5
    endloop
  endfacet
  facet normal -0.866025 -0.5 0
    outer loop
      vertex 0.222614 26.4242 47.5
      vertex 1.39856 24.3874 38.75
      vertex 1.39856 24.3874 47.5
    endloop
  endfacet
  facet normal -0.743145 -0.669131 0
    outer loop
      vertex 1.39856 24.3874 38.75
      vertex 2.97228 22.6396 38.75
      vertex 1.39856 24.3874 47.5
    endloop
  endfacet
  facet normal -0.743145 -0.669131 0
    outer loop
      vertex 1.39856 24.3874 47.5
      vertex 2.97228 22.6396 38.75
      vertex 2.97228 22.6396 47.5
    endloop
  endfacet
  facet normal -0.587785 -0.809017 0
    outer loop
      vertex 2.97228 22.6396 47.5
      vertex 2.97228 22.6396 38.75
      vertex 4.875 21.2572 38.75
    endloop
  endfacet
  facet normal -0.587785 -0.809017 0
    outer loop
      vertex 4.875 21.2572 47.5
      vertex 2.97228 22.6396 47.5
      vertex 4.875 21.2572 38.75
    endloop
  endfacet
  facet normal -0.406737 -0.913545 0
    outer loop
      vertex 4.875 21.2572 47.5
      vertex 4.875 21.2572 38.75
      vertex 7.02356 20.3006 38.75
    endloop
  endfacet
  facet normal -0.406737 -0.913545 0
    outer loop
      vertex 7.02356 20.3006 47.5
      vertex 4.875 21.2572 47.5
      vertex 7.02356 20.3006 38.75
    endloop
  endfacet
  facet normal -0.207911 -0.978148 0
    outer loop
      vertex 7.02356 20.3006 47.5
      vertex 7.02356 20.3006 38.75
      vertex 9.32405 19.8116 38.75
    endloop
  endfacet
  facet normal -0.207911 -0.978148 0
    outer loop
      vertex 9.32405 19.8116 47.5
      vertex 7.02356 20.3006 47.5
      vertex 9.32405 19.8116 38.75
    endloop
  endfacet
  facet normal 0 -1 0
    outer loop
      vertex 9.32405 19.8116 47.5
      vertex 9.32405 19.8116 38.75
      vertex 11.6759 19.8116 38.75
    endloop
  endfacet
  facet normal 0 -1 0
    outer loop
      vertex 11.6759 19.8116 47.5
      vertex 9.32405 19.8116 47.5
      vertex 11.6759 19.8116 38.75
    endloop
  endfacet
  facet normal 0.207911 -0.978148 0
    outer loop
      vertex 11.6759 19.8116 47.5
      vertex 11.6759 19.8116 38.75
      vertex 13.9764 20.3006 38.75
    endloop
  endfacet
  facet normal 0.207911 -0.978148 0
    outer loop
      vertex 13.9764 20.3006 47.5
      vertex 11.6759 19.8116 47.5
      vertex 13.9764 20.3006 38.75
    endloop
  endfacet
  facet normal 0.406737 -0.913545 0
    outer loop
      vertex 13.9764 20.3006 47.5
      vertex 13.9764 20.3006 38.75
      vertex 16.125 21.2572 38.75
    endloop
  endfacet
  facet normal 0.406737 -0.913545 0
    outer loop
      vertex 16.125 21.2572 47.5
      vertex 13.9764 20.3006 47.5
      vertex 16.125 21.2572 38.75
    endloop
  endfacet
  facet normal 0.587785 -0.809017 0
    outer loop
      vertex 16.125 21.2572 47.5
      vertex 16.125 21.2572 38.75
      vertex 18.0277 22.6396 38.75
    endloop
  endfacet
  facet normal 0.587785 -0.809017 0
    outer loop
      vertex 18.0277 22.6396 47.5
      vertex 16.125 21.2572 47.5
      vertex 18.0277 22.6396 38.75
    endloop
  endfacet
  facet normal 0.743145 -0.669131 0
    outer loop
      vertex 18.0277 22.6396 47.5
      vertex 18.0277 22.6396 38.75
      vertex 19.6014 24.3874 38.75
    endloop
  endfacet
  facet normal 0.743145 -0.669131 0
    outer loop
      vertex 19.6014 24.3874 47.5
      vertex 18.0277 22.6396 47.5
      vertex 19.6014 24.3874 38.75
    endloop
  endfacet
  facet normal 0.866025 -0.5 0
    outer loop
      vertex 19.6014 24.3874 47.5
      vertex 19.6014 24.3874 38.75
      vertex 20.7774 26.4242 38.75
    endloop
  endfacet
  facet normal 0.866025 -0.5 0
    outer loop
      vertex 20.7774 26.4242 47.5
      vertex 19.6014 24.3874 47.5
      vertex 20.7774 26.4242 38.75
    endloop
  endfacet
  facet normal 0.951056 -0.309017 0
    outer loop
      vertex 20.7774 26.4242 47.5
      vertex 20.7774 26.4242 38.75
      vertex 21.5042 28.661 38.75
    endloop
  endfacet
  facet normal 0.951056 -0.309017 0
    outer loop
      vertex 21.5042 28.661 47.5
      vertex 20.7774 26.4242 47.5
      vertex 21.5042 28.661 38.75
    endloop
  endfacet
  facet normal 0 0 1
    outer loop
      vertex -0.504161 33.339 47.5
      vertex -0.75 31 47.5
      vertex -0.504161 28.661 47.5
    endloop
  endfacet
  facet normal 0 0 1
    outer loop
      vertex 1.39856 24.3874 47.5
      vertex -0.504161 33.339 47.5
      vertex 0.222614 26.4242 47.5
    endloop
  endfacet
  facet normal 0 0 1
    outer loop
      vertex 0.222614 26.4242 47.5
      vertex -0.504161 33.339 47.5
      vertex -0.504161 28.661 47.5
    endloop
  endfacet
  facet normal 0 0 1
    outer loop
      vertex 2.97228 22.6396 47.5
      vertex -0.504161 33.339 47.5
      vertex 1.39856 24.3874 47.5
    endloop
  endfacet
  facet normal 0 0 1
    outer loop
      vertex 4.875 21.2572 47.5
      vertex -0.504161 33.339 47.5
      vertex 2.97228 22.6396 47.5
    endloop
  endfacet
  facet normal 0 0 1
    outer loop
      vertex 7.02356 20.3006 47.5
      vertex -0.504161 33.339 47.5
      vertex 4.875 21.2572 47.5
    endloop
  endfacet
  facet normal 0 0 1
    outer loop
      vertex 9.32405 19.8116 47.5
      vertex -0.504161 33.339 47.5
      vertex 7.02356 20.3006 47.5
    endloop
  endfacet
  facet normal 0 0 1
    outer loop
      vertex 2.22715 30.1624 47.5
      vertex -0.504161 33.339 47.5
      vertex 9.32405 19.8116 47.5
    endloop
  endfacet
  facet normal 0 0 1
    outer loop
      vertex 2.22715 30.1624 47.5
      vertex 2.22715 31.8376 47.5
      vertex -0.504161 33.339 47.5
    endloop
  endfacet
  facet normal 0 0 1
    outer loop
      vertex 3.82035 32.3553 47.5
      vertex 4.805 31 47.5
      vertex 20.7774 26.4242 47.5
    endloop
  endfacet
  facet normal 0 0 1
    outer loop
      vertex 4.805 31 47.5
      vertex 10.9403 25.2353 47.5
      vertex 18.0277 22.6396 47.5
    endloop
  endfacet
  facet normal 0 0 1
    outer loop
      vertex 18.0603 29.6447 47.5
      vertex -0.504161 33.339 47.5
      vertex 21.5042 28.661 47.5
    endloop
  endfacet
  facet normal 0 0 1
    outer loop
      vertex 20.7774 35.5758 47.5
      vertex -0.504161 33.339 47.5
      vertex 21.5042 33.339 47.5
    endloop
  endfacet
  facet normal 0 0 1
    outer loop
      vertex 19.6014 37.6126 47.5
      vertex -0.504161 33.339 47.5
      vertex 20.7774 35.5758 47.5
    endloop
  endfacet
  facet normal 0 0 1
    outer loop
      vertex 10.9403 36.7647 47.5
      vertex -0.504161 33.339 47.5
      vertex 19.6014 37.6126 47.5
    endloop
  endfacet
  facet normal 0 0 1
    outer loop
      vertex 11.925 38.12 47.5
      vertex 10.9403 36.7647 47.5
      vertex 18.0277 39.3604 47.5
    endloop
  endfacet
  facet normal 0 0 1
    outer loop
      vertex 11.6759 42.1884 47.5
      vertex -0.504161 33.339 47.5
      vertex 13.9764 41.6994 47.5
    endloop
  endfacet
  facet normal 0 0 1
    outer loop
      vertex 9.32405 42.1884 47.5
      vertex -0.504161 33.339 47.5
      vertex 11.6759 42.1884 47.5
    endloop
  endfacet
  facet normal 0 0 1
    outer loop
      vertex 7.02356 41.6994 47.5
      vertex -0.504161 33.339 47.5
      vertex 9.32405 42.1884 47.5
    endloop
  endfacet
  facet normal 0 0 1
    outer loop
      vertex 4.875 40.7428 47.5
      vertex -0.504161 33.339 47.5
      vertex 7.02356 41.6994 47.5
    endloop
  endfacet
  facet normal 0 0 1
    outer loop
      vertex 2.97228 39.3604 47.5
      vertex -0.504161 33.339 47.5
      vertex 4.875 40.7428 47.5
    endloop
  endfacet
  facet normal 0 0 1
    outer loop
      vertex 1.39856 37.6126 47.5
      vertex -0.504161 33.339 47.5
      vertex 2.97228 39.3604 47.5
    endloop
  endfacet
  facet normal 0 0 1
    outer loop
      vertex 0.222614 35.5758 47.5
      vertex -0.504161 33.339 47.5
      vertex 1.39856 37.6126 47.5
    endloop
  endfacet
  facet normal 0 0 1
    outer loop
      vertex 11.6759 19.8116 47.5
      vertex 2.22715 30.1624 47.5
      vertex 9.32405 19.8116 47.5
    endloop
  endfacet
  facet normal 0 0 1
    outer loop
      vertex 9.34715 23.0424 47.5
      vertex 9.34715 24.7176 47.5
      vertex 3.82035 29.6447 47.5
    endloop
  endfacet
  facet normal 0 0 1
    outer loop
      vertex 21.5042 28.661 47.5
      vertex 3.82035 32.3553 47.5
      vertex 20.7774 26.4242 47.5
    endloop
  endfacet
  facet normal 0 0 1
    outer loop
      vertex 21.5042 28.661 47.5
      vertex -0.504161 33.339 47.5
      vertex 3.82035 32.3553 47.5
    endloop
  endfacet
  facet normal 0 0 1
    outer loop
      vertex 20.7774 26.4242 47.5
      vertex 4.805 31 47.5
      vertex 19.6014 24.3874 47.5
    endloop
  endfacet
  facet normal 0 0 1
    outer loop
      vertex 4.805 31 47.5
      vertex 18.0277 22.6396 47.5
      vertex 19.6014 24.3874 47.5
    endloop
  endfacet
  facet normal 0 0 1
    outer loop
      vertex 10.9403 25.2353 47.5
      vertex 11.925 23.88 47.5
      vertex 16.125 21.2572 47.5
    endloop
  endfacet
  facet normal 0 0 1
    outer loop
      vertex 2.22715 31.8376 47.5
      vertex 3.82035 32.3553 47.5
      vertex -0.504161 33.339 47.5
    endloop
  endfacet
  facet normal 0 0 1
    outer loop
      vertex 13.9764 20.3006 47.5
      vertex 9.34715 23.0424 47.5
      vertex 11.6759 19.8116 47.5
    endloop
  endfacet
  facet normal 0 0 1
    outer loop
      vertex 10.9403 36.7647 47.5
      vertex 9.34715 37.2824 47.5
      vertex -0.504161 33.339 47.5
    endloop
  endfacet
  facet normal 0 0 1
    outer loop
      vertex 11.925 23.88 47.5
      vertex 10.9403 22.5247 47.5
      vertex 13.9764 20.3006 47.5
    endloop
  endfacet
  facet normal 0 0 1
    outer loop
      vertex 18.0277 22.6396 47.5
      vertex 10.9403 25.2353 47.5
      vertex 16.125 21.2572 47.5
    endloop
  endfacet
  facet normal 0 0 1
    outer loop
      vertex 10.9403 39.4753 47.5
      vertex 11.925 38.12 47.5
      vertex 16.125 40.7428 47.5
    endloop
  endfacet
  facet normal 0 0 1
    outer loop
      vertex 11.925 23.88 47.5
      vertex 13.9764 20.3006 47.5
      vertex 16.125 21.2572 47.5
    endloop
  endfacet
  facet normal 0 0 1
    outer loop
      vertex 13.9764 20.3006 47.5
      vertex 10.9403 22.5247 47.5
      vertex 9.34715 23.0424 47.5
    endloop
  endfacet
  facet normal 0 0 1
    outer loop
      vertex 16.4672 30.1624 47.5
      vertex 16.4672 31.8376 47.5
      vertex -0.504161 33.339 47.5
    endloop
  endfacet
  facet normal 0 0 1
    outer loop
      vertex 13.9764 41.6994 47.5
      vertex -0.504161 33.339 47.5
      vertex 9.34715 38.9576 47.5
    endloop
  endfacet
  facet normal 0 0 1
    outer loop
      vertex 13.9764 41.6994 47.5
      vertex 10.9403 39.4753 47.5
      vertex 16.125 40.7428 47.5
    endloop
  endfacet
  facet normal 0 0 1
    outer loop
      vertex 13.9764 41.6994 47.5
      vertex 9.34715 38.9576 47.5
      vertex 10.9403 39.4753 47.5
    endloop
  endfacet
  facet normal 0 0 1
    outer loop
      vertex 16.125 40.7428 47.5
      vertex 11.925 38.12 47.5
      vertex 18.0277 39.3604 47.5
    endloop
  endfacet
  facet normal 0 0 1
    outer loop
      vertex 18.0277 39.3604 47.5
      vertex 10.9403 36.7647 47.5
      vertex 19.6014 37.6126 47.5
    endloop
  endfacet
  facet normal 0 0 1
    outer loop
      vertex 9.34715 37.2824 47.5
      vertex 9.34715 38.9576 47.5
      vertex -0.504161 33.339 47.5
    endloop
  endfacet
  facet normal 0 0 1
    outer loop
      vertex 18.0603 32.3553 47.5
      vertex 19.045 31 47.5
      vertex 21.75 31 47.5
    endloop
  endfacet
  facet normal 0 0 1
    outer loop
      vertex 19.045 31 47.5
      vertex 21.5042 28.661 47.5
      vertex 21.75 31 47.5
    endloop
  endfacet
  facet normal 0 0 1
    outer loop
      vertex 18.0603 32.3553 47.5
      vertex -0.504161 33.339 47.5
      vertex 16.4672 31.8376 47.5
    endloop
  endfacet
  facet normal 0 0 1
    outer loop
      vertex 19.045 31 47.5
      vertex 18.0603 29.6447 47.5
      vertex 21.5042 28.661 47.5
    endloop
  endfacet
  facet normal 0 0 1
    outer loop
      vertex 21.5042 33.339 47.5
      vertex -0.504161 33.339 47.5
      vertex 18.0603 32.3553 47.5
    endloop
  endfacet
  facet normal 0 0 1
    outer loop
      vertex 18.0603 32.3553 47.5
      vertex 21.75 31 47.5
      vertex 21.5042 33.339 47.5
    endloop
  endfacet
  facet normal 0 0 1
    outer loop
      vertex 16.4672 30.1624 47.5
      vertex -0.504161 33.339 47.5
      vertex 18.0603 29.6447 47.5
    endloop
  endfacet
  facet normal 0 0 1
    outer loop
      vertex 4.805 31 47.5
      vertex 3.82035 29.6447 47.5
      vertex 10.9403 25.2353 47.5
    endloop
  endfacet
  facet normal 0 0 1
    outer loop
      vertex 9.34715 24.7176 47.5
      vertex 10.9403 25.2353 47.5
      vertex 3.82035 29.6447 47.5
    endloop
  endfacet
  facet normal 0 0 1
    outer loop
      vertex 3.82035 29.6447 47.5
      vertex 11.6759 19.8116 47.5
      vertex 9.34715 23.0424 47.5
    endloop
  endfacet
  facet normal 0 0 1
    outer loop
      vertex 3.82035 29.6447 47.5
      vertex 2.22715 30.1624 47.5
      vertex 11.6759 19.8116 47.5
    endloop
  endfacet
  facet normal 0 0 -1
    outer loop
      vertex 3.19715 -5.18759 13
      vertex 3.19715 -3.51241 13
      vertex 4.79035 -5.70526 13
    endloop
  endfacet
  facet normal 0 0 -1
    outer loop
      vertex 4.79035 -5.70526 13
      vertex 3.19715 -3.51241 13
      vertex 4.79035 -2.99474 13
    endloop
  endfacet
  facet normal 0 0 -1
    outer loop
      vertex 4.79035 -5.70526 13
      vertex 4.79035 -2.99474 13
      vertex 5.775 -4.35 13
    endloop
  endfacet
  facet normal 0 0 -1
    outer loop
      vertex 15.4972 -5.18759 13
      vertex 15.4972 -3.51241 13
      vertex 17.0903 -5.70526 13
    endloop
  endfacet
  facet normal 0 0 -1
    outer loop
      vertex 17.0903 -5.70526 13
      vertex 15.4972 -3.51241 13
      vertex 17.0903 -2.99474 13
    endloop
  endfacet
  facet normal 0 0 -1
    outer loop
      vertex 17.0903 -5.70526 13
      vertex 17.0903 -2.99474 13
      vertex 18.075 -4.35 13
    endloop
  endfacet
  facet normal 0 1 0
    outer loop
      vertex 7.125 46.5 3
      vertex 7.125 46.5 7.45
      vertex 13.875 46.5 3
    endloop
  endfacet
  facet normal 0 1 0
    outer loop
      vertex 13.875 46.5 3
      vertex 7.125 46.5 7.45
      vertex 13.875 46.5 7.45
    endloop
  endfacet
  facet normal 0 0 -1
    outer loop
      vertex 3.19715 45.5124 13
      vertex 3.19715 47.1876 13
      vertex 4.79035 44.9947 13
    endloop
  endfacet
  facet normal 0 0 -1
    outer loop
      vertex 4.79035 44.9947 13
      vertex 3.19715 47.1876 13
      vertex 4.79035 47.7053 13
    endloop
  endfacet
  facet normal 0 0 -1
    outer loop
      vertex 4.79035 44.9947 13
      vertex 4.79035 47.7053 13
      vertex 5.775 46.35 13
    endloop
  endfacet
  facet normal 0 0 -1
    outer loop
      vertex 15.4972 45.5124 13
      vertex 15.4972 47.1876 13
      vertex 17.0903 44.9947 13
    endloop
  endfacet
  facet normal 0 0 -1
    outer loop
      vertex 17.0903 44.9947 13
      vertex 15.4972 47.1876 13
      vertex 17.0903 47.7053 13
    endloop
  endfacet
  facet normal 0 0 -1
    outer loop
      vertex 17.0903 44.9947 13
      vertex 17.0903 47.7053 13
      vertex 18.075 46.35 13
    endloop
  endfacet
  facet normal -1 0 0
    outer loop
      vertex 2.22715 30.1624 47.5
      vertex 2.22715 30.1624 60.25
      vertex 2.22715 31.8376 47.5
    endloop
  endfacet
  facet normal -1 0 0
    outer loop
      vertex 2.22715 31.8376 47.5
      vertex 2.22715 30.1624 60.25
      vertex 2.22715 31.8376 60.25
    endloop
  endfacet
  facet normal -0.309017 -0.951056 0
    outer loop
      vertex 2.22715 30.1624 60.25
      vertex 2.22715 30.1624 47.5
      vertex 3.82035 29.6447 47.5
    endloop
  endfacet
  facet normal -0.309017 -0.951056 0
    outer loop
      vertex 3.82035 29.6447 60.25
      vertex 2.22715 30.1624 60.25
      vertex 3.82035 29.6447 47.5
    endloop
  endfacet
  facet normal 0.809017 -0.587785 0
    outer loop
      vertex 3.82035 29.6447 60.25
      vertex 3.82035 29.6447 47.5
      vertex 4.805 31 47.5
    endloop
  endfacet
  facet normal 0.809017 -0.587785 0
    outer loop
      vertex 4.805 31 60.25
      vertex 3.82035 29.6447 60.25
      vertex 4.805 31 47.5
    endloop
  endfacet
  facet normal 0.809017 0.587785 0
    outer loop
      vertex 4.805 31 47.5
      vertex 3.82035 32.3553 47.5
      vertex 3.82035 32.3553 60.25
    endloop
  endfacet
  facet normal 0.809017 0.587785 0
    outer loop
      vertex 4.805 31 60.25
      vertex 4.805 31 47.5
      vertex 3.82035 32.3553 60.25
    endloop
  endfacet
  facet normal -0.309017 0.951056 0
    outer loop
      vertex 2.22715 31.8376 47.5
      vertex 2.22715 31.8376 60.25
      vertex 3.82035 32.3553 47.5
    endloop
  endfacet
  facet normal -0.309017 0.951056 0
    outer loop
      vertex 3.82035 32.3553 47.5
      vertex 2.22715 31.8376 60.25
      vertex 3.82035 32.3553 60.25
    endloop
  endfacet
  facet normal -1 0 0
    outer loop
      vertex 9.34715 23.0424 47.5
      vertex 9.34715 23.0424 60.25
      vertex 9.34715 24.7176 47.5
    endloop
  endfacet
  facet normal -1 0 0
    outer loop
      vertex 9.34715 24.7176 47.5
      vertex 9.34715 23.0424 60.25
      vertex 9.34715 24.7176 60.25
    endloop
  endfacet
  facet normal -0.309017 -0.951056 0
    outer loop
      vertex 9.34715 23.0424 60.25
      vertex 9.34715 23.0424 47.5
      vertex 10.9403 22.5247 47.5
    endloop
  endfacet
  facet normal -0.309017 -0.951056 0
    outer loop
      vertex 10.9403 22.5247 60.25
      vertex 9.34715 23.0424 60.25
      vertex 10.9403 22.5247 47.5
    endloop
  endfacet
  facet normal 0.809017 -0.587785 0
    outer loop
      vertex 10.9403 22.5247 60.25
      vertex 10.9403 22.5247 47.5
      vertex 11.925 23.88 47.5
    endloop
  endfacet
  facet normal 0.809017 -0.587785 0
    outer loop
      vertex 11.925 23.88 60.25
      vertex 10.9403 22.5247 60.25
      vertex 11.925 23.88 47.5
    endloop
  endfacet
  facet normal 0.809017 0.587785 0
    outer loop
      vertex 11.925 23.88 47.5
      vertex 10.9403 25.2353 47.5
      vertex 10.9403 25.2353 60.25
    endloop
  endfacet
  facet normal 0.809017 0.587785 0
    outer loop
      vertex 11.925 23.88 60.25
      vertex 11.925 23.88 47.5
      vertex 10.9403 25.2353 60.25
    endloop
  endfacet
  facet normal -0.309017 0.951056 0
    outer loop
      vertex 9.34715 24.7176 47.5
      vertex 9.34715 24.7176 60.25
      vertex 10.9403 25.2353 47.5
    endloop
  endfacet
  facet normal -0.309017 0.951056 0
    outer loop
      vertex 10.9403 25.2353 47.5
      vertex 9.34715 24.7176 60.25
      vertex 10.9403 25.2353 60.25
    endloop
  endfacet
  facet normal -1 0 0
    outer loop
      vertex 9.34715 37.2824 47.5
      vertex 9.34715 37.2824 60.25
      vertex 9.34715 38.9576 47.5
    endloop
  endfacet
  facet normal -1 0 0
    outer loop
      vertex 9.34715 38.9576 47.5
      vertex 9.34715 37.2824 60.25
      vertex 9.34715 38.9576 60.25
    endloop
  endfacet
  facet normal -0.309017 -0.951056 0
    outer loop
      vertex 9.34715 37.2824 60.25
      vertex 9.34715 37.2824 47.5
      vertex 10.9403 36.7647 47.5
    endloop
  endfacet
  facet normal -0.309017 -0.951056 0
    outer loop
      vertex 10.9403 36.7647 60.25
      vertex 9.34715 37.2824 60.25
      vertex 10.9403 36.7647 47.5
    endloop
  endfacet
  facet normal 0.809017 -0.587785 0
    outer loop
      vertex 10.9403 36.7647 60.25
      vertex 10.9403 36.7647 47.5
      vertex 11.925 38.12 47.5
    endloop
  endfacet
  facet normal 0.809017 -0.587785 0
    outer loop
      vertex 11.925 38.12 60.25
      vertex 10.9403 36.7647 60.25
      vertex 11.925 38.12 47.5
    endloop
  endfacet
  facet normal 0.809017 0.587785 0
    outer loop
      vertex 11.925 38.12 47.5
      vertex 10.9403 39.4753 47.5
      vertex 10.9403 39.4753 60.25
    endloop
  endfacet
  facet normal 0.809017 0.587785 0
    outer loop
      vertex 11.925 38.12 60.25
      vertex 11.925 38.12 47.5
      vertex 10.9403 39.4753 60.25
    endloop
  endfacet
  facet normal -0.309017 0.951056 0
    outer loop
      vertex 9.34715 38.9576 47.5
      vertex 9.34715 38.9576 60.25
      vertex 10.9403 39.4753 47.5
    endloop
  endfacet
  facet normal -0.309017 0.951056 0
    outer loop
      vertex 10.9403 39.4753 47.5
      vertex 9.34715 38.9576 60.25
      vertex 10.9403 39.4753 60.25
    endloop
  endfacet
  facet normal -1 0 0
    outer loop
      vertex 16.4672 30.1624 47.5
      vertex 16.4672 30.1624 60.25
      vertex 16.4672 31.8376 47.5
    endloop
  endfacet
  facet normal -1 0 0
    outer loop
      vertex 16.4672 31.8376 47.5
      vertex 16.4672 30.1624 60.25
      vertex 16.4672 31.8376 60.25
    endloop
  endfacet
  facet normal -0.309017 -0.951056 0
    outer loop
      vertex 16.4672 30.1624 60.25
      vertex 16.4672 30.1624 47.5
      vertex 18.0603 29.6447 47.5
    endloop
  endfacet
  facet normal -0.309017 -0.951056 0
    outer loop
      vertex 18.0603 29.6447 60.25
      vertex 16.4672 30.1624 60.25
      vertex 18.0603 29.6447 47.5
    endloop
  endfacet
  facet normal 0.809017 -0.587785 0
    outer loop
      vertex 18.0603 29.6447 60.25
      vertex 18.0603 29.6447 47.5
      vertex 19.045 31 47.5
    endloop
  endfacet
  facet normal 0.809017 -0.587785 0
    outer loop
      vertex 19.045 31 60.25
      vertex 18.0603 29.6447 60.25
      vertex 19.045 31 47.5
    endloop
  endfacet
  facet normal 0.809017 0.587785 0
    outer loop
      vertex 19.045 31 47.5
      vertex 18.0603 32.3553 47.5
      vertex 18.0603 32.3553 60.25
    endloop
  endfacet
  facet normal 0.809017 0.587785 0
    outer loop
      vertex 19.045 31 60.25
      vertex 19.045 31 47.5
      vertex 18.0603 32.3553 60.25
    endloop
  endfacet
  facet normal -0.309017 0.951056 0
    outer loop
      vertex 16.4672 31.8376 47.5
      vertex 16.4672 31.8376 60.25
      vertex 18.0603 32.3553 47.5
    endloop
  endfacet
  facet normal -0.309017 0.951056 0
    outer loop
      vertex 18.0603 32.3553 47.5
      vertex 16.4672 31.8376 60.25
      vertex 18.0603 32.3553 60.25
    endloop
  endfacet
  facet normal 0 0 1
    outer loop
      vertex 2.22715 31.8376 60.25
      vertex 2.22715 30.1624 60.25
      vertex 3.82035 29.6447 60.25
    endloop
  endfacet
  facet normal 0 0 1
    outer loop
      vertex 3.82035 32.3553 60.25
      vertex 2.22715 31.8376 60.25
      vertex 4.805 31 60.25
    endloop
  endfacet
  facet normal 0 0 1
    outer loop
      vertex 4.805 31 60.25
      vertex 2.22715 31.8376 60.25
      vertex 3.82035 29.6447 60.25
    endloop
  endfacet
  facet normal 0 0 1
    outer loop
      vertex 9.34715 24.7176 60.25
      vertex 9.34715 23.0424 60.25
      vertex 10.9403 22.5247 60.25
    endloop
  endfacet
  facet normal 0 0 1
    outer loop
      vertex 10.9403 25.2353 60.25
      vertex 9.34715 24.7176 60.25
      vertex 11.925 23.88 60.25
    endloop
  endfacet
  facet normal 0 0 1
    outer loop
      vertex 11.925 23.88 60.25
      vertex 9.34715 24.7176 60.25
      vertex 10.9403 22.5247 60.25
    endloop
  endfacet
  facet normal 0 0 1
    outer loop
      vertex 9.34715 38.9576 60.25
      vertex 9.34715 37.2824 60.25
      vertex 10.9403 36.7647 60.25
    endloop
  endfacet
  facet normal 0 0 1
    outer loop
      vertex 10.9403 39.4753 60.25
      vertex 9.34715 38.9576 60.25
      vertex 11.925 38.12 60.25
    endloop
  endfacet
  facet normal 0 0 1
    outer loop
      vertex 11.925 38.12 60.25
      vertex 9.34715 38.9576 60.25
      vertex 10.9403 36.7647 60.25
    endloop
  endfacet
  facet normal 0 0 1
    outer loop
      vertex 16.4672 31.8376 60.25
      vertex 16.4672 30.1624 60.25
      vertex 18.0603 29.6447 60.25
    endloop
  endfacet
  facet normal 0 0 1
    outer loop
      vertex 18.0603 32.3553 60.25
      vertex 16.4672 31.8376 60.25
      vertex 19.045 31 60.25
    endloop
  endfacet
  facet normal 0 0 1
    outer loop
      vertex 19.045 31 60.25
      vertex 16.4672 31.8376 60.25
      vertex 18.0603 29.6447 60.25
    endloop
  endfacet
endsolid OpenSCAD_Model
