  0
SECTION
  2
HEADER
  9
$ACADVER
  1
AC1009
  9
$INSBASE
 10
0.0
 20
0.0
 30
0.0
  9
$EXTMIN
 10
0.0
 20
0.0
 30
0.0
  9
$EXTMAX
 10
0.0
 20
0.0
 30
0.0
  0
ENDSEC
  0
SECTION
  2
TABLES
  0
TABLE
  2
VPORT
 70
0
  0
ENDTAB
  0
TABLE
  2
LTYPE
 70
1
  0
LTYPE
  2
CONTINUOUS
 70
0
  3
Solid line
 72
65
 73
0
 40
0.0
  0
ENDTAB
  0
TABLE
  2
LAYER
 70
1
  0
LAYER
  2
PYDXF
 70
64
 62
7
  6
continuous
  0
ENDTAB
  0
TABLE
  2
STYLE
 70
1
  0
STYLE
  2
STANDARD
 70
0
 40
0
 41
1.0
 50
0.0
 71
0
 42
1
 3
ARIAL.TTF
 4

  0
ENDTAB
  0
TABLE
  2
VIEW
 70
0
  0
ENDTAB
  0
ENDSEC
  0
SECTION
  2
BLOCKS
  0
ENDSEC
  0
SECTION
  2
ENTITIES
  0
POLYLINE
  8
0
 62
0
 70
1
 66
1
 10
0.0
 20
0.0
 30
0.0
  0
VERTEX
  8
0
 10
-418.0
 20
600.0
  0
VERTEX
  8
0
 10
-5.0
 20
600.0
  0
VERTEX
  8
0
 10
-5.0
 20
600.0
  0
VERTEX
  8
0
 10
-418.0
 20
600.0
  0
SEQEND
  8
0
  0
POLYLINE
  8
0
 62
0
 70
1
 66
1
 10
0.0
 20
0.0
 30
0.0
  0
VERTEX
  8
0
 10
-136.0
 20
448.0
  0
VERTEX
  8
0
 10
-141.0
 20
448.0
  0
VERTEX
  8
0
 10
-141.0
 20
434.0
  0
VERTEX
  8
0
 10
-136.0
 20
434.0
  0
SEQEND
  8
0
  0
POLYLINE
  8
0
 62
0
 70
1
 66
1
 10
0.0
 20
0.0
 30
0.0
  0
VERTEX
  8
0
 10
-136.0
 20
166.0
  0
VERTEX
  8
0
 10
-141.0
 20
166.0
  0
VERTEX
  8
0
 10
-141.0
 20
152.0
  0
VERTEX
  8
0
 10
-136.0
 20
152.0
  0
SEQEND
  8
0
  0
POLYLINE
  8
0
 62
0
 70
1
 66
1
 10
0.0
 20
0.0
 30
0.0
  0
VERTEX
  8
0
 10
-146.0
 20
11.526
  0
VERTEX
  8
0
 10
-146.0
 20
25.526
  0
VERTEX
  8
0
 10
-141.0
 20
25.526
  0
VERTEX
  8
0
 10
-141.0
 20
11.526
  0
SEQEND
  8
0
  0
POLYLINE
  8
0
 62
0
 70
1
 66
1
 10
0.0
 20
0.0
 30
0.0
  0
VERTEX
  8
0
 10
-146.0
 20
36.0
  0
VERTEX
  8
0
 10
-146.0
 20
50.0
  0
VERTEX
  8
0
 10
-141.0
 20
50.0
  0
VERTEX
  8
0
 10
-141.0
 20
36.0
  0
SEQEND
  8
0
  0
POLYLINE
  8
0
 62
0
 70
1
 66
1
 10
0.0
 20
0.0
 30
0.0
  0
VERTEX
  8
0
 10
-282.0
 20
11.526
  0
VERTEX
  8
0
 10
-282.0
 20
25.526
  0
VERTEX
  8
0
 10
-277.0
 20
25.526
  0
VERTEX
  8
0
 10
-277.0
 20
11.526
  0
SEQEND
  8
0
  0
POLYLINE
  8
0
 62
0
 70
1
 66
1
 10
0.0
 20
0.0
 30
0.0
  0
VERTEX
  8
0
 10
-282.0
 20
36.0
  0
VERTEX
  8
0
 10
-282.0
 20
50.0
  0
VERTEX
  8
0
 10
-277.0
 20
50.0
  0
VERTEX
  8
0
 10
-277.0
 20
36.0
  0
SEQEND
  8
0
  0
POLYLINE
  8
0
 62
0
 70
1
 66
1
 10
0.0
 20
0.0
 30
0.0
  0
VERTEX
  8
0
 10
-141.0
 20
58.0
  0
VERTEX
  8
0
 10
-141.0
 20
72.0
  0
VERTEX
  8
0
 10
-136.0
 20
72.0
  0
VERTEX
  8
0
 10
-136.0
 20
58.0
  0
SEQEND
  8
0
  0
POLYLINE
  8
0
 62
0
 70
1
 66
1
 10
0.0
 20
0.0
 30
0.0
  0
VERTEX
  8
0
 10
-141.0
 20
246.0
  0
VERTEX
  8
0
 10
-141.0
 20
260.0
  0
VERTEX
  8
0
 10
-136.0
 20
260.0
  0
VERTEX
  8
0
 10
-136.0
 20
246.0
  0
SEQEND
  8
0
  0
POLYLINE
  8
0
 62
0
 70
1
 66
1
 10
0.0
 20
0.0
 30
0.0
  0
VERTEX
  8
0
 10
-141.0
 20
340.0
  0
VERTEX
  8
0
 10
-141.0
 20
354.0
  0
VERTEX
  8
0
 10
-136.0
 20
354.0
  0
VERTEX
  8
0
 10
-136.0
 20
340.0
  0
SEQEND
  8
0
  0
POLYLINE
  8
0
 62
0
 70
1
 66
1
 10
0.0
 20
0.0
 30
0.0
  0
VERTEX
  8
0
 10
-141.0
 20
528.0
  0
VERTEX
  8
0
 10
-141.0
 20
542.0
  0
VERTEX
  8
0
 10
-136.0
 20
542.0
  0
VERTEX
  8
0
 10
-136.0
 20
528.0
  0
SEQEND
  8
0
  0
POLYLINE
  8
0
 62
0
 70
1
 66
1
 10
0.0
 20
0.0
 30
0.0
  0
VERTEX
  8
0
 10
-287.0
 20
58.0
  0
VERTEX
  8
0
 10
-287.0
 20
72.0
  0
VERTEX
  8
0
 10
-282.0
 20
72.0
  0
VERTEX
  8
0
 10
-282.0
 20
58.0
  0
SEQEND
  8
0
  0
POLYLINE
  8
0
 62
0
 70
1
 66
1
 10
0.0
 20
0.0
 30
0.0
  0
VERTEX
  8
0
 10
-287.0
 20
152.0
  0
VERTEX
  8
0
 10
-287.0
 20
166.0
  0
VERTEX
  8
0
 10
-282.0
 20
166.0
  0
VERTEX
  8
0
 10
-282.0
 20
152.0
  0
SEQEND
  8
0
  0
POLYLINE
  8
0
 62
0
 70
1
 66
1
 10
0.0
 20
0.0
 30
0.0
  0
VERTEX
  8
0
 10
-287.0
 20
246.0
  0
VERTEX
  8
0
 10
-287.0
 20
260.0
  0
VERTEX
  8
0
 10
-282.0
 20
260.0
  0
VERTEX
  8
0
 10
-282.0
 20
246.0
  0
SEQEND
  8
0
  0
POLYLINE
  8
0
 62
0
 70
1
 66
1
 10
0.0
 20
0.0
 30
0.0
  0
VERTEX
  8
0
 10
-287.0
 20
340.0
  0
VERTEX
  8
0
 10
-287.0
 20
354.0
  0
VERTEX
  8
0
 10
-282.0
 20
354.0
  0
VERTEX
  8
0
 10
-282.0
 20
340.0
  0
SEQEND
  8
0
  0
POLYLINE
  8
0
 62
0
 70
1
 66
1
 10
0.0
 20
0.0
 30
0.0
  0
VERTEX
  8
0
 10
-287.0
 20
434.0
  0
VERTEX
  8
0
 10
-287.0
 20
448.0
  0
VERTEX
  8
0
 10
-282.0
 20
448.0
  0
VERTEX
  8
0
 10
-282.0
 20
434.0
  0
SEQEND
  8
0
  0
POLYLINE
  8
0
 62
0
 70
1
 66
1
 10
0.0
 20
0.0
 30
0.0
  0
VERTEX
  8
0
 10
-287.0
 20
528.0
  0
VERTEX
  8
0
 10
-287.0
 20
542.0
  0
VERTEX
  8
0
 10
-282.0
 20
542.0
  0
VERTEX
  8
0
 10
-282.0
 20
528.0
  0
SEQEND
  8
0
  0
POLYLINE
  8
0
 62
0
 70
1
 66
1
 10
0.0
 20
0.0
 30
0.0
  0
VERTEX
  8
0
 10
-12.5
 20
81.5
  0
VERTEX
  8
0
 10
-12.5
 20
83.0
  0
VERTEX
  8
0
 10
-8.5
 20
83.0
  0
VERTEX
  8
0
 10
-8.5
 20
81.5
  0
VERTEX
  8
0
 10
0.0
 20
81.5
  0
VERTEX
  8
0
 10
0.0
 20
86.0
  0
VERTEX
  8
0
 10
-5.0
 20
86.0
  0
VERTEX
  8
0
 10
-5.0
 20
160.0
  0
VERTEX
  8
0
 10
0.0
 20
160.0
  0
VERTEX
  8
0
 10
0.0
 20
164.5
  0
VERTEX
  8
0
 10
-8.5
 20
164.5
  0
VERTEX
  8
0
 10
-8.5
 20
163.0
  0
VERTEX
  8
0
 10
-12.5
 20
163.0
  0
VERTEX
  8
0
 10
-12.5
 20
164.5
  0
VERTEX
  8
0
 10
-14.0
 20
164.5
  0
VERTEX
  8
0
 10
-14.0
 20
169.5
  0
VERTEX
  8
0
 10
-12.5
 20
169.5
  0
VERTEX
  8
0
 10
-12.5
 20
171.0
  0
VERTEX
  8
0
 10
-8.5
 20
171.0
  0
VERTEX
  8
0
 10
-8.5
 20
169.5
  0
VERTEX
  8
0
 10
0.0
 20
169.5
  0
VERTEX
  8
0
 10
0.0
 20
174.0
  0
VERTEX
  8
0
 10
-5.0
 20
174.0
  0
VERTEX
  8
0
 10
-5.0
 20
248.0
  0
VERTEX
  8
0
 10
0.0
 20
248.0
  0
VERTEX
  8
0
 10
0.0
 20
252.5
  0
VERTEX
  8
0
 10
-8.5
 20
252.5
  0
VERTEX
  8
0
 10
-8.5
 20
251.0
  0
VERTEX
  8
0
 10
-12.5
 20
251.0
  0
VERTEX
  8
0
 10
-12.5
 20
252.5
  0
VERTEX
  8
0
 10
-14.0
 20
252.5
  0
VERTEX
  8
0
 10
-14.0
 20
257.5
  0
VERTEX
  8
0
 10
-12.5
 20
257.5
  0
VERTEX
  8
0
 10
-12.5
 20
259.0
  0
VERTEX
  8
0
 10
-8.5
 20
259.0
  0
VERTEX
  8
0
 10
-8.5
 20
257.5
  0
VERTEX
  8
0
 10
0.0
 20
257.5
  0
VERTEX
  8
0
 10
0.0
 20
262.0
  0
VERTEX
  8
0
 10
-5.0
 20
262.0
  0
VERTEX
  8
0
 10
-5.0
 20
336.0
  0
VERTEX
  8
0
 10
0.0
 20
336.0
  0
VERTEX
  8
0
 10
0.0
 20
340.5
  0
VERTEX
  8
0
 10
-8.5
 20
340.5
  0
VERTEX
  8
0
 10
-8.5
 20
339.0
  0
VERTEX
  8
0
 10
-12.5
 20
339.0
  0
VERTEX
  8
0
 10
-12.5
 20
340.5
  0
VERTEX
  8
0
 10
-14.0
 20
340.5
  0
VERTEX
  8
0
 10
-14.0
 20
345.5
  0
VERTEX
  8
0
 10
-12.5
 20
345.5
  0
VERTEX
  8
0
 10
-12.5
 20
347.0
  0
VERTEX
  8
0
 10
-8.5
 20
347.0
  0
VERTEX
  8
0
 10
-8.5
 20
345.5
  0
VERTEX
  8
0
 10
0.0
 20
345.5
  0
VERTEX
  8
0
 10
0.0
 20
350.0
  0
VERTEX
  8
0
 10
-5.0
 20
350.0
  0
VERTEX
  8
0
 10
-5.0
 20
424.0
  0
VERTEX
  8
0
 10
0.0
 20
424.0
  0
VERTEX
  8
0
 10
0.0
 20
428.5
  0
VERTEX
  8
0
 10
-8.5
 20
428.5
  0
VERTEX
  8
0
 10
-8.5
 20
427.0
  0
VERTEX
  8
0
 10
-12.5
 20
427.0
  0
VERTEX
  8
0
 10
-12.5
 20
428.5
  0
VERTEX
  8
0
 10
-14.0
 20
428.5
  0
VERTEX
  8
0
 10
-14.0
 20
433.5
  0
VERTEX
  8
0
 10
-12.5
 20
433.5
  0
VERTEX
  8
0
 10
-12.5
 20
435.0
  0
VERTEX
  8
0
 10
-8.5
 20
435.0
  0
VERTEX
  8
0
 10
-8.5
 20
433.5
  0
VERTEX
  8
0
 10
0.0
 20
433.5
  0
VERTEX
  8
0
 10
0.0
 20
438.0
  0
VERTEX
  8
0
 10
-5.0
 20
438.0
  0
VERTEX
  8
0
 10
-5.0
 20
512.0
  0
VERTEX
  8
0
 10
0.0
 20
512.0
  0
VERTEX
  8
0
 10
0.0
 20
516.5
  0
VERTEX
  8
0
 10
-8.5
 20
516.5
  0
VERTEX
  8
0
 10
-8.5
 20
515.0
  0
VERTEX
  8
0
 10
-12.5
 20
515.0
  0
VERTEX
  8
0
 10
-12.5
 20
516.5
  0
VERTEX
  8
0
 10
-14.0
 20
516.5
  0
VERTEX
  8
0
 10
-14.0
 20
521.5
  0
VERTEX
  8
0
 10
-12.5
 20
521.5
  0
VERTEX
  8
0
 10
-12.5
 20
523.0
  0
VERTEX
  8
0
 10
-8.5
 20
523.0
  0
VERTEX
  8
0
 10
-8.5
 20
521.5
  0
VERTEX
  8
0
 10
0.0
 20
521.5
  0
VERTEX
  8
0
 10
0.0
 20
526.0
  0
VERTEX
  8
0
 10
-5.0
 20
526.0
  0
VERTEX
  8
0
 10
-5.0
 20
600.0
  0
VERTEX
  8
0
 10
-418.0
 20
600.0
  0
VERTEX
  8
0
 10
-418.0
 20
526.0
  0
VERTEX
  8
0
 10
-423.0
 20
526.0
  0
VERTEX
  8
0
 10
-423.0
 20
521.5
  0
VERTEX
  8
0
 10
-414.5
 20
521.5
  0
VERTEX
  8
0
 10
-414.5
 20
523.0
  0
VERTEX
  8
0
 10
-410.5
 20
523.0
  0
VERTEX
  8
0
 10
-410.5
 20
521.5
  0
VERTEX
  8
0
 10
-409.0
 20
521.5
  0
VERTEX
  8
0
 10
-409.0
 20
516.5
  0
VERTEX
  8
0
 10
-410.5
 20
516.5
  0
VERTEX
  8
0
 10
-410.5
 20
515.0
  0
VERTEX
  8
0
 10
-414.5
 20
515.0
  0
VERTEX
  8
0
 10
-414.5
 20
516.5
  0
VERTEX
  8
0
 10
-423.0
 20
516.5
  0
VERTEX
  8
0
 10
-423.0
 20
512.0
  0
VERTEX
  8
0
 10
-418.0
 20
512.0
  0
VERTEX
  8
0
 10
-418.0
 20
438.0
  0
VERTEX
  8
0
 10
-423.0
 20
438.0
  0
VERTEX
  8
0
 10
-423.0
 20
433.5
  0
VERTEX
  8
0
 10
-414.5
 20
433.5
  0
VERTEX
  8
0
 10
-414.5
 20
435.0
  0
VERTEX
  8
0
 10
-410.5
 20
435.0
  0
VERTEX
  8
0
 10
-410.5
 20
433.5
  0
VERTEX
  8
0
 10
-409.0
 20
433.5
  0
VERTEX
  8
0
 10
-409.0
 20
428.5
  0
VERTEX
  8
0
 10
-410.5
 20
428.5
  0
VERTEX
  8
0
 10
-410.5
 20
427.0
  0
VERTEX
  8
0
 10
-414.5
 20
427.0
  0
VERTEX
  8
0
 10
-414.5
 20
428.5
  0
VERTEX
  8
0
 10
-423.0
 20
428.5
  0
VERTEX
  8
0
 10
-423.0
 20
424.0
  0
VERTEX
  8
0
 10
-418.0
 20
424.0
  0
VERTEX
  8
0
 10
-418.0
 20
350.0
  0
VERTEX
  8
0
 10
-423.0
 20
350.0
  0
VERTEX
  8
0
 10
-423.0
 20
345.5
  0
VERTEX
  8
0
 10
-414.5
 20
345.5
  0
VERTEX
  8
0
 10
-414.5
 20
347.0
  0
VERTEX
  8
0
 10
-410.5
 20
347.0
  0
VERTEX
  8
0
 10
-410.5
 20
345.5
  0
VERTEX
  8
0
 10
-409.0
 20
345.5
  0
VERTEX
  8
0
 10
-409.0
 20
340.5
  0
VERTEX
  8
0
 10
-410.5
 20
340.5
  0
VERTEX
  8
0
 10
-410.5
 20
339.0
  0
VERTEX
  8
0
 10
-414.5
 20
339.0
  0
VERTEX
  8
0
 10
-414.5
 20
340.5
  0
VERTEX
  8
0
 10
-423.0
 20
340.5
  0
VERTEX
  8
0
 10
-423.0
 20
336.0
  0
VERTEX
  8
0
 10
-418.0
 20
336.0
  0
VERTEX
  8
0
 10
-418.0
 20
262.0
  0
VERTEX
  8
0
 10
-423.0
 20
262.0
  0
VERTEX
  8
0
 10
-423.0
 20
257.5
  0
VERTEX
  8
0
 10
-414.5
 20
257.5
  0
VERTEX
  8
0
 10
-414.5
 20
259.0
  0
VERTEX
  8
0
 10
-410.5
 20
259.0
  0
VERTEX
  8
0
 10
-410.5
 20
257.5
  0
VERTEX
  8
0
 10
-409.0
 20
257.5
  0
VERTEX
  8
0
 10
-409.0
 20
252.5
  0
VERTEX
  8
0
 10
-410.5
 20
252.5
  0
VERTEX
  8
0
 10
-410.5
 20
251.0
  0
VERTEX
  8
0
 10
-414.5
 20
251.0
  0
VERTEX
  8
0
 10
-414.5
 20
252.5
  0
VERTEX
  8
0
 10
-423.0
 20
252.5
  0
VERTEX
  8
0
 10
-423.0
 20
248.0
  0
VERTEX
  8
0
 10
-418.0
 20
248.0
  0
VERTEX
  8
0
 10
-418.0
 20
174.0
  0
VERTEX
  8
0
 10
-423.0
 20
174.0
  0
VERTEX
  8
0
 10
-423.0
 20
169.5
  0
VERTEX
  8
0
 10
-414.5
 20
169.5
  0
VERTEX
  8
0
 10
-414.5
 20
171.0
  0
VERTEX
  8
0
 10
-410.5
 20
171.0
  0
VERTEX
  8
0
 10
-410.5
 20
169.5
  0
VERTEX
  8
0
 10
-409.0
 20
169.5
  0
VERTEX
  8
0
 10
-409.0
 20
164.5
  0
VERTEX
  8
0
 10
-410.5
 20
164.5
  0
VERTEX
  8
0
 10
-410.5
 20
163.0
  0
VERTEX
  8
0
 10
-414.5
 20
163.0
  0
VERTEX
  8
0
 10
-414.5
 20
164.5
  0
VERTEX
  8
0
 10
-423.0
 20
164.5
  0
VERTEX
  8
0
 10
-423.0
 20
160.0
  0
VERTEX
  8
0
 10
-418.0
 20
160.0
  0
VERTEX
  8
0
 10
-418.0
 20
86.0
  0
VERTEX
  8
0
 10
-423.0
 20
86.0
  0
VERTEX
  8
0
 10
-423.0
 20
81.5
  0
VERTEX
  8
0
 10
-414.5
 20
81.5
  0
VERTEX
  8
0
 10
-414.5
 20
83.0
  0
VERTEX
  8
0
 10
-410.5
 20
83.0
  0
VERTEX
  8
0
 10
-410.5
 20
81.5
  0
VERTEX
  8
0
 10
-409.0
 20
81.5
  0
VERTEX
  8
0
 10
-409.0
 20
76.5
  0
VERTEX
  8
0
 10
-410.5
 20
76.5
  0
VERTEX
  8
0
 10
-410.5
 20
75.0
  0
VERTEX
  8
0
 10
-414.5
 20
75.0
  0
VERTEX
  8
0
 10
-414.5
 20
76.5
  0
VERTEX
  8
0
 10
-423.0
 20
76.5
  0
VERTEX
  8
0
 10
-423.0
 20
72.0
  0
VERTEX
  8
0
 10
-418.0
 20
72.0
  0
VERTEX
  8
0
 10
-418.0
 20
0.0
  0
VERTEX
  8
0
 10
-5.0
 20
0.0
  0
VERTEX
  8
0
 10
-5.0
 20
72.0
  0
VERTEX
  8
0
 10
0.0
 20
72.0
  0
VERTEX
  8
0
 10
0.0
 20
76.5
  0
VERTEX
  8
0
 10
-8.5
 20
76.5
  0
VERTEX
  8
0
 10
-8.5
 20
75.0
  0
VERTEX
  8
0
 10
-12.5
 20
75.0
  0
VERTEX
  8
0
 10
-12.5
 20
76.5
  0
VERTEX
  8
0
 10
-14.0
 20
76.5
  0
VERTEX
  8
0
 10
-14.0
 20
81.5
  0
SEQEND
  8
0
  0
POLYLINE
  8
0
 62
0
 70
1
 66
1
 10
0.0
 20
0.0
 30
0.0
  0
VERTEX
  8
0
 10
-5.0
 20
526.0
  0
VERTEX
  8
0
 10
-5.0
 20
526.0
  0
VERTEX
  8
0
 10
-5.0
 20
600.0
  0
VERTEX
  8
0
 10
-5.0
 20
600.0
  0
SEQEND
  8
0
  0
POLYLINE
  8
0
 62
0
 70
1
 66
1
 10
0.0
 20
0.0
 30
0.0
  0
VERTEX
  8
0
 10
-136.0
 20
448.0
  0
VERTEX
  8
0
 10
-141.0
 20
448.0
  0
VERTEX
  8
0
 10
-141.0
 20
434.0
  0
VERTEX
  8
0
 10
-136.0
 20
434.0
  0
SEQEND
  8
0
  0
POLYLINE
  8
0
 62
0
 70
1
 66
1
 10
0.0
 20
0.0
 30
0.0
  0
VERTEX
  8
0
 10
-136.0
 20
166.0
  0
VERTEX
  8
0
 10
-141.0
 20
166.0
  0
VERTEX
  8
0
 10
-141.0
 20
152.0
  0
VERTEX
  8
0
 10
-136.0
 20
152.0
  0
SEQEND
  8
0
  0
POLYLINE
  8
0
 62
0
 70
1
 66
1
 10
0.0
 20
0.0
 30
0.0
  0
VERTEX
  8
0
 10
-418.0
 20
600.0
  0
VERTEX
  8
0
 10
-5.0
 20
600.0
  0
VERTEX
  8
0
 10
-5.0
 20
526.0
  0
VERTEX
  8
0
 10
0.0
 20
526.0
  0
VERTEX
  8
0
 10
0.0
 20
521.5
  0
VERTEX
  8
0
 10
-8.5
 20
521.5
  0
VERTEX
  8
0
 10
-8.5
 20
523.0
  0
VERTEX
  8
0
 10
-12.5
 20
523.0
  0
VERTEX
  8
0
 10
-12.5
 20
521.5
  0
VERTEX
  8
0
 10
-14.0
 20
521.5
  0
VERTEX
  8
0
 10
-14.0
 20
516.5
  0
VERTEX
  8
0
 10
-12.5
 20
516.5
  0
VERTEX
  8
0
 10
-12.5
 20
515.0
  0
VERTEX
  8
0
 10
-8.5
 20
515.0
  0
VERTEX
  8
0
 10
-8.5
 20
516.5
  0
VERTEX
  8
0
 10
0.0
 20
516.5
  0
VERTEX
  8
0
 10
0.0
 20
512.0
  0
VERTEX
  8
0
 10
-5.0
 20
512.0
  0
VERTEX
  8
0
 10
-5.0
 20
438.0
  0
VERTEX
  8
0
 10
0.0
 20
438.0
  0
VERTEX
  8
0
 10
0.0
 20
433.5
  0
VERTEX
  8
0
 10
-8.5
 20
433.5
  0
VERTEX
  8
0
 10
-8.5
 20
435.0
  0
VERTEX
  8
0
 10
-12.5
 20
435.0
  0
VERTEX
  8
0
 10
-12.5
 20
433.5
  0
VERTEX
  8
0
 10
-14.0
 20
433.5
  0
VERTEX
  8
0
 10
-14.0
 20
428.5
  0
VERTEX
  8
0
 10
-12.5
 20
428.5
  0
VERTEX
  8
0
 10
-12.5
 20
427.0
  0
VERTEX
  8
0
 10
-8.5
 20
427.0
  0
VERTEX
  8
0
 10
-8.5
 20
428.5
  0
VERTEX
  8
0
 10
0.0
 20
428.5
  0
VERTEX
  8
0
 10
0.0
 20
424.0
  0
VERTEX
  8
0
 10
-5.0
 20
424.0
  0
VERTEX
  8
0
 10
-5.0
 20
350.0
  0
VERTEX
  8
0
 10
0.0
 20
350.0
  0
VERTEX
  8
0
 10
0.0
 20
345.5
  0
VERTEX
  8
0
 10
-8.5
 20
345.5
  0
VERTEX
  8
0
 10
-8.5
 20
347.0
  0
VERTEX
  8
0
 10
-12.5
 20
347.0
  0
VERTEX
  8
0
 10
-12.5
 20
345.5
  0
VERTEX
  8
0
 10
-14.0
 20
345.5
  0
VERTEX
  8
0
 10
-14.0
 20
340.5
  0
VERTEX
  8
0
 10
-12.5
 20
340.5
  0
VERTEX
  8
0
 10
-12.5
 20
339.0
  0
VERTEX
  8
0
 10
-8.5
 20
339.0
  0
VERTEX
  8
0
 10
-8.5
 20
340.5
  0
VERTEX
  8
0
 10
0.0
 20
340.5
  0
VERTEX
  8
0
 10
0.0
 20
336.0
  0
VERTEX
  8
0
 10
-5.0
 20
336.0
  0
VERTEX
  8
0
 10
-5.0
 20
262.0
  0
VERTEX
  8
0
 10
0.0
 20
262.0
  0
VERTEX
  8
0
 10
0.0
 20
257.5
  0
VERTEX
  8
0
 10
-8.5
 20
257.5
  0
VERTEX
  8
0
 10
-8.5
 20
259.0
  0
VERTEX
  8
0
 10
-12.5
 20
259.0
  0
VERTEX
  8
0
 10
-12.5
 20
257.5
  0
VERTEX
  8
0
 10
-14.0
 20
257.5
  0
VERTEX
  8
0
 10
-14.0
 20
252.5
  0
VERTEX
  8
0
 10
-12.5
 20
252.5
  0
VERTEX
  8
0
 10
-12.5
 20
251.0
  0
VERTEX
  8
0
 10
-8.5
 20
251.0
  0
VERTEX
  8
0
 10
-8.5
 20
252.5
  0
VERTEX
  8
0
 10
0.0
 20
252.5
  0
VERTEX
  8
0
 10
0.0
 20
248.0
  0
VERTEX
  8
0
 10
-5.0
 20
248.0
  0
VERTEX
  8
0
 10
-5.0
 20
174.0
  0
VERTEX
  8
0
 10
0.0
 20
174.0
  0
VERTEX
  8
0
 10
0.0
 20
169.5
  0
VERTEX
  8
0
 10
-8.5
 20
169.5
  0
VERTEX
  8
0
 10
-8.5
 20
171.0
  0
VERTEX
  8
0
 10
-12.5
 20
171.0
  0
VERTEX
  8
0
 10
-12.5
 20
169.5
  0
VERTEX
  8
0
 10
-14.0
 20
169.5
  0
VERTEX
  8
0
 10
-14.0
 20
164.5
  0
VERTEX
  8
0
 10
-12.5
 20
164.5
  0
VERTEX
  8
0
 10
-12.5
 20
163.0
  0
VERTEX
  8
0
 10
-8.5
 20
163.0
  0
VERTEX
  8
0
 10
-8.5
 20
164.5
  0
VERTEX
  8
0
 10
0.0
 20
164.5
  0
VERTEX
  8
0
 10
0.0
 20
160.0
  0
VERTEX
  8
0
 10
-5.0
 20
160.0
  0
VERTEX
  8
0
 10
-5.0
 20
86.0
  0
VERTEX
  8
0
 10
0.0
 20
86.0
  0
VERTEX
  8
0
 10
0.0
 20
81.5
  0
VERTEX
  8
0
 10
-8.5
 20
81.5
  0
VERTEX
  8
0
 10
-8.5
 20
83.0
  0
VERTEX
  8
0
 10
-12.5
 20
83.0
  0
VERTEX
  8
0
 10
-12.5
 20
81.5
  0
VERTEX
  8
0
 10
-14.0
 20
81.5
  0
VERTEX
  8
0
 10
-14.0
 20
76.5
  0
VERTEX
  8
0
 10
-12.5
 20
76.5
  0
VERTEX
  8
0
 10
-12.5
 20
75.0
  0
VERTEX
  8
0
 10
-8.5
 20
75.0
  0
VERTEX
  8
0
 10
-8.5
 20
76.5
  0
VERTEX
  8
0
 10
0.0
 20
76.5
  0
VERTEX
  8
0
 10
0.0
 20
72.0
  0
VERTEX
  8
0
 10
-5.0
 20
72.0
  0
VERTEX
  8
0
 10
-5.0
 20
0.0
  0
VERTEX
  8
0
 10
-418.0
 20
0.0
  0
VERTEX
  8
0
 10
-418.0
 20
72.0
  0
VERTEX
  8
0
 10
-423.0
 20
72.0
  0
VERTEX
  8
0
 10
-423.0
 20
76.5
  0
VERTEX
  8
0
 10
-414.5
 20
76.5
  0
VERTEX
  8
0
 10
-414.5
 20
75.0
  0
VERTEX
  8
0
 10
-410.5
 20
75.0
  0
VERTEX
  8
0
 10
-410.5
 20
76.5
  0
VERTEX
  8
0
 10
-409.0
 20
76.5
  0
VERTEX
  8
0
 10
-409.0
 20
81.5
  0
VERTEX
  8
0
 10
-410.5
 20
81.5
  0
VERTEX
  8
0
 10
-410.5
 20
83.0
  0
VERTEX
  8
0
 10
-414.5
 20
83.0
  0
VERTEX
  8
0
 10
-414.5
 20
81.5
  0
VERTEX
  8
0
 10
-423.0
 20
81.5
  0
VERTEX
  8
0
 10
-423.0
 20
86.0
  0
VERTEX
  8
0
 10
-418.0
 20
86.0
  0
VERTEX
  8
0
 10
-418.0
 20
160.0
  0
VERTEX
  8
0
 10
-423.0
 20
160.0
  0
VERTEX
  8
0
 10
-423.0
 20
164.5
  0
VERTEX
  8
0
 10
-414.5
 20
164.5
  0
VERTEX
  8
0
 10
-414.5
 20
163.0
  0
VERTEX
  8
0
 10
-410.5
 20
163.0
  0
VERTEX
  8
0
 10
-410.5
 20
164.5
  0
VERTEX
  8
0
 10
-409.0
 20
164.5
  0
VERTEX
  8
0
 10
-409.0
 20
169.5
  0
VERTEX
  8
0
 10
-410.5
 20
169.5
  0
VERTEX
  8
0
 10
-410.5
 20
171.0
  0
VERTEX
  8
0
 10
-414.5
 20
171.0
  0
VERTEX
  8
0
 10
-414.5
 20
169.5
  0
VERTEX
  8
0
 10
-423.0
 20
169.5
  0
VERTEX
  8
0
 10
-423.0
 20
174.0
  0
VERTEX
  8
0
 10
-418.0
 20
174.0
  0
VERTEX
  8
0
 10
-418.0
 20
248.0
  0
VERTEX
  8
0
 10
-423.0
 20
248.0
  0
VERTEX
  8
0
 10
-423.0
 20
252.5
  0
VERTEX
  8
0
 10
-414.5
 20
252.5
  0
VERTEX
  8
0
 10
-414.5
 20
251.0
  0
VERTEX
  8
0
 10
-410.5
 20
251.0
  0
VERTEX
  8
0
 10
-410.5
 20
252.5
  0
VERTEX
  8
0
 10
-409.0
 20
252.5
  0
VERTEX
  8
0
 10
-409.0
 20
257.5
  0
VERTEX
  8
0
 10
-410.5
 20
257.5
  0
VERTEX
  8
0
 10
-410.5
 20
259.0
  0
VERTEX
  8
0
 10
-414.5
 20
259.0
  0
VERTEX
  8
0
 10
-414.5
 20
257.5
  0
VERTEX
  8
0
 10
-423.0
 20
257.5
  0
VERTEX
  8
0
 10
-423.0
 20
262.0
  0
VERTEX
  8
0
 10
-418.0
 20
262.0
  0
VERTEX
  8
0
 10
-418.0
 20
336.0
  0
VERTEX
  8
0
 10
-423.0
 20
336.0
  0
VERTEX
  8
0
 10
-423.0
 20
340.5
  0
VERTEX
  8
0
 10
-414.5
 20
340.5
  0
VERTEX
  8
0
 10
-414.5
 20
339.0
  0
VERTEX
  8
0
 10
-410.5
 20
339.0
  0
VERTEX
  8
0
 10
-410.5
 20
340.5
  0
VERTEX
  8
0
 10
-409.0
 20
340.5
  0
VERTEX
  8
0
 10
-409.0
 20
345.5
  0
VERTEX
  8
0
 10
-410.5
 20
345.5
  0
VERTEX
  8
0
 10
-410.5
 20
347.0
  0
VERTEX
  8
0
 10
-414.5
 20
347.0
  0
VERTEX
  8
0
 10
-414.5
 20
345.5
  0
VERTEX
  8
0
 10
-423.0
 20
345.5
  0
VERTEX
  8
0
 10
-423.0
 20
350.0
  0
VERTEX
  8
0
 10
-418.0
 20
350.0
  0
VERTEX
  8
0
 10
-418.0
 20
424.0
  0
VERTEX
  8
0
 10
-423.0
 20
424.0
  0
VERTEX
  8
0
 10
-423.0
 20
428.5
  0
VERTEX
  8
0
 10
-414.5
 20
428.5
  0
VERTEX
  8
0
 10
-414.5
 20
427.0
  0
VERTEX
  8
0
 10
-410.5
 20
427.0
  0
VERTEX
  8
0
 10
-410.5
 20
428.5
  0
VERTEX
  8
0
 10
-409.0
 20
428.5
  0
VERTEX
  8
0
 10
-409.0
 20
433.5
  0
VERTEX
  8
0
 10
-410.5
 20
433.5
  0
VERTEX
  8
0
 10
-410.5
 20
435.0
  0
VERTEX
  8
0
 10
-414.5
 20
435.0
  0
VERTEX
  8
0
 10
-414.5
 20
433.5
  0
VERTEX
  8
0
 10
-423.0
 20
433.5
  0
VERTEX
  8
0
 10
-423.0
 20
438.0
  0
VERTEX
  8
0
 10
-418.0
 20
438.0
  0
VERTEX
  8
0
 10
-418.0
 20
512.0
  0
VERTEX
  8
0
 10
-423.0
 20
512.0
  0
VERTEX
  8
0
 10
-423.0
 20
516.5
  0
VERTEX
  8
0
 10
-414.5
 20
516.5
  0
VERTEX
  8
0
 10
-414.5
 20
515.0
  0
VERTEX
  8
0
 10
-410.5
 20
515.0
  0
VERTEX
  8
0
 10
-410.5
 20
516.5
  0
VERTEX
  8
0
 10
-409.0
 20
516.5
  0
VERTEX
  8
0
 10
-409.0
 20
521.5
  0
VERTEX
  8
0
 10
-410.5
 20
521.5
  0
VERTEX
  8
0
 10
-410.5
 20
523.0
  0
VERTEX
  8
0
 10
-414.5
 20
523.0
  0
VERTEX
  8
0
 10
-414.5
 20
521.5
  0
VERTEX
  8
0
 10
-423.0
 20
521.5
  0
VERTEX
  8
0
 10
-423.0
 20
526.0
  0
VERTEX
  8
0
 10
-418.0
 20
526.0
  0
SEQEND
  8
0
  0
POLYLINE
  8
0
 62
0
 70
1
 66
1
 10
0.0
 20
0.0
 30
0.0
  0
VERTEX
  8
0
 10
-146.0
 20
11.526
  0
VERTEX
  8
0
 10
-146.0
 20
25.526
  0
VERTEX
  8
0
 10
-141.0
 20
25.526
  0
VERTEX
  8
0
 10
-141.0
 20
11.526
  0
SEQEND
  8
0
  0
POLYLINE
  8
0
 62
0
 70
1
 66
1
 10
0.0
 20
0.0
 30
0.0
  0
VERTEX
  8
0
 10
-146.0
 20
36.0
  0
VERTEX
  8
0
 10
-146.0
 20
50.0
  0
VERTEX
  8
0
 10
-141.0
 20
50.0
  0
VERTEX
  8
0
 10
-141.0
 20
36.0
  0
SEQEND
  8
0
  0
POLYLINE
  8
0
 62
0
 70
1
 66
1
 10
0.0
 20
0.0
 30
0.0
  0
VERTEX
  8
0
 10
-282.0
 20
11.526
  0
VERTEX
  8
0
 10
-282.0
 20
25.526
  0
VERTEX
  8
0
 10
-277.0
 20
25.526
  0
VERTEX
  8
0
 10
-277.0
 20
11.526
  0
SEQEND
  8
0
  0
POLYLINE
  8
0
 62
0
 70
1
 66
1
 10
0.0
 20
0.0
 30
0.0
  0
VERTEX
  8
0
 10
-282.0
 20
36.0
  0
VERTEX
  8
0
 10
-282.0
 20
50.0
  0
VERTEX
  8
0
 10
-277.0
 20
50.0
  0
VERTEX
  8
0
 10
-277.0
 20
36.0
  0
SEQEND
  8
0
  0
POLYLINE
  8
0
 62
0
 70
1
 66
1
 10
0.0
 20
0.0
 30
0.0
  0
VERTEX
  8
0
 10
-141.0
 20
58.0
  0
VERTEX
  8
0
 10
-141.0
 20
72.0
  0
VERTEX
  8
0
 10
-136.0
 20
72.0
  0
VERTEX
  8
0
 10
-136.0
 20
58.0
  0
SEQEND
  8
0
  0
POLYLINE
  8
0
 62
0
 70
1
 66
1
 10
0.0
 20
0.0
 30
0.0
  0
VERTEX
  8
0
 10
-141.0
 20
246.0
  0
VERTEX
  8
0
 10
-141.0
 20
260.0
  0
VERTEX
  8
0
 10
-136.0
 20
260.0
  0
VERTEX
  8
0
 10
-136.0
 20
246.0
  0
SEQEND
  8
0
  0
POLYLINE
  8
0
 62
0
 70
1
 66
1
 10
0.0
 20
0.0
 30
0.0
  0
VERTEX
  8
0
 10
-141.0
 20
340.0
  0
VERTEX
  8
0
 10
-141.0
 20
354.0
  0
VERTEX
  8
0
 10
-136.0
 20
354.0
  0
VERTEX
  8
0
 10
-136.0
 20
340.0
  0
SEQEND
  8
0
  0
POLYLINE
  8
0
 62
0
 70
1
 66
1
 10
0.0
 20
0.0
 30
0.0
  0
VERTEX
  8
0
 10
-141.0
 20
528.0
  0
VERTEX
  8
0
 10
-141.0
 20
542.0
  0
VERTEX
  8
0
 10
-136.0
 20
542.0
  0
VERTEX
  8
0
 10
-136.0
 20
528.0
  0
SEQEND
  8
0
  0
POLYLINE
  8
0
 62
0
 70
1
 66
1
 10
0.0
 20
0.0
 30
0.0
  0
VERTEX
  8
0
 10
-287.0
 20
58.0
  0
VERTEX
  8
0
 10
-287.0
 20
72.0
  0
VERTEX
  8
0
 10
-282.0
 20
72.0
  0
VERTEX
  8
0
 10
-282.0
 20
58.0
  0
SEQEND
  8
0
  0
POLYLINE
  8
0
 62
0
 70
1
 66
1
 10
0.0
 20
0.0
 30
0.0
  0
VERTEX
  8
0
 10
-287.0
 20
152.0
  0
VERTEX
  8
0
 10
-287.0
 20
166.0
  0
VERTEX
  8
0
 10
-282.0
 20
166.0
  0
VERTEX
  8
0
 10
-282.0
 20
152.0
  0
SEQEND
  8
0
  0
POLYLINE
  8
0
 62
0
 70
1
 66
1
 10
0.0
 20
0.0
 30
0.0
  0
VERTEX
  8
0
 10
-287.0
 20
246.0
  0
VERTEX
  8
0
 10
-287.0
 20
260.0
  0
VERTEX
  8
0
 10
-282.0
 20
260.0
  0
VERTEX
  8
0
 10
-282.0
 20
246.0
  0
SEQEND
  8
0
  0
POLYLINE
  8
0
 62
0
 70
1
 66
1
 10
0.0
 20
0.0
 30
0.0
  0
VERTEX
  8
0
 10
-287.0
 20
340.0
  0
VERTEX
  8
0
 10
-287.0
 20
354.0
  0
VERTEX
  8
0
 10
-282.0
 20
354.0
  0
VERTEX
  8
0
 10
-282.0
 20
340.0
  0
SEQEND
  8
0
  0
POLYLINE
  8
0
 62
0
 70
1
 66
1
 10
0.0
 20
0.0
 30
0.0
  0
VERTEX
  8
0
 10
-287.0
 20
434.0
  0
VERTEX
  8
0
 10
-287.0
 20
448.0
  0
VERTEX
  8
0
 10
-282.0
 20
448.0
  0
VERTEX
  8
0
 10
-282.0
 20
434.0
  0
SEQEND
  8
0
  0
POLYLINE
  8
0
 62
0
 70
1
 66
1
 10
0.0
 20
0.0
 30
0.0
  0
VERTEX
  8
0
 10
-287.0
 20
528.0
  0
VERTEX
  8
0
 10
-287.0
 20
542.0
  0
VERTEX
  8
0
 10
-282.0
 20
542.0
  0
VERTEX
  8
0
 10
-282.0
 20
528.0
  0
SEQEND
  8
0
  0
POLYLINE
  8
0
 62
0
 70
1
 66
1
 10
0.0
 20
0.0
 30
0.0
  0
VERTEX
  8
0
 10
-418.0
 20
600.0
  0
VERTEX
  8
0
 10
-418.0
 20
600.0
  0
VERTEX
  8
0
 10
-418.0
 20
526.0
  0
VERTEX
  8
0
 10
-418.0
 20
526.0
  0
SEQEND
  8
0
  0
POLYLINE
  8
0
 62
0
 70
1
 66
1
 10
0.0
 20
0.0
 30
0.0
  0
VERTEX
  8
0
 10
-136.0
 20
448.0
  0
VERTEX
  8
0
 10
-136.0
 20
448.0
  0
VERTEX
  8
0
 10
-141.0
 20
448.0
  0
VERTEX
  8
0
 10
-141.0
 20
448.0
  0
SEQEND
  8
0
  0
POLYLINE
  8
0
 62
0
 70
1
 66
1
 10
0.0
 20
0.0
 30
0.0
  0
VERTEX
  8
0
 10
-141.0
 20
448.0
  0
VERTEX
  8
0
 10
-141.0
 20
448.0
  0
VERTEX
  8
0
 10
-141.0
 20
434.0
  0
VERTEX
  8
0
 10
-141.0
 20
434.0
  0
SEQEND
  8
0
  0
POLYLINE
  8
0
 62
0
 70
1
 66
1
 10
0.0
 20
0.0
 30
0.0
  0
VERTEX
  8
0
 10
-141.0
 20
434.0
  0
VERTEX
  8
0
 10
-141.0
 20
434.0
  0
VERTEX
  8
0
 10
-136.0
 20
434.0
  0
VERTEX
  8
0
 10
-136.0
 20
434.0
  0
SEQEND
  8
0
  0
POLYLINE
  8
0
 62
0
 70
1
 66
1
 10
0.0
 20
0.0
 30
0.0
  0
VERTEX
  8
0
 10
-136.0
 20
434.0
  0
VERTEX
  8
0
 10
-136.0
 20
434.0
  0
VERTEX
  8
0
 10
-136.0
 20
448.0
  0
VERTEX
  8
0
 10
-136.0
 20
448.0
  0
SEQEND
  8
0
  0
POLYLINE
  8
0
 62
0
 70
1
 66
1
 10
0.0
 20
0.0
 30
0.0
  0
VERTEX
  8
0
 10
-136.0
 20
166.0
  0
VERTEX
  8
0
 10
-136.0
 20
166.0
  0
VERTEX
  8
0
 10
-141.0
 20
166.0
  0
VERTEX
  8
0
 10
-141.0
 20
166.0
  0
SEQEND
  8
0
  0
POLYLINE
  8
0
 62
0
 70
1
 66
1
 10
0.0
 20
0.0
 30
0.0
  0
VERTEX
  8
0
 10
-141.0
 20
166.0
  0
VERTEX
  8
0
 10
-141.0
 20
166.0
  0
VERTEX
  8
0
 10
-141.0
 20
152.0
  0
VERTEX
  8
0
 10
-141.0
 20
152.0
  0
SEQEND
  8
0
  0
POLYLINE
  8
0
 62
0
 70
1
 66
1
 10
0.0
 20
0.0
 30
0.0
  0
VERTEX
  8
0
 10
-141.0
 20
152.0
  0
VERTEX
  8
0
 10
-141.0
 20
152.0
  0
VERTEX
  8
0
 10
-136.0
 20
152.0
  0
VERTEX
  8
0
 10
-136.0
 20
152.0
  0
SEQEND
  8
0
  0
POLYLINE
  8
0
 62
0
 70
1
 66
1
 10
0.0
 20
0.0
 30
0.0
  0
VERTEX
  8
0
 10
-136.0
 20
152.0
  0
VERTEX
  8
0
 10
-136.0
 20
152.0
  0
VERTEX
  8
0
 10
-136.0
 20
166.0
  0
VERTEX
  8
0
 10
-136.0
 20
166.0
  0
SEQEND
  8
0
  0
POLYLINE
  8
0
 62
0
 70
1
 66
1
 10
0.0
 20
0.0
 30
0.0
  0
VERTEX
  8
0
 10
-146.0
 20
11.526
  0
VERTEX
  8
0
 10
-146.0
 20
11.526
  0
VERTEX
  8
0
 10
-146.0
 20
25.526
  0
VERTEX
  8
0
 10
-146.0
 20
25.526
  0
SEQEND
  8
0
  0
POLYLINE
  8
0
 62
0
 70
1
 66
1
 10
0.0
 20
0.0
 30
0.0
  0
VERTEX
  8
0
 10
-141.0
 20
11.526
  0
VERTEX
  8
0
 10
-141.0
 20
11.526
  0
VERTEX
  8
0
 10
-146.0
 20
11.526
  0
VERTEX
  8
0
 10
-146.0
 20
11.526
  0
SEQEND
  8
0
  0
POLYLINE
  8
0
 62
0
 70
1
 66
1
 10
0.0
 20
0.0
 30
0.0
  0
VERTEX
  8
0
 10
-141.0
 20
25.526
  0
VERTEX
  8
0
 10
-141.0
 20
25.526
  0
VERTEX
  8
0
 10
-141.0
 20
11.526
  0
VERTEX
  8
0
 10
-141.0
 20
11.526
  0
SEQEND
  8
0
  0
POLYLINE
  8
0
 62
0
 70
1
 66
1
 10
0.0
 20
0.0
 30
0.0
  0
VERTEX
  8
0
 10
-146.0
 20
25.526
  0
VERTEX
  8
0
 10
-146.0
 20
25.526
  0
VERTEX
  8
0
 10
-141.0
 20
25.526
  0
VERTEX
  8
0
 10
-141.0
 20
25.526
  0
SEQEND
  8
0
  0
POLYLINE
  8
0
 62
0
 70
1
 66
1
 10
0.0
 20
0.0
 30
0.0
  0
VERTEX
  8
0
 10
-146.0
 20
36.0
  0
VERTEX
  8
0
 10
-146.0
 20
36.0
  0
VERTEX
  8
0
 10
-146.0
 20
50.0
  0
VERTEX
  8
0
 10
-146.0
 20
50.0
  0
SEQEND
  8
0
  0
POLYLINE
  8
0
 62
0
 70
1
 66
1
 10
0.0
 20
0.0
 30
0.0
  0
VERTEX
  8
0
 10
-141.0
 20
36.0
  0
VERTEX
  8
0
 10
-141.0
 20
36.0
  0
VERTEX
  8
0
 10
-146.0
 20
36.0
  0
VERTEX
  8
0
 10
-146.0
 20
36.0
  0
SEQEND
  8
0
  0
POLYLINE
  8
0
 62
0
 70
1
 66
1
 10
0.0
 20
0.0
 30
0.0
  0
VERTEX
  8
0
 10
-141.0
 20
50.0
  0
VERTEX
  8
0
 10
-141.0
 20
50.0
  0
VERTEX
  8
0
 10
-141.0
 20
36.0
  0
VERTEX
  8
0
 10
-141.0
 20
36.0
  0
SEQEND
  8
0
  0
POLYLINE
  8
0
 62
0
 70
1
 66
1
 10
0.0
 20
0.0
 30
0.0
  0
VERTEX
  8
0
 10
-146.0
 20
50.0
  0
VERTEX
  8
0
 10
-146.0
 20
50.0
  0
VERTEX
  8
0
 10
-141.0
 20
50.0
  0
VERTEX
  8
0
 10
-141.0
 20
50.0
  0
SEQEND
  8
0
  0
POLYLINE
  8
0
 62
0
 70
1
 66
1
 10
0.0
 20
0.0
 30
0.0
  0
VERTEX
  8
0
 10
-282.0
 20
11.526
  0
VERTEX
  8
0
 10
-282.0
 20
11.526
  0
VERTEX
  8
0
 10
-282.0
 20
25.526
  0
VERTEX
  8
0
 10
-282.0
 20
25.526
  0
SEQEND
  8
0
  0
POLYLINE
  8
0
 62
0
 70
1
 66
1
 10
0.0
 20
0.0
 30
0.0
  0
VERTEX
  8
0
 10
-277.0
 20
11.526
  0
VERTEX
  8
0
 10
-277.0
 20
11.526
  0
VERTEX
  8
0
 10
-282.0
 20
11.526
  0
VERTEX
  8
0
 10
-282.0
 20
11.526
  0
SEQEND
  8
0
  0
POLYLINE
  8
0
 62
0
 70
1
 66
1
 10
0.0
 20
0.0
 30
0.0
  0
VERTEX
  8
0
 10
-277.0
 20
25.526
  0
VERTEX
  8
0
 10
-277.0
 20
25.526
  0
VERTEX
  8
0
 10
-277.0
 20
11.526
  0
VERTEX
  8
0
 10
-277.0
 20
11.526
  0
SEQEND
  8
0
  0
POLYLINE
  8
0
 62
0
 70
1
 66
1
 10
0.0
 20
0.0
 30
0.0
  0
VERTEX
  8
0
 10
-282.0
 20
25.526
  0
VERTEX
  8
0
 10
-282.0
 20
25.526
  0
VERTEX
  8
0
 10
-277.0
 20
25.526
  0
VERTEX
  8
0
 10
-277.0
 20
25.526
  0
SEQEND
  8
0
  0
POLYLINE
  8
0
 62
0
 70
1
 66
1
 10
0.0
 20
0.0
 30
0.0
  0
VERTEX
  8
0
 10
-282.0
 20
36.0
  0
VERTEX
  8
0
 10
-282.0
 20
36.0
  0
VERTEX
  8
0
 10
-282.0
 20
50.0
  0
VERTEX
  8
0
 10
-282.0
 20
50.0
  0
SEQEND
  8
0
  0
POLYLINE
  8
0
 62
0
 70
1
 66
1
 10
0.0
 20
0.0
 30
0.0
  0
VERTEX
  8
0
 10
-277.0
 20
36.0
  0
VERTEX
  8
0
 10
-277.0
 20
36.0
  0
VERTEX
  8
0
 10
-282.0
 20
36.0
  0
VERTEX
  8
0
 10
-282.0
 20
36.0
  0
SEQEND
  8
0
  0
POLYLINE
  8
0
 62
0
 70
1
 66
1
 10
0.0
 20
0.0
 30
0.0
  0
VERTEX
  8
0
 10
-277.0
 20
50.0
  0
VERTEX
  8
0
 10
-277.0
 20
50.0
  0
VERTEX
  8
0
 10
-277.0
 20
36.0
  0
VERTEX
  8
0
 10
-277.0
 20
36.0
  0
SEQEND
  8
0
  0
POLYLINE
  8
0
 62
0
 70
1
 66
1
 10
0.0
 20
0.0
 30
0.0
  0
VERTEX
  8
0
 10
-282.0
 20
50.0
  0
VERTEX
  8
0
 10
-282.0
 20
50.0
  0
VERTEX
  8
0
 10
-277.0
 20
50.0
  0
VERTEX
  8
0
 10
-277.0
 20
50.0
  0
SEQEND
  8
0
  0
POLYLINE
  8
0
 62
0
 70
1
 66
1
 10
0.0
 20
0.0
 30
0.0
  0
VERTEX
  8
0
 10
-141.0
 20
58.0
  0
VERTEX
  8
0
 10
-141.0
 20
58.0
  0
VERTEX
  8
0
 10
-141.0
 20
72.0
  0
VERTEX
  8
0
 10
-141.0
 20
72.0
  0
SEQEND
  8
0
  0
POLYLINE
  8
0
 62
0
 70
1
 66
1
 10
0.0
 20
0.0
 30
0.0
  0
VERTEX
  8
0
 10
-136.0
 20
58.0
  0
VERTEX
  8
0
 10
-136.0
 20
58.0
  0
VERTEX
  8
0
 10
-141.0
 20
58.0
  0
VERTEX
  8
0
 10
-141.0
 20
58.0
  0
SEQEND
  8
0
  0
POLYLINE
  8
0
 62
0
 70
1
 66
1
 10
0.0
 20
0.0
 30
0.0
  0
VERTEX
  8
0
 10
-136.0
 20
72.0
  0
VERTEX
  8
0
 10
-136.0
 20
72.0
  0
VERTEX
  8
0
 10
-136.0
 20
58.0
  0
VERTEX
  8
0
 10
-136.0
 20
58.0
  0
SEQEND
  8
0
  0
POLYLINE
  8
0
 62
0
 70
1
 66
1
 10
0.0
 20
0.0
 30
0.0
  0
VERTEX
  8
0
 10
-141.0
 20
72.0
  0
VERTEX
  8
0
 10
-141.0
 20
72.0
  0
VERTEX
  8
0
 10
-136.0
 20
72.0
  0
VERTEX
  8
0
 10
-136.0
 20
72.0
  0
SEQEND
  8
0
  0
POLYLINE
  8
0
 62
0
 70
1
 66
1
 10
0.0
 20
0.0
 30
0.0
  0
VERTEX
  8
0
 10
-141.0
 20
246.0
  0
VERTEX
  8
0
 10
-141.0
 20
246.0
  0
VERTEX
  8
0
 10
-141.0
 20
260.0
  0
VERTEX
  8
0
 10
-141.0
 20
260.0
  0
SEQEND
  8
0
  0
POLYLINE
  8
0
 62
0
 70
1
 66
1
 10
0.0
 20
0.0
 30
0.0
  0
VERTEX
  8
0
 10
-136.0
 20
246.0
  0
VERTEX
  8
0
 10
-136.0
 20
246.0
  0
VERTEX
  8
0
 10
-141.0
 20
246.0
  0
VERTEX
  8
0
 10
-141.0
 20
246.0
  0
SEQEND
  8
0
  0
POLYLINE
  8
0
 62
0
 70
1
 66
1
 10
0.0
 20
0.0
 30
0.0
  0
VERTEX
  8
0
 10
-136.0
 20
260.0
  0
VERTEX
  8
0
 10
-136.0
 20
260.0
  0
VERTEX
  8
0
 10
-136.0
 20
246.0
  0
VERTEX
  8
0
 10
-136.0
 20
246.0
  0
SEQEND
  8
0
  0
POLYLINE
  8
0
 62
0
 70
1
 66
1
 10
0.0
 20
0.0
 30
0.0
  0
VERTEX
  8
0
 10
-141.0
 20
260.0
  0
VERTEX
  8
0
 10
-141.0
 20
260.0
  0
VERTEX
  8
0
 10
-136.0
 20
260.0
  0
VERTEX
  8
0
 10
-136.0
 20
260.0
  0
SEQEND
  8
0
  0
POLYLINE
  8
0
 62
0
 70
1
 66
1
 10
0.0
 20
0.0
 30
0.0
  0
VERTEX
  8
0
 10
-141.0
 20
340.0
  0
VERTEX
  8
0
 10
-141.0
 20
340.0
  0
VERTEX
  8
0
 10
-141.0
 20
354.0
  0
VERTEX
  8
0
 10
-141.0
 20
354.0
  0
SEQEND
  8
0
  0
POLYLINE
  8
0
 62
0
 70
1
 66
1
 10
0.0
 20
0.0
 30
0.0
  0
VERTEX
  8
0
 10
-136.0
 20
340.0
  0
VERTEX
  8
0
 10
-136.0
 20
340.0
  0
VERTEX
  8
0
 10
-141.0
 20
340.0
  0
VERTEX
  8
0
 10
-141.0
 20
340.0
  0
SEQEND
  8
0
  0
POLYLINE
  8
0
 62
0
 70
1
 66
1
 10
0.0
 20
0.0
 30
0.0
  0
VERTEX
  8
0
 10
-136.0
 20
354.0
  0
VERTEX
  8
0
 10
-136.0
 20
354.0
  0
VERTEX
  8
0
 10
-136.0
 20
340.0
  0
VERTEX
  8
0
 10
-136.0
 20
340.0
  0
SEQEND
  8
0
  0
POLYLINE
  8
0
 62
0
 70
1
 66
1
 10
0.0
 20
0.0
 30
0.0
  0
VERTEX
  8
0
 10
-141.0
 20
354.0
  0
VERTEX
  8
0
 10
-141.0
 20
354.0
  0
VERTEX
  8
0
 10
-136.0
 20
354.0
  0
VERTEX
  8
0
 10
-136.0
 20
354.0
  0
SEQEND
  8
0
  0
POLYLINE
  8
0
 62
0
 70
1
 66
1
 10
0.0
 20
0.0
 30
0.0
  0
VERTEX
  8
0
 10
-141.0
 20
528.0
  0
VERTEX
  8
0
 10
-141.0
 20
528.0
  0
VERTEX
  8
0
 10
-141.0
 20
542.0
  0
VERTEX
  8
0
 10
-141.0
 20
542.0
  0
SEQEND
  8
0
  0
POLYLINE
  8
0
 62
0
 70
1
 66
1
 10
0.0
 20
0.0
 30
0.0
  0
VERTEX
  8
0
 10
-136.0
 20
528.0
  0
VERTEX
  8
0
 10
-136.0
 20
528.0
  0
VERTEX
  8
0
 10
-141.0
 20
528.0
  0
VERTEX
  8
0
 10
-141.0
 20
528.0
  0
SEQEND
  8
0
  0
POLYLINE
  8
0
 62
0
 70
1
 66
1
 10
0.0
 20
0.0
 30
0.0
  0
VERTEX
  8
0
 10
-136.0
 20
542.0
  0
VERTEX
  8
0
 10
-136.0
 20
542.0
  0
VERTEX
  8
0
 10
-136.0
 20
528.0
  0
VERTEX
  8
0
 10
-136.0
 20
528.0
  0
SEQEND
  8
0
  0
POLYLINE
  8
0
 62
0
 70
1
 66
1
 10
0.0
 20
0.0
 30
0.0
  0
VERTEX
  8
0
 10
-141.0
 20
542.0
  0
VERTEX
  8
0
 10
-141.0
 20
542.0
  0
VERTEX
  8
0
 10
-136.0
 20
542.0
  0
VERTEX
  8
0
 10
-136.0
 20
542.0
  0
SEQEND
  8
0
  0
POLYLINE
  8
0
 62
0
 70
1
 66
1
 10
0.0
 20
0.0
 30
0.0
  0
VERTEX
  8
0
 10
-287.0
 20
58.0
  0
VERTEX
  8
0
 10
-287.0
 20
58.0
  0
VERTEX
  8
0
 10
-287.0
 20
72.0
  0
VERTEX
  8
0
 10
-287.0
 20
72.0
  0
SEQEND
  8
0
  0
POLYLINE
  8
0
 62
0
 70
1
 66
1
 10
0.0
 20
0.0
 30
0.0
  0
VERTEX
  8
0
 10
-282.0
 20
58.0
  0
VERTEX
  8
0
 10
-282.0
 20
58.0
  0
VERTEX
  8
0
 10
-287.0
 20
58.0
  0
VERTEX
  8
0
 10
-287.0
 20
58.0
  0
SEQEND
  8
0
  0
POLYLINE
  8
0
 62
0
 70
1
 66
1
 10
0.0
 20
0.0
 30
0.0
  0
VERTEX
  8
0
 10
-282.0
 20
72.0
  0
VERTEX
  8
0
 10
-282.0
 20
72.0
  0
VERTEX
  8
0
 10
-282.0
 20
58.0
  0
VERTEX
  8
0
 10
-282.0
 20
58.0
  0
SEQEND
  8
0
  0
POLYLINE
  8
0
 62
0
 70
1
 66
1
 10
0.0
 20
0.0
 30
0.0
  0
VERTEX
  8
0
 10
-287.0
 20
72.0
  0
VERTEX
  8
0
 10
-287.0
 20
72.0
  0
VERTEX
  8
0
 10
-282.0
 20
72.0
  0
VERTEX
  8
0
 10
-282.0
 20
72.0
  0
SEQEND
  8
0
  0
POLYLINE
  8
0
 62
0
 70
1
 66
1
 10
0.0
 20
0.0
 30
0.0
  0
VERTEX
  8
0
 10
-287.0
 20
152.0
  0
VERTEX
  8
0
 10
-287.0
 20
152.0
  0
VERTEX
  8
0
 10
-287.0
 20
166.0
  0
VERTEX
  8
0
 10
-287.0
 20
166.0
  0
SEQEND
  8
0
  0
POLYLINE
  8
0
 62
0
 70
1
 66
1
 10
0.0
 20
0.0
 30
0.0
  0
VERTEX
  8
0
 10
-282.0
 20
152.0
  0
VERTEX
  8
0
 10
-282.0
 20
152.0
  0
VERTEX
  8
0
 10
-287.0
 20
152.0
  0
VERTEX
  8
0
 10
-287.0
 20
152.0
  0
SEQEND
  8
0
  0
POLYLINE
  8
0
 62
0
 70
1
 66
1
 10
0.0
 20
0.0
 30
0.0
  0
VERTEX
  8
0
 10
-282.0
 20
166.0
  0
VERTEX
  8
0
 10
-282.0
 20
166.0
  0
VERTEX
  8
0
 10
-282.0
 20
152.0
  0
VERTEX
  8
0
 10
-282.0
 20
152.0
  0
SEQEND
  8
0
  0
POLYLINE
  8
0
 62
0
 70
1
 66
1
 10
0.0
 20
0.0
 30
0.0
  0
VERTEX
  8
0
 10
-287.0
 20
166.0
  0
VERTEX
  8
0
 10
-287.0
 20
166.0
  0
VERTEX
  8
0
 10
-282.0
 20
166.0
  0
VERTEX
  8
0
 10
-282.0
 20
166.0
  0
SEQEND
  8
0
  0
POLYLINE
  8
0
 62
0
 70
1
 66
1
 10
0.0
 20
0.0
 30
0.0
  0
VERTEX
  8
0
 10
-287.0
 20
246.0
  0
VERTEX
  8
0
 10
-287.0
 20
246.0
  0
VERTEX
  8
0
 10
-287.0
 20
260.0
  0
VERTEX
  8
0
 10
-287.0
 20
260.0
  0
SEQEND
  8
0
  0
POLYLINE
  8
0
 62
0
 70
1
 66
1
 10
0.0
 20
0.0
 30
0.0
  0
VERTEX
  8
0
 10
-282.0
 20
246.0
  0
VERTEX
  8
0
 10
-282.0
 20
246.0
  0
VERTEX
  8
0
 10
-287.0
 20
246.0
  0
VERTEX
  8
0
 10
-287.0
 20
246.0
  0
SEQEND
  8
0
  0
POLYLINE
  8
0
 62
0
 70
1
 66
1
 10
0.0
 20
0.0
 30
0.0
  0
VERTEX
  8
0
 10
-282.0
 20
260.0
  0
VERTEX
  8
0
 10
-282.0
 20
260.0
  0
VERTEX
  8
0
 10
-282.0
 20
246.0
  0
VERTEX
  8
0
 10
-282.0
 20
246.0
  0
SEQEND
  8
0
  0
POLYLINE
  8
0
 62
0
 70
1
 66
1
 10
0.0
 20
0.0
 30
0.0
  0
VERTEX
  8
0
 10
-287.0
 20
260.0
  0
VERTEX
  8
0
 10
-287.0
 20
260.0
  0
VERTEX
  8
0
 10
-282.0
 20
260.0
  0
VERTEX
  8
0
 10
-282.0
 20
260.0
  0
SEQEND
  8
0
  0
POLYLINE
  8
0
 62
0
 70
1
 66
1
 10
0.0
 20
0.0
 30
0.0
  0
VERTEX
  8
0
 10
-287.0
 20
340.0
  0
VERTEX
  8
0
 10
-287.0
 20
340.0
  0
VERTEX
  8
0
 10
-287.0
 20
354.0
  0
VERTEX
  8
0
 10
-287.0
 20
354.0
  0
SEQEND
  8
0
  0
POLYLINE
  8
0
 62
0
 70
1
 66
1
 10
0.0
 20
0.0
 30
0.0
  0
VERTEX
  8
0
 10
-282.0
 20
340.0
  0
VERTEX
  8
0
 10
-282.0
 20
340.0
  0
VERTEX
  8
0
 10
-287.0
 20
340.0
  0
VERTEX
  8
0
 10
-287.0
 20
340.0
  0
SEQEND
  8
0
  0
POLYLINE
  8
0
 62
0
 70
1
 66
1
 10
0.0
 20
0.0
 30
0.0
  0
VERTEX
  8
0
 10
-282.0
 20
354.0
  0
VERTEX
  8
0
 10
-282.0
 20
354.0
  0
VERTEX
  8
0
 10
-282.0
 20
340.0
  0
VERTEX
  8
0
 10
-282.0
 20
340.0
  0
SEQEND
  8
0
  0
POLYLINE
  8
0
 62
0
 70
1
 66
1
 10
0.0
 20
0.0
 30
0.0
  0
VERTEX
  8
0
 10
-287.0
 20
354.0
  0
VERTEX
  8
0
 10
-287.0
 20
354.0
  0
VERTEX
  8
0
 10
-282.0
 20
354.0
  0
VERTEX
  8
0
 10
-282.0
 20
354.0
  0
SEQEND
  8
0
  0
POLYLINE
  8
0
 62
0
 70
1
 66
1
 10
0.0
 20
0.0
 30
0.0
  0
VERTEX
  8
0
 10
-287.0
 20
434.0
  0
VERTEX
  8
0
 10
-287.0
 20
434.0
  0
VERTEX
  8
0
 10
-287.0
 20
448.0
  0
VERTEX
  8
0
 10
-287.0
 20
448.0
  0
SEQEND
  8
0
  0
POLYLINE
  8
0
 62
0
 70
1
 66
1
 10
0.0
 20
0.0
 30
0.0
  0
VERTEX
  8
0
 10
-282.0
 20
434.0
  0
VERTEX
  8
0
 10
-282.0
 20
434.0
  0
VERTEX
  8
0
 10
-287.0
 20
434.0
  0
VERTEX
  8
0
 10
-287.0
 20
434.0
  0
SEQEND
  8
0
  0
POLYLINE
  8
0
 62
0
 70
1
 66
1
 10
0.0
 20
0.0
 30
0.0
  0
VERTEX
  8
0
 10
-282.0
 20
448.0
  0
VERTEX
  8
0
 10
-282.0
 20
448.0
  0
VERTEX
  8
0
 10
-282.0
 20
434.0
  0
VERTEX
  8
0
 10
-282.0
 20
434.0
  0
SEQEND
  8
0
  0
POLYLINE
  8
0
 62
0
 70
1
 66
1
 10
0.0
 20
0.0
 30
0.0
  0
VERTEX
  8
0
 10
-287.0
 20
448.0
  0
VERTEX
  8
0
 10
-287.0
 20
448.0
  0
VERTEX
  8
0
 10
-282.0
 20
448.0
  0
VERTEX
  8
0
 10
-282.0
 20
448.0
  0
SEQEND
  8
0
  0
POLYLINE
  8
0
 62
0
 70
1
 66
1
 10
0.0
 20
0.0
 30
0.0
  0
VERTEX
  8
0
 10
-287.0
 20
528.0
  0
VERTEX
  8
0
 10
-287.0
 20
528.0
  0
VERTEX
  8
0
 10
-287.0
 20
542.0
  0
VERTEX
  8
0
 10
-287.0
 20
542.0
  0
SEQEND
  8
0
  0
POLYLINE
  8
0
 62
0
 70
1
 66
1
 10
0.0
 20
0.0
 30
0.0
  0
VERTEX
  8
0
 10
-282.0
 20
528.0
  0
VERTEX
  8
0
 10
-282.0
 20
528.0
  0
VERTEX
  8
0
 10
-287.0
 20
528.0
  0
VERTEX
  8
0
 10
-287.0
 20
528.0
  0
SEQEND
  8
0
  0
POLYLINE
  8
0
 62
0
 70
1
 66
1
 10
0.0
 20
0.0
 30
0.0
  0
VERTEX
  8
0
 10
-282.0
 20
542.0
  0
VERTEX
  8
0
 10
-282.0
 20
542.0
  0
VERTEX
  8
0
 10
-282.0
 20
528.0
  0
VERTEX
  8
0
 10
-282.0
 20
528.0
  0
SEQEND
  8
0
  0
POLYLINE
  8
0
 62
0
 70
1
 66
1
 10
0.0
 20
0.0
 30
0.0
  0
VERTEX
  8
0
 10
-287.0
 20
542.0
  0
VERTEX
  8
0
 10
-287.0
 20
542.0
  0
VERTEX
  8
0
 10
-282.0
 20
542.0
  0
VERTEX
  8
0
 10
-282.0
 20
542.0
  0
SEQEND
  8
0
  0
POLYLINE
  8
0
 62
0
 70
1
 66
1
 10
0.0
 20
0.0
 30
0.0
  0
VERTEX
  8
0
 10
-12.5
 20
81.5
  0
VERTEX
  8
0
 10
-12.5
 20
83.0
  0
VERTEX
  8
0
 10
-12.5
 20
83.0
  0
VERTEX
  8
0
 10
-12.5
 20
81.5
  0
SEQEND
  8
0
  0
POLYLINE
  8
0
 62
0
 70
1
 66
1
 10
0.0
 20
0.0
 30
0.0
  0
VERTEX
  8
0
 10
-12.5
 20
81.5
  0
VERTEX
  8
0
 10
-12.5
 20
81.5
  0
VERTEX
  8
0
 10
-14.0
 20
81.5
  0
VERTEX
  8
0
 10
-14.0
 20
81.5
  0
SEQEND
  8
0
  0
POLYLINE
  8
0
 62
0
 70
1
 66
1
 10
0.0
 20
0.0
 30
0.0
  0
VERTEX
  8
0
 10
-12.5
 20
83.0
  0
VERTEX
  8
0
 10
-12.5
 20
83.0
  0
VERTEX
  8
0
 10
-8.5
 20
83.0
  0
VERTEX
  8
0
 10
-8.5
 20
83.0
  0
SEQEND
  8
0
  0
POLYLINE
  8
0
 62
0
 70
1
 66
1
 10
0.0
 20
0.0
 30
0.0
  0
VERTEX
  8
0
 10
-14.0
 20
76.5
  0
VERTEX
  8
0
 10
-14.0
 20
76.5
  0
VERTEX
  8
0
 10
-14.0
 20
81.5
  0
VERTEX
  8
0
 10
-14.0
 20
81.5
  0
SEQEND
  8
0
  0
POLYLINE
  8
0
 62
0
 70
1
 66
1
 10
0.0
 20
0.0
 30
0.0
  0
VERTEX
  8
0
 10
-8.5
 20
83.0
  0
VERTEX
  8
0
 10
-8.5
 20
83.0
  0
VERTEX
  8
0
 10
-8.5
 20
81.5
  0
VERTEX
  8
0
 10
-8.5
 20
81.5
  0
SEQEND
  8
0
  0
POLYLINE
  8
0
 62
0
 70
1
 66
1
 10
0.0
 20
0.0
 30
0.0
  0
VERTEX
  8
0
 10
-12.5
 20
76.5
  0
VERTEX
  8
0
 10
-12.5
 20
76.5
  0
VERTEX
  8
0
 10
-14.0
 20
76.5
  0
VERTEX
  8
0
 10
-14.0
 20
76.5
  0
SEQEND
  8
0
  0
POLYLINE
  8
0
 62
0
 70
1
 66
1
 10
0.0
 20
0.0
 30
0.0
  0
VERTEX
  8
0
 10
-8.5
 20
81.5
  0
VERTEX
  8
0
 10
0.0
 20
81.5
  0
VERTEX
  8
0
 10
0.0
 20
81.5
  0
VERTEX
  8
0
 10
-8.5
 20
81.5
  0
SEQEND
  8
0
  0
POLYLINE
  8
0
 62
0
 70
1
 66
1
 10
0.0
 20
0.0
 30
0.0
  0
VERTEX
  8
0
 10
-12.5
 20
75.0
  0
VERTEX
  8
0
 10
-12.5
 20
75.0
  0
VERTEX
  8
0
 10
-12.5
 20
76.5
  0
VERTEX
  8
0
 10
-12.5
 20
76.5
  0
SEQEND
  8
0
  0
POLYLINE
  8
0
 62
0
 70
1
 66
1
 10
0.0
 20
0.0
 30
0.0
  0
VERTEX
  8
0
 10
0.0
 20
86.0
  0
VERTEX
  8
0
 10
0.0
 20
81.5
  0
VERTEX
  8
0
 10
0.0
 20
81.5
  0
VERTEX
  8
0
 10
0.0
 20
86.0
  0
SEQEND
  8
0
  0
POLYLINE
  8
0
 62
0
 70
1
 66
1
 10
0.0
 20
0.0
 30
0.0
  0
VERTEX
  8
0
 10
-8.5
 20
75.0
  0
VERTEX
  8
0
 10
-8.5
 20
75.0
  0
VERTEX
  8
0
 10
-12.5
 20
75.0
  0
VERTEX
  8
0
 10
-12.5
 20
75.0
  0
SEQEND
  8
0
  0
POLYLINE
  8
0
 62
0
 70
1
 66
1
 10
0.0
 20
0.0
 30
0.0
  0
VERTEX
  8
0
 10
0.0
 20
86.0
  0
VERTEX
  8
0
 10
0.0
 20
86.0
  0
VERTEX
  8
0
 10
-5.0
 20
86.0
  0
VERTEX
  8
0
 10
-5.0
 20
86.0
  0
SEQEND
  8
0
  0
POLYLINE
  8
0
 62
0
 70
1
 66
1
 10
0.0
 20
0.0
 30
0.0
  0
VERTEX
  8
0
 10
-8.5
 20
76.5
  0
VERTEX
  8
0
 10
-8.5
 20
75.0
  0
VERTEX
  8
0
 10
-8.5
 20
75.0
  0
VERTEX
  8
0
 10
-8.5
 20
76.5
  0
SEQEND
  8
0
  0
POLYLINE
  8
0
 62
0
 70
1
 66
1
 10
0.0
 20
0.0
 30
0.0
  0
VERTEX
  8
0
 10
-5.0
 20
86.0
  0
VERTEX
  8
0
 10
-5.0
 20
86.0
  0
VERTEX
  8
0
 10
-5.0
 20
160.0
  0
VERTEX
  8
0
 10
-5.0
 20
160.0
  0
SEQEND
  8
0
  0
POLYLINE
  8
0
 62
0
 70
1
 66
1
 10
0.0
 20
0.0
 30
0.0
  0
VERTEX
  8
0
 10
0.0
 20
76.5
  0
VERTEX
  8
0
 10
-8.5
 20
76.5
  0
VERTEX
  8
0
 10
-8.5
 20
76.5
  0
VERTEX
  8
0
 10
0.0
 20
76.5
  0
SEQEND
  8
0
  0
POLYLINE
  8
0
 62
0
 70
1
 66
1
 10
0.0
 20
0.0
 30
0.0
  0
VERTEX
  8
0
 10
-5.0
 20
160.0
  0
VERTEX
  8
0
 10
-5.0
 20
160.0
  0
VERTEX
  8
0
 10
0.0
 20
160.0
  0
VERTEX
  8
0
 10
0.0
 20
160.0
  0
SEQEND
  8
0
  0
POLYLINE
  8
0
 62
0
 70
1
 66
1
 10
0.0
 20
0.0
 30
0.0
  0
VERTEX
  8
0
 10
0.0
 20
76.5
  0
VERTEX
  8
0
 10
0.0
 20
72.0
  0
VERTEX
  8
0
 10
0.0
 20
72.0
  0
VERTEX
  8
0
 10
0.0
 20
76.5
  0
SEQEND
  8
0
  0
POLYLINE
  8
0
 62
0
 70
1
 66
1
 10
0.0
 20
0.0
 30
0.0
  0
VERTEX
  8
0
 10
0.0
 20
164.5
  0
VERTEX
  8
0
 10
0.0
 20
160.0
  0
VERTEX
  8
0
 10
0.0
 20
160.0
  0
VERTEX
  8
0
 10
0.0
 20
164.5
  0
SEQEND
  8
0
  0
POLYLINE
  8
0
 62
0
 70
1
 66
1
 10
0.0
 20
0.0
 30
0.0
  0
VERTEX
  8
0
 10
-5.0
 20
72.0
  0
VERTEX
  8
0
 10
-5.0
 20
72.0
  0
VERTEX
  8
0
 10
0.0
 20
72.0
  0
VERTEX
  8
0
 10
0.0
 20
72.0
  0
SEQEND
  8
0
  0
POLYLINE
  8
0
 62
0
 70
1
 66
1
 10
0.0
 20
0.0
 30
0.0
  0
VERTEX
  8
0
 10
0.0
 20
164.5
  0
VERTEX
  8
0
 10
-8.5
 20
164.5
  0
VERTEX
  8
0
 10
-8.5
 20
164.5
  0
VERTEX
  8
0
 10
0.0
 20
164.5
  0
SEQEND
  8
0
  0
POLYLINE
  8
0
 62
0
 70
1
 66
1
 10
0.0
 20
0.0
 30
0.0
  0
VERTEX
  8
0
 10
-5.0
 20
0.0
  0
VERTEX
  8
0
 10
-5.0
 20
0.0
  0
VERTEX
  8
0
 10
-5.0
 20
72.0
  0
VERTEX
  8
0
 10
-5.0
 20
72.0
  0
SEQEND
  8
0
  0
POLYLINE
  8
0
 62
0
 70
1
 66
1
 10
0.0
 20
0.0
 30
0.0
  0
VERTEX
  8
0
 10
-8.5
 20
164.5
  0
VERTEX
  8
0
 10
-8.5
 20
163.0
  0
VERTEX
  8
0
 10
-8.5
 20
163.0
  0
VERTEX
  8
0
 10
-8.5
 20
164.5
  0
SEQEND
  8
0
  0
POLYLINE
  8
0
 62
0
 70
1
 66
1
 10
0.0
 20
0.0
 30
0.0
  0
VERTEX
  8
0
 10
-5.0
 20
0.0
  0
VERTEX
  8
0
 10
-418.0
 20
0.0
  0
VERTEX
  8
0
 10
-418.0
 20
0.0
  0
VERTEX
  8
0
 10
-5.0
 20
0.0
  0
SEQEND
  8
0
  0
POLYLINE
  8
0
 62
0
 70
1
 66
1
 10
0.0
 20
0.0
 30
0.0
  0
VERTEX
  8
0
 10
-8.5
 20
163.0
  0
VERTEX
  8
0
 10
-8.5
 20
163.0
  0
VERTEX
  8
0
 10
-12.5
 20
163.0
  0
VERTEX
  8
0
 10
-12.5
 20
163.0
  0
SEQEND
  8
0
  0
POLYLINE
  8
0
 62
0
 70
1
 66
1
 10
0.0
 20
0.0
 30
0.0
  0
VERTEX
  8
0
 10
-418.0
 20
72.0
  0
VERTEX
  8
0
 10
-418.0
 20
72.0
  0
VERTEX
  8
0
 10
-418.0
 20
0.0
  0
VERTEX
  8
0
 10
-418.0
 20
0.0
  0
SEQEND
  8
0
  0
POLYLINE
  8
0
 62
0
 70
1
 66
1
 10
0.0
 20
0.0
 30
0.0
  0
VERTEX
  8
0
 10
-12.5
 20
163.0
  0
VERTEX
  8
0
 10
-12.5
 20
163.0
  0
VERTEX
  8
0
 10
-12.5
 20
164.5
  0
VERTEX
  8
0
 10
-12.5
 20
164.5
  0
SEQEND
  8
0
  0
POLYLINE
  8
0
 62
0
 70
1
 66
1
 10
0.0
 20
0.0
 30
0.0
  0
VERTEX
  8
0
 10
-423.0
 20
72.0
  0
VERTEX
  8
0
 10
-423.0
 20
72.0
  0
VERTEX
  8
0
 10
-418.0
 20
72.0
  0
VERTEX
  8
0
 10
-418.0
 20
72.0
  0
SEQEND
  8
0
  0
POLYLINE
  8
0
 62
0
 70
1
 66
1
 10
0.0
 20
0.0
 30
0.0
  0
VERTEX
  8
0
 10
-12.5
 20
164.5
  0
VERTEX
  8
0
 10
-12.5
 20
164.5
  0
VERTEX
  8
0
 10
-14.0
 20
164.5
  0
VERTEX
  8
0
 10
-14.0
 20
164.5
  0
SEQEND
  8
0
  0
POLYLINE
  8
0
 62
0
 70
1
 66
1
 10
0.0
 20
0.0
 30
0.0
  0
VERTEX
  8
0
 10
-423.0
 20
72.0
  0
VERTEX
  8
0
 10
-423.0
 20
76.5
  0
VERTEX
  8
0
 10
-423.0
 20
76.5
  0
VERTEX
  8
0
 10
-423.0
 20
72.0
  0
SEQEND
  8
0
  0
POLYLINE
  8
0
 62
0
 70
1
 66
1
 10
0.0
 20
0.0
 30
0.0
  0
VERTEX
  8
0
 10
-14.0
 20
164.5
  0
VERTEX
  8
0
 10
-14.0
 20
164.5
  0
VERTEX
  8
0
 10
-14.0
 20
169.5
  0
VERTEX
  8
0
 10
-14.0
 20
169.5
  0
SEQEND
  8
0
  0
POLYLINE
  8
0
 62
0
 70
1
 66
1
 10
0.0
 20
0.0
 30
0.0
  0
VERTEX
  8
0
 10
-414.5
 20
76.5
  0
VERTEX
  8
0
 10
-414.5
 20
76.5
  0
VERTEX
  8
0
 10
-423.0
 20
76.5
  0
VERTEX
  8
0
 10
-423.0
 20
76.5
  0
SEQEND
  8
0
  0
POLYLINE
  8
0
 62
0
 70
1
 66
1
 10
0.0
 20
0.0
 30
0.0
  0
VERTEX
  8
0
 10
-12.5
 20
169.5
  0
VERTEX
  8
0
 10
-12.5
 20
169.5
  0
VERTEX
  8
0
 10
-14.0
 20
169.5
  0
VERTEX
  8
0
 10
-14.0
 20
169.5
  0
SEQEND
  8
0
  0
POLYLINE
  8
0
 62
0
 70
1
 66
1
 10
0.0
 20
0.0
 30
0.0
  0
VERTEX
  8
0
 10
-414.5
 20
75.0
  0
VERTEX
  8
0
 10
-414.5
 20
75.0
  0
VERTEX
  8
0
 10
-414.5
 20
76.5
  0
VERTEX
  8
0
 10
-414.5
 20
76.5
  0
SEQEND
  8
0
  0
POLYLINE
  8
0
 62
0
 70
1
 66
1
 10
0.0
 20
0.0
 30
0.0
  0
VERTEX
  8
0
 10
-12.5
 20
169.5
  0
VERTEX
  8
0
 10
-12.5
 20
171.0
  0
VERTEX
  8
0
 10
-12.5
 20
171.0
  0
VERTEX
  8
0
 10
-12.5
 20
169.5
  0
SEQEND
  8
0
  0
POLYLINE
  8
0
 62
0
 70
1
 66
1
 10
0.0
 20
0.0
 30
0.0
  0
VERTEX
  8
0
 10
-410.5
 20
75.0
  0
VERTEX
  8
0
 10
-410.5
 20
75.0
  0
VERTEX
  8
0
 10
-414.5
 20
75.0
  0
VERTEX
  8
0
 10
-414.5
 20
75.0
  0
SEQEND
  8
0
  0
POLYLINE
  8
0
 62
0
 70
1
 66
1
 10
0.0
 20
0.0
 30
0.0
  0
VERTEX
  8
0
 10
-12.5
 20
171.0
  0
VERTEX
  8
0
 10
-12.5
 20
171.0
  0
VERTEX
  8
0
 10
-8.5
 20
171.0
  0
VERTEX
  8
0
 10
-8.5
 20
171.0
  0
SEQEND
  8
0
  0
POLYLINE
  8
0
 62
0
 70
1
 66
1
 10
0.0
 20
0.0
 30
0.0
  0
VERTEX
  8
0
 10
-410.5
 20
76.5
  0
VERTEX
  8
0
 10
-410.5
 20
75.0
  0
VERTEX
  8
0
 10
-410.5
 20
75.0
  0
VERTEX
  8
0
 10
-410.5
 20
76.5
  0
SEQEND
  8
0
  0
POLYLINE
  8
0
 62
0
 70
1
 66
1
 10
0.0
 20
0.0
 30
0.0
  0
VERTEX
  8
0
 10
-8.5
 20
171.0
  0
VERTEX
  8
0
 10
-8.5
 20
171.0
  0
VERTEX
  8
0
 10
-8.5
 20
169.5
  0
VERTEX
  8
0
 10
-8.5
 20
169.5
  0
SEQEND
  8
0
  0
POLYLINE
  8
0
 62
0
 70
1
 66
1
 10
0.0
 20
0.0
 30
0.0
  0
VERTEX
  8
0
 10
-409.0
 20
76.5
  0
VERTEX
  8
0
 10
-410.5
 20
76.5
  0
VERTEX
  8
0
 10
-410.5
 20
76.5
  0
VERTEX
  8
0
 10
-409.0
 20
76.5
  0
SEQEND
  8
0
  0
POLYLINE
  8
0
 62
0
 70
1
 66
1
 10
0.0
 20
0.0
 30
0.0
  0
VERTEX
  8
0
 10
-8.5
 20
169.5
  0
VERTEX
  8
0
 10
0.0
 20
169.5
  0
VERTEX
  8
0
 10
0.0
 20
169.5
  0
VERTEX
  8
0
 10
-8.5
 20
169.5
  0
SEQEND
  8
0
  0
POLYLINE
  8
0
 62
0
 70
1
 66
1
 10
0.0
 20
0.0
 30
0.0
  0
VERTEX
  8
0
 10
-409.0
 20
81.5
  0
VERTEX
  8
0
 10
-409.0
 20
81.5
  0
VERTEX
  8
0
 10
-409.0
 20
76.5
  0
VERTEX
  8
0
 10
-409.0
 20
76.5
  0
SEQEND
  8
0
  0
POLYLINE
  8
0
 62
0
 70
1
 66
1
 10
0.0
 20
0.0
 30
0.0
  0
VERTEX
  8
0
 10
0.0
 20
174.0
  0
VERTEX
  8
0
 10
0.0
 20
169.5
  0
VERTEX
  8
0
 10
0.0
 20
169.5
  0
VERTEX
  8
0
 10
0.0
 20
174.0
  0
SEQEND
  8
0
  0
POLYLINE
  8
0
 62
0
 70
1
 66
1
 10
0.0
 20
0.0
 30
0.0
  0
VERTEX
  8
0
 10
-410.5
 20
81.5
  0
VERTEX
  8
0
 10
-409.0
 20
81.5
  0
VERTEX
  8
0
 10
-409.0
 20
81.5
  0
VERTEX
  8
0
 10
-410.5
 20
81.5
  0
SEQEND
  8
0
  0
POLYLINE
  8
0
 62
0
 70
1
 66
1
 10
0.0
 20
0.0
 30
0.0
  0
VERTEX
  8
0
 10
0.0
 20
174.0
  0
VERTEX
  8
0
 10
0.0
 20
174.0
  0
VERTEX
  8
0
 10
-5.0
 20
174.0
  0
VERTEX
  8
0
 10
-5.0
 20
174.0
  0
SEQEND
  8
0
  0
POLYLINE
  8
0
 62
0
 70
1
 66
1
 10
0.0
 20
0.0
 30
0.0
  0
VERTEX
  8
0
 10
-410.5
 20
83.0
  0
VERTEX
  8
0
 10
-410.5
 20
83.0
  0
VERTEX
  8
0
 10
-410.5
 20
81.5
  0
VERTEX
  8
0
 10
-410.5
 20
81.5
  0
SEQEND
  8
0
  0
POLYLINE
  8
0
 62
0
 70
1
 66
1
 10
0.0
 20
0.0
 30
0.0
  0
VERTEX
  8
0
 10
-5.0
 20
174.0
  0
VERTEX
  8
0
 10
-5.0
 20
174.0
  0
VERTEX
  8
0
 10
-5.0
 20
248.0
  0
VERTEX
  8
0
 10
-5.0
 20
248.0
  0
SEQEND
  8
0
  0
POLYLINE
  8
0
 62
0
 70
1
 66
1
 10
0.0
 20
0.0
 30
0.0
  0
VERTEX
  8
0
 10
-414.5
 20
83.0
  0
VERTEX
  8
0
 10
-414.5
 20
83.0
  0
VERTEX
  8
0
 10
-410.5
 20
83.0
  0
VERTEX
  8
0
 10
-410.5
 20
83.0
  0
SEQEND
  8
0
  0
POLYLINE
  8
0
 62
0
 70
1
 66
1
 10
0.0
 20
0.0
 30
0.0
  0
VERTEX
  8
0
 10
-5.0
 20
248.0
  0
VERTEX
  8
0
 10
-5.0
 20
248.0
  0
VERTEX
  8
0
 10
0.0
 20
248.0
  0
VERTEX
  8
0
 10
0.0
 20
248.0
  0
SEQEND
  8
0
  0
POLYLINE
  8
0
 62
0
 70
1
 66
1
 10
0.0
 20
0.0
 30
0.0
  0
VERTEX
  8
0
 10
-414.5
 20
81.5
  0
VERTEX
  8
0
 10
-414.5
 20
83.0
  0
VERTEX
  8
0
 10
-414.5
 20
83.0
  0
VERTEX
  8
0
 10
-414.5
 20
81.5
  0
SEQEND
  8
0
  0
POLYLINE
  8
0
 62
0
 70
1
 66
1
 10
0.0
 20
0.0
 30
0.0
  0
VERTEX
  8
0
 10
0.0
 20
252.5
  0
VERTEX
  8
0
 10
0.0
 20
248.0
  0
VERTEX
  8
0
 10
0.0
 20
248.0
  0
VERTEX
  8
0
 10
0.0
 20
252.5
  0
SEQEND
  8
0
  0
POLYLINE
  8
0
 62
0
 70
1
 66
1
 10
0.0
 20
0.0
 30
0.0
  0
VERTEX
  8
0
 10
-414.5
 20
81.5
  0
VERTEX
  8
0
 10
-414.5
 20
81.5
  0
VERTEX
  8
0
 10
-423.0
 20
81.5
  0
VERTEX
  8
0
 10
-423.0
 20
81.5
  0
SEQEND
  8
0
  0
POLYLINE
  8
0
 62
0
 70
1
 66
1
 10
0.0
 20
0.0
 30
0.0
  0
VERTEX
  8
0
 10
0.0
 20
252.5
  0
VERTEX
  8
0
 10
-8.5
 20
252.5
  0
VERTEX
  8
0
 10
-8.5
 20
252.5
  0
VERTEX
  8
0
 10
0.0
 20
252.5
  0
SEQEND
  8
0
  0
POLYLINE
  8
0
 62
0
 70
1
 66
1
 10
0.0
 20
0.0
 30
0.0
  0
VERTEX
  8
0
 10
-423.0
 20
81.5
  0
VERTEX
  8
0
 10
-423.0
 20
86.0
  0
VERTEX
  8
0
 10
-423.0
 20
86.0
  0
VERTEX
  8
0
 10
-423.0
 20
81.5
  0
SEQEND
  8
0
  0
POLYLINE
  8
0
 62
0
 70
1
 66
1
 10
0.0
 20
0.0
 30
0.0
  0
VERTEX
  8
0
 10
-8.5
 20
252.5
  0
VERTEX
  8
0
 10
-8.5
 20
251.0
  0
VERTEX
  8
0
 10
-8.5
 20
251.0
  0
VERTEX
  8
0
 10
-8.5
 20
252.5
  0
SEQEND
  8
0
  0
POLYLINE
  8
0
 62
0
 70
1
 66
1
 10
0.0
 20
0.0
 30
0.0
  0
VERTEX
  8
0
 10
-418.0
 20
86.0
  0
VERTEX
  8
0
 10
-418.0
 20
86.0
  0
VERTEX
  8
0
 10
-423.0
 20
86.0
  0
VERTEX
  8
0
 10
-423.0
 20
86.0
  0
SEQEND
  8
0
  0
POLYLINE
  8
0
 62
0
 70
1
 66
1
 10
0.0
 20
0.0
 30
0.0
  0
VERTEX
  8
0
 10
-8.5
 20
251.0
  0
VERTEX
  8
0
 10
-8.5
 20
251.0
  0
VERTEX
  8
0
 10
-12.5
 20
251.0
  0
VERTEX
  8
0
 10
-12.5
 20
251.0
  0
SEQEND
  8
0
  0
POLYLINE
  8
0
 62
0
 70
1
 66
1
 10
0.0
 20
0.0
 30
0.0
  0
VERTEX
  8
0
 10
-418.0
 20
160.0
  0
VERTEX
  8
0
 10
-418.0
 20
160.0
  0
VERTEX
  8
0
 10
-418.0
 20
86.0
  0
VERTEX
  8
0
 10
-418.0
 20
86.0
  0
SEQEND
  8
0
  0
POLYLINE
  8
0
 62
0
 70
1
 66
1
 10
0.0
 20
0.0
 30
0.0
  0
VERTEX
  8
0
 10
-12.5
 20
251.0
  0
VERTEX
  8
0
 10
-12.5
 20
251.0
  0
VERTEX
  8
0
 10
-12.5
 20
252.5
  0
VERTEX
  8
0
 10
-12.5
 20
252.5
  0
SEQEND
  8
0
  0
POLYLINE
  8
0
 62
0
 70
1
 66
1
 10
0.0
 20
0.0
 30
0.0
  0
VERTEX
  8
0
 10
-423.0
 20
160.0
  0
VERTEX
  8
0
 10
-423.0
 20
160.0
  0
VERTEX
  8
0
 10
-418.0
 20
160.0
  0
VERTEX
  8
0
 10
-418.0
 20
160.0
  0
SEQEND
  8
0
  0
POLYLINE
  8
0
 62
0
 70
1
 66
1
 10
0.0
 20
0.0
 30
0.0
  0
VERTEX
  8
0
 10
-12.5
 20
252.5
  0
VERTEX
  8
0
 10
-12.5
 20
252.5
  0
VERTEX
  8
0
 10
-14.0
 20
252.5
  0
VERTEX
  8
0
 10
-14.0
 20
252.5
  0
SEQEND
  8
0
  0
POLYLINE
  8
0
 62
0
 70
1
 66
1
 10
0.0
 20
0.0
 30
0.0
  0
VERTEX
  8
0
 10
-423.0
 20
160.0
  0
VERTEX
  8
0
 10
-423.0
 20
164.5
  0
VERTEX
  8
0
 10
-423.0
 20
164.5
  0
VERTEX
  8
0
 10
-423.0
 20
160.0
  0
SEQEND
  8
0
  0
POLYLINE
  8
0
 62
0
 70
1
 66
1
 10
0.0
 20
0.0
 30
0.0
  0
VERTEX
  8
0
 10
-14.0
 20
252.5
  0
VERTEX
  8
0
 10
-14.0
 20
252.5
  0
VERTEX
  8
0
 10
-14.0
 20
257.5
  0
VERTEX
  8
0
 10
-14.0
 20
257.5
  0
SEQEND
  8
0
  0
POLYLINE
  8
0
 62
0
 70
1
 66
1
 10
0.0
 20
0.0
 30
0.0
  0
VERTEX
  8
0
 10
-414.5
 20
164.5
  0
VERTEX
  8
0
 10
-414.5
 20
164.5
  0
VERTEX
  8
0
 10
-423.0
 20
164.5
  0
VERTEX
  8
0
 10
-423.0
 20
164.5
  0
SEQEND
  8
0
  0
POLYLINE
  8
0
 62
0
 70
1
 66
1
 10
0.0
 20
0.0
 30
0.0
  0
VERTEX
  8
0
 10
-12.5
 20
257.5
  0
VERTEX
  8
0
 10
-12.5
 20
257.5
  0
VERTEX
  8
0
 10
-14.0
 20
257.5
  0
VERTEX
  8
0
 10
-14.0
 20
257.5
  0
SEQEND
  8
0
  0
POLYLINE
  8
0
 62
0
 70
1
 66
1
 10
0.0
 20
0.0
 30
0.0
  0
VERTEX
  8
0
 10
-414.5
 20
163.0
  0
VERTEX
  8
0
 10
-414.5
 20
163.0
  0
VERTEX
  8
0
 10
-414.5
 20
164.5
  0
VERTEX
  8
0
 10
-414.5
 20
164.5
  0
SEQEND
  8
0
  0
POLYLINE
  8
0
 62
0
 70
1
 66
1
 10
0.0
 20
0.0
 30
0.0
  0
VERTEX
  8
0
 10
-12.5
 20
257.5
  0
VERTEX
  8
0
 10
-12.5
 20
259.0
  0
VERTEX
  8
0
 10
-12.5
 20
259.0
  0
VERTEX
  8
0
 10
-12.5
 20
257.5
  0
SEQEND
  8
0
  0
POLYLINE
  8
0
 62
0
 70
1
 66
1
 10
0.0
 20
0.0
 30
0.0
  0
VERTEX
  8
0
 10
-410.5
 20
163.0
  0
VERTEX
  8
0
 10
-410.5
 20
163.0
  0
VERTEX
  8
0
 10
-414.5
 20
163.0
  0
VERTEX
  8
0
 10
-414.5
 20
163.0
  0
SEQEND
  8
0
  0
POLYLINE
  8
0
 62
0
 70
1
 66
1
 10
0.0
 20
0.0
 30
0.0
  0
VERTEX
  8
0
 10
-12.5
 20
259.0
  0
VERTEX
  8
0
 10
-12.5
 20
259.0
  0
VERTEX
  8
0
 10
-8.5
 20
259.0
  0
VERTEX
  8
0
 10
-8.5
 20
259.0
  0
SEQEND
  8
0
  0
POLYLINE
  8
0
 62
0
 70
1
 66
1
 10
0.0
 20
0.0
 30
0.0
  0
VERTEX
  8
0
 10
-410.5
 20
164.5
  0
VERTEX
  8
0
 10
-410.5
 20
163.0
  0
VERTEX
  8
0
 10
-410.5
 20
163.0
  0
VERTEX
  8
0
 10
-410.5
 20
164.5
  0
SEQEND
  8
0
  0
POLYLINE
  8
0
 62
0
 70
1
 66
1
 10
0.0
 20
0.0
 30
0.0
  0
VERTEX
  8
0
 10
-8.5
 20
259.0
  0
VERTEX
  8
0
 10
-8.5
 20
259.0
  0
VERTEX
  8
0
 10
-8.5
 20
257.5
  0
VERTEX
  8
0
 10
-8.5
 20
257.5
  0
SEQEND
  8
0
  0
POLYLINE
  8
0
 62
0
 70
1
 66
1
 10
0.0
 20
0.0
 30
0.0
  0
VERTEX
  8
0
 10
-409.0
 20
164.5
  0
VERTEX
  8
0
 10
-410.5
 20
164.5
  0
VERTEX
  8
0
 10
-410.5
 20
164.5
  0
VERTEX
  8
0
 10
-409.0
 20
164.5
  0
SEQEND
  8
0
  0
POLYLINE
  8
0
 62
0
 70
1
 66
1
 10
0.0
 20
0.0
 30
0.0
  0
VERTEX
  8
0
 10
-8.5
 20
257.5
  0
VERTEX
  8
0
 10
0.0
 20
257.5
  0
VERTEX
  8
0
 10
0.0
 20
257.5
  0
VERTEX
  8
0
 10
-8.5
 20
257.5
  0
SEQEND
  8
0
  0
POLYLINE
  8
0
 62
0
 70
1
 66
1
 10
0.0
 20
0.0
 30
0.0
  0
VERTEX
  8
0
 10
-409.0
 20
169.5
  0
VERTEX
  8
0
 10
-409.0
 20
169.5
  0
VERTEX
  8
0
 10
-409.0
 20
164.5
  0
VERTEX
  8
0
 10
-409.0
 20
164.5
  0
SEQEND
  8
0
  0
POLYLINE
  8
0
 62
0
 70
1
 66
1
 10
0.0
 20
0.0
 30
0.0
  0
VERTEX
  8
0
 10
0.0
 20
262.0
  0
VERTEX
  8
0
 10
0.0
 20
257.5
  0
VERTEX
  8
0
 10
0.0
 20
257.5
  0
VERTEX
  8
0
 10
0.0
 20
262.0
  0
SEQEND
  8
0
  0
POLYLINE
  8
0
 62
0
 70
1
 66
1
 10
0.0
 20
0.0
 30
0.0
  0
VERTEX
  8
0
 10
-410.5
 20
169.5
  0
VERTEX
  8
0
 10
-409.0
 20
169.5
  0
VERTEX
  8
0
 10
-409.0
 20
169.5
  0
VERTEX
  8
0
 10
-410.5
 20
169.5
  0
SEQEND
  8
0
  0
POLYLINE
  8
0
 62
0
 70
1
 66
1
 10
0.0
 20
0.0
 30
0.0
  0
VERTEX
  8
0
 10
0.0
 20
262.0
  0
VERTEX
  8
0
 10
0.0
 20
262.0
  0
VERTEX
  8
0
 10
-5.0
 20
262.0
  0
VERTEX
  8
0
 10
-5.0
 20
262.0
  0
SEQEND
  8
0
  0
POLYLINE
  8
0
 62
0
 70
1
 66
1
 10
0.0
 20
0.0
 30
0.0
  0
VERTEX
  8
0
 10
-410.5
 20
171.0
  0
VERTEX
  8
0
 10
-410.5
 20
171.0
  0
VERTEX
  8
0
 10
-410.5
 20
169.5
  0
VERTEX
  8
0
 10
-410.5
 20
169.5
  0
SEQEND
  8
0
  0
POLYLINE
  8
0
 62
0
 70
1
 66
1
 10
0.0
 20
0.0
 30
0.0
  0
VERTEX
  8
0
 10
-5.0
 20
262.0
  0
VERTEX
  8
0
 10
-5.0
 20
262.0
  0
VERTEX
  8
0
 10
-5.0
 20
336.0
  0
VERTEX
  8
0
 10
-5.0
 20
336.0
  0
SEQEND
  8
0
  0
POLYLINE
  8
0
 62
0
 70
1
 66
1
 10
0.0
 20
0.0
 30
0.0
  0
VERTEX
  8
0
 10
-414.5
 20
171.0
  0
VERTEX
  8
0
 10
-414.5
 20
171.0
  0
VERTEX
  8
0
 10
-410.5
 20
171.0
  0
VERTEX
  8
0
 10
-410.5
 20
171.0
  0
SEQEND
  8
0
  0
POLYLINE
  8
0
 62
0
 70
1
 66
1
 10
0.0
 20
0.0
 30
0.0
  0
VERTEX
  8
0
 10
-5.0
 20
336.0
  0
VERTEX
  8
0
 10
-5.0
 20
336.0
  0
VERTEX
  8
0
 10
0.0
 20
336.0
  0
VERTEX
  8
0
 10
0.0
 20
336.0
  0
SEQEND
  8
0
  0
POLYLINE
  8
0
 62
0
 70
1
 66
1
 10
0.0
 20
0.0
 30
0.0
  0
VERTEX
  8
0
 10
-414.5
 20
169.5
  0
VERTEX
  8
0
 10
-414.5
 20
171.0
  0
VERTEX
  8
0
 10
-414.5
 20
171.0
  0
VERTEX
  8
0
 10
-414.5
 20
169.5
  0
SEQEND
  8
0
  0
POLYLINE
  8
0
 62
0
 70
1
 66
1
 10
0.0
 20
0.0
 30
0.0
  0
VERTEX
  8
0
 10
0.0
 20
340.5
  0
VERTEX
  8
0
 10
0.0
 20
336.0
  0
VERTEX
  8
0
 10
0.0
 20
336.0
  0
VERTEX
  8
0
 10
0.0
 20
340.5
  0
SEQEND
  8
0
  0
POLYLINE
  8
0
 62
0
 70
1
 66
1
 10
0.0
 20
0.0
 30
0.0
  0
VERTEX
  8
0
 10
-414.5
 20
169.5
  0
VERTEX
  8
0
 10
-414.5
 20
169.5
  0
VERTEX
  8
0
 10
-423.0
 20
169.5
  0
VERTEX
  8
0
 10
-423.0
 20
169.5
  0
SEQEND
  8
0
  0
POLYLINE
  8
0
 62
0
 70
1
 66
1
 10
0.0
 20
0.0
 30
0.0
  0
VERTEX
  8
0
 10
0.0
 20
340.5
  0
VERTEX
  8
0
 10
-8.5
 20
340.5
  0
VERTEX
  8
0
 10
-8.5
 20
340.5
  0
VERTEX
  8
0
 10
0.0
 20
340.5
  0
SEQEND
  8
0
  0
POLYLINE
  8
0
 62
0
 70
1
 66
1
 10
0.0
 20
0.0
 30
0.0
  0
VERTEX
  8
0
 10
-423.0
 20
169.5
  0
VERTEX
  8
0
 10
-423.0
 20
174.0
  0
VERTEX
  8
0
 10
-423.0
 20
174.0
  0
VERTEX
  8
0
 10
-423.0
 20
169.5
  0
SEQEND
  8
0
  0
POLYLINE
  8
0
 62
0
 70
1
 66
1
 10
0.0
 20
0.0
 30
0.0
  0
VERTEX
  8
0
 10
-8.5
 20
340.5
  0
VERTEX
  8
0
 10
-8.5
 20
339.0
  0
VERTEX
  8
0
 10
-8.5
 20
339.0
  0
VERTEX
  8
0
 10
-8.5
 20
340.5
  0
SEQEND
  8
0
  0
POLYLINE
  8
0
 62
0
 70
1
 66
1
 10
0.0
 20
0.0
 30
0.0
  0
VERTEX
  8
0
 10
-418.0
 20
174.0
  0
VERTEX
  8
0
 10
-418.0
 20
174.0
  0
VERTEX
  8
0
 10
-423.0
 20
174.0
  0
VERTEX
  8
0
 10
-423.0
 20
174.0
  0
SEQEND
  8
0
  0
POLYLINE
  8
0
 62
0
 70
1
 66
1
 10
0.0
 20
0.0
 30
0.0
  0
VERTEX
  8
0
 10
-8.5
 20
339.0
  0
VERTEX
  8
0
 10
-8.5
 20
339.0
  0
VERTEX
  8
0
 10
-12.5
 20
339.0
  0
VERTEX
  8
0
 10
-12.5
 20
339.0
  0
SEQEND
  8
0
  0
POLYLINE
  8
0
 62
0
 70
1
 66
1
 10
0.0
 20
0.0
 30
0.0
  0
VERTEX
  8
0
 10
-418.0
 20
248.0
  0
VERTEX
  8
0
 10
-418.0
 20
248.0
  0
VERTEX
  8
0
 10
-418.0
 20
174.0
  0
VERTEX
  8
0
 10
-418.0
 20
174.0
  0
SEQEND
  8
0
  0
POLYLINE
  8
0
 62
0
 70
1
 66
1
 10
0.0
 20
0.0
 30
0.0
  0
VERTEX
  8
0
 10
-12.5
 20
339.0
  0
VERTEX
  8
0
 10
-12.5
 20
339.0
  0
VERTEX
  8
0
 10
-12.5
 20
340.5
  0
VERTEX
  8
0
 10
-12.5
 20
340.5
  0
SEQEND
  8
0
  0
POLYLINE
  8
0
 62
0
 70
1
 66
1
 10
0.0
 20
0.0
 30
0.0
  0
VERTEX
  8
0
 10
-423.0
 20
248.0
  0
VERTEX
  8
0
 10
-423.0
 20
248.0
  0
VERTEX
  8
0
 10
-418.0
 20
248.0
  0
VERTEX
  8
0
 10
-418.0
 20
248.0
  0
SEQEND
  8
0
  0
POLYLINE
  8
0
 62
0
 70
1
 66
1
 10
0.0
 20
0.0
 30
0.0
  0
VERTEX
  8
0
 10
-12.5
 20
340.5
  0
VERTEX
  8
0
 10
-12.5
 20
340.5
  0
VERTEX
  8
0
 10
-14.0
 20
340.5
  0
VERTEX
  8
0
 10
-14.0
 20
340.5
  0
SEQEND
  8
0
  0
POLYLINE
  8
0
 62
0
 70
1
 66
1
 10
0.0
 20
0.0
 30
0.0
  0
VERTEX
  8
0
 10
-423.0
 20
248.0
  0
VERTEX
  8
0
 10
-423.0
 20
252.5
  0
VERTEX
  8
0
 10
-423.0
 20
252.5
  0
VERTEX
  8
0
 10
-423.0
 20
248.0
  0
SEQEND
  8
0
  0
POLYLINE
  8
0
 62
0
 70
1
 66
1
 10
0.0
 20
0.0
 30
0.0
  0
VERTEX
  8
0
 10
-14.0
 20
340.5
  0
VERTEX
  8
0
 10
-14.0
 20
340.5
  0
VERTEX
  8
0
 10
-14.0
 20
345.5
  0
VERTEX
  8
0
 10
-14.0
 20
345.5
  0
SEQEND
  8
0
  0
POLYLINE
  8
0
 62
0
 70
1
 66
1
 10
0.0
 20
0.0
 30
0.0
  0
VERTEX
  8
0
 10
-414.5
 20
252.5
  0
VERTEX
  8
0
 10
-414.5
 20
252.5
  0
VERTEX
  8
0
 10
-423.0
 20
252.5
  0
VERTEX
  8
0
 10
-423.0
 20
252.5
  0
SEQEND
  8
0
  0
POLYLINE
  8
0
 62
0
 70
1
 66
1
 10
0.0
 20
0.0
 30
0.0
  0
VERTEX
  8
0
 10
-12.5
 20
345.5
  0
VERTEX
  8
0
 10
-12.5
 20
345.5
  0
VERTEX
  8
0
 10
-14.0
 20
345.5
  0
VERTEX
  8
0
 10
-14.0
 20
345.5
  0
SEQEND
  8
0
  0
POLYLINE
  8
0
 62
0
 70
1
 66
1
 10
0.0
 20
0.0
 30
0.0
  0
VERTEX
  8
0
 10
-414.5
 20
251.0
  0
VERTEX
  8
0
 10
-414.5
 20
251.0
  0
VERTEX
  8
0
 10
-414.5
 20
252.5
  0
VERTEX
  8
0
 10
-414.5
 20
252.5
  0
SEQEND
  8
0
  0
POLYLINE
  8
0
 62
0
 70
1
 66
1
 10
0.0
 20
0.0
 30
0.0
  0
VERTEX
  8
0
 10
-12.5
 20
345.5
  0
VERTEX
  8
0
 10
-12.5
 20
347.0
  0
VERTEX
  8
0
 10
-12.5
 20
347.0
  0
VERTEX
  8
0
 10
-12.5
 20
345.5
  0
SEQEND
  8
0
  0
POLYLINE
  8
0
 62
0
 70
1
 66
1
 10
0.0
 20
0.0
 30
0.0
  0
VERTEX
  8
0
 10
-410.5
 20
251.0
  0
VERTEX
  8
0
 10
-410.5
 20
251.0
  0
VERTEX
  8
0
 10
-414.5
 20
251.0
  0
VERTEX
  8
0
 10
-414.5
 20
251.0
  0
SEQEND
  8
0
  0
POLYLINE
  8
0
 62
0
 70
1
 66
1
 10
0.0
 20
0.0
 30
0.0
  0
VERTEX
  8
0
 10
-12.5
 20
347.0
  0
VERTEX
  8
0
 10
-12.5
 20
347.0
  0
VERTEX
  8
0
 10
-8.5
 20
347.0
  0
VERTEX
  8
0
 10
-8.5
 20
347.0
  0
SEQEND
  8
0
  0
POLYLINE
  8
0
 62
0
 70
1
 66
1
 10
0.0
 20
0.0
 30
0.0
  0
VERTEX
  8
0
 10
-410.5
 20
252.5
  0
VERTEX
  8
0
 10
-410.5
 20
251.0
  0
VERTEX
  8
0
 10
-410.5
 20
251.0
  0
VERTEX
  8
0
 10
-410.5
 20
252.5
  0
SEQEND
  8
0
  0
POLYLINE
  8
0
 62
0
 70
1
 66
1
 10
0.0
 20
0.0
 30
0.0
  0
VERTEX
  8
0
 10
-8.5
 20
347.0
  0
VERTEX
  8
0
 10
-8.5
 20
347.0
  0
VERTEX
  8
0
 10
-8.5
 20
345.5
  0
VERTEX
  8
0
 10
-8.5
 20
345.5
  0
SEQEND
  8
0
  0
POLYLINE
  8
0
 62
0
 70
1
 66
1
 10
0.0
 20
0.0
 30
0.0
  0
VERTEX
  8
0
 10
-409.0
 20
252.5
  0
VERTEX
  8
0
 10
-410.5
 20
252.5
  0
VERTEX
  8
0
 10
-410.5
 20
252.5
  0
VERTEX
  8
0
 10
-409.0
 20
252.5
  0
SEQEND
  8
0
  0
POLYLINE
  8
0
 62
0
 70
1
 66
1
 10
0.0
 20
0.0
 30
0.0
  0
VERTEX
  8
0
 10
-8.5
 20
345.5
  0
VERTEX
  8
0
 10
0.0
 20
345.5
  0
VERTEX
  8
0
 10
0.0
 20
345.5
  0
VERTEX
  8
0
 10
-8.5
 20
345.5
  0
SEQEND
  8
0
  0
POLYLINE
  8
0
 62
0
 70
1
 66
1
 10
0.0
 20
0.0
 30
0.0
  0
VERTEX
  8
0
 10
-409.0
 20
257.5
  0
VERTEX
  8
0
 10
-409.0
 20
257.5
  0
VERTEX
  8
0
 10
-409.0
 20
252.5
  0
VERTEX
  8
0
 10
-409.0
 20
252.5
  0
SEQEND
  8
0
  0
POLYLINE
  8
0
 62
0
 70
1
 66
1
 10
0.0
 20
0.0
 30
0.0
  0
VERTEX
  8
0
 10
0.0
 20
350.0
  0
VERTEX
  8
0
 10
0.0
 20
345.5
  0
VERTEX
  8
0
 10
0.0
 20
345.5
  0
VERTEX
  8
0
 10
0.0
 20
350.0
  0
SEQEND
  8
0
  0
POLYLINE
  8
0
 62
0
 70
1
 66
1
 10
0.0
 20
0.0
 30
0.0
  0
VERTEX
  8
0
 10
-410.5
 20
257.5
  0
VERTEX
  8
0
 10
-409.0
 20
257.5
  0
VERTEX
  8
0
 10
-409.0
 20
257.5
  0
VERTEX
  8
0
 10
-410.5
 20
257.5
  0
SEQEND
  8
0
  0
POLYLINE
  8
0
 62
0
 70
1
 66
1
 10
0.0
 20
0.0
 30
0.0
  0
VERTEX
  8
0
 10
0.0
 20
350.0
  0
VERTEX
  8
0
 10
0.0
 20
350.0
  0
VERTEX
  8
0
 10
-5.0
 20
350.0
  0
VERTEX
  8
0
 10
-5.0
 20
350.0
  0
SEQEND
  8
0
  0
POLYLINE
  8
0
 62
0
 70
1
 66
1
 10
0.0
 20
0.0
 30
0.0
  0
VERTEX
  8
0
 10
-410.5
 20
259.0
  0
VERTEX
  8
0
 10
-410.5
 20
259.0
  0
VERTEX
  8
0
 10
-410.5
 20
257.5
  0
VERTEX
  8
0
 10
-410.5
 20
257.5
  0
SEQEND
  8
0
  0
POLYLINE
  8
0
 62
0
 70
1
 66
1
 10
0.0
 20
0.0
 30
0.0
  0
VERTEX
  8
0
 10
-5.0
 20
350.0
  0
VERTEX
  8
0
 10
-5.0
 20
350.0
  0
VERTEX
  8
0
 10
-5.0
 20
424.0
  0
VERTEX
  8
0
 10
-5.0
 20
424.0
  0
SEQEND
  8
0
  0
POLYLINE
  8
0
 62
0
 70
1
 66
1
 10
0.0
 20
0.0
 30
0.0
  0
VERTEX
  8
0
 10
-414.5
 20
259.0
  0
VERTEX
  8
0
 10
-414.5
 20
259.0
  0
VERTEX
  8
0
 10
-410.5
 20
259.0
  0
VERTEX
  8
0
 10
-410.5
 20
259.0
  0
SEQEND
  8
0
  0
POLYLINE
  8
0
 62
0
 70
1
 66
1
 10
0.0
 20
0.0
 30
0.0
  0
VERTEX
  8
0
 10
-5.0
 20
424.0
  0
VERTEX
  8
0
 10
-5.0
 20
424.0
  0
VERTEX
  8
0
 10
0.0
 20
424.0
  0
VERTEX
  8
0
 10
0.0
 20
424.0
  0
SEQEND
  8
0
  0
POLYLINE
  8
0
 62
0
 70
1
 66
1
 10
0.0
 20
0.0
 30
0.0
  0
VERTEX
  8
0
 10
-414.5
 20
257.5
  0
VERTEX
  8
0
 10
-414.5
 20
259.0
  0
VERTEX
  8
0
 10
-414.5
 20
259.0
  0
VERTEX
  8
0
 10
-414.5
 20
257.5
  0
SEQEND
  8
0
  0
POLYLINE
  8
0
 62
0
 70
1
 66
1
 10
0.0
 20
0.0
 30
0.0
  0
VERTEX
  8
0
 10
0.0
 20
428.5
  0
VERTEX
  8
0
 10
0.0
 20
424.0
  0
VERTEX
  8
0
 10
0.0
 20
424.0
  0
VERTEX
  8
0
 10
0.0
 20
428.5
  0
SEQEND
  8
0
  0
POLYLINE
  8
0
 62
0
 70
1
 66
1
 10
0.0
 20
0.0
 30
0.0
  0
VERTEX
  8
0
 10
-414.5
 20
257.5
  0
VERTEX
  8
0
 10
-414.5
 20
257.5
  0
VERTEX
  8
0
 10
-423.0
 20
257.5
  0
VERTEX
  8
0
 10
-423.0
 20
257.5
  0
SEQEND
  8
0
  0
POLYLINE
  8
0
 62
0
 70
1
 66
1
 10
0.0
 20
0.0
 30
0.0
  0
VERTEX
  8
0
 10
0.0
 20
428.5
  0
VERTEX
  8
0
 10
-8.5
 20
428.5
  0
VERTEX
  8
0
 10
-8.5
 20
428.5
  0
VERTEX
  8
0
 10
0.0
 20
428.5
  0
SEQEND
  8
0
  0
POLYLINE
  8
0
 62
0
 70
1
 66
1
 10
0.0
 20
0.0
 30
0.0
  0
VERTEX
  8
0
 10
-423.0
 20
257.5
  0
VERTEX
  8
0
 10
-423.0
 20
262.0
  0
VERTEX
  8
0
 10
-423.0
 20
262.0
  0
VERTEX
  8
0
 10
-423.0
 20
257.5
  0
SEQEND
  8
0
  0
POLYLINE
  8
0
 62
0
 70
1
 66
1
 10
0.0
 20
0.0
 30
0.0
  0
VERTEX
  8
0
 10
-8.5
 20
428.5
  0
VERTEX
  8
0
 10
-8.5
 20
427.0
  0
VERTEX
  8
0
 10
-8.5
 20
427.0
  0
VERTEX
  8
0
 10
-8.5
 20
428.5
  0
SEQEND
  8
0
  0
POLYLINE
  8
0
 62
0
 70
1
 66
1
 10
0.0
 20
0.0
 30
0.0
  0
VERTEX
  8
0
 10
-418.0
 20
262.0
  0
VERTEX
  8
0
 10
-418.0
 20
262.0
  0
VERTEX
  8
0
 10
-423.0
 20
262.0
  0
VERTEX
  8
0
 10
-423.0
 20
262.0
  0
SEQEND
  8
0
  0
POLYLINE
  8
0
 62
0
 70
1
 66
1
 10
0.0
 20
0.0
 30
0.0
  0
VERTEX
  8
0
 10
-8.5
 20
427.0
  0
VERTEX
  8
0
 10
-8.5
 20
427.0
  0
VERTEX
  8
0
 10
-12.5
 20
427.0
  0
VERTEX
  8
0
 10
-12.5
 20
427.0
  0
SEQEND
  8
0
  0
POLYLINE
  8
0
 62
0
 70
1
 66
1
 10
0.0
 20
0.0
 30
0.0
  0
VERTEX
  8
0
 10
-418.0
 20
336.0
  0
VERTEX
  8
0
 10
-418.0
 20
336.0
  0
VERTEX
  8
0
 10
-418.0
 20
262.0
  0
VERTEX
  8
0
 10
-418.0
 20
262.0
  0
SEQEND
  8
0
  0
POLYLINE
  8
0
 62
0
 70
1
 66
1
 10
0.0
 20
0.0
 30
0.0
  0
VERTEX
  8
0
 10
-12.5
 20
427.0
  0
VERTEX
  8
0
 10
-12.5
 20
427.0
  0
VERTEX
  8
0
 10
-12.5
 20
428.5
  0
VERTEX
  8
0
 10
-12.5
 20
428.5
  0
SEQEND
  8
0
  0
POLYLINE
  8
0
 62
0
 70
1
 66
1
 10
0.0
 20
0.0
 30
0.0
  0
VERTEX
  8
0
 10
-423.0
 20
336.0
  0
VERTEX
  8
0
 10
-423.0
 20
336.0
  0
VERTEX
  8
0
 10
-418.0
 20
336.0
  0
VERTEX
  8
0
 10
-418.0
 20
336.0
  0
SEQEND
  8
0
  0
POLYLINE
  8
0
 62
0
 70
1
 66
1
 10
0.0
 20
0.0
 30
0.0
  0
VERTEX
  8
0
 10
-12.5
 20
428.5
  0
VERTEX
  8
0
 10
-12.5
 20
428.5
  0
VERTEX
  8
0
 10
-14.0
 20
428.5
  0
VERTEX
  8
0
 10
-14.0
 20
428.5
  0
SEQEND
  8
0
  0
POLYLINE
  8
0
 62
0
 70
1
 66
1
 10
0.0
 20
0.0
 30
0.0
  0
VERTEX
  8
0
 10
-423.0
 20
336.0
  0
VERTEX
  8
0
 10
-423.0
 20
340.5
  0
VERTEX
  8
0
 10
-423.0
 20
340.5
  0
VERTEX
  8
0
 10
-423.0
 20
336.0
  0
SEQEND
  8
0
  0
POLYLINE
  8
0
 62
0
 70
1
 66
1
 10
0.0
 20
0.0
 30
0.0
  0
VERTEX
  8
0
 10
-14.0
 20
428.5
  0
VERTEX
  8
0
 10
-14.0
 20
428.5
  0
VERTEX
  8
0
 10
-14.0
 20
433.5
  0
VERTEX
  8
0
 10
-14.0
 20
433.5
  0
SEQEND
  8
0
  0
POLYLINE
  8
0
 62
0
 70
1
 66
1
 10
0.0
 20
0.0
 30
0.0
  0
VERTEX
  8
0
 10
-414.5
 20
340.5
  0
VERTEX
  8
0
 10
-414.5
 20
340.5
  0
VERTEX
  8
0
 10
-423.0
 20
340.5
  0
VERTEX
  8
0
 10
-423.0
 20
340.5
  0
SEQEND
  8
0
  0
POLYLINE
  8
0
 62
0
 70
1
 66
1
 10
0.0
 20
0.0
 30
0.0
  0
VERTEX
  8
0
 10
-12.5
 20
433.5
  0
VERTEX
  8
0
 10
-12.5
 20
433.5
  0
VERTEX
  8
0
 10
-14.0
 20
433.5
  0
VERTEX
  8
0
 10
-14.0
 20
433.5
  0
SEQEND
  8
0
  0
POLYLINE
  8
0
 62
0
 70
1
 66
1
 10
0.0
 20
0.0
 30
0.0
  0
VERTEX
  8
0
 10
-414.5
 20
339.0
  0
VERTEX
  8
0
 10
-414.5
 20
339.0
  0
VERTEX
  8
0
 10
-414.5
 20
340.5
  0
VERTEX
  8
0
 10
-414.5
 20
340.5
  0
SEQEND
  8
0
  0
POLYLINE
  8
0
 62
0
 70
1
 66
1
 10
0.0
 20
0.0
 30
0.0
  0
VERTEX
  8
0
 10
-12.5
 20
433.5
  0
VERTEX
  8
0
 10
-12.5
 20
435.0
  0
VERTEX
  8
0
 10
-12.5
 20
435.0
  0
VERTEX
  8
0
 10
-12.5
 20
433.5
  0
SEQEND
  8
0
  0
POLYLINE
  8
0
 62
0
 70
1
 66
1
 10
0.0
 20
0.0
 30
0.0
  0
VERTEX
  8
0
 10
-410.5
 20
339.0
  0
VERTEX
  8
0
 10
-410.5
 20
339.0
  0
VERTEX
  8
0
 10
-414.5
 20
339.0
  0
VERTEX
  8
0
 10
-414.5
 20
339.0
  0
SEQEND
  8
0
  0
POLYLINE
  8
0
 62
0
 70
1
 66
1
 10
0.0
 20
0.0
 30
0.0
  0
VERTEX
  8
0
 10
-12.5
 20
435.0
  0
VERTEX
  8
0
 10
-12.5
 20
435.0
  0
VERTEX
  8
0
 10
-8.5
 20
435.0
  0
VERTEX
  8
0
 10
-8.5
 20
435.0
  0
SEQEND
  8
0
  0
POLYLINE
  8
0
 62
0
 70
1
 66
1
 10
0.0
 20
0.0
 30
0.0
  0
VERTEX
  8
0
 10
-410.5
 20
340.5
  0
VERTEX
  8
0
 10
-410.5
 20
339.0
  0
VERTEX
  8
0
 10
-410.5
 20
339.0
  0
VERTEX
  8
0
 10
-410.5
 20
340.5
  0
SEQEND
  8
0
  0
POLYLINE
  8
0
 62
0
 70
1
 66
1
 10
0.0
 20
0.0
 30
0.0
  0
VERTEX
  8
0
 10
-8.5
 20
435.0
  0
VERTEX
  8
0
 10
-8.5
 20
435.0
  0
VERTEX
  8
0
 10
-8.5
 20
433.5
  0
VERTEX
  8
0
 10
-8.5
 20
433.5
  0
SEQEND
  8
0
  0
POLYLINE
  8
0
 62
0
 70
1
 66
1
 10
0.0
 20
0.0
 30
0.0
  0
VERTEX
  8
0
 10
-409.0
 20
340.5
  0
VERTEX
  8
0
 10
-410.5
 20
340.5
  0
VERTEX
  8
0
 10
-410.5
 20
340.5
  0
VERTEX
  8
0
 10
-409.0
 20
340.5
  0
SEQEND
  8
0
  0
POLYLINE
  8
0
 62
0
 70
1
 66
1
 10
0.0
 20
0.0
 30
0.0
  0
VERTEX
  8
0
 10
-8.5
 20
433.5
  0
VERTEX
  8
0
 10
0.0
 20
433.5
  0
VERTEX
  8
0
 10
0.0
 20
433.5
  0
VERTEX
  8
0
 10
-8.5
 20
433.5
  0
SEQEND
  8
0
  0
POLYLINE
  8
0
 62
0
 70
1
 66
1
 10
0.0
 20
0.0
 30
0.0
  0
VERTEX
  8
0
 10
-409.0
 20
345.5
  0
VERTEX
  8
0
 10
-409.0
 20
345.5
  0
VERTEX
  8
0
 10
-409.0
 20
340.5
  0
VERTEX
  8
0
 10
-409.0
 20
340.5
  0
SEQEND
  8
0
  0
POLYLINE
  8
0
 62
0
 70
1
 66
1
 10
0.0
 20
0.0
 30
0.0
  0
VERTEX
  8
0
 10
0.0
 20
438.0
  0
VERTEX
  8
0
 10
0.0
 20
433.5
  0
VERTEX
  8
0
 10
0.0
 20
433.5
  0
VERTEX
  8
0
 10
0.0
 20
438.0
  0
SEQEND
  8
0
  0
POLYLINE
  8
0
 62
0
 70
1
 66
1
 10
0.0
 20
0.0
 30
0.0
  0
VERTEX
  8
0
 10
-410.5
 20
345.5
  0
VERTEX
  8
0
 10
-409.0
 20
345.5
  0
VERTEX
  8
0
 10
-409.0
 20
345.5
  0
VERTEX
  8
0
 10
-410.5
 20
345.5
  0
SEQEND
  8
0
  0
POLYLINE
  8
0
 62
0
 70
1
 66
1
 10
0.0
 20
0.0
 30
0.0
  0
VERTEX
  8
0
 10
-5.0
 20
438.0
  0
VERTEX
  8
0
 10
-5.0
 20
438.0
  0
VERTEX
  8
0
 10
0.0
 20
438.0
  0
VERTEX
  8
0
 10
0.0
 20
438.0
  0
SEQEND
  8
0
  0
POLYLINE
  8
0
 62
0
 70
1
 66
1
 10
0.0
 20
0.0
 30
0.0
  0
VERTEX
  8
0
 10
-410.5
 20
347.0
  0
VERTEX
  8
0
 10
-410.5
 20
347.0
  0
VERTEX
  8
0
 10
-410.5
 20
345.5
  0
VERTEX
  8
0
 10
-410.5
 20
345.5
  0
SEQEND
  8
0
  0
POLYLINE
  8
0
 62
0
 70
1
 66
1
 10
0.0
 20
0.0
 30
0.0
  0
VERTEX
  8
0
 10
-5.0
 20
512.0
  0
VERTEX
  8
0
 10
-5.0
 20
512.0
  0
VERTEX
  8
0
 10
-5.0
 20
438.0
  0
VERTEX
  8
0
 10
-5.0
 20
438.0
  0
SEQEND
  8
0
  0
POLYLINE
  8
0
 62
0
 70
1
 66
1
 10
0.0
 20
0.0
 30
0.0
  0
VERTEX
  8
0
 10
-414.5
 20
347.0
  0
VERTEX
  8
0
 10
-414.5
 20
347.0
  0
VERTEX
  8
0
 10
-410.5
 20
347.0
  0
VERTEX
  8
0
 10
-410.5
 20
347.0
  0
SEQEND
  8
0
  0
POLYLINE
  8
0
 62
0
 70
1
 66
1
 10
0.0
 20
0.0
 30
0.0
  0
VERTEX
  8
0
 10
0.0
 20
512.0
  0
VERTEX
  8
0
 10
0.0
 20
512.0
  0
VERTEX
  8
0
 10
-5.0
 20
512.0
  0
VERTEX
  8
0
 10
-5.0
 20
512.0
  0
SEQEND
  8
0
  0
POLYLINE
  8
0
 62
0
 70
1
 66
1
 10
0.0
 20
0.0
 30
0.0
  0
VERTEX
  8
0
 10
-414.5
 20
345.5
  0
VERTEX
  8
0
 10
-414.5
 20
347.0
  0
VERTEX
  8
0
 10
-414.5
 20
347.0
  0
VERTEX
  8
0
 10
-414.5
 20
345.5
  0
SEQEND
  8
0
  0
POLYLINE
  8
0
 62
0
 70
1
 66
1
 10
0.0
 20
0.0
 30
0.0
  0
VERTEX
  8
0
 10
0.0
 20
516.5
  0
VERTEX
  8
0
 10
0.0
 20
512.0
  0
VERTEX
  8
0
 10
0.0
 20
512.0
  0
VERTEX
  8
0
 10
0.0
 20
516.5
  0
SEQEND
  8
0
  0
POLYLINE
  8
0
 62
0
 70
1
 66
1
 10
0.0
 20
0.0
 30
0.0
  0
VERTEX
  8
0
 10
-414.5
 20
345.5
  0
VERTEX
  8
0
 10
-414.5
 20
345.5
  0
VERTEX
  8
0
 10
-423.0
 20
345.5
  0
VERTEX
  8
0
 10
-423.0
 20
345.5
  0
SEQEND
  8
0
  0
POLYLINE
  8
0
 62
0
 70
1
 66
1
 10
0.0
 20
0.0
 30
0.0
  0
VERTEX
  8
0
 10
0.0
 20
516.5
  0
VERTEX
  8
0
 10
-8.5
 20
516.5
  0
VERTEX
  8
0
 10
-8.5
 20
516.5
  0
VERTEX
  8
0
 10
0.0
 20
516.5
  0
SEQEND
  8
0
  0
POLYLINE
  8
0
 62
0
 70
1
 66
1
 10
0.0
 20
0.0
 30
0.0
  0
VERTEX
  8
0
 10
-423.0
 20
345.5
  0
VERTEX
  8
0
 10
-423.0
 20
350.0
  0
VERTEX
  8
0
 10
-423.0
 20
350.0
  0
VERTEX
  8
0
 10
-423.0
 20
345.5
  0
SEQEND
  8
0
  0
POLYLINE
  8
0
 62
0
 70
1
 66
1
 10
0.0
 20
0.0
 30
0.0
  0
VERTEX
  8
0
 10
-8.5
 20
516.5
  0
VERTEX
  8
0
 10
-8.5
 20
515.0
  0
VERTEX
  8
0
 10
-8.5
 20
515.0
  0
VERTEX
  8
0
 10
-8.5
 20
516.5
  0
SEQEND
  8
0
  0
POLYLINE
  8
0
 62
0
 70
1
 66
1
 10
0.0
 20
0.0
 30
0.0
  0
VERTEX
  8
0
 10
-418.0
 20
350.0
  0
VERTEX
  8
0
 10
-418.0
 20
350.0
  0
VERTEX
  8
0
 10
-423.0
 20
350.0
  0
VERTEX
  8
0
 10
-423.0
 20
350.0
  0
SEQEND
  8
0
  0
POLYLINE
  8
0
 62
0
 70
1
 66
1
 10
0.0
 20
0.0
 30
0.0
  0
VERTEX
  8
0
 10
-8.5
 20
515.0
  0
VERTEX
  8
0
 10
-8.5
 20
515.0
  0
VERTEX
  8
0
 10
-12.5
 20
515.0
  0
VERTEX
  8
0
 10
-12.5
 20
515.0
  0
SEQEND
  8
0
  0
POLYLINE
  8
0
 62
0
 70
1
 66
1
 10
0.0
 20
0.0
 30
0.0
  0
VERTEX
  8
0
 10
-418.0
 20
424.0
  0
VERTEX
  8
0
 10
-418.0
 20
424.0
  0
VERTEX
  8
0
 10
-418.0
 20
350.0
  0
VERTEX
  8
0
 10
-418.0
 20
350.0
  0
SEQEND
  8
0
  0
POLYLINE
  8
0
 62
0
 70
1
 66
1
 10
0.0
 20
0.0
 30
0.0
  0
VERTEX
  8
0
 10
-12.5
 20
515.0
  0
VERTEX
  8
0
 10
-12.5
 20
515.0
  0
VERTEX
  8
0
 10
-12.5
 20
516.5
  0
VERTEX
  8
0
 10
-12.5
 20
516.5
  0
SEQEND
  8
0
  0
POLYLINE
  8
0
 62
0
 70
1
 66
1
 10
0.0
 20
0.0
 30
0.0
  0
VERTEX
  8
0
 10
-423.0
 20
424.0
  0
VERTEX
  8
0
 10
-423.0
 20
424.0
  0
VERTEX
  8
0
 10
-418.0
 20
424.0
  0
VERTEX
  8
0
 10
-418.0
 20
424.0
  0
SEQEND
  8
0
  0
POLYLINE
  8
0
 62
0
 70
1
 66
1
 10
0.0
 20
0.0
 30
0.0
  0
VERTEX
  8
0
 10
-12.5
 20
516.5
  0
VERTEX
  8
0
 10
-12.5
 20
516.5
  0
VERTEX
  8
0
 10
-14.0
 20
516.5
  0
VERTEX
  8
0
 10
-14.0
 20
516.5
  0
SEQEND
  8
0
  0
POLYLINE
  8
0
 62
0
 70
1
 66
1
 10
0.0
 20
0.0
 30
0.0
  0
VERTEX
  8
0
 10
-423.0
 20
424.0
  0
VERTEX
  8
0
 10
-423.0
 20
428.5
  0
VERTEX
  8
0
 10
-423.0
 20
428.5
  0
VERTEX
  8
0
 10
-423.0
 20
424.0
  0
SEQEND
  8
0
  0
POLYLINE
  8
0
 62
0
 70
1
 66
1
 10
0.0
 20
0.0
 30
0.0
  0
VERTEX
  8
0
 10
-14.0
 20
516.5
  0
VERTEX
  8
0
 10
-14.0
 20
516.5
  0
VERTEX
  8
0
 10
-14.0
 20
521.5
  0
VERTEX
  8
0
 10
-14.0
 20
521.5
  0
SEQEND
  8
0
  0
POLYLINE
  8
0
 62
0
 70
1
 66
1
 10
0.0
 20
0.0
 30
0.0
  0
VERTEX
  8
0
 10
-414.5
 20
428.5
  0
VERTEX
  8
0
 10
-414.5
 20
428.5
  0
VERTEX
  8
0
 10
-423.0
 20
428.5
  0
VERTEX
  8
0
 10
-423.0
 20
428.5
  0
SEQEND
  8
0
  0
POLYLINE
  8
0
 62
0
 70
1
 66
1
 10
0.0
 20
0.0
 30
0.0
  0
VERTEX
  8
0
 10
-12.5
 20
521.5
  0
VERTEX
  8
0
 10
-12.5
 20
521.5
  0
VERTEX
  8
0
 10
-14.0
 20
521.5
  0
VERTEX
  8
0
 10
-14.0
 20
521.5
  0
SEQEND
  8
0
  0
POLYLINE
  8
0
 62
0
 70
1
 66
1
 10
0.0
 20
0.0
 30
0.0
  0
VERTEX
  8
0
 10
-414.5
 20
427.0
  0
VERTEX
  8
0
 10
-414.5
 20
427.0
  0
VERTEX
  8
0
 10
-414.5
 20
428.5
  0
VERTEX
  8
0
 10
-414.5
 20
428.5
  0
SEQEND
  8
0
  0
POLYLINE
  8
0
 62
0
 70
1
 66
1
 10
0.0
 20
0.0
 30
0.0
  0
VERTEX
  8
0
 10
-12.5
 20
521.5
  0
VERTEX
  8
0
 10
-12.5
 20
523.0
  0
VERTEX
  8
0
 10
-12.5
 20
523.0
  0
VERTEX
  8
0
 10
-12.5
 20
521.5
  0
SEQEND
  8
0
  0
POLYLINE
  8
0
 62
0
 70
1
 66
1
 10
0.0
 20
0.0
 30
0.0
  0
VERTEX
  8
0
 10
-410.5
 20
427.0
  0
VERTEX
  8
0
 10
-410.5
 20
427.0
  0
VERTEX
  8
0
 10
-414.5
 20
427.0
  0
VERTEX
  8
0
 10
-414.5
 20
427.0
  0
SEQEND
  8
0
  0
POLYLINE
  8
0
 62
0
 70
1
 66
1
 10
0.0
 20
0.0
 30
0.0
  0
VERTEX
  8
0
 10
-12.5
 20
523.0
  0
VERTEX
  8
0
 10
-12.5
 20
523.0
  0
VERTEX
  8
0
 10
-8.5
 20
523.0
  0
VERTEX
  8
0
 10
-8.5
 20
523.0
  0
SEQEND
  8
0
  0
POLYLINE
  8
0
 62
0
 70
1
 66
1
 10
0.0
 20
0.0
 30
0.0
  0
VERTEX
  8
0
 10
-410.5
 20
428.5
  0
VERTEX
  8
0
 10
-410.5
 20
427.0
  0
VERTEX
  8
0
 10
-410.5
 20
427.0
  0
VERTEX
  8
0
 10
-410.5
 20
428.5
  0
SEQEND
  8
0
  0
POLYLINE
  8
0
 62
0
 70
1
 66
1
 10
0.0
 20
0.0
 30
0.0
  0
VERTEX
  8
0
 10
-8.5
 20
523.0
  0
VERTEX
  8
0
 10
-8.5
 20
523.0
  0
VERTEX
  8
0
 10
-8.5
 20
521.5
  0
VERTEX
  8
0
 10
-8.5
 20
521.5
  0
SEQEND
  8
0
  0
POLYLINE
  8
0
 62
0
 70
1
 66
1
 10
0.0
 20
0.0
 30
0.0
  0
VERTEX
  8
0
 10
-409.0
 20
428.5
  0
VERTEX
  8
0
 10
-410.5
 20
428.5
  0
VERTEX
  8
0
 10
-410.5
 20
428.5
  0
VERTEX
  8
0
 10
-409.0
 20
428.5
  0
SEQEND
  8
0
  0
POLYLINE
  8
0
 62
0
 70
1
 66
1
 10
0.0
 20
0.0
 30
0.0
  0
VERTEX
  8
0
 10
-8.5
 20
521.5
  0
VERTEX
  8
0
 10
0.0
 20
521.5
  0
VERTEX
  8
0
 10
0.0
 20
521.5
  0
VERTEX
  8
0
 10
-8.5
 20
521.5
  0
SEQEND
  8
0
  0
POLYLINE
  8
0
 62
0
 70
1
 66
1
 10
0.0
 20
0.0
 30
0.0
  0
VERTEX
  8
0
 10
-409.0
 20
433.5
  0
VERTEX
  8
0
 10
-409.0
 20
433.5
  0
VERTEX
  8
0
 10
-409.0
 20
428.5
  0
VERTEX
  8
0
 10
-409.0
 20
428.5
  0
SEQEND
  8
0
  0
POLYLINE
  8
0
 62
0
 70
1
 66
1
 10
0.0
 20
0.0
 30
0.0
  0
VERTEX
  8
0
 10
0.0
 20
526.0
  0
VERTEX
  8
0
 10
0.0
 20
521.5
  0
VERTEX
  8
0
 10
0.0
 20
521.5
  0
VERTEX
  8
0
 10
0.0
 20
526.0
  0
SEQEND
  8
0
  0
POLYLINE
  8
0
 62
0
 70
1
 66
1
 10
0.0
 20
0.0
 30
0.0
  0
VERTEX
  8
0
 10
-410.5
 20
433.5
  0
VERTEX
  8
0
 10
-409.0
 20
433.5
  0
VERTEX
  8
0
 10
-409.0
 20
433.5
  0
VERTEX
  8
0
 10
-410.5
 20
433.5
  0
SEQEND
  8
0
  0
POLYLINE
  8
0
 62
0
 70
1
 66
1
 10
0.0
 20
0.0
 30
0.0
  0
VERTEX
  8
0
 10
0.0
 20
526.0
  0
VERTEX
  8
0
 10
0.0
 20
526.0
  0
VERTEX
  8
0
 10
-5.0
 20
526.0
  0
VERTEX
  8
0
 10
-5.0
 20
526.0
  0
SEQEND
  8
0
  0
POLYLINE
  8
0
 62
0
 70
1
 66
1
 10
0.0
 20
0.0
 30
0.0
  0
VERTEX
  8
0
 10
-410.5
 20
435.0
  0
VERTEX
  8
0
 10
-410.5
 20
435.0
  0
VERTEX
  8
0
 10
-410.5
 20
433.5
  0
VERTEX
  8
0
 10
-410.5
 20
433.5
  0
SEQEND
  8
0
  0
POLYLINE
  8
0
 62
0
 70
1
 66
1
 10
0.0
 20
0.0
 30
0.0
  0
VERTEX
  8
0
 10
-414.5
 20
435.0
  0
VERTEX
  8
0
 10
-414.5
 20
435.0
  0
VERTEX
  8
0
 10
-410.5
 20
435.0
  0
VERTEX
  8
0
 10
-410.5
 20
435.0
  0
SEQEND
  8
0
  0
POLYLINE
  8
0
 62
0
 70
1
 66
1
 10
0.0
 20
0.0
 30
0.0
  0
VERTEX
  8
0
 10
-414.5
 20
433.5
  0
VERTEX
  8
0
 10
-414.5
 20
435.0
  0
VERTEX
  8
0
 10
-414.5
 20
435.0
  0
VERTEX
  8
0
 10
-414.5
 20
433.5
  0
SEQEND
  8
0
  0
POLYLINE
  8
0
 62
0
 70
1
 66
1
 10
0.0
 20
0.0
 30
0.0
  0
VERTEX
  8
0
 10
-414.5
 20
433.5
  0
VERTEX
  8
0
 10
-414.5
 20
433.5
  0
VERTEX
  8
0
 10
-423.0
 20
433.5
  0
VERTEX
  8
0
 10
-423.0
 20
433.5
  0
SEQEND
  8
0
  0
POLYLINE
  8
0
 62
0
 70
1
 66
1
 10
0.0
 20
0.0
 30
0.0
  0
VERTEX
  8
0
 10
-418.0
 20
526.0
  0
VERTEX
  8
0
 10
-418.0
 20
526.0
  0
VERTEX
  8
0
 10
-423.0
 20
526.0
  0
VERTEX
  8
0
 10
-423.0
 20
526.0
  0
SEQEND
  8
0
  0
POLYLINE
  8
0
 62
0
 70
1
 66
1
 10
0.0
 20
0.0
 30
0.0
  0
VERTEX
  8
0
 10
-423.0
 20
433.5
  0
VERTEX
  8
0
 10
-423.0
 20
438.0
  0
VERTEX
  8
0
 10
-423.0
 20
438.0
  0
VERTEX
  8
0
 10
-423.0
 20
433.5
  0
SEQEND
  8
0
  0
POLYLINE
  8
0
 62
0
 70
1
 66
1
 10
0.0
 20
0.0
 30
0.0
  0
VERTEX
  8
0
 10
-423.0
 20
521.5
  0
VERTEX
  8
0
 10
-423.0
 20
526.0
  0
VERTEX
  8
0
 10
-423.0
 20
526.0
  0
VERTEX
  8
0
 10
-423.0
 20
521.5
  0
SEQEND
  8
0
  0
POLYLINE
  8
0
 62
0
 70
1
 66
1
 10
0.0
 20
0.0
 30
0.0
  0
VERTEX
  8
0
 10
-418.0
 20
438.0
  0
VERTEX
  8
0
 10
-418.0
 20
438.0
  0
VERTEX
  8
0
 10
-423.0
 20
438.0
  0
VERTEX
  8
0
 10
-423.0
 20
438.0
  0
SEQEND
  8
0
  0
POLYLINE
  8
0
 62
0
 70
1
 66
1
 10
0.0
 20
0.0
 30
0.0
  0
VERTEX
  8
0
 10
-414.5
 20
521.5
  0
VERTEX
  8
0
 10
-414.5
 20
521.5
  0
VERTEX
  8
0
 10
-423.0
 20
521.5
  0
VERTEX
  8
0
 10
-423.0
 20
521.5
  0
SEQEND
  8
0
  0
POLYLINE
  8
0
 62
0
 70
1
 66
1
 10
0.0
 20
0.0
 30
0.0
  0
VERTEX
  8
0
 10
-418.0
 20
512.0
  0
VERTEX
  8
0
 10
-418.0
 20
512.0
  0
VERTEX
  8
0
 10
-418.0
 20
438.0
  0
VERTEX
  8
0
 10
-418.0
 20
438.0
  0
SEQEND
  8
0
  0
POLYLINE
  8
0
 62
0
 70
1
 66
1
 10
0.0
 20
0.0
 30
0.0
  0
VERTEX
  8
0
 10
-414.5
 20
521.5
  0
VERTEX
  8
0
 10
-414.5
 20
523.0
  0
VERTEX
  8
0
 10
-414.5
 20
523.0
  0
VERTEX
  8
0
 10
-414.5
 20
521.5
  0
SEQEND
  8
0
  0
POLYLINE
  8
0
 62
0
 70
1
 66
1
 10
0.0
 20
0.0
 30
0.0
  0
VERTEX
  8
0
 10
-423.0
 20
512.0
  0
VERTEX
  8
0
 10
-423.0
 20
512.0
  0
VERTEX
  8
0
 10
-418.0
 20
512.0
  0
VERTEX
  8
0
 10
-418.0
 20
512.0
  0
SEQEND
  8
0
  0
POLYLINE
  8
0
 62
0
 70
1
 66
1
 10
0.0
 20
0.0
 30
0.0
  0
VERTEX
  8
0
 10
-414.5
 20
523.0
  0
VERTEX
  8
0
 10
-414.5
 20
523.0
  0
VERTEX
  8
0
 10
-410.5
 20
523.0
  0
VERTEX
  8
0
 10
-410.5
 20
523.0
  0
SEQEND
  8
0
  0
POLYLINE
  8
0
 62
0
 70
1
 66
1
 10
0.0
 20
0.0
 30
0.0
  0
VERTEX
  8
0
 10
-423.0
 20
512.0
  0
VERTEX
  8
0
 10
-423.0
 20
516.5
  0
VERTEX
  8
0
 10
-423.0
 20
516.5
  0
VERTEX
  8
0
 10
-423.0
 20
512.0
  0
SEQEND
  8
0
  0
POLYLINE
  8
0
 62
0
 70
1
 66
1
 10
0.0
 20
0.0
 30
0.0
  0
VERTEX
  8
0
 10
-410.5
 20
523.0
  0
VERTEX
  8
0
 10
-410.5
 20
523.0
  0
VERTEX
  8
0
 10
-410.5
 20
521.5
  0
VERTEX
  8
0
 10
-410.5
 20
521.5
  0
SEQEND
  8
0
  0
POLYLINE
  8
0
 62
0
 70
1
 66
1
 10
0.0
 20
0.0
 30
0.0
  0
VERTEX
  8
0
 10
-414.5
 20
516.5
  0
VERTEX
  8
0
 10
-414.5
 20
516.5
  0
VERTEX
  8
0
 10
-423.0
 20
516.5
  0
VERTEX
  8
0
 10
-423.0
 20
516.5
  0
SEQEND
  8
0
  0
POLYLINE
  8
0
 62
0
 70
1
 66
1
 10
0.0
 20
0.0
 30
0.0
  0
VERTEX
  8
0
 10
-410.5
 20
521.5
  0
VERTEX
  8
0
 10
-409.0
 20
521.5
  0
VERTEX
  8
0
 10
-409.0
 20
521.5
  0
VERTEX
  8
0
 10
-410.5
 20
521.5
  0
SEQEND
  8
0
  0
POLYLINE
  8
0
 62
0
 70
1
 66
1
 10
0.0
 20
0.0
 30
0.0
  0
VERTEX
  8
0
 10
-414.5
 20
515.0
  0
VERTEX
  8
0
 10
-414.5
 20
515.0
  0
VERTEX
  8
0
 10
-414.5
 20
516.5
  0
VERTEX
  8
0
 10
-414.5
 20
516.5
  0
SEQEND
  8
0
  0
POLYLINE
  8
0
 62
0
 70
1
 66
1
 10
0.0
 20
0.0
 30
0.0
  0
VERTEX
  8
0
 10
-409.0
 20
521.5
  0
VERTEX
  8
0
 10
-409.0
 20
521.5
  0
VERTEX
  8
0
 10
-409.0
 20
516.5
  0
VERTEX
  8
0
 10
-409.0
 20
516.5
  0
SEQEND
  8
0
  0
POLYLINE
  8
0
 62
0
 70
1
 66
1
 10
0.0
 20
0.0
 30
0.0
  0
VERTEX
  8
0
 10
-410.5
 20
515.0
  0
VERTEX
  8
0
 10
-410.5
 20
515.0
  0
VERTEX
  8
0
 10
-414.5
 20
515.0
  0
VERTEX
  8
0
 10
-414.5
 20
515.0
  0
SEQEND
  8
0
  0
POLYLINE
  8
0
 62
0
 70
1
 66
1
 10
0.0
 20
0.0
 30
0.0
  0
VERTEX
  8
0
 10
-409.0
 20
516.5
  0
VERTEX
  8
0
 10
-410.5
 20
516.5
  0
VERTEX
  8
0
 10
-410.5
 20
516.5
  0
VERTEX
  8
0
 10
-409.0
 20
516.5
  0
SEQEND
  8
0
  0
POLYLINE
  8
0
 62
0
 70
1
 66
1
 10
0.0
 20
0.0
 30
0.0
  0
VERTEX
  8
0
 10
-410.5
 20
516.5
  0
VERTEX
  8
0
 10
-410.5
 20
515.0
  0
VERTEX
  8
0
 10
-410.5
 20
515.0
  0
VERTEX
  8
0
 10
-410.5
 20
516.5
  0
SEQEND
  8
0
  0
ENDSEC
  0
EOF
