/* XPM */
static char *freeimage[] = {
/* width height num_colors chars_per_pixel */
"16 16 13 1",
/* colors */
"  c #d9adae",
". c #ab5255",
"X c #a73c3e",
"o c #ac3a3e",
"O c #d09394",
"+ c #e9cfd0",
"@ c #ebd4d4",
"# c #fbf7f7",
"$ c #c47779",
"% c #b95d60",
"& c #dfb3b4",
"* c #af4346",
"= c #dbaaab",
/* pixels */
"      ..XX.     ",
"    oO++@@Oo    ",
"   .@#@OO#@#X   ",
"   X#O$%.OO#X   ",
"   X@+o&&o+#X   ",
"   *&%*##o%+*   ",
".X.%##o%$*@#$.X.",
".+=+#=O$$OO#+O+.",
" X=####O&####@*.",
"  .X%OOOOO$%X.  ",
"   ..........   ",
"   *+=O=OO=&o   ",
"   .#######@X   ",
"    *@#####o    ",
"     X=#@=X     ",
"      ..X.      "
};
