  0
SECTION
  2
HEADER
  9
$ACADVER
  1
AC1009
  9
$INSBASE
 10
0.0
 20
0.0
 30
0.0
  9
$EXTMIN
 10
0.0
 20
0.0
 30
0.0
  9
$EXTMAX
 10
0.0
 20
0.0
 30
0.0
  0
ENDSEC
  0
SECTION
  2
TABLES
  0
TABLE
  2
VPORT
 70
0
  0
ENDTAB
  0
TABLE
  2
LTYPE
 70
1
  0
LTYPE
  2
CONTINUOUS
 70
0
  3
Solid line
 72
65
 73
0
 40
0.0
  0
ENDTAB
  0
TABLE
  2
LAYER
 70
1
  0
LAYER
  2
PYDXF
 70
64
 62
7
  6
continuous
  0
ENDTAB
  0
TABLE
  2
STYLE
 70
1
  0
STYLE
  2
STANDARD
 70
0
 40
0
 41
1.0
 50
0.0
 71
0
 42
1
 3
ARIAL.TTF
 4

  0
ENDTAB
  0
TABLE
  2
VIEW
 70
0
  0
ENDTAB
  0
ENDSEC
  0
SECTION
  2
BLOCKS
  0
ENDSEC
  0
SECTION
  2
ENTITIES
  0
POLYLINE
  8
0
 62
7
 70
0
 66
1
 10
0.0
 20
0.0
 30
0.0
  0
VERTEX
  8
0
 10
0.0
 20
0.0
  0
VERTEX
  8
0
 10
304.8
 20
0.0
  0
VERTEX
  8
0
 10
304.8
 20
107.0
  0
VERTEX
  8
0
 10
344.8
 20
107.0
  0
VERTEX
  8
0
 10
344.8
 20
-1.44361
  0
VERTEX
  8
0
 10
595.109192
 20
27.369535
  0
VERTEX
  8
0
 10
680.550415
 20
49.068867
  0
VERTEX
  8
0
 10
726.661621
 20
84.330376
  0
VERTEX
  8
0
 10
759.210571
 20
115.523163
  0
VERTEX
  8
0
 10
821.596313
 20
137.222534
  0
VERTEX
  8
0
 10
931.449341
 20
125.016655
  0
VERTEX
  8
0
 10
1023.67157
 20
92.467606
  0
VERTEX
  8
0
 10
1052.1521
 20
65.343391
  0
VERTEX
  8
0
 10
1102.331787
 20
53.137516
  0
VERTEX
  8
0
 10
1145.920776
 20
69.460716
  0
VERTEX
  8
0
 10
1182.04908354
 20
74.2363251765
 42
-0.98038747531
  0
VERTEX
  8
0
 10
1183.33716574
 20
24.7631440544
  0
VERTEX
  8
0
 10
1159.511475
 20
13.929943
  0
VERTEX
  8
0
 10
1096.565308
 20
0.678104
  0
VERTEX
  8
0
 10
1036.932007
 20
10.616983
  0
VERTEX
  8
0
 10
1010.428284
 20
28.83824
  0
VERTEX
  8
0
 10
929.260864
 20
58.654877
  0
VERTEX
  8
0
 10
821.589661
 20
80.189095
  0
VERTEX
  8
0
 10
773.551758
 20
56.998375
  0
VERTEX
  8
0
 10
740.42218
 20
28.83824
  0
VERTEX
  8
0
 10
692.384277
 20
-12.573734
  0
VERTEX
  8
0
 10
597.964966
 20
-30.794991
  0
VERTEX
  8
0
 10
351.149536
 20
-55.642208
  0
VERTEX
  8
0
 10
279.920929
 20
-40.733868
  0
VERTEX
  8
0
 10
-0.024074
 20
-40.733868
  0
VERTEX
  8
0
 10
-0.024074
 20
0.0
  0
SEQEND
  8
0
  0
ENDSEC
  0
EOF
