  0
SECTION
  2
HEADER
  9
$ACADVER
  1
AC1009
  9
$INSBASE
 10
0.0
 20
0.0
 30
0.0
  9
$EXTMIN
 10
0.0
 20
0.0
 30
0.0
  9
$EXTMAX
 10
0.0
 20
0.0
 30
0.0
  0
ENDSEC
  0
SECTION
  2
TABLES
  0
TABLE
  2
VPORT
 70
0
  0
ENDTAB
  0
TABLE
  2
LTYPE
 70
1
  0
LTYPE
  2
CONTINUOUS
 70
0
  3
Solid line
 72
65
 73
0
 40
0.0
  0
ENDTAB
  0
TABLE
  2
LAYER
 70
1
  0
LAYER
  2
PYDXF
 70
64
 62
7
  6
continuous
  0
ENDTAB
  0
TABLE
  2
STYLE
 70
1
  0
STYLE
  2
STANDARD
 70
0
 40
0
 41
1.0
 50
0.0
 71
0
 42
1
 3
ARIAL.TTF
 4

  0
ENDTAB
  0
TABLE
  2
VIEW
 70
0
  0
ENDTAB
  0
ENDSEC
  0
SECTION
  2
BLOCKS
  0
BLOCK
  8
0
  2
SKETCH001
 70
0
 10
0.0
 20
0.0
 30
0.0
  3
SKETCH001
  0
POLYLINE
  8
0
 62
7
 70
1
 66
1
 10
0.0
 20
0.0
 30
0.0
  0
VERTEX
  8
0
 10
30.0
 20
350.0
  0
VERTEX
  8
0
 10
48.2623851247
 20
350.0
  0
VERTEX
  8
0
 10
48.2623851247
 20
304.883987
  0
VERTEX
  8
0
 10
66.6623851247
 20
304.883987
  0
VERTEX
  8
0
 10
66.6623851247
 20
350.0
  0
VERTEX
  8
0
 10
317.122776411
 20
350.0
 42
0.292909574697
  0
VERTEX
  8
0
 10
324.615740633
 20
360.851893576
  0
VERTEX
  8
0
 10
324.615740633
 20
457.0
  0
VERTEX
  8
0
 10
364.615740633
 20
457.0
  0
VERTEX
  8
0
 10
364.615740633
 20
365.150188628
 42
0.426758460255
  0
VERTEX
  8
0
 10
377.733630477
 20
350.0
  0
VERTEX
  8
0
 10
625.109192
 20
377.369535
  0
VERTEX
  8
0
 10
710.550415
 20
399.068867
  0
VERTEX
  8
0
 10
756.661621
 20
434.330376
  0
VERTEX
  8
0
 10
789.210571
 20
465.523163
  0
VERTEX
  8
0
 10
851.596313
 20
487.222534
  0
VERTEX
  8
0
 10
961.449341
 20
475.016655
  0
VERTEX
  8
0
 10
1053.67157
 20
442.467606
  0
VERTEX
  8
0
 10
1082.1521
 20
415.343391
  0
VERTEX
  8
0
 10
1132.331787
 20
403.137516
  0
VERTEX
  8
0
 10
1175.920776
 20
419.460716
  0
VERTEX
  8
0
 10
1211.80997823
 20
435.892333901
 42
-0.941808111319
  0
VERTEX
  8
0
 10
1216.945679
 20
363.389709
  0
VERTEX
  8
0
 10
1189.850098
 20
351.07353
  0
VERTEX
  8
0
 10
1125.80603
 20
336.29415
  0
VERTEX
  8
0
 10
1066.688477
 20
348.610329
  0
VERTEX
  8
0
 10
1038.77179
 20
364.210775
  0
VERTEX
  8
0
 10
955.021912
 20
395.411755
  0
VERTEX
  8
0
 10
855.671509
 20
409.370068
  0
VERTEX
  8
0
 10
806.83606
 20
393.861128
  0
VERTEX
  8
0
 10
773.706482
 20
365.700993
  0
VERTEX
  8
0
 10
724.026428
 20
324.289063
  0
VERTEX
  8
0
 10
629.607117
 20
306.067806
  0
VERTEX
  8
0
 10
381.149536
 20
294.357792
  0
VERTEX
  8
0
 10
302.900871
 20
279.180183
  0
VERTEX
  8
0
 10
30.0
 20
279.180183
  0
SEQEND
  8
0
  0
POLYLINE
  8
0
 62
7
 70
1
 66
1
 10
0.0
 20
0.0
 30
0.0
  0
VERTEX
  8
0
 10
150.35569
 20
338.210036
  0
VERTEX
  8
0
 10
199.106476
 20
338.210036
  0
VERTEX
  8
0
 10
199.106476
 20
329.134695
  0
VERTEX
  8
0
 10
150.35569
 20
329.134695
  0
SEQEND
  8
0
  0
CIRCLE
  8
0
 62
7
 10
428.493958
 20
329.460766
 30
0.0
 40
4.1
  0
POLYLINE
  8
0
 62
7
 70
0
 66
1
 10
0.0
 20
0.0
 30
0.0
  0
VERTEX
  8
0
 10
977.276359294
 20
326.092853887
  0
VERTEX
  8
0
 10
977.276359294
 20
282.002563
  0
VERTEX
  8
0
 10
958.876359294
 20
282.002563
  0
VERTEX
  8
0
 10
958.876359294
 20
312.855133
  0
VERTEX
  8
0
 10
704.008789
 20
312.855133
  0
VERTEX
  8
0
 10
704.008789
 20
248.565781
  0
VERTEX
  8
0
 10
957.85791
 20
248.565781
  0
VERTEX
  8
0
 10
979.684326
 20
250.897141
  0
VERTEX
  8
0
 10
1007.723267
 20
253.479683
  0
VERTEX
  8
0
 10
1042.403015
 20
238.353401
  0
VERTEX
  8
0
 10
1070.810913
 20
230.974724
  0
VERTEX
  8
0
 10
1127.626709
 20
239.829132
  0
VERTEX
  8
0
 10
1158.39917
 20
261.702744
  0
VERTEX
  8
0
 10
1180.27635929
 20
266.092853887
 42
1.0
  0
VERTEX
  8
0
 10
1180.27635929
 20
326.092853887
  0
VERTEX
  8
0
 10
1165.239868
 20
319.654549
  0
VERTEX
  8
0
 10
1152.321045
 20
315.574913
  0
VERTEX
  8
0
 10
1140.761963
 20
310.135391
  0
VERTEX
  8
0
 10
1124.443359
 20
299.936253
  0
VERTEX
  8
0
 10
1076.847534
 20
295.176674
  0
VERTEX
  8
0
 10
1057.129272
 20
299.256306
  0
VERTEX
  8
0
 10
1029.931641
 20
314.215023
  0
VERTEX
  8
0
 10
1014.032349
 20
327.678316
  0
VERTEX
  8
0
 10
986.995361
 20
373.190588
  0
VERTEX
  8
0
 10
977.53241
 20
373.641199
  0
SEQEND
  8
0
  0
POLYLINE
  8
0
 62
7
 70
1
 66
1
 10
0.0
 20
0.0
 30
0.0
  0
VERTEX
  8
0
 10
716.557495
 20
303.022213089
  0
VERTEX
  8
0
 10
764.358398
 20
303.022213089
  0
VERTEX
  8
0
 10
764.358398
 20
296.305039645
  0
VERTEX
  8
0
 10
716.557495
 20
296.305039645
  0
SEQEND
  8
0
  0
POLYLINE
  8
0
 62
7
 70
1
 66
1
 10
0.0
 20
0.0
 30
0.0
  0
VERTEX
  8
0
 10
877.254761
 20
303.022213089
  0
VERTEX
  8
0
 10
905.614929
 20
303.022213089
  0
VERTEX
  8
0
 10
905.614929
 20
296.305039645
  0
VERTEX
  8
0
 10
877.254761
 20
296.305039645
  0
SEQEND
  8
0
  0
POLYLINE
  8
0
 62
7
 70
1
 66
1
 10
0.0
 20
0.0
 30
0.0
  0
VERTEX
  8
0
 10
92.0544147526
 20
525.405191066
 42
0.915216327171
  0
VERTEX
  8
0
 10
56.7519252465
 20
541.330261102
 42
0.345922081135
  0
VERTEX
  8
0
 10
90.9848109086
 20
430.818331705
  0
VERTEX
  8
0
 10
90.9848109086
 20
365.108049067
  0
VERTEX
  8
0
 10
134.978885012
 20
365.108049067
  0
VERTEX
  8
0
 10
134.978885012
 20
409.363221512
  0
VERTEX
  8
0
 10
153.378885012
 20
409.363221512
  0
VERTEX
  8
0
 10
153.378885012
 20
365.108049067
  0
VERTEX
  8
0
 10
197.372937216
 20
365.064153624
  0
VERTEX
  8
0
 10
197.372937216
 20
430.774436262
 42
0.340851864958
  0
VERTEX
  8
0
 10
232.241188413
 20
539.727598467
 42
0.947246713853
  0
VERTEX
  8
0
 10
196.776309926
 20
523.932408035
 42
-1.37142718673
  0
SEQEND
  8
0
  0
POLYLINE
  8
0
 62
7
 70
0
 66
1
 10
0.0
 20
0.0
 30
0.0
  0
VERTEX
  8
0
 10
977.127869
 20
320.46155
  0
VERTEX
  8
0
 10
977.127869
 20
373.190588
  0
SEQEND
  8
0
  0
POLYLINE
  8
0
 62
7
 70
1
 66
1
 10
0.0
 20
0.0
 30
0.0
  0
VERTEX
  8
0
 10
317.912370091
 20
598.155863555
  0
VERTEX
  8
0
 10
689.912370091
 20
598.155863555
 42
-1.0
  0
VERTEX
  8
0
 10
689.912370091
 20
471.155863555
  0
VERTEX
  8
0
 10
317.912370091
 20
471.155863555
  0
VERTEX
  8
0
 10
317.912370091
 20
525.455863555
  0
VERTEX
  8
0
 10
371.912370091
 20
525.455863555
  0
VERTEX
  8
0
 10
371.912370091
 20
543.855863555
  0
VERTEX
  8
0
 10
317.912370091
 20
543.855863555
  0
SEQEND
  8
0
  0
ENDBLK
  0
ENDSEC
  0
SECTION
  2
ENTITIES
  0
INSERT
  2
SKETCH001
  8
0
 10
0.0
 20
0.0
 30
0.0
  0
ENDSEC
  0
EOF
