  0
SECTION
  2
HEADER
  9
$ACADVER
  1
AC1009
  9
$INSBASE
 10
0.0
 20
0.0
 30
0.0
  9
$EXTMIN
 10
0.0
 20
0.0
 30
0.0
  9
$EXTMAX
 10
0.0
 20
0.0
 30
0.0
  0
ENDSEC
  0
SECTION
  2
TABLES
  0
TABLE
  2
VPORT
 70
0
  0
ENDTAB
  0
TABLE
  2
LTYPE
 70
1
  0
LTYPE
  2
CONTINUOUS
 70
0
  3
Solid line
 72
65
 73
0
 40
0.0
  0
ENDTAB
  0
TABLE
  2
LAYER
 70
1
  0
LAYER
  2
PYDXF
 70
64
 62
7
  6
continuous
  0
ENDTAB
  0
TABLE
  2
STYLE
 70
1
  0
STYLE
  2
STANDARD
 70
0
 40
0
 41
1.0
 50
0.0
 71
0
 42
1
 3
ARIAL.TTF
 4

  0
ENDTAB
  0
TABLE
  2
VIEW
 70
0
  0
ENDTAB
  0
ENDSEC
  0
SECTION
  2
BLOCKS
  0
BLOCK
  8
0
  2
SKETCH
 70
0
 10
0.0
 20
0.0
 30
0.0
  3
SKETCH
  0
POLYLINE
  8
0
 62
7
 70
1
 66
1
 10
0.0
 20
0.0
 30
0.0
  0
VERTEX
  8
0
 10
0.0
 20
0.0
  0
VERTEX
  8
0
 10
18.2623851247
 20
0.0
  0
VERTEX
  8
0
 10
18.2623851247
 20
-45.116013
  0
VERTEX
  8
0
 10
36.6623851247
 20
-45.116013
  0
VERTEX
  8
0
 10
36.6623851247
 20
0.0
  0
VERTEX
  8
0
 10
287.122776411
 20
-2.73496069542e-13
 42
0.292909574697
  0
VERTEX
  8
0
 10
294.615740633
 20
10.8518935764
  0
VERTEX
  8
0
 10
294.615740633
 20
107.0
  0
VERTEX
  8
0
 10
334.615740633
 20
107.0
  0
VERTEX
  8
0
 10
334.615740633
 20
15.1501886279
 42
0.426758460255
  0
VERTEX
  8
0
 10
347.733630477
 20
-9.94994017733e-14
  0
VERTEX
  8
0
 10
595.109192
 20
27.369535
  0
VERTEX
  8
0
 10
680.550415
 20
49.068867
  0
VERTEX
  8
0
 10
726.661621
 20
84.330376
  0
VERTEX
  8
0
 10
759.210571
 20
115.523163
  0
VERTEX
  8
0
 10
821.596313
 20
137.222534
  0
VERTEX
  8
0
 10
931.449341
 20
125.016655
  0
VERTEX
  8
0
 10
1023.67157
 20
92.467606
  0
VERTEX
  8
0
 10
1052.1521
 20
65.343391
  0
VERTEX
  8
0
 10
1102.331787
 20
53.137516
  0
VERTEX
  8
0
 10
1145.920776
 20
69.460716
  0
VERTEX
  8
0
 10
1181.80997823
 20
85.8923339015
 42
-0.941808111319
  0
VERTEX
  8
0
 10
1186.945679
 20
13.389709
  0
VERTEX
  8
0
 10
1159.850098
 20
1.07353
  0
VERTEX
  8
0
 10
1095.80603
 20
-13.70585
  0
VERTEX
  8
0
 10
1036.688477
 20
-1.389671
  0
VERTEX
  8
0
 10
1008.77179
 20
14.210775
  0
VERTEX
  8
0
 10
925.021912
 20
45.411755
  0
VERTEX
  8
0
 10
825.671509
 20
59.370068
  0
VERTEX
  8
0
 10
776.83606
 20
43.861128
  0
VERTEX
  8
0
 10
743.706482
 20
15.700993
  0
VERTEX
  8
0
 10
694.026428
 20
-25.710937
  0
VERTEX
  8
0
 10
599.607117
 20
-43.932194
  0
VERTEX
  8
0
 10
351.149536
 20
-55.642208
  0
VERTEX
  8
0
 10
272.900871
 20
-70.819817
  0
VERTEX
  8
0
 10
0.0
 20
-70.819817
  0
SEQEND
  8
0
  0
POLYLINE
  8
0
 62
7
 70
1
 66
1
 10
0.0
 20
0.0
 30
0.0
  0
VERTEX
  8
0
 10
120.35569
 20
-11.789964
  0
VERTEX
  8
0
 10
169.106476
 20
-11.789964
  0
VERTEX
  8
0
 10
169.106476
 20
-20.865305
  0
VERTEX
  8
0
 10
120.35569
 20
-20.865305
  0
SEQEND
  8
0
  0
CIRCLE
  8
0
 62
7
 10
398.493958
 20
-20.539234
 30
0.0
 40
4.1
  0
POLYLINE
  8
0
 62
7
 70
0
 66
1
 10
0.0
 20
0.0
 30
0.0
  0
VERTEX
  8
0
 10
947.276359294
 20
-23.9071461134
  0
VERTEX
  8
0
 10
947.276359294
 20
-67.997437
  0
VERTEX
  8
0
 10
928.876359294
 20
-67.997437
  0
VERTEX
  8
0
 10
928.876359294
 20
-37.144867
  0
VERTEX
  8
0
 10
674.008789
 20
-37.144867
  0
VERTEX
  8
0
 10
674.008789
 20
-101.434219
  0
VERTEX
  8
0
 10
927.85791
 20
-101.434219
  0
VERTEX
  8
0
 10
949.684326
 20
-99.102859
  0
VERTEX
  8
0
 10
977.723267
 20
-96.520317
  0
VERTEX
  8
0
 10
1012.403015
 20
-111.646599
  0
VERTEX
  8
0
 10
1040.810913
 20
-119.025276
  0
VERTEX
  8
0
 10
1097.626709
 20
-110.170868
  0
VERTEX
  8
0
 10
1128.39917
 20
-88.297256
  0
VERTEX
  8
0
 10
1150.27635929
 20
-83.9071461134
 42
1.0
  0
VERTEX
  8
0
 10
1150.27635929
 20
-23.9071461134
  0
VERTEX
  8
0
 10
1135.239868
 20
-30.345451
  0
VERTEX
  8
0
 10
1122.321045
 20
-34.425087
  0
VERTEX
  8
0
 10
1110.761963
 20
-39.864609
  0
VERTEX
  8
0
 10
1094.443359
 20
-50.063747
  0
VERTEX
  8
0
 10
1046.847534
 20
-54.823326
  0
VERTEX
  8
0
 10
1027.129272
 20
-50.743694
  0
VERTEX
  8
0
 10
999.931641
 20
-35.784977
  0
VERTEX
  8
0
 10
984.032349
 20
-22.321684
  0
VERTEX
  8
0
 10
956.995361
 20
23.190588
  0
VERTEX
  8
0
 10
947.53241
 20
23.641199
  0
SEQEND
  8
0
  0
POLYLINE
  8
0
 62
7
 70
1
 66
1
 10
0.0
 20
0.0
 30
0.0
  0
VERTEX
  8
0
 10
686.557495
 20
-46.977786911
  0
VERTEX
  8
0
 10
734.358398
 20
-46.977786911
  0
VERTEX
  8
0
 10
734.358398
 20
-53.6949603546
  0
VERTEX
  8
0
 10
686.557495
 20
-53.6949603546
  0
SEQEND
  8
0
  0
POLYLINE
  8
0
 62
7
 70
1
 66
1
 10
0.0
 20
0.0
 30
0.0
  0
VERTEX
  8
0
 10
847.254761
 20
-46.977786911
  0
VERTEX
  8
0
 10
875.614929
 20
-46.977786911
  0
VERTEX
  8
0
 10
875.614929
 20
-53.6949603546
  0
VERTEX
  8
0
 10
847.254761
 20
-53.6949603546
  0
SEQEND
  8
0
  0
POLYLINE
  8
0
 62
7
 70
1
 66
1
 10
0.0
 20
0.0
 30
0.0
  0
VERTEX
  8
0
 10
62.0544147526
 20
175.405191066
 42
0.915216327171
  0
VERTEX
  8
0
 10
26.7519252465
 20
191.330261102
 42
0.345922081135
  0
VERTEX
  8
0
 10
60.9848109086
 20
80.8183317049
  0
VERTEX
  8
0
 10
60.9848109086
 20
15.1080490669
  0
VERTEX
  8
0
 10
104.978885012
 20
15.1080490669
  0
VERTEX
  8
0
 10
104.978885012
 20
59.3632215122
  0
VERTEX
  8
0
 10
123.378885012
 20
59.3632215122
  0
VERTEX
  8
0
 10
123.378885012
 20
15.1080490669
  0
VERTEX
  8
0
 10
167.372937216
 20
15.0641536239
  0
VERTEX
  8
0
 10
167.372937216
 20
80.7744362619
 42
0.340851864958
  0
VERTEX
  8
0
 10
202.241188413
 20
189.727598467
 42
0.947246713853
  0
VERTEX
  8
0
 10
166.776309926
 20
173.932408035
 42
-1.37142718673
  0
SEQEND
  8
0
  0
POLYLINE
  8
0
 62
7
 70
0
 66
1
 10
0.0
 20
0.0
 30
0.0
  0
VERTEX
  8
0
 10
947.127869
 20
-29.53845
  0
VERTEX
  8
0
 10
947.127869
 20
23.190588
  0
SEQEND
  8
0
  0
POLYLINE
  8
0
 62
7
 70
1
 66
1
 10
0.0
 20
0.0
 30
0.0
  0
VERTEX
  8
0
 10
287.912370091
 20
248.155863555
  0
VERTEX
  8
0
 10
659.912370091
 20
248.155863555
 42
-1.0
  0
VERTEX
  8
0
 10
659.912370091
 20
121.155863555
  0
VERTEX
  8
0
 10
287.912370091
 20
121.155863555
  0
VERTEX
  8
0
 10
287.912370091
 20
175.455863555
  0
VERTEX
  8
0
 10
341.912370091
 20
175.455863555
  0
VERTEX
  8
0
 10
341.912370091
 20
193.855863555
  0
VERTEX
  8
0
 10
287.912370091
 20
193.855863555
  0
SEQEND
  8
0
  0
ENDBLK
  0
BLOCK
  8
0
  2
SKETCH001
 70
0
 10
0.0
 20
0.0
 30
0.0
  3
SKETCH001
  0
POLYLINE
  8
0
 62
7
 70
1
 66
1
 10
0.0
 20
0.0
 30
0.0
  0
VERTEX
  8
0
 10
30.0
 20
350.0
  0
VERTEX
  8
0
 10
48.2623851247
 20
350.0
  0
VERTEX
  8
0
 10
48.2623851247
 20
304.883987
  0
VERTEX
  8
0
 10
66.6623851247
 20
304.883987
  0
VERTEX
  8
0
 10
66.6623851247
 20
350.0
  0
VERTEX
  8
0
 10
317.122776411
 20
350.0
 42
0.292909574697
  0
VERTEX
  8
0
 10
324.615740633
 20
360.851893576
  0
VERTEX
  8
0
 10
324.615740633
 20
457.0
  0
VERTEX
  8
0
 10
364.615740633
 20
457.0
  0
VERTEX
  8
0
 10
364.615740633
 20
365.150188628
 42
0.426758460255
  0
VERTEX
  8
0
 10
377.733630477
 20
350.0
  0
VERTEX
  8
0
 10
625.109192
 20
377.369535
  0
VERTEX
  8
0
 10
710.550415
 20
399.068867
  0
VERTEX
  8
0
 10
756.661621
 20
434.330376
  0
VERTEX
  8
0
 10
789.210571
 20
465.523163
  0
VERTEX
  8
0
 10
851.596313
 20
487.222534
  0
VERTEX
  8
0
 10
961.449341
 20
475.016655
  0
VERTEX
  8
0
 10
1053.67157
 20
442.467606
  0
VERTEX
  8
0
 10
1082.1521
 20
415.343391
  0
VERTEX
  8
0
 10
1132.331787
 20
403.137516
  0
VERTEX
  8
0
 10
1175.920776
 20
419.460716
  0
VERTEX
  8
0
 10
1211.80997823
 20
435.892333901
 42
-0.941808111319
  0
VERTEX
  8
0
 10
1216.945679
 20
363.389709
  0
VERTEX
  8
0
 10
1189.850098
 20
351.07353
  0
VERTEX
  8
0
 10
1125.80603
 20
336.29415
  0
VERTEX
  8
0
 10
1066.688477
 20
348.610329
  0
VERTEX
  8
0
 10
1038.77179
 20
364.210775
  0
VERTEX
  8
0
 10
955.021912
 20
395.411755
  0
VERTEX
  8
0
 10
855.671509
 20
409.370068
  0
VERTEX
  8
0
 10
806.83606
 20
393.861128
  0
VERTEX
  8
0
 10
773.706482
 20
365.700993
  0
VERTEX
  8
0
 10
724.026428
 20
324.289063
  0
VERTEX
  8
0
 10
629.607117
 20
306.067806
  0
VERTEX
  8
0
 10
381.149536
 20
294.357792
  0
VERTEX
  8
0
 10
302.900871
 20
279.180183
  0
VERTEX
  8
0
 10
30.0
 20
279.180183
  0
SEQEND
  8
0
  0
POLYLINE
  8
0
 62
7
 70
1
 66
1
 10
0.0
 20
0.0
 30
0.0
  0
VERTEX
  8
0
 10
150.35569
 20
338.210036
  0
VERTEX
  8
0
 10
199.106476
 20
338.210036
  0
VERTEX
  8
0
 10
199.106476
 20
329.134695
  0
VERTEX
  8
0
 10
150.35569
 20
329.134695
  0
SEQEND
  8
0
  0
CIRCLE
  8
0
 62
7
 10
428.493958
 20
329.460766
 30
0.0
 40
4.1
  0
POLYLINE
  8
0
 62
7
 70
0
 66
1
 10
0.0
 20
0.0
 30
0.0
  0
VERTEX
  8
0
 10
977.276359294
 20
326.092853887
  0
VERTEX
  8
0
 10
977.276359294
 20
282.002563
  0
VERTEX
  8
0
 10
958.876359294
 20
282.002563
  0
VERTEX
  8
0
 10
958.876359294
 20
312.855133
  0
VERTEX
  8
0
 10
704.008789
 20
312.855133
  0
VERTEX
  8
0
 10
704.008789
 20
248.565781
  0
VERTEX
  8
0
 10
957.85791
 20
248.565781
  0
VERTEX
  8
0
 10
979.684326
 20
250.897141
  0
VERTEX
  8
0
 10
1007.723267
 20
253.479683
  0
VERTEX
  8
0
 10
1042.403015
 20
238.353401
  0
VERTEX
  8
0
 10
1070.810913
 20
230.974724
  0
VERTEX
  8
0
 10
1127.626709
 20
239.829132
  0
VERTEX
  8
0
 10
1158.39917
 20
261.702744
  0
VERTEX
  8
0
 10
1180.27635929
 20
266.092853887
 42
1.0
  0
VERTEX
  8
0
 10
1180.27635929
 20
326.092853887
  0
VERTEX
  8
0
 10
1165.239868
 20
319.654549
  0
VERTEX
  8
0
 10
1152.321045
 20
315.574913
  0
VERTEX
  8
0
 10
1140.761963
 20
310.135391
  0
VERTEX
  8
0
 10
1124.443359
 20
299.936253
  0
VERTEX
  8
0
 10
1076.847534
 20
295.176674
  0
VERTEX
  8
0
 10
1057.129272
 20
299.256306
  0
VERTEX
  8
0
 10
1029.931641
 20
314.215023
  0
VERTEX
  8
0
 10
1014.032349
 20
327.678316
  0
VERTEX
  8
0
 10
986.995361
 20
373.190588
  0
VERTEX
  8
0
 10
977.53241
 20
373.641199
  0
SEQEND
  8
0
  0
POLYLINE
  8
0
 62
7
 70
1
 66
1
 10
0.0
 20
0.0
 30
0.0
  0
VERTEX
  8
0
 10
716.557495
 20
303.022213089
  0
VERTEX
  8
0
 10
764.358398
 20
303.022213089
  0
VERTEX
  8
0
 10
764.358398
 20
296.305039645
  0
VERTEX
  8
0
 10
716.557495
 20
296.305039645
  0
SEQEND
  8
0
  0
POLYLINE
  8
0
 62
7
 70
1
 66
1
 10
0.0
 20
0.0
 30
0.0
  0
VERTEX
  8
0
 10
877.254761
 20
303.022213089
  0
VERTEX
  8
0
 10
905.614929
 20
303.022213089
  0
VERTEX
  8
0
 10
905.614929
 20
296.305039645
  0
VERTEX
  8
0
 10
877.254761
 20
296.305039645
  0
SEQEND
  8
0
  0
POLYLINE
  8
0
 62
7
 70
1
 66
1
 10
0.0
 20
0.0
 30
0.0
  0
VERTEX
  8
0
 10
92.0544147526
 20
525.405191066
 42
0.915216327171
  0
VERTEX
  8
0
 10
56.7519252465
 20
541.330261102
 42
0.345922081135
  0
VERTEX
  8
0
 10
90.9848109086
 20
430.818331705
  0
VERTEX
  8
0
 10
90.9848109086
 20
365.108049067
  0
VERTEX
  8
0
 10
134.978885012
 20
365.108049067
  0
VERTEX
  8
0
 10
134.978885012
 20
409.363221512
  0
VERTEX
  8
0
 10
153.378885012
 20
409.363221512
  0
VERTEX
  8
0
 10
153.378885012
 20
365.108049067
  0
VERTEX
  8
0
 10
197.372937216
 20
365.064153624
  0
VERTEX
  8
0
 10
197.372937216
 20
430.774436262
 42
0.340851864958
  0
VERTEX
  8
0
 10
232.241188413
 20
539.727598467
 42
0.947246713853
  0
VERTEX
  8
0
 10
196.776309926
 20
523.932408035
 42
-1.37142718673
  0
SEQEND
  8
0
  0
POLYLINE
  8
0
 62
7
 70
0
 66
1
 10
0.0
 20
0.0
 30
0.0
  0
VERTEX
  8
0
 10
977.127869
 20
320.46155
  0
VERTEX
  8
0
 10
977.127869
 20
373.190588
  0
SEQEND
  8
0
  0
POLYLINE
  8
0
 62
7
 70
1
 66
1
 10
0.0
 20
0.0
 30
0.0
  0
VERTEX
  8
0
 10
317.912370091
 20
598.155863555
  0
VERTEX
  8
0
 10
689.912370091
 20
598.155863555
 42
-1.0
  0
VERTEX
  8
0
 10
689.912370091
 20
471.155863555
  0
VERTEX
  8
0
 10
317.912370091
 20
471.155863555
  0
VERTEX
  8
0
 10
317.912370091
 20
525.455863555
  0
VERTEX
  8
0
 10
371.912370091
 20
525.455863555
  0
VERTEX
  8
0
 10
371.912370091
 20
543.855863555
  0
VERTEX
  8
0
 10
317.912370091
 20
543.855863555
  0
SEQEND
  8
0
  0
ENDBLK
  0
BLOCK
  8
0
  2
SKETCH003
 70
0
 10
0.0
 20
0.0
 30
0.0
  3
SKETCH003
  0
POLYLINE
  8
0
 62
7
 70
0
 66
1
 10
0.0
 20
0.0
 30
0.0
  0
VERTEX
  8
0
 10
1418.846191
 20
597.246399
  0
VERTEX
  8
0
 10
1423.109253
 20
544.188721
  0
VERTEX
  8
0
 10
1433.712891
 20
506.215024857
  0
VERTEX
  8
0
 10
1404.721436
 20
506.215024857
  0
VERTEX
  8
0
 10
1404.721436
 20
487.815024857
  0
VERTEX
  8
0
 10
1441.103271
 20
487.815024857
  0
VERTEX
  8
0
 10
1471.366699
 20
437.496277
  0
VERTEX
  8
0
 10
1503.875122
 20
384.151947
  0
VERTEX
  8
0
 10
1504.954468
 20
381.872606805
  0
VERTEX
  8
0
 10
1456.92627
 20
381.872606805
  0
VERTEX
  8
0
 10
1456.92627
 20
363.472606805
  0
VERTEX
  8
0
 10
1506.573364
 20
363.472606805
  0
VERTEX
  8
0
 10
1511.698486
 20
317.892822
  0
VERTEX
  8
0
 10
1506.868164
 20
263.46079369
  0
VERTEX
  8
0
 10
1465.53021122
 20
263.46079369
  0
VERTEX
  8
0
 10
1465.53021122
 20
245.06079369
  0
VERTEX
  8
0
 10
1506.05816158
 20
245.06079369
  0
VERTEX
  8
0
 10
1504.192139
 20
233.979034
  0
VERTEX
  8
0
 10
1482.844971
 20
158.202288875
  0
VERTEX
  8
0
 10
1423.847412
 20
158.202288875
  0
VERTEX
  8
0
 10
1423.847412
 20
139.802288875
  0
VERTEX
  8
0
 10
1472.028809
 20
139.802288875
  0
VERTEX
  8
0
 10
1433.530396
 20
21.34313
  0
VERTEX
  8
0
 10
1425.66394
 20
-10.0008041247
  0
VERTEX
  8
0
 10
1380.432495
 20
-10.0008041247
  0
VERTEX
  8
0
 10
1381.415771
 20
-28.4008041247
  0
VERTEX
  8
0
 10
1422.714111
 20
-28.4008041247
  0
VERTEX
  8
0
 10
1416.657837
 20
-65.825989
  0
VERTEX
  8
0
 10
1403.52771
 20
-109.593155
  0
VERTEX
  8
0
 10
1245.965942
 20
-109.593155
  0
VERTEX
  8
0
 10
1248.154297
 20
-87.709572
  0
VERTEX
  8
0
 10
1307.108887
 20
-60.602161
  0
VERTEX
  8
0
 10
1337.876953
 20
-22.058847
  0
VERTEX
  8
0
 10
1346.630371
 20
26.085009
  0
VERTEX
  8
0
 10
1324.746704
 20
78.605614
  0
VERTEX
  8
0
 10
1287.5448
 20
122.37278
  0
VERTEX
  8
0
 10
1266.04237345
 20
137.691254
  0
VERTEX
  8
0
 10
1266.04237345
 20
183.64682
  0
VERTEX
  8
0
 10
1266.04237345
 20
276.277356816
  0
VERTEX
  8
0
 10
1281.04237345
 20
276.277356816
  0
VERTEX
  8
0
 10
1281.04237345
 20
294.677356816
  0
VERTEX
  8
0
 10
1266.04237345
 20
294.677356816
  0
VERTEX
  8
0
 10
1269.446899
 20
364.283966
  0
VERTEX
  8
0
 10
1269.446899
 20
518.465515
  0
VERTEX
  8
0
 10
1311.616699
 20
623.506714
  0
VERTEX
  8
0
 10
1344.442017
 20
671.650574
  0
VERTEX
  8
0
 10
1381.644043
 20
728.547913
  0
VERTEX
  8
0
 10
1394.77417
 20
787.633484
  0
VERTEX
  8
0
 10
1381.644043
 20
822.647217
  0
VERTEX
  8
0
 10
1340.065308
 20
870.791199
  0
VERTEX
  8
0
 10
1287.5448
 20
929.87677
  0
VERTEX
  8
0
 10
1248.154297
 20
964.890503
  0
VERTEX
  8
0
 10
1235.024048
 20
991.150818
  0
VERTEX
  8
0
 10
1230.647339
 20
1032.729614
  0
VERTEX
  8
0
 10
1248.154297
 20
1058.98999
  0
VERTEX
  8
0
 10
1276.602905
 20
1074.30835
  0
VERTEX
  8
0
 10
1270.037964
 20
1039.294678
  0
VERTEX
  8
0
 10
1274.414551
 20
1010.846008
  0
VERTEX
  8
0
 10
1302.863281
 20
978.020752
  0
VERTEX
  8
0
 10
1348.818726
 20
940.818542
  0
VERTEX
  8
0
 10
1434.164673
 20
866.414429
  0
VERTEX
  8
0
 10
1466.98999
 20
811.705505
  0
VERTEX
  8
0
 10
1471.366699
 20
758.544802875
  0
VERTEX
  8
0
 10
1434.384033
 20
758.544802875
  0
VERTEX
  8
0
 10
1434.384033
 20
740.144802875
  0
VERTEX
  8
0
 10
1468.196289
 20
740.144802875
  0
VERTEX
  8
0
 10
1458.001587
 20
701.649353
  0
VERTEX
  8
0
 10
1417.795776
 20
616.306975322
  0
VERTEX
  8
0
 10
1390.402832
 20
616.306975322
  0
VERTEX
  8
0
 10
1390.402832
 20
597.906975322
  0
VERTEX
  8
0
 10
1418.237549
 20
597.906975322
  0
SEQEND
  8
0
  0
POLYLINE
  8
0
 62
7
 70
1
 66
1
 10
0.0
 20
0.0
 30
0.0
  0
VERTEX
  8
0
 10
1291.921509
 20
476.88678
  0
VERTEX
  8
0
 10
1302.863281
 20
476.88678
  0
VERTEX
  8
0
 10
1302.863281
 20
400.29422
  0
VERTEX
  8
0
 10
1291.921509
 20
400.29422
  0
SEQEND
  8
0
  0
POLYLINE
  8
0
 62
7
 70
1
 66
1
 10
0.0
 20
0.0
 30
0.0
  0
VERTEX
  8
0
 10
1298.48645
 20
223.037216
  0
VERTEX
  8
0
 10
1309.428223
 20
223.037216
  0
VERTEX
  8
0
 10
1309.428223
 20
144.256363
  0
VERTEX
  8
0
 10
1298.48645
 20
144.256363
  0
SEQEND
  8
0
  0
POLYLINE
  8
0
 62
7
 70
1
 66
1
 10
0.0
 20
0.0
 30
0.0
  0
VERTEX
  8
0
 10
1287.78772
 20
-96.024445
  0
VERTEX
  8
0
 10
1377.148438
 20
-96.024445
  0
VERTEX
  8
0
 10
1377.148438
 20
-83.948662
  0
VERTEX
  8
0
 10
1287.78772
 20
-83.948662
  0
SEQEND
  8
0
  0
POLYLINE
  8
0
 62
7
 70
1
 66
1
 10
0.0
 20
0.0
 30
0.0
  0
VERTEX
  8
0
 10
1034.838379
 20
138.687332
  0
VERTEX
  8
0
 10
1105.669189
 20
138.687332
  0
VERTEX
  8
0
 10
1105.669189
 20
169.242356
 42
0.414213562373
  0
VERTEX
  8
0
 10
1093.118042
 20
181.793503
  0
VERTEX
  8
0
 10
963.664429
 20
181.793503
 42
0.414213562373
  0
VERTEX
  8
0
 10
954.24231
 20
172.371384
  0
VERTEX
  8
0
 10
954.24231
 20
139.511948
  0
VERTEX
  8
0
 10
1016.05881318
 20
139.511948
  0
VERTEX
  8
0
 10
1016.05881318
 20
166.793503
  0
VERTEX
  8
0
 10
1034.45881318
 20
166.793503
  0
SEQEND
  8
0
  0
ENDBLK
  0
ENDSEC
  0
SECTION
  2
ENTITIES
  0
INSERT
  2
SKETCH
  8
0
 10
0.0
 20
0.0
 30
0.0
  0
INSERT
  2
SKETCH001
  8
0
 10
0.0
 20
0.0
 30
0.0
  0
INSERT
  2
SKETCH003
  8
0
 10
0.0
 20
0.0
 30
0.0
  0
POLYLINE
  8
0
 62
7
 70
1
 66
1
 10
0.0
 20
0.0
 30
0.0
  0
VERTEX
  8
0
 10
29.807982259
 20
607.202908326
  0
VERTEX
  8
0
 10
29.807982259
 20
665.200130934
  0
VERTEX
  8
0
 10
76.894455
 20
682.338196
  0
VERTEX
  8
0
 10
161.833650726
 20
700.839132739
  0
VERTEX
  8
0
 10
306.623585416
 20
699.702960651
  0
VERTEX
  8
0
 10
362.652539937
 20
723.575509515
  0
VERTEX
  8
0
 10
362.807982259
 20
753.14825405
  0
VERTEX
  8
0
 10
381.807982259
 20
753.14825405
  0
VERTEX
  8
0
 10
381.652539937
 20
723.575509515
  0
VERTEX
  8
0
 10
437.681494459
 20
699.702960651
  0
VERTEX
  8
0
 10
582.471429149
 20
700.839132739
  0
VERTEX
  8
0
 10
667.410624874
 20
682.338196
  0
VERTEX
  8
0
 10
714.807982259
 20
666.079668934
  0
VERTEX
  8
0
 10
714.807982259
 20
608.082446326
  0
VERTEX
  8
0
 10
670.447191789
 20
637.699905418
  0
VERTEX
  8
0
 10
650.139607465
 20
641.834122321
  0
VERTEX
  8
0
 10
465.48386412
 20
636.816186062
  0
VERTEX
  8
0
 10
381.207982259
 20
636.816186062
  0
VERTEX
  8
0
 10
381.207982259
 20
671.433087344
  0
VERTEX
  8
0
 10
362.807982259
 20
671.433087344
  0
VERTEX
  8
0
 10
362.807982259
 20
636.816186062
  0
VERTEX
  8
0
 10
278.532100398
 20
636.816186062
  0
VERTEX
  8
0
 10
93.8763570529
 20
641.834122321
  0
VERTEX
  8
0
 10
73.5687727286
 20
637.699905418
  0
SEQEND
  8
0
  0
POLYLINE
  8
0
 62
7
 70
1
 66
1
 10
0.0
 20
0.0
 30
0.0
  0
VERTEX
  8
0
 10
29.807982259
 20
737.202908326
  0
VERTEX
  8
0
 10
29.807982259
 20
795.200130934
  0
VERTEX
  8
0
 10
76.894455
 20
812.338196
  0
VERTEX
  8
0
 10
161.833650726
 20
830.839132739
  0
VERTEX
  8
0
 10
306.623585416
 20
829.702960651
  0
VERTEX
  8
0
 10
362.652539937
 20
853.575509515
  0
VERTEX
  8
0
 10
362.807982259
 20
883.14825405
  0
VERTEX
  8
0
 10
381.807982259
 20
883.14825405
  0
VERTEX
  8
0
 10
381.652539937
 20
853.575509515
  0
VERTEX
  8
0
 10
437.681494459
 20
829.702960651
  0
VERTEX
  8
0
 10
582.471429149
 20
830.839132739
  0
VERTEX
  8
0
 10
667.410624874
 20
812.338196
  0
VERTEX
  8
0
 10
714.807982259
 20
796.079668934
  0
VERTEX
  8
0
 10
714.807982259
 20
738.082446326
  0
VERTEX
  8
0
 10
670.447191789
 20
767.699905418
  0
VERTEX
  8
0
 10
650.139607465
 20
771.834122321
  0
VERTEX
  8
0
 10
465.48386412
 20
766.816186062
  0
VERTEX
  8
0
 10
381.207982259
 20
766.816186062
  0
VERTEX
  8
0
 10
381.207982259
 20
801.433087344
  0
VERTEX
  8
0
 10
362.807982259
 20
801.433087344
  0
VERTEX
  8
0
 10
362.807982259
 20
766.816186062
  0
VERTEX
  8
0
 10
278.532100398
 20
766.816186062
  0
VERTEX
  8
0
 10
93.8763570529
 20
771.834122321
  0
VERTEX
  8
0
 10
73.5687727286
 20
767.699905418
  0
SEQEND
  8
0
  0
POLYLINE
  8
0
 62
7
 70
1
 66
1
 10
0.0
 20
0.0
 30
0.0
  0
VERTEX
  8
0
 10
764.792354912
 20
465.012626197
  0
VERTEX
  8
0
 10
786.373437957
 20
499.300692359
  0
VERTEX
  8
0
 10
845.6960753
 20
529.270664148
  0
VERTEX
  8
0
 10
907.902782922
 20
548.117864557
  0
VERTEX
  8
0
 10
940.592354912
 20
556.452151364
  0
VERTEX
  8
0
 10
940.592354912
 20
603.963295332
  0
VERTEX
  8
0
 10
958.992354912
 20
603.963295332
  0
VERTEX
  8
0
 10
958.992354912
 20
556.452151364
  0
VERTEX
  8
0
 10
991.681926902
 20
548.117864557
  0
VERTEX
  8
0
 10
1053.88863452
 20
529.270664148
  0
VERTEX
  8
0
 10
1113.21127187
 20
499.300692359
  0
VERTEX
  8
0
 10
1134.79235491
 20
465.012626197
  0
VERTEX
  8
0
 10
1127.26190877
 20
512.297737747
  0
VERTEX
  8
0
 10
1081.45115332
 20
570.571015373
  0
VERTEX
  8
0
 10
992.640252397
 20
606.954527015
  0
VERTEX
  8
0
 10
977.506808243
 20
642.707259263
  0
VERTEX
  8
0
 10
954.392354912
 20
687.158248987
  0
VERTEX
  8
0
 10
945.192354912
 20
687.158248987
  0
VERTEX
  8
0
 10
922.077901581
 20
642.707259263
  0
VERTEX
  8
0
 10
906.944457427
 20
606.954527015
  0
VERTEX
  8
0
 10
818.133556501
 20
570.571015373
  0
VERTEX
  8
0
 10
772.32280105
 20
512.297737747
  0
SEQEND
  8
0
  0
POLYLINE
  8
0
 62
7
 70
1
 66
1
 10
0.0
 20
0.0
 30
0.0
  0
VERTEX
  8
0
 10
764.792354912
 20
625.012626197
  0
VERTEX
  8
0
 10
786.373437957
 20
659.300692359
  0
VERTEX
  8
0
 10
845.6960753
 20
689.270664148
  0
VERTEX
  8
0
 10
907.902782922
 20
708.117864557
  0
VERTEX
  8
0
 10
940.592354912
 20
716.452151364
  0
VERTEX
  8
0
 10
940.592354912
 20
763.963295332
  0
VERTEX
  8
0
 10
958.992354912
 20
763.963295332
  0
VERTEX
  8
0
 10
958.992354912
 20
716.452151364
  0
VERTEX
  8
0
 10
991.681926902
 20
708.117864557
  0
VERTEX
  8
0
 10
1053.88863452
 20
689.270664148
  0
VERTEX
  8
0
 10
1113.21127187
 20
659.300692359
  0
VERTEX
  8
0
 10
1134.79235491
 20
625.012626197
  0
VERTEX
  8
0
 10
1127.26190877
 20
672.297737747
  0
VERTEX
  8
0
 10
1081.45115332
 20
730.571015373
  0
VERTEX
  8
0
 10
992.640252397
 20
766.954527015
  0
VERTEX
  8
0
 10
977.506808243
 20
802.707259263
  0
VERTEX
  8
0
 10
954.392354912
 20
847.158248987
  0
VERTEX
  8
0
 10
945.192354912
 20
847.158248987
  0
VERTEX
  8
0
 10
922.077901581
 20
802.707259263
  0
VERTEX
  8
0
 10
906.944457427
 20
766.954527015
  0
VERTEX
  8
0
 10
818.133556501
 20
730.571015373
  0
VERTEX
  8
0
 10
772.32280105
 20
672.297737747
  0
SEQEND
  8
0
  0
POLYLINE
  8
0
 62
7
 70
1
 66
1
 10
0.0
 20
0.0
 30
0.0
  0
VERTEX
  8
0
 10
764.792354912
 20
785.012626197
  0
VERTEX
  8
0
 10
786.373437957
 20
819.300692359
  0
VERTEX
  8
0
 10
845.6960753
 20
849.270664148
  0
VERTEX
  8
0
 10
907.902782922
 20
868.117864557
  0
VERTEX
  8
0
 10
940.592354912
 20
876.452151364
  0
VERTEX
  8
0
 10
940.592354912
 20
923.963295332
  0
VERTEX
  8
0
 10
958.992354912
 20
923.963295332
  0
VERTEX
  8
0
 10
958.992354912
 20
876.452151364
  0
VERTEX
  8
0
 10
991.681926902
 20
868.117864557
  0
VERTEX
  8
0
 10
1053.88863452
 20
849.270664148
  0
VERTEX
  8
0
 10
1113.21127187
 20
819.300692359
  0
VERTEX
  8
0
 10
1134.79235491
 20
785.012626197
  0
VERTEX
  8
0
 10
1127.26190877
 20
832.297737747
  0
VERTEX
  8
0
 10
1081.45115332
 20
890.571015373
  0
VERTEX
  8
0
 10
992.640252397
 20
926.954527015
  0
VERTEX
  8
0
 10
977.506808243
 20
962.707259263
  0
VERTEX
  8
0
 10
954.392354912
 20
1007.15824899
  0
VERTEX
  8
0
 10
945.192354912
 20
1007.15824899
  0
VERTEX
  8
0
 10
922.077901581
 20
962.707259263
  0
VERTEX
  8
0
 10
906.944457427
 20
926.954527015
  0
VERTEX
  8
0
 10
818.133556501
 20
890.571015373
  0
VERTEX
  8
0
 10
772.32280105
 20
832.297737747
  0
SEQEND
  8
0
  0
POLYLINE
  8
0
 62
7
 70
1
 66
1
 10
0.0
 20
0.0
 30
0.0
  0
VERTEX
  8
0
 10
194.792354912
 20
845.012626197
  0
VERTEX
  8
0
 10
216.373437957
 20
879.300692359
  0
VERTEX
  8
0
 10
275.6960753
 20
909.270664148
  0
VERTEX
  8
0
 10
337.902782922
 20
928.117864557
  0
VERTEX
  8
0
 10
370.592354912
 20
936.452151364
  0
VERTEX
  8
0
 10
370.592354912
 20
983.963295332
  0
VERTEX
  8
0
 10
388.992354912
 20
983.963295332
  0
VERTEX
  8
0
 10
388.992354912
 20
936.452151364
  0
VERTEX
  8
0
 10
421.681926902
 20
928.117864557
  0
VERTEX
  8
0
 10
483.888634524
 20
909.270664148
  0
VERTEX
  8
0
 10
543.211271868
 20
879.300692359
  0
VERTEX
  8
0
 10
564.792354912
 20
845.012626197
  0
VERTEX
  8
0
 10
557.261908774
 20
892.297737747
  0
VERTEX
  8
0
 10
511.451153324
 20
950.571015373
  0
VERTEX
  8
0
 10
422.640252397
 20
986.954527015
  0
VERTEX
  8
0
 10
407.506808243
 20
1022.70725926
  0
VERTEX
  8
0
 10
384.392354912
 20
1067.15824899
  0
VERTEX
  8
0
 10
375.192354912
 20
1067.15824899
  0
VERTEX
  8
0
 10
352.077901581
 20
1022.70725926
  0
VERTEX
  8
0
 10
336.944457427
 20
986.954527015
  0
VERTEX
  8
0
 10
248.133556501
 20
950.571015373
  0
VERTEX
  8
0
 10
202.32280105
 20
892.297737747
  0
SEQEND
  8
0
  0
POLYLINE
  8
0
 62
7
 70
1
 66
1
 10
0.0
 20
0.0
 30
0.0
  0
VERTEX
  8
0
 10
1145.0126262
 20
965.207645088
  0
VERTEX
  8
0
 10
1179.30069236
 20
943.626562043
  0
VERTEX
  8
0
 10
1209.27066415
 20
884.3039247
  0
VERTEX
  8
0
 10
1228.11786456
 20
822.097217078
  0
VERTEX
  8
0
 10
1236.45215136
 20
789.407645088
  0
VERTEX
  8
0
 10
1283.96329533
 20
789.407645088
  0
VERTEX
  8
0
 10
1283.96329533
 20
771.007645088
  0
VERTEX
  8
0
 10
1236.45215136
 20
771.007645088
  0
VERTEX
  8
0
 10
1228.11786456
 20
738.318073098
  0
VERTEX
  8
0
 10
1209.27066415
 20
676.111365476
  0
VERTEX
  8
0
 10
1179.30069236
 20
616.788728132
  0
VERTEX
  8
0
 10
1145.0126262
 20
595.207645088
  0
VERTEX
  8
0
 10
1192.29773775
 20
602.738091226
  0
VERTEX
  8
0
 10
1250.57101537
 20
648.548846676
  0
VERTEX
  8
0
 10
1286.95452702
 20
737.359747603
  0
VERTEX
  8
0
 10
1322.70725926
 20
752.493191757
  0
VERTEX
  8
0
 10
1367.15824899
 20
775.607645088
  0
VERTEX
  8
0
 10
1367.15824899
 20
784.807645088
  0
VERTEX
  8
0
 10
1322.70725926
 20
807.922098419
  0
VERTEX
  8
0
 10
1286.95452702
 20
823.055542573
  0
VERTEX
  8
0
 10
1250.57101537
 20
911.866443499
  0
VERTEX
  8
0
 10
1192.29773775
 20
957.67719895
  0
SEQEND
  8
0
  0
ENDSEC
  0
EOF
