  0
SECTION
  2
HEADER
  9
$ACADVER
  1
AC1009
  9
$INSBASE
 10
0.0
 20
0.0
 30
0.0
  9
$EXTMIN
 10
0.0
 20
0.0
 30
0.0
  9
$EXTMAX
 10
0.0
 20
0.0
 30
0.0
  0
ENDSEC
  0
SECTION
  2
TABLES
  0
TABLE
  2
VPORT
 70
0
  0
ENDTAB
  0
TABLE
  2
LTYPE
 70
1
  0
LTYPE
  2
CONTINUOUS
 70
0
  3
Solid line
 72
65
 73
0
 40
0.0
  0
ENDTAB
  0
TABLE
  2
LAYER
 70
1
  0
LAYER
  2
PYDXF
 70
64
 62
7
  6
continuous
  0
ENDTAB
  0
TABLE
  2
STYLE
 70
1
  0
STYLE
  2
STANDARD
 70
0
 40
0
 41
1.0
 50
0.0
 71
0
 42
1
 3
ARIAL.TTF
 4

  0
ENDTAB
  0
TABLE
  2
VIEW
 70
0
  0
ENDTAB
  0
ENDSEC
  0
SECTION
  2
BLOCKS
  0
BLOCK
  8
Cut-out
  2
SKETCH003
 70
0
 10
0.0
 20
0.0
 30
0.0
  3
SKETCH003
  0
POLYLINE
  8
Cut-out
 62
7
 70
0
 66
1
 10
0.0
 20
0.0
 30
0.0
  0
VERTEX
  8
Cut-out
 10
131.153809
 20
752.753601
  0
VERTEX
  8
Cut-out
 10
126.890747
 20
805.811279
  0
VERTEX
  8
Cut-out
 10
116.287109
 20
846.613402268
  0
VERTEX
  8
Cut-out
 10
145.278564
 20
846.613402268
  0
VERTEX
  8
Cut-out
 10
145.278564
 20
858.713402268
  0
VERTEX
  8
Cut-out
 10
108.896729
 20
858.713402268
  0
VERTEX
  8
Cut-out
 10
78.633301
 20
912.503723
  0
VERTEX
  8
Cut-out
 10
46.124878
 20
965.848053
  0
VERTEX
  8
Cut-out
 10
45.045532
 20
970.95582032
  0
VERTEX
  8
Cut-out
 10
93.07373
 20
970.95582032
  0
VERTEX
  8
Cut-out
 10
93.07373
 20
983.05582032
  0
VERTEX
  8
Cut-out
 10
43.426636
 20
983.05582032
  0
VERTEX
  8
Cut-out
 10
38.301514
 20
1032.107178
  0
VERTEX
  8
Cut-out
 10
43.131836
 20
1089.36763343
  0
VERTEX
  8
Cut-out
 10
84.4697887758
 20
1089.36763343
  0
VERTEX
  8
Cut-out
 10
84.4697887758
 20
1101.46763343
  0
VERTEX
  8
Cut-out
 10
43.941838422
 20
1101.46763343
  0
VERTEX
  8
Cut-out
 10
45.807861
 20
1116.020966
  0
VERTEX
  8
Cut-out
 10
67.155029
 20
1194.62613825
  0
VERTEX
  8
Cut-out
 10
126.152588
 20
1194.62613825
  0
VERTEX
  8
Cut-out
 10
126.152588
 20
1206.72613825
  0
VERTEX
  8
Cut-out
 10
77.971191
 20
1206.72613825
  0
VERTEX
  8
Cut-out
 10
116.469604
 20
1328.65687
  0
VERTEX
  8
Cut-out
 10
124.33606
 20
1362.82923125
  0
VERTEX
  8
Cut-out
 10
169.567505
 20
1362.82923125
  0
VERTEX
  8
Cut-out
 10
168.584229
 20
1374.92923125
  0
VERTEX
  8
Cut-out
 10
127.285889
 20
1374.92923125
  0
VERTEX
  8
Cut-out
 10
133.342163
 20
1415.825989
  0
VERTEX
  8
Cut-out
 10
146.47229
 20
1459.593155
  0
VERTEX
  8
Cut-out
 10
304.034058
 20
1459.593155
  0
VERTEX
  8
Cut-out
 10
301.845703
 20
1437.709572
  0
VERTEX
  8
Cut-out
 10
242.891113
 20
1410.602161
  0
VERTEX
  8
Cut-out
 10
212.123047
 20
1372.058847
  0
VERTEX
  8
Cut-out
 10
203.369629
 20
1323.914991
  0
VERTEX
  8
Cut-out
 10
225.253296
 20
1271.394386
  0
VERTEX
  8
Cut-out
 10
262.4552
 20
1227.62722
  0
VERTEX
  8
Cut-out
 10
283.957626555
 20
1212.308746
  0
VERTEX
  8
Cut-out
 10
283.957626555
 20
1166.35318
  0
VERTEX
  8
Cut-out
 10
283.957626555
 20
1070.25107031
  0
VERTEX
  8
Cut-out
 10
268.957626555
 20
1070.25107031
  0
VERTEX
  8
Cut-out
 10
268.957626555
 20
1058.15107031
  0
VERTEX
  8
Cut-out
 10
283.957626555
 20
1058.15107031
  0
VERTEX
  8
Cut-out
 10
280.553101
 20
985.716034
  0
VERTEX
  8
Cut-out
 10
280.553101
 20
831.534485
  0
VERTEX
  8
Cut-out
 10
238.383301
 20
726.493286
  0
VERTEX
  8
Cut-out
 10
205.557983
 20
678.349426
  0
VERTEX
  8
Cut-out
 10
168.355957
 20
621.452087
  0
VERTEX
  8
Cut-out
 10
155.22583
 20
562.366516
  0
VERTEX
  8
Cut-out
 10
168.355957
 20
527.352783
  0
VERTEX
  8
Cut-out
 10
209.934692
 20
479.208801
  0
VERTEX
  8
Cut-out
 10
262.4552
 20
420.12323
  0
VERTEX
  8
Cut-out
 10
301.845703
 20
385.109497
  0
VERTEX
  8
Cut-out
 10
314.975952
 20
358.849182
  0
VERTEX
  8
Cut-out
 10
319.352661
 20
317.270386
  0
VERTEX
  8
Cut-out
 10
301.845703
 20
291.01001
  0
VERTEX
  8
Cut-out
 10
273.397095
 20
275.69165
  0
VERTEX
  8
Cut-out
 10
279.962036
 20
310.705322
  0
VERTEX
  8
Cut-out
 10
275.585449
 20
339.153992
  0
VERTEX
  8
Cut-out
 10
247.136719
 20
371.979248
  0
VERTEX
  8
Cut-out
 10
201.181274
 20
409.181458
  0
VERTEX
  8
Cut-out
 10
115.835327
 20
483.585571
  0
VERTEX
  8
Cut-out
 10
83.01001
 20
538.294495
  0
VERTEX
  8
Cut-out
 10
78.633301
 20
594.283624249
  0
VERTEX
  8
Cut-out
 10
115.615967
 20
594.283624249
  0
VERTEX
  8
Cut-out
 10
115.615967
 20
606.383624249
  0
VERTEX
  8
Cut-out
 10
81.803711
 20
606.383624249
  0
VERTEX
  8
Cut-out
 10
91.998413
 20
648.350647
  0
VERTEX
  8
Cut-out
 10
132.204224
 20
736.521451803
  0
VERTEX
  8
Cut-out
 10
159.597168
 20
736.521451803
  0
VERTEX
  8
Cut-out
 10
159.597168
 20
748.621451803
  0
VERTEX
  8
Cut-out
 10
131.762451
 20
748.621451803
  0
SEQEND
  8
Cut-out
  0
POLYLINE
  8
Cut-out
 62
7
 70
1
 66
1
 10
0.0
 20
0.0
 30
0.0
  0
VERTEX
  8
Cut-out
 10
258.078491
 20
873.11322
  0
VERTEX
  8
Cut-out
 10
247.136719
 20
873.11322
  0
VERTEX
  8
Cut-out
 10
247.136719
 20
949.70578
  0
VERTEX
  8
Cut-out
 10
258.078491
 20
949.70578
  0
SEQEND
  8
Cut-out
  0
POLYLINE
  8
Cut-out
 62
7
 70
1
 66
1
 10
0.0
 20
0.0
 30
0.0
  0
VERTEX
  8
Cut-out
 10
251.51355
 20
1126.962784
  0
VERTEX
  8
Cut-out
 10
240.571777
 20
1126.962784
  0
VERTEX
  8
Cut-out
 10
240.571777
 20
1205.743637
  0
VERTEX
  8
Cut-out
 10
251.51355
 20
1205.743637
  0
SEQEND
  8
Cut-out
  0
POLYLINE
  8
Cut-out
 62
7
 70
1
 66
1
 10
0.0
 20
0.0
 30
0.0
  0
VERTEX
  8
Cut-out
 10
262.21228
 20
1446.024445
  0
VERTEX
  8
Cut-out
 10
172.851562
 20
1446.024445
  0
VERTEX
  8
Cut-out
 10
172.851562
 20
1433.948662
  0
VERTEX
  8
Cut-out
 10
262.21228
 20
1433.948662
  0
SEQEND
  8
Cut-out
  0
POLYLINE
  8
Cut-out
 62
7
 70
1
 66
1
 10
0.0
 20
0.0
 30
0.0
  0
VERTEX
  8
Cut-out
 10
515.210005026
 20
1211.312668
  0
VERTEX
  8
Cut-out
 10
444.330811
 20
1211.312668
  0
VERTEX
  8
Cut-out
 10
444.330811
 20
1180.757644
 42
0.414213562373
  0
VERTEX
  8
Cut-out
 10
456.881958
 20
1168.206497
  0
VERTEX
  8
Cut-out
 10
586.335571
 20
1168.206497
 42
0.414213562373
  0
VERTEX
  8
Cut-out
 10
595.75769
 20
1177.628616
  0
VERTEX
  8
Cut-out
 10
595.75769
 20
1210.488052
  0
VERTEX
  8
Cut-out
 10
527.310005026
 20
1210.488052
  0
VERTEX
  8
Cut-out
 10
527.310005026
 20
1183.206497
  0
VERTEX
  8
Cut-out
 10
515.210005026
 20
1183.206497
  0
SEQEND
  8
Cut-out
  0
ENDBLK
  0
ENDSEC
  0
SECTION
  2
ENTITIES
  0
INSERT
  2
SKETCH003
  8
0
 10
0.0
 20
0.0
 30
0.0
  0
POLYLINE
  8
Cut-out
 62
7
 70
1
 66
1
 10
0.0
 20
0.0
 30
0.0
  0
VERTEX
  8
Cut-out
 10
563.184251013
 20
574.914611121
  0
VERTEX
  8
Cut-out
 10
528.47080107
 20
574.914611121
  0
VERTEX
  8
Cut-out
 10
528.47080107
 20
562.814611121
  0
VERTEX
  8
Cut-out
 10
563.184251013
 20
562.814611121
  0
VERTEX
  8
Cut-out
 10
563.184251013
 20
479.068261383
  0
VERTEX
  8
Cut-out
 10
558.165904144
 20
294.094692636
  0
VERTEX
  8
Cut-out
 10
562.300146482
 20
273.582738795
  0
VERTEX
  8
Cut-out
 10
592.802563767
 20
229.814611121
  0
VERTEX
  8
Cut-out
 10
534.805324044
 20
229.814611121
  0
VERTEX
  8
Cut-out
 10
517.670023031
 20
276.893489686
  0
VERTEX
  8
Cut-out
 10
499.160867261
 20
361.846909934
  0
VERTEX
  8
Cut-out
 10
500.297039349
 20
506.637603425
  0
VERTEX
  8
Cut-out
 10
476.424489876
 20
562.659169539
  0
VERTEX
  8
Cut-out
 10
446.851746559
 20
562.814611121
  0
VERTEX
  8
Cut-out
 10
446.851746559
 20
581.814611121
  0
VERTEX
  8
Cut-out
 10
476.424489876
 20
581.659169539
  0
VERTEX
  8
Cut-out
 10
500.297039349
 20
637.680735654
  0
VERTEX
  8
Cut-out
 10
499.160867261
 20
782.471429144
  0
VERTEX
  8
Cut-out
 10
517.670023031
 20
867.424849393
  0
VERTEX
  8
Cut-out
 10
533.925786044
 20
914.814611121
  0
VERTEX
  8
Cut-out
 10
591.923025767
 20
914.814611121
  0
VERTEX
  8
Cut-out
 10
562.300146482
 20
870.446475221
  0
VERTEX
  8
Cut-out
 10
558.165904144
 20
849.93452138
  0
VERTEX
  8
Cut-out
 10
563.184251013
 20
664.960952633
  0
SEQEND
  8
Cut-out
  0
POLYLINE
  8
Cut-out
 62
7
 70
1
 66
1
 10
0.0
 20
0.0
 30
0.0
  0
VERTEX
  8
Cut-out
 10
413.570221953
 20
574.908024721
  0
VERTEX
  8
Cut-out
 10
378.655939847
 20
574.908024721
  0
VERTEX
  8
Cut-out
 10
378.655939847
 20
562.808024721
  0
VERTEX
  8
Cut-out
 10
413.570221953
 20
562.808024721
  0
VERTEX
  8
Cut-out
 10
413.570221953
 20
478.532100397
  0
VERTEX
  8
Cut-out
 10
408.165860284
 20
293.876442501
  0
VERTEX
  8
Cut-out
 10
412.300146482
 20
273.568699088
  0
VERTEX
  8
Cut-out
 10
442.797037951
 20
229.808024721
  0
VERTEX
  8
Cut-out
 10
384.799798228
 20
229.808024721
  0
VERTEX
  8
Cut-out
 10
367.661792859
 20
276.894333445
  0
VERTEX
  8
Cut-out
 10
349.160867261
 20
361.833735681
  0
VERTEX
  8
Cut-out
 10
350.297039349
 20
506.62391105
  0
VERTEX
  8
Cut-out
 10
326.424490485
 20
562.652582415
  0
VERTEX
  8
Cut-out
 10
296.851746559
 20
562.808024721
  0
VERTEX
  8
Cut-out
 10
296.851746559
 20
581.808024721
  0
VERTEX
  8
Cut-out
 10
326.424490485
 20
581.652582415
  0
VERTEX
  8
Cut-out
 10
350.297039349
 20
637.68125378
  0
VERTEX
  8
Cut-out
 10
349.160867261
 20
782.471429149
  0
VERTEX
  8
Cut-out
 10
367.661792859
 20
867.410831384
  0
VERTEX
  8
Cut-out
 10
383.920260228
 20
914.808024721
  0
VERTEX
  8
Cut-out
 10
441.917499951
 20
914.808024721
  0
VERTEX
  8
Cut-out
 10
412.300146482
 20
870.447350876
  0
VERTEX
  8
Cut-out
 10
408.165860284
 20
850.139607464
  0
VERTEX
  8
Cut-out
 10
413.570221953
 20
665.483949568
  0
SEQEND
  8
Cut-out
  0
POLYLINE
  8
Cut-out
 62
7
 70
1
 66
1
 10
0.0
 20
0.0
 30
0.0
  0
VERTEX
  8
Cut-out
 10
314.792354912
 20
1205.0126262
  0
VERTEX
  8
Cut-out
 10
322.32280105
 20
1252.29773775
  0
VERTEX
  8
Cut-out
 10
368.133556501
 20
1310.57101537
  0
VERTEX
  8
Cut-out
 10
456.94447912
 20
1346.95452702
  0
VERTEX
  8
Cut-out
 10
472.077850072
 20
1382.70720973
  0
VERTEX
  8
Cut-out
 10
495.192354912
 20
1427.15829852
  0
VERTEX
  8
Cut-out
 10
504.392354912
 20
1427.15829852
  0
VERTEX
  8
Cut-out
 10
527.506859752
 20
1382.70720973
  0
VERTEX
  8
Cut-out
 10
542.640230704
 20
1346.95452702
  0
VERTEX
  8
Cut-out
 10
631.451153324
 20
1310.57101537
  0
VERTEX
  8
Cut-out
 10
677.261908774
 20
1252.29773775
  0
VERTEX
  8
Cut-out
 10
684.792354912
 20
1205.0126262
  0
VERTEX
  8
Cut-out
 10
663.211271868
 20
1239.30069236
  0
VERTEX
  8
Cut-out
 10
603.888634524
 20
1269.27066415
  0
VERTEX
  8
Cut-out
 10
541.681926902
 20
1288.11786456
  0
VERTEX
  8
Cut-out
 10
508.992354912
 20
1296.45215136
  0
VERTEX
  8
Cut-out
 10
508.992354912
 20
1343.96329533
  0
VERTEX
  8
Cut-out
 10
496.892354912
 20
1343.96329533
  0
VERTEX
  8
Cut-out
 10
496.892354912
 20
1296.45215136
  0
VERTEX
  8
Cut-out
 10
457.902782922
 20
1288.11786456
  0
VERTEX
  8
Cut-out
 10
395.6960753
 20
1269.27066415
  0
VERTEX
  8
Cut-out
 10
336.373437957
 20
1239.30069236
  0
SEQEND
  8
Cut-out
  0
POLYLINE
  8
Cut-out
 62
7
 70
1
 66
1
 10
0.0
 20
0.0
 30
0.0
  0
VERTEX
  8
Cut-out
 10
764.792364461
 20
625.012626197
  0
VERTEX
  8
Cut-out
 10
786.373457055
 20
659.300692359
  0
VERTEX
  8
Cut-out
 10
845.696094398
 20
689.270664148
  0
VERTEX
  8
Cut-out
 10
907.902782922
 20
708.117864557
  0
VERTEX
  8
Cut-out
 10
946.892364461
 20
716.452151364
  0
VERTEX
  8
Cut-out
 10
946.892364461
 20
763.963295332
  0
VERTEX
  8
Cut-out
 10
958.992364461
 20
763.963295332
  0
VERTEX
  8
Cut-out
 10
958.992364461
 20
716.452151364
  0
VERTEX
  8
Cut-out
 10
991.681946
 20
708.117864557
  0
VERTEX
  8
Cut-out
 10
1053.88863452
 20
689.270664148
  0
VERTEX
  8
Cut-out
 10
1113.21127187
 20
659.300692359
  0
VERTEX
  8
Cut-out
 10
1134.79236446
 20
625.012626197
  0
VERTEX
  8
Cut-out
 10
1127.26192787
 20
672.297737747
  0
VERTEX
  8
Cut-out
 10
1081.45115332
 20
730.571015373
  0
VERTEX
  8
Cut-out
 10
992.640230704
 20
766.954578264
  0
VERTEX
  8
Cut-out
 10
977.506859752
 20
802.707209735
  0
VERTEX
  8
Cut-out
 10
954.392364461
 20
847.158298516
  0
VERTEX
  8
Cut-out
 10
945.192364461
 20
847.158298516
  0
VERTEX
  8
Cut-out
 10
922.07786917
 20
802.707209735
  0
VERTEX
  8
Cut-out
 10
906.944498218
 20
766.954578264
  0
VERTEX
  8
Cut-out
 10
818.133575599
 20
730.571015373
  0
VERTEX
  8
Cut-out
 10
772.32280105
 20
672.297737747
  0
SEQEND
  8
Cut-out
  0
POLYLINE
  8
Cut-out
 62
7
 70
1
 66
1
 10
0.0
 20
0.0
 30
0.0
  0
VERTEX
  8
Cut-out
 10
764.792354912
 20
785.012626197
  0
VERTEX
  8
Cut-out
 10
786.363326346
 20
819.300692359
  0
VERTEX
  8
Cut-out
 10
845.561757918
 20
849.235454598
  0
VERTEX
  8
Cut-out
 10
907.628449514
 20
868.055889318
  0
VERTEX
  8
Cut-out
 10
946.892354912
 20
876.452151364
  0
VERTEX
  8
Cut-out
 10
946.892354912
 20
923.963295332
  0
VERTEX
  8
Cut-out
 10
958.992354912
 20
923.963295332
  0
VERTEX
  8
Cut-out
 10
958.992354912
 20
876.452151364
  0
VERTEX
  8
Cut-out
 10
991.95626031
 20
868.055889318
  0
VERTEX
  8
Cut-out
 10
1054.02295191
 20
849.235454598
  0
VERTEX
  8
Cut-out
 10
1113.22138348
 20
819.300692359
  0
VERTEX
  8
Cut-out
 10
1134.79235491
 20
785.012626197
  0
VERTEX
  8
Cut-out
 10
1127.26190877
 20
832.297737747
  0
VERTEX
  8
Cut-out
 10
1081.45115332
 20
890.571015373
  0
VERTEX
  8
Cut-out
 10
992.640230704
 20
926.954527015
  0
VERTEX
  8
Cut-out
 10
977.506859752
 20
962.707209735
  0
VERTEX
  8
Cut-out
 10
954.392354912
 20
1007.15230099
  0
VERTEX
  8
Cut-out
 10
945.192354912
 20
1007.15230099
  0
VERTEX
  8
Cut-out
 10
922.077850072
 20
962.707209735
  0
VERTEX
  8
Cut-out
 10
906.94447912
 20
926.954527015
  0
VERTEX
  8
Cut-out
 10
818.133556501
 20
890.571015373
  0
VERTEX
  8
Cut-out
 10
772.32280105
 20
832.297737747
  0
SEQEND
  8
Cut-out
  0
POLYLINE
  8
Cut-out
 62
7
 70
1
 66
1
 10
0.0
 20
0.0
 30
0.0
  0
VERTEX
  8
Cut-out
 10
314.792354912
 20
915.012626197
  0
VERTEX
  8
Cut-out
 10
336.373437957
 20
949.300692359
  0
VERTEX
  8
Cut-out
 10
395.6960753
 20
979.270664148
  0
VERTEX
  8
Cut-out
 10
457.902782922
 20
998.117864557
  0
VERTEX
  8
Cut-out
 10
496.892354912
 20
1006.452148
  0
VERTEX
  8
Cut-out
 10
496.892354912
 20
1053.96329533
  0
VERTEX
  8
Cut-out
 10
508.992354912
 20
1053.96329533
  0
VERTEX
  8
Cut-out
 10
508.992354912
 20
1006.452148
  0
VERTEX
  8
Cut-out
 10
541.681926902
 20
998.117864557
  0
VERTEX
  8
Cut-out
 10
603.888634524
 20
979.270664148
  0
VERTEX
  8
Cut-out
 10
663.211271868
 20
949.300692359
  0
VERTEX
  8
Cut-out
 10
684.792354912
 20
915.012626197
  0
VERTEX
  8
Cut-out
 10
677.261908774
 20
962.297737747
  0
VERTEX
  8
Cut-out
 10
631.451153324
 20
1020.57101537
  0
VERTEX
  8
Cut-out
 10
542.640230704
 20
1056.95457826
  0
VERTEX
  8
Cut-out
 10
527.506859752
 20
1092.70720973
  0
VERTEX
  8
Cut-out
 10
504.392354912
 20
1137.15829852
  0
VERTEX
  8
Cut-out
 10
495.192354912
 20
1137.15829852
  0
VERTEX
  8
Cut-out
 10
472.077850072
 20
1092.70720973
  0
VERTEX
  8
Cut-out
 10
456.94447912
 20
1056.95457826
  0
VERTEX
  8
Cut-out
 10
368.133556501
 20
1020.57101537
  0
VERTEX
  8
Cut-out
 10
322.32280105
 20
962.297737747
  0
SEQEND
  8
Cut-out
  0
POLYLINE
  8
Cut-out
 62
7
 70
1
 66
1
 10
0.0
 20
0.0
 30
0.0
  0
VERTEX
  8
Cut-out
 10
764.792354912
 20
465.012626197
  0
VERTEX
  8
Cut-out
 10
786.373437957
 20
499.300692359
  0
VERTEX
  8
Cut-out
 10
845.6960753
 20
529.270664148
  0
VERTEX
  8
Cut-out
 10
907.902763824
 20
548.117864557
  0
VERTEX
  8
Cut-out
 10
946.892354912
 20
556.452151364
  0
VERTEX
  8
Cut-out
 10
946.892354912
 20
603.963295332
  0
VERTEX
  8
Cut-out
 10
958.992354912
 20
603.963295332
  0
VERTEX
  8
Cut-out
 10
958.992354912
 20
556.452151364
  0
VERTEX
  8
Cut-out
 10
991.681946
 20
548.117864557
  0
VERTEX
  8
Cut-out
 10
1053.88863452
 20
529.270664148
  0
VERTEX
  8
Cut-out
 10
1113.21127187
 20
499.300692359
  0
VERTEX
  8
Cut-out
 10
1134.79235491
 20
465.012626197
  0
VERTEX
  8
Cut-out
 10
1127.26190877
 20
512.297737747
  0
VERTEX
  8
Cut-out
 10
1081.45115332
 20
570.571015373
  0
VERTEX
  8
Cut-out
 10
992.640230704
 20
606.954527015
  0
VERTEX
  8
Cut-out
 10
977.506859752
 20
642.713156014
  0
VERTEX
  8
Cut-out
 10
954.392354912
 20
687.152300988
  0
VERTEX
  8
Cut-out
 10
945.192354912
 20
687.152300988
  0
VERTEX
  8
Cut-out
 10
922.077850072
 20
642.713156014
  0
VERTEX
  8
Cut-out
 10
906.94447912
 20
606.954527015
  0
VERTEX
  8
Cut-out
 10
818.133556501
 20
570.571015373
  0
VERTEX
  8
Cut-out
 10
772.32280105
 20
512.297737747
  0
SEQEND
  8
Cut-out
  0
ENDSEC
  0
EOF
