  0
SECTION
  2
HEADER
  9
$ACADVER
  1
AC1009
  9
$INSBASE
 10
0.0
 20
0.0
 30
0.0
  9
$EXTMIN
 10
0.0
 20
0.0
 30
0.0
  9
$EXTMAX
 10
0.0
 20
0.0
 30
0.0
  0
ENDSEC
  0
SECTION
  2
TABLES
  0
TABLE
  2
VPORT
 70
0
  0
ENDTAB
  0
TABLE
  2
LTYPE
 70
1
  0
LTYPE
  2
CONTINUOUS
 70
0
  3
Solid line
 72
65
 73
0
 40
0.0
  0
ENDTAB
  0
TABLE
  2
LAYER
 70
1
  0
LAYER
  2
PYDXF
 70
64
 62
7
  6
continuous
  0
ENDTAB
  0
TABLE
  2
STYLE
 70
1
  0
STYLE
  2
STANDARD
 70
0
 40
0
 41
1.0
 50
0.0
 71
0
 42
1
 3
ARIAL.TTF
 4

  0
ENDTAB
  0
TABLE
  2
VIEW
 70
0
  0
ENDTAB
  0
ENDSEC
  0
SECTION
  2
BLOCKS
  0
BLOCK
  8
0
  2
SKETCH
 70
0
 10
0.0
 20
0.0
 30
0.0
  3
SKETCH
  0
POLYLINE
  8
0
 62
7
 70
0
 66
1
 10
0.0
 20
0.0
 30
0.0
  0
VERTEX
  8
0
 10
0.0
 20
0.0
  0
VERTEX
  8
0
 10
19.0834511247
 20
0.0
  0
VERTEX
  8
0
 10
19.0834511247
 20
-33.639122
  0
VERTEX
  8
0
 10
37.4834511247
 20
-33.639122
  0
VERTEX
  8
0
 10
37.4834511247
 20
-5.78096598369e-16
  0
VERTEX
  8
0
 10
287.122776411
 20
-1.15619319674e-15
 42
0.292909574697
  0
VERTEX
  8
0
 10
294.615740633
 20
10.8518935764
  0
VERTEX
  8
0
 10
294.615740633
 20
107.0
  0
VERTEX
  8
0
 10
334.615740633
 20
107.0
  0
VERTEX
  8
0
 10
334.615740633
 20
15.1501886279
 42
0.426758460255
  0
VERTEX
  8
0
 10
347.733630477
 20
-8.53483950181e-16
  0
VERTEX
  8
0
 10
595.109192
 20
27.369535
  0
VERTEX
  8
0
 10
680.550415
 20
49.068867
  0
VERTEX
  8
0
 10
726.661621
 20
84.330376
  0
VERTEX
  8
0
 10
759.210571
 20
115.523163
  0
VERTEX
  8
0
 10
821.596313
 20
137.222534
  0
VERTEX
  8
0
 10
931.449341
 20
125.016655
  0
VERTEX
  8
0
 10
1023.67157
 20
92.467606
  0
VERTEX
  8
0
 10
1056.565308
 20
84.957146
  0
VERTEX
  8
0
 10
1105.008789
 20
80.030663
  0
VERTEX
  8
0
 10
1149.347046
 20
91.525764
  0
VERTEX
  8
0
 10
1187.937622
 20
98.094383
 42
-0.931436384971
  0
VERTEX
  8
0
 10
1183.3394021
 20
24.735690317
  0
VERTEX
  8
0
 10
1159.511475
 20
13.929943
  0
VERTEX
  8
0
 10
1096.565308
 20
0.678104
  0
VERTEX
  8
0
 10
1056.467285
 20
4.790658
  0
VERTEX
  8
0
 10
1019.356934
 20
14.61532
  0
VERTEX
  8
0
 10
932.322754
 20
44.174057
  0
VERTEX
  8
0
 10
840.62207
 20
55.398365
  0
VERTEX
  8
0
 10
789.715271
 20
32.408203
  0
VERTEX
  8
0
 10
753.587891
 20
5.312665
  0
VERTEX
  8
0
 10
697.310791
 20
-28.995277
  0
VERTEX
  8
0
 10
616.028718
 20
-51.321911
  0
VERTEX
  8
0
 10
361.002472
 20
-76.169151
  0
VERTEX
  8
0
 10
273.352325
 20
-80.1456
  0
VERTEX
  8
0
 10
-3.308376
 20
-80.1456
  0
VERTEX
  8
0
 10
-3.308376
 20
0.0
  0
SEQEND
  8
0
  0
POLYLINE
  8
0
 62
7
 70
1
 66
1
 10
0.0
 20
0.0
 30
0.0
  0
VERTEX
  8
0
 10
120.35569
 20
-11.789964
  0
VERTEX
  8
0
 10
169.106476
 20
-11.789964
  0
VERTEX
  8
0
 10
169.106476
 20
-20.865305
  0
VERTEX
  8
0
 10
120.35569
 20
-20.865305
  0
SEQEND
  8
0
  0
CIRCLE
  8
0
 62
7
 10
398.493958
 20
-20.539234
 30
0.0
 40
4.1
  0
POLYLINE
  8
0
 62
7
 70
0
 66
1
 10
0.0
 20
0.0
 30
0.0
  0
VERTEX
  8
0
 10
947.296619289
 20
-27.5828395825
  0
VERTEX
  8
0
 10
947.296619289
 20
-67.542077
  0
VERTEX
  8
0
 10
928.896619289
 20
-67.542077
  0
VERTEX
  8
0
 10
928.896619289
 20
-37.144867
  0
VERTEX
  8
0
 10
785.12085
 20
-37.144867
  0
VERTEX
  8
0
 10
785.12085
 20
-103.356056
  0
VERTEX
  8
0
 10
927.85791
 20
-103.356056
  0
VERTEX
  8
0
 10
960.693481
 20
-101.154518
  0
VERTEX
  8
0
 10
972.80188
 20
-98.402603
  0
VERTEX
  8
0
 10
982.158447
 20
-91.247597
  0
VERTEX
  8
0
 10
995.918091
 20
-88.495682
  0
VERTEX
  8
0
 10
1010.778442
 20
-98.95298
  0
VERTEX
  8
0
 10
1037.747314
 20
-107.759132
  0
VERTEX
  8
0
 10
1068.018433
 20
-108.859901
  0
VERTEX
  8
0
 10
1095.537598
 20
-94.549904
  0
VERTEX
  8
0
 10
1108.746826
 20
-91.797989
  0
VERTEX
  8
0
 10
1120.304932
 20
-87.94529
  0
VERTEX
  8
0
 10
1132.963745
 20
-86.294144
  0
VERTEX
  8
0
 10
1150.29661929
 20
-77.5828395825
 42
1.0
  0
VERTEX
  8
0
 10
1150.29661929
 20
-27.5828395825
  0
VERTEX
  8
0
 10
1135.239868
 20
-30.345451
  0
VERTEX
  8
0
 10
1122.321045
 20
-34.425087
  0
VERTEX
  8
0
 10
1110.761963
 20
-39.864609
  0
VERTEX
  8
0
 10
1094.443359
 20
-50.063747
  0
VERTEX
  8
0
 10
1046.847534
 20
-54.823326
  0
VERTEX
  8
0
 10
1027.129272
 20
-50.743694
  0
VERTEX
  8
0
 10
999.931641
 20
-35.784977
  0
VERTEX
  8
0
 10
984.032349
 20
-22.321684
  0
VERTEX
  8
0
 10
956.995361
 20
23.190588
  0
VERTEX
  8
0
 10
947.53241
 20
23.641199
  0
SEQEND
  8
0
  0
POLYLINE
  8
0
 62
7
 70
1
 66
1
 10
0.0
 20
0.0
 30
0.0
  0
VERTEX
  8
0
 10
797.24292
 20
-52.472137
  0
VERTEX
  8
0
 10
827.842041
 20
-52.472137
  0
VERTEX
  8
0
 10
827.842041
 20
-58.815853
  0
VERTEX
  8
0
 10
797.24292
 20
-58.815853
  0
SEQEND
  8
0
  0
POLYLINE
  8
0
 62
7
 70
1
 66
1
 10
0.0
 20
0.0
 30
0.0
  0
VERTEX
  8
0
 10
847.992615
 20
-51.725834
  0
VERTEX
  8
0
 10
876.352783
 20
-51.725834
  0
VERTEX
  8
0
 10
876.352783
 20
-58.442711
  0
VERTEX
  8
0
 10
847.992615
 20
-58.442711
  0
SEQEND
  8
0
  0
POLYLINE
  8
0
 62
7
 70
1
 66
1
 10
0.0
 20
0.0
 30
0.0
  0
VERTEX
  8
0
 10
62.0544147526
 20
175.405191066
 42
0.91521632717
  0
VERTEX
  8
0
 10
26.7519252465
 20
191.330261102
 42
0.345922081135
  0
VERTEX
  8
0
 10
60.9848109086
 20
80.8183317049
  0
VERTEX
  8
0
 10
60.9848109086
 20
15.1080490669
  0
VERTEX
  8
0
 10
104.978885012
 20
15.1080490669
  0
VERTEX
  8
0
 10
104.978885012
 20
59.3632215122
  0
VERTEX
  8
0
 10
123.378885012
 20
59.3632215122
  0
VERTEX
  8
0
 10
123.378885012
 20
15.1080490669
  0
VERTEX
  8
0
 10
167.372937216
 20
15.0641536239
  0
VERTEX
  8
0
 10
167.372937216
 20
80.7744362619
 42
0.340851864958
  0
VERTEX
  8
0
 10
202.241188413
 20
189.727598467
 42
0.947246713853
  0
VERTEX
  8
0
 10
166.776309926
 20
173.932408035
 42
-1.37142718673
  0
SEQEND
  8
0
  0
POLYLINE
  8
0
 62
7
 70
0
 66
1
 10
0.0
 20
0.0
 30
0.0
  0
VERTEX
  8
0
 10
947.127869
 20
-29.53845
  0
VERTEX
  8
0
 10
947.127869
 20
23.190588
  0
SEQEND
  8
0
  0
POLYLINE
  8
0
 62
7
 70
1
 66
1
 10
0.0
 20
0.0
 30
0.0
  0
VERTEX
  8
0
 10
711.317774524
 20
127.244208321
  0
VERTEX
  8
0
 10
341.970260908
 20
127.244208321
  0
VERTEX
  8
0
 10
342.058421073
 20
181.544172538
  0
VERTEX
  8
0
 10
382.678888602
 20
181.544172538
  0
VERTEX
  8
0
 10
382.678888602
 20
199.944172538
  0
VERTEX
  8
0
 10
341.765173244
 20
199.944172538
  0
VERTEX
  8
0
 10
341.765173244
 20
254.244208321
  0
VERTEX
  8
0
 10
711.11268686
 20
254.244208321
 42
-0.436340521618
  0
VERTEX
  8
0
 10
763.678888602
 20
199.944172538
  0
VERTEX
  8
0
 10
763.678888602
 20
181.544172538
 42
-0.43513222375
  0
SEQEND
  8
0
  0
POLYLINE
  8
0
 62
7
 70
1
 66
1
 10
0.0
 20
0.0
 30
0.0
  0
VERTEX
  8
0
 10
957.394348
 20
-4.134676
  0
VERTEX
  8
0
 10
961.821533
 20
-4.134676
  0
VERTEX
  8
0
 10
961.821533
 20
-30.697908
  0
VERTEX
  8
0
 10
957.394348
 20
-30.697908
  0
SEQEND
  8
0
  0
ENDBLK
  0
ENDSEC
  0
SECTION
  2
ENTITIES
  0
INSERT
  2
SKETCH
  8
0
 10
0.0
 20
0.0
 30
0.0
  0
ENDSEC
  0
EOF
