  0
SECTION
  2
HEADER
  9
$ACADVER
  1
AC1009
  9
$INSBASE
 10
0.0
 20
0.0
 30
0.0
  9
$EXTMIN
 10
0.0
 20
0.0
 30
0.0
  9
$EXTMAX
 10
0.0
 20
0.0
 30
0.0
  0
ENDSEC
  0
SECTION
  2
TABLES
  0
TABLE
  2
VPORT
 70
0
  0
ENDTAB
  0
TABLE
  2
LTYPE
 70
1
  0
LTYPE
  2
CONTINUOUS
 70
0
  3
Solid line
 72
65
 73
0
 40
0.0
  0
ENDTAB
  0
TABLE
  2
LAYER
 70
1
  0
LAYER
  2
PYDXF
 70
64
 62
7
  6
continuous
  0
ENDTAB
  0
TABLE
  2
STYLE
 70
1
  0
STYLE
  2
STANDARD
 70
0
 40
0
 41
1.0
 50
0.0
 71
0
 42
1
 3
ARIAL.TTF
 4

  0
ENDTAB
  0
TABLE
  2
VIEW
 70
0
  0
ENDTAB
  0
ENDSEC
  0
SECTION
  2
BLOCKS
  0
BLOCK
  8
3/4 wood
  2
SKETCH
 70
0
 10
0.0
 20
0.0
 30
0.0
  3
SKETCH
  0
POLYLINE
  8
3/4 wood
 62
7
 70
1
 66
1
 10
0.0
 20
0.0
 30
0.0
  0
VERTEX
  8
3/4 wood
 10
680.0
 20
200.0
  0
VERTEX
  8
3/4 wood
 10
680.0
 20
218.262385125
  0
VERTEX
  8
3/4 wood
 10
725.116013
 20
218.262385125
  0
VERTEX
  8
3/4 wood
 10
725.116013
 20
236.662385125
  0
VERTEX
  8
3/4 wood
 10
680.0
 20
236.662385125
  0
VERTEX
  8
3/4 wood
 10
680.0
 20
487.122776411
 42
0.292909574697
  0
VERTEX
  8
3/4 wood
 10
669.148106424
 20
494.615740633
  0
VERTEX
  8
3/4 wood
 10
573.0
 20
494.615740633
  0
VERTEX
  8
3/4 wood
 10
573.0
 20
534.615740633
  0
VERTEX
  8
3/4 wood
 10
664.849811372
 20
534.615740633
 42
0.426758460255
  0
VERTEX
  8
3/4 wood
 10
680.0
 20
547.733630477
  0
VERTEX
  8
3/4 wood
 10
652.630465
 20
795.109192
  0
VERTEX
  8
3/4 wood
 10
630.931133
 20
880.550415
  0
VERTEX
  8
3/4 wood
 10
595.669624
 20
926.661621
  0
VERTEX
  8
3/4 wood
 10
564.476837
 20
959.210571
  0
VERTEX
  8
3/4 wood
 10
542.777466
 20
1021.596313
  0
VERTEX
  8
3/4 wood
 10
554.983345
 20
1131.449341
  0
VERTEX
  8
3/4 wood
 10
587.532394
 20
1223.67157
  0
VERTEX
  8
3/4 wood
 10
614.656609
 20
1252.1521
  0
VERTEX
  8
3/4 wood
 10
626.862484
 20
1302.331787
  0
VERTEX
  8
3/4 wood
 10
610.539284
 20
1345.920776
  0
VERTEX
  8
3/4 wood
 10
594.107666099
 20
1381.80997823
 42
-0.941808111319
  0
VERTEX
  8
3/4 wood
 10
666.610291
 20
1386.945679
  0
VERTEX
  8
3/4 wood
 10
678.92647
 20
1359.850098
  0
VERTEX
  8
3/4 wood
 10
693.70585
 20
1295.80603
  0
VERTEX
  8
3/4 wood
 10
681.389671
 20
1236.688477
  0
VERTEX
  8
3/4 wood
 10
665.789225
 20
1208.77179
  0
VERTEX
  8
3/4 wood
 10
634.588245
 20
1125.021912
  0
VERTEX
  8
3/4 wood
 10
620.629932
 20
1025.671509
  0
VERTEX
  8
3/4 wood
 10
636.138872
 20
976.83606
  0
VERTEX
  8
3/4 wood
 10
664.299007
 20
943.706482
  0
VERTEX
  8
3/4 wood
 10
705.710937
 20
894.026428
  0
VERTEX
  8
3/4 wood
 10
723.932194
 20
799.607117
  0
VERTEX
  8
3/4 wood
 10
735.642208
 20
551.149536
  0
VERTEX
  8
3/4 wood
 10
750.819817
 20
472.900871
  0
VERTEX
  8
3/4 wood
 10
750.819817
 20
200.0
  0
SEQEND
  8
3/4 wood
  0
POLYLINE
  8
3/4 wood
 62
7
 70
1
 66
1
 10
0.0
 20
0.0
 30
0.0
  0
VERTEX
  8
3/4 wood
 10
691.789964
 20
320.35569
  0
VERTEX
  8
3/4 wood
 10
691.789964
 20
369.106476
  0
VERTEX
  8
3/4 wood
 10
700.865305
 20
369.106476
  0
VERTEX
  8
3/4 wood
 10
700.865305
 20
320.35569
  0
SEQEND
  8
3/4 wood
  0
CIRCLE
  8
3/4 wood
 62
7
 10
700.539234
 20
598.493958
 30
0.0
 40
4.1
  0
POLYLINE
  8
3/4 wood
 62
7
 70
0
 66
1
 10
0.0
 20
0.0
 30
0.0
  0
VERTEX
  8
3/4 wood
 10
703.907146113
 20
1147.27635929
  0
VERTEX
  8
3/4 wood
 10
747.997437
 20
1147.27635929
  0
VERTEX
  8
3/4 wood
 10
747.997437
 20
1128.87635929
  0
VERTEX
  8
3/4 wood
 10
717.144867
 20
1128.87635929
  0
VERTEX
  8
3/4 wood
 10
717.144867
 20
874.008789
  0
VERTEX
  8
3/4 wood
 10
781.434219
 20
874.008789
  0
VERTEX
  8
3/4 wood
 10
781.434219
 20
1127.85791
  0
VERTEX
  8
3/4 wood
 10
779.102859
 20
1149.684326
  0
VERTEX
  8
3/4 wood
 10
776.520317
 20
1177.723267
  0
VERTEX
  8
3/4 wood
 10
791.646599
 20
1212.403015
  0
VERTEX
  8
3/4 wood
 10
799.025276
 20
1240.810913
  0
VERTEX
  8
3/4 wood
 10
790.170868
 20
1297.626709
  0
VERTEX
  8
3/4 wood
 10
768.297256
 20
1328.39917
  0
VERTEX
  8
3/4 wood
 10
763.907146113
 20
1350.27635929
 42
1.0
  0
VERTEX
  8
3/4 wood
 10
703.907146113
 20
1350.27635929
  0
VERTEX
  8
3/4 wood
 10
710.345451
 20
1335.239868
  0
VERTEX
  8
3/4 wood
 10
714.425087
 20
1322.321045
  0
VERTEX
  8
3/4 wood
 10
719.864609
 20
1310.761963
  0
VERTEX
  8
3/4 wood
 10
730.063747
 20
1294.443359
  0
VERTEX
  8
3/4 wood
 10
734.823326
 20
1246.847534
  0
VERTEX
  8
3/4 wood
 10
730.743694
 20
1227.129272
  0
VERTEX
  8
3/4 wood
 10
715.784977
 20
1199.931641
  0
VERTEX
  8
3/4 wood
 10
702.321684
 20
1184.032349
  0
VERTEX
  8
3/4 wood
 10
656.809412
 20
1156.995361
  0
VERTEX
  8
3/4 wood
 10
656.358801
 20
1147.53241
  0
SEQEND
  8
3/4 wood
  0
POLYLINE
  8
3/4 wood
 62
7
 70
1
 66
1
 10
0.0
 20
0.0
 30
0.0
  0
VERTEX
  8
3/4 wood
 10
726.977786911
 20
886.557495
  0
VERTEX
  8
3/4 wood
 10
726.977786911
 20
934.358398
  0
VERTEX
  8
3/4 wood
 10
733.694960355
 20
934.358398
  0
VERTEX
  8
3/4 wood
 10
733.694960355
 20
886.557495
  0
SEQEND
  8
3/4 wood
  0
POLYLINE
  8
3/4 wood
 62
7
 70
1
 66
1
 10
0.0
 20
0.0
 30
0.0
  0
VERTEX
  8
3/4 wood
 10
726.977786911
 20
1047.254761
  0
VERTEX
  8
3/4 wood
 10
726.977786911
 20
1075.614929
  0
VERTEX
  8
3/4 wood
 10
733.694960355
 20
1075.614929
  0
VERTEX
  8
3/4 wood
 10
733.694960355
 20
1047.254761
  0
SEQEND
  8
3/4 wood
  0
POLYLINE
  8
3/4 wood
 62
7
 70
1
 66
1
 10
0.0
 20
0.0
 30
0.0
  0
VERTEX
  8
3/4 wood
 10
504.594808934
 20
262.054414753
 42
0.915216327171
  0
VERTEX
  8
3/4 wood
 10
488.669738898
 20
226.751925247
 42
0.345922081135
  0
VERTEX
  8
3/4 wood
 10
599.181668295
 20
260.984810909
  0
VERTEX
  8
3/4 wood
 10
664.891950933
 20
260.984810909
  0
VERTEX
  8
3/4 wood
 10
664.891950933
 20
304.978885012
  0
VERTEX
  8
3/4 wood
 10
620.636778488
 20
304.978885012
  0
VERTEX
  8
3/4 wood
 10
620.636778488
 20
323.378885012
  0
VERTEX
  8
3/4 wood
 10
664.891950933
 20
323.378885012
  0
VERTEX
  8
3/4 wood
 10
664.935846376
 20
367.372937216
  0
VERTEX
  8
3/4 wood
 10
599.225563738
 20
367.372937216
 42
0.340851864958
  0
VERTEX
  8
3/4 wood
 10
490.272401533
 20
402.241188413
 42
0.947246713853
  0
VERTEX
  8
3/4 wood
 10
506.067591965
 20
366.776309926
 42
-1.37142718673
  0
SEQEND
  8
3/4 wood
  0
POLYLINE
  8
3/4 wood
 62
7
 70
0
 66
1
 10
0.0
 20
0.0
 30
0.0
  0
VERTEX
  8
3/4 wood
 10
709.53845
 20
1147.127869
  0
VERTEX
  8
3/4 wood
 10
656.809412
 20
1147.127869
  0
SEQEND
  8
3/4 wood
  0
POLYLINE
  8
3/4 wood
 62
7
 70
1
 66
1
 10
0.0
 20
0.0
 30
0.0
  0
VERTEX
  8
3/4 wood
 10
431.844136445
 20
487.912370091
  0
VERTEX
  8
3/4 wood
 10
431.844136445
 20
859.912370091
 42
-1.0
  0
VERTEX
  8
3/4 wood
 10
558.844136445
 20
859.912370091
  0
VERTEX
  8
3/4 wood
 10
558.844136445
 20
487.912370091
  0
VERTEX
  8
3/4 wood
 10
504.544136445
 20
487.912370091
  0
VERTEX
  8
3/4 wood
 10
504.544136445
 20
541.912370091
  0
VERTEX
  8
3/4 wood
 10
486.144136445
 20
541.912370091
  0
VERTEX
  8
3/4 wood
 10
486.144136445
 20
487.912370091
  0
SEQEND
  8
3/4 wood
  0
ENDBLK
  0
BLOCK
  8
3/4 wood
  2
SKETCH001
 70
0
 10
0.0
 20
0.0
 30
0.0
  3
SKETCH001
  0
POLYLINE
  8
3/4 wood
 62
7
 70
1
 66
1
 10
0.0
 20
0.0
 30
0.0
  0
VERTEX
  8
3/4 wood
 10
290.0
 20
250.0
  0
VERTEX
  8
3/4 wood
 10
290.0
 20
268.262385125
  0
VERTEX
  8
3/4 wood
 10
335.116013
 20
268.262385125
  0
VERTEX
  8
3/4 wood
 10
335.116013
 20
286.662385125
  0
VERTEX
  8
3/4 wood
 10
290.0
 20
286.662385125
  0
VERTEX
  8
3/4 wood
 10
290.0
 20
537.122776411
 42
0.292909574697
  0
VERTEX
  8
3/4 wood
 10
279.148106424
 20
544.615740633
  0
VERTEX
  8
3/4 wood
 10
183.0
 20
544.615740633
  0
VERTEX
  8
3/4 wood
 10
183.0
 20
584.615740633
  0
VERTEX
  8
3/4 wood
 10
274.849811372
 20
584.615740633
 42
0.426758460255
  0
VERTEX
  8
3/4 wood
 10
290.0
 20
597.733630477
  0
VERTEX
  8
3/4 wood
 10
262.630465
 20
845.109192
  0
VERTEX
  8
3/4 wood
 10
240.931133
 20
930.550415
  0
VERTEX
  8
3/4 wood
 10
205.669624
 20
976.661621
  0
VERTEX
  8
3/4 wood
 10
174.476837
 20
1009.210571
  0
VERTEX
  8
3/4 wood
 10
152.777466
 20
1071.596313
  0
VERTEX
  8
3/4 wood
 10
164.983345
 20
1181.449341
  0
VERTEX
  8
3/4 wood
 10
197.532394
 20
1273.67157
  0
VERTEX
  8
3/4 wood
 10
224.656609
 20
1302.1521
  0
VERTEX
  8
3/4 wood
 10
236.862484
 20
1352.331787
  0
VERTEX
  8
3/4 wood
 10
220.539284
 20
1395.920776
  0
VERTEX
  8
3/4 wood
 10
204.107666099
 20
1431.80997823
 42
-0.941808111319
  0
VERTEX
  8
3/4 wood
 10
276.610291
 20
1436.945679
  0
VERTEX
  8
3/4 wood
 10
288.92647
 20
1409.850098
  0
VERTEX
  8
3/4 wood
 10
303.70585
 20
1345.80603
  0
VERTEX
  8
3/4 wood
 10
291.389671
 20
1286.688477
  0
VERTEX
  8
3/4 wood
 10
275.789225
 20
1258.77179
  0
VERTEX
  8
3/4 wood
 10
244.588245
 20
1175.021912
  0
VERTEX
  8
3/4 wood
 10
230.629932
 20
1075.671509
  0
VERTEX
  8
3/4 wood
 10
246.138872
 20
1026.83606
  0
VERTEX
  8
3/4 wood
 10
274.299007
 20
993.706482
  0
VERTEX
  8
3/4 wood
 10
315.710937
 20
944.026428
  0
VERTEX
  8
3/4 wood
 10
333.932194
 20
849.607117
  0
VERTEX
  8
3/4 wood
 10
345.642208
 20
601.149536
  0
VERTEX
  8
3/4 wood
 10
360.819817
 20
522.900871
  0
VERTEX
  8
3/4 wood
 10
360.819817
 20
250.0
  0
SEQEND
  8
3/4 wood
  0
POLYLINE
  8
3/4 wood
 62
7
 70
1
 66
1
 10
0.0
 20
0.0
 30
0.0
  0
VERTEX
  8
3/4 wood
 10
301.789964
 20
370.35569
  0
VERTEX
  8
3/4 wood
 10
301.789964
 20
419.106476
  0
VERTEX
  8
3/4 wood
 10
310.865305
 20
419.106476
  0
VERTEX
  8
3/4 wood
 10
310.865305
 20
370.35569
  0
SEQEND
  8
3/4 wood
  0
CIRCLE
  8
3/4 wood
 62
7
 10
310.539234
 20
648.493958
 30
0.0
 40
4.1
  0
POLYLINE
  8
3/4 wood
 62
7
 70
0
 66
1
 10
0.0
 20
0.0
 30
0.0
  0
VERTEX
  8
3/4 wood
 10
313.907146113
 20
1197.27635929
  0
VERTEX
  8
3/4 wood
 10
357.997437
 20
1197.27635929
  0
VERTEX
  8
3/4 wood
 10
357.997437
 20
1178.87635929
  0
VERTEX
  8
3/4 wood
 10
327.144867
 20
1178.87635929
  0
VERTEX
  8
3/4 wood
 10
327.144867
 20
924.008789
  0
VERTEX
  8
3/4 wood
 10
391.434219
 20
924.008789
  0
VERTEX
  8
3/4 wood
 10
391.434219
 20
1177.85791
  0
VERTEX
  8
3/4 wood
 10
389.102859
 20
1199.684326
  0
VERTEX
  8
3/4 wood
 10
386.520317
 20
1227.723267
  0
VERTEX
  8
3/4 wood
 10
401.646599
 20
1262.403015
  0
VERTEX
  8
3/4 wood
 10
409.025276
 20
1290.810913
  0
VERTEX
  8
3/4 wood
 10
400.170868
 20
1347.626709
  0
VERTEX
  8
3/4 wood
 10
378.297256
 20
1378.39917
  0
VERTEX
  8
3/4 wood
 10
373.907146113
 20
1400.27635929
 42
1.0
  0
VERTEX
  8
3/4 wood
 10
313.907146113
 20
1400.27635929
  0
VERTEX
  8
3/4 wood
 10
320.345451
 20
1385.239868
  0
VERTEX
  8
3/4 wood
 10
324.425087
 20
1372.321045
  0
VERTEX
  8
3/4 wood
 10
329.864609
 20
1360.761963
  0
VERTEX
  8
3/4 wood
 10
340.063747
 20
1344.443359
  0
VERTEX
  8
3/4 wood
 10
344.823326
 20
1296.847534
  0
VERTEX
  8
3/4 wood
 10
340.743694
 20
1277.129272
  0
VERTEX
  8
3/4 wood
 10
325.784977
 20
1249.931641
  0
VERTEX
  8
3/4 wood
 10
312.321684
 20
1234.032349
  0
VERTEX
  8
3/4 wood
 10
266.809412
 20
1206.995361
  0
VERTEX
  8
3/4 wood
 10
266.358801
 20
1197.53241
  0
SEQEND
  8
3/4 wood
  0
POLYLINE
  8
3/4 wood
 62
7
 70
1
 66
1
 10
0.0
 20
0.0
 30
0.0
  0
VERTEX
  8
3/4 wood
 10
336.977786911
 20
936.557495
  0
VERTEX
  8
3/4 wood
 10
336.977786911
 20
984.358398
  0
VERTEX
  8
3/4 wood
 10
343.694960355
 20
984.358398
  0
VERTEX
  8
3/4 wood
 10
343.694960355
 20
936.557495
  0
SEQEND
  8
3/4 wood
  0
POLYLINE
  8
3/4 wood
 62
7
 70
1
 66
1
 10
0.0
 20
0.0
 30
0.0
  0
VERTEX
  8
3/4 wood
 10
336.977786911
 20
1097.254761
  0
VERTEX
  8
3/4 wood
 10
336.977786911
 20
1125.614929
  0
VERTEX
  8
3/4 wood
 10
343.694960355
 20
1125.614929
  0
VERTEX
  8
3/4 wood
 10
343.694960355
 20
1097.254761
  0
SEQEND
  8
3/4 wood
  0
POLYLINE
  8
3/4 wood
 62
7
 70
1
 66
1
 10
0.0
 20
0.0
 30
0.0
  0
VERTEX
  8
3/4 wood
 10
114.594808934
 20
312.054414753
 42
0.915216327171
  0
VERTEX
  8
3/4 wood
 10
98.6697388977
 20
276.751925247
 42
0.345922081135
  0
VERTEX
  8
3/4 wood
 10
209.181668295
 20
310.984810909
  0
VERTEX
  8
3/4 wood
 10
274.891950933
 20
310.984810909
  0
VERTEX
  8
3/4 wood
 10
274.891950933
 20
354.978885012
  0
VERTEX
  8
3/4 wood
 10
230.636778488
 20
354.978885012
  0
VERTEX
  8
3/4 wood
 10
230.636778488
 20
373.378885012
  0
VERTEX
  8
3/4 wood
 10
274.891950933
 20
373.378885012
  0
VERTEX
  8
3/4 wood
 10
274.935846376
 20
417.372937216
  0
VERTEX
  8
3/4 wood
 10
209.225563738
 20
417.372937216
 42
0.340851864958
  0
VERTEX
  8
3/4 wood
 10
100.272401533
 20
452.241188413
 42
0.947246713853
  0
VERTEX
  8
3/4 wood
 10
116.067591965
 20
416.776309926
 42
-1.37142718673
  0
SEQEND
  8
3/4 wood
  0
POLYLINE
  8
3/4 wood
 62
7
 70
0
 66
1
 10
0.0
 20
0.0
 30
0.0
  0
VERTEX
  8
3/4 wood
 10
319.53845
 20
1197.127869
  0
VERTEX
  8
3/4 wood
 10
266.809412
 20
1197.127869
  0
SEQEND
  8
3/4 wood
  0
POLYLINE
  8
3/4 wood
 62
7
 70
1
 66
1
 10
0.0
 20
0.0
 30
0.0
  0
VERTEX
  8
3/4 wood
 10
41.8441364445
 20
537.912370091
  0
VERTEX
  8
3/4 wood
 10
41.8441364445
 20
909.912370091
 42
-1.0
  0
VERTEX
  8
3/4 wood
 10
168.844136445
 20
909.912370091
  0
VERTEX
  8
3/4 wood
 10
168.844136445
 20
537.912370091
  0
VERTEX
  8
3/4 wood
 10
114.544136445
 20
537.912370091
  0
VERTEX
  8
3/4 wood
 10
114.544136445
 20
591.912370091
  0
VERTEX
  8
3/4 wood
 10
96.1441364445
 20
591.912370091
  0
VERTEX
  8
3/4 wood
 10
96.1441364445
 20
537.912370091
  0
SEQEND
  8
3/4 wood
  0
ENDBLK
  0
ENDSEC
  0
SECTION
  2
ENTITIES
  0
INSERT
  2
SKETCH
  8
0
 10
0.0
 20
0.0
 30
0.0
  0
INSERT
  2
SKETCH001
  8
0
 10
0.0
 20
0.0
 30
0.0
  0
ENDSEC
  0
EOF
