solid OpenSCAD_Model
  facet normal -1 0 0
    outer loop
      vertex -2 10 -35
      vertex -2 10 -50
      vertex -2 -50 -35
    endloop
  endfacet
  facet normal -1 0 0
    outer loop
      vertex -2 -50 -35
      vertex -2 10 -50
      vertex -2 -50 -50
    endloop
  endfacet
  facet normal 0 1 -1.22461e-016
    outer loop
      vertex -2 10 -35
      vertex 23 10 -35
      vertex -2 10 -50
    endloop
  endfacet
  facet normal 0 1 -1.22461e-016
    outer loop
      vertex -2 10 -50
      vertex 23 10 -35
      vertex 23 10 -50
    endloop
  endfacet
  facet normal 0 1.22461e-016 1
    outer loop
      vertex -0.75 -42.75 -35
      vertex -2 10 -35
      vertex -2 -50 -35
    endloop
  endfacet
  facet normal 0 1.22461e-016 1
    outer loop
      vertex -0.75 0.75 -35
      vertex 17.0903 2.99474 -35
      vertex 15.4972 3.51241 -35
    endloop
  endfacet
  facet normal 0 1.22461e-016 1
    outer loop
      vertex -0.75 0.75 -35
      vertex -2 10 -35
      vertex -0.75 -42.75 -35
    endloop
  endfacet
  facet normal 0 1.22461e-016 1
    outer loop
      vertex 3.19715 3.51241 -35
      vertex -2 10 -35
      vertex -0.75 0.75 -35
    endloop
  endfacet
  facet normal 0 1.22461e-016 1
    outer loop
      vertex 17.0903 2.99474 -35
      vertex 23 10 -35
      vertex 18.075 4.35 -35
    endloop
  endfacet
  facet normal 0 1.22461e-016 1
    outer loop
      vertex 23 -50 -35
      vertex 23 10 -35
      vertex 21.75 0.75 -35
    endloop
  endfacet
  facet normal 0 1.22461e-016 1
    outer loop
      vertex 15.4972 -45.5124 -35
      vertex 21.75 -42.75 -35
      vertex -2 -50 -35
    endloop
  endfacet
  facet normal 0 1.22461e-016 1
    outer loop
      vertex 23 -50 -35
      vertex 21.75 0.75 -35
      vertex 21.75 -42.75 -35
    endloop
  endfacet
  facet normal 0 1.22461e-016 1
    outer loop
      vertex 3.19715 5.18759 -35
      vertex -2 10 -35
      vertex 3.19715 3.51241 -35
    endloop
  endfacet
  facet normal 0 1.22461e-016 1
    outer loop
      vertex 5.775 -46.35 -35
      vertex 4.79035 -47.7053 -35
      vertex 21.75 -42.75 -35
    endloop
  endfacet
  facet normal 0 1.22461e-016 1
    outer loop
      vertex 4.79035 5.70526 -35
      vertex -2 10 -35
      vertex 3.19715 5.18759 -35
    endloop
  endfacet
  facet normal 0 1.22461e-016 1
    outer loop
      vertex 23 10 -35
      vertex -2 10 -35
      vertex 4.79035 5.70526 -35
    endloop
  endfacet
  facet normal 0 1.22461e-016 1
    outer loop
      vertex 23 10 -35
      vertex 4.79035 2.99474 -35
      vertex -0.75 0.75 -35
    endloop
  endfacet
  facet normal 0 1.22461e-016 1
    outer loop
      vertex 23 10 -35
      vertex 5.775 4.35 -35
      vertex 4.79035 2.99474 -35
    endloop
  endfacet
  facet normal 0 1.22461e-016 1
    outer loop
      vertex 4.79035 -47.7053 -35
      vertex 3.19715 -47.1876 -35
      vertex -2 -50 -35
    endloop
  endfacet
  facet normal 0 1.22461e-016 1
    outer loop
      vertex -0.75 0.75 -35
      vertex 21.75 0.75 -35
      vertex 17.0903 2.99474 -35
    endloop
  endfacet
  facet normal 0 1.22461e-016 1
    outer loop
      vertex 3.19715 -47.1876 -35
      vertex 3.19715 -45.5124 -35
      vertex -2 -50 -35
    endloop
  endfacet
  facet normal 0 1.22461e-016 1
    outer loop
      vertex 17.0903 2.99474 -35
      vertex 21.75 0.75 -35
      vertex 23 10 -35
    endloop
  endfacet
  facet normal 0 1.22461e-016 1
    outer loop
      vertex 17.0903 5.70526 -35
      vertex 18.075 4.35 -35
      vertex 23 10 -35
    endloop
  endfacet
  facet normal 0 1.22461e-016 1
    outer loop
      vertex 21.75 -42.75 -35
      vertex 4.79035 -44.9947 -35
      vertex 5.775 -46.35 -35
    endloop
  endfacet
  facet normal 0 1.22461e-016 1
    outer loop
      vertex 21.75 -42.75 -35
      vertex 4.79035 -47.7053 -35
      vertex -2 -50 -35
    endloop
  endfacet
  facet normal 0 1.22461e-016 1
    outer loop
      vertex 15.4972 5.18759 -35
      vertex -0.75 0.75 -35
      vertex 15.4972 3.51241 -35
    endloop
  endfacet
  facet normal 0 1.22461e-016 1
    outer loop
      vertex 23 10 -35
      vertex -0.75 0.75 -35
      vertex 15.4972 5.18759 -35
    endloop
  endfacet
  facet normal 0 1.22461e-016 1
    outer loop
      vertex 17.0903 -44.9947 -35
      vertex 18.075 -46.35 -35
      vertex 21.75 -42.75 -35
    endloop
  endfacet
  facet normal 0 1.22461e-016 1
    outer loop
      vertex 23 10 -35
      vertex 15.4972 5.18759 -35
      vertex 17.0903 5.70526 -35
    endloop
  endfacet
  facet normal 0 1.22461e-016 1
    outer loop
      vertex 4.79035 2.99474 -35
      vertex 3.19715 3.51241 -35
      vertex -0.75 0.75 -35
    endloop
  endfacet
  facet normal 0 1.22461e-016 1
    outer loop
      vertex 4.79035 5.70526 -35
      vertex 5.775 4.35 -35
      vertex 23 10 -35
    endloop
  endfacet
  facet normal 0 1.22461e-016 1
    outer loop
      vertex 23 -50 -35
      vertex 15.4972 -47.1876 -35
      vertex -2 -50 -35
    endloop
  endfacet
  facet normal 0 1.22461e-016 1
    outer loop
      vertex 15.4972 -47.1876 -35
      vertex 15.4972 -45.5124 -35
      vertex -2 -50 -35
    endloop
  endfacet
  facet normal 0 1.22461e-016 1
    outer loop
      vertex 17.0903 -44.9947 -35
      vertex 21.75 -42.75 -35
      vertex 15.4972 -45.5124 -35
    endloop
  endfacet
  facet normal 0 1.22461e-016 1
    outer loop
      vertex 23 -50 -35
      vertex 21.75 -42.75 -35
      vertex 18.075 -46.35 -35
    endloop
  endfacet
  facet normal 0 1.22461e-016 1
    outer loop
      vertex 23 -50 -35
      vertex 17.0903 -47.7053 -35
      vertex 15.4972 -47.1876 -35
    endloop
  endfacet
  facet normal 0 1.22461e-016 1
    outer loop
      vertex 23 -50 -35
      vertex 18.075 -46.35 -35
      vertex 17.0903 -47.7053 -35
    endloop
  endfacet
  facet normal 0 1.22461e-016 1
    outer loop
      vertex 3.19715 -45.5124 -35
      vertex -0.75 -42.75 -35
      vertex -2 -50 -35
    endloop
  endfacet
  facet normal 0 1.22461e-016 1
    outer loop
      vertex 4.79035 -44.9947 -35
      vertex -0.75 -42.75 -35
      vertex 3.19715 -45.5124 -35
    endloop
  endfacet
  facet normal 0 1.22461e-016 1
    outer loop
      vertex 21.75 -42.75 -35
      vertex -0.75 -42.75 -35
      vertex 4.79035 -44.9947 -35
    endloop
  endfacet
  facet normal 0 -1 1.22461e-016
    outer loop
      vertex 23 -50 -35
      vertex -2 -50 -35
      vertex -2 -50 -50
    endloop
  endfacet
  facet normal 0 -1 1.22461e-016
    outer loop
      vertex 23 -50 -50
      vertex 23 -50 -35
      vertex -2 -50 -50
    endloop
  endfacet
  facet normal 0 -1.22461e-016 -1
    outer loop
      vertex 4.805 -31 -50
      vertex 23 10 -50
      vertex -2 -50 -50
    endloop
  endfacet
  facet normal 0 -1.22461e-016 -1
    outer loop
      vertex 19.045 -31 -50
      vertex 23 10 -50
      vertex 23 -50 -50
    endloop
  endfacet
  facet normal 0 -1.22461e-016 -1
    outer loop
      vertex -2 10 -50
      vertex 23 10 -50
      vertex 2.22715 -30.1624 -50
    endloop
  endfacet
  facet normal 0 -1.22461e-016 -1
    outer loop
      vertex -2 10 -50
      vertex 2.22715 -30.1624 -50
      vertex -2 -50 -50
    endloop
  endfacet
  facet normal 0 -1.22461e-016 -1
    outer loop
      vertex 3.82035 -29.6447 -50
      vertex 23 10 -50
      vertex 4.805 -31 -50
    endloop
  endfacet
  facet normal 0 -1.22461e-016 -1
    outer loop
      vertex 2.22715 -30.1624 -50
      vertex 2.22715 -31.8376 -50
      vertex -2 -50 -50
    endloop
  endfacet
  facet normal 0 -1.22461e-016 -1
    outer loop
      vertex 10.9403 -25.2353 -50
      vertex 23 -50 -50
      vertex 9.34715 -24.7176 -50
    endloop
  endfacet
  facet normal 0 -1.22461e-016 -1
    outer loop
      vertex 2.22715 -31.8376 -50
      vertex 3.82035 -32.3553 -50
      vertex -2 -50 -50
    endloop
  endfacet
  facet normal 0 -1.22461e-016 -1
    outer loop
      vertex 3.82035 -32.3553 -50
      vertex 4.805 -31 -50
      vertex -2 -50 -50
    endloop
  endfacet
  facet normal 0 -1.22461e-016 -1
    outer loop
      vertex -2 -50 -50
      vertex 23 10 -50
      vertex 9.34715 -23.0424 -50
    endloop
  endfacet
  facet normal 0 -1.22461e-016 -1
    outer loop
      vertex -2 -50 -50
      vertex 9.34715 -23.0424 -50
      vertex 9.34715 -24.7176 -50
    endloop
  endfacet
  facet normal 0 -1.22461e-016 -1
    outer loop
      vertex 11.925 -38.12 -50
      vertex 9.34715 -24.7176 -50
      vertex 23 -50 -50
    endloop
  endfacet
  facet normal 0 -1.22461e-016 -1
    outer loop
      vertex 11.925 -38.12 -50
      vertex 23 -50 -50
      vertex 10.9403 -39.4753 -50
    endloop
  endfacet
  facet normal 0 -1.22461e-016 -1
    outer loop
      vertex 10.9403 -22.5247 -50
      vertex 23 10 -50
      vertex 11.925 -23.88 -50
    endloop
  endfacet
  facet normal 0 -1.22461e-016 -1
    outer loop
      vertex 10.9403 -25.2353 -50
      vertex 11.925 -23.88 -50
      vertex 23 -50 -50
    endloop
  endfacet
  facet normal 0 -1.22461e-016 -1
    outer loop
      vertex 9.34715 -23.0424 -50
      vertex 23 10 -50
      vertex 10.9403 -22.5247 -50
    endloop
  endfacet
  facet normal 0 -1.22461e-016 -1
    outer loop
      vertex -2 -50 -50
      vertex 9.34715 -24.7176 -50
      vertex 9.34715 -37.2824 -50
    endloop
  endfacet
  facet normal 0 -1.22461e-016 -1
    outer loop
      vertex -2 -50 -50
      vertex 9.34715 -37.2824 -50
      vertex 9.34715 -38.9576 -50
    endloop
  endfacet
  facet normal 0 -1.22461e-016 -1
    outer loop
      vertex -2 -50 -50
      vertex 9.34715 -38.9576 -50
      vertex 23 -50 -50
    endloop
  endfacet
  facet normal 0 -1.22461e-016 -1
    outer loop
      vertex 9.34715 -38.9576 -50
      vertex 10.9403 -39.4753 -50
      vertex 23 -50 -50
    endloop
  endfacet
  facet normal 0 -1.22461e-016 -1
    outer loop
      vertex 10.9403 -36.7647 -50
      vertex 9.34715 -24.7176 -50
      vertex 11.925 -38.12 -50
    endloop
  endfacet
  facet normal 0 -1.22461e-016 -1
    outer loop
      vertex 18.0603 -32.3553 -50
      vertex 23 -50 -50
      vertex 16.4672 -31.8376 -50
    endloop
  endfacet
  facet normal 0 -1.22461e-016 -1
    outer loop
      vertex 9.34715 -37.2824 -50
      vertex 9.34715 -24.7176 -50
      vertex 10.9403 -36.7647 -50
    endloop
  endfacet
  facet normal 0 -1.22461e-016 -1
    outer loop
      vertex 11.925 -23.88 -50
      vertex 23 10 -50
      vertex 16.4672 -30.1624 -50
    endloop
  endfacet
  facet normal 0 -1.22461e-016 -1
    outer loop
      vertex 11.925 -23.88 -50
      vertex 16.4672 -30.1624 -50
      vertex 16.4672 -31.8376 -50
    endloop
  endfacet
  facet normal 0 -1.22461e-016 -1
    outer loop
      vertex 11.925 -23.88 -50
      vertex 16.4672 -31.8376 -50
      vertex 23 -50 -50
    endloop
  endfacet
  facet normal 0 -1.22461e-016 -1
    outer loop
      vertex 18.0603 -29.6447 -50
      vertex 23 10 -50
      vertex 19.045 -31 -50
    endloop
  endfacet
  facet normal 0 -1.22461e-016 -1
    outer loop
      vertex 18.0603 -32.3553 -50
      vertex 19.045 -31 -50
      vertex 23 -50 -50
    endloop
  endfacet
  facet normal 0 -1.22461e-016 -1
    outer loop
      vertex 16.4672 -30.1624 -50
      vertex 23 10 -50
      vertex 18.0603 -29.6447 -50
    endloop
  endfacet
  facet normal 0 -1.22461e-016 -1
    outer loop
      vertex 2.22715 -30.1624 -50
      vertex 23 10 -50
      vertex 3.82035 -29.6447 -50
    endloop
  endfacet
  facet normal 1 0 0
    outer loop
      vertex 23 10 -50
      vertex 23 10 -35
      vertex 23 -50 -35
    endloop
  endfacet
  facet normal 1 0 0
    outer loop
      vertex 23 -50 -50
      vertex 23 10 -50
      vertex 23 -50 -35
    endloop
  endfacet
  facet normal 1 0 0
    outer loop
      vertex -0.75 -42.75 -35
      vertex -0.75 -42.75 -38.75
      vertex -0.75 -31 -38.75
    endloop
  endfacet
  facet normal 1 0 0
    outer loop
      vertex -0.75 0.75 -35
      vertex -0.75 -42.75 -35
      vertex -0.75 0.75 -38.75
    endloop
  endfacet
  facet normal 1 0 0
    outer loop
      vertex -0.75 0.75 -38.75
      vertex -0.75 -42.75 -35
      vertex -0.75 -31 -38.75
    endloop
  endfacet
  facet normal 0 1 -1.22461e-016
    outer loop
      vertex 21.75 -42.75 -38.75
      vertex -0.75 -42.75 -38.75
      vertex 21.75 -42.75 -35
    endloop
  endfacet
  facet normal 0 1 -1.22461e-016
    outer loop
      vertex 21.75 -42.75 -35
      vertex -0.75 -42.75 -38.75
      vertex -0.75 -42.75 -35
    endloop
  endfacet
  facet normal -1 0 0
    outer loop
      vertex 21.75 -42.75 -38.75
      vertex 21.75 -42.75 -35
      vertex 21.75 -31 -38.75
    endloop
  endfacet
  facet normal -1 0 0
    outer loop
      vertex 21.75 -31 -38.75
      vertex 21.75 -42.75 -35
      vertex 21.75 0.75 -38.75
    endloop
  endfacet
  facet normal -1 0 0
    outer loop
      vertex 21.75 0.75 -38.75
      vertex 21.75 -42.75 -35
      vertex 21.75 0.75 -35
    endloop
  endfacet
  facet normal 0 -1 1.22461e-016
    outer loop
      vertex -0.75 0.75 -38.75
      vertex 21.75 0.75 -38.75
      vertex 21.75 0.75 -35
    endloop
  endfacet
  facet normal 0 -1 1.22461e-016
    outer loop
      vertex -0.75 0.75 -35
      vertex -0.75 0.75 -38.75
      vertex 21.75 0.75 -35
    endloop
  endfacet
  facet normal 0.309021 0.951055 -1.16467e-016
    outer loop
      vertex 4.79035 2.99474 -46.25
      vertex 3.19715 3.51241 -46.25
      vertex 4.79035 2.99474 -35
    endloop
  endfacet
  facet normal 0.309021 0.951055 -1.16467e-016
    outer loop
      vertex 4.79035 2.99474 -35
      vertex 3.19715 3.51241 -46.25
      vertex 3.19715 3.51241 -35
    endloop
  endfacet
  facet normal 1 0 0
    outer loop
      vertex 3.19715 3.51241 -35
      vertex 3.19715 3.51241 -46.25
      vertex 3.19715 5.18759 -46.25
    endloop
  endfacet
  facet normal 1 0 0
    outer loop
      vertex 3.19715 5.18759 -35
      vertex 3.19715 3.51241 -35
      vertex 3.19715 5.18759 -46.25
    endloop
  endfacet
  facet normal -0.809018 0.587784 -7.19804e-017
    outer loop
      vertex 5.775 4.35 -46.25
      vertex 4.79035 2.99474 -46.25
      vertex 5.775 4.35 -35
    endloop
  endfacet
  facet normal -0.809018 0.587784 -7.19804e-017
    outer loop
      vertex 5.775 4.35 -35
      vertex 4.79035 2.99474 -46.25
      vertex 4.79035 2.99474 -35
    endloop
  endfacet
  facet normal -0.809018 -0.587784 7.19804e-017
    outer loop
      vertex 5.775 4.35 -46.25
      vertex 5.775 4.35 -35
      vertex 4.79035 5.70526 -46.25
    endloop
  endfacet
  facet normal -0.809018 -0.587784 7.19804e-017
    outer loop
      vertex 4.79035 5.70526 -46.25
      vertex 5.775 4.35 -35
      vertex 4.79035 5.70526 -35
    endloop
  endfacet
  facet normal 0.309021 -0.951055 1.16467e-016
    outer loop
      vertex 3.19715 5.18759 -46.25
      vertex 4.79035 5.70526 -46.25
      vertex 4.79035 5.70526 -35
    endloop
  endfacet
  facet normal 0.309021 -0.951055 1.16467e-016
    outer loop
      vertex 3.19715 5.18759 -35
      vertex 3.19715 5.18759 -46.25
      vertex 4.79035 5.70526 -35
    endloop
  endfacet
  facet normal 0.309037 0.95105 -1.16466e-016
    outer loop
      vertex 4.79035 -47.7053 -46.25
      vertex 3.19715 -47.1876 -46.25
      vertex 4.79035 -47.7053 -35
    endloop
  endfacet
  facet normal 0.309037 0.95105 -1.16466e-016
    outer loop
      vertex 4.79035 -47.7053 -35
      vertex 3.19715 -47.1876 -46.25
      vertex 3.19715 -47.1876 -35
    endloop
  endfacet
  facet normal 1 0 0
    outer loop
      vertex 3.19715 -47.1876 -35
      vertex 3.19715 -47.1876 -46.25
      vertex 3.19715 -45.5124 -46.25
    endloop
  endfacet
  facet normal 1 0 0
    outer loop
      vertex 3.19715 -45.5124 -35
      vertex 3.19715 -47.1876 -35
      vertex 3.19715 -45.5124 -46.25
    endloop
  endfacet
  facet normal -0.809026 0.587772 -7.1979e-017
    outer loop
      vertex 5.775 -46.35 -46.25
      vertex 4.79035 -47.7053 -46.25
      vertex 5.775 -46.35 -35
    endloop
  endfacet
  facet normal -0.809026 0.587772 -7.1979e-017
    outer loop
      vertex 5.775 -46.35 -35
      vertex 4.79035 -47.7053 -46.25
      vertex 4.79035 -47.7053 -35
    endloop
  endfacet
  facet normal -0.809026 -0.587772 7.1979e-017
    outer loop
      vertex 5.775 -46.35 -46.25
      vertex 5.775 -46.35 -35
      vertex 4.79035 -44.9947 -46.25
    endloop
  endfacet
  facet normal -0.809026 -0.587772 7.1979e-017
    outer loop
      vertex 4.79035 -44.9947 -46.25
      vertex 5.775 -46.35 -35
      vertex 4.79035 -44.9947 -35
    endloop
  endfacet
  facet normal 0.309037 -0.95105 1.16466e-016
    outer loop
      vertex 3.19715 -45.5124 -46.25
      vertex 4.79035 -44.9947 -46.25
      vertex 4.79035 -44.9947 -35
    endloop
  endfacet
  facet normal 0.309037 -0.95105 1.16466e-016
    outer loop
      vertex 3.19715 -45.5124 -35
      vertex 3.19715 -45.5124 -46.25
      vertex 4.79035 -44.9947 -35
    endloop
  endfacet
  facet normal 0.309039 0.951049 -1.16466e-016
    outer loop
      vertex 17.0903 2.99474 -46.25
      vertex 15.4972 3.51241 -46.25
      vertex 17.0903 2.99474 -35
    endloop
  endfacet
  facet normal 0.309039 0.951049 -1.16466e-016
    outer loop
      vertex 17.0903 2.99474 -35
      vertex 15.4972 3.51241 -46.25
      vertex 15.4972 3.51241 -35
    endloop
  endfacet
  facet normal 1 0 0
    outer loop
      vertex 15.4972 3.51241 -35
      vertex 15.4972 3.51241 -46.25
      vertex 15.4972 5.18759 -46.25
    endloop
  endfacet
  facet normal 1 0 0
    outer loop
      vertex 15.4972 5.18759 -35
      vertex 15.4972 3.51241 -35
      vertex 15.4972 5.18759 -46.25
    endloop
  endfacet
  facet normal -0.809004 0.587803 -7.19828e-017
    outer loop
      vertex 18.075 4.35 -46.25
      vertex 17.0903 2.99474 -46.25
      vertex 18.075 4.35 -35
    endloop
  endfacet
  facet normal -0.809004 0.587803 -7.19828e-017
    outer loop
      vertex 18.075 4.35 -35
      vertex 17.0903 2.99474 -46.25
      vertex 17.0903 2.99474 -35
    endloop
  endfacet
  facet normal -0.809004 -0.587803 7.19828e-017
    outer loop
      vertex 18.075 4.35 -46.25
      vertex 18.075 4.35 -35
      vertex 17.0903 5.70526 -46.25
    endloop
  endfacet
  facet normal -0.809004 -0.587803 7.19828e-017
    outer loop
      vertex 17.0903 5.70526 -46.25
      vertex 18.075 4.35 -35
      vertex 17.0903 5.70526 -35
    endloop
  endfacet
  facet normal 0.309039 -0.951049 1.16466e-016
    outer loop
      vertex 15.4972 5.18759 -46.25
      vertex 17.0903 5.70526 -46.25
      vertex 17.0903 5.70526 -35
    endloop
  endfacet
  facet normal 0.309039 -0.951049 1.16466e-016
    outer loop
      vertex 15.4972 5.18759 -35
      vertex 15.4972 5.18759 -46.25
      vertex 17.0903 5.70526 -35
    endloop
  endfacet
  facet normal 0.309055 0.951044 -1.16465e-016
    outer loop
      vertex 17.0903 -47.7053 -46.25
      vertex 15.4972 -47.1876 -46.25
      vertex 17.0903 -47.7053 -35
    endloop
  endfacet
  facet normal 0.309055 0.951044 -1.16465e-016
    outer loop
      vertex 17.0903 -47.7053 -35
      vertex 15.4972 -47.1876 -46.25
      vertex 15.4972 -47.1876 -35
    endloop
  endfacet
  facet normal 1 0 0
    outer loop
      vertex 15.4972 -47.1876 -35
      vertex 15.4972 -47.1876 -46.25
      vertex 15.4972 -45.5124 -46.25
    endloop
  endfacet
  facet normal 1 0 0
    outer loop
      vertex 15.4972 -45.5124 -35
      vertex 15.4972 -47.1876 -35
      vertex 15.4972 -45.5124 -46.25
    endloop
  endfacet
  facet normal -0.809012 0.587792 -7.19814e-017
    outer loop
      vertex 18.075 -46.35 -46.25
      vertex 17.0903 -47.7053 -46.25
      vertex 18.075 -46.35 -35
    endloop
  endfacet
  facet normal -0.809012 0.587792 -7.19814e-017
    outer loop
      vertex 18.075 -46.35 -35
      vertex 17.0903 -47.7053 -46.25
      vertex 17.0903 -47.7053 -35
    endloop
  endfacet
  facet normal -0.809012 -0.587792 7.19814e-017
    outer loop
      vertex 18.075 -46.35 -46.25
      vertex 18.075 -46.35 -35
      vertex 17.0903 -44.9947 -46.25
    endloop
  endfacet
  facet normal -0.809012 -0.587792 7.19814e-017
    outer loop
      vertex 17.0903 -44.9947 -46.25
      vertex 18.075 -46.35 -35
      vertex 17.0903 -44.9947 -35
    endloop
  endfacet
  facet normal 0.309055 -0.951044 1.16465e-016
    outer loop
      vertex 15.4972 -45.5124 -46.25
      vertex 17.0903 -44.9947 -46.25
      vertex 17.0903 -44.9947 -35
    endloop
  endfacet
  facet normal 0.309055 -0.951044 1.16465e-016
    outer loop
      vertex 15.4972 -45.5124 -35
      vertex 15.4972 -45.5124 -46.25
      vertex 17.0903 -44.9947 -35
    endloop
  endfacet
  facet normal 0.309037 -0.95105 1.16466e-016
    outer loop
      vertex 2.22715 -30.1624 -50
      vertex 3.82035 -29.6447 -50
      vertex 3.82035 -29.6447 -47.5
    endloop
  endfacet
  facet normal 0.309037 -0.95105 1.16466e-016
    outer loop
      vertex 2.22715 -30.1624 -47.5
      vertex 2.22715 -30.1624 -50
      vertex 3.82035 -29.6447 -47.5
    endloop
  endfacet
  facet normal 1 0 0
    outer loop
      vertex 2.22715 -31.8376 -47.5
      vertex 2.22715 -31.8376 -50
      vertex 2.22715 -30.1624 -50
    endloop
  endfacet
  facet normal 1 0 0
    outer loop
      vertex 2.22715 -30.1624 -47.5
      vertex 2.22715 -31.8376 -47.5
      vertex 2.22715 -30.1624 -50
    endloop
  endfacet
  facet normal -0.809026 -0.587772 7.1979e-017
    outer loop
      vertex 4.805 -31 -50
      vertex 4.805 -31 -47.5
      vertex 3.82035 -29.6447 -50
    endloop
  endfacet
  facet normal -0.809026 -0.587772 7.1979e-017
    outer loop
      vertex 3.82035 -29.6447 -50
      vertex 4.805 -31 -47.5
      vertex 3.82035 -29.6447 -47.5
    endloop
  endfacet
  facet normal -0.809026 0.587772 -7.1979e-017
    outer loop
      vertex 4.805 -31 -50
      vertex 3.82035 -32.3553 -50
      vertex 4.805 -31 -47.5
    endloop
  endfacet
  facet normal -0.809026 0.587772 -7.1979e-017
    outer loop
      vertex 4.805 -31 -47.5
      vertex 3.82035 -32.3553 -50
      vertex 3.82035 -32.3553 -47.5
    endloop
  endfacet
  facet normal 0.309037 0.95105 -1.16466e-016
    outer loop
      vertex 3.82035 -32.3553 -50
      vertex 2.22715 -31.8376 -50
      vertex 3.82035 -32.3553 -47.5
    endloop
  endfacet
  facet normal 0.309037 0.95105 -1.16466e-016
    outer loop
      vertex 3.82035 -32.3553 -47.5
      vertex 2.22715 -31.8376 -50
      vertex 2.22715 -31.8376 -47.5
    endloop
  endfacet
  facet normal 0.309046 -0.951047 1.16466e-016
    outer loop
      vertex 9.34715 -23.0424 -50
      vertex 10.9403 -22.5247 -50
      vertex 10.9403 -22.5247 -47.5
    endloop
  endfacet
  facet normal 0.309046 -0.951047 1.16466e-016
    outer loop
      vertex 9.34715 -23.0424 -47.5
      vertex 9.34715 -23.0424 -50
      vertex 10.9403 -22.5247 -47.5
    endloop
  endfacet
  facet normal 1 0 0
    outer loop
      vertex 9.34715 -24.7176 -47.5
      vertex 9.34715 -24.7176 -50
      vertex 9.34715 -23.0424 -50
    endloop
  endfacet
  facet normal 1 0 0
    outer loop
      vertex 9.34715 -23.0424 -47.5
      vertex 9.34715 -24.7176 -47.5
      vertex 9.34715 -23.0424 -50
    endloop
  endfacet
  facet normal -0.809012 -0.587792 7.19814e-017
    outer loop
      vertex 11.925 -23.88 -50
      vertex 11.925 -23.88 -47.5
      vertex 10.9403 -22.5247 -50
    endloop
  endfacet
  facet normal -0.809012 -0.587792 7.19814e-017
    outer loop
      vertex 10.9403 -22.5247 -50
      vertex 11.925 -23.88 -47.5
      vertex 10.9403 -22.5247 -47.5
    endloop
  endfacet
  facet normal -0.809012 0.587792 -7.19814e-017
    outer loop
      vertex 11.925 -23.88 -50
      vertex 10.9403 -25.2353 -50
      vertex 11.925 -23.88 -47.5
    endloop
  endfacet
  facet normal -0.809012 0.587792 -7.19814e-017
    outer loop
      vertex 11.925 -23.88 -47.5
      vertex 10.9403 -25.2353 -50
      vertex 10.9403 -25.2353 -47.5
    endloop
  endfacet
  facet normal 0.309046 0.951047 -1.16466e-016
    outer loop
      vertex 10.9403 -25.2353 -50
      vertex 9.34715 -24.7176 -50
      vertex 10.9403 -25.2353 -47.5
    endloop
  endfacet
  facet normal 0.309046 0.951047 -1.16466e-016
    outer loop
      vertex 10.9403 -25.2353 -47.5
      vertex 9.34715 -24.7176 -50
      vertex 9.34715 -24.7176 -47.5
    endloop
  endfacet
  facet normal 0.309046 -0.951047 1.16466e-016
    outer loop
      vertex 9.34715 -37.2824 -50
      vertex 10.9403 -36.7647 -50
      vertex 10.9403 -36.7647 -47.5
    endloop
  endfacet
  facet normal 0.309046 -0.951047 1.16466e-016
    outer loop
      vertex 9.34715 -37.2824 -47.5
      vertex 9.34715 -37.2824 -50
      vertex 10.9403 -36.7647 -47.5
    endloop
  endfacet
  facet normal 1 0 0
    outer loop
      vertex 9.34715 -38.9576 -47.5
      vertex 9.34715 -38.9576 -50
      vertex 9.34715 -37.2824 -50
    endloop
  endfacet
  facet normal 1 0 0
    outer loop
      vertex 9.34715 -37.2824 -47.5
      vertex 9.34715 -38.9576 -47.5
      vertex 9.34715 -37.2824 -50
    endloop
  endfacet
  facet normal -0.809012 -0.587792 7.19814e-017
    outer loop
      vertex 11.925 -38.12 -50
      vertex 11.925 -38.12 -47.5
      vertex 10.9403 -36.7647 -50
    endloop
  endfacet
  facet normal -0.809012 -0.587792 7.19814e-017
    outer loop
      vertex 10.9403 -36.7647 -50
      vertex 11.925 -38.12 -47.5
      vertex 10.9403 -36.7647 -47.5
    endloop
  endfacet
  facet normal -0.809012 0.587792 -7.19814e-017
    outer loop
      vertex 11.925 -38.12 -50
      vertex 10.9403 -39.4753 -50
      vertex 11.925 -38.12 -47.5
    endloop
  endfacet
  facet normal -0.809012 0.587792 -7.19814e-017
    outer loop
      vertex 11.925 -38.12 -47.5
      vertex 10.9403 -39.4753 -50
      vertex 10.9403 -39.4753 -47.5
    endloop
  endfacet
  facet normal 0.309046 0.951047 -1.16466e-016
    outer loop
      vertex 10.9403 -39.4753 -50
      vertex 9.34715 -38.9576 -50
      vertex 10.9403 -39.4753 -47.5
    endloop
  endfacet
  facet normal 0.309046 0.951047 -1.16466e-016
    outer loop
      vertex 10.9403 -39.4753 -47.5
      vertex 9.34715 -38.9576 -50
      vertex 9.34715 -38.9576 -47.5
    endloop
  endfacet
  facet normal 0.309055 -0.951044 1.16465e-016
    outer loop
      vertex 16.4672 -30.1624 -50
      vertex 18.0603 -29.6447 -50
      vertex 18.0603 -29.6447 -47.5
    endloop
  endfacet
  facet normal 0.309055 -0.951044 1.16465e-016
    outer loop
      vertex 16.4672 -30.1624 -47.5
      vertex 16.4672 -30.1624 -50
      vertex 18.0603 -29.6447 -47.5
    endloop
  endfacet
  facet normal 1 0 0
    outer loop
      vertex 16.4672 -31.8376 -47.5
      vertex 16.4672 -31.8376 -50
      vertex 16.4672 -30.1624 -50
    endloop
  endfacet
  facet normal 1 0 0
    outer loop
      vertex 16.4672 -30.1624 -47.5
      vertex 16.4672 -31.8376 -47.5
      vertex 16.4672 -30.1624 -50
    endloop
  endfacet
  facet normal -0.809012 -0.587792 7.19814e-017
    outer loop
      vertex 19.045 -31 -50
      vertex 19.045 -31 -47.5
      vertex 18.0603 -29.6447 -50
    endloop
  endfacet
  facet normal -0.809012 -0.587792 7.19814e-017
    outer loop
      vertex 18.0603 -29.6447 -50
      vertex 19.045 -31 -47.5
      vertex 18.0603 -29.6447 -47.5
    endloop
  endfacet
  facet normal -0.809012 0.587792 -7.19814e-017
    outer loop
      vertex 19.045 -31 -50
      vertex 18.0603 -32.3553 -50
      vertex 19.045 -31 -47.5
    endloop
  endfacet
  facet normal -0.809012 0.587792 -7.19814e-017
    outer loop
      vertex 19.045 -31 -47.5
      vertex 18.0603 -32.3553 -50
      vertex 18.0603 -32.3553 -47.5
    endloop
  endfacet
  facet normal 0.309055 0.951044 -1.16465e-016
    outer loop
      vertex 18.0603 -32.3553 -50
      vertex 16.4672 -31.8376 -50
      vertex 18.0603 -32.3553 -47.5
    endloop
  endfacet
  facet normal 0.309055 0.951044 -1.16465e-016
    outer loop
      vertex 18.0603 -32.3553 -47.5
      vertex 16.4672 -31.8376 -50
      vertex 16.4672 -31.8376 -47.5
    endloop
  endfacet
  facet normal 0 1.22461e-016 1
    outer loop
      vertex -0.75 0.75 -38.75
      vertex -0.504161 -28.661 -38.75
      vertex 0.222614 -26.4242 -38.75
    endloop
  endfacet
  facet normal 0 1.22461e-016 1
    outer loop
      vertex 2.97228 -22.6396 -38.75
      vertex 21.75 0.75 -38.75
      vertex 1.39856 -24.3874 -38.75
    endloop
  endfacet
  facet normal 0 1.22461e-016 1
    outer loop
      vertex 1.39856 -24.3874 -38.75
      vertex -0.75 0.75 -38.75
      vertex 0.222614 -26.4242 -38.75
    endloop
  endfacet
  facet normal 0 1.22461e-016 1
    outer loop
      vertex -0.75 -31 -38.75
      vertex -0.504161 -28.661 -38.75
      vertex -0.75 0.75 -38.75
    endloop
  endfacet
  facet normal 0 1.22461e-016 1
    outer loop
      vertex 4.875 -21.2572 -38.75
      vertex 21.75 0.75 -38.75
      vertex 2.97228 -22.6396 -38.75
    endloop
  endfacet
  facet normal 0 1.22461e-016 1
    outer loop
      vertex 7.02356 -20.3006 -38.75
      vertex 21.75 0.75 -38.75
      vertex 4.875 -21.2572 -38.75
    endloop
  endfacet
  facet normal 0 1.22461e-016 1
    outer loop
      vertex 9.32405 -19.8116 -38.75
      vertex 21.75 0.75 -38.75
      vertex 7.02356 -20.3006 -38.75
    endloop
  endfacet
  facet normal 0 1.22461e-016 1
    outer loop
      vertex 11.6759 -19.8116 -38.75
      vertex 21.75 0.75 -38.75
      vertex 9.32405 -19.8116 -38.75
    endloop
  endfacet
  facet normal 0 1.22461e-016 1
    outer loop
      vertex 13.9764 -20.3006 -38.75
      vertex 21.75 0.75 -38.75
      vertex 11.6759 -19.8116 -38.75
    endloop
  endfacet
  facet normal 0 1.22461e-016 1
    outer loop
      vertex 16.125 -21.2572 -38.75
      vertex 21.75 0.75 -38.75
      vertex 13.9764 -20.3006 -38.75
    endloop
  endfacet
  facet normal 0 1.22461e-016 1
    outer loop
      vertex 18.0277 -22.6396 -38.75
      vertex 21.75 0.75 -38.75
      vertex 16.125 -21.2572 -38.75
    endloop
  endfacet
  facet normal 0 1.22461e-016 1
    outer loop
      vertex 19.6014 -24.3874 -38.75
      vertex 21.75 0.75 -38.75
      vertex 18.0277 -22.6396 -38.75
    endloop
  endfacet
  facet normal 0 1.22461e-016 1
    outer loop
      vertex 20.7774 -26.4242 -38.75
      vertex 21.75 0.75 -38.75
      vertex 19.6014 -24.3874 -38.75
    endloop
  endfacet
  facet normal 0 1.22461e-016 1
    outer loop
      vertex 21.5042 -28.661 -38.75
      vertex 21.75 0.75 -38.75
      vertex 20.7774 -26.4242 -38.75
    endloop
  endfacet
  facet normal 0 1.22461e-016 1
    outer loop
      vertex 21.75 -31 -38.75
      vertex 21.75 0.75 -38.75
      vertex 21.5042 -28.661 -38.75
    endloop
  endfacet
  facet normal 0 1.22461e-016 1
    outer loop
      vertex 21.75 0.75 -38.75
      vertex -0.75 0.75 -38.75
      vertex 1.39856 -24.3874 -38.75
    endloop
  endfacet
  facet normal 0.994522 -0.104529 1.28006e-017
    outer loop
      vertex -0.75 -31 -47.5
      vertex -0.504161 -28.661 -47.5
      vertex -0.504161 -28.661 -38.75
    endloop
  endfacet
  facet normal 0.994522 -0.104529 1.28006e-017
    outer loop
      vertex -0.75 -31 -38.75
      vertex -0.75 -31 -47.5
      vertex -0.504161 -28.661 -38.75
    endloop
  endfacet
  facet normal 0.994522 0.104529 -1.28006e-017
    outer loop
      vertex -0.504161 -33.339 -38.75
      vertex -0.504161 -33.339 -47.5
      vertex -0.75 -31 -47.5
    endloop
  endfacet
  facet normal 0.994522 0.104529 -1.28006e-017
    outer loop
      vertex -0.75 -31 -38.75
      vertex -0.504161 -33.339 -38.75
      vertex -0.75 -31 -47.5
    endloop
  endfacet
  facet normal 0 1.22461e-016 1
    outer loop
      vertex 21.5042 -33.339 -38.75
      vertex 21.75 -42.75 -38.75
      vertex 21.75 -31 -38.75
    endloop
  endfacet
  facet normal 0 1.22461e-016 1
    outer loop
      vertex 20.7774 -35.5758 -38.75
      vertex 21.75 -42.75 -38.75
      vertex 21.5042 -33.339 -38.75
    endloop
  endfacet
  facet normal 0 1.22461e-016 1
    outer loop
      vertex 19.6014 -37.6126 -38.75
      vertex 21.75 -42.75 -38.75
      vertex 20.7774 -35.5758 -38.75
    endloop
  endfacet
  facet normal 0 1.22461e-016 1
    outer loop
      vertex 18.0277 -39.3604 -38.75
      vertex 21.75 -42.75 -38.75
      vertex 19.6014 -37.6126 -38.75
    endloop
  endfacet
  facet normal 0 1.22461e-016 1
    outer loop
      vertex 4.875 -40.7428 -38.75
      vertex 2.97228 -39.3604 -38.75
      vertex -0.75 -42.75 -38.75
    endloop
  endfacet
  facet normal 0 1.22461e-016 1
    outer loop
      vertex 16.125 -40.7428 -38.75
      vertex 21.75 -42.75 -38.75
      vertex 18.0277 -39.3604 -38.75
    endloop
  endfacet
  facet normal 0 1.22461e-016 1
    outer loop
      vertex 13.9764 -41.6994 -38.75
      vertex 21.75 -42.75 -38.75
      vertex 16.125 -40.7428 -38.75
    endloop
  endfacet
  facet normal 0 1.22461e-016 1
    outer loop
      vertex 11.6759 -42.1884 -38.75
      vertex 21.75 -42.75 -38.75
      vertex 13.9764 -41.6994 -38.75
    endloop
  endfacet
  facet normal 0 1.22461e-016 1
    outer loop
      vertex -0.75 -42.75 -38.75
      vertex 21.75 -42.75 -38.75
      vertex 11.6759 -42.1884 -38.75
    endloop
  endfacet
  facet normal 0 1.22461e-016 1
    outer loop
      vertex -0.75 -42.75 -38.75
      vertex 11.6759 -42.1884 -38.75
      vertex 9.32405 -42.1884 -38.75
    endloop
  endfacet
  facet normal 0 1.22461e-016 1
    outer loop
      vertex 1.39856 -37.6126 -38.75
      vertex -0.75 -42.75 -38.75
      vertex 2.97228 -39.3604 -38.75
    endloop
  endfacet
  facet normal 0 1.22461e-016 1
    outer loop
      vertex 0.222614 -35.5758 -38.75
      vertex -0.75 -42.75 -38.75
      vertex 1.39856 -37.6126 -38.75
    endloop
  endfacet
  facet normal 0 1.22461e-016 1
    outer loop
      vertex -0.504161 -33.339 -38.75
      vertex -0.75 -42.75 -38.75
      vertex 0.222614 -35.5758 -38.75
    endloop
  endfacet
  facet normal 0 1.22461e-016 1
    outer loop
      vertex -0.75 -31 -38.75
      vertex -0.75 -42.75 -38.75
      vertex -0.504161 -33.339 -38.75
    endloop
  endfacet
  facet normal 0 1.22461e-016 1
    outer loop
      vertex 9.32405 -42.1884 -38.75
      vertex 7.02356 -41.6994 -38.75
      vertex -0.75 -42.75 -38.75
    endloop
  endfacet
  facet normal 0 1.22461e-016 1
    outer loop
      vertex 7.02356 -41.6994 -38.75
      vertex 4.875 -40.7428 -38.75
      vertex -0.75 -42.75 -38.75
    endloop
  endfacet
  facet normal -0.994524 0.104512 -1.27986e-017
    outer loop
      vertex 21.75 -31 -47.5
      vertex 21.5042 -33.339 -47.5
      vertex 21.75 -31 -38.75
    endloop
  endfacet
  facet normal -0.994524 0.104512 -1.27986e-017
    outer loop
      vertex 21.75 -31 -38.75
      vertex 21.5042 -33.339 -47.5
      vertex 21.5042 -33.339 -38.75
    endloop
  endfacet
  facet normal -0.994524 -0.104512 1.27986e-017
    outer loop
      vertex 21.75 -31 -47.5
      vertex 21.75 -31 -38.75
      vertex 21.5042 -28.661 -47.5
    endloop
  endfacet
  facet normal -0.994524 -0.104512 1.27986e-017
    outer loop
      vertex 21.5042 -28.661 -47.5
      vertex 21.75 -31 -38.75
      vertex 21.5042 -28.661 -38.75
    endloop
  endfacet
  facet normal 0 1.22461e-016 1
    outer loop
      vertex 3.19715 3.51241 -46.25
      vertex 4.79035 2.99474 -46.25
      vertex 5.775 4.35 -46.25
    endloop
  endfacet
  facet normal 0 1.22461e-016 1
    outer loop
      vertex 3.19715 5.18759 -46.25
      vertex 3.19715 3.51241 -46.25
      vertex 4.79035 5.70526 -46.25
    endloop
  endfacet
  facet normal 0 1.22461e-016 1
    outer loop
      vertex 4.79035 5.70526 -46.25
      vertex 3.19715 3.51241 -46.25
      vertex 5.775 4.35 -46.25
    endloop
  endfacet
  facet normal 0 1.22461e-016 1
    outer loop
      vertex 3.19715 -47.1876 -46.25
      vertex 4.79035 -47.7053 -46.25
      vertex 5.775 -46.35 -46.25
    endloop
  endfacet
  facet normal 0 1.22461e-016 1
    outer loop
      vertex 3.19715 -45.5124 -46.25
      vertex 3.19715 -47.1876 -46.25
      vertex 4.79035 -44.9947 -46.25
    endloop
  endfacet
  facet normal 0 1.22461e-016 1
    outer loop
      vertex 4.79035 -44.9947 -46.25
      vertex 3.19715 -47.1876 -46.25
      vertex 5.775 -46.35 -46.25
    endloop
  endfacet
  facet normal 0 1.22461e-016 1
    outer loop
      vertex 15.4972 3.51241 -46.25
      vertex 17.0903 2.99474 -46.25
      vertex 18.075 4.35 -46.25
    endloop
  endfacet
  facet normal 0 1.22461e-016 1
    outer loop
      vertex 15.4972 5.18759 -46.25
      vertex 15.4972 3.51241 -46.25
      vertex 17.0903 5.70526 -46.25
    endloop
  endfacet
  facet normal 0 1.22461e-016 1
    outer loop
      vertex 17.0903 5.70526 -46.25
      vertex 15.4972 3.51241 -46.25
      vertex 18.075 4.35 -46.25
    endloop
  endfacet
  facet normal 0 1.22461e-016 1
    outer loop
      vertex 15.4972 -47.1876 -46.25
      vertex 17.0903 -47.7053 -46.25
      vertex 18.075 -46.35 -46.25
    endloop
  endfacet
  facet normal 0 1.22461e-016 1
    outer loop
      vertex 15.4972 -45.5124 -46.25
      vertex 15.4972 -47.1876 -46.25
      vertex 17.0903 -44.9947 -46.25
    endloop
  endfacet
  facet normal 0 1.22461e-016 1
    outer loop
      vertex 17.0903 -44.9947 -46.25
      vertex 15.4972 -47.1876 -46.25
      vertex 18.075 -46.35 -46.25
    endloop
  endfacet
  facet normal 0 1.22461e-016 1
    outer loop
      vertex -0.504161 -33.339 -47.5
      vertex 0.222614 -35.5758 -47.5
      vertex 1.39856 -37.6126 -47.5
    endloop
  endfacet
  facet normal 0 1.22461e-016 1
    outer loop
      vertex 4.875 -40.7428 -47.5
      vertex -0.504161 -33.339 -47.5
      vertex 2.97228 -39.3604 -47.5
    endloop
  endfacet
  facet normal 0 1.22461e-016 1
    outer loop
      vertex 2.97228 -39.3604 -47.5
      vertex -0.504161 -33.339 -47.5
      vertex 1.39856 -37.6126 -47.5
    endloop
  endfacet
  facet normal 0 1.22461e-016 1
    outer loop
      vertex 7.02356 -41.6994 -47.5
      vertex -0.504161 -33.339 -47.5
      vertex 4.875 -40.7428 -47.5
    endloop
  endfacet
  facet normal 0 1.22461e-016 1
    outer loop
      vertex 9.32405 -42.1884 -47.5
      vertex -0.504161 -33.339 -47.5
      vertex 7.02356 -41.6994 -47.5
    endloop
  endfacet
  facet normal 0 1.22461e-016 1
    outer loop
      vertex 11.6759 -42.1884 -47.5
      vertex -0.504161 -33.339 -47.5
      vertex 9.32405 -42.1884 -47.5
    endloop
  endfacet
  facet normal 0 1.22461e-016 1
    outer loop
      vertex 13.9764 -41.6994 -47.5
      vertex -0.504161 -33.339 -47.5
      vertex 11.6759 -42.1884 -47.5
    endloop
  endfacet
  facet normal 0 1.22461e-016 1
    outer loop
      vertex 9.34715 -38.9576 -47.5
      vertex -0.504161 -33.339 -47.5
      vertex 13.9764 -41.6994 -47.5
    endloop
  endfacet
  facet normal 0 1.22461e-016 1
    outer loop
      vertex 11.925 -38.12 -47.5
      vertex 10.9403 -39.4753 -47.5
      vertex 16.125 -40.7428 -47.5
    endloop
  endfacet
  facet normal 0 1.22461e-016 1
    outer loop
      vertex 20.7774 -35.5758 -47.5
      vertex -0.504161 -33.339 -47.5
      vertex 19.6014 -37.6126 -47.5
    endloop
  endfacet
  facet normal 0 1.22461e-016 1
    outer loop
      vertex 21.5042 -33.339 -47.5
      vertex -0.504161 -33.339 -47.5
      vertex 20.7774 -35.5758 -47.5
    endloop
  endfacet
  facet normal 0 1.22461e-016 1
    outer loop
      vertex 18.0603 -32.3553 -47.5
      vertex -0.504161 -33.339 -47.5
      vertex 21.5042 -33.339 -47.5
    endloop
  endfacet
  facet normal 0 1.22461e-016 1
    outer loop
      vertex 18.0603 -29.6447 -47.5
      vertex 21.75 -31 -47.5
      vertex 21.5042 -28.661 -47.5
    endloop
  endfacet
  facet normal 0 1.22461e-016 1
    outer loop
      vertex 3.82035 -32.3553 -47.5
      vertex -0.504161 -33.339 -47.5
      vertex 21.5042 -28.661 -47.5
    endloop
  endfacet
  facet normal 0 1.22461e-016 1
    outer loop
      vertex 3.82035 -32.3553 -47.5
      vertex 2.22715 -31.8376 -47.5
      vertex -0.504161 -33.339 -47.5
    endloop
  endfacet
  facet normal 0 1.22461e-016 1
    outer loop
      vertex 4.805 -31 -47.5
      vertex 3.82035 -32.3553 -47.5
      vertex 20.7774 -26.4242 -47.5
    endloop
  endfacet
  facet normal 0 1.22461e-016 1
    outer loop
      vertex 3.82035 -29.6447 -47.5
      vertex 4.805 -31 -47.5
      vertex 19.6014 -24.3874 -47.5
    endloop
  endfacet
  facet normal 0 1.22461e-016 1
    outer loop
      vertex 11.925 -23.88 -47.5
      vertex 10.9403 -25.2353 -47.5
      vertex 16.125 -21.2572 -47.5
    endloop
  endfacet
  facet normal 0 1.22461e-016 1
    outer loop
      vertex 7.02356 -20.3006 -47.5
      vertex -0.504161 -33.339 -47.5
      vertex 9.32405 -19.8116 -47.5
    endloop
  endfacet
  facet normal 0 1.22461e-016 1
    outer loop
      vertex 4.875 -21.2572 -47.5
      vertex -0.504161 -33.339 -47.5
      vertex 7.02356 -20.3006 -47.5
    endloop
  endfacet
  facet normal 0 1.22461e-016 1
    outer loop
      vertex 2.97228 -22.6396 -47.5
      vertex -0.504161 -33.339 -47.5
      vertex 4.875 -21.2572 -47.5
    endloop
  endfacet
  facet normal 0 1.22461e-016 1
    outer loop
      vertex 1.39856 -24.3874 -47.5
      vertex -0.504161 -33.339 -47.5
      vertex 2.97228 -22.6396 -47.5
    endloop
  endfacet
  facet normal 0 1.22461e-016 1
    outer loop
      vertex 0.222614 -26.4242 -47.5
      vertex -0.504161 -33.339 -47.5
      vertex 1.39856 -24.3874 -47.5
    endloop
  endfacet
  facet normal 0 1.22461e-016 1
    outer loop
      vertex -0.504161 -28.661 -47.5
      vertex -0.504161 -33.339 -47.5
      vertex 0.222614 -26.4242 -47.5
    endloop
  endfacet
  facet normal 0 1.22461e-016 1
    outer loop
      vertex -0.75 -31 -47.5
      vertex -0.504161 -33.339 -47.5
      vertex -0.504161 -28.661 -47.5
    endloop
  endfacet
  facet normal 0 1.22461e-016 1
    outer loop
      vertex 9.32405 -19.8116 -47.5
      vertex 2.22715 -30.1624 -47.5
      vertex 11.6759 -19.8116 -47.5
    endloop
  endfacet
  facet normal 0 1.22461e-016 1
    outer loop
      vertex 9.32405 -19.8116 -47.5
      vertex -0.504161 -33.339 -47.5
      vertex 2.22715 -30.1624 -47.5
    endloop
  endfacet
  facet normal 0 1.22461e-016 1
    outer loop
      vertex 10.9403 -25.2353 -47.5
      vertex 9.34715 -24.7176 -47.5
      vertex 3.82035 -29.6447 -47.5
    endloop
  endfacet
  facet normal 0 1.22461e-016 1
    outer loop
      vertex 19.6014 -24.3874 -47.5
      vertex 4.805 -31 -47.5
      vertex 20.7774 -26.4242 -47.5
    endloop
  endfacet
  facet normal 0 1.22461e-016 1
    outer loop
      vertex 20.7774 -26.4242 -47.5
      vertex 3.82035 -32.3553 -47.5
      vertex 21.5042 -28.661 -47.5
    endloop
  endfacet
  facet normal 0 1.22461e-016 1
    outer loop
      vertex 9.34715 -24.7176 -47.5
      vertex 2.22715 -30.1624 -47.5
      vertex 3.82035 -29.6447 -47.5
    endloop
  endfacet
  facet normal 0 1.22461e-016 1
    outer loop
      vertex 11.6759 -19.8116 -47.5
      vertex 9.34715 -23.0424 -47.5
      vertex 13.9764 -20.3006 -47.5
    endloop
  endfacet
  facet normal 0 1.22461e-016 1
    outer loop
      vertex 9.34715 -23.0424 -47.5
      vertex 10.9403 -22.5247 -47.5
      vertex 13.9764 -20.3006 -47.5
    endloop
  endfacet
  facet normal 0 1.22461e-016 1
    outer loop
      vertex 3.82035 -29.6447 -47.5
      vertex 19.6014 -24.3874 -47.5
      vertex 18.0277 -22.6396 -47.5
    endloop
  endfacet
  facet normal 0 1.22461e-016 1
    outer loop
      vertex 13.9764 -20.3006 -47.5
      vertex 11.925 -23.88 -47.5
      vertex 16.125 -21.2572 -47.5
    endloop
  endfacet
  facet normal 0 1.22461e-016 1
    outer loop
      vertex 16.125 -21.2572 -47.5
      vertex 10.9403 -25.2353 -47.5
      vertex 18.0277 -22.6396 -47.5
    endloop
  endfacet
  facet normal 0 1.22461e-016 1
    outer loop
      vertex 10.9403 -36.7647 -47.5
      vertex 11.925 -38.12 -47.5
      vertex 18.0277 -39.3604 -47.5
    endloop
  endfacet
  facet normal 0 1.22461e-016 1
    outer loop
      vertex 19.6014 -37.6126 -47.5
      vertex 10.9403 -36.7647 -47.5
      vertex 18.0277 -39.3604 -47.5
    endloop
  endfacet
  facet normal 0 1.22461e-016 1
    outer loop
      vertex 19.6014 -37.6126 -47.5
      vertex -0.504161 -33.339 -47.5
      vertex 10.9403 -36.7647 -47.5
    endloop
  endfacet
  facet normal 0 1.22461e-016 1
    outer loop
      vertex 18.0277 -39.3604 -47.5
      vertex 11.925 -38.12 -47.5
      vertex 16.125 -40.7428 -47.5
    endloop
  endfacet
  facet normal 0 1.22461e-016 1
    outer loop
      vertex 16.125 -40.7428 -47.5
      vertex 10.9403 -39.4753 -47.5
      vertex 13.9764 -41.6994 -47.5
    endloop
  endfacet
  facet normal 0 1.22461e-016 1
    outer loop
      vertex 9.34715 -37.2824 -47.5
      vertex 10.9403 -36.7647 -47.5
      vertex -0.504161 -33.339 -47.5
    endloop
  endfacet
  facet normal 0 1.22461e-016 1
    outer loop
      vertex 10.9403 -39.4753 -47.5
      vertex 9.34715 -38.9576 -47.5
      vertex 13.9764 -41.6994 -47.5
    endloop
  endfacet
  facet normal 0 1.22461e-016 1
    outer loop
      vertex 16.4672 -31.8376 -47.5
      vertex 16.4672 -30.1624 -47.5
      vertex -0.504161 -33.339 -47.5
    endloop
  endfacet
  facet normal 0 1.22461e-016 1
    outer loop
      vertex 19.045 -31 -47.5
      vertex 18.0603 -32.3553 -47.5
      vertex 21.75 -31 -47.5
    endloop
  endfacet
  facet normal 0 1.22461e-016 1
    outer loop
      vertex 18.0603 -29.6447 -47.5
      vertex -0.504161 -33.339 -47.5
      vertex 16.4672 -30.1624 -47.5
    endloop
  endfacet
  facet normal 0 1.22461e-016 1
    outer loop
      vertex 21.5042 -28.661 -47.5
      vertex -0.504161 -33.339 -47.5
      vertex 18.0603 -29.6447 -47.5
    endloop
  endfacet
  facet normal 0 1.22461e-016 1
    outer loop
      vertex 21.75 -31 -47.5
      vertex 18.0603 -32.3553 -47.5
      vertex 21.5042 -33.339 -47.5
    endloop
  endfacet
  facet normal 0 1.22461e-016 1
    outer loop
      vertex 16.4672 -31.8376 -47.5
      vertex -0.504161 -33.339 -47.5
      vertex 18.0603 -32.3553 -47.5
    endloop
  endfacet
  facet normal 0 1.22461e-016 1
    outer loop
      vertex 18.0603 -29.6447 -47.5
      vertex 19.045 -31 -47.5
      vertex 21.75 -31 -47.5
    endloop
  endfacet
  facet normal 0 1.22461e-016 1
    outer loop
      vertex 2.22715 -30.1624 -47.5
      vertex 9.34715 -23.0424 -47.5
      vertex 11.6759 -19.8116 -47.5
    endloop
  endfacet
  facet normal 0 1.22461e-016 1
    outer loop
      vertex 10.9403 -22.5247 -47.5
      vertex 11.925 -23.88 -47.5
      vertex 13.9764 -20.3006 -47.5
    endloop
  endfacet
  facet normal 0 1.22461e-016 1
    outer loop
      vertex 9.34715 -38.9576 -47.5
      vertex 9.34715 -37.2824 -47.5
      vertex -0.504161 -33.339 -47.5
    endloop
  endfacet
  facet normal 0 1.22461e-016 1
    outer loop
      vertex 3.82035 -29.6447 -47.5
      vertex 18.0277 -22.6396 -47.5
      vertex 10.9403 -25.2353 -47.5
    endloop
  endfacet
  facet normal 0 1.22461e-016 1
    outer loop
      vertex 9.34715 -24.7176 -47.5
      vertex 9.34715 -23.0424 -47.5
      vertex 2.22715 -30.1624 -47.5
    endloop
  endfacet
  facet normal 0 1.22461e-016 1
    outer loop
      vertex 2.22715 -31.8376 -47.5
      vertex 2.22715 -30.1624 -47.5
      vertex -0.504161 -33.339 -47.5
    endloop
  endfacet
  facet normal -0.951054 -0.309025 3.78433e-017
    outer loop
      vertex 21.5042 -28.661 -47.5
      vertex 21.5042 -28.661 -38.75
      vertex 20.7774 -26.4242 -47.5
    endloop
  endfacet
  facet normal -0.951054 -0.309025 3.78433e-017
    outer loop
      vertex 20.7774 -26.4242 -47.5
      vertex 21.5042 -28.661 -38.75
      vertex 20.7774 -26.4242 -38.75
    endloop
  endfacet
  facet normal -0.866016 -0.500017 6.12324e-017
    outer loop
      vertex 20.7774 -26.4242 -47.5
      vertex 20.7774 -26.4242 -38.75
      vertex 19.6014 -24.3874 -47.5
    endloop
  endfacet
  facet normal -0.866016 -0.500017 6.12324e-017
    outer loop
      vertex 19.6014 -24.3874 -47.5
      vertex 20.7774 -26.4242 -38.75
      vertex 19.6014 -24.3874 -38.75
    endloop
  endfacet
  facet normal -0.74315 -0.669124 8.19414e-017
    outer loop
      vertex 19.6014 -24.3874 -47.5
      vertex 19.6014 -24.3874 -38.75
      vertex 18.0277 -22.6396 -47.5
    endloop
  endfacet
  facet normal -0.74315 -0.669124 8.19414e-017
    outer loop
      vertex 18.0277 -22.6396 -47.5
      vertex 19.6014 -24.3874 -38.75
      vertex 18.0277 -22.6396 -38.75
    endloop
  endfacet
  facet normal -0.587787 -0.809015 9.90725e-017
    outer loop
      vertex 16.125 -21.2572 -47.5
      vertex 18.0277 -22.6396 -47.5
      vertex 18.0277 -22.6396 -38.75
    endloop
  endfacet
  facet normal -0.587787 -0.809015 9.90725e-017
    outer loop
      vertex 16.125 -21.2572 -38.75
      vertex 16.125 -21.2572 -47.5
      vertex 18.0277 -22.6396 -38.75
    endloop
  endfacet
  facet normal -0.40673 -0.913548 1.11874e-016
    outer loop
      vertex 13.9764 -20.3006 -47.5
      vertex 16.125 -21.2572 -47.5
      vertex 16.125 -21.2572 -38.75
    endloop
  endfacet
  facet normal -0.40673 -0.913548 1.11874e-016
    outer loop
      vertex 13.9764 -20.3006 -38.75
      vertex 13.9764 -20.3006 -47.5
      vertex 16.125 -21.2572 -38.75
    endloop
  endfacet
  facet normal -0.207917 -0.978146 1.19784e-016
    outer loop
      vertex 11.6759 -19.8116 -47.5
      vertex 13.9764 -20.3006 -47.5
      vertex 13.9764 -20.3006 -38.75
    endloop
  endfacet
  facet normal -0.207917 -0.978146 1.19784e-016
    outer loop
      vertex 11.6759 -19.8116 -38.75
      vertex 11.6759 -19.8116 -47.5
      vertex 13.9764 -20.3006 -38.75
    endloop
  endfacet
  facet normal 0 -1 1.22461e-016
    outer loop
      vertex 9.32405 -19.8116 -47.5
      vertex 11.6759 -19.8116 -47.5
      vertex 11.6759 -19.8116 -38.75
    endloop
  endfacet
  facet normal 0 -1 1.22461e-016
    outer loop
      vertex 9.32405 -19.8116 -38.75
      vertex 9.32405 -19.8116 -47.5
      vertex 11.6759 -19.8116 -38.75
    endloop
  endfacet
  facet normal 0.207918 -0.978146 1.19784e-016
    outer loop
      vertex 7.02356 -20.3006 -47.5
      vertex 9.32405 -19.8116 -47.5
      vertex 9.32405 -19.8116 -38.75
    endloop
  endfacet
  facet normal 0.207918 -0.978146 1.19784e-016
    outer loop
      vertex 7.02356 -20.3006 -38.75
      vertex 7.02356 -20.3006 -47.5
      vertex 9.32405 -19.8116 -38.75
    endloop
  endfacet
  facet normal 0.406736 -0.913546 1.11873e-016
    outer loop
      vertex 4.875 -21.2572 -47.5
      vertex 7.02356 -20.3006 -47.5
      vertex 7.02356 -20.3006 -38.75
    endloop
  endfacet
  facet normal 0.406736 -0.913546 1.11873e-016
    outer loop
      vertex 4.875 -21.2572 -38.75
      vertex 4.875 -21.2572 -47.5
      vertex 7.02356 -20.3006 -38.75
    endloop
  endfacet
  facet normal 0.587783 -0.809018 9.90729e-017
    outer loop
      vertex 2.97228 -22.6396 -47.5
      vertex 4.875 -21.2572 -47.5
      vertex 4.875 -21.2572 -38.75
    endloop
  endfacet
  facet normal 0.587783 -0.809018 9.90729e-017
    outer loop
      vertex 2.97228 -22.6396 -38.75
      vertex 2.97228 -22.6396 -47.5
      vertex 4.875 -21.2572 -38.75
    endloop
  endfacet
  facet normal 0.743146 -0.669129 8.1942e-017
    outer loop
      vertex 1.39856 -24.3874 -47.5
      vertex 2.97228 -22.6396 -47.5
      vertex 2.97228 -22.6396 -38.75
    endloop
  endfacet
  facet normal 0.743146 -0.669129 8.1942e-017
    outer loop
      vertex 1.39856 -24.3874 -38.75
      vertex 1.39856 -24.3874 -47.5
      vertex 2.97228 -22.6396 -38.75
    endloop
  endfacet
  facet normal 0.866026 -0.5 6.12303e-017
    outer loop
      vertex 0.222614 -26.4242 -47.5
      vertex 1.39856 -24.3874 -47.5
      vertex 1.39856 -24.3874 -38.75
    endloop
  endfacet
  facet normal 0.866026 -0.5 6.12303e-017
    outer loop
      vertex 0.222614 -26.4242 -38.75
      vertex 0.222614 -26.4242 -47.5
      vertex 1.39856 -24.3874 -38.75
    endloop
  endfacet
  facet normal 0.951057 -0.309015 3.78422e-017
    outer loop
      vertex -0.504161 -28.661 -47.5
      vertex 0.222614 -26.4242 -47.5
      vertex 0.222614 -26.4242 -38.75
    endloop
  endfacet
  facet normal 0.951057 -0.309015 3.78422e-017
    outer loop
      vertex -0.504161 -28.661 -38.75
      vertex -0.504161 -28.661 -47.5
      vertex 0.222614 -26.4242 -38.75
    endloop
  endfacet
  facet normal 0.951057 0.309015 -3.78422e-017
    outer loop
      vertex 0.222614 -35.5758 -38.75
      vertex 0.222614 -35.5758 -47.5
      vertex -0.504161 -33.339 -47.5
    endloop
  endfacet
  facet normal 0.951057 0.309015 -3.78422e-017
    outer loop
      vertex -0.504161 -33.339 -38.75
      vertex 0.222614 -35.5758 -38.75
      vertex -0.504161 -33.339 -47.5
    endloop
  endfacet
  facet normal 0.866026 0.5 -6.12303e-017
    outer loop
      vertex 1.39856 -37.6126 -38.75
      vertex 1.39856 -37.6126 -47.5
      vertex 0.222614 -35.5758 -47.5
    endloop
  endfacet
  facet normal 0.866026 0.5 -6.12303e-017
    outer loop
      vertex 0.222614 -35.5758 -38.75
      vertex 1.39856 -37.6126 -38.75
      vertex 0.222614 -35.5758 -47.5
    endloop
  endfacet
  facet normal 0.743146 0.669129 -8.1942e-017
    outer loop
      vertex 2.97228 -39.3604 -38.75
      vertex 2.97228 -39.3604 -47.5
      vertex 1.39856 -37.6126 -47.5
    endloop
  endfacet
  facet normal 0.743146 0.669129 -8.1942e-017
    outer loop
      vertex 1.39856 -37.6126 -38.75
      vertex 2.97228 -39.3604 -38.75
      vertex 1.39856 -37.6126 -47.5
    endloop
  endfacet
  facet normal 0.587783 0.809018 -9.90729e-017
    outer loop
      vertex 4.875 -40.7428 -47.5
      vertex 2.97228 -39.3604 -47.5
      vertex 4.875 -40.7428 -38.75
    endloop
  endfacet
  facet normal 0.587783 0.809018 -9.90729e-017
    outer loop
      vertex 4.875 -40.7428 -38.75
      vertex 2.97228 -39.3604 -47.5
      vertex 2.97228 -39.3604 -38.75
    endloop
  endfacet
  facet normal 0.406736 0.913546 -1.11873e-016
    outer loop
      vertex 7.02356 -41.6994 -47.5
      vertex 4.875 -40.7428 -47.5
      vertex 7.02356 -41.6994 -38.75
    endloop
  endfacet
  facet normal 0.406736 0.913546 -1.11873e-016
    outer loop
      vertex 7.02356 -41.6994 -38.75
      vertex 4.875 -40.7428 -47.5
      vertex 4.875 -40.7428 -38.75
    endloop
  endfacet
  facet normal 0.207918 0.978146 -1.19784e-016
    outer loop
      vertex 9.32405 -42.1884 -47.5
      vertex 7.02356 -41.6994 -47.5
      vertex 9.32405 -42.1884 -38.75
    endloop
  endfacet
  facet normal 0.207918 0.978146 -1.19784e-016
    outer loop
      vertex 9.32405 -42.1884 -38.75
      vertex 7.02356 -41.6994 -47.5
      vertex 7.02356 -41.6994 -38.75
    endloop
  endfacet
  facet normal 0 1 -1.22461e-016
    outer loop
      vertex 11.6759 -42.1884 -47.5
      vertex 9.32405 -42.1884 -47.5
      vertex 11.6759 -42.1884 -38.75
    endloop
  endfacet
  facet normal 0 1 -1.22461e-016
    outer loop
      vertex 11.6759 -42.1884 -38.75
      vertex 9.32405 -42.1884 -47.5
      vertex 9.32405 -42.1884 -38.75
    endloop
  endfacet
  facet normal -0.207917 0.978146 -1.19784e-016
    outer loop
      vertex 13.9764 -41.6994 -47.5
      vertex 11.6759 -42.1884 -47.5
      vertex 13.9764 -41.6994 -38.75
    endloop
  endfacet
  facet normal -0.207917 0.978146 -1.19784e-016
    outer loop
      vertex 13.9764 -41.6994 -38.75
      vertex 11.6759 -42.1884 -47.5
      vertex 11.6759 -42.1884 -38.75
    endloop
  endfacet
  facet normal -0.40673 0.913548 -1.11874e-016
    outer loop
      vertex 16.125 -40.7428 -47.5
      vertex 13.9764 -41.6994 -47.5
      vertex 16.125 -40.7428 -38.75
    endloop
  endfacet
  facet normal -0.40673 0.913548 -1.11874e-016
    outer loop
      vertex 16.125 -40.7428 -38.75
      vertex 13.9764 -41.6994 -47.5
      vertex 13.9764 -41.6994 -38.75
    endloop
  endfacet
  facet normal -0.587787 0.809015 -9.90725e-017
    outer loop
      vertex 18.0277 -39.3604 -47.5
      vertex 16.125 -40.7428 -47.5
      vertex 18.0277 -39.3604 -38.75
    endloop
  endfacet
  facet normal -0.587787 0.809015 -9.90725e-017
    outer loop
      vertex 18.0277 -39.3604 -38.75
      vertex 16.125 -40.7428 -47.5
      vertex 16.125 -40.7428 -38.75
    endloop
  endfacet
  facet normal -0.74315 0.669124 -8.19414e-017
    outer loop
      vertex 19.6014 -37.6126 -47.5
      vertex 18.0277 -39.3604 -47.5
      vertex 19.6014 -37.6126 -38.75
    endloop
  endfacet
  facet normal -0.74315 0.669124 -8.19414e-017
    outer loop
      vertex 19.6014 -37.6126 -38.75
      vertex 18.0277 -39.3604 -47.5
      vertex 18.0277 -39.3604 -38.75
    endloop
  endfacet
  facet normal -0.866016 0.500017 -6.12324e-017
    outer loop
      vertex 20.7774 -35.5758 -47.5
      vertex 19.6014 -37.6126 -47.5
      vertex 20.7774 -35.5758 -38.75
    endloop
  endfacet
  facet normal -0.866016 0.500017 -6.12324e-017
    outer loop
      vertex 20.7774 -35.5758 -38.75
      vertex 19.6014 -37.6126 -47.5
      vertex 19.6014 -37.6126 -38.75
    endloop
  endfacet
  facet normal -0.951054 0.309025 -3.78433e-017
    outer loop
      vertex 21.5042 -33.339 -47.5
      vertex 20.7774 -35.5758 -47.5
      vertex 21.5042 -33.339 -38.75
    endloop
  endfacet
  facet normal -0.951054 0.309025 -3.78433e-017
    outer loop
      vertex 21.5042 -33.339 -38.75
      vertex 20.7774 -35.5758 -47.5
      vertex 20.7774 -35.5758 -38.75
    endloop
  endfacet
endsolid OpenSCAD_Model
